<?xml version="1.0" standalone="no"?>
<!DOCTYPE svg PUBLIC "-//W3C//DTD SVG 1.1//EN" "http://www.w3.org/Graphics/SVG/1.1/DTD/svg11.dtd" >
<svg xmlns="http://www.w3.org/2000/svg">
<metadata>
Created by FontPrep 20130207 at Tue Oct  7 16:19:29 2014
 By Casey Gollan
(c) 2011 Klim Type Foundry. All rights reserved.
</metadata>
<defs>
<font id="25dc652d1ac2f0b6c05727b08da51f67" horiz-adv-x='1024' >
  <font-face 
    font-family="Calibre-Semibold"
    font-weight="600"
    font-stretch="normal"
    units-per-em="2048"
    panose-1="2 11 7 3 3 2 2 6 2 3"
    ascent="1331"
    descent="-717"
    x-height="915"
    cap-height="1257"
    bbox="-246 -461 1960 1855"
    underline-thickness="61"
    underline-position="-82"
    unicode-range="U+0020-FB02"
  />
<missing-glyph horiz-adv-x="1245" 
 />
    <glyph glyph-name="f_f" unicode="ff" horiz-adv-x="1263" 
d="M1152 1135q-56 0 -90 -33t-34 -94v-93h191v-204h-191v-711h-250v711h-346v-711h-250v711h-149v204h149v97q0 154 88 240t236 85q86 0 141 -24v-215q-35 24 -91 24t-90 -32t-34 -91v-84h346v109q0 154 88 240t236 86q86 0 141 -25v-215q-35 25 -91 25z" />
    <glyph glyph-name=".notdef" horiz-adv-x="1245" 
 />
    <glyph glyph-name=".null" horiz-adv-x="0" 
 />
    <glyph glyph-name="nonmarkingreturn" horiz-adv-x="681" 
 />
    <glyph glyph-name="space" unicode=" " horiz-adv-x="434" 
 />
    <glyph glyph-name="exclam" unicode="!" horiz-adv-x="444" 
d="M129 406l-61 851h309l-62 -851h-186zM221 -14q-68 0 -114 46t-46 112q1 67 47 113t114 46t114 -46q47 -46 47 -113q0 -66 -47 -112t-115 -46z" />
    <glyph glyph-name="quotedbl" unicode="&#x22;" horiz-adv-x="669" 
d="M385 750v507h207v-507h-207zM78 750v507h207v-507h-207z" />
    <glyph glyph-name="numbersign" unicode="#" horiz-adv-x="1261" 
d="M539 756l-62 -254h242l61 254h-241zM1130 502l-36 -176h-213l-78 -326h-203l78 326h-242l-78 -326h-198l78 326h-197l39 176h199l61 254h-209l37 176h213l78 325h200l-79 -325h241l80 325h201l-78 -325h197l-39 -176h-199l-61 -254h208z" />
    <glyph glyph-name="dollar" unicode="$" horiz-adv-x="1028" 
d="M420 -182v198q-152 25 -249 116t-124 237h254q51 -152 234 -152q88 0 139 39t51 101q0 63 -35 95t-115 50l-200 49q-299 70 -299 334q0 143 94 240t250 118v187h217v-195q133 -31 214 -116t107 -214h-243q-47 137 -217 137q-82 0 -130 -38t-49 -101q0 -96 132 -131
l213 -51q307 -76 307 -344q0 -145 -91 -241t-243 -120v-198h-217z" />
    <glyph glyph-name="percent" unicode="%" horiz-adv-x="1372" 
d="M1147 271q0 50 -35 85t-86 35t-87 -35t-36 -85t36 -86q36 -35 87 -35t86 36t35 85zM637 985q0 -121 -85 -205t-206 -84t-206 84t-85 205t85 207t206 86t206 -86t85 -207zM1317 272q0 -120 -85 -206t-206 -86t-206 86t-85 206t85 205q85 84 206 84t206 -84t85 -205z
M225 986q0 -50 35 -85t85 -35t86 35t36 85t-36 86t-86 36t-85 -36t-35 -86zM211 0l778 1257h172l-778 -1257h-172z" />
    <glyph glyph-name="ampersand" unicode="&#x26;" horiz-adv-x="1243" 
d="M512 182q100 0 184 64l-282 307q-106 -55 -107 -180q1 -83 53 -137t152 -54zM707 952q0 51 -33 88t-92 37q-58 0 -100 -38t-42 -100t54 -124q18 -23 55 -61l282 -314q35 102 37 209h230q-2 -205 -111 -381l242 -268h-307l-88 96q-150 -116 -338 -116t-307 108
q-118 108 -117 285q0 104 56 192t151 140q-82 113 -82 233q0 154 107 247q108 93 278 93t270 -92t104 -234h-249z" />
    <glyph glyph-name="quotesingle" unicode="'" horiz-adv-x="372" 
d="M78 750v507h217v-507h-217z" />
    <glyph glyph-name="parenleft" unicode="(" horiz-adv-x="665" 
d="M61 580q0 284 152 486t412 265v-256q-145 -39 -233 -170t-89 -325q0 -194 88 -326q88 -131 234 -170v-256q-260 63 -412 265t-152 487z" />
    <glyph glyph-name="parenright" unicode=")" horiz-adv-x="665" 
d="M604 580q0 -285 -152 -487t-411 -265v256q145 39 233 170t88 326q0 196 -88 326t-233 169v256q259 -63 411 -265t152 -486z" />
    <glyph glyph-name="asterisk" unicode="*" horiz-adv-x="708" 
d="M289 1331h131v-194l168 98l65 -115l-170 -96l170 -96l-65 -115l-168 98v-194h-131v194l-168 -98l-66 115l168 96l-168 96l66 115l168 -98v194z" />
    <glyph glyph-name="plus" unicode="+" horiz-adv-x="1146" 
d="M477 1055h195v-344h344v-197h-344v-342h-195v342h-346v197h346v344z" />
    <glyph glyph-name="comma" unicode="," horiz-adv-x="430" 
d="M55 158q0 64 46 108t115 43q69 0 114 -46t45 -130t-66 -182l-116 -174h-164l149 229q-53 10 -88 49t-35 103z" />
    <glyph glyph-name="hyphen" unicode="-" horiz-adv-x="649" 
d="M78 426v221h493v-221h-493z" />
    <glyph glyph-name="period" unicode="." horiz-adv-x="430" 
d="M55 150q0 70 46 116t114 45q68 0 114 -46q46 -45 46 -115t-46 -117t-114 -47t-114 47t-46 117z" />
    <glyph glyph-name="slash" unicode="/" horiz-adv-x="763" 
d="M10 -172l508 1503h236l-508 -1503h-236z" />
    <glyph glyph-name="zero" unicode="0" horiz-adv-x="1122" 
d="M561 1044q-121 0 -180 -114t-59 -301q0 -186 59 -301t180 -115t180 115t60 301q1 187 -59 301t-181 114zM561 -20q-221 0 -358 180t-137 469t137 469t358 180t359 -180t137 -469q1 -289 -137 -469t-359 -180z" />
    <glyph glyph-name="one" unicode="1" horiz-adv-x="706" 
d="M584 1257v-1257h-256v958l-293 -145v256l383 188h166z" />
    <glyph glyph-name="two" unicode="2" horiz-adv-x="980" 
d="M647 904q0 56 -43 98t-118 42q-74 0 -118 -48t-49 -126h-270q18 180 136 294q117 114 307 114t303 -101t112 -274q0 -75 -41 -153t-81 -124t-128 -139l-241 -260h506v-227h-871v170l400 420q137 152 167 205t29 109z" />
    <glyph glyph-name="three" unicode="3" horiz-adv-x="970" 
d="M387 539v202h72q84 0 136 41t52 113t-44 116t-123 44t-127 -48t-54 -124h-254q18 171 137 283t305 112t297 -101t111 -266q0 -90 -43 -165t-111 -107q84 -37 129 -111t45 -163q-1 -168 -117 -277q-116 -108 -315 -108t-325 112t-138 297h259q10 -86 62 -136t137 -50
t136 46q52 46 52 122t-56 122t-143 46h-80z" />
    <glyph glyph-name="four" unicode="4" 
d="M602 465v260h234v-260h190v-215h-190v-250h-234v250h-559v188l434 819h256l-409 -792h278z" />
    <glyph glyph-name="five" unicode="5" horiz-adv-x="995" 
d="M497 614q-97 0 -171 -84h-205v727h737v-227h-524v-256q84 57 203 57q181 -1 293 -117t112 -306t-120 -310q-120 -118 -314 -118t-318 112q-123 112 -137 297h254q11 -86 63 -136t138 -50t137 57q51 56 51 148t-51 149t-148 57z" />
    <glyph glyph-name="six" unicode="6" horiz-adv-x="1044" 
d="M330 408q0 -96 57 -154t149 -59q92 0 151 58q58 59 58 155t-57 155t-150 59q-92 0 -150 -58q-58 -60 -58 -156zM560 1063q-118 -1 -186 -107t-67 -245v-19q31 59 103 96t161 37q184 1 297 -119t113 -299t-120 -303t-324 -124q-256 0 -381 227q-88 154 -88 395
q0 300 130 488t351 188q175 0 281 -88t141 -250h-254q-39 123 -157 123z" />
    <glyph glyph-name="seven" unicode="7" horiz-adv-x="935" 
d="M33 1028v229h850v-186l-412 -1071h-264l403 1028h-577z" />
    <glyph glyph-name="eight" unicode="8" horiz-adv-x="1021" 
d="M511 -20q-194 0 -323 98t-129 266q1 115 63 195t157 106q-82 35 -132 109q-49 74 -49 170q0 166 120 260t294 94t293 -94t119 -260q0 -96 -50 -170t-131 -109q94 -27 157 -106q62 -80 63 -195q0 -168 -129 -266t-323 -98zM340 914q0 -74 49 -116t122 -42t122 43t49 115
t-49 117q-49 44 -122 44t-122 -44t-49 -117zM511 186q87 0 143 48t56 130t-56 131q-56 48 -143 48t-143 -48t-56 -130q0 -83 56 -131t143 -48z" />
    <glyph glyph-name="nine" unicode="9" horiz-adv-x="1044" 
d="M715 850q1 96 -57 154t-150 59q-92 0 -150 -58q-58 -59 -59 -155q0 -96 57 -156q56 -60 150 -59q94 -1 152 59t57 156zM473 432q-184 0 -297 120t-113 299t120 303t325 124q256 0 381 -227q88 -154 88 -396q0 -299 -130 -487t-351 -188q-174 0 -280 88t-142 249h254
q39 -123 157 -123q117 0 185 107q68 106 67 246v18q-31 -59 -103 -96t-161 -37z" />
    <glyph glyph-name="colon" unicode=":" horiz-adv-x="430" 
d="M55 733q0 70 46 116t114 46t114 -46t46 -116t-46 -117t-114 -47t-114 47t-46 117zM55 150q0 70 46 116t114 45q68 0 114 -46q46 -45 46 -115t-46 -117t-114 -47t-114 47t-46 117z" />
    <glyph glyph-name="semicolon" unicode=";" horiz-adv-x="430" 
d="M55 733q0 70 46 116t114 46t114 -46t46 -116t-46 -117t-114 -47t-114 47t-46 117zM55 158q0 64 46 108t115 43q69 0 114 -46t45 -130t-66 -182l-116 -174h-164l149 229q-53 10 -88 49t-35 103z" />
    <glyph glyph-name="less" unicode="&#x3c;" horiz-adv-x="903" 
d="M113 483v252l671 312v-222l-491 -217l491 -215v-223z" />
    <glyph glyph-name="equal" unicode="=" horiz-adv-x="1179" 
d="M150 692v180h882v-180h-882zM150 358v179h882v-179h-882z" />
    <glyph glyph-name="greater" unicode="&#x3e;" horiz-adv-x="903" 
d="M791 735v-252l-674 -313v223l491 215l-491 217v222z" />
    <glyph glyph-name="question" unicode="?" horiz-adv-x="933" 
d="M893 907q-1 -68 -21 -110t-30 -62q-25 -51 -168 -198q-62 -64 -62 -131h-252q4 74 28 122t60 92t78 88q41 44 56 62q45 58 46 125q1 65 -41 107t-117 42t-118 -49t-47 -125h-270q18 180 137 294q118 114 308 114t302 -100t111 -271zM479 -14q-68 0 -115 46t-47 112
q-1 67 47 113t116 46t114 -46q47 -46 47 -113q0 -66 -47 -112t-115 -46z" />
    <glyph glyph-name="at" unicode="@" horiz-adv-x="1572" 
d="M801 621q-78 0 -128 -68q-50 -69 -50 -145q0 -152 118 -152q87 0 140 84l37 205q-10 33 -42 55t-75 21zM1153 211q94 0 152 94q57 94 57 256q0 213 -148 336t-380 123q-272 0 -444 -175t-173 -456q0 -125 38 -223q69 -178 244 -261q151 -73 363 -73t432 98v-149
q-193 -96 -458 -96q-313 0 -543 165q-113 82 -179 222t-65 317q0 330 219 555t566 225q304 0 496 -173t192 -424q0 -252 -121 -380t-286 -128t-238 108q-29 -49 -84 -78t-115 -28q-127 0 -203 88t-76 221q0 176 108 305t271 129q58 0 106 -22t68 -54l13 58h211l-84 -484
q-14 -96 61 -96z" />
    <glyph glyph-name="A" unicode="A" horiz-adv-x="1284" 
d="M639 942l-154 -418h308zM512 1257h260l481 -1257h-266l-113 303h-471l-110 -303h-262z" />
    <glyph glyph-name="B" unicode="B" horiz-adv-x="1132" 
d="M373 537v-316h248q90 0 139 42t49 116t-48 116t-140 42h-248zM373 741h213q190 0 190 150q0 145 -190 145h-213v-295zM1065 356q0 -172 -112 -264t-310 -92h-522v1257h481q200 0 312 -88t112 -254q0 -99 -47 -169t-119 -97q90 -29 148 -109q57 -81 57 -184z" />
    <glyph glyph-name="C" unicode="C" horiz-adv-x="1226" 
d="M59 629q0 287 166 468t420 181q217 0 353 -116t173 -310h-260q-72 193 -266 192q-147 0 -233 -116t-86 -298q0 -183 86 -300t233 -117q195 0 266 195h260q-37 -197 -173 -313t-353 -115q-254 0 -420 181t-166 468z" />
    <glyph glyph-name="D" unicode="D" horiz-adv-x="1247" 
d="M121 0v1257h444q285 0 453 -170q168 -171 168 -459t-168 -458t-453 -170h-444zM381 231h174q178 1 274 107q97 106 97 292t-96 292t-275 106h-174v-797z" />
    <glyph glyph-name="E" unicode="E" horiz-adv-x="1056" 
d="M121 1257h854v-229h-596v-274h541v-224h-541v-299h596v-231h-854v1257z" />
    <glyph glyph-name="F" unicode="F" horiz-adv-x="1026" 
d="M381 0h-260v1257h837v-229h-577v-319h534v-228h-534v-481z" />
    <glyph glyph-name="G" unicode="G" horiz-adv-x="1271" 
d="M717 451v208h495v-110q0 -258 -152 -414q-152 -155 -406 -155q-252 0 -424 181q-171 181 -171 468t171 468t429 181q221 0 359 -116t174 -310h-264q-74 193 -269 192q-153 0 -243 -116t-90 -300q0 -185 92 -301t248 -116q119 1 193 65t97 175h-239z" />
    <glyph glyph-name="H" unicode="H" horiz-adv-x="1335" 
d="M952 1257h262v-1257h-262v528h-569v-528h-262v1257h262v-499h569v499z" />
    <glyph glyph-name="I" unicode="I" horiz-adv-x="501" 
d="M383 1257v-1257h-262v1257h262z" />
    <glyph glyph-name="J" unicode="J" horiz-adv-x="1042" 
d="M485 217q195 0 195 240v800h262v-802q0 -233 -123 -355t-331 -120q-208 0 -326 114t-131 305h270q16 -182 184 -182z" />
    <glyph glyph-name="K" unicode="K" horiz-adv-x="1214" 
d="M383 1257v-565l473 565h318l-480 -563l498 -694h-318l-372 514l-119 -141v-373h-262v1257h262z" />
    <glyph glyph-name="L" unicode="L" horiz-adv-x="1038" 
d="M121 0v1257h262v-1026h586v-231h-848z" />
    <glyph glyph-name="M" unicode="M" horiz-adv-x="1529" 
d="M367 0h-246v1257h311l336 -886l334 886h307v-1257h-248v821l-305 -821h-178l-311 821v-821z" />
    <glyph glyph-name="N" unicode="N" horiz-adv-x="1294" 
d="M1174 1257v-1257h-207l-594 838v-838h-252v1257h246l555 -794v794h252z" />
    <glyph glyph-name="O" unicode="O" horiz-adv-x="1310" 
d="M985 629q0 186 -91 301q-92 114 -240 114t-238 -114t-90 -301q0 -186 90 -301t238 -115t240 115q91 115 91 301zM1249 629q0 -283 -167 -466t-429 -183t-428 183t-166 467t166 466t428 182t429 -183t167 -466z" />
    <glyph glyph-name="P" unicode="P" horiz-adv-x="1130" 
d="M616 659q98 -1 150 51t51 138q0 86 -51 136t-150 50h-235v-375h235zM633 436h-252v-436h-260v1257h512q203 1 323 -107t119 -304q1 -196 -119 -304q-120 -106 -323 -106z" />
    <glyph glyph-name="Q" unicode="Q" horiz-adv-x="1308" 
d="M985 637q0 178 -91 293q-92 114 -240 114t-238 -114t-90 -301q0 -186 90 -304t237 -118q63 0 109 14l-103 129l168 129l99 -123q59 103 59 281zM653 -20q-262 0 -428 183t-166 467t166 466t428 182t429 -183t167 -463t-170 -466l101 -123l-168 -131l-103 127
q-115 -59 -256 -59z" />
    <glyph glyph-name="R" unicode="R" horiz-adv-x="1153" 
d="M381 1034v-350h242q96 0 147 47t51 128t-51 128t-147 47h-242zM381 469v-469h-260v1257h518q203 0 322 -104t118 -295q0 -147 -75 -243q-76 -95 -211 -128l331 -487h-295l-311 469h-137z" />
    <glyph glyph-name="S" unicode="S" horiz-adv-x="1085" 
d="M766 346q0 65 -36 98t-118 52l-225 51q-319 72 -319 344q0 171 127 279t331 108t329 -99q126 -99 159 -266h-260q-51 150 -232 150q-90 0 -144 -40t-54 -108q0 -104 141 -137l229 -53q330 -76 330 -354q0 -179 -131 -285t-339 -106t-347 100t-172 278h270
q51 -162 250 -161q96 0 154 42q57 42 57 107z" />
    <glyph glyph-name="T" unicode="T" horiz-adv-x="1177" 
d="M53 1028v229h1073v-229h-405v-1028h-264v1028h-404z" />
    <glyph glyph-name="U" unicode="U" horiz-adv-x="1249" 
d="M626 -20q-241 0 -382 136t-142 390v751h263v-725q0 -317 260 -317t260 317v725h262v-751q0 -254 -140 -390t-381 -136z" />
    <glyph glyph-name="V" unicode="V" horiz-adv-x="1257" 
d="M756 0h-254l-471 1257h276l326 -909l325 909h271z" />
    <glyph glyph-name="W" unicode="W" horiz-adv-x="1626" 
d="M715 1257h205l217 -845l206 845h259l-328 -1257h-240l-221 829l-221 -829h-240l-327 1257h264l205 -845z" />
    <glyph glyph-name="X" unicode="X" horiz-adv-x="1200" 
d="M1165 1257l-415 -612l436 -645h-295l-295 436l-293 -436h-289l437 641l-416 616h297l270 -407l277 407h286z" />
    <glyph glyph-name="Y" unicode="Y" horiz-adv-x="1214" 
d="M735 0h-260v477l-452 780h284l305 -532l303 532h277l-457 -780v-477z" />
    <glyph glyph-name="Z" unicode="Z" horiz-adv-x="1134" 
d="M1053 231v-231h-971v190l631 838h-621v229h952v-188l-626 -838h635z" />
    <glyph glyph-name="bracketleft" unicode="[" horiz-adv-x="659" 
d="M358 1112v-1065h260v-219h-497v1503h497v-219h-260z" />
    <glyph glyph-name="backslash" unicode="\" horiz-adv-x="763" 
d="M246 1331l508 -1503h-236l-508 1503h236z" />
    <glyph glyph-name="bracketright" unicode="]" horiz-adv-x="659" 
d="M301 47v1065h-260v219h498v-1503h-498v219h260z" />
    <glyph glyph-name="asciicircum" unicode="^" horiz-adv-x="837" 
d="M303 1257h232l282 -450h-237l-160 258l-162 -258h-238z" />
    <glyph glyph-name="underscore" unicode="_" horiz-adv-x="780" 
d="M41 -293v207h698v-207h-698z" />
    <glyph glyph-name="grave" unicode="`" horiz-adv-x="1024" 
d="M719 1040h-232l-182 291h252z" />
    <glyph glyph-name="a" unicode="a" horiz-adv-x="958" 
d="M291 283q0 -55 47 -84q48 -29 110 -29t108 22t62 58v65q-16 37 -62 59t-108 22t-109 -30q-48 -28 -48 -83zM862 0h-244v49q-25 -25 -88 -45t-135 -20q-145 0 -242 80t-97 212q0 134 100 216q102 82 254 81q57 0 118 -16t90 -37v68q0 61 -37 101q-38 40 -112 40
q-102 0 -135 -86h-242q20 127 126 210t273 83t269 -93t102 -259v-584z" />
    <glyph glyph-name="b" unicode="b" horiz-adv-x="1062" 
d="M537 715q-55 0 -102 -30t-70 -77v-301q23 -47 69 -77t103 -29q100 -1 159 71t60 185q0 113 -60 185t-159 73zM365 0h-256v1331h256v-491q33 40 96 68t133 28q192 0 304 -137t112 -342t-112 -341t-304 -136q-70 0 -133 28t-96 68v-76z" />
    <glyph glyph-name="c" unicode="c" horiz-adv-x="940" 
d="M645 606q-21 113 -163 113q-74 0 -126 -72q-52 -71 -51 -189q0 -118 51 -190t138 -71q61 -1 101 29t50 83h250q-19 -149 -125 -239t-288 -90t-306 133q-123 133 -123 345t123 345q122 133 304 133t288 -90t127 -240h-250z" />
    <glyph glyph-name="d" unicode="d" horiz-adv-x="1062" 
d="M526 715q-100 0 -159 -73q-59 -74 -59 -186t58 -184q60 -72 160 -71q57 0 104 29q45 30 68 77v301q-23 47 -69 77q-47 30 -103 30zM698 0v76q-33 -39 -96 -68t-133 -28q-193 0 -305 136t-111 341q0 205 112 342t304 137q70 0 133 -29t96 -67v491h256v-1331h-256z" />
    <glyph glyph-name="e" unicode="e" horiz-adv-x="960" 
d="M496 729q-156 0 -191 -172h354q-3 76 -45 124t-118 48zM484 -20q-184 0 -308 132q-123 132 -123 342t124 346t319 136q194 0 304 -124t109 -331v-78h-610q6 -102 59 -160t140 -59q139 0 170 115h235q-25 -151 -130 -235t-289 -84z" />
    <glyph glyph-name="f" unicode="f" horiz-adv-x="667" 
d="M557 1135q-125 0 -125 -127v-93h191v-204h-191v-711h-250v711h-149v204h149v109q0 154 88 240t236 86q86 0 141 -25v-215q-35 25 -90 25z" />
    <glyph glyph-name="g" unicode="g" horiz-adv-x="1056" 
d="M530 723q-108 0 -165 -68q-57 -69 -57 -177t56 -176q58 -68 158 -69q55 0 101 28t71 69v299q-56 94 -164 94zM694 61v54q-78 -94 -225 -95q-190 0 -303 134t-113 324t113 324t303 134q145 0 225 -92v71h252v-815q0 -227 -123 -343q-123 -115 -313 -115t-304 86t-134 239
h245q31 -129 181 -129q196 0 196 223z" />
    <glyph glyph-name="h" unicode="h" horiz-adv-x="1034" 
d="M111 0v1331h254v-500q91 105 245 105t239 -92t85 -246v-598h-254v545q0 74 -38 118t-104 44t-113 -34q-46 -34 -60 -93v-580h-254z" />
    <glyph glyph-name="i" unicode="i" horiz-adv-x="475" 
d="M387 1179q0 -61 -44 -103t-106 -42t-107 41q-44 41 -44 103t45 105q45 42 107 42t105 -42q44 -42 44 -104zM365 915v-915h-254v915h254z" />
    <glyph glyph-name="j" unicode="j" horiz-adv-x="471" 
d="M387 1179q0 -61 -44 -103t-106 -42t-107 41q-44 41 -44 103t45 105q45 42 107 42t105 -42q44 -42 44 -104zM365 915v-952q0 -153 -82 -237t-238 -84q-68 0 -98 10v203q43 -6 55 -7q109 0 109 117v950h254z" />
    <glyph glyph-name="k" unicode="k" horiz-adv-x="1021" 
d="M365 0h-254v1331h254v-756l313 340h315l-370 -389l385 -526h-301l-269 369l-73 -80v-289z" />
    <glyph glyph-name="l" unicode="l" horiz-adv-x="475" 
d="M365 1331v-1331h-254v1331h254z" />
    <glyph glyph-name="m" unicode="m" horiz-adv-x="1519" 
d="M1104 936q156 0 235 -91q80 -91 80 -247v-598h-254v545q0 76 -33 120q-34 44 -92 44t-96 -31q-39 -31 -51 -88v-590h-256v545q0 164 -129 164q-51 0 -91 -32t-52 -87v-590h-254v915h254v-75q77 96 233 96t244 -117q106 117 262 117z" />
    <glyph glyph-name="n" unicode="n" horiz-adv-x="1034" 
d="M111 0v915h254v-84q91 105 245 105t239 -92t85 -246v-598h-254v545q0 74 -38 118t-104 44t-113 -34q-46 -34 -60 -93v-580h-254z" />
    <glyph glyph-name="o" unicode="o" horiz-adv-x="1001" 
d="M698 458q0 118 -52 190t-144 73q-92 0 -144 -73q-52 -72 -53 -190q0 -118 52 -191q53 -73 145 -73t144 74q52 72 52 190zM502 936q200 0 324 -133t124 -345t-125 -345t-323 -133t-324 133q-125 133 -125 345t125 345t324 133z" />
    <glyph glyph-name="p" unicode="p" horiz-adv-x="1062" 
d="M537 715q-55 0 -101 -30t-71 -77v-301q23 -47 69 -77t103 -29q100 -1 159 71t60 185q0 113 -60 185t-159 73zM365 -338h-254v1253h254v-75q33 40 96 68t133 28q194 0 306 -138t112 -341t-113 -340t-305 -137q-70 0 -133 28t-96 68v-414z" />
    <glyph glyph-name="q" unicode="q" horiz-adv-x="1062" 
d="M526 715q-100 0 -159 -73q-59 -74 -59 -186t58 -184q60 -72 160 -71q55 0 103 29q46 30 69 77v301q-25 47 -70 77q-46 30 -102 30zM698 -338v414q-33 -39 -96 -68t-133 -28q-193 0 -305 137t-113 340q0 203 113 341t305 138q70 0 133 -29t96 -67v75h254v-1253h-254z" />
    <glyph glyph-name="r" unicode="r" horiz-adv-x="718" 
d="M365 0h-254v915h254v-90q66 111 204 111q68 0 97 -16v-254q-51 30 -122 30t-118 -34t-61 -95v-567z" />
    <glyph glyph-name="s" unicode="s" horiz-adv-x="894" 
d="M460 172q126 0 126 90q0 31 -22 48t-70 30l-185 41q-238 55 -237 258q0 131 104 214t267 83t260 -75t122 -208h-241q-29 90 -144 90q-49 -1 -85 -23t-36 -63q0 -51 82 -71l189 -43q244 -59 244 -267q0 -137 -106 -217q-106 -79 -272 -79q-167 0 -276 76t-129 216h252
q31 -100 157 -100z" />
    <glyph glyph-name="t" unicode="t" horiz-adv-x="706" 
d="M166 276v435h-139v204h139v248h252v-248h200v-204h-200v-402q0 -104 104 -104q63 0 111 31v-226q-53 -28 -180 -28t-207 74t-80 220z" />
    <glyph glyph-name="u" unicode="u" horiz-adv-x="1030" 
d="M922 915v-915h-254v84q-94 -104 -246 -104t-237 92t-85 245v598h254v-546q0 -76 37 -119t103 -43t112 34q45 34 60 93v581h256z" />
    <glyph glyph-name="v" unicode="v" horiz-adv-x="993" 
d="M618 0h-245l-346 915h266l211 -608l207 608h256z" />
    <glyph glyph-name="w" unicode="w" horiz-adv-x="1376" 
d="M788 915l152 -583l164 583h246l-279 -915h-233l-150 561l-149 -561h-234l-278 915h254l163 -583l150 583h194z" />
    <glyph glyph-name="x" unicode="x" horiz-adv-x="976" 
d="M940 915l-313 -442l334 -473h-281l-197 287l-198 -287h-267l330 467l-311 448h280l177 -260l180 260h266z" />
    <glyph glyph-name="y" unicode="y" horiz-adv-x="997" 
d="M494 -338h-250l133 334l-350 919h268l211 -608l209 608h256z" />
    <glyph glyph-name="z" unicode="z" horiz-adv-x="927" 
d="M844 205v-205h-766v164l440 547h-424v204h742v-163l-433 -547h441z" />
    <glyph glyph-name="braceleft" unicode="{" horiz-adv-x="722" 
d="M436 410v-304q0 -59 60 -59h186v-219h-221q-117 0 -191 74t-73 192v316q0 59 -60 59h-96v221h96q59 0 60 60v315q-1 119 73 193t191 73h221v-219h-186q-59 0 -60 -59v-303q0 -111 -96 -170q96 -59 96 -170z" />
    <glyph glyph-name="bar" unicode="|" horiz-adv-x="466" 
d="M121 -172v1503h225v-1503h-225z" />
    <glyph glyph-name="braceright" unicode="}" horiz-adv-x="722" 
d="M287 106v304q0 111 96 170q-96 59 -96 170v303q0 59 -60 59h-186v219h221q117 0 191 -74t73 -192v-315q0 -59 60 -60h96v-221h-96q-59 0 -60 -59v-316q0 -118 -74 -192t-190 -74h-221v219h186q60 0 60 59z" />
    <glyph glyph-name="asciitilde" unicode="~" horiz-adv-x="876" 
d="M623 711h180q1 -147 -57 -229t-160 -83q-56 0 -104 30q-48 31 -86 61t-68 30q-74 0 -74 -112h-180q0 147 57 229t160 82q69 -1 147 -61t111 -60q74 0 74 113z" />
    <glyph glyph-name="uni00A0" unicode="&#xa0;" horiz-adv-x="434" 
 />
    <glyph glyph-name="exclamdown" unicode="&#xa1;" horiz-adv-x="458" 
d="M68 -197l61 852h186l62 -852h-309zM221 758q-68 0 -114 46t-46 113q1 67 47 113t114 45q68 0 114 -46q47 -47 47 -113t-47 -112t-115 -46z" />
    <glyph glyph-name="cent" unicode="&#xa2;" horiz-adv-x="940" 
d="M53 477q0 182 92 308t246 161v184h217v-186q123 -29 197 -116t88 -214h-248q-8 58 -49 92t-102 33q-86 0 -138 -71q-51 -72 -51 -190t51 -190t125 -71q74 0 115 33t49 90h248q-14 -127 -88 -214t-197 -114v-190h-217v188q-154 33 -246 159t-92 308z" />
    <glyph glyph-name="sterling" unicode="&#xa3;" horiz-adv-x="1017" 
d="M446 868v-149h263v-199h-263v-123q0 -129 -43 -186h566v-211h-914v211h107q41 72 41 186v123h-148v199h148v145q0 178 107 296q108 118 278 118t269 -93t114 -247h-236q-12 125 -137 125q-74 1 -113 -53t-39 -142z" />
    <glyph glyph-name="yen" unicode="&#xa5;" horiz-adv-x="1148" 
d="M133 524v172h215l-309 561h280l261 -495l260 495h270l-313 -561h217v-172h-312v-114h312v-172h-312v-238h-258v238h-311v172h311v114h-311z" />
    <glyph glyph-name="section" unicode="&#xa7;" horiz-adv-x="964" 
d="M375 506l250 -160q69 18 69 84t-106 137l-248 160q-70 -17 -70 -85t105 -136zM825 78q0 -129 -97 -206t-261 -77t-262 80t-115 221h232q18 -113 145 -112q49 0 83 22t34 62q0 38 -23 62t-74 54l-225 138q-106 63 -164 133q-57 70 -57 168q0 160 141 237q-43 55 -43 135
q-1 129 97 206t262 77t262 -80t114 -221h-231q-18 113 -145 113q-49 0 -84 -23t-35 -62q1 -39 23 -61t73 -55l227 -137q106 -64 164 -134t58 -167q-1 -160 -142 -238q43 -59 43 -135z" />
    <glyph glyph-name="dieresis" unicode="&#xa8;" horiz-adv-x="1024" 
d="M543 1168q0 56 40 96t95 41q55 0 96 -40q41 -41 41 -97t-41 -96t-96 -40t-95 40t-40 96zM207 1168q0 56 40 96t96 41q56 0 96 -40q40 -41 40 -97t-40 -96t-96 -40t-96 40t-40 96z" />
    <glyph glyph-name="copyright" unicode="&#xa9;" horiz-adv-x="1441" 
d="M344 633q0 180 108 294q108 113 264 113t245 -76q88 -77 110 -204h-215q-29 88 -119 88t-135 -60t-45 -155q0 -93 45 -155t135 -62t119 90h215q-23 -127 -111 -204t-244 -77t-264 114t-108 294zM1274 629q0 239 -162 397t-391 158t-391 -159t-162 -397t162 -396t391 -158
t391 158t162 397zM1370 629q0 -279 -189 -464t-459 -185t-461 185q-189 185 -189 464t189 464t459 185t460 -185t190 -464z" />
    <glyph glyph-name="ordfeminine" unicode="&#xaa;" horiz-adv-x="630" 
d="M301 903q-37 0 -63 -16t-25 -47q-1 -62 79 -62t103 43v37q-25 45 -94 45zM590 649h-195v31q-47 -43 -146 -43t-165 53q-66 54 -66 144t68 145t160 55t149 -35v41q0 33 -21 56q-22 23 -63 22q-66 0 -78 -49h-186q12 91 86 151q73 60 193 60t192 -66t72 -182v-383z" />
    <glyph glyph-name="guillemotleft" unicode="&#xab;" horiz-adv-x="860" 
d="M809 125h-217l-189 330l189 329h217l-188 -329zM457 125h-217l-189 330l189 329h217l-189 -329z" />
    <glyph glyph-name="registered" unicode="&#xae;" horiz-adv-x="833" 
d="M434 922q51 0 51 44t-51 44h-61v-88h61zM373 834v-125h-111v393h184q68 0 107 -37t39 -100q0 -92 -76 -119l90 -137h-123l-75 125h-35zM719 903q0 135 -88 223t-215 88t-215 -88t-88 -223t88 -223t215 -88t215 88t88 223zM786 903q0 -159 -108 -267t-262 -108t-262 108
t-109 268q0 160 109 266q108 108 262 108t262 -108t108 -267z" />
    <glyph glyph-name="macron" unicode="&#xaf;" horiz-adv-x="1024" 
d="M268 1057v186h486v-186h-486z" />
    <glyph glyph-name="degree" unicode="&#xb0;" horiz-adv-x="731" 
d="M367 1278q115 0 195 -82t81 -198q0 -116 -81 -198q-82 -82 -196 -81q-114 0 -195 82q-81 81 -81 197t81 198t196 82zM244 998q0 -52 36 -89t86 -37t86 37t35 88q0 51 -35 89q-36 38 -86 38t-86 -37t-36 -89z" />
    <glyph glyph-name="plusminus" unicode="&#xb1;" horiz-adv-x="1165" 
d="M154 127v186h858v-186h-858zM492 1122h184v-266h336v-184h-336v-266h-184v266h-338v184h338v266z" />
    <glyph glyph-name="twosuperior" unicode="&#xb2;" horiz-adv-x="610" 
d="M371 1042q1 27 -17 43q-18 17 -47 17t-48 -20t-19 -50h-197q10 102 81 169q72 67 184 67t180 -60t69 -150q0 -89 -63 -160q-23 -26 -68 -69l-119 -112h250v-158h-508v123l242 238q80 75 80 122z" />
    <glyph glyph-name="threesuperior" unicode="&#xb3;" horiz-adv-x="604" 
d="M303 1114q-66 0 -78 -78h-182q12 98 79 165q68 67 180 67t178 -60t67 -157q0 -43 -22 -83t-52 -59q82 -41 82 -140t-69 -161q-68 -62 -186 -61t-188 65t-77 172h190q3 -38 23 -60t56 -22t56 20t21 54q0 68 -82 68h-55v135h47q84 0 84 68q1 31 -19 49t-53 18z" />
    <glyph glyph-name="acute" unicode="&#xb4;" horiz-adv-x="1024" 
d="M535 1040h-230l162 291h252z" />
    <glyph glyph-name="paragraph" unicode="&#xb6;" horiz-adv-x="1101" 
d="M477 -184v714q-180 0 -315 94t-135 271q0 178 135 270t315 92h187v-1441h-187zM795 -184v1441h186v-1441h-186z" />
    <glyph glyph-name="periodcentered" unicode="&#xb7;" horiz-adv-x="438" 
d="M59 539q0 69 46 115t114 46t114 -46t46 -116t-46 -116q-46 -47 -114 -47t-114 47t-46 117z" />
    <glyph glyph-name="cedilla" unicode="&#xb8;" horiz-adv-x="1024" 
d="M543 -381h-226l144 285h233z" />
    <glyph glyph-name="onesuperior" unicode="&#xb9;" horiz-adv-x="485" 
d="M401 1257v-698h-186v485l-178 -88v189l235 112h129z" />
    <glyph glyph-name="ordmasculine" unicode="&#xba;" horiz-adv-x="663" 
d="M332 809q50 1 78 41t28 107t-28 109q-29 42 -78 42t-78 -42t-29 -109t29 -107t78 -41zM16 957q0 143 88 233t228 90t226 -90q87 -90 87 -233q0 -142 -87 -232t-226 -90t-228 90q-88 90 -88 232z" />
    <glyph glyph-name="guillemotright" unicode="&#xbb;" horiz-adv-x="860" 
d="M268 125h-217l189 330l-189 329h217l189 -329zM621 125h-218l189 330l-189 329h218l188 -329z" />
    <glyph glyph-name="onequarter" unicode="&#xbc;" horiz-adv-x="1437" 
d="M1096 281v112h164v-112h96v-156h-96v-125h-164v125h-312v141l217 432h183l-197 -417h109zM428 1257v-698h-184v485l-181 -88v189l236 112h129zM1227 1257l-883 -1257h-184l882 1257h185z" />
    <glyph glyph-name="onehalf" unicode="&#xbd;" horiz-adv-x="1466" 
d="M1176 483q0 60 -62 62q-29 -1 -48 -21t-22 -49h-194q10 102 81 168t183 66q112 1 180 -59t68 -158q0 -43 -22 -86t-41 -65t-66 -71l-119 -110h250v-160h-510v125l244 235q78 82 78 123zM428 1257v-698h-184v485l-181 -88v189l236 112h129zM1227 1257l-883 -1257h-184
l882 1257h185z" />
    <glyph glyph-name="threequarters" unicode="&#xbe;" horiz-adv-x="1507" 
d="M1165 281v112h162v-112h98v-156h-98v-125h-162v125h-311v141l215 432h184l-198 -417h110zM287 844v135h47q84 0 84 68q0 31 -18 49t-52 18q-32 0 -54 -22t-26 -56h-182q12 100 79 166t179 66t180 -60t68 -157q0 -43 -22 -83t-54 -59q82 -41 82 -140t-68 -161t-186 -61
t-190 65q-70 64 -76 172h190q2 -38 24 -60t56 -22t56 20t22 54q0 68 -84 68h-55zM1294 1257l-880 -1257h-185l883 1257h182z" />
    <glyph glyph-name="questiondown" unicode="&#xbf;" horiz-adv-x="933" 
d="M41 154q1 69 21 110q20 42 30 62q25 51 168 198q62 64 62 131h251q-5 -121 -87 -215q-36 -42 -78 -86t-56 -63q-46 -57 -46 -124q-1 -67 41 -109t117 -42t118 50t47 124h270q-18 -180 -137 -294q-118 -114 -308 -113t-302 101t-111 270zM455 1075q69 1 115 -45t46 -113
t-47 -113t-115 -46t-114 46q-47 46 -47 113t47 113t115 45z" />
    <glyph glyph-name="Agrave" unicode="&#xc0;" horiz-adv-x="1284" 
d="M639 942l-154 -418h308zM776 1370h-250l-190 250h276zM512 1257h260l481 -1257h-266l-113 303h-471l-110 -303h-262z" />
    <glyph glyph-name="Aacute" unicode="&#xc1;" horiz-adv-x="1284" 
d="M639 942l-154 -418h308zM754 1370h-250l164 250h276zM512 1257h260l481 -1257h-266l-113 303h-471l-110 -303h-262z" />
    <glyph glyph-name="Acircumflex" unicode="&#xc2;" horiz-adv-x="1284" 
d="M639 942l-154 -418h308zM748 1630l204 -260h-215l-96 111l-96 -111h-215l205 260h213zM512 1257h260l481 -1257h-266l-113 303h-471l-110 -303h-262z" />
    <glyph glyph-name="Atilde" unicode="&#xc3;" horiz-adv-x="1284" 
d="M639 942l-154 -418h308zM946 1642q0 -128 -43 -206t-131 -78q-53 0 -126 43t-105 43q-57 0 -60 -80h-145q0 129 43 207t131 78q53 0 126 -43t105 -43q58 -1 60 79h145zM512 1257h260l481 -1257h-266l-113 303h-471l-110 -303h-262z" />
    <glyph glyph-name="Adieresis" unicode="&#xc4;" horiz-adv-x="1284" 
d="M336 1497q0 57 39 97t97 40t98 -40t40 -97t-40 -97t-97 -40t-97 40t-40 97zM674 1497q0 57 40 97t97 40t98 -40t41 -97t-41 -97t-98 -40t-97 40t-40 97zM639 942l-154 -418h308zM512 1257h260l481 -1257h-266l-113 303h-471l-110 -303h-262z" />
    <glyph glyph-name="Aring" unicode="&#xc5;" horiz-adv-x="1284" 
d="M723 1523q0 33 -24 57q-23 24 -57 24t-58 -24t-23 -58q0 -34 23 -58q24 -22 58 -22t58 24t23 57zM639 942l-154 -418h308zM844 1522q0 -84 -58 -142t-145 -57q-86 0 -144 57q-59 58 -59 142t58 141t145 57t145 -57t58 -141zM512 1257h260l481 -1257h-266l-113 303h-471
l-110 -303h-262z" />
    <glyph glyph-name="AE" unicode="&#xc6;" horiz-adv-x="1800" 
d="M903 524v525l-299 -525h299zM1718 1257v-229h-557v-274h502v-224h-502v-299h557v-231h-815v303h-426l-172 -303h-274l717 1257h970z" />
    <glyph glyph-name="Ccedilla" unicode="&#xc7;" horiz-adv-x="1226" 
d="M625 -381h-226l144 285h233zM59 629q0 287 166 468t420 181q217 0 353 -116t173 -310h-260q-72 193 -266 192q-147 0 -233 -116t-86 -298q0 -183 86 -300t233 -117q195 0 266 195h260q-37 -197 -173 -313t-353 -115q-254 0 -420 181t-166 468z" />
    <glyph glyph-name="Egrave" unicode="&#xc8;" horiz-adv-x="1056" 
d="M121 1257h854v-229h-596v-274h541v-224h-541v-299h596v-231h-854v1257zM692 1370h-250l-190 250h276z" />
    <glyph glyph-name="Eacute" unicode="&#xc9;" horiz-adv-x="1056" 
d="M121 1257h854v-229h-596v-274h541v-224h-541v-299h596v-231h-854v1257zM668 1370h-250l164 250h276z" />
    <glyph glyph-name="Ecircumflex" unicode="&#xca;" horiz-adv-x="1056" 
d="M662 1630l204 -260h-215l-96 111l-96 -111h-215l205 260h213zM121 1257h854v-229h-596v-274h541v-224h-541v-299h596v-231h-854v1257z" />
    <glyph glyph-name="Edieresis" unicode="&#xcb;" horiz-adv-x="1056" 
d="M121 1257h854v-229h-596v-274h541v-224h-541v-299h596v-231h-854v1257zM588 1497q0 57 40 97t97 40t98 -40t41 -97t-41 -97t-98 -40t-97 40t-40 97zM250 1497q0 57 39 97t97 40t98 -40t40 -97t-40 -97t-97 -40t-97 40t-40 97z" />
    <glyph glyph-name="Igrave" unicode="&#xcc;" horiz-adv-x="501" 
d="M387 1370h-250l-190 250h276zM383 1257v-1257h-262v1257h262z" />
    <glyph glyph-name="Iacute" unicode="&#xcd;" horiz-adv-x="501" 
d="M365 1370h-250l164 250h276zM383 1257v-1257h-262v1257h262z" />
    <glyph glyph-name="Icircumflex" unicode="&#xce;" horiz-adv-x="501" 
d="M358 1630l205 -260h-215l-96 111l-96 -111h-215l204 260h213zM383 1257v-1257h-262v1257h262z" />
    <glyph glyph-name="Idieresis" unicode="&#xcf;" horiz-adv-x="501" 
d="M283 1497q0 57 40 97t97 40t98 -40t41 -97t-41 -97t-98 -40t-97 40t-40 97zM-55 1497q0 57 39 97t97 40t98 -40t40 -97t-40 -97t-97 -40t-97 40t-40 97zM383 1257v-1257h-262v1257h262z" />
    <glyph glyph-name="Eth" unicode="&#xd0;" horiz-adv-x="1282" 
d="M416 231h174q178 1 274 107t96 292t-96 292t-274 106h-174v-276h211v-211h-211v-310zM51 541v211h105v505h444q285 0 453 -170q168 -171 168 -459t-168 -458t-453 -170h-444v541h-105z" />
    <glyph glyph-name="Ntilde" unicode="&#xd1;" horiz-adv-x="1294" 
d="M1174 1257v-1257h-207l-594 838v-838h-252v1257h246l555 -794v794h252zM952 1642q0 -128 -43 -206t-131 -78q-53 0 -126 43t-105 43q-55 0 -60 -80h-145q0 129 43 207t131 78q53 0 126 -43t106 -43q55 -1 59 79h145z" />
    <glyph glyph-name="Ograve" unicode="&#xd2;" horiz-adv-x="1310" 
d="M985 629q0 186 -91 301q-92 114 -240 114t-238 -114t-90 -301q0 -186 90 -301t238 -115t240 115q91 115 91 301zM1249 629q0 -283 -167 -466t-429 -183t-428 183t-166 467t166 466t428 182t429 -183t167 -466zM791 1370h-250l-191 250h277z" />
    <glyph glyph-name="Oacute" unicode="&#xd3;" horiz-adv-x="1310" 
d="M985 629q0 186 -91 301q-92 114 -240 114t-238 -114t-90 -301q0 -186 90 -301t238 -115t240 115q91 115 91 301zM1249 629q0 -283 -167 -466t-429 -183t-428 183t-166 467t166 466t428 182t429 -183t167 -466zM766 1370h-250l164 250h276z" />
    <glyph glyph-name="Ocircumflex" unicode="&#xd4;" horiz-adv-x="1310" 
d="M760 1630l205 -260h-215l-97 111l-96 -111h-215l205 260h213zM985 629q0 186 -91 301q-92 114 -240 114t-238 -114t-90 -301q0 -186 90 -301t238 -115t240 115q91 115 91 301zM1249 629q0 -283 -167 -466t-429 -183t-428 183t-166 467t166 466t428 182t429 -183t167 -466
z" />
    <glyph glyph-name="Otilde" unicode="&#xd5;" horiz-adv-x="1310" 
d="M985 629q0 186 -91 301q-92 114 -240 114t-238 -114t-90 -301q0 -186 90 -301t238 -115t240 115q91 115 91 301zM1249 629q0 -283 -167 -466t-429 -183t-428 183t-166 467t166 466t428 182t429 -183t167 -466zM958 1642q0 -128 -43 -206t-131 -78q-53 0 -126 43t-105 43
q-57 0 -59 -80h-146q0 129 43 207t131 78q53 0 126 -43t106 -43q57 -1 59 79h145z" />
    <glyph glyph-name="Odieresis" unicode="&#xd6;" horiz-adv-x="1310" 
d="M985 629q0 186 -91 301q-92 114 -240 114t-238 -114t-90 -301q0 -186 90 -301t238 -115t240 115q91 115 91 301zM1249 629q0 -283 -167 -466t-429 -183t-428 183t-166 467t166 466t428 182t429 -183t167 -466zM686 1497q0 57 40 97t97 40t99 -40t41 -97q0 -57 -41 -97
q-40 -40 -98 -40t-98 40t-40 97zM348 1497q0 57 39 97t97 40t98 -40t41 -97q0 -57 -40 -97q-39 -40 -97 -40t-98 40t-40 97z" />
    <glyph glyph-name="multiply" unicode="&#xd7;" horiz-adv-x="1013" 
d="M373 610l-250 246l135 135l248 -248l248 248l137 -135l-250 -246l250 -248l-137 -137l-248 248l-248 -248l-135 137z" />
    <glyph glyph-name="Oslash" unicode="&#xd8;" horiz-adv-x="1329" 
d="M995 629q0 133 -43 227l-481 -582q80 -61 193 -61q150 0 240 116t91 300zM334 629q0 -137 43 -232l483 582q-82 66 -196 65q-147 0 -239 -115q-91 -116 -91 -300zM70 642q0 272 166 454t428 182q199 0 350 -113l98 119l119 -90l-111 -133q140 -179 140 -447t-167 -451
t-429 -183q-199 0 -347 108l-96 -115l-119 90l107 130q-139 177 -139 449z" />
    <glyph glyph-name="Ugrave" unicode="&#xd9;" horiz-adv-x="1249" 
d="M626 -20q-241 0 -382 136t-142 390v751h263v-725q0 -317 260 -317t260 317v725h262v-751q0 -254 -140 -390t-381 -136zM760 1370h-250l-191 250h277z" />
    <glyph glyph-name="Uacute" unicode="&#xda;" horiz-adv-x="1249" 
d="M626 -20q-241 0 -382 136t-142 390v751h263v-725q0 -317 260 -317t260 317v725h262v-751q0 -254 -140 -390t-381 -136zM737 1370h-250l164 250h277z" />
    <glyph glyph-name="Ucircumflex" unicode="&#xdb;" horiz-adv-x="1249" 
d="M731 1630l205 -260h-215l-96 111l-97 -111h-215l205 260h213zM626 -20q-241 0 -382 136t-142 390v751h263v-725q0 -317 260 -317t260 317v725h262v-751q0 -254 -140 -390t-381 -136z" />
    <glyph glyph-name="Udieresis" unicode="&#xdc;" horiz-adv-x="1249" 
d="M626 -20q-241 0 -382 136t-142 390v751h263v-725q0 -317 260 -317t260 317v725h262v-751q0 -254 -140 -390t-381 -136zM657 1497q0 57 40 97q39 40 97 40t99 -40t41 -97t-41 -97t-98 -40t-98 40q-40 40 -40 97zM319 1497q0 57 39 97q40 40 98 40t98 -40t40 -97t-40 -97
t-97 -40t-98 40q-40 40 -40 97z" />
    <glyph glyph-name="Yacute" unicode="&#xdd;" horiz-adv-x="1214" 
d="M719 1370h-250l164 250h276zM735 0h-260v477l-452 780h284l305 -532l303 532h277l-457 -780v-477z" />
    <glyph glyph-name="Thorn" unicode="&#xde;" horiz-adv-x="1130" 
d="M817 645q0 86 -51 136t-150 50h-235v-374h235q98 0 150 51q51 51 51 137zM633 233h-252v-233h-260v1257h260v-202h252q205 -1 323 -107t119 -304t-119 -304t-323 -107z" />
    <glyph glyph-name="germandbls" unicode="&#xdf;" horiz-adv-x="1083" 
d="M625 -10q-96 0 -162 22v213q47 -18 133 -18t139 53q53 52 53 150t-64 152q-65 54 -179 54h-74v207h64q79 0 121 40t42 113t-44 116t-124 43q-80 -1 -124 -59q-45 -58 -46 -150v-926h-249v915q0 199 115 317q116 118 309 118t298 -96t105 -250q0 -96 -40 -167t-101 -98
q102 -35 168 -129t65 -223q0 -186 -112 -292q-113 -105 -293 -105z" />
    <glyph glyph-name="agrave" unicode="&#xe0;" horiz-adv-x="958" 
d="M623 1040h-232l-182 291h252zM291 283q0 -55 47 -84q48 -29 110 -29t108 22t62 58v65q-16 37 -62 59t-108 22t-109 -30q-48 -28 -48 -83zM862 0h-244v49q-25 -25 -88 -45t-135 -20q-145 0 -242 80t-97 212q0 134 100 216q102 82 254 81q57 0 118 -16t90 -37v68
q0 61 -37 101q-38 40 -112 40q-102 0 -135 -86h-242q20 127 126 210t273 83t269 -93t102 -259v-584z" />
    <glyph glyph-name="aacute" unicode="&#xe1;" horiz-adv-x="958" 
d="M600 1040h-229l161 291h252zM291 283q0 -55 47 -84q48 -29 110 -29t108 22t62 58v65q-16 37 -62 59t-108 22t-109 -30q-48 -28 -48 -83zM862 0h-244v49q-25 -25 -88 -45t-135 -20q-145 0 -242 80t-97 212q0 134 100 216q102 82 254 81q57 0 118 -16t90 -37v68
q0 61 -37 101q-38 40 -112 40q-102 0 -135 -86h-242q20 127 126 210t273 83t269 -93t102 -259v-584z" />
    <glyph glyph-name="acircumflex" unicode="&#xe2;" horiz-adv-x="958" 
d="M291 283q0 -55 47 -84q48 -29 110 -29t108 22t62 58v65q-16 37 -62 59t-108 22t-109 -30q-48 -28 -48 -83zM862 0h-244v49q-25 -25 -88 -45t-135 -20q-145 0 -242 80t-97 212q0 134 100 216q102 82 254 81q57 0 118 -16t90 -37v68q0 61 -37 101q-38 40 -112 40
q-102 0 -135 -86h-242q20 127 126 210t273 83t269 -93t102 -259v-584zM598 1325l195 -297h-201l-100 141l-101 -141h-201l195 297h213z" />
    <glyph glyph-name="atilde" unicode="&#xe3;" horiz-adv-x="958" 
d="M786 1317q0 -129 -44 -207t-132 -78q-49 0 -112 47t-90 47q-57 0 -62 -86h-145q0 129 44 207t132 78q49 0 112 -47t91 -47q57 0 61 86h145zM291 283q0 -55 47 -84q48 -29 110 -29t108 22t62 58v65q-16 37 -62 59t-108 22t-109 -30q-48 -28 -48 -83zM862 0h-244v49
q-25 -25 -88 -45t-135 -20q-145 0 -242 80t-97 212q0 134 100 216q102 82 254 81q57 0 118 -16t90 -37v68q0 61 -37 101q-38 40 -112 40q-102 0 -135 -86h-242q20 127 126 210t273 83t269 -93t102 -259v-584z" />
    <glyph glyph-name="adieresis" unicode="&#xe4;" horiz-adv-x="958" 
d="M291 283q0 -55 47 -84q48 -29 110 -29t108 22t62 58v65q-16 37 -62 59t-108 22t-109 -30q-48 -28 -48 -83zM862 0h-244v49q-25 -25 -88 -45t-135 -20q-145 0 -242 80t-97 212q0 134 100 216q102 82 254 81q57 0 118 -16t90 -37v68q0 61 -37 101q-38 40 -112 40
q-102 0 -135 -86h-242q20 127 126 210t273 83t269 -93t102 -259v-584zM528 1168q0 56 40 96t96 41q56 0 96 -40q41 -41 41 -97t-41 -96t-96 -40t-96 40q-40 40 -40 96zM193 1168q0 56 39 97q40 40 96 40t97 -40q40 -41 40 -97t-40 -96t-96 -40t-97 40q-39 40 -39 96z" />
    <glyph glyph-name="aring" unicode="&#xe5;" horiz-adv-x="958" 
d="M571 1196q1 34 -23 58t-58 24t-58 -24t-22 -58q0 -34 22 -56q22 -24 58 -24q34 0 58 24t23 56zM692 1196q0 -84 -58 -141t-144 -57t-145 56q-58 58 -58 142t58 141t144 57q87 0 145 -56q58 -58 58 -142zM291 283q0 -55 47 -84q48 -29 110 -29t108 22t62 58v65
q-16 37 -62 59t-108 22t-109 -30q-48 -28 -48 -83zM862 0h-244v49q-25 -25 -88 -45t-135 -20q-145 0 -242 80t-97 212q0 134 100 216q102 82 254 81q57 0 118 -16t90 -37v68q0 61 -37 101q-38 40 -112 40q-102 0 -135 -86h-242q20 127 126 210t273 83t269 -93t102 -259v-584
z" />
    <glyph glyph-name="ae" unicode="&#xe6;" horiz-adv-x="1497" 
d="M1032 729q-154 0 -188 -172h354q-4 76 -47 124t-119 48zM1021 -20q-182 0 -304 126q-125 -125 -322 -124q-143 0 -241 78t-98 211q0 132 104 210q106 78 266 78h186v31q0 61 -38 101t-111 40q-111 0 -139 -88h-232q20 127 124 210t253 83q193 0 287 -121q121 121 276 121
q194 0 304 -125t110 -330v-82h-608q6 -102 59 -158t139 -57q137 0 168 111h236q-25 -145 -131 -230t-288 -85zM436 174q131 0 176 105v118h-163q-66 1 -112 -27t-46 -83t43 -84t102 -29z" />
    <glyph glyph-name="ccedilla" unicode="&#xe7;" horiz-adv-x="940" 
d="M473 -381h-225l143 285h234zM645 606q-21 113 -163 113q-74 0 -126 -72q-52 -71 -51 -189q0 -118 51 -190t138 -71q61 -1 101 29t50 83h250q-19 -149 -125 -239t-288 -90t-306 133q-123 133 -123 345t123 345q122 133 304 133t288 -90t127 -240h-250z" />
    <glyph glyph-name="egrave" unicode="&#xe8;" horiz-adv-x="960" 
d="M629 1040h-232l-182 291h252zM496 729q-156 0 -191 -172h354q-3 76 -45 124t-118 48zM484 -20q-184 0 -308 132q-123 132 -123 342t124 346t319 136q194 0 304 -124t109 -331v-78h-610q6 -102 59 -160t140 -59q139 0 170 115h235q-25 -151 -130 -235t-289 -84z" />
    <glyph glyph-name="eacute" unicode="&#xe9;" horiz-adv-x="960" 
d="M496 729q-156 0 -191 -172h354q-3 76 -45 124t-118 48zM484 -20q-184 0 -308 132q-123 132 -123 342t124 346t319 136q194 0 304 -124t109 -331v-78h-610q6 -102 59 -160t140 -59q139 0 170 115h235q-25 -151 -130 -235t-289 -84zM608 1040h-229l162 291h252z" />
    <glyph glyph-name="ecircumflex" unicode="&#xea;" horiz-adv-x="960" 
d="M496 729q-156 0 -191 -172h354q-3 76 -45 124t-118 48zM484 -20q-184 0 -308 132q-123 132 -123 342t124 346t319 136q194 0 304 -124t109 -331v-78h-610q6 -102 59 -160t140 -59q139 0 170 115h235q-25 -151 -130 -235t-289 -84zM608 1325l195 -297h-201l-100 141
l-101 -141h-200l194 297h213z" />
    <glyph glyph-name="edieresis" unicode="&#xeb;" horiz-adv-x="960" 
d="M496 729q-156 0 -191 -172h354q-3 76 -45 124t-118 48zM484 -20q-184 0 -308 132q-123 132 -123 342t124 346t319 136q194 0 304 -124t109 -331v-78h-610q6 -102 59 -160t140 -59q139 0 170 115h235q-25 -151 -130 -235t-289 -84zM537 1168q0 56 40 96t95 41q55 0 96 -40
q41 -41 41 -97t-41 -96t-96 -40t-95 40t-40 96zM201 1168q0 56 40 96t96 41q56 0 96 -40q40 -41 40 -97t-40 -96t-96 -40t-96 40t-40 96z" />
    <glyph glyph-name="igrave" unicode="&#xec;" horiz-adv-x="475" 
d="M362 1040h-231l-182 291h252zM365 915v-915h-254v915h254z" />
    <glyph glyph-name="iacute" unicode="&#xed;" horiz-adv-x="475" 
d="M365 915v-915h-254v915h254zM342 1040h-229l161 291h252z" />
    <glyph glyph-name="icircumflex" unicode="&#xee;" horiz-adv-x="475" 
d="M365 915v-915h-254v915h254zM344 1325l158 -297h-195l-69 143l-72 -143h-195l160 297h213z" />
    <glyph glyph-name="idieresis" unicode="&#xef;" horiz-adv-x="475" 
d="M365 915v-915h-254v915h254zM260 1168q0 56 39 96t95 41q56 0 96 -40q40 -41 40 -97t-40 -96t-96 -40t-95 40t-39 96zM-55 1168q0 56 40 96t96 41q56 0 96 -40q40 -41 40 -97t-40 -96t-96 -40t-96 40t-40 96z" />
    <glyph glyph-name="eth" unicode="&#xf0;" horiz-adv-x="1001" 
d="M698 453q0 117 -52 189t-144 71q-92 0 -144 -72q-52 -73 -53 -189q0 -116 51 -187q52 -71 146 -71t145 72q51 70 51 187zM143 1331h322q53 -37 125 -100l174 57l49 -127l-115 -37q252 -287 252 -645q0 -227 -124 -363t-324 -136t-324 132q-125 132 -125 341t121 340
t305 131q84 0 142 -50h8q-35 68 -150 179l-198 -64l-50 127l129 41q-117 96 -217 166v8z" />
    <glyph glyph-name="ntilde" unicode="&#xf1;" horiz-adv-x="1034" 
d="M819 1317q0 -129 -44 -207t-132 -78q-49 0 -113 47t-90 47q-57 0 -61 -86h-146q1 129 45 207t132 78q49 0 112 -47t90 -47q58 0 62 86h145zM111 0v915h254v-84q91 105 245 105t239 -92t85 -246v-598h-254v545q0 74 -38 118t-104 44t-113 -34q-46 -34 -60 -93v-580h-254z
" />
    <glyph glyph-name="ograve" unicode="&#xf2;" horiz-adv-x="1001" 
d="M627 1040h-232l-182 291h252zM698 458q0 118 -52 190t-144 73q-92 0 -144 -73q-52 -72 -53 -190q0 -118 52 -191q53 -73 145 -73t144 74q52 72 52 190zM502 936q200 0 324 -133t124 -345t-125 -345t-323 -133t-324 133q-125 133 -125 345t125 345t324 133z" />
    <glyph glyph-name="oacute" unicode="&#xf3;" horiz-adv-x="1001" 
d="M698 458q0 118 -52 190t-144 73q-92 0 -144 -73q-52 -72 -53 -190q0 -118 52 -191q53 -73 145 -73t144 74q52 72 52 190zM502 936q200 0 324 -133t124 -345t-125 -345t-323 -133t-324 133q-125 133 -125 345t125 345t324 133zM604 1040h-229l162 291h251z" />
    <glyph glyph-name="ocircumflex" unicode="&#xf4;" horiz-adv-x="1001" 
d="M698 458q0 118 -52 190t-144 73q-92 0 -144 -73q-52 -72 -53 -190q0 -118 52 -191q53 -73 145 -73t144 74q52 72 52 190zM502 936q200 0 324 -133t124 -345t-125 -345t-323 -133t-324 133q-125 133 -125 345t125 345t324 133zM608 1325l195 -297h-201l-100 141l-101 -141
h-200l194 297h213z" />
    <glyph glyph-name="otilde" unicode="&#xf5;" horiz-adv-x="1001" 
d="M795 1317q0 -129 -44 -207t-133 -78q-49 0 -112 47t-90 47q-57 0 -62 -86h-145q0 129 44 207t132 78q49 0 113 -47t90 -47q57 0 61 86h146zM698 458q0 118 -52 190t-144 73q-92 0 -144 -73q-52 -72 -53 -190q0 -118 52 -191q53 -73 145 -73t144 74q52 72 52 190zM502 936
q200 0 324 -133t124 -345t-125 -345t-323 -133t-324 133q-125 133 -125 345t125 345t324 133z" />
    <glyph glyph-name="odieresis" unicode="&#xf6;" horiz-adv-x="1001" 
d="M698 458q0 118 -52 190t-144 73q-92 0 -144 -73q-52 -72 -53 -190q0 -118 52 -191q53 -73 145 -73t144 74q52 72 52 190zM502 936q200 0 324 -133t124 -345t-125 -345t-323 -133t-324 133q-125 133 -125 345t125 345t324 133zM535 1168q0 56 39 97q40 40 96 40t96 -40
q41 -41 41 -97t-41 -96t-96 -40t-96 40q-39 40 -39 96zM199 1168q0 56 40 96t96 41q56 0 96 -40q40 -41 40 -97t-40 -96t-96 -40t-96 40t-40 96z" />
    <glyph glyph-name="divide" unicode="&#xf7;" horiz-adv-x="1146" 
d="M430 258q0 59 42 101t101 42t103 -42t45 -101q0 -59 -44 -102q-43 -43 -103 -43t-102 43t-42 102zM430 967q0 59 42 102t101 43t103 -43t45 -102q0 -59 -44 -101q-43 -42 -103 -43q-60 1 -102 43t-42 101zM131 514v197h885v-197h-885z" />
    <glyph glyph-name="oslash" unicode="&#xf8;" horiz-adv-x="1021" 
d="M512 723q-94 1 -148 -73t-53 -168q0 -94 19 -146l291 352q-47 35 -109 35zM713 457q0 63 -21 125l-291 -357q45 -35 124 -35t133 75t55 192zM512 936q141 0 252 -72l84 103l98 -74l-92 -113q106 -130 106 -332t-124 -335q-125 -133 -324 -133q-147 0 -254 71l-88 -108
l-100 75l96 119q-102 127 -102 330t124 336q125 133 324 133z" />
    <glyph glyph-name="ugrave" unicode="&#xf9;" horiz-adv-x="1030" 
d="M641 1040h-231l-183 291h252zM922 915v-915h-254v84q-94 -104 -246 -104t-237 92t-85 245v598h254v-546q0 -76 37 -119t103 -43t112 34q45 34 60 93v581h256z" />
    <glyph glyph-name="uacute" unicode="&#xfa;" horiz-adv-x="1030" 
d="M922 915v-915h-254v84q-94 -104 -246 -104t-237 92t-85 245v598h254v-546q0 -76 37 -119t103 -43t112 34q45 34 60 93v581h256zM621 1040h-230l162 291h252z" />
    <glyph glyph-name="ucircumflex" unicode="&#xfb;" horiz-adv-x="1030" 
d="M922 915v-915h-254v84q-94 -104 -246 -104t-237 92t-85 245v598h254v-546q0 -76 37 -119t103 -43t112 34q45 34 60 93v581h256zM623 1325l194 -297h-201l-100 141l-100 -141h-201l195 297h213z" />
    <glyph glyph-name="udieresis" unicode="&#xfc;" horiz-adv-x="1030" 
d="M922 915v-915h-254v84q-94 -104 -246 -104t-237 92t-85 245v598h254v-546q0 -76 37 -119t103 -43t112 34q45 34 60 93v581h256zM549 1168q0 56 40 96t95 41q55 0 96 -40q41 -41 41 -97t-41 -96t-96 -40t-95 40t-40 96zM213 1168q0 56 40 96t96 41q56 0 96 -40
q40 -41 40 -97t-40 -96t-96 -40t-96 40t-40 96z" />
    <glyph glyph-name="yacute" unicode="&#xfd;" horiz-adv-x="997" 
d="M608 1040h-229l162 291h252zM494 -338h-250l133 334l-350 919h268l211 -608l209 608h256z" />
    <glyph glyph-name="thorn" unicode="&#xfe;" horiz-adv-x="1062" 
d="M537 715q-55 0 -101 -30t-71 -77v-301q23 -47 69 -77t103 -29q100 -1 159 71t60 185q0 113 -60 185t-159 73zM365 -338h-254v1669h254v-491q33 40 96 68t133 28q194 0 306 -138t112 -341t-113 -340t-305 -137q-70 0 -133 28t-96 68v-414z" />
    <glyph glyph-name="ydieresis" unicode="&#xff;" horiz-adv-x="997" 
d="M537 1168q0 56 40 96t95 41q55 0 96 -40q41 -41 41 -97t-41 -96t-96 -40t-95 40t-40 96zM201 1168q0 56 40 96t96 41q56 0 96 -40q40 -41 40 -97t-40 -96t-96 -40t-96 40t-40 96zM494 -338h-250l133 334l-350 919h268l211 -608l209 608h256z" />
    <glyph glyph-name="Amacron" unicode="&#x100;" horiz-adv-x="1284" 
d="M639 942l-154 -418h308zM393 1370v186h498v-186h-498zM512 1257h260l481 -1257h-266l-113 303h-471l-110 -303h-262z" />
    <glyph glyph-name="amacron" unicode="&#x101;" horiz-adv-x="958" 
d="M252 1057v186h485v-186h-485zM291 283q0 -55 47 -84q48 -29 110 -29t108 22t62 58v65q-16 37 -62 59t-108 22t-109 -30q-48 -28 -48 -83zM862 0h-244v49q-25 -25 -88 -45t-135 -20q-145 0 -242 80t-97 212q0 134 100 216q102 82 254 81q57 0 118 -16t90 -37v68
q0 61 -37 101q-38 40 -112 40q-102 0 -135 -86h-242q20 127 126 210t273 83t269 -93t102 -259v-584z" />
    <glyph glyph-name="Abreve" unicode="&#x102;" horiz-adv-x="1284" 
d="M639 942l-154 -418h308zM918 1632q0 -130 -75 -202t-201 -72t-201 72t-74 202h180q0 -98 95 -98t95 98h181zM512 1257h260l481 -1257h-266l-113 303h-471l-110 -303h-262z" />
    <glyph glyph-name="abreve" unicode="&#x103;" horiz-adv-x="958" 
d="M489 1008q-125 0 -199 76t-73 214h180q0 -119 92 -118q92 0 93 118h180q0 -138 -74 -214t-199 -76zM291 283q0 -55 47 -84q48 -29 110 -29t108 22t62 58v65q-16 37 -62 59t-108 22t-109 -30q-48 -28 -48 -83zM862 0h-244v49q-25 -25 -88 -45t-135 -20q-145 0 -242 80
t-97 212q0 134 100 216q102 82 254 81q57 0 118 -16t90 -37v68q0 61 -37 101q-38 40 -112 40q-102 0 -135 -86h-242q20 127 126 210t273 83t269 -93t102 -259v-584z" />
    <glyph glyph-name="Aogonek" unicode="&#x104;" horiz-adv-x="1284" 
d="M639 942l-154 -418h308zM1151 -180q0 -43 41 -43q29 0 76 33v-152q-61 -43 -134 -43t-117 42q-44 43 -44 97q0 91 53 166q18 27 57 80h-96l-113 303h-471l-110 -303h-262l481 1257h260l481 -1257q-10 -14 -24 -34q-15 -20 -21 -29t-16 -23t-14 -22t-16 -23
q-12 -16 -11 -49z" />
    <glyph glyph-name="aogonek" unicode="&#x105;" horiz-adv-x="958" 
d="M616 0v49q-25 -25 -87 -45t-134 -20q-145 0 -242 80t-97 212q0 134 100 216q102 82 244 82t216 -54v68q0 61 -36 101q-37 40 -111 40q-106 0 -137 -86h-240q20 127 126 210t273 83t269 -93t102 -259v-584q-93 -123 -100 -162l-2 -18q0 -43 41 -43q27 0 73 33v-152
q-56 -43 -130 -43t-119 42q-45 43 -45 97q0 96 54 165q17 24 58 81h-76zM291 283q0 -55 47 -84q48 -29 110 -29t108 22t60 58v65q-14 37 -60 59t-108 22t-109 -30q-48 -28 -48 -83z" />
    <glyph glyph-name="Cacute" unicode="&#x106;" horiz-adv-x="1226" 
d="M774 1370h-250l164 250h277zM59 629q0 287 166 468t420 181q217 0 353 -116t173 -310h-260q-72 193 -266 192q-147 0 -233 -116t-86 -298q0 -183 86 -300t233 -117q195 0 266 195h260q-37 -197 -173 -313t-353 -115q-254 0 -420 181t-166 468z" />
    <glyph glyph-name="cacute" unicode="&#x107;" horiz-adv-x="940" 
d="M645 606q-21 113 -163 113q-74 0 -126 -72q-52 -71 -51 -189q0 -118 51 -190t138 -71q61 -1 101 29t50 83h250q-19 -149 -125 -239t-288 -90t-306 133q-123 133 -123 345t123 345q122 133 304 133t288 -90t127 -240h-250zM604 1040h-229l162 291h251z" />
    <glyph glyph-name="Ccircumflex" unicode="&#x108;" horiz-adv-x="1226" 
d="M768 1630l205 -260h-215l-96 111l-97 -111h-215l205 260h213zM59 629q0 287 166 468t420 181q217 0 353 -116t173 -310h-260q-72 193 -266 192q-147 0 -233 -116t-86 -298q0 -183 86 -300t233 -117q195 0 266 195h260q-37 -197 -173 -313t-353 -115q-254 0 -420 181
t-166 468z" />
    <glyph glyph-name="ccircumflex" unicode="&#x109;" horiz-adv-x="940" 
d="M645 606q-21 113 -163 113q-74 0 -126 -72q-52 -71 -51 -189q0 -118 51 -190t138 -71q61 -1 101 29t50 83h250q-19 -149 -125 -239t-288 -90t-306 133q-123 133 -123 345t123 345q122 133 304 133t288 -90t127 -240h-250zM608 1325l195 -297h-201l-100 141l-101 -141
h-200l194 297h213z" />
    <glyph glyph-name="Cdotaccent" unicode="&#x10a;" horiz-adv-x="1226" 
d="M59 629q0 287 166 468t420 181q217 0 353 -116t173 -310h-260q-72 193 -266 192q-147 0 -233 -116t-86 -298q0 -183 86 -300t233 -117q195 0 266 195h260q-37 -197 -173 -313t-353 -115q-254 0 -420 181t-166 468zM805 1504q0 -62 -45 -104q-44 -42 -106 -42t-107 42
t-45 104t45 104t106 41q61 0 107 -41q45 -42 45 -104z" />
    <glyph glyph-name="cdotaccent" unicode="&#x10b;" horiz-adv-x="940" 
d="M653 1185q0 -61 -45 -103t-106 -42t-107 41q-45 41 -45 103t45 105q45 42 107 42t106 -42q45 -42 45 -104zM645 606q-21 113 -163 113q-74 0 -126 -72q-52 -71 -51 -189q0 -118 51 -190t138 -71q61 -1 101 29t50 83h250q-19 -149 -125 -239t-288 -90t-306 133
q-123 133 -123 345t123 345q122 133 304 133t288 -90t127 -240h-250z" />
    <glyph glyph-name="Ccaron" unicode="&#x10c;" horiz-adv-x="1226" 
d="M59 629q0 287 166 468t420 181q217 0 353 -116t173 -310h-260q-72 193 -266 192q-147 0 -233 -116t-86 -298q0 -183 86 -300t233 -117q195 0 266 195h260q-37 -197 -173 -313t-353 -115q-254 0 -420 181t-166 468zM547 1368l-205 260h215l96 -110l97 110h215l-205 -260
h-213z" />
    <glyph glyph-name="ccaron" unicode="&#x10d;" horiz-adv-x="940" 
d="M645 606q-21 113 -163 113q-74 0 -126 -72q-52 -71 -51 -189q0 -118 51 -190t138 -71q61 -1 101 29t50 83h250q-19 -149 -125 -239t-288 -90t-306 133q-123 133 -123 345t123 345q122 133 304 133t288 -90t127 -240h-250zM803 1325l-195 -297h-213l-194 297h200l101 -141
l100 141h201z" />
    <glyph glyph-name="Dcaron" unicode="&#x10e;" horiz-adv-x="1247" 
d="M121 0v1257h444q285 0 453 -170q168 -171 168 -459t-168 -458t-453 -170h-444zM381 231h174q178 1 274 107q97 106 97 292t-96 292t-275 106h-174v-797zM463 1368l-205 260h215l96 -110l97 110h215l-205 -260h-213z" />
    <glyph glyph-name="dcaron" unicode="&#x10f;" horiz-adv-x="1062" 
d="M526 715q-100 0 -159 -73q-59 -74 -59 -186t58 -184q60 -72 160 -71q57 0 104 29q45 30 68 77v301q-23 47 -69 77q-47 30 -103 30zM698 0v76q-33 -39 -96 -68t-133 -28q-193 0 -305 136t-111 341q0 205 112 342t304 137q70 0 133 -29t96 -67v491h256v-1331h-256z
M1237 989h-199l78 342h199z" />
    <glyph glyph-name="Dcroat" unicode="&#x110;" horiz-adv-x="1282" 
d="M416 231h174q178 1 274 107t96 292t-96 292t-274 106h-174v-276h211v-211h-211v-310zM51 541v211h105v505h444q285 0 453 -170q168 -171 168 -459t-168 -458t-453 -170h-444v541h-105z" />
    <glyph glyph-name="dcroat" unicode="&#x111;" horiz-adv-x="1062" 
d="M526 715q-100 0 -159 -73q-59 -74 -59 -186t58 -184q60 -72 160 -71q57 0 104 29q45 30 68 77v301q-23 47 -69 77q-47 30 -103 30zM508 1018v172h190v141h256v-141h111v-172h-111v-1018h-256v76q-33 -39 -96 -68t-133 -28q-193 0 -305 136t-111 341q0 205 112 342
t304 137q70 0 133 -29t96 -67v178h-190z" />
    <glyph glyph-name="Emacron" unicode="&#x112;" horiz-adv-x="1056" 
d="M121 1257h854v-229h-596v-274h541v-224h-541v-299h596v-231h-854v1257zM307 1370v186h498v-186h-498z" />
    <glyph glyph-name="emacron" unicode="&#x113;" horiz-adv-x="960" 
d="M496 729q-156 0 -191 -172h354q-3 76 -45 124t-118 48zM484 -20q-184 0 -308 132q-123 132 -123 342t124 346t319 136q194 0 304 -124t109 -331v-78h-610q6 -102 59 -160t140 -59q139 0 170 115h235q-25 -151 -130 -235t-289 -84zM262 1057v186h486v-186h-486z" />
    <glyph glyph-name="Ebreve" unicode="&#x114;" horiz-adv-x="1056" 
d="M121 1257h854v-229h-596v-274h541v-224h-541v-299h596v-231h-854v1257zM831 1632q-1 -130 -75 -202t-200 -72t-201 72t-74 202h180q0 -98 95 -98t95 98h180z" />
    <glyph glyph-name="ebreve" unicode="&#x115;" horiz-adv-x="960" 
d="M504 1008q-125 0 -199 76t-74 214h181q0 -119 92 -118q92 0 92 118h180q0 -138 -74 -214t-198 -76zM496 729q-156 0 -191 -172h354q-3 76 -45 124t-118 48zM484 -20q-184 0 -308 132q-123 132 -123 342t124 346t319 136q194 0 304 -124t109 -331v-78h-610q6 -102 59 -160
t140 -59q139 0 170 115h235q-25 -151 -130 -235t-289 -84z" />
    <glyph glyph-name="Edotaccent" unicode="&#x116;" horiz-adv-x="1056" 
d="M121 1257h854v-229h-596v-274h541v-224h-541v-299h596v-231h-854v1257zM707 1504q0 -62 -45 -104q-44 -42 -106 -42t-107 42t-45 104t44 104q46 42 107 41q61 0 107 -41q45 -42 45 -104z" />
    <glyph glyph-name="edotaccent" unicode="&#x117;" horiz-adv-x="960" 
d="M655 1185q0 -61 -45 -103t-106 -42t-107 41q-45 41 -45 103t45 105q45 42 107 42t106 -42q45 -42 45 -104zM496 729q-156 0 -191 -172h354q-3 76 -45 124t-118 48zM484 -20q-184 0 -308 132q-123 132 -123 342t124 346t319 136q194 0 304 -124t109 -331v-78h-610
q6 -102 59 -160t140 -59q139 0 170 115h235q-25 -151 -130 -235t-289 -84z" />
    <glyph glyph-name="Eogonek" unicode="&#x118;" horiz-adv-x="1056" 
d="M905 0q-102 -128 -102 -175q0 -48 43 -48q27 0 74 33v-152q-61 -43 -134 -43t-117 42q-44 43 -44 97q0 92 54 167q19 28 58 79h-616v1257h854v-229h-596v-274h541v-224h-541v-299h596v-231h-70z" />
    <glyph glyph-name="eogonek" unicode="&#x119;" horiz-adv-x="960" 
d="M53 454q0 210 124 346t319 136q194 0 304 -124t109 -331v-78h-610q6 -102 59 -160t140 -59q139 0 170 115h235q-20 -133 -129 -240q-150 -137 -149 -235q0 -47 45 -47q27 0 73 33v-152q-61 -43 -134 -43t-119 43t-46 125t101 199l-47 -2q-199 0 -322 132t-123 342z
M496 729q-156 0 -191 -172h354q-3 76 -45 124t-118 48z" />
    <glyph glyph-name="Ecaron" unicode="&#x11a;" horiz-adv-x="1056" 
d="M121 1257h854v-229h-596v-274h541v-224h-541v-299h596v-231h-854v1257zM459 1368l-205 260h215l96 -110l97 110h215l-205 -260h-213z" />
    <glyph glyph-name="ecaron" unicode="&#x11b;" horiz-adv-x="960" 
d="M496 729q-156 0 -191 -172h354q-3 76 -45 124t-118 48zM484 -20q-184 0 -308 132q-123 132 -123 342t124 346t319 136q194 0 304 -124t109 -331v-78h-610q6 -102 59 -160t140 -59q139 0 170 115h235q-25 -151 -130 -235t-289 -84zM805 1325l-195 -297h-213l-194 297h200
l101 -141l100 141h201z" />
    <glyph glyph-name="Gcircumflex" unicode="&#x11c;" horiz-adv-x="1271" 
d="M717 451v208h495v-110q0 -258 -152 -414q-152 -155 -406 -155q-252 0 -424 181q-171 181 -171 468t171 468t429 181q221 0 359 -116t174 -310h-264q-74 193 -269 192q-153 0 -243 -116t-90 -300q0 -185 92 -301t248 -116q119 1 193 65t97 175h-239zM766 1630l205 -260
h-215l-97 111l-96 -111h-215l205 260h213z" />
    <glyph glyph-name="gcircumflex" unicode="&#x11d;" horiz-adv-x="1056" 
d="M530 723q-108 0 -165 -68q-57 -69 -57 -177t56 -176q58 -68 158 -69q55 0 101 28t71 69v299q-56 94 -164 94zM694 61v54q-78 -94 -225 -95q-190 0 -303 134t-113 324t113 324t303 134q145 0 225 -92v71h252v-815q0 -227 -123 -343q-123 -115 -313 -115t-304 86t-134 239
h245q31 -129 181 -129q196 0 196 223zM666 1325l194 -297h-201l-100 141l-100 -141h-201l195 297h213z" />
    <glyph glyph-name="Gbreve" unicode="&#x11e;" horiz-adv-x="1271" 
d="M717 451v208h495v-110q0 -258 -152 -414q-152 -155 -406 -155q-252 0 -424 181q-171 181 -171 468t171 468t429 181q221 0 359 -116t174 -310h-264q-74 193 -269 192q-153 0 -243 -116t-90 -300q0 -185 92 -301t248 -116q119 1 193 65t97 175h-239zM938 1632
q0 -130 -74 -202t-201 -72q-126 0 -201 72t-75 202h180q-1 -98 95 -98t96 98h180z" />
    <glyph glyph-name="gbreve" unicode="&#x11f;" horiz-adv-x="1056" 
d="M559 1008q-125 0 -199 76t-73 214h180q0 -119 92 -118q92 0 92 118h180q0 -139 -73 -215q-74 -75 -199 -75zM530 723q-108 0 -165 -68q-57 -69 -57 -177t56 -176q58 -68 158 -69q55 0 101 28t71 69v299q-56 94 -164 94zM694 61v54q-78 -94 -225 -95q-190 0 -303 134
t-113 324t113 324t303 134q145 0 225 -92v71h252v-815q0 -227 -123 -343q-123 -115 -313 -115t-304 86t-134 239h245q31 -129 181 -129q196 0 196 223z" />
    <glyph glyph-name="Gdotaccent" unicode="&#x120;" horiz-adv-x="1271" 
d="M717 451v208h495v-110q0 -258 -152 -414q-152 -155 -406 -155q-252 0 -424 181q-171 181 -171 468t171 468t429 181q221 0 359 -116t174 -310h-264q-74 193 -269 192q-153 0 -243 -116t-90 -300q0 -185 92 -301t248 -116q119 1 193 65t97 175h-239zM512 1504q0 62 45 104
t107 41q62 1 106 -41q45 -42 45 -104t-45 -104t-106 -42t-107 42q-45 42 -45 104z" />
    <glyph glyph-name="gdotaccent" unicode="&#x121;" horiz-adv-x="1056" 
d="M530 723q-108 0 -165 -68q-57 -69 -57 -177t56 -176q58 -68 158 -69q55 0 101 28t71 69v299q-56 94 -164 94zM694 61v54q-78 -94 -225 -95q-190 0 -303 134t-113 324t113 324t303 134q145 0 225 -92v71h252v-815q0 -227 -123 -343q-123 -115 -313 -115t-304 86t-134 239
h245q31 -129 181 -129q196 0 196 223zM559 1331q61 0 107 -42t45 -104q0 -61 -45 -103q-44 -42 -106 -42t-107 41t-45 103t45 105q45 42 106 42z" />
    <glyph glyph-name="Gcommaaccent" unicode="&#x122;" horiz-adv-x="1271" 
d="M717 451v208h495v-110q0 -258 -152 -414q-152 -155 -406 -155q-252 0 -424 181q-171 181 -171 468t171 468t429 181q221 0 359 -116t174 -310h-264q-74 193 -269 192q-153 0 -243 -116t-90 -300q0 -185 92 -301t248 -116q119 1 193 65t97 175h-239zM514 -207q0 53 42 90
t102 37t102 -39t41 -105q0 -66 -68 -157l-55 -80h-156l94 127q-46 8 -74 41t-28 86z" />
    <glyph glyph-name="gcommaaccent" unicode="&#x123;" horiz-adv-x="1056" 
d="M530 723q-108 0 -165 -68q-57 -69 -57 -177t56 -176q58 -68 158 -69q55 0 101 28t71 69v299q-56 94 -164 94zM694 61v54q-78 -94 -225 -95q-190 0 -303 134t-113 324t113 324t303 134q145 0 225 -92v71h252v-815q0 -227 -123 -343q-123 -115 -313 -115t-304 86t-134 239
h245q31 -129 181 -129q196 0 196 223zM555 1034q-61 0 -103 39t-42 109t67 159l62 84h155l-96 -131q45 -10 75 -44q29 -34 29 -87t-43 -91t-104 -38z" />
    <glyph glyph-name="Hcircumflex" unicode="&#x124;" horiz-adv-x="1335" 
d="M772 1630l205 -260h-215l-96 111l-97 -111h-215l205 260h213zM952 1257h262v-1257h-262v528h-569v-528h-262v1257h262v-499h569v499z" />
    <glyph glyph-name="hcircumflex" unicode="&#x125;" horiz-adv-x="1034" 
d="M625 1665l204 -260h-215l-96 111l-96 -111h-215l205 260h213zM111 0v1331h254v-500q91 105 245 105t239 -92t85 -246v-598h-254v545q0 74 -38 118t-104 44t-113 -34q-46 -34 -60 -93v-580h-254z" />
    <glyph glyph-name="Hbar" unicode="&#x126;" horiz-adv-x="1398" 
d="M414 651h571v205h-571v-205zM51 856v209h101v192h262v-192h571v192h262v-192h101v-209h-101v-856h-262v442h-571v-442h-262v856h-101z" />
    <glyph glyph-name="hbar" unicode="&#x127;" horiz-adv-x="1034" 
d="M-2 1018v172h113v141h254v-141h190v-172h-190v-187q91 105 245 105t239 -92t85 -246v-598h-254v545q0 74 -38 118t-104 44t-113 -34q-46 -34 -60 -93v-580h-254v1018h-113z" />
    <glyph glyph-name="Itilde" unicode="&#x128;" horiz-adv-x="501" 
d="M557 1642q0 -128 -43 -206t-131 -78q-53 0 -126 43t-105 43q-57 0 -60 -80h-145q0 129 43 207t131 78q53 0 126 -43t105 -43q58 -1 60 79h145zM383 1257v-1257h-262v1257h262z" />
    <glyph glyph-name="itilde" unicode="&#x129;" horiz-adv-x="475" 
d="M365 915v-915h-254v915h254zM492 1317q0 -129 -39 -207t-115 -78q-43 0 -95 44t-73 44q-47 0 -51 -80h-137q0 127 37 206q38 79 114 79q43 0 95 -44t73 -44q47 0 51 80h140z" />
    <glyph glyph-name="Imacron" unicode="&#x12a;" horiz-adv-x="501" 
d="M4 1370v186h498v-186h-498zM383 1257v-1257h-262v1257h262z" />
    <glyph glyph-name="imacron" unicode="&#x12b;" horiz-adv-x="475" 
d="M23 1057v186h428v-186h-428zM365 915v-915h-254v915h254z" />
    <glyph glyph-name="Ibreve" unicode="&#x12c;" horiz-adv-x="501" 
d="M526 1632q0 -130 -74 -202t-201 -72q-126 0 -201 72t-75 202h181q0 -98 95 -98t95 98h180zM383 1257v-1257h-262v1257h262z" />
    <glyph glyph-name="ibreve" unicode="&#x12d;" horiz-adv-x="475" 
d="M365 915v-915h-254v915h254zM238 1008q-111 0 -178 76t-66 214h170q0 -119 74 -118q74 0 73 118h170q0 -138 -66 -214t-177 -76z" />
    <glyph glyph-name="Iogonek" unicode="&#x12e;" horiz-adv-x="501" 
d="M383 1257v-1257q-11 -14 -25 -34t-20 -29t-16 -23t-14 -22t-16 -24q-11 -16 -11 -48q0 -43 41 -43q27 0 73 33v-152q-57 -43 -131 -43t-119 42q-45 43 -45 97q0 94 54 166q18 24 59 80h-92v1257h262z" />
    <glyph glyph-name="iogonek" unicode="&#x12f;" horiz-adv-x="475" 
d="M387 1179q0 -61 -44 -103t-106 -42t-107 41q-44 41 -44 103t45 105q45 42 107 42t105 -42q44 -42 44 -104zM365 915v-915q-11 -14 -25 -34t-20 -29t-17 -23q-10 -14 -14 -22q-3 -8 -15 -24q-12 -17 -12 -48q0 -43 41 -43q29 0 76 33v-152q-61 -43 -134 -43t-117 42
q-44 43 -44 97q0 91 53 166q18 27 58 80h-84v915h254z" />
    <glyph glyph-name="Idotaccent" unicode="&#x130;" horiz-adv-x="501" 
d="M100 1504q0 62 45 104t107 41q62 1 106 -41q45 -42 45 -104t-45 -104t-106 -42t-107 42q-45 42 -45 104zM383 1257v-1257h-262v1257h262z" />
    <glyph glyph-name="dotlessi" unicode="&#x131;" horiz-adv-x="475" 
d="M365 915v-915h-254v915h254z" />
    <glyph glyph-name="IJ" unicode="&#x132;" horiz-adv-x="1468" 
d="M383 1257v-1257h-262v1257h262zM911 217q195 0 195 240v800h262v-802q0 -233 -122 -355t-331 -120q-209 0 -327 114t-131 305h270q16 -182 184 -182z" />
    <glyph glyph-name="ij" unicode="&#x133;" horiz-adv-x="946" 
d="M862 1179q0 -61 -44 -103t-106 -42t-107 41q-44 41 -44 103t45 105q44 42 106 42t106 -42t44 -104zM840 915v-952q0 -153 -82 -237t-238 -84q-68 0 -98 10v203q43 -6 55 -7q109 0 109 117v950h254zM387 1179q0 -61 -44 -103t-106 -42t-107 41q-44 41 -44 103t45 105
q45 42 107 42t105 -42q44 -42 44 -104zM365 915v-915h-254v915h254z" />
    <glyph glyph-name="Jcircumflex" unicode="&#x134;" horiz-adv-x="1042" 
d="M920 1630l204 -260h-215l-96 111l-96 -111h-215l205 260h213zM485 217q195 0 195 240v800h262v-802q0 -233 -123 -355t-331 -120q-208 0 -326 114t-131 305h270q16 -182 184 -182z" />
    <glyph glyph-name="jcircumflex" unicode="&#x135;" horiz-adv-x="471" 
d="M365 915v-952q0 -153 -82 -237t-238 -84q-68 0 -98 10v203q43 -6 55 -7q109 0 109 117v950h254zM344 1325l158 -297h-195l-69 143l-72 -143h-195l160 297h213z" />
    <glyph glyph-name="Kcommaaccent" unicode="&#x136;" horiz-adv-x="1214" 
d="M383 1257v-565l473 565h318l-480 -563l498 -694h-318l-372 514l-119 -141v-373h-262v1257h262zM434 -207q0 53 42 90t102 37t102 -39q41 -39 41 -105t-68 -157l-55 -80h-156l95 127q-45 8 -74 41t-29 86z" />
    <glyph glyph-name="kcommaaccent" unicode="&#x137;" horiz-adv-x="1021" 
d="M365 0h-254v1331h254v-756l313 340h315l-370 -389l385 -526h-301l-269 369l-73 -80v-289zM356 -207q0 53 42 90t102 37t102 -39q41 -39 41 -105t-68 -157l-55 -80h-155l94 127q-45 8 -74 41t-29 86z" />
    <glyph glyph-name="kgreenlandic" unicode="&#x138;" horiz-adv-x="1021" 
d="M365 0h-254v915h254v-340l313 340h315l-370 -389l385 -526h-301l-269 369l-73 -80v-289z" />
    <glyph glyph-name="Lacute" unicode="&#x139;" horiz-adv-x="1038" 
d="M121 0v1257h262v-1026h586v-231h-848zM385 1370h-250l164 250h276z" />
    <glyph glyph-name="lacute" unicode="&#x13a;" horiz-adv-x="475" 
d="M365 1331v-1331h-254v1331h254zM358 1421h-249l163 250h277z" />
    <glyph glyph-name="Lcommaaccent" unicode="&#x13b;" horiz-adv-x="1038" 
d="M121 0v1257h262v-1026h586v-231h-848zM562 -80q60 0 102 -39t41 -105q0 -66 -68 -157l-55 -80h-156l94 127q-45 8 -74 41q-28 33 -28 86t42 90t102 37z" />
    <glyph glyph-name="lcommaaccent" unicode="&#x13c;" horiz-adv-x="475" 
d="M365 1331v-1331h-254v1331h254zM92 -207q0 53 42 90t102 37t102 -39q41 -39 41 -105t-68 -157l-55 -80h-156l95 127q-45 8 -74 41t-29 86z" />
    <glyph glyph-name="Lcaron" unicode="&#x13d;" horiz-adv-x="1038" 
d="M121 0v1257h262v-1026h586v-231h-848zM737 915h-198l77 342h199z" />
    <glyph glyph-name="lcaron" unicode="&#x13e;" horiz-adv-x="475" 
d="M365 1331v-1331h-254v1331h254zM647 989h-198l77 342h199z" />
    <glyph glyph-name="Ldot" unicode="&#x13f;" horiz-adv-x="1038" 
d="M909 663q0 -61 -45 -103t-106 -42t-107 41q-45 41 -45 103t45 105q45 42 107 42t106 -42q45 -42 45 -104zM121 0v1257h262v-1026h586v-231h-848z" />
    <glyph glyph-name="ldot" unicode="&#x140;" horiz-adv-x="798" 
d="M786 671q0 -61 -45 -103t-106 -42t-107 41q-45 41 -45 103t45 105q44 42 106 42t107 -42t45 -104zM365 1331v-1331h-254v1331h254z" />
    <glyph glyph-name="Lslash" unicode="&#x141;" horiz-adv-x="1081" 
d="M164 1257h262v-479l283 117v-221l-283 -117v-326h586v-231h-848v461l-119 -49v221l119 49v575z" />
    <glyph glyph-name="lslash" unicode="&#x142;" horiz-adv-x="561" 
d="M408 1331v-461l110 64v-201l-110 -65v-668h-254v547l-103 -62v203l103 60v583h254z" />
    <glyph glyph-name="Nacute" unicode="&#x143;" horiz-adv-x="1294" 
d="M1174 1257v-1257h-207l-594 838v-838h-252v1257h246l555 -794v794h252zM760 1370h-250l164 250h276z" />
    <glyph glyph-name="nacute" unicode="&#x144;" horiz-adv-x="1034" 
d="M111 0v915h254v-84q91 105 245 105t239 -92t85 -246v-598h-254v545q0 74 -38 118t-104 44t-113 -34q-46 -34 -60 -93v-580h-254zM639 1040h-229l161 291h252z" />
    <glyph glyph-name="Ncommaaccent" unicode="&#x145;" horiz-adv-x="1294" 
d="M1174 1257v-1257h-207l-594 838v-838h-252v1257h246l555 -794v794h252zM646 -80q60 0 102 -39t40 -105q0 -66 -67 -157l-55 -80h-156l94 127q-45 8 -74 41q-28 33 -28 86t42 90t102 37z" />
    <glyph glyph-name="ncommaaccent" unicode="&#x146;" horiz-adv-x="1034" 
d="M111 0v915h254v-84q91 105 245 105t239 -92t85 -246v-598h-254v545q0 74 -38 118t-104 44t-113 -34q-46 -34 -60 -93v-580h-254zM387 -207q0 53 42 90t102 37q59 0 101 -39t42 -105t-68 -157l-55 -80h-156l94 127q-45 8 -73 41t-29 86z" />
    <glyph glyph-name="Ncaron" unicode="&#x147;" horiz-adv-x="1294" 
d="M1174 1257v-1257h-207l-594 838v-838h-252v1257h246l555 -794v794h252zM541 1368l-205 260h215l96 -110l96 110h215l-204 -260h-213z" />
    <glyph glyph-name="ncaron" unicode="&#x148;" horiz-adv-x="1034" 
d="M111 0v915h254v-84q91 105 245 105t239 -92t85 -246v-598h-254v545q0 74 -38 118t-104 44t-113 -34q-46 -34 -60 -93v-580h-254zM836 1325l-195 -297h-213l-195 297h201l101 -141l100 141h201z" />
    <glyph glyph-name="Eng" unicode="&#x14a;" horiz-adv-x="1294" 
d="M738 -141q87 0 130 49t47 164l-542 766v-838h-252v1257h246l555 -794v794h252v-1173q0 -459 -412 -459q-95 0 -199 39v242q88 -47 175 -47z" />
    <glyph glyph-name="eng" unicode="&#x14b;" horiz-adv-x="1034" 
d="M680 -35v580q0 74 -38 118t-104 44t-113 -34q-46 -34 -60 -93v-580h-254v915h254v-84q91 105 245 105t239 -92t85 -246v-635q0 -153 -82 -237t-238 -84q-66 0 -96 10v203q37 -6 55 -7q107 0 107 117z" />
    <glyph glyph-name="Omacron" unicode="&#x14c;" horiz-adv-x="1310" 
d="M985 629q0 186 -91 301q-92 114 -240 114t-238 -114t-90 -301q0 -186 90 -301t238 -115t240 115q91 115 91 301zM1249 629q0 -283 -167 -466t-429 -183t-428 183t-166 467t166 466t428 182t429 -183t167 -466zM406 1370v186h497v-186h-497z" />
    <glyph glyph-name="omacron" unicode="&#x14d;" horiz-adv-x="1001" 
d="M698 458q0 118 -52 190t-144 73q-92 0 -144 -73q-52 -72 -53 -190q0 -118 52 -191q53 -73 145 -73t144 74q52 72 52 190zM502 936q200 0 324 -133t124 -345t-125 -345t-323 -133t-324 133q-125 133 -125 345t125 345t324 133zM260 1057v186h485v-186h-485z" />
    <glyph glyph-name="Obreve" unicode="&#x14e;" horiz-adv-x="1310" 
d="M985 629q0 186 -91 301q-92 114 -240 114t-238 -114t-90 -301q0 -186 90 -301t238 -115t240 115q91 115 91 301zM1249 629q0 -283 -167 -466t-429 -183t-428 183t-166 467t166 466t428 182t429 -183t167 -466zM930 1632q0 -130 -75 -202t-201 -72t-200 72t-75 202h180
q0 -98 95 -98t96 98h180z" />
    <glyph glyph-name="obreve" unicode="&#x14f;" horiz-adv-x="1001" 
d="M502 1008q-125 0 -199 76t-74 214h181q0 -119 92 -118q92 0 92 118h180q0 -138 -74 -214t-198 -76zM698 458q0 118 -52 190t-144 73q-92 0 -144 -73q-52 -72 -53 -190q0 -118 52 -191q53 -73 145 -73t144 74q52 72 52 190zM502 936q200 0 324 -133t124 -345t-125 -345
t-323 -133t-324 133q-125 133 -125 345t125 345t324 133z" />
    <glyph glyph-name="Ohungarumlaut" unicode="&#x150;" horiz-adv-x="1310" 
d="M920 1370h-211l137 250h213zM616 1370h-208l135 250h215zM985 629q0 186 -91 301q-92 114 -240 114t-238 -114t-90 -301q0 -186 90 -301t238 -115t240 115q91 115 91 301zM1249 629q0 -283 -167 -466t-429 -183t-428 183t-166 467t166 466t428 182t429 -183t167 -466z
" />
    <glyph glyph-name="ohungarumlaut" unicode="&#x151;" horiz-adv-x="1001" 
d="M698 458q0 118 -52 190t-144 73q-92 0 -144 -73q-52 -72 -53 -190q0 -118 52 -191q53 -73 145 -73t144 74q52 72 52 190zM502 936q200 0 324 -133t124 -345t-125 -345t-323 -133t-324 133q-125 133 -125 345t125 345t324 133zM737 1040h-200l137 291h203zM449 1040h-201
l137 291h203z" />
    <glyph glyph-name="OE" unicode="&#x152;" horiz-adv-x="1703" 
d="M692 231h115v797h-115q-178 0 -274 -106t-96 -292t96 -293q96 -106 274 -106zM1622 1257v-229h-557v-274h502v-224h-502v-299h557v-231h-942q-285 0 -453 170t-168 459t168 459t453 169h942z" />
    <glyph glyph-name="oe" unicode="&#x153;" horiz-adv-x="1593" 
d="M1130 729q-156 0 -190 -172h354q-4 76 -46 124t-118 48zM698 458q0 118 -52 190t-144 73q-92 0 -144 -73q-52 -72 -53 -190q0 -118 52 -191q53 -73 145 -73t144 74q52 72 52 190zM1122 -20q-182 0 -307 131q-121 -131 -317 -131t-320 133q-125 133 -125 345t125 345
q126 133 320 133t317 -133q127 133 319 133t301 -124q110 -124 109 -331v-78h-610q6 -102 59 -160t140 -59q139 0 170 115h235q-25 -151 -130 -235q-104 -84 -286 -84z" />
    <glyph glyph-name="Racute" unicode="&#x154;" horiz-adv-x="1153" 
d="M686 1370h-250l164 250h277zM381 1034v-350h242q96 0 147 47t51 128t-51 128t-147 47h-242zM381 469v-469h-260v1257h518q203 0 322 -104t118 -295q0 -147 -75 -243q-76 -95 -211 -128l331 -487h-295l-311 469h-137z" />
    <glyph glyph-name="racute" unicode="&#x155;" horiz-adv-x="718" 
d="M365 0h-254v915h254v-90q66 111 204 111q68 0 97 -16v-254q-51 30 -122 30t-118 -34t-61 -95v-567zM494 1040h-230l162 291h252z" />
    <glyph glyph-name="Rcommaaccent" unicode="&#x156;" horiz-adv-x="1153" 
d="M428 -207q0 53 42 90t102 37t102 -39t41 -105q0 -66 -68 -157l-55 -80h-156l94 127q-46 8 -74 41t-28 86zM381 1034v-350h242q96 0 147 47t51 128t-51 128t-147 47h-242zM381 469v-469h-260v1257h518q203 0 322 -104t118 -295q0 -147 -75 -243q-76 -95 -211 -128
l331 -487h-295l-311 469h-137z" />
    <glyph glyph-name="rcommaaccent" unicode="&#x157;" horiz-adv-x="718" 
d="M365 0h-254v915h254v-90q66 111 204 111q68 0 97 -16v-254q-51 30 -122 30t-118 -34t-61 -95v-567zM88 -207q0 53 42 90t102 37t102 -39t41 -105q0 -66 -68 -157l-55 -80h-156l94 127q-46 8 -74 41t-28 86z" />
    <glyph glyph-name="Rcaron" unicode="&#x158;" horiz-adv-x="1153" 
d="M467 1368l-205 260h215l96 -110l97 110h215l-205 -260h-213zM381 1034v-350h242q96 0 147 47t51 128t-51 128t-147 47h-242zM381 469v-469h-260v1257h518q203 0 322 -104t118 -295q0 -147 -75 -243q-76 -95 -211 -128l331 -487h-295l-311 469h-137z" />
    <glyph glyph-name="rcaron" unicode="&#x159;" horiz-adv-x="718" 
d="M365 0h-254v915h254v-90q66 111 204 111q68 0 97 -16v-254q-51 30 -122 30t-118 -34t-61 -95v-567zM692 1325l-194 -297h-213l-195 297h201l100 -141l101 141h200z" />
    <glyph glyph-name="Sacute" unicode="&#x15a;" horiz-adv-x="1085" 
d="M645 1370h-250l164 250h277zM766 346q0 65 -36 98t-118 52l-225 51q-319 72 -319 344q0 171 127 279t331 108t329 -99q126 -99 159 -266h-260q-51 150 -232 150q-90 0 -144 -40t-54 -108q0 -104 141 -137l229 -53q330 -76 330 -354q0 -179 -131 -285t-339 -106t-347 100
t-172 278h270q51 -162 250 -161q96 0 154 42q57 42 57 107z" />
    <glyph glyph-name="sacute" unicode="&#x15b;" horiz-adv-x="894" 
d="M460 172q126 0 126 90q0 31 -22 48t-70 30l-185 41q-238 55 -237 258q0 131 104 214t267 83t260 -75t122 -208h-241q-29 90 -144 90q-49 -1 -85 -23t-36 -63q0 -51 82 -71l189 -43q244 -59 244 -267q0 -137 -106 -217q-106 -79 -272 -79q-167 0 -276 76t-129 216h252
q31 -100 157 -100zM553 1040h-229l161 291h252z" />
    <glyph glyph-name="Scircumflex" unicode="&#x15c;" horiz-adv-x="1085" 
d="M649 1630l205 -260h-215l-96 111l-97 -111h-215l205 260h213zM766 346q0 65 -36 98t-118 52l-225 51q-319 72 -319 344q0 171 127 279t331 108t329 -99q126 -99 159 -266h-260q-51 150 -232 150q-90 0 -144 -40t-54 -108q0 -104 141 -137l229 -53q330 -76 330 -354
q0 -179 -131 -285t-339 -106t-347 100t-172 278h270q51 -162 250 -161q96 0 154 42q57 42 57 107z" />
    <glyph glyph-name="scircumflex" unicode="&#x15d;" horiz-adv-x="894" 
d="M460 172q126 0 126 90q0 31 -22 48t-70 30l-185 41q-238 55 -237 258q0 131 104 214t267 83t260 -75t122 -208h-241q-29 90 -144 90q-49 -1 -85 -23t-36 -63q0 -51 82 -71l189 -43q244 -59 244 -267q0 -137 -106 -217q-106 -79 -272 -79q-167 0 -276 76t-129 216h252
q31 -100 157 -100zM555 1325l195 -297h-201l-100 141l-101 -141h-201l195 297h213z" />
    <glyph glyph-name="Scedilla" unicode="&#x15e;" horiz-adv-x="1085" 
d="M508 -381h-225l143 285h233zM766 346q0 65 -36 98t-118 52l-225 51q-319 72 -319 344q0 171 127 279t331 108t329 -99q126 -99 159 -266h-260q-51 150 -232 150q-90 0 -144 -40t-54 -108q0 -104 141 -137l229 -53q330 -76 330 -354q0 -179 -131 -285t-339 -106t-347 100
t-172 278h270q51 -162 250 -161q96 0 154 42q57 42 57 107z" />
    <glyph glyph-name="scedilla" unicode="&#x15f;" horiz-adv-x="894" 
d="M420 -381h-225l143 285h233zM460 172q126 0 126 90q0 31 -22 48t-70 30l-185 41q-238 55 -237 258q0 131 104 214t267 83t260 -75t122 -208h-241q-29 90 -144 90q-49 -1 -85 -23t-36 -63q0 -51 82 -71l189 -43q244 -59 244 -267q0 -137 -106 -217q-106 -79 -272 -79
q-167 0 -276 76t-129 216h252q31 -100 157 -100z" />
    <glyph glyph-name="Scaron" unicode="&#x160;" horiz-adv-x="1085" 
d="M766 346q0 65 -36 98t-118 52l-225 51q-319 72 -319 344q0 171 127 279t331 108t329 -99q126 -99 159 -266h-260q-51 150 -232 150q-90 0 -144 -40t-54 -108q0 -104 141 -137l229 -53q330 -76 330 -354q0 -179 -131 -285t-339 -106t-347 100t-172 278h270
q51 -162 250 -161q96 0 154 42q57 42 57 107zM436 1368l-205 260h215l97 -110l96 110h215l-205 -260h-213z" />
    <glyph glyph-name="scaron" unicode="&#x161;" horiz-adv-x="894" 
d="M460 172q126 0 126 90q0 31 -22 48t-70 30l-185 41q-238 55 -237 258q0 131 104 214t267 83t260 -75t122 -208h-241q-29 90 -144 90q-49 -1 -85 -23t-36 -63q0 -51 82 -71l189 -43q244 -59 244 -267q0 -137 -106 -217q-106 -79 -272 -79q-167 0 -276 76t-129 216h252
q31 -100 157 -100zM750 1325l-195 -297h-213l-195 297h201l101 -141l100 141h201z" />
    <glyph glyph-name="Tcedilla" unicode="&#x162;" horiz-adv-x="1177" 
d="M53 1028v229h1073v-229h-405v-1028h-264v1028h-404zM444 -207q0 53 42 90t102 37t102 -39q41 -39 41 -105t-67 -157l-56 -80h-155l94 127q-45 8 -74 41t-29 86z" />
    <glyph glyph-name="tcedilla" unicode="&#x163;" horiz-adv-x="706" 
d="M264 -207q0 53 42 90t102 37t102 -39q41 -39 41 -105t-68 -157l-55 -80h-156l95 127q-45 8 -74 41t-29 86zM164 276v435h-137v204h137v248h254v-248h200v-204h-200v-398q0 -106 104 -106q57 0 111 31v-228q-53 -28 -180 -28t-208 74t-81 220z" />
    <glyph glyph-name="Tcaron" unicode="&#x164;" horiz-adv-x="1177" 
d="M53 1028v229h1073v-229h-405v-1028h-264v1028h-404zM483 1368l-204 260h215l96 -110l96 110h215l-205 -260h-213z" />
    <glyph glyph-name="tcaron" unicode="&#x165;" horiz-adv-x="706" 
d="M702 1004h-198l78 342h198zM164 276v435h-137v204h137v248h254v-248h200v-204h-200v-398q0 -106 104 -106q57 0 111 31v-228q-53 -28 -180 -28t-208 74t-81 220z" />
    <glyph glyph-name="Tbar" unicode="&#x166;" horiz-adv-x="1177" 
d="M53 1028v229h1073v-229h-405v-287h209v-217h-209v-524h-264v524h-207v217h207v287h-404z" />
    <glyph glyph-name="tbar" unicode="&#x167;" horiz-adv-x="714" 
d="M59 408v176h115v143h-139v188h139v248h254v-248h199v-188h-199v-143h158v-176h-158v-95q0 -106 102 -106q57 0 111 31v-228q-53 -28 -179 -28t-207 74t-81 220v132h-115z" />
    <glyph glyph-name="Utilde" unicode="&#x168;" horiz-adv-x="1249" 
d="M626 -20q-241 0 -382 136t-142 390v751h263v-725q0 -317 260 -317t260 317v725h262v-751q0 -254 -140 -390t-381 -136zM930 1642q0 -128 -43 -206t-131 -78q-53 0 -126 43t-106 43q-57 0 -59 -80h-146q0 129 43 207t132 78q53 0 126 -43t105 -43q57 -1 59 79h146z" />
    <glyph glyph-name="utilde" unicode="&#x169;" horiz-adv-x="1030" 
d="M809 1317q0 -129 -44 -207t-132 -78q-49 0 -113 47t-90 47q-57 0 -61 -86h-146q0 129 44 207t132 78q49 0 113 -47t90 -47q58 0 62 86h145zM922 915v-915h-254v84q-94 -104 -246 -104t-237 92t-85 245v598h254v-546q0 -76 37 -119t103 -43t112 34q45 34 60 93v581h256z
" />
    <glyph glyph-name="Umacron" unicode="&#x16a;" horiz-adv-x="1249" 
d="M626 -20q-241 0 -382 136t-142 390v751h263v-725q0 -317 260 -317t260 317v725h262v-751q0 -254 -140 -390t-381 -136zM377 1370v186h497v-186h-497z" />
    <glyph glyph-name="umacron" unicode="&#x16b;" horiz-adv-x="1030" 
d="M274 1057v186h486v-186h-486zM922 915v-915h-254v84q-94 -104 -246 -104t-237 92t-85 245v598h254v-546q0 -76 37 -119t103 -43t112 34q45 34 60 93v581h256z" />
    <glyph glyph-name="Ubreve" unicode="&#x16c;" horiz-adv-x="1249" 
d="M626 -20q-241 0 -382 136t-142 390v751h263v-725q0 -317 260 -317t260 317v725h262v-751q0 -254 -140 -390t-381 -136zM901 1632q-1 -130 -75 -202t-200 -72t-201 72t-75 202h180q0 -98 96 -98t95 98h180z" />
    <glyph glyph-name="ubreve" unicode="&#x16d;" horiz-adv-x="1030" 
d="M516 1008q-125 0 -199 76t-73 214h180q0 -119 92 -118q92 0 92 118h180q0 -139 -73 -215q-74 -75 -199 -75zM922 915v-915h-254v84q-94 -104 -246 -104t-237 92t-85 245v598h254v-546q0 -76 37 -119t103 -43t112 34q45 34 60 93v581h256z" />
    <glyph glyph-name="Uring" unicode="&#x16e;" horiz-adv-x="1249" 
d="M707 1523q0 33 -24 57q-23 24 -57 24t-58 -24t-24 -58t24 -58q22 -22 57 -22t59 24t23 57zM827 1522q0 -84 -58 -142t-144 -57q-86 0 -145 57q-58 58 -58 142t58 141t144 57t145 -57q58 -57 58 -141zM626 -20q-241 0 -382 136t-142 390v751h263v-725q0 -317 260 -317
t260 317v725h262v-751q0 -254 -140 -390t-381 -136z" />
    <glyph glyph-name="uring" unicode="&#x16f;" horiz-adv-x="1030" 
d="M922 915v-915h-254v84q-94 -104 -246 -104t-237 92t-85 245v598h254v-546q0 -76 37 -119t103 -43t112 34q45 34 60 93v581h256zM598 1196q0 34 -25 58t-57 24t-56 -24t-24 -58t24 -56q24 -24 58 -24t56 24q24 24 24 56zM719 1196q-1 -84 -59 -141t-144 -57t-144 56
q-58 58 -59 142q1 84 59 141t144 57t144 -56q58 -58 59 -142z" />
    <glyph glyph-name="Uhungarumlaut" unicode="&#x170;" horiz-adv-x="1249" 
d="M891 1370h-211l137 250h213zM588 1370h-209l135 250h215zM626 -20q-241 0 -382 136t-142 390v751h263v-725q0 -317 260 -317t260 317v725h262v-751q0 -254 -140 -390t-381 -136z" />
    <glyph glyph-name="uhungarumlaut" unicode="&#x171;" horiz-adv-x="1030" 
d="M752 1040h-201l137 291h203zM463 1040h-201l137 291h203zM922 915v-915h-254v84q-94 -104 -246 -104t-237 92t-85 245v598h254v-546q0 -76 37 -119t103 -43t112 34q45 34 60 93v581h256z" />
    <glyph glyph-name="Uogonek" unicode="&#x172;" horiz-adv-x="1249" 
d="M625 -20q-240 0 -381 136t-142 390v751h263v-725q0 -317 260 -317t260 317v725h262v-751q0 -164 -56 -272t-171 -187q-188 -127 -189 -227q0 -43 43 -43q27 0 74 33v-152q-61 -43 -133 -43t-117 42t-45 112q0 102 104 211h-32z" />
    <glyph glyph-name="uogonek" unicode="&#x173;" horiz-adv-x="1030" 
d="M922 915v-915q-94 -125 -101 -162l-2 -18q0 -43 41 -43q27 0 74 33v-152q-61 -43 -133 -43t-117 42q-45 43 -45 97q0 96 54 165q17 24 59 81h-84v84q-94 -104 -246 -104t-237 92t-85 245v598h254v-546q0 -76 37 -119t103 -43t112 34q45 34 60 93v581h256z" />
    <glyph glyph-name="Wcircumflex" unicode="&#x174;" horiz-adv-x="1626" 
d="M920 1630l204 -260h-215l-96 111l-96 -111h-215l205 260h213zM715 1257h205l217 -845l206 845h259l-328 -1257h-240l-221 829l-221 -829h-240l-327 1257h264l205 -845z" />
    <glyph glyph-name="wcircumflex" unicode="&#x175;" horiz-adv-x="1376" 
d="M788 915l152 -583l164 583h246l-279 -915h-233l-150 561l-149 -561h-234l-278 915h254l163 -583l150 583h194zM795 1325l194 -297h-201l-100 141l-100 -141h-201l195 297h213z" />
    <glyph glyph-name="Ycircumflex" unicode="&#x176;" horiz-adv-x="1214" 
d="M713 1630l205 -260h-216l-96 111l-96 -111h-215l205 260h213zM735 0h-260v477l-452 780h284l305 -532l303 532h277l-457 -780v-477z" />
    <glyph glyph-name="ycircumflex" unicode="&#x177;" horiz-adv-x="997" 
d="M610 1325l195 -297h-201l-100 141l-101 -141h-200l194 297h213zM494 -338h-250l133 334l-350 919h268l211 -608l209 608h256z" />
    <glyph glyph-name="Ydieresis" unicode="&#x178;" horiz-adv-x="1214" 
d="M639 1497q0 57 40 97t97 40t98 -40t41 -97t-41 -97t-98 -40t-97 40t-40 97zM301 1497q0 57 39 97t97 40q59 0 99 -40t40 -97t-40 -97t-98 -40t-97 40q-40 40 -40 97zM735 0h-260v477l-452 780h284l305 -532l303 532h277l-457 -780v-477z" />
    <glyph glyph-name="Zacute" unicode="&#x179;" horiz-adv-x="1134" 
d="M715 1370h-250l164 250h276zM1053 231v-231h-971v190l631 838h-621v229h952v-188l-626 -838h635z" />
    <glyph glyph-name="zacute" unicode="&#x17a;" horiz-adv-x="927" 
d="M844 205v-205h-766v164l440 547h-424v204h742v-163l-433 -547h441zM588 1040h-230l162 291h252z" />
    <glyph glyph-name="Zdotaccent" unicode="&#x17b;" horiz-adv-x="1134" 
d="M1053 231v-231h-971v190l631 838h-621v229h952v-188l-626 -838h635zM754 1504q0 -62 -45 -104t-107 -42t-106 42q-45 42 -45 104t45 104t106 41q61 0 107 -41q45 -42 45 -104z" />
    <glyph glyph-name="zdotaccent" unicode="&#x17c;" horiz-adv-x="927" 
d="M483 1331q61 0 107 -42t45 -104q0 -61 -45 -103q-44 -42 -106 -42t-107 41t-45 103t45 105q45 42 106 42zM844 205v-205h-766v164l440 547h-424v204h742v-163l-433 -547h441z" />
    <glyph glyph-name="Zcaron" unicode="&#x17d;" horiz-adv-x="1134" 
d="M1053 231v-231h-971v190l631 838h-621v229h952v-188l-626 -838h635zM496 1368l-205 260h215l96 -110l96 110h215l-204 -260h-213z" />
    <glyph glyph-name="zcaron" unicode="&#x17e;" horiz-adv-x="927" 
d="M844 205v-205h-766v164l440 547h-424v204h742v-163l-433 -547h441zM784 1325l-194 -297h-213l-195 297h201l100 -141l101 141h200z" />
    <glyph glyph-name="florin" unicode="&#x192;" horiz-adv-x="864" 
d="M123 518v205h170l41 229q29 158 122 242t244 84q76 0 140 -25v-215q-45 25 -111 25q-119 0 -143 -127l-39 -213h176v-205h-211l-96 -547q-29 -161 -107 -243t-231 -82q-78 0 -141 24v203q49 -23 106 -23t82 30t37 95l94 543h-133z" />
    <glyph glyph-name="Aringacute" unicode="&#x1fa;" horiz-adv-x="1284" 
d="M640 1397q34 0 56 18t23 46q0 28 -23 45q-24 18 -58 18t-58 -18t-23 -45q0 -28 24 -46q25 -18 59 -18zM774 1663h-248l117 192h277zM639 942l-154 -418h308zM840 1460q0 -70 -58 -118t-144 -48q-85 0 -143 48t-59 118q0 70 58 118t144 48t144 -48t58 -118zM512 1257h260
l481 -1257h-266l-113 303h-471l-110 -303h-262z" />
    <glyph glyph-name="aringacute" unicode="&#x1fb;" horiz-adv-x="958" 
d="M291 283q0 -55 47 -84q48 -29 110 -29t108 22t62 58v65q-16 37 -62 59t-108 22t-109 -30q-48 -28 -48 -83zM862 0h-244v49q-25 -25 -88 -45t-135 -20q-145 0 -242 80t-97 212q0 134 100 216q102 82 254 81q57 0 118 -16t90 -37v68q0 61 -37 101q-38 40 -112 40
q-102 0 -135 -86h-242q20 127 126 210t273 83t269 -93t102 -259v-584zM625 1341h-250l119 193h276zM489 1202q-35 0 -59 -18t-22 -46q0 -28 22 -45t58 -17t58 16q22 18 23 46q0 28 -22 46q-23 18 -58 18zM690 1139q0 -70 -58 -118t-144 -48t-143 48q-58 48 -58 118
q0 69 58 117t143 48q86 0 144 -47q58 -48 58 -118z" />
    <glyph glyph-name="AEacute" unicode="&#x1fc;" horiz-adv-x="1800" 
d="M1313 1370h-250l164 250h276zM903 524v525l-299 -525h299zM1718 1257v-229h-557v-274h502v-224h-502v-299h557v-231h-815v303h-426l-172 -303h-274l717 1257h970z" />
    <glyph glyph-name="aeacute" unicode="&#x1fd;" horiz-adv-x="1497" 
d="M1032 729q-154 0 -188 -172h354q-4 76 -47 124t-119 48zM1021 -20q-182 0 -304 126q-125 -125 -322 -124q-143 0 -241 78t-98 211q0 132 104 210q106 78 266 78h186v31q0 61 -38 101t-111 40q-111 0 -139 -88h-232q20 127 124 210t253 83q193 0 287 -121q121 121 276 121
q194 0 304 -125t110 -330v-82h-608q6 -102 59 -158t139 -57q137 0 168 111h236q-25 -145 -131 -230t-288 -85zM436 174q131 0 176 105v118h-163q-66 1 -112 -27t-46 -83t43 -84t102 -29zM893 1040h-229l161 291h252z" />
    <glyph glyph-name="Oslashacute" unicode="&#x1fe;" horiz-adv-x="1329" 
d="M776 1370h-250l164 250h277zM995 629q0 133 -43 227l-481 -582q80 -61 193 -61q150 0 240 116t91 300zM334 629q0 -137 43 -232l483 582q-82 66 -196 65q-147 0 -239 -115q-91 -116 -91 -300zM70 642q0 272 166 454t428 182q199 0 350 -113l98 119l119 -90l-111 -133
q140 -179 140 -447t-167 -451t-429 -183q-199 0 -347 108l-96 -115l-119 90l107 130q-139 177 -139 449z" />
    <glyph glyph-name="oslashacute" unicode="&#x1ff;" horiz-adv-x="1021" 
d="M512 723q-94 1 -148 -73t-53 -168q0 -94 19 -146l291 352q-47 35 -109 35zM713 457q0 63 -21 125l-291 -357q45 -35 124 -35t133 75t55 192zM614 1040h-229l162 291h252zM512 936q141 0 252 -72l84 103l98 -74l-92 -113q106 -130 106 -332t-124 -335q-125 -133 -324 -133
q-147 0 -254 71l-88 -108l-100 75l96 119q-102 127 -102 330t124 336q125 133 324 133z" />
    <glyph glyph-name="Scommaaccent" unicode="&#x218;" horiz-adv-x="1085" 
d="M766 346q0 65 -36 98t-118 52l-225 51q-319 72 -319 344q0 171 127 279t331 108t329 -99q126 -99 159 -266h-260q-51 150 -232 150q-90 0 -144 -40t-54 -108q0 -104 141 -137l229 -53q330 -76 330 -354q0 -179 -131 -285t-339 -106t-347 100t-172 278h270
q51 -162 250 -161q96 0 154 42q57 42 57 107zM389 -207q0 53 42 90q43 37 103 37t101 -39t41 -105t-68 -157l-55 -80h-156l95 127q-45 8 -74 41t-29 86z" />
    <glyph glyph-name="scommaaccent" unicode="&#x219;" horiz-adv-x="894" 
d="M460 172q126 0 126 90q0 31 -22 48t-70 30l-185 41q-238 55 -237 258q0 131 104 214t267 83t260 -75t122 -208h-241q-29 90 -144 90q-49 -1 -85 -23t-36 -63q0 -51 82 -71l189 -43q244 -59 244 -267q0 -137 -106 -217q-106 -79 -272 -79q-167 0 -276 76t-129 216h252
q31 -100 157 -100zM305 -207q0 53 42 90q43 37 103 37t101 -39t41 -105t-68 -157l-55 -80h-156l95 127q-45 8 -74 41t-29 86z" />
    <glyph glyph-name="uni0237" unicode="&#x237;" horiz-adv-x="471" 
d="M365 915v-952q0 -153 -82 -237t-238 -84q-68 0 -98 10v203q43 -6 55 -7q109 0 109 117v950h254z" />
    <glyph glyph-name="circumflex" unicode="&#x2c6;" horiz-adv-x="1024" 
d="M618 1325l195 -297h-201l-100 141l-100 -141h-201l195 297h212z" />
    <glyph glyph-name="caron" unicode="&#x2c7;" horiz-adv-x="1024" 
d="M813 1325l-195 -297h-212l-195 297h201l100 -141l100 141h201z" />
    <glyph glyph-name="breve" unicode="&#x2d8;" horiz-adv-x="1024" 
d="M512 1008q-125 0 -199 76t-73 214h180q0 -119 92 -118q92 0 92 118h180q0 -139 -73 -215q-74 -75 -199 -75z" />
    <glyph glyph-name="dotaccent" unicode="&#x2d9;" horiz-adv-x="1024" 
d="M512 1331q60 0 106 -42t46 -104q0 -61 -46 -103t-106 -42q-61 0 -106 41q-46 41 -46 103t46 105q46 42 106 42z" />
    <glyph glyph-name="ring" unicode="&#x2da;" horiz-adv-x="1024" 
d="M594 1196q0 34 -25 58t-57 24t-56 -24t-24 -58t24 -56q24 -24 58 -24t56 24q24 24 24 56zM715 1196q-1 -84 -59 -141t-144 -57t-144 56q-58 58 -59 142q1 84 59 141t144 57t144 -56q58 -58 59 -142z" />
    <glyph glyph-name="ogonek" unicode="&#x2db;" horiz-adv-x="1024" 
d="M575 -223q27 0 74 33v-152q-61 -43 -134 -43t-117 42q-44 41 -44 97q0 93 59 172q17 25 64 86h166q-13 -16 -29 -40t-34 -48q-17 -24 -22 -34q-5 -11 -14 -25t-12 -45q0 -43 43 -43z" />
    <glyph glyph-name="tilde" unicode="&#x2dc;" horiz-adv-x="1024" 
d="M805 1317q0 -129 -44 -207t-132 -78q-49 0 -113 47t-90 47q-57 0 -61 -86h-146q0 129 44 207t132 78q49 0 113 -47t90 -47q57 0 61 86h146z" />
    <glyph glyph-name="hungarumlaut" unicode="&#x2dd;" horiz-adv-x="1024" 
d="M686 1040h-201l138 291h202zM397 1040h-200l137 291h203z" />
    <glyph glyph-name="Wgrave" unicode="&#x1e80;" horiz-adv-x="1626" 
d="M715 1257h205l217 -845l206 845h259l-328 -1257h-240l-221 829l-221 -829h-240l-327 1257h264l205 -845zM942 1370h-250l-190 250h276z" />
    <glyph glyph-name="wgrave" unicode="&#x1e81;" horiz-adv-x="1376" 
d="M813 1040h-231l-183 291h252zM788 915l152 -583l164 583h246l-279 -915h-233l-150 561l-149 -561h-234l-278 915h254l163 -583l150 583h194z" />
    <glyph glyph-name="Wacute" unicode="&#x1e82;" horiz-adv-x="1626" 
d="M715 1257h205l217 -845l206 845h259l-328 -1257h-240l-221 829l-221 -829h-240l-327 1257h264l205 -845zM936 1370h-250l164 250h276z" />
    <glyph glyph-name="wacute" unicode="&#x1e83;" horiz-adv-x="1376" 
d="M788 915l152 -583l164 583h246l-279 -915h-233l-150 561l-149 -561h-234l-278 915h254l163 -583l150 583h194zM791 1040h-230l162 291h252z" />
    <glyph glyph-name="Wdieresis" unicode="&#x1e84;" horiz-adv-x="1626" 
d="M715 1257h205l217 -845l206 845h259l-328 -1257h-240l-221 829l-221 -829h-240l-327 1257h264l205 -845zM844 1497q0 57 40 97t97 40t98 -40t41 -97t-41 -97t-98 -40t-97 40t-40 97zM506 1497q0 57 39 97t97 40t98 -40t40 -97t-40 -97t-97 -40t-97 40t-40 97z" />
    <glyph glyph-name="wdieresis" unicode="&#x1e85;" horiz-adv-x="1376" 
d="M788 915l152 -583l164 583h246l-279 -915h-233l-150 561l-149 -561h-234l-278 915h254l163 -583l150 583h194zM721 1168q0 56 40 96t95 41q55 0 96 -40q41 -41 41 -97t-41 -96t-96 -40t-95 40t-40 96zM385 1168q0 56 40 96t96 41q56 0 96 -40q40 -41 40 -97t-40 -96
t-96 -40t-96 40t-40 96z" />
    <glyph glyph-name="Ygrave" unicode="&#x1ef2;" horiz-adv-x="1214" 
d="M741 1370h-249l-191 250h277zM735 0h-260v477l-452 780h284l305 -532l303 532h277l-457 -780v-477z" />
    <glyph glyph-name="ygrave" unicode="&#x1ef3;" horiz-adv-x="997" 
d="M629 1040h-232l-182 291h252zM494 -338h-250l133 334l-350 919h268l211 -608l209 608h256z" />
    <glyph glyph-name="endash" unicode="&#x2013;" horiz-adv-x="964" 
d="M78 444v185h809v-185h-809z" />
    <glyph glyph-name="emdash" unicode="&#x2014;" horiz-adv-x="1724" 
d="M78 444v185h1569v-185h-1569z" />
    <glyph glyph-name="quoteleft" unicode="&#x2018;" horiz-adv-x="419" 
d="M365 880q-1 -64 -47 -107q-46 -44 -114 -44t-115 46q-46 46 -46 129t68 183l112 170h162l-145 -225q55 -10 90 -49t35 -103z" />
    <glyph glyph-name="quoteright" unicode="&#x2019;" horiz-adv-x="419" 
d="M55 1126q0 64 46 108t115 44t115 -46t46 -129t-68 -183l-112 -170h-162l145 225q-55 10 -90 49q-35 38 -35 102z" />
    <glyph glyph-name="quotesinglbase" unicode="&#x201a;" horiz-adv-x="419" 
d="M55 152q0 64 46 107q46 44 115 44t115 -46t46 -129t-68 -183l-112 -170h-162l145 225q-55 10 -90 49t-35 103z" />
    <glyph glyph-name="quotedblleft" unicode="&#x201c;" horiz-adv-x="819" 
d="M764 880q0 -64 -46 -107q-46 -44 -115 -44t-115 46t-46 129t68 183l113 170h161l-145 -225q55 -10 90 -49t35 -103zM365 880q-1 -64 -47 -107q-46 -44 -114 -44t-115 46q-46 46 -46 129t68 183l112 170h162l-145 -225q55 -10 90 -49t35 -103z" />
    <glyph glyph-name="quotedblright" unicode="&#x201d;" horiz-adv-x="819" 
d="M616 1278q68 0 114 -46t46 -129t-67 -183l-113 -170h-162l146 225q-55 10 -91 49q-35 38 -35 102t47 108t115 44zM55 1126q0 64 46 108t115 44t115 -46t46 -129t-68 -183l-112 -170h-162l145 225q-55 10 -90 49q-35 38 -35 102z" />
    <glyph glyph-name="quotedblbase" unicode="&#x201e;" horiz-adv-x="819" 
d="M616 303q68 0 114 -46t46 -129t-67 -183l-113 -170h-162l146 225q-55 10 -91 49q-35 39 -35 103t47 107q47 44 115 44zM55 152q0 64 46 107q46 44 115 44t115 -46t46 -129t-68 -183l-112 -170h-162l145 225q-55 10 -90 49t-35 103z" />
    <glyph glyph-name="dagger" unicode="&#x2020;" horiz-adv-x="690" 
d="M55 973v170h203v188h174v-188h203v-170h-203v-408h-174v408h-203z" />
    <glyph glyph-name="daggerdbl" unicode="&#x2021;" horiz-adv-x="710" 
d="M63 1022v156h205v153h172v-153h207v-156h-207v-150h207v-153h-207v-154h-172v154h-205v153h205v150h-205z" />
    <glyph glyph-name="bullet" unicode="&#x2022;" horiz-adv-x="745" 
d="M688 538q0 -136 -91 -224t-224 -89q-133 0 -223 87q-90 86 -90 224t90 226t223 88t224 -88t91 -224z" />
    <glyph glyph-name="ellipsis" unicode="&#x2026;" horiz-adv-x="1372" 
d="M997 150q0 70 46 116t114 45q68 0 114 -46q46 -45 46 -115t-46 -117t-114 -47t-114 47t-46 117zM526 150q0 70 46 116t114 45q68 0 114 -46q46 -45 46 -115t-46 -117t-114 -47t-114 47t-46 117zM55 150q0 70 46 116t114 45q68 0 114 -46q46 -45 46 -115t-46 -117
t-114 -47t-114 47t-46 117z" />
    <glyph glyph-name="perthousand" unicode="&#x2030;" horiz-adv-x="2015" 
d="M225 986q0 -50 35 -85t85 -35t86 35t36 85t-36 86t-86 36t-85 -36t-35 -86zM1790 271q0 50 -35 85t-85 35t-86 -35t-36 -85t36 -86q36 -35 86 -35t85 36t35 85zM1960 272q0 -120 -84 -206t-205 -86t-207 86t-86 206t86 204q86 85 207 85t205 -84t84 -205zM1147 271
q0 50 -35 85t-86 35t-87 -35t-36 -85t36 -86q36 -35 87 -35t86 36t35 85zM1317 272q0 -120 -85 -206t-206 -86t-206 86t-85 206t85 205q85 84 206 84t206 -84t85 -205zM55 985q0 121 85 207t206 86t206 -86t85 -207t-85 -205t-206 -84t-206 84t-85 205zM211 0l778 1257h172
l-778 -1257h-172z" />
    <glyph glyph-name="guilsinglleft" unicode="&#x2039;" horiz-adv-x="520" 
d="M469 125h-229l-189 330l189 329h229l-188 -329z" />
    <glyph glyph-name="guilsinglright" unicode="&#x203a;" horiz-adv-x="520" 
d="M281 125h-230l189 330l-189 329h230l188 -329z" />
    <glyph glyph-name="fraction" unicode="&#x2044;" horiz-adv-x="442" 
d="M688 1257l-756 -1257h-178l756 1257h178z" />
    <glyph glyph-name="Euro" unicode="&#x20ac;" horiz-adv-x="1138" 
d="M53 682v158h119q47 202 179 320q131 118 309 118t288 -99t148 -278h-236q-42 147 -206 147t-228 -208h340l-31 -158h-336v-53q0 -41 2 -60h318l-33 -157h-258q64 -203 228 -203t204 147h236q-37 -178 -148 -277q-112 -99 -288 -99t-308 116q-131 117 -178 316h-121v157
h99q-2 18 -2 60v53h-97z" />
    <glyph glyph-name="uni2117" unicode="&#x2117;" horiz-adv-x="1441" 
d="M881 745q0 92 -101 93h-123v-185h123q101 0 101 92zM799 481h-142v-227h-196v756h338q125 0 201 -70t75 -195q1 -125 -75 -195t-201 -69zM1274 629q0 239 -162 397t-391 158t-391 -159t-162 -397t162 -396t391 -158t391 158t162 397zM1370 629q0 -279 -189 -464
t-459 -185t-461 185q-189 185 -189 464t189 464t459 185t460 -185t190 -464z" />
    <glyph glyph-name="trademark" unicode="&#x2122;" horiz-adv-x="1232" 
d="M717 737h-137v520h180l108 -313l111 313h178v-520h-137v299l-105 -299h-94l-104 299v-299zM41 1126v131h467v-131h-158v-389h-151v389h-158z" />
    <glyph glyph-name="uni2153" unicode="&#x2153;" horiz-adv-x="1468" 
d="M428 1257v-698h-184v485l-181 -88v189l236 112h129zM1126 147q74 0 74 69t-82 69h-53v137h47q82 0 82 67q0 29 -18 47t-50 17q-32 0 -54 -23t-25 -53h-183q12 100 79 166t179 66q112 -1 180 -59q66 -58 66 -155t-74 -143q82 -41 82 -140t-68 -161q-69 -61 -187 -61
q-119 0 -189 64t-78 171h193q4 -35 24 -57t55 -21zM1227 1257l-883 -1257h-184l882 1257h185z" />
    <glyph glyph-name="uni2154" unicode="&#x2154;" horiz-adv-x="1605" 
d="M1339 217q0 68 -82 70h-55v133h47q84 0 84 69q0 29 -19 47t-52 19q-34 0 -54 -23t-24 -55h-183q12 100 79 166q68 66 180 66q112 -1 179 -59t67 -155t-74 -143q82 -41 82 -140t-69 -161q-69 -61 -187 -61t-188 64t-79 171h191q9 -80 82 -80q35 -1 55 19t20 53zM414 1041
q0 69 -64 69q-29 0 -48 -22t-19 -48h-195q10 102 80 169t182 67t182 -60q68 -60 68 -159q0 -43 -20 -85t-43 -66t-68 -68l-119 -113h250v-160h-508v125l242 238q80 76 80 113zM1364 1257l-883 -1257h-184l883 1257h184z" />
    <glyph glyph-name="uni215B" unicode="&#x215b;" horiz-adv-x="1490" 
d="M428 1257v-698h-184v485l-181 -88v189l236 112h129zM1128 -10q-116 0 -192 55t-76 150q0 119 111 159q-88 44 -88 146t70 156q71 54 173 54t174 -54t72 -155t-90 -147q111 -39 111 -159q0 -93 -75 -149t-190 -56zM1128 571q-34 0 -56 -19t-22 -50q0 -30 22 -50
q21 -20 55 -20q35 0 55 20t20 50q0 31 -20 50t-54 19zM1128 135q37 1 61 21q23 20 23 54t-23 53q-24 19 -61 19q-38 0 -62 -18q-24 -20 -24 -54t24 -54t62 -21zM1227 1257l-883 -1257h-184l882 1257h185z" />
    <glyph glyph-name="uni215C" unicode="&#x215c;" horiz-adv-x="1560" 
d="M287 844v135h47q84 0 84 68q0 31 -18 49t-52 18q-32 0 -54 -22t-26 -56h-182q12 100 79 166t179 66t180 -60t68 -157q0 -43 -22 -83t-54 -59q82 -41 82 -140t-68 -161t-186 -61t-190 65q-70 64 -76 172h190q2 -38 24 -60t56 -22t56 20t22 54q0 68 -84 68h-55zM1294 1257
l-880 -1257h-185l883 1257h182zM1196 -10q-114 0 -190 55t-76 150q0 119 110 159q-88 44 -88 146t71 156t173 54t174 -54t72 -154t-90 -148q111 -39 110 -159q0 -93 -76 -149t-190 -56zM1196 432q32 0 54 20t22 50q0 31 -22 50t-54 19t-54 -19t-22 -50q0 -30 22 -50t54 -20z
M1196 135q38 1 62 21t24 54t-25 53t-61 19t-60 -18q-24 -20 -24 -54t24 -54t60 -21z" />
    <glyph glyph-name="uni215D" unicode="&#x215d;" horiz-adv-x="1574" 
d="M353 872q-38 0 -77 -34h-157v419h440v-155h-287v-107q41 27 105 27q105 0 169 -65t64 -171t-68 -174q-68 -66 -187 -66q-117 0 -189 63q-72 62 -80 169h188q4 -33 27 -53t57 -20q34 -1 55 23t21 60t-21 61q-22 23 -60 23zM1309 1257l-883 -1257h-182l882 1257h183z
M1210 -10q-114 0 -190 55t-76 150q0 121 109 159q-86 44 -86 146t70 156q71 54 173 54t173 -54t71 -155t-88 -147q111 -39 111 -159q0 -93 -76 -149t-191 -56zM1210 432q33 0 55 20t21 50q0 31 -21 50q-22 19 -55 19q-32 0 -54 -19t-22 -50q0 -30 22 -50q21 -20 54 -20z
M1210 135q37 1 61 21q23 20 23 54t-23 53q-24 19 -61 19q-38 0 -62 -18q-24 -20 -24 -54t24 -54t62 -21z" />
    <glyph glyph-name="uni215E" unicode="&#x215e;" horiz-adv-x="1449" 
d="M80 1094v163h493v-129l-219 -569h-192l209 535h-291zM1186 1257l-883 -1257h-182l880 1257h185zM1087 -10q-115 0 -191 55t-77 150q0 119 111 159q-88 44 -88 146t70 156q71 54 174 54q102 0 174 -54t72 -155t-89 -147q111 -41 111 -159q0 -93 -76 -149t-191 -56z
M1087 432q33 0 53 20t21 50q0 31 -20 50q-19 19 -53 19t-56 -19t-22 -50q0 -30 22 -50t55 -20zM1087 135q37 1 61 21t24 54t-24 53t-61 19t-61 -18q-24 -20 -25 -54q1 -34 25 -54t61 -21z" />
    <glyph glyph-name="minus" unicode="&#x2212;" horiz-adv-x="1146" 
d="M131 514v197h885v-197h-885z" />
    <glyph glyph-name="approxequal" unicode="&#x2248;" horiz-adv-x="1179" 
d="M387 588q76 0 201 -39t200 -39q123 0 244 80v-184q-123 -78 -244 -78q-76 0 -200 38t-201 37q-118 1 -237 -77v182q117 80 237 80zM387 901q76 0 201 -38t200 -38q119 0 244 80v-184q-125 -80 -244 -80q-76 0 -200 39t-201 39q-120 0 -237 -80v184q119 78 237 78z" />
    <glyph glyph-name="notequal" unicode="&#x2260;" horiz-adv-x="1179" 
d="M150 692v178h526l129 193h170l-129 -193h186v-178h-305l-106 -157h411v-177h-528l-129 -192h-168l127 192h-184v177h303l104 157h-407z" />
    <glyph glyph-name="lessequal" unicode="&#x2264;" horiz-adv-x="917" 
d="M123 123v190h674v-190h-674zM123 621v239l674 256v-211l-480 -164l480 -163v-209z" />
    <glyph glyph-name="greaterequal" unicode="&#x2265;" horiz-adv-x="917" 
d="M797 313v-190h-674v190h674zM797 860v-239l-674 -252v209l477 163l-477 164v211z" />
    <glyph glyph-name="fi" unicode="&#xfb01;" horiz-adv-x="1142" 
d="M557 1135q-125 0 -125 -127v-93h191v-204h-191v-711h-250v711h-149v204h149v109q0 154 88 240t236 86q86 0 141 -25v-215q-35 25 -90 25zM905 1325q61 0 105 -42t45 -104q0 -61 -44 -103q-45 -42 -107 -42t-106 41t-44 103t45 105q45 42 106 42zM1032 915v-915h-254v915
h254z" />
    <glyph glyph-name="fl" unicode="&#xfb02;" horiz-adv-x="1142" 
d="M557 1135q-125 0 -125 -127v-93h191v-204h-191v-711h-250v711h-149v204h149v109q0 154 88 240t236 86q86 0 141 -25v-215q-35 25 -90 25zM1032 1331v-1331h-254v1331h254z" />
    <glyph glyph-name="i.dot" horiz-adv-x="475" 
d="M389 1185q0 -61 -45 -103t-106 -42t-107 41q-45 41 -45 103t45 105q45 42 107 42t106 -42q45 -42 45 -104zM365 915v-915h-254v915h254z" />
    <glyph glyph-name="space_uni0326" horiz-adv-x="1024" 
d="M515 -80q60 0 101 -39t41 -105t-67 -157l-55 -80h-156l94 127q-45 8 -74 41t-29 86t43 90q42 37 102 37z" />
    <glyph glyph-name="space_uni0326.alt" horiz-adv-x="1024" 
d="M508 1034q-61 0 -104 39q-42 39 -42 109t68 159l62 84h155l-96 -131q45 -10 75 -44t30 -87t-44 -91q-43 -38 -104 -38z" />
    <glyph glyph-name="space_dotbelowcomb" horiz-adv-x="1024" 
d="M662 -223q0 -61 -44 -103t-106 -41q-61 0 -105 41q-45 40 -45 102t44 103t106 41t106 -41t44 -102z" />
    <glyph glyph-name="caron.Slovak" horiz-adv-x="1024" 
d="M557 989h-199l78 342h199z" />
    <glyph glyph-name="cedilla.alt" horiz-adv-x="1024" 
d="M543 -381h-226l144 285h233z" />
    <glyph glyph-name="grave.cap" horiz-adv-x="1024" 
d="M731 1370h-250l-190 250h276z" />
    <glyph glyph-name="acute.cap" horiz-adv-x="1024" 
d="M541 1370h-250l164 250h276z" />
    <glyph glyph-name="circumflex.cap" horiz-adv-x="1024" 
d="M618 1630l205 -260h-215l-96 111l-96 -111h-215l205 260h212z" />
    <glyph glyph-name="caron.cap" horiz-adv-x="1024" 
d="M406 1368l-205 260h215l96 -110l96 110h215l-205 -260h-212z" />
    <glyph glyph-name="tilde.cap" horiz-adv-x="1024" 
d="M817 1642q0 -128 -43 -206t-131 -78q-53 0 -126 43t-105 43q-55 0 -60 -80h-145q0 129 43 207t131 78q53 0 126 -43t105 -43q56 -1 60 79h145z" />
    <glyph glyph-name="macron.cap" horiz-adv-x="1024" 
d="M262 1370v186h498v-186h-498z" />
    <glyph glyph-name="breve.cap" horiz-adv-x="1024" 
d="M786 1632q0 -130 -74 -202t-201 -72q-126 0 -201 72t-74 202h180q0 -98 95 -98t95 98h180z" />
    <glyph glyph-name="dotaccent.cap" horiz-adv-x="1024" 
d="M512 1649q60 1 106 -41t46 -104t-46 -104t-106 -42q-61 0 -106 42q-46 42 -46 104t46 104t106 41z" />
    <glyph glyph-name="dieresis.cap" horiz-adv-x="1024" 
d="M543 1497q0 57 40 97t97 40t98 -40t41 -97t-41 -97t-98 -40t-97 40t-40 97zM205 1497q0 57 39 97t97 40t98 -40t40 -97t-40 -97t-97 -40t-97 40t-40 97z" />
    <glyph glyph-name="ring.cap" horiz-adv-x="1024" 
d="M594 1523q0 33 -25 57t-57 24t-56 -24t-24 -58t24 -58q24 -22 58 -22t56 24q24 24 24 57zM715 1522q-1 -84 -59 -142t-144 -57q-86 0 -144 57q-58 58 -58 142t58 141t144 57t144 -57t59 -141z" />
    <glyph glyph-name="hungarumlaut.cap" horiz-adv-x="1024" 
d="M698 1370h-211l138 250h213zM395 1370h-209l136 250h215z" />
    <glyph glyph-name="exclamdown.cap" horiz-adv-x="444" 
d="M68 0l61 852h186l62 -852h-309zM221 954q-68 0 -114 46t-46 113q1 67 47 113t114 46t114 -46q47 -46 47 -113t-47 -113t-115 -46z" />
    <glyph glyph-name="questiondown.cap" horiz-adv-x="933" 
d="M41 348q1 70 21 111t30 61t59 79t110 121q61 63 61 130h251q-5 -120 -87 -215q-36 -43 -78 -87t-56 -62q-46 -58 -46 -125q-1 -67 41 -109t117 -41q75 0 118 49t47 125h270q-18 -180 -137 -294q-118 -114 -308 -114q-190 1 -302 101t-111 270zM455 1270q69 0 115 -46
t46 -113t-47 -113t-115 -46t-114 46q-47 46 -47 113t47 113t115 46z" />
    <glyph glyph-name="guilsinglleft.cap" horiz-adv-x="520" 
d="M469 289h-229l-189 329l189 330h229l-188 -330z" />
    <glyph glyph-name="guilsinglright.cap" horiz-adv-x="520" 
d="M281 289h-230l189 329l-189 330h230l188 -330z" />
    <glyph glyph-name="guillemotleft.cap" horiz-adv-x="860" 
d="M809 289h-217l-189 329l189 330h217l-188 -330zM457 289h-217l-189 329l189 330h217l-189 -330z" />
    <glyph glyph-name="guillemotright.cap" horiz-adv-x="860" 
d="M268 289h-217l189 329l-189 330h217l189 -330zM621 289h-218l189 329l-189 330h218l188 -330z" />
    <glyph glyph-name="slash.cap" horiz-adv-x="763" 
d="M10 -131l508 1503h236l-508 -1503h-236z" />
    <glyph glyph-name="backslash.cap" horiz-adv-x="763" 
d="M246 1372l508 -1503h-236l-508 1503h236z" />
    <glyph glyph-name="bar.cap" horiz-adv-x="466" 
d="M121 -131v1503h225v-1503h-225z" />
    <glyph glyph-name="periodcentered.cap" horiz-adv-x="438" 
d="M59 614q0 70 46 116t114 46t114 -46t46 -116t-46 -116t-114 -47q-68 1 -114 47t-46 116z" />
    <glyph glyph-name="bullet.cap" horiz-adv-x="745" 
d="M373 928q133 0 224 -90t91 -225q0 -136 -91 -224t-224 -88t-223 88t-90 224q0 135 90 225t223 90z" />
    <glyph glyph-name="hyphen.cap" horiz-adv-x="649" 
d="M78 502v223h493v-223h-493z" />
    <glyph glyph-name="endash.cap" horiz-adv-x="964" 
d="M78 520v187h809v-187h-809z" />
    <glyph glyph-name="emdash.cap" horiz-adv-x="1724" 
d="M78 520v187h1569v-187h-1569z" />
    <glyph glyph-name="parenleft.cap" horiz-adv-x="665" 
d="M61 621q0 285 152 487t412 264v-256q-145 -39 -233 -170q-88 -132 -89 -326q0 -194 88 -325t234 -170v-256q-260 63 -412 265t-152 487z" />
    <glyph glyph-name="parenright.cap" horiz-adv-x="665" 
d="M604 621q0 -285 -152 -487t-411 -265v256q145 39 233 170t88 326t-88 325t-233 170v256q259 -62 411 -264t152 -487z" />
    <glyph glyph-name="bracketleft.cap" horiz-adv-x="659" 
d="M358 1153v-1065h260v-219h-497v1503h497v-219h-260z" />
    <glyph glyph-name="bracketright.cap" horiz-adv-x="659" 
d="M301 88v1065h-260v219h498v-1503h-498v219h260z" />
    <glyph glyph-name="braceleft.cap" horiz-adv-x="722" 
d="M436 451v-304q0 -59 60 -59h186v-219h-221q-117 0 -191 74t-73 192v316q0 59 -60 59h-96v221h96q59 0 60 60v315q-1 118 73 192t191 74h221v-219h-186q-59 0 -60 -59v-303q0 -111 -96 -170q96 -59 96 -170z" />
    <glyph glyph-name="braceright.cap" horiz-adv-x="722" 
d="M287 147v304q0 111 96 170q-96 59 -96 170v303q0 59 -60 59h-186v219h221q117 0 191 -74t73 -192v-315q0 -59 60 -60h96v-221h-96q-59 0 -60 -59v-316q0 -119 -74 -193t-190 -73h-221v219h186q60 0 60 59z" />
    <glyph glyph-name="at.cap" horiz-adv-x="1572" 
d="M801 809q-78 0 -128 -68t-50 -144q0 -153 118 -153q87 0 140 84l37 205q-10 33 -42 55t-75 21zM1362 750q0 214 -148 336t-380 122q-272 0 -444 -175t-173 -455q0 -126 38 -224t99 -159q172 -172 506 -174q214 -1 434 98v-150q-193 -96 -458 -96q-314 0 -543 166
q-113 82 -178 221q-66 139 -66 318q0 330 219 555t566 225q304 0 496 -173t192 -424t-121 -380t-286 -129t-238 108q-29 -50 -84 -78t-115 -28q-127 0 -203 88t-76 221q0 176 108 305t271 129q58 1 106 -21t68 -54l13 57h211l-84 -483q-14 -96 61 -97q93 1 151 95t58 256z
" />
    <glyph glyph-name="Euro.lt" 
d="M51 682v158h109q45 202 169 320t291 118t272 -99t138 -278h-231q-35 147 -178 148q-154 0 -211 -209h309l-29 -158h-305v-113h289l-29 -157h-233q57 -205 209 -205q143 0 178 149h231q-33 -178 -138 -277t-271 -99t-290 116t-171 316h-109v157h86v113h-86z" />
    <glyph glyph-name="dollar.lt" 
d="M444 -182v198q-152 25 -248 116t-124 237h254q51 -152 233 -152q88 0 139 39q52 39 52 101q0 63 -35 95t-115 50l-201 49q-299 70 -299 334q0 143 94 240t250 118v187h218v-195q133 -31 214 -116t107 -214h-244q-47 137 -217 137q-82 0 -130 -38t-48 -101q0 -96 131 -131
l213 -51q307 -76 307 -344q0 -145 -91 -241t-242 -120v-198h-218z" />
    <glyph glyph-name="cent.lt" 
d="M113 477q0 182 92 307t246 160v186h217v-186q122 -29 196 -116t88 -214h-247q-5 58 -47 92t-116 34t-126 -72q-51 -72 -51 -190t51 -190q52 -72 126 -71q74 0 115 33t48 90h247q-14 -127 -88 -214t-196 -114v-190h-217v188q-154 35 -246 160t-92 307z" />
    <glyph glyph-name="sterling.lt" 
d="M465 868v-149h264v-199h-264v-123q0 -129 -43 -186h565v-211h-911v211h104q41 72 41 186v123h-145v199h145v145q0 178 108 296q107 118 277 118t270 -93t113 -247h-233q-16 125 -138 125q-76 1 -114 -53t-39 -142z" />
    <glyph glyph-name="yen.lt" 
d="M96 524v172h217l-284 561h274l236 -485l231 485h266l-288 -561h217v-172h-306v-114h306v-172h-306v-238h-258v238h-305v172h305v114h-305z" />
    <glyph glyph-name="florin.lt" 
d="M266 518v205h170l41 229q29 158 123 242t244 84q76 0 139 -25v-215q-45 25 -111 25q-119 0 -143 -127l-39 -213h176v-205h-211l-96 -547q-27 -161 -105 -243t-233 -82q-78 0 -141 24v203q49 -23 106 -23t82 30t37 95l94 543h-133z" />
    <glyph glyph-name="zero.lt" 
d="M531 1044q-116 0 -171 -114t-55 -301q0 -188 55 -302t171 -114t171 114t56 302q0 187 -56 301t-171 114zM532 -20q-219 0 -350 179t-131 470t131 470t350 179q218 0 350 -179t132 -470t-132 -470t-350 -179z" />
    <glyph glyph-name="one.lt" 
d="M147 0v227h322v731l-317 -159v258l405 200h166v-1030h283v-227h-859z" />
    <glyph glyph-name="two.lt" 
d="M684 893q0 67 -44 109t-119 42t-119 -48t-48 -126h-270q18 178 137 293t307 115t302 -101t114 -274q0 -73 -40 -151t-83 -129t-127 -136l-243 -260h507v-227h-870v170l397 420q10 12 35 39t35 39q11 12 31 34t28 34q8 10 22 30t21 34q27 60 27 93z" />
    <glyph glyph-name="three.lt" 
d="M446 539v202h78q84 0 135 41t51 113t-46 117q-47 45 -127 45t-128 -49t-55 -125h-254q20 171 140 283t309 112q188 0 299 -101t110 -266q0 -90 -43 -165t-110 -107q86 -37 131 -112t45 -167q0 -166 -118 -274q-117 -108 -321 -106q-204 0 -327 110t-139 299h262
q8 -86 59 -136t139 -50t140 46q53 46 53 122t-55 122t-146 46h-82z" />
    <glyph glyph-name="four.lt" 
d="M596 465v260h238v-260h188v-215h-188v-250h-234v250h-559v188l434 819h254l-410 -792h277z" />
    <glyph glyph-name="five.lt" 
d="M528 614q-106 0 -178 -84h-209v727h756v-227h-543v-256q84 57 213 57q186 -1 301 -117t115 -306t-121 -310q-122 -118 -322 -118t-325 110t-141 299h260q10 -84 66 -134t144 -50t142 57q53 58 53 148t-53 147q-52 57 -158 57z" />
    <glyph glyph-name="six.lt" 
d="M567 1063q-106 -1 -175 -107t-70 -245v-19q34 59 104 96t162 37q184 1 297 -119t113 -299t-121 -304q-121 -124 -324 -123q-258 0 -383 227q-88 158 -88 395q0 300 131 488t352 188q346 0 422 -338h-254q-39 123 -166 123zM344 408q0 -96 58 -154t150 -59q92 0 150 58
q58 59 58 155t-58 155t-149 59q-93 0 -151 -58q-58 -60 -58 -156z" />
    <glyph glyph-name="seven.lt" 
d="M86 1028v229h891v-186l-428 -1071h-262l418 1028h-619z" />
    <glyph glyph-name="eight.lt" 
d="M991 344q1 -168 -129 -266t-326 -98t-325 98t-129 266q0 115 62 195t157 106q-82 35 -131 109t-49 170q0 166 120 260t295 94q176 0 296 -94t120 -260q0 -96 -50 -170t-132 -109q94 -27 158 -106q63 -80 63 -195zM536 756q72 0 124 43t52 115t-52 117q-52 44 -124 44
t-124 -44t-52 -117q0 -74 52 -116t124 -42zM537 186q88 0 146 48t58 130t-58 131q-58 48 -147 48q-88 0 -146 -48t-58 -130t58 -131q59 -48 147 -48z" />
    <glyph glyph-name="nine.lt" 
d="M477 432q-184 0 -297 120q-112 120 -112 299t120 303q121 124 324 124q258 0 383 -227q88 -158 88 -396q0 -299 -131 -487t-352 -188q-346 -1 -422 337h254q39 -123 166 -122q106 0 175 106t70 246v18q-33 -59 -103 -96t-163 -37zM721 850q0 96 -58 154q-59 58 -151 59
q-92 0 -150 -58q-58 -59 -57 -155q0 -96 57 -156q58 -60 150 -59q92 0 151 59q58 60 58 156z" />
    <glyph glyph-name="period.tab" horiz-adv-x="532" 
d="M104 150q0 70 48 116t114 45q68 0 114 -46q46 -45 46 -115t-46 -117t-114 -47t-115 47t-47 117z" />
    <glyph glyph-name="comma.tab" horiz-adv-x="532" 
d="M104 158q0 64 48 108t116 43q68 0 113 -46t45 -131t-68 -181l-114 -174h-164l149 229q-53 10 -89 49t-36 103z" />
    <glyph glyph-name="colon.tab" horiz-adv-x="532" 
d="M106 733q0 70 46 116t114 46t114 -46t46 -116t-46 -117t-114 -47t-114 47t-46 117zM106 150q0 70 46 116t114 45q68 0 114 -46q46 -45 46 -115t-46 -117t-114 -47t-114 47t-46 117z" />
    <glyph glyph-name="semicolon.tab" horiz-adv-x="532" 
d="M106 733q0 70 46 116t114 46t114 -46t46 -116t-46 -117t-114 -47t-114 47t-46 117zM106 158q0 64 46 108t116 43q68 0 113 -46t45 -130t-66 -182l-116 -174h-164l149 229q-53 10 -88 49t-35 103z" />
    <glyph glyph-name="space.tab" horiz-adv-x="532" 
 />
    <glyph glyph-name="percent.lt" 
d="M63 0l768 1257h170l-768 -1257h-170zM775 125q44 1 74 31t30 74t-30 74t-74 30t-75 -30q-30 -30 -30 -74t30 -74t75 -31zM524 230q0 102 73 176t177 74t177 -74q73 -73 73 -176t-73 -177q-73 -73 -177 -73t-177 74t-73 176zM186 1027q0 -44 30 -74q30 -29 74 -29t75 30
t31 73q0 44 -31 75t-75 31t-74 -31t-30 -75zM41 1027q0 103 73 177t177 74t177 -74t73 -177t-73 -176t-177 -73t-177 73t-73 176z" />
    <glyph glyph-name="perthousand.lt" horiz-adv-x="1638" 
d="M1339 334q-43 0 -75 -30t-31 -74q0 -44 32 -74q33 -30 75 -31q42 1 73 31t31 74t-31 74t-74 30zM1589 230q1 -103 -73 -177q-74 -73 -178 -73t-177 74q-74 74 -74 176t74 176t177 74t178 -73q73 -74 73 -177zM59 1027q0 103 73 177t177 74t177 -74t73 -177t-73 -176
t-177 -73t-177 73t-73 176zM688 230q0 -44 31 -74t75 -31q44 1 74 31t29 74q0 44 -30 74q-29 30 -73 30t-75 -30t-31 -74zM1044 230q0 -103 -74 -177q-74 -73 -176 -73q-103 0 -178 73q-74 74 -74 177t74 177q74 73 178 73t177 -73q73 -74 73 -177zM308 1133q-44 0 -74 -31
t-29 -75q-1 -44 29 -74q30 -29 74 -29t75 30t31 73q0 44 -31 75t-75 31zM72 0l788 1257h170l-788 -1257h-170z" />
    <glyph glyph-name="plus.lt" 
d="M434 1055h197v-344h344v-197h-344v-342h-197v342h-344v197h344v344z" />
    <glyph glyph-name="minus.lt" 
d="M90 514v197h885v-197h-885z" />
    <glyph glyph-name="multiply.lt" 
d="M397 610l-250 246l138 135l245 -248l248 248l137 -135l-247 -246l247 -248l-137 -137l-248 248l-245 -248l-138 137z" />
    <glyph glyph-name="divide.lt" 
d="M387 258q0 59 43 101t102 42q58 0 102 -42t44 -101t-43 -102t-103 -43t-102 43q-43 43 -43 102zM387 967q0 59 43 102t102 43q58 0 102 -43t44 -102t-43 -101t-103 -43q-60 1 -102 43q-43 42 -43 101zM90 514v197h885v-197h-885z" />
    <glyph glyph-name="equal.lt" 
d="M90 692v180h883v-180h-883zM90 358v179h883v-179h-883z" />
    <glyph glyph-name="less.lt" 
d="M197 483v252l671 312v-222l-491 -217l491 -215v-223z" />
    <glyph glyph-name="greater.lt" 
d="M868 735v-252l-673 -313v223l491 215l-491 217v222z" />
    <glyph glyph-name="plusminus.lt" 
d="M102 127v186h859v-186h-859zM438 1122h187v-266h336v-184h-336v-266h-187v266h-336v184h336v266z" />
    <glyph glyph-name="lessequal.lt" 
d="M195 123v190h673v-190h-673zM195 621v239l673 256v-211l-479 -164l479 -163v-209z" />
    <glyph glyph-name="greaterequal.lt" 
d="M868 313v-190h-673v190h673zM868 860v-239l-673 -252v209l479 163l-479 164v211z" />
    <glyph glyph-name="notequal.lt" 
d="M90 692v178h526l129 193h170l-129 -193h187v-178h-305l-107 -157h412v-177h-529l-129 -192h-168l127 192h-184v177h303l105 157h-408z" />
    <glyph glyph-name="approxequal.lt" 
d="M328 588q76 0 202 -39t199 -39q123 0 244 80v-184q-123 -78 -244 -78q-74 0 -200 38t-201 37q-117 1 -238 -77v182q121 80 238 80zM328 901q76 0 202 -38t199 -38q119 0 244 80v-184q-125 -80 -244 -80q-74 0 -200 39t-201 39q-119 0 -238 -80v184q121 78 238 78z" />
    </font>
</defs>
</svg>
