<?xml version="1.0" standalone="no"?>
<!DOCTYPE svg PUBLIC "-//W3C//DTD SVG 1.1//EN" "http://www.w3.org/Graphics/SVG/1.1/DTD/svg11.dtd" >
<svg>
<metadata>
Created by FontForge 20100429 at Thu Sep 11 04:26:29 2014
 By fontface
(c) 2011 Klim Type Foundry. All rights reserved.
</metadata>
<defs>
<font id="Calibre-Thin" horiz-adv-x="500" >
  <font-face 
    font-family="Calibre"
    font-weight="250"
    font-stretch="normal"
    units-per-em="1000"
    panose-1="2 11 4 3 3 2 2 6 2 3"
    ascent="650"
    descent="-350"
    x-height="444"
    cap-height="614"
    bbox="-120 -180 843 893"
    underline-thickness="30"
    underline-position="-40"
    stemh="30"
    stemv="30"
    unicode-range="U+0020-FB02"
  />
<missing-glyph horiz-adv-x="608" 
 />
    <glyph glyph-name="f_f" unicode="ff" horiz-adv-x="453" 
d="M472 651v-30c-13 6 -27 9 -44 9c-50 0 -87 -37 -87 -106v-80h107v-28h-107v-416h-30v416h-187v-416h-30v416h-70v28h70v78c0 76 49 130 117 130c15 0 30 -2 44 -7v-30c-13 6 -27 9 -44 9c-50 0 -87 -37 -87 -106v-74h187v84c0 76 49 130 117 130c15 0 30 -2 44 -7z" />
    <glyph glyph-name=".notdef" horiz-adv-x="608" 
 />
    <glyph glyph-name="space" unicode=" " horiz-adv-x="221" 
 />
    <glyph glyph-name="exclam" unicode="!" horiz-adv-x="208" 
d="M78 25c0 15 12 27 26 27s26 -12 26 -27s-12 -27 -26 -27s-26 12 -26 27zM92 192l-4 422h32l-4 -422h-24z" />
    <glyph glyph-name="quotedbl" unicode="&#x22;" horiz-adv-x="189" 
d="M40 434v180h30v-180h-30zM119 434v180h30v-180h-30z" />
    <glyph glyph-name="numbersign" unicode="#" horiz-adv-x="529" 
d="M460 228l-5 -26h-104l-48 -202h-28l48 202h-168l-48 -202h-27l48 202h-98l6 26h98l37 158h-102l5 26h103l49 202h28l-49 -202h168l49 202h27l-48 -202h98l-6 -26h-98l-38 -158h103zM199 386l-38 -158h168l38 158h-168z" />
    <glyph glyph-name="dollar" unicode="$" horiz-adv-x="453" 
d="M213 -82v98c-88 5 -160 50 -185 128h33c27 -66 87 -100 166 -100c88 0 158 44 158 124c0 54 -27 92 -104 115l-110 32c-79 23 -129 59 -129 136c0 94 80 145 171 147v89h28v-90c91 -8 148 -60 169 -133h-31c-24 65 -75 106 -162 106c-79 0 -146 -41 -146 -119
c0 -68 47 -90 122 -112l92 -27c94 -28 130 -73 130 -144c0 -93 -78 -147 -174 -152v-98h-28z" />
    <glyph glyph-name="percent" unicode="%" horiz-adv-x="605" 
d="M83 0l409 614h30l-409 -614h-30zM68 499c0 -52 42 -94 94 -94c53 0 95 42 95 94c0 53 -42 95 -95 95c-52 0 -94 -42 -94 -95zM565 115c0 -68 -54 -123 -122 -123s-123 55 -123 123s55 122 123 122s122 -54 122 -122zM285 499c0 -68 -55 -122 -123 -122s-122 54 -122 122
s54 123 122 123s123 -55 123 -123zM537 115c0 52 -42 94 -94 94c-53 0 -95 -42 -95 -94c0 -53 42 -95 95 -95c52 0 94 42 94 95z" />
    <glyph glyph-name="ampersand" unicode="&#x26;" horiz-adv-x="545" 
d="M416 473h-30c-9 76 -56 121 -128 121c-71 0 -122 -43 -122 -120c0 -56 35 -91 80 -139l200 -213c32 49 50 111 52 178h30c-2 -73 -24 -143 -62 -198l96 -102h-39l-75 79c-46 -53 -111 -87 -192 -87c-108 0 -189 80 -189 185c0 80 52 148 125 174c-35 38 -57 72 -57 123
c0 90 67 148 153 148c96 0 147 -64 158 -149zM188 323l-7 6c-64 -19 -113 -81 -113 -152c0 -89 68 -156 158 -156c74 0 132 30 173 78z" />
    <glyph glyph-name="quoteright" unicode="&#x2019;" horiz-adv-x="121" 
d="M20 477l45 93c-11 2 -21 10 -21 25s11 27 26 27s26 -12 26 -27c0 -12 -4 -20 -9 -30l-43 -88h-24z" />
    <glyph glyph-name="parenleft" unicode="(" horiz-adv-x="328" 
d="M30 283c0 183 104 324 268 367v-28c-126 -31 -238 -156 -238 -339s112 -308 238 -339v-28c-164 43 -268 184 -268 367z" />
    <glyph glyph-name="parenright" unicode=")" horiz-adv-x="328" 
d="M298 283c0 -183 -104 -324 -268 -367v28c126 31 238 156 238 339s-112 308 -238 339v28c164 -43 268 -184 268 -367z" />
    <glyph glyph-name="asterisk" unicode="*" horiz-adv-x="302" 
d="M128 518l-96 55l12 20l95 -55v110h24v-110l95 55l12 -20l-96 -55l96 -55l-12 -20l-95 55v-110h-24v110l-95 -55l-12 20z" />
    <glyph glyph-name="plus" unicode="+" horiz-adv-x="495" 
d="M233 470h29v-163h163v-29h-163v-163h-29v163h-163v29h163v163z" />
    <glyph glyph-name="comma" unicode="," horiz-adv-x="118" 
d="M7 -97l47 97c-11 2 -21 10 -21 25s11 27 26 27s26 -12 26 -27c0 -12 -4 -20 -9 -30l-45 -92h-24z" />
    <glyph glyph-name="hyphen" unicode="-" horiz-adv-x="321" 
d="M40 244v29h241v-29h-241z" />
    <glyph glyph-name="period" unicode="." horiz-adv-x="118" 
d="M33 25c0 15 12 27 26 27s26 -12 26 -27s-12 -27 -26 -27s-26 12 -26 27z" />
    <glyph glyph-name="slash" unicode="/" horiz-adv-x="287" 
d="M5 -84l248 734h29l-248 -734h-29z" />
    <glyph glyph-name="zero" unicode="0" horiz-adv-x="534" 
d="M267 -8c-134 0 -223 128 -223 315s89 315 223 315s223 -128 223 -315s-89 -315 -223 -315zM267 593c-116 0 -192 -117 -192 -286s76 -286 192 -286s192 117 192 286s-76 286 -192 286z" />
    <glyph glyph-name="one" unicode="1" horiz-adv-x="330" 
d="M234 616v-616h-31v578l-167 -86v33l178 91h20z" />
    <glyph glyph-name="two" unicode="2" horiz-adv-x="434" 
d="M364 457c0 85 -58 136 -142 136c-99 0 -153 -67 -163 -164h-31c11 114 81 193 194 193c105 0 172 -68 172 -165c0 -82 -62 -142 -123 -211l-203 -216h342v-30h-386v22l230 249c65 70 110 118 110 186z" />
    <glyph glyph-name="three" unicode="3" horiz-adv-x="451" 
d="M180 302v29h50c77 0 139 49 139 130c0 78 -60 132 -146 132c-77 0 -137 -49 -155 -131h-31c17 97 90 160 186 160c110 0 178 -67 178 -161c0 -77 -57 -135 -124 -144c70 -7 137 -59 137 -152c0 -94 -69 -173 -187 -173c-109 0 -182 63 -198 166h32
c18 -88 78 -137 166 -137c94 0 155 57 155 144s-71 137 -152 137h-50z" />
    <glyph glyph-name="four" unicode="4" horiz-adv-x="494" 
d="M299 614l-242 -425h256v155h30v-155h121v-30h-121v-159h-30v159h-293v27l245 428h34z" />
    <glyph glyph-name="five" unicode="5" horiz-adv-x="453" 
d="M225 355c-56 0 -98 -28 -125 -62h-30v321h318v-30h-288v-251c25 26 69 51 125 51c110 0 192 -89 192 -197c0 -106 -82 -195 -192 -195c-109 0 -181 59 -203 167h32c22 -91 80 -138 171 -138c92 0 160 74 160 166s-68 168 -160 168z" />
    <glyph glyph-name="six" unicode="6" horiz-adv-x="491" 
d="M92 196c0 -98 71 -175 166 -175c93 0 166 75 166 175c0 99 -73 174 -166 174c-94 0 -166 -75 -166 -174zM440 478h-31c-22 66 -63 115 -148 115c-103 0 -188 -103 -188 -292c0 -15 1 -37 3 -57c17 92 96 155 182 155c109 0 197 -88 197 -203s-88 -204 -197 -204
c-90 0 -147 49 -179 116c-27 57 -35 128 -35 193c0 212 100 321 217 321c100 0 157 -60 179 -144z" />
    <glyph glyph-name="seven" unicode="7" horiz-adv-x="421" 
d="M401 587l-232 -587h-32l232 584h-351v30h383v-27z" />
    <glyph glyph-name="eight" unicode="8" horiz-adv-x="477" 
d="M238 20c103 0 175 67 175 148s-72 148 -175 148s-174 -67 -174 -148s71 -148 174 -148zM238 344c90 0 147 58 147 125s-57 125 -147 125c-89 0 -147 -58 -147 -125s58 -125 147 -125zM238 -8c-120 0 -204 78 -204 176c0 75 51 140 132 163c-65 22 -105 77 -105 138
c0 83 71 153 177 153c107 0 177 -70 177 -153c0 -61 -40 -116 -105 -138c81 -23 133 -88 133 -163c0 -98 -85 -176 -205 -176z" />
    <glyph glyph-name="nine" unicode="9" horiz-adv-x="491" 
d="M399 418c0 98 -71 175 -166 175c-93 0 -166 -75 -166 -175c0 -99 73 -174 166 -174c94 0 166 75 166 174zM51 136h31c22 -66 63 -115 148 -115c103 0 188 103 188 292c0 15 -1 37 -3 57c-17 -92 -96 -155 -182 -155c-109 0 -197 88 -197 203s88 204 197 204
c90 0 147 -49 179 -116c27 -57 35 -128 35 -193c0 -212 -100 -321 -217 -321c-100 0 -157 60 -179 144z" />
    <glyph glyph-name="colon" unicode=":" horiz-adv-x="118" 
d="M33 25c0 15 12 27 26 27s26 -12 26 -27s-12 -27 -26 -27s-26 12 -26 27zM33 365c0 15 12 27 26 27s26 -12 26 -27s-12 -27 -26 -27s-26 12 -26 27z" />
    <glyph glyph-name="semicolon" unicode=";" horiz-adv-x="118" 
d="M7 -97l47 97c-11 2 -21 10 -21 25s11 27 26 27s26 -12 26 -27c0 -12 -4 -20 -9 -30l-45 -92h-24zM33 365c0 15 12 27 26 27s26 -12 26 -27s-12 -27 -26 -27s-26 12 -26 27z" />
    <glyph glyph-name="less" unicode="&#x3c;" horiz-adv-x="379" 
d="M55 279v24l259 149v-32l-228 -129l228 -129v-32z" />
    <glyph glyph-name="equal" unicode="=" 
d="M72 219v29h356v-29h-356zM72 339v29h356v-29h-356z" />
    <glyph glyph-name="greater" unicode="&#x3e;" horiz-adv-x="379" 
d="M324 303v-24l-259 -149v32l228 129l-228 129v32z" />
    <glyph glyph-name="question" unicode="?" horiz-adv-x="415" 
d="M196 25c0 15 12 27 26 27s26 -12 26 -27s-12 -27 -26 -27s-26 12 -26 27zM385 460c0 -73 -56 -126 -104 -180c-31 -35 -42 -56 -44 -87h-28c3 42 19 68 50 104c38 44 96 93 96 163c0 85 -58 133 -142 133c-96 0 -152 -65 -162 -162h-31c11 114 82 191 193 191
c105 0 172 -65 172 -162z" />
    <glyph glyph-name="at" unicode="@" horiz-adv-x="774" 
d="M540 379l-47 -264c-9 -52 18 -64 53 -64c87 0 159 74 159 215c0 151 -120 264 -295 264c-205 0 -341 -157 -341 -346c0 -216 167 -311 342 -311c83 0 159 21 204 44v-29c-49 -22 -122 -42 -204 -42c-189 0 -371 101 -371 338c0 206 149 374 370 374
c193 0 324 -126 324 -292c0 -161 -91 -242 -188 -242c-46 0 -81 23 -84 65c-25 -31 -67 -62 -114 -62c-86 0 -127 64 -127 145c0 107 70 214 179 214c52 0 88 -33 102 -64l10 57h28zM468 133l26 149c-16 44 -49 77 -93 77c-94 0 -152 -99 -152 -187c0 -74 40 -118 99 -118
c51 0 89 34 120 79z" />
    <glyph glyph-name="A" unicode="A" horiz-adv-x="567" 
d="M270 614h27l246 -614h-31l-86 214h-286l-85 -214h-31zM283 571l-131 -327h262z" />
    <glyph glyph-name="B" unicode="B" horiz-adv-x="513" 
d="M344 319c82 -11 132 -75 132 -153c0 -105 -73 -166 -197 -166h-196v614h178c125 0 192 -57 192 -156c0 -86 -54 -124 -109 -139zM114 331h147c103 0 161 42 161 126c0 85 -58 127 -161 127h-147v-253zM114 303v-273h171c105 0 160 54 160 136s-55 137 -160 137h-171z" />
    <glyph glyph-name="C" unicode="C" horiz-adv-x="566" 
d="M40 307c0 196 119 315 267 315c111 0 192 -66 219 -165h-31c-27 83 -95 135 -188 135c-134 0 -235 -107 -235 -285s101 -285 235 -285c93 0 161 52 188 135h31c-27 -99 -108 -165 -219 -165c-148 0 -267 119 -267 315z" />
    <glyph glyph-name="D" unicode="D" horiz-adv-x="600" 
d="M114 30h150c159 0 264 110 264 277s-105 277 -264 277h-150v-554zM83 0v614h179c177 0 298 -120 298 -307s-121 -307 -298 -307h-179z" />
    <glyph glyph-name="E" unicode="E" horiz-adv-x="516" 
d="M83 614h373v-30h-342v-252h310v-30h-310v-272h342v-30h-373v614z" />
    <glyph glyph-name="F" unicode="F" horiz-adv-x="465" 
d="M114 0h-31v614h342v-30h-311v-254h296v-29h-296v-301z" />
    <glyph glyph-name="G" unicode="G" horiz-adv-x="590" 
d="M520 249h-170v28h200v-31c0 -153 -91 -254 -240 -254c-150 0 -270 118 -270 315s121 315 271 315c113 0 196 -66 223 -165h-32c-27 83 -95 135 -191 135c-136 0 -239 -106 -239 -285s102 -285 238 -285c133 0 209 81 210 227z" />
    <glyph glyph-name="H" unicode="H" horiz-adv-x="648" 
d="M534 614h31v-614h-31v302h-420v-302h-31v614h31v-282h420v282z" />
    <glyph glyph-name="I" unicode="I" horiz-adv-x="197" 
d="M114 614v-614h-31v614h31z" />
    <glyph glyph-name="J" unicode="J" horiz-adv-x="467" 
d="M20 166h32c10 -88 70 -144 157 -144c84 0 156 46 156 167v425h31v-425c0 -136 -86 -197 -187 -197s-181 66 -189 174z" />
    <glyph glyph-name="K" unicode="K" horiz-adv-x="530" 
d="M114 614v-332l345 332h41l-292 -281l302 -333h-38l-286 312l-72 -69v-243h-31v614h31z" />
    <glyph glyph-name="L" unicode="L" horiz-adv-x="502" 
d="M83 0v614h31v-584h348v-30h-379z" />
    <glyph glyph-name="M" unicode="M" horiz-adv-x="724" 
d="M370 0h-16l-241 545v-545h-30v614h32l248 -564l248 564h30v-614h-30v545z" />
    <glyph glyph-name="N" unicode="N" horiz-adv-x="611" 
d="M528 614v-614h-17l-398 565v-565h-30v614h30l385 -544v544h30z" />
    <glyph glyph-name="O" unicode="O" horiz-adv-x="614" 
d="M574 307c0 -190 -114 -315 -267 -315c-152 0 -267 125 -267 315s115 315 267 315c153 0 267 -125 267 -315zM542 307c0 169 -96 285 -235 285c-138 0 -235 -116 -235 -285s97 -285 235 -285c139 0 235 116 235 285z" />
    <glyph glyph-name="P" unicode="P" horiz-adv-x="523" 
d="M299 279h-185v-279h-31v614h216c118 0 188 -58 188 -167c0 -111 -70 -168 -188 -168zM456 447c0 88 -55 137 -158 137h-184v-275h184c103 0 158 49 158 138z" />
    <glyph glyph-name="Q" unicode="Q" horiz-adv-x="614" 
d="M506 -28l-51 67c-42 -31 -92 -47 -148 -47c-152 0 -267 125 -267 315s115 315 267 315c153 0 267 -125 267 -315c0 -109 -38 -196 -98 -251l51 -66zM542 307c0 169 -96 285 -235 285c-138 0 -235 -116 -235 -285s97 -285 235 -285c49 0 93 14 129 41l-51 68l21 17l51 -68
c53 50 85 130 85 227z" />
    <glyph glyph-name="R" unicode="R" horiz-adv-x="547" 
d="M287 280h-173v-280h-31v614h210c117 0 187 -58 187 -167c0 -100 -58 -156 -157 -166l188 -281h-36zM114 584v-275h177c103 0 158 50 158 138c0 89 -55 137 -158 137h-177z" />
    <glyph glyph-name="S" unicode="S" horiz-adv-x="489" 
d="M28 142h33c27 -78 97 -121 187 -121c95 0 167 49 167 136c0 58 -30 101 -113 125l-122 36c-86 26 -136 62 -136 145c0 104 88 159 188 159c115 0 185 -60 210 -148h-32c-25 73 -83 119 -178 119c-86 0 -158 -46 -158 -130c0 -74 48 -95 130 -120l102 -31
c102 -31 140 -79 140 -155c0 -105 -87 -165 -198 -165c-106 0 -195 53 -220 150z" />
    <glyph glyph-name="T" unicode="T" horiz-adv-x="558" 
d="M31 584v30h496v-30h-233v-584h-31v584h-232z" />
    <glyph glyph-name="U" unicode="U" horiz-adv-x="604" 
d="M301 -8c-126 0 -230 80 -230 249v373h31v-368c0 -153 88 -225 199 -225s201 72 201 225v368h31v-373c0 -169 -106 -249 -232 -249z" />
    <glyph glyph-name="V" unicode="V" horiz-adv-x="567" 
d="M296 0h-26l-246 614h32l227 -568l228 568h32z" />
    <glyph glyph-name="W" unicode="W" horiz-adv-x="753" 
d="M363 614h26l155 -557l154 557h31l-171 -614h-27l-155 555l-154 -555h-27l-171 614h31l154 -557z" />
    <glyph glyph-name="X" unicode="X" horiz-adv-x="528" 
d="M493 614l-212 -303l218 -311h-35l-201 286l-200 -286h-34l217 310l-212 304h35l195 -279l195 279h34z" />
    <glyph glyph-name="Y" unicode="Y" horiz-adv-x="519" 
d="M260 297l205 317h34l-224 -346v-268h-31v268l-224 346h35z" />
    <glyph glyph-name="Z" unicode="Z" horiz-adv-x="507" 
d="M470 30v-30h-436v26l394 558h-389v30h427v-26l-394 -558h398z" />
    <glyph glyph-name="bracketleft" unicode="[" horiz-adv-x="310" 
d="M112 622v-678h168v-28h-197v734h197v-28h-168z" />
    <glyph glyph-name="backslash" unicode="\" horiz-adv-x="287" 
d="M34 650l248 -734h-29l-248 734h29z" />
    <glyph glyph-name="bracketright" unicode="]" horiz-adv-x="310" 
d="M198 -56v678h-168v28h197v-734h-197v28h168z" />
    <glyph glyph-name="asciicircum" unicode="^" horiz-adv-x="294" 
d="M137 614h20l107 -171h-35l-82 130l-82 -130h-35z" />
    <glyph glyph-name="underscore" unicode="_" horiz-adv-x="341" 
d="M20 -73v31h301v-31h-301z" />
    <glyph glyph-name="quoteleft" unicode="&#x2018;" horiz-adv-x="121" 
d="M101 614l-45 -93c11 -2 21 -10 21 -25s-11 -27 -26 -27s-26 12 -26 27c0 12 4 20 9 30l43 88h24z" />
    <glyph glyph-name="a" unicode="a" horiz-adv-x="431" 
d="M361 0h-30v48c-21 -25 -71 -55 -128 -55c-90 0 -163 52 -163 134s73 134 163 134c57 0 107 -30 128 -55v95c0 74 -44 123 -121 123c-60 0 -101 -26 -120 -87h-31c18 75 77 115 151 115c93 0 151 -58 151 -148v-304zM331 95v64c-15 42 -69 74 -128 74
c-70 0 -133 -36 -133 -106s63 -106 133 -106c59 0 113 32 128 74z" />
    <glyph glyph-name="b" unicode="b" horiz-adv-x="484" 
d="M105 77v-77h-30v650h30v-283c27 44 82 85 148 85c131 0 189 -109 189 -230s-58 -230 -189 -230c-66 0 -121 41 -148 85zM105 324v-204c35 -65 89 -99 148 -99c100 0 158 84 158 201s-58 201 -158 201c-59 0 -113 -34 -148 -99z" />
    <glyph glyph-name="c" unicode="c" horiz-adv-x="438" 
d="M42 222c0 138 76 230 192 230c89 0 146 -54 164 -133h-33c-15 64 -61 105 -131 105c-95 0 -161 -80 -161 -202s66 -202 161 -202c70 0 116 41 131 105h33c-18 -79 -75 -133 -164 -133c-116 0 -192 92 -192 230z" />
    <glyph glyph-name="d" unicode="d" horiz-adv-x="484" 
d="M379 0v77c-27 -44 -82 -85 -148 -85c-131 0 -189 109 -189 230s58 230 189 230c66 0 121 -41 148 -85v283h30v-650h-30zM379 120v204c-35 65 -89 99 -148 99c-100 0 -158 -84 -158 -201s58 -201 158 -201c59 0 113 34 148 99z" />
    <glyph glyph-name="e" unicode="e" horiz-adv-x="449" 
d="M369 125h31c-18 -79 -78 -133 -166 -133c-114 0 -192 92 -192 230c0 132 71 230 191 230c116 0 176 -91 176 -216v-11h-336c0 -126 67 -205 161 -205c69 0 120 41 135 105zM233 424c-89 0 -150 -69 -159 -172h303c-3 87 -45 172 -144 172z" />
    <glyph glyph-name="f" unicode="f" horiz-adv-x="236" 
d="M255 651v-30c-13 6 -27 9 -44 9c-50 0 -87 -37 -87 -106v-80h107v-28h-107v-416h-30v416h-70v28h70v84c0 76 49 130 117 130c15 0 30 -2 44 -7z" />
    <glyph glyph-name="g" unicode="g" horiz-adv-x="479" 
d="M374 29v57c-27 -43 -81 -84 -146 -84c-129 0 -186 106 -186 225s57 225 186 225c65 0 119 -41 146 -84v76h30v-414c0 -136 -70 -209 -178 -209c-98 0 -158 49 -176 128h32c17 -68 71 -100 144 -100c93 0 148 62 148 180zM374 130v194c-34 64 -88 99 -146 99
c-98 0 -155 -81 -155 -196s57 -196 155 -196c58 0 112 35 146 99z" />
    <glyph glyph-name="h" unicode="h" horiz-adv-x="479" 
d="M75 0v650h30v-288c28 48 84 90 151 90c101 0 153 -63 153 -156v-296h-30v292c0 75 -38 131 -125 131c-68 0 -123 -49 -149 -105v-318h-30z" />
    <glyph glyph-name="i" unicode="i" horiz-adv-x="180" 
d="M105 444v-444h-30v444h30zM113 579c0 -13 -9 -24 -23 -24s-23 11 -23 24s9 24 23 24s23 -11 23 -24z" />
    <glyph glyph-name="j" unicode="j" horiz-adv-x="180" 
d="M105 444v-517c0 -72 -40 -105 -99 -105c-7 0 -13 1 -17 2v28c4 -1 10 -2 17 -2c42 0 69 15 69 81v513h30zM113 579c0 -13 -9 -24 -23 -24s-23 11 -23 24s9 24 23 24s23 -11 23 -24z" />
    <glyph glyph-name="k" unicode="k" horiz-adv-x="433" 
d="M375 0l-210 234l-60 -52v-182h-30v650h30v-432l258 226h43l-219 -191l226 -253h-38z" />
    <glyph glyph-name="l" unicode="l" horiz-adv-x="180" 
d="M105 650v-650h-30v650h30z" />
    <glyph glyph-name="m" unicode="m" horiz-adv-x="709" 
d="M366 358c23 47 77 94 141 94c89 0 132 -63 132 -148v-304h-30v300c0 74 -33 123 -104 123c-62 0 -111 -47 -133 -103v-320h-30v300c0 74 -33 123 -104 123c-62 0 -111 -47 -133 -103v-320h-30v444h30v-80c23 47 71 88 135 88c69 0 111 -38 126 -94z" />
    <glyph glyph-name="n" unicode="n" horiz-adv-x="479" 
d="M75 0v444h30v-82c28 48 84 90 151 90c101 0 153 -63 153 -156v-296h-30v292c0 75 -38 131 -125 131c-68 0 -123 -49 -149 -105v-318h-30z" />
    <glyph glyph-name="o" unicode="o" horiz-adv-x="466" 
d="M424 222c0 -137 -76 -230 -191 -230s-191 93 -191 230s76 230 191 230s191 -93 191 -230zM393 222c0 122 -65 202 -160 202s-160 -80 -160 -202s65 -202 160 -202s160 80 160 202z" />
    <glyph glyph-name="p" unicode="p" horiz-adv-x="484" 
d="M105 77v-247h-30v614h30v-77c27 44 82 85 148 85c131 0 189 -109 189 -230s-58 -230 -189 -230c-66 0 -121 41 -148 85zM105 324v-204c35 -65 89 -99 148 -99c100 0 158 84 158 201s-58 201 -158 201c-59 0 -113 -34 -148 -99z" />
    <glyph glyph-name="q" unicode="q" horiz-adv-x="484" 
d="M379 -170v247c-27 -44 -82 -85 -148 -85c-131 0 -189 109 -189 230s58 230 189 230c66 0 121 -41 148 -85v77h30v-614h-30zM379 120v204c-35 65 -89 99 -148 99c-100 0 -158 -84 -158 -201s58 -201 158 -201c59 0 113 34 148 99z" />
    <glyph glyph-name="r" unicode="r" horiz-adv-x="286" 
d="M268 447v-28c-10 3 -20 5 -34 5c-59 0 -104 -45 -129 -105v-319h-30v444h30v-81c22 49 69 89 129 89c15 0 24 -2 34 -5z" />
    <glyph glyph-name="s" unicode="s" horiz-adv-x="387" 
d="M29 110h31c20 -61 70 -90 137 -90c66 0 120 28 120 92c0 44 -29 74 -93 92l-79 23c-63 18 -103 48 -103 109c0 76 67 116 143 116c87 0 143 -45 160 -117h-31c-20 61 -60 89 -129 89c-62 0 -113 -30 -113 -88c0 -50 32 -66 93 -84l72 -21c76 -22 110 -64 110 -119
c0 -77 -64 -120 -150 -120c-84 0 -153 43 -168 118z" />
    <glyph glyph-name="t" unicode="t" horiz-adv-x="283" 
d="M93 96v320h-76v28h76v112h30v-112h120v-28h-120v-317c0 -55 23 -79 68 -79c23 0 44 7 62 16v-30c-17 -8 -41 -14 -62 -14c-60 0 -98 33 -98 104z" />
    <glyph glyph-name="u" unicode="u" horiz-adv-x="477" 
d="M402 444v-444h-30v82c-28 -48 -82 -90 -149 -90c-101 0 -153 63 -153 156v296h30v-292c0 -75 38 -131 125 -131c68 0 121 49 147 105v318h30z" />
    <glyph glyph-name="v" unicode="v" horiz-adv-x="416" 
d="M218 0h-20l-180 444h32l158 -394l158 394h32z" />
    <glyph glyph-name="w" unicode="w" horiz-adv-x="586" 
d="M304 444l116 -385l119 385h29l-136 -444h-21l-118 389l-118 -389h-21l-136 444h29l119 -385l116 385h22z" />
    <glyph glyph-name="x" unicode="x" horiz-adv-x="418" 
d="M385 444l-159 -218l164 -226h-34l-147 202l-148 -202h-33l164 225l-159 219h34l142 -196l143 196h33z" />
    <glyph glyph-name="y" unicode="y" horiz-adv-x="416" 
d="M149 -170h-31l75 183l-175 431h33l157 -394l158 394h32z" />
    <glyph glyph-name="z" unicode="z" horiz-adv-x="403" 
d="M365 28v-28h-327v24l287 392h-284v28h321v-24l-286 -392h289z" />
    <glyph glyph-name="braceleft" unicode="{" horiz-adv-x="330" 
d="M135 218v-223c0 -35 17 -51 47 -51h118v-28h-118c-44 0 -76 32 -76 79v223c0 33 -15 51 -47 51h-39v28h39c32 0 47 17 47 51v223c0 47 32 79 76 79h118v-28h-118c-30 0 -47 -16 -47 -51v-223c0 -29 -15 -52 -37 -65c22 -14 37 -37 37 -65z" />
    <glyph glyph-name="bar" unicode="|" horiz-adv-x="195" 
d="M83 -84v734h29v-734h-29z" />
    <glyph glyph-name="braceright" unicode="}" horiz-adv-x="330" 
d="M195 -5v223c0 28 15 51 37 65c-22 13 -37 36 -37 65v223c0 35 -17 51 -47 51h-118v28h118c44 0 76 -32 76 -79v-223c0 -34 15 -51 47 -51h39v-28h-39c-32 0 -47 -18 -47 -51v-223c0 -47 -32 -79 -76 -79h-118v28h118c30 0 47 16 47 51z" />
    <glyph glyph-name="asciitilde" unicode="~" horiz-adv-x="397" 
d="M325 324h32c0 -61 -30 -102 -84 -102c-66 0 -97 75 -147 75c-35 0 -54 -29 -54 -71h-32c0 61 31 102 85 102c65 0 95 -76 147 -76c35 0 53 29 53 72z" />
    <glyph glyph-name="exclamdown" unicode="&#xa1;" horiz-adv-x="208" 
d="M78 493c0 15 12 27 26 27s26 -12 26 -27s-12 -27 -26 -27s-26 12 -26 27zM88 -96l4 422h24l4 -422h-32z" />
    <glyph glyph-name="cent" unicode="&#xa2;" horiz-adv-x="438" 
d="M42 232c0 134 72 225 183 230v87h28v-88c78 -7 128 -59 145 -132h-33c-15 64 -61 105 -131 105c-95 0 -161 -80 -161 -202s66 -202 161 -202c70 0 116 41 131 105h33c-17 -73 -67 -125 -145 -132v-85h-28v84c-111 4 -183 95 -183 230z" />
    <glyph glyph-name="sterling" unicode="&#xa3;" horiz-adv-x="480" 
d="M156 422v-106h180v-26h-180v-169c0 -35 -10 -71 -25 -91h315v-30h-414v30h68c15 24 26 47 26 91v169h-94v26h94v106c0 128 69 200 168 200c88 0 140 -50 156 -124h-32c-14 60 -54 95 -124 95c-80 0 -138 -57 -138 -171z" />
    <glyph glyph-name="fraction" unicode="&#x2044;" horiz-adv-x="199" 
d="M319 614l-409 -614h-30l409 614h30z" />
    <glyph glyph-name="yen" unicode="&#xa5;" horiz-adv-x="503" 
d="M79 261v27h157l-204 326h35l185 -298l185 298h34l-204 -326h157v-27h-157v-83h157v-27h-157v-151h-31v151h-157v27h157v83h-157z" />
    <glyph glyph-name="florin" unicode="&#x192;" horiz-adv-x="369" 
d="M65 306v26h76l29 160c13 74 54 130 122 130c20 0 40 -4 57 -12v-30c-18 9 -35 14 -57 14c-50 0 -80 -40 -92 -106l-28 -156h108v-26h-112l-63 -355c-12 -67 -42 -121 -110 -121c-20 0 -38 4 -55 12v30c18 -9 33 -14 55 -14c50 0 70 40 80 97l62 351h-72z" />
    <glyph glyph-name="section" unicode="&#xa7;" horiz-adv-x="435" 
d="M338 84c12 -18 19 -40 19 -69c0 -76 -63 -118 -139 -118c-87 0 -143 45 -160 117h31c20 -61 60 -89 129 -89c62 0 109 32 109 90c0 46 -15 60 -53 87l-160 111c-50 34 -84 63 -84 116c0 50 30 85 68 103c-12 18 -20 43 -20 72c0 76 63 118 139 118c87 0 143 -45 160 -117
h-31c-20 61 -60 89 -129 89c-62 0 -109 -32 -109 -90c0 -46 15 -60 53 -87l160 -111c50 -34 84 -63 84 -116c0 -50 -29 -88 -67 -106zM132 238l187 -130c30 14 55 41 55 82s-30 63 -71 91l-187 130c-30 -14 -55 -41 -55 -82s30 -63 71 -91z" />
    <glyph glyph-name="quotesingle" unicode="'" horiz-adv-x="110" 
d="M40 434v180h30v-180h-30z" />
    <glyph glyph-name="quotedblleft" unicode="&#x201c;" horiz-adv-x="222" 
d="M101 614l-45 -93c11 -2 21 -10 21 -25s-11 -27 -26 -27s-26 12 -26 27c0 12 4 20 9 30l43 88h24zM202 614l-45 -93c11 -2 21 -10 21 -25s-11 -27 -26 -27s-26 12 -26 27c0 12 4 20 9 30l43 88h24z" />
    <glyph glyph-name="guillemotleft" unicode="&#xab;" horiz-adv-x="282" 
d="M150 94h-33l-92 128l92 128h33l-92 -128zM257 94h-33l-92 128l92 128h33l-92 -128z" />
    <glyph glyph-name="guilsinglleft" unicode="&#x2039;" horiz-adv-x="175" 
d="M150 94h-33l-92 128l92 128h33l-92 -128z" />
    <glyph glyph-name="guilsinglright" unicode="&#x203a;" horiz-adv-x="175" 
d="M58 94h-33l92 128l-92 128h33l92 -128z" />
    <glyph glyph-name="fi" unicode="&#xfb01;" horiz-adv-x="416" 
d="M255 651v-30c-13 6 -27 9 -44 9c-50 0 -87 -37 -87 -106v-80h107v-28h-107v-416h-30v416h-70v28h70v84c0 76 49 130 117 130c15 0 30 -2 44 -7zM341 444v-444h-30v444h30zM349 579c0 -13 -9 -24 -23 -24s-23 11 -23 24s9 24 23 24s23 -11 23 -24z" />
    <glyph glyph-name="fl" unicode="&#xfb02;" horiz-adv-x="416" 
d="M255 651v-30c-13 6 -27 9 -44 9c-50 0 -87 -37 -87 -106v-80h107v-28h-107v-416h-30v416h-70v28h70v84c0 76 49 130 117 130c15 0 30 -2 44 -7zM341 650v-650h-30v650h30z" />
    <glyph glyph-name="endash" unicode="&#x2013;" horiz-adv-x="475" 
d="M40 245v27h395v-27h-395z" />
    <glyph glyph-name="dagger" unicode="&#x2020;" horiz-adv-x="288" 
d="M31 532v26h99v92h28v-92h99v-26h-99v-202h-28v202h-99z" />
    <glyph glyph-name="daggerdbl" unicode="&#x2021;" horiz-adv-x="288" 
d="M31 530v26h99v94h28v-94h99v-26h-99v-80h99v-26h-99v-94h-28v94h-99v26h99v80h-99z" />
    <glyph glyph-name="periodcentered" unicode="&#xb7;" horiz-adv-x="132" 
d="M40 260c0 15 12 27 26 27s26 -12 26 -27s-12 -27 -26 -27s-26 12 -26 27z" />
    <glyph glyph-name="paragraph" unicode="&#xb6;" horiz-adv-x="415" 
d="M303 -90v704h29v-704h-29zM208 -90v456c-89 0 -188 37 -188 124s99 124 188 124h29v-704h-29z" />
    <glyph glyph-name="bullet" unicode="&#x2022;" horiz-adv-x="325" 
d="M285 259c0 -71 -54 -122 -123 -122c-68 0 -122 51 -122 122s54 122 122 122c69 0 123 -51 123 -122z" />
    <glyph glyph-name="quotesinglbase" unicode="&#x201a;" horiz-adv-x="101" 
d="M20 -94l45 93c-11 2 -21 10 -21 25s11 27 26 27s26 -12 26 -27c0 -12 -4 -20 -9 -30l-43 -88h-24z" />
    <glyph glyph-name="quotedblbase" unicode="&#x201e;" horiz-adv-x="222" 
d="M20 -94l45 93c-11 2 -21 10 -21 25s11 27 26 27s26 -12 26 -27c0 -12 -4 -20 -9 -30l-43 -88h-24zM121 -94l45 93c-11 2 -21 10 -21 25s11 27 26 27s26 -12 26 -27c0 -12 -4 -20 -9 -30l-43 -88h-24z" />
    <glyph glyph-name="quotedblright" unicode="&#x201d;" horiz-adv-x="222" 
d="M20 477l45 93c-11 2 -21 10 -21 25s11 27 26 27s26 -12 26 -27c0 -12 -4 -20 -9 -30l-43 -88h-24zM121 477l45 93c-11 2 -21 10 -21 25s11 27 26 27s26 -12 26 -27c0 -12 -4 -20 -9 -30l-43 -88h-24z" />
    <glyph glyph-name="guillemotright" unicode="&#xbb;" horiz-adv-x="282" 
d="M165 94h-33l92 128l-92 128h33l92 -128zM58 94h-33l92 128l-92 128h33l92 -128z" />
    <glyph glyph-name="ellipsis" unicode="&#x2026;" horiz-adv-x="394" 
d="M33 25c0 15 12 27 26 27s26 -12 26 -27s-12 -27 -26 -27s-26 12 -26 27zM171 25c0 15 12 27 26 27s26 -12 26 -27s-12 -27 -26 -27s-26 12 -26 27zM309 25c0 15 12 27 26 27s26 -12 26 -27s-12 -27 -26 -27s-26 12 -26 27z" />
    <glyph glyph-name="perthousand" unicode="&#x2030;" horiz-adv-x="883" 
d="M83 0l409 614h30l-409 -614h-30zM40 499c0 68 54 123 122 123s123 -55 123 -123s-55 -122 -123 -122s-122 54 -122 122zM565 115c0 -68 -54 -123 -122 -123s-123 55 -123 123s55 122 123 122s122 -54 122 -122zM537 115c0 52 -42 94 -94 94c-53 0 -95 -42 -95 -94
c0 -53 42 -95 95 -95c52 0 94 42 94 95zM843 115c0 -68 -54 -123 -122 -123s-123 55 -123 123s55 122 123 122s122 -54 122 -122zM815 115c0 52 -42 94 -94 94c-53 0 -95 -42 -95 -94c0 -53 42 -95 95 -95c52 0 94 42 94 95zM68 499c0 -52 42 -94 94 -94c53 0 95 42 95 94
c0 53 -42 95 -95 95c-52 0 -94 -42 -94 -95z" />
    <glyph glyph-name="questiondown" unicode="&#xbf;" horiz-adv-x="415" 
d="M219 493c0 -15 -12 -27 -26 -27s-26 12 -26 27s12 27 26 27s26 -12 26 -27zM30 58c0 73 56 126 104 180c31 35 42 56 44 87h28c-3 -42 -19 -68 -50 -104c-38 -44 -96 -93 -96 -163c0 -85 58 -133 142 -133c96 0 152 65 162 162h31c-11 -114 -82 -191 -193 -191
c-105 0 -172 65 -172 162z" />
    <glyph glyph-name="grave" unicode="`" 
d="M309 523h-33l-85 127h33z" />
    <glyph glyph-name="acute" unicode="&#xb4;" 
d="M224 523h-33l85 127h33z" />
    <glyph glyph-name="circumflex" unicode="&#x2c6;" 
d="M263 643l91 -127h-31l-73 103l-73 -103h-31l91 127h26z" />
    <glyph glyph-name="tilde" unicode="&#x2dc;" 
d="M342 619h26c0 -58 -22 -95 -63 -95c-53 0 -73 70 -110 70c-25 0 -38 -27 -38 -67h-26c0 57 22 95 63 95c53 0 72 -70 110 -70c25 0 38 27 38 67z" />
    <glyph glyph-name="macron" unicode="&#xaf;" 
d="M153 542v27h193v-27h-193z" />
    <glyph glyph-name="breve" unicode="&#x2d8;" 
d="M250 510c-53 0 -93 40 -93 114h27c0 -57 28 -89 66 -89s66 32 66 89h27c0 -74 -40 -114 -93 -114z" />
    <glyph glyph-name="dotaccent" unicode="&#x2d9;" 
d="M273 579c0 -13 -9 -24 -23 -24s-23 11 -23 24s9 24 23 24s23 -11 23 -24z" />
    <glyph glyph-name="dieresis" unicode="&#xa8;" 
d="M170 570c0 13 10 23 23 23s23 -10 23 -23s-10 -23 -23 -23s-23 10 -23 23zM284 570c0 13 10 23 23 23s23 -10 23 -23s-10 -23 -23 -23s-23 10 -23 23z" />
    <glyph glyph-name="ring" unicode="&#x2da;" 
d="M327 580c0 -43 -34 -77 -77 -77s-77 34 -77 77s34 77 77 77s77 -34 77 -77zM302 580c0 29 -23 52 -52 52s-52 -23 -52 -52s23 -52 52 -52s52 23 52 52z" />
    <glyph glyph-name="cedilla" unicode="&#xb8;" 
d="M235 -170h-29l55 124h29z" />
    <glyph glyph-name="hungarumlaut" unicode="&#x2dd;" 
d="M174 523h-31l79 127h31zM277 523h-31l79 127h31z" />
    <glyph glyph-name="ogonek" unicode="&#x2db;" 
d="M274 3h28c-44 -77 -52 -101 -52 -127c0 -21 11 -31 26 -31s25 5 37 14v-25c-12 -9 -24 -13 -39 -13c-27 0 -51 16 -51 55c0 29 13 58 51 127z" />
    <glyph glyph-name="caron" unicode="&#x2c7;" 
d="M354 645l-91 -127h-26l-91 127h31l73 -102l73 102h31z" />
    <glyph glyph-name="emdash" unicode="&#x2014;" horiz-adv-x="846" 
d="M40 245v27h766v-27h-766z" />
    <glyph glyph-name="AE" unicode="&#xc6;" horiz-adv-x="855" 
d="M417 614h378v-30h-332v-252h300v-30h-300v-272h332v-30h-363v214h-238l-137 -214h-33zM432 583l-218 -339h218v339z" />
    <glyph glyph-name="ordfeminine" unicode="&#xaa;" horiz-adv-x="278" 
d="M239 321h-28v29c-13 -15 -46 -34 -83 -34c-60 0 -108 35 -108 91c0 54 48 90 109 90c36 0 68 -18 82 -33v55c0 46 -27 76 -76 76c-37 0 -62 -16 -74 -52h-29c12 50 52 78 104 78c64 0 103 -39 103 -100v-200zM211 387v39c-10 26 -44 45 -80 45c-43 0 -83 -21 -83 -64
s40 -65 83 -65c36 0 70 19 80 45z" />
    <glyph glyph-name="Lslash" unicode="&#x141;" horiz-adv-x="509" 
d="M30 261v31l60 24v298h31v-286l159 63v-31l-159 -63v-267h348v-30h-379v285z" />
    <glyph glyph-name="Oslash" unicode="&#xd8;" horiz-adv-x="624" 
d="M45 0l70 85c-44 55 -70 131 -70 222c0 190 115 315 267 315c72 0 135 -28 182 -77l56 69l22 -18l-60 -72c42 -54 67 -129 67 -217c0 -190 -114 -315 -267 -315c-70 0 -131 26 -178 72l-67 -82zM77 307c0 -80 21 -148 58 -197l339 412c-40 44 -96 70 -162 70
c-138 0 -235 -116 -235 -285zM547 307c0 77 -20 143 -55 192l-338 -411c40 -42 94 -66 158 -66c139 0 235 116 235 285z" />
    <glyph glyph-name="OE" unicode="&#x152;" horiz-adv-x="847" 
d="M787 614v-30h-332v-252h300v-30h-300v-272h332v-30h-449c-177 0 -298 120 -298 307s121 307 298 307h449zM336 30h88v554h-88c-159 0 -264 -110 -264 -277s105 -277 264 -277z" />
    <glyph glyph-name="ordmasculine" unicode="&#xba;" horiz-adv-x="300" 
d="M279 468c0 -90 -51 -153 -129 -153s-130 63 -130 153c0 91 52 153 130 153s129 -62 129 -153zM250 468c0 76 -40 127 -100 127s-100 -51 -100 -127s40 -126 100 -126s100 50 100 126z" />
    <glyph glyph-name="ae" unicode="&#xe6;" horiz-adv-x="731" 
d="M181 20c78 0 127 57 146 119v86h-129c-70 0 -133 -35 -133 -103c0 -67 51 -102 116 -102zM651 125h31c-18 -79 -78 -133 -166 -133c-78 0 -139 46 -170 118c-24 -56 -76 -117 -165 -117c-85 0 -146 50 -146 129c0 80 73 130 163 130h129v49c0 74 -44 123 -121 123
c-60 0 -101 -26 -120 -87h-31c18 75 77 115 151 115c78 0 131 -44 145 -111c31 65 86 111 164 111c116 0 176 -91 176 -216v-11h-336c0 -129 67 -205 161 -205c69 0 120 41 135 105zM515 424c-90 0 -151 -69 -159 -172h303c-3 87 -45 172 -144 172z" />
    <glyph glyph-name="dotlessi" unicode="&#x131;" horiz-adv-x="180" 
d="M105 444v-444h-30v444h30z" />
    <glyph glyph-name="lslash" unicode="&#x142;" horiz-adv-x="220" 
d="M125 650v-249l70 51v-34l-70 -51v-367h-30v347l-65 -47v34l65 47v269h30z" />
    <glyph glyph-name="oslash" unicode="&#xf8;" horiz-adv-x="476" 
d="M46 -2l49 63c-31 40 -48 95 -48 161c0 137 76 230 191 230c50 0 93 -18 125 -50l43 55l21 -15l-47 -59c31 -40 49 -96 49 -161c0 -137 -76 -230 -191 -230c-51 0 -93 18 -126 49l-45 -58zM78 222c0 -56 13 -103 36 -137l231 294c-27 29 -64 45 -107 45
c-95 0 -160 -80 -160 -202zM398 222c0 55 -13 102 -37 136l-230 -294c27 -28 63 -44 107 -44c95 0 160 80 160 202z" />
    <glyph glyph-name="oe" unicode="&#x153;" horiz-adv-x="797" 
d="M582 -8c-83 0 -146 49 -175 129c-29 -78 -92 -129 -174 -129c-115 0 -191 93 -191 230s76 230 191 230c83 0 146 -53 174 -133c27 79 87 133 174 133c116 0 176 -91 176 -216v-11h-336c0 -126 67 -205 161 -205c69 0 120 41 135 105h31c-18 -79 -78 -133 -166 -133z
M393 222c0 122 -65 202 -160 202s-160 -80 -160 -202s65 -202 160 -202s160 80 160 202zM581 424c-90 0 -150 -70 -159 -172h303c-3 87 -45 172 -144 172z" />
    <glyph glyph-name="germandbls" unicode="&#xdf;" horiz-adv-x="494" 
d="M287 372c79 -7 164 -68 164 -185c0 -121 -76 -195 -182 -195c-39 0 -74 11 -100 28v32c34 -25 64 -32 100 -32c91 0 151 61 151 167c0 108 -79 169 -186 169h-44v28h44c75 0 130 58 130 129c0 65 -44 117 -121 117c-90 0 -138 -66 -138 -161v-469h-30v470
c0 104 55 188 168 188c94 0 152 -66 152 -145c0 -77 -51 -123 -108 -141z" />
    <glyph glyph-name="onesuperior" unicode="&#xb9;" horiz-adv-x="196" 
d="M132 616v-329h-29v293l-85 -44v31l96 49h18z" />
    <glyph glyph-name="trademark" unicode="&#x2122;" horiz-adv-x="565" 
d="M15 590v24h206v-24h-89v-230h-28v230h-89zM403 360h-22l-84 203v-203h-28v254h33l91 -218l90 218h32v-254h-28v203z" />
    <glyph glyph-name="Eth" unicode="&#xd0;" horiz-adv-x="612" 
d="M35 304v28h60v282h179c177 0 298 -120 298 -307s-121 -307 -298 -307h-179v304h-60zM126 30h150c159 0 264 110 264 277s-105 277 -264 277h-150v-252h135v-28h-135v-274z" />
    <glyph glyph-name="onehalf" unicode="&#xbd;" horiz-adv-x="632" 
d="M518 614l-409 -614h-30l409 614h30zM166 616v-329h-29v293l-85 -44v31l96 49h18zM545 242c0 39 -26 64 -66 64c-46 0 -71 -32 -75 -77h-30c6 61 45 104 105 104c58 0 95 -37 95 -91c0 -42 -33 -75 -66 -112l-95 -103h165v-27h-205v20l113 125c34 37 59 63 59 97z" />
    <glyph glyph-name="plusminus" unicode="&#xb1;" horiz-adv-x="495" 
d="M233 478h29v-123h163v-29h-163v-123h-29v123h-163v29h163v123zM70 116v29h355v-29h-355z" />
    <glyph glyph-name="Thorn" unicode="&#xde;" horiz-adv-x="523" 
d="M299 147h-185v-147h-31v614h31v-132h185c118 0 188 -58 188 -167c0 -111 -70 -168 -188 -168zM456 315c0 88 -55 137 -158 137h-184v-275h184c103 0 158 49 158 138z" />
    <glyph glyph-name="onequarter" unicode="&#xbc;" horiz-adv-x="626" 
d="M518 614l-409 -614h-30l409 614h30zM166 616v-329h-29v293l-85 -44v31l96 49h18zM492 328l-126 -223h121v81h28v-81h61v-26h-61v-79h-28v79h-154v23l129 226h30z" />
    <glyph glyph-name="divide" unicode="&#xf7;" horiz-adv-x="495" 
d="M70 278v29h355v-29h-355zM221 440c0 15 12 27 26 27s26 -12 26 -27s-12 -27 -26 -27s-26 12 -26 27zM221 146c0 15 12 27 26 27s26 -12 26 -27s-12 -27 -26 -27s-26 12 -26 27z" />
    <glyph glyph-name="degree" unicode="&#xb0;" horiz-adv-x="302" 
d="M73 515c0 -44 35 -79 78 -79s78 35 78 79s-35 79 -78 79s-78 -35 -78 -79zM257 515c0 -60 -47 -107 -106 -107s-106 47 -106 107s47 107 106 107s106 -47 106 -107z" />
    <glyph glyph-name="thorn" unicode="&#xfe;" horiz-adv-x="484" 
d="M105 77v-247h-30v820h30v-283c27 44 82 85 148 85c131 0 189 -109 189 -230s-58 -230 -189 -230c-66 0 -121 41 -148 85zM105 324v-204c35 -65 89 -99 148 -99c100 0 158 84 158 201s-58 201 -158 201c-59 0 -113 -34 -148 -99z" />
    <glyph glyph-name="threequarters" unicode="&#xbe;" horiz-adv-x="669" 
d="M561 614l-409 -614h-30l409 614h30zM133 442v25h25c37 0 67 23 67 63c0 36 -28 62 -69 62c-38 0 -66 -25 -73 -64h-29c8 54 48 91 102 91c61 0 98 -37 98 -88c0 -39 -26 -69 -59 -76c37 -7 66 -36 66 -79c0 -52 -38 -95 -103 -95c-62 0 -102 36 -110 94h31
c7 -42 35 -67 79 -67s73 27 73 68s-33 66 -73 66h-25zM535 328l-126 -223h121v81h28v-81h61v-26h-61v-79h-28v79h-154v23l129 226h30z" />
    <glyph glyph-name="twosuperior" unicode="&#xb2;" horiz-adv-x="253" 
d="M194 529c0 39 -26 64 -66 64c-46 0 -71 -32 -75 -77h-30c6 61 45 104 105 104c58 0 95 -37 95 -91c0 -42 -33 -75 -66 -112l-95 -103h165v-27h-205v20l113 125c34 37 59 63 59 97z" />
    <glyph glyph-name="registered" unicode="&#xae;" horiz-adv-x="422" 
d="M392 439c0 -106 -82 -183 -181 -183s-181 77 -181 183s82 183 181 183s181 -77 181 -183zM366 439c0 91 -70 157 -155 157s-155 -66 -155 -157s70 -157 155 -157s155 66 155 157zM207 424h-33v-78h-27v192h74c39 0 65 -21 65 -57c0 -31 -20 -51 -49 -56l56 -79h-32z
M259 481c0 17 -13 31 -35 31h-50v-62h50c22 0 35 14 35 31z" />
    <glyph glyph-name="minus" unicode="&#x2212;" horiz-adv-x="495" 
d="M70 278v29h355v-29h-355z" />
    <glyph glyph-name="eth" unicode="&#xf0;" horiz-adv-x="466" 
d="M137 506l-9 24l111 36c-27 27 -59 54 -96 80v4h37c31 -22 61 -47 88 -74l78 26l8 -24l-67 -22c83 -92 137 -209 137 -334c0 -137 -76 -230 -191 -230s-191 93 -191 230s76 230 191 230c57 0 100 -27 132 -68h2c-21 47 -55 105 -109 162zM393 222c0 122 -65 202 -160 202
s-160 -80 -160 -202s65 -202 160 -202s160 80 160 202z" />
    <glyph glyph-name="multiply" unicode="&#xd7;" horiz-adv-x="422" 
d="M192 290l-121 122l20 19l120 -122l120 122l20 -19l-120 -122l120 -122l-20 -19l-120 121l-120 -121l-20 19z" />
    <glyph glyph-name="copyright" unicode="&#xa9;" horiz-adv-x="710" 
d="M670 307c0 -183 -142 -315 -315 -315s-315 132 -315 315s142 315 315 315s315 -132 315 -315zM644 307c0 168 -130 289 -289 289s-289 -121 -289 -289s130 -289 289 -289s289 121 289 289zM188 309c0 123 76 199 172 199c75 0 128 -44 145 -111h-31
c-17 51 -57 82 -114 82c-81 0 -141 -65 -141 -170s60 -170 141 -170c57 0 97 31 114 82h31c-17 -67 -70 -111 -145 -111c-96 0 -172 76 -172 199z" />
    <glyph glyph-name="Aacute" unicode="&#xc1;" horiz-adv-x="567" 
d="M270 614h27l246 -614h-31l-86 214h-286l-85 -214h-31zM283 571l-131 -327h262zM303 663h-33l85 117h33z" />
    <glyph glyph-name="Acircumflex" unicode="&#xc2;" horiz-adv-x="567" 
d="M270 614h27l246 -614h-31l-86 214h-286l-85 -214h-31zM283 571l-131 -327h262zM296 783l91 -117h-31l-73 92l-73 -92h-31l91 117h26z" />
    <glyph glyph-name="Adieresis" unicode="&#xc4;" horiz-adv-x="567" 
d="M270 614h27l246 -614h-31l-86 214h-286l-85 -214h-31zM283 571l-131 -327h262zM203 710c0 13 10 23 23 23s23 -10 23 -23s-10 -23 -23 -23s-23 10 -23 23zM317 710c0 13 10 23 23 23s23 -10 23 -23s-10 -23 -23 -23s-23 10 -23 23z" />
    <glyph glyph-name="Agrave" unicode="&#xc0;" horiz-adv-x="567" 
d="M270 614h27l246 -614h-31l-86 214h-286l-85 -214h-31zM283 571l-131 -327h262zM296 663h-33l-85 117h33z" />
    <glyph glyph-name="Aring" unicode="&#xc5;" horiz-adv-x="567" 
d="M270 614h27l246 -614h-31l-86 214h-286l-85 -214h-31zM283 571l-131 -327h262zM360 724c0 -43 -34 -77 -77 -77s-77 34 -77 77s34 77 77 77s77 -34 77 -77zM335 724c0 29 -23 52 -52 52s-52 -23 -52 -52s23 -52 52 -52s52 23 52 52z" />
    <glyph glyph-name="Atilde" unicode="&#xc3;" horiz-adv-x="567" 
d="M270 614h27l246 -614h-31l-86 214h-286l-85 -214h-31zM283 571l-131 -327h262zM376 759h26c0 -58 -22 -95 -63 -95c-53 0 -73 70 -110 70c-25 0 -38 -27 -38 -67h-26c0 57 22 95 63 95c53 0 72 -70 110 -70c25 0 38 27 38 67z" />
    <glyph glyph-name="Ccedilla" unicode="&#xc7;" horiz-adv-x="566" 
d="M271 -170h-29l55 124h29zM40 307c0 196 119 315 267 315c111 0 192 -66 219 -165h-31c-27 83 -95 135 -188 135c-134 0 -235 -107 -235 -285s101 -285 235 -285c93 0 161 52 188 135h31c-27 -99 -108 -165 -219 -165c-148 0 -267 119 -267 315z" />
    <glyph glyph-name="Eacute" unicode="&#xc9;" horiz-adv-x="516" 
d="M83 614h373v-30h-342v-252h310v-30h-310v-272h342v-30h-373v614zM287 663h-33l85 117h33z" />
    <glyph glyph-name="Ecircumflex" unicode="&#xca;" horiz-adv-x="516" 
d="M83 614h373v-30h-342v-252h310v-30h-310v-272h342v-30h-373v614zM288 783l91 -117h-31l-73 92l-73 -92h-31l91 117h26z" />
    <glyph glyph-name="Edieresis" unicode="&#xcb;" horiz-adv-x="516" 
d="M83 614h373v-30h-342v-252h310v-30h-310v-272h342v-30h-373v614zM195 710c0 13 10 23 23 23s23 -10 23 -23s-10 -23 -23 -23s-23 10 -23 23zM309 710c0 13 10 23 23 23s23 -10 23 -23s-10 -23 -23 -23s-23 10 -23 23z" />
    <glyph glyph-name="Egrave" unicode="&#xc8;" horiz-adv-x="516" 
d="M83 614h373v-30h-342v-252h310v-30h-310v-272h342v-30h-373v614zM292 663h-33l-85 117h33z" />
    <glyph glyph-name="Iacute" unicode="&#xcd;" horiz-adv-x="197" 
d="M114 614v-614h-31v614h31zM110 663h-33l85 117h33z" />
    <glyph glyph-name="Icircumflex" unicode="&#xce;" horiz-adv-x="197" 
d="M114 614v-614h-31v614h31zM111 783l91 -117h-31l-73 92l-73 -92h-31l91 117h26z" />
    <glyph glyph-name="Idieresis" unicode="&#xcf;" horiz-adv-x="197" 
d="M114 614v-614h-31v614h31zM18 710c0 13 10 23 23 23s23 -10 23 -23s-10 -23 -23 -23s-23 10 -23 23zM132 710c0 13 10 23 23 23s23 -10 23 -23s-10 -23 -23 -23s-23 10 -23 23z" />
    <glyph glyph-name="Igrave" unicode="&#xcc;" horiz-adv-x="197" 
d="M114 614v-614h-31v614h31zM115 663h-33l-85 117h33z" />
    <glyph glyph-name="Ntilde" unicode="&#xd1;" horiz-adv-x="611" 
d="M528 614v-614h-17l-398 565v-565h-30v614h30l385 -544v544h30zM398 759h26c0 -58 -22 -95 -63 -95c-53 0 -73 70 -110 70c-25 0 -38 -27 -38 -67h-26c0 57 22 95 63 95c53 0 72 -70 110 -70c25 0 38 27 38 67z" />
    <glyph glyph-name="Oacute" unicode="&#xd3;" horiz-adv-x="614" 
d="M574 307c0 -190 -114 -315 -267 -315c-152 0 -267 125 -267 315s115 315 267 315c153 0 267 -125 267 -315zM542 307c0 169 -96 285 -235 285c-138 0 -235 -116 -235 -285s97 -285 235 -285c139 0 235 116 235 285zM319 663h-33l85 117h33z" />
    <glyph glyph-name="Ocircumflex" unicode="&#xd4;" horiz-adv-x="614" 
d="M574 307c0 -190 -114 -315 -267 -315c-152 0 -267 125 -267 315s115 315 267 315c153 0 267 -125 267 -315zM542 307c0 169 -96 285 -235 285c-138 0 -235 -116 -235 -285s97 -285 235 -285c139 0 235 116 235 285zM320 783l91 -117h-31l-73 92l-73 -92h-31l91 117h26z
" />
    <glyph glyph-name="Odieresis" unicode="&#xd6;" horiz-adv-x="614" 
d="M574 307c0 -190 -114 -315 -267 -315c-152 0 -267 125 -267 315s115 315 267 315c153 0 267 -125 267 -315zM542 307c0 169 -96 285 -235 285c-138 0 -235 -116 -235 -285s97 -285 235 -285c139 0 235 116 235 285zM227 710c0 13 10 23 23 23s23 -10 23 -23
s-10 -23 -23 -23s-23 10 -23 23zM341 710c0 13 10 23 23 23s23 -10 23 -23s-10 -23 -23 -23s-23 10 -23 23z" />
    <glyph glyph-name="Ograve" unicode="&#xd2;" horiz-adv-x="614" 
d="M574 307c0 -190 -114 -315 -267 -315c-152 0 -267 125 -267 315s115 315 267 315c153 0 267 -125 267 -315zM542 307c0 169 -96 285 -235 285c-138 0 -235 -116 -235 -285s97 -285 235 -285c139 0 235 116 235 285zM324 663h-33l-85 117h33z" />
    <glyph glyph-name="Otilde" unicode="&#xd5;" horiz-adv-x="614" 
d="M574 307c0 -190 -114 -315 -267 -315c-152 0 -267 125 -267 315s115 315 267 315c153 0 267 -125 267 -315zM542 307c0 169 -96 285 -235 285c-138 0 -235 -116 -235 -285s97 -285 235 -285c139 0 235 116 235 285zM400 759h26c0 -58 -22 -95 -63 -95
c-53 0 -73 70 -110 70c-25 0 -38 -27 -38 -67h-26c0 57 22 95 63 95c53 0 72 -70 110 -70c25 0 38 27 38 67z" />
    <glyph glyph-name="Scaron" unicode="&#x160;" horiz-adv-x="489" 
d="M223 656l-91 117h31l73 -92l73 92h31l-91 -117h-26zM28 142h33c27 -78 97 -121 187 -121c95 0 167 49 167 136c0 58 -30 101 -113 125l-122 36c-86 26 -136 62 -136 145c0 104 88 159 188 159c115 0 185 -60 210 -148h-32c-25 73 -83 119 -178 119
c-86 0 -158 -46 -158 -130c0 -74 48 -95 130 -120l102 -31c102 -31 140 -79 140 -155c0 -105 -87 -165 -198 -165c-106 0 -195 53 -220 150z" />
    <glyph glyph-name="Uacute" unicode="&#xda;" horiz-adv-x="604" 
d="M301 -8c-126 0 -230 80 -230 249v373h31v-368c0 -153 88 -225 199 -225s201 72 201 225v368h31v-373c0 -169 -106 -249 -232 -249zM314 663h-33l85 117h33z" />
    <glyph glyph-name="Ucircumflex" unicode="&#xdb;" horiz-adv-x="604" 
d="M301 -8c-126 0 -230 80 -230 249v373h31v-368c0 -153 88 -225 199 -225s201 72 201 225v368h31v-373c0 -169 -106 -249 -232 -249zM315 783l91 -117h-31l-73 92l-73 -92h-31l91 117h26z" />
    <glyph glyph-name="Udieresis" unicode="&#xdc;" horiz-adv-x="604" 
d="M301 -8c-126 0 -230 80 -230 249v373h31v-368c0 -153 88 -225 199 -225s201 72 201 225v368h31v-373c0 -169 -106 -249 -232 -249zM222 710c0 13 10 23 23 23s23 -10 23 -23s-10 -23 -23 -23s-23 10 -23 23zM336 710c0 13 10 23 23 23s23 -10 23 -23s-10 -23 -23 -23
s-23 10 -23 23z" />
    <glyph glyph-name="Ugrave" unicode="&#xd9;" horiz-adv-x="604" 
d="M301 -8c-126 0 -230 80 -230 249v373h31v-368c0 -153 88 -225 199 -225s201 72 201 225v368h31v-373c0 -169 -106 -249 -232 -249zM319 663h-33l-85 117h33z" />
    <glyph glyph-name="Yacute" unicode="&#xdd;" horiz-adv-x="519" 
d="M260 297l205 317h34l-224 -346v-268h-31v268l-224 346h35zM271 663h-33l85 117h33z" />
    <glyph glyph-name="Ydieresis" unicode="&#x178;" horiz-adv-x="519" 
d="M260 297l205 317h34l-224 -346v-268h-31v268l-224 346h35zM179 710c0 13 10 23 23 23s23 -10 23 -23s-10 -23 -23 -23s-23 10 -23 23zM293 710c0 13 10 23 23 23s23 -10 23 -23s-10 -23 -23 -23s-23 10 -23 23z" />
    <glyph glyph-name="Zcaron" unicode="&#x17d;" horiz-adv-x="507" 
d="M470 30v-30h-436v26l394 558h-389v30h427v-26l-394 -558h398zM259 656l-91 117h31l73 -92l73 92h31l-91 -117h-26z" />
    <glyph glyph-name="aacute" unicode="&#xe1;" horiz-adv-x="431" 
d="M230 523h-33l85 127h33zM361 0h-30v48c-21 -25 -71 -55 -128 -55c-90 0 -163 52 -163 134s73 134 163 134c57 0 107 -30 128 -55v95c0 74 -44 123 -121 123c-60 0 -101 -26 -120 -87h-31c18 75 77 115 151 115c93 0 151 -58 151 -148v-304zM331 95v64
c-15 42 -69 74 -128 74c-70 0 -133 -36 -133 -106s63 -106 133 -106c59 0 113 32 128 74z" />
    <glyph glyph-name="acircumflex" unicode="&#xe2;" horiz-adv-x="431" 
d="M231 643l91 -127h-31l-73 103l-73 -103h-31l91 127h26zM361 0h-30v48c-21 -25 -71 -55 -128 -55c-90 0 -163 52 -163 134s73 134 163 134c57 0 107 -30 128 -55v95c0 74 -44 123 -121 123c-60 0 -101 -26 -120 -87h-31c18 75 77 115 151 115c93 0 151 -58 151 -148v-304z
M331 95v64c-15 42 -69 74 -128 74c-70 0 -133 -36 -133 -106s63 -106 133 -106c59 0 113 32 128 74z" />
    <glyph glyph-name="adieresis" unicode="&#xe4;" horiz-adv-x="431" 
d="M138 570c0 13 10 23 23 23s23 -10 23 -23s-10 -23 -23 -23s-23 10 -23 23zM252 570c0 13 10 23 23 23s23 -10 23 -23s-10 -23 -23 -23s-23 10 -23 23zM361 0h-30v48c-21 -25 -71 -55 -128 -55c-90 0 -163 52 -163 134s73 134 163 134c57 0 107 -30 128 -55v95
c0 74 -44 123 -121 123c-60 0 -101 -26 -120 -87h-31c18 75 77 115 151 115c93 0 151 -58 151 -148v-304zM331 95v64c-15 42 -69 74 -128 74c-70 0 -133 -36 -133 -106s63 -106 133 -106c59 0 113 32 128 74z" />
    <glyph glyph-name="agrave" unicode="&#xe0;" horiz-adv-x="431" 
d="M239 523h-33l-85 127h33zM361 0h-30v48c-21 -25 -71 -55 -128 -55c-90 0 -163 52 -163 134s73 134 163 134c57 0 107 -30 128 -55v95c0 74 -44 123 -121 123c-60 0 -101 -26 -120 -87h-31c18 75 77 115 151 115c93 0 151 -58 151 -148v-304zM331 95v64
c-15 42 -69 74 -128 74c-70 0 -133 -36 -133 -106s63 -106 133 -106c59 0 113 32 128 74z" />
    <glyph glyph-name="aring" unicode="&#xe5;" horiz-adv-x="431" 
d="M294 580c0 -43 -34 -77 -77 -77s-77 34 -77 77s34 77 77 77s77 -34 77 -77zM269 580c0 29 -23 52 -52 52s-52 -23 -52 -52s23 -52 52 -52s52 23 52 52zM361 0h-30v48c-21 -25 -71 -55 -128 -55c-90 0 -163 52 -163 134s73 134 163 134c57 0 107 -30 128 -55v95
c0 74 -44 123 -121 123c-60 0 -101 -26 -120 -87h-31c18 75 77 115 151 115c93 0 151 -58 151 -148v-304zM331 95v64c-15 42 -69 74 -128 74c-70 0 -133 -36 -133 -106s63 -106 133 -106c59 0 113 32 128 74z" />
    <glyph glyph-name="atilde" unicode="&#xe3;" horiz-adv-x="431" 
d="M312 619h26c0 -58 -22 -95 -63 -95c-53 0 -73 70 -110 70c-25 0 -38 -27 -38 -67h-26c0 57 22 95 63 95c53 0 72 -70 110 -70c25 0 38 27 38 67zM361 0h-30v48c-21 -25 -71 -55 -128 -55c-90 0 -163 52 -163 134s73 134 163 134c57 0 107 -30 128 -55v95
c0 74 -44 123 -121 123c-60 0 -101 -26 -120 -87h-31c18 75 77 115 151 115c93 0 151 -58 151 -148v-304zM331 95v64c-15 42 -69 74 -128 74c-70 0 -133 -36 -133 -106s63 -106 133 -106c59 0 113 32 128 74z" />
    <glyph glyph-name="ccedilla" unicode="&#xe7;" horiz-adv-x="438" 
d="M196 -170h-29l55 124h29zM42 222c0 138 76 230 192 230c89 0 146 -54 164 -133h-33c-15 64 -61 105 -131 105c-95 0 -161 -80 -161 -202s66 -202 161 -202c70 0 116 41 131 105h33c-18 -79 -75 -133 -164 -133c-116 0 -192 92 -192 230z" />
    <glyph glyph-name="eacute" unicode="&#xe9;" horiz-adv-x="449" 
d="M247 523h-33l85 127h33zM369 125h31c-18 -79 -78 -133 -166 -133c-114 0 -192 92 -192 230c0 132 71 230 191 230c116 0 176 -91 176 -216v-11h-336c0 -126 67 -205 161 -205c69 0 120 41 135 105zM233 424c-89 0 -150 -69 -159 -172h303c-3 87 -45 172 -144 172z" />
    <glyph glyph-name="ecircumflex" unicode="&#xea;" horiz-adv-x="449" 
d="M248 643l91 -127h-31l-73 103l-73 -103h-31l91 127h26zM369 125h31c-18 -79 -78 -133 -166 -133c-114 0 -192 92 -192 230c0 132 71 230 191 230c116 0 176 -91 176 -216v-11h-336c0 -126 67 -205 161 -205c69 0 120 41 135 105zM233 424c-89 0 -150 -69 -159 -172h303
c-3 87 -45 172 -144 172z" />
    <glyph glyph-name="edieresis" unicode="&#xeb;" horiz-adv-x="449" 
d="M155 570c0 13 10 23 23 23s23 -10 23 -23s-10 -23 -23 -23s-23 10 -23 23zM269 570c0 13 10 23 23 23s23 -10 23 -23s-10 -23 -23 -23s-23 10 -23 23zM369 125h31c-18 -79 -78 -133 -166 -133c-114 0 -192 92 -192 230c0 132 71 230 191 230c116 0 176 -91 176 -216v-11
h-336c0 -126 67 -205 161 -205c69 0 120 41 135 105zM233 424c-89 0 -150 -69 -159 -172h303c-3 87 -45 172 -144 172z" />
    <glyph glyph-name="egrave" unicode="&#xe8;" horiz-adv-x="449" 
d="M252 523h-33l-85 127h33zM369 125h31c-18 -79 -78 -133 -166 -133c-114 0 -192 92 -192 230c0 132 71 230 191 230c116 0 176 -91 176 -216v-11h-336c0 -126 67 -205 161 -205c69 0 120 41 135 105zM233 424c-89 0 -150 -69 -159 -172h303c-3 87 -45 172 -144 172z" />
    <glyph glyph-name="iacute" unicode="&#xed;" horiz-adv-x="180" 
d="M105 444v-444h-30v444h30zM102 523h-33l85 127h33z" />
    <glyph glyph-name="icircumflex" unicode="&#xee;" horiz-adv-x="180" 
d="M103 643l71 -127h-30l-54 100l-54 -100h-30l71 127h26zM105 444v-444h-30v444h30z" />
    <glyph glyph-name="idieresis" unicode="&#xef;" horiz-adv-x="180" 
d="M20 570c0 13 10 23 23 23s23 -10 23 -23s-10 -23 -23 -23s-23 10 -23 23zM114 570c0 13 10 23 23 23s23 -10 23 -23s-10 -23 -23 -23s-23 10 -23 23zM105 444v-444h-30v444h30z" />
    <glyph glyph-name="igrave" unicode="&#xec;" horiz-adv-x="180" 
d="M105 444v-444h-30v444h30zM107 523h-33l-85 127h33z" />
    <glyph glyph-name="ntilde" unicode="&#xf1;" horiz-adv-x="479" 
d="M75 0v444h30v-82c28 48 84 90 151 90c101 0 153 -63 153 -156v-296h-30v292c0 75 -38 131 -125 131c-68 0 -123 -49 -149 -105v-318h-30zM335 619h26c0 -58 -22 -95 -63 -95c-53 0 -73 70 -110 70c-25 0 -38 -27 -38 -67h-26c0 57 22 95 63 95c53 0 72 -70 110 -70
c25 0 38 27 38 67z" />
    <glyph glyph-name="oacute" unicode="&#xf3;" horiz-adv-x="466" 
d="M424 222c0 -137 -76 -230 -191 -230s-191 93 -191 230s76 230 191 230s191 -93 191 -230zM393 222c0 122 -65 202 -160 202s-160 -80 -160 -202s65 -202 160 -202s160 80 160 202zM245 523h-33l85 127h33z" />
    <glyph glyph-name="ocircumflex" unicode="&#xf4;" horiz-adv-x="466" 
d="M424 222c0 -137 -76 -230 -191 -230s-191 93 -191 230s76 230 191 230s191 -93 191 -230zM393 222c0 122 -65 202 -160 202s-160 -80 -160 -202s65 -202 160 -202s160 80 160 202zM246 643l91 -127h-31l-73 103l-73 -103h-31l91 127h26z" />
    <glyph glyph-name="odieresis" unicode="&#xf6;" horiz-adv-x="466" 
d="M424 222c0 -137 -76 -230 -191 -230s-191 93 -191 230s76 230 191 230s191 -93 191 -230zM393 222c0 122 -65 202 -160 202s-160 -80 -160 -202s65 -202 160 -202s160 80 160 202zM153 570c0 13 10 23 23 23s23 -10 23 -23s-10 -23 -23 -23s-23 10 -23 23zM267 570
c0 13 10 23 23 23s23 -10 23 -23s-10 -23 -23 -23s-23 10 -23 23z" />
    <glyph glyph-name="ograve" unicode="&#xf2;" horiz-adv-x="466" 
d="M424 222c0 -137 -76 -230 -191 -230s-191 93 -191 230s76 230 191 230s191 -93 191 -230zM393 222c0 122 -65 202 -160 202s-160 -80 -160 -202s65 -202 160 -202s160 80 160 202zM250 523h-33l-85 127h33z" />
    <glyph glyph-name="otilde" unicode="&#xf5;" horiz-adv-x="466" 
d="M424 222c0 -137 -76 -230 -191 -230s-191 93 -191 230s76 230 191 230s191 -93 191 -230zM393 222c0 122 -65 202 -160 202s-160 -80 -160 -202s65 -202 160 -202s160 80 160 202zM326 619h26c0 -58 -22 -95 -63 -95c-53 0 -73 70 -110 70c-25 0 -38 -27 -38 -67h-26
c0 57 22 95 63 95c53 0 72 -70 110 -70c25 0 38 27 38 67z" />
    <glyph glyph-name="scaron" unicode="&#x161;" horiz-adv-x="387" 
d="M294 645l-91 -127h-26l-91 127h31l73 -102l73 102h31zM29 110h31c20 -61 70 -90 137 -90c66 0 120 28 120 92c0 44 -29 74 -93 92l-79 23c-63 18 -103 48 -103 109c0 76 67 116 143 116c87 0 143 -45 160 -117h-31c-20 61 -60 89 -129 89c-62 0 -113 -30 -113 -88
c0 -50 32 -66 93 -84l72 -21c76 -22 110 -64 110 -119c0 -77 -64 -120 -150 -120c-84 0 -153 43 -168 118z" />
    <glyph glyph-name="uacute" unicode="&#xfa;" horiz-adv-x="477" 
d="M402 444v-444h-30v82c-28 -48 -82 -90 -149 -90c-101 0 -153 63 -153 156v296h30v-292c0 -75 38 -131 125 -131c68 0 121 49 147 105v318h30zM248 523h-33l85 127h33z" />
    <glyph glyph-name="ucircumflex" unicode="&#xfb;" horiz-adv-x="477" 
d="M402 444v-444h-30v82c-28 -48 -82 -90 -149 -90c-101 0 -153 63 -153 156v296h30v-292c0 -75 38 -131 125 -131c68 0 121 49 147 105v318h30zM249 643l91 -127h-31l-73 103l-73 -103h-31l91 127h26z" />
    <glyph glyph-name="udieresis" unicode="&#xfc;" horiz-adv-x="477" 
d="M402 444v-444h-30v82c-28 -48 -82 -90 -149 -90c-101 0 -153 63 -153 156v296h30v-292c0 -75 38 -131 125 -131c68 0 121 49 147 105v318h30zM156 570c0 13 10 23 23 23s23 -10 23 -23s-10 -23 -23 -23s-23 10 -23 23zM270 570c0 13 10 23 23 23s23 -10 23 -23
s-10 -23 -23 -23s-23 10 -23 23z" />
    <glyph glyph-name="ugrave" unicode="&#xf9;" horiz-adv-x="477" 
d="M402 444v-444h-30v82c-28 -48 -82 -90 -149 -90c-101 0 -153 63 -153 156v296h30v-292c0 -75 38 -131 125 -131c68 0 121 49 147 105v318h30zM253 523h-33l-85 127h33z" />
    <glyph glyph-name="yacute" unicode="&#xfd;" horiz-adv-x="416" 
d="M149 -170h-31l75 183l-175 431h33l157 -394l158 394h32zM220 523h-33l85 127h33z" />
    <glyph glyph-name="ydieresis" unicode="&#xff;" horiz-adv-x="416" 
d="M149 -170h-31l75 183l-175 431h33l157 -394l158 394h32zM128 570c0 13 10 23 23 23s23 -10 23 -23s-10 -23 -23 -23s-23 10 -23 23zM242 570c0 13 10 23 23 23s23 -10 23 -23s-10 -23 -23 -23s-23 10 -23 23z" />
    <glyph glyph-name="zcaron" unicode="&#x17e;" horiz-adv-x="403" 
d="M365 28v-28h-327v24l287 392h-284v28h321v-24l-286 -392h289zM309 645l-91 -127h-26l-91 127h31l73 -102l73 102h31z" />
    <glyph glyph-name="Euro" unicode="&#x20ac;" horiz-adv-x="536" 
d="M30 346v27h62c19 157 109 249 224 249c94 0 165 -66 186 -165h-30c-24 83 -77 136 -156 136c-100 0 -174 -83 -192 -220h233l-7 -27h-229c-1 -13 -1 -26 -1 -39c0 -15 1 -30 2 -44h215l-7 -27h-206c19 -135 93 -215 192 -215c79 0 132 53 156 136h30
c-21 -99 -92 -165 -186 -165c-114 0 -203 90 -224 244h-62v27h59c-1 14 -1 29 -1 44c0 13 0 26 1 39h-59z" />
    <glyph glyph-name="approxequal" unicode="&#x2248;" 
d="M72 301v34c34 35 66 48 95 48c62 0 105 -51 163 -51c29 0 63 15 98 52v-34c-35 -36 -69 -48 -98 -48c-61 0 -104 51 -163 51c-29 0 -61 -17 -95 -52zM72 203v34c34 35 66 48 95 48c62 0 105 -51 163 -51c29 0 63 15 98 52v-34c-35 -36 -69 -48 -98 -48
c-61 0 -104 51 -163 51c-29 0 -61 -17 -95 -52z" />
    <glyph glyph-name="notequal" unicode="&#x2260;" 
d="M72 339v28h220l71 87h35l-71 -87h101v-28h-123l-74 -91h197v-28h-220l-71 -88h-35l71 88h-101v28h124l74 91h-198z" />
    <glyph glyph-name="lessequal" unicode="&#x2264;" horiz-adv-x="379" 
d="M54 309v24l259 112v-31l-220 -93l220 -94v-30zM54 126v29h259v-29h-259z" />
    <glyph glyph-name="greaterequal" unicode="&#x2265;" horiz-adv-x="379" 
d="M325 333v-24l-259 -112v30l220 94l-220 93v31zM325 155v-29h-259v29h259z" />
    <glyph glyph-name="uni00A0" unicode="&#xa0;" horiz-adv-x="221" 
 />
    <glyph glyph-name="threesuperior" unicode="&#xb3;" horiz-adv-x="263" 
d="M107 443v25h25c37 0 67 23 67 63c0 36 -28 62 -69 62c-38 0 -66 -25 -73 -64h-29c8 54 48 91 102 91c61 0 98 -37 98 -88c0 -39 -26 -69 -59 -76c37 -7 66 -36 66 -79c0 -52 -38 -95 -103 -95c-62 0 -102 36 -110 94h31c7 -42 35 -67 79 -67s73 27 73 68s-33 66 -73 66
h-25z" />
    <glyph glyph-name="Tcedilla" unicode="&#x162;" horiz-adv-x="558" 
d="M31 584v30h496v-30h-233v-584h-31v584h-232zM247 -170l34 70c-11 2 -21 10 -21 25s11 27 26 27s26 -12 26 -27c0 -12 -4 -20 -9 -30l-32 -65h-24z" />
    <glyph glyph-name="tcedilla" unicode="&#x163;" horiz-adv-x="283" 
d="M93 96v320h-76v28h76v112h30v-112h120v-28h-120v-317c0 -55 23 -79 68 -79c23 0 44 7 62 16v-30c-17 -8 -41 -14 -62 -14c-60 0 -98 33 -98 104zM133 -170l34 70c-11 2 -21 10 -21 25s11 27 26 27s26 -12 26 -27c0 -12 -4 -20 -9 -30l-32 -65h-24z" />
    <glyph glyph-name="i.dot" horiz-adv-x="180" 
d="M105 444v-444h-30v444h30zM113 579c0 -13 -9 -24 -23 -24s-23 11 -23 24s9 24 23 24s23 -11 23 -24z" />
    <glyph glyph-name="uni0237" unicode="&#x237;" horiz-adv-x="180" 
d="M105 444v-517c0 -72 -40 -105 -99 -105c-7 0 -13 1 -17 2v28c4 -1 10 -2 17 -2c42 0 69 15 69 81v513h30z" />
    <glyph glyph-name="space_uni0326" 
d="M217 -170l34 70c-11 2 -21 10 -21 25s11 27 26 27s26 -12 26 -27c0 -12 -4 -20 -9 -30l-32 -65h-24z" />
    <glyph glyph-name="space_uni0326.alt" 
d="M282 650l-34 -70c11 -2 21 -10 21 -25s-11 -27 -26 -27s-26 12 -26 27c0 12 4 20 9 30l32 65h24z" />
    <glyph glyph-name="space_dotbelowcomb" 
d="M273 -114c0 -13 -9 -24 -23 -24s-23 11 -23 24s9 24 23 24s23 -11 23 -24z" />
    <glyph glyph-name="uni2117" unicode="&#x2117;" horiz-adv-x="710" 
d="M670 307c0 -183 -142 -315 -315 -315s-315 132 -315 315s142 315 315 315s315 -132 315 -315zM644 307c0 168 -130 289 -289 289s-289 -121 -289 -289s130 -289 289 -289s289 121 289 289zM388 282h-103v-158h-30v369h133c73 0 117 -36 117 -105
c0 -70 -44 -106 -117 -106zM476 388c0 48 -31 77 -88 77h-103v-154h103c57 0 88 28 88 77z" />
    <glyph glyph-name=".null" horiz-adv-x="0" 
 />
    <glyph glyph-name="Abreve" unicode="&#x102;" horiz-adv-x="567" 
d="M270 614h27l246 -614h-31l-86 214h-286l-85 -214h-31zM283 571l-131 -327h262zM283 663c-53 0 -93 40 -93 114h27c0 -57 28 -89 66 -89s66 32 66 89h27c0 -74 -40 -114 -93 -114z" />
    <glyph glyph-name="Amacron" unicode="&#x100;" horiz-adv-x="567" 
d="M270 614h27l246 -614h-31l-86 214h-286l-85 -214h-31zM283 571l-131 -327h262zM187 670v27h193v-27h-193z" />
    <glyph glyph-name="Aogonek" unicode="&#x104;" horiz-adv-x="567" 
d="M270 614h27l246 -614c-44 -77 -51 -98 -51 -124c0 -21 11 -31 26 -31s25 5 37 14v-25c-12 -9 -24 -13 -39 -13c-27 0 -51 16 -51 55c0 29 12 55 50 124h-3l-86 214h-286l-85 -214h-31zM283 571l-131 -327h262z" />
    <glyph glyph-name="Aringacute" unicode="&#x1fa;" horiz-adv-x="567" 
d="M270 614h27l246 -614h-31l-86 214h-286l-85 -214h-31zM283 571l-131 -327h262zM364 712c0 -38 -36 -68 -81 -68c-44 0 -80 30 -80 68c0 39 36 69 80 69c45 0 81 -30 81 -69zM338 712c0 26 -24 45 -55 45c-30 0 -54 -19 -54 -45c0 -25 24 -44 54 -44c31 0 55 19 55 44z
M297 811h-29l60 82h29z" />
    <glyph glyph-name="AEacute" unicode="&#x1fc;" horiz-adv-x="855" 
d="M417 614h378v-30h-332v-252h300v-30h-300v-272h332v-30h-363v214h-238l-137 -214h-33zM432 583l-218 -339h218v339zM619 663h-33l85 117h33z" />
    <glyph glyph-name="Cacute" unicode="&#x106;" horiz-adv-x="566" 
d="M323 663h-33l85 117h33zM40 307c0 196 119 315 267 315c111 0 192 -66 219 -165h-31c-27 83 -95 135 -188 135c-134 0 -235 -107 -235 -285s101 -285 235 -285c93 0 161 52 188 135h31c-27 -99 -108 -165 -219 -165c-148 0 -267 119 -267 315z" />
    <glyph glyph-name="Ccaron" unicode="&#x10c;" horiz-adv-x="566" 
d="M298 656l-91 117h31l73 -92l73 92h31l-91 -117h-26zM40 307c0 196 119 315 267 315c111 0 192 -66 219 -165h-31c-27 83 -95 135 -188 135c-134 0 -235 -107 -235 -285s101 -285 235 -285c93 0 161 52 188 135h31c-27 -99 -108 -165 -219 -165c-148 0 -267 119 -267 315z
" />
    <glyph glyph-name="Ccircumflex" unicode="&#x108;" horiz-adv-x="566" 
d="M324 783l91 -117h-31l-73 92l-73 -92h-31l91 117h26zM40 307c0 196 119 315 267 315c111 0 192 -66 219 -165h-31c-27 83 -95 135 -188 135c-134 0 -235 -107 -235 -285s101 -285 235 -285c93 0 161 52 188 135h31c-27 -99 -108 -165 -219 -165c-148 0 -267 119 -267 315
z" />
    <glyph glyph-name="Cdotaccent" unicode="&#x10a;" horiz-adv-x="566" 
d="M334 709c0 -13 -9 -24 -23 -24s-23 11 -23 24s9 24 23 24s23 -11 23 -24zM40 307c0 196 119 315 267 315c111 0 192 -66 219 -165h-31c-27 83 -95 135 -188 135c-134 0 -235 -107 -235 -285s101 -285 235 -285c93 0 161 52 188 135h31c-27 -99 -108 -165 -219 -165
c-148 0 -267 119 -267 315z" />
    <glyph glyph-name="Dcaron" unicode="&#x10e;" horiz-adv-x="600" 
d="M114 30h150c159 0 264 110 264 277s-105 277 -264 277h-150v-554zM83 0v614h179c177 0 298 -120 298 -307s-121 -307 -298 -307h-179zM262 656l-91 117h31l73 -92l73 92h31l-91 -117h-26z" />
    <glyph glyph-name="Dcroat" unicode="&#x110;" horiz-adv-x="612" 
d="M35 304v28h60v282h179c177 0 298 -120 298 -307s-121 -307 -298 -307h-179v304h-60zM126 30h150c159 0 264 110 264 277s-105 277 -264 277h-150v-252h135v-28h-135v-274z" />
    <glyph glyph-name="Ebreve" unicode="&#x114;" horiz-adv-x="516" 
d="M83 614h373v-30h-342v-252h310v-30h-310v-272h342v-30h-373v614zM275 663c-53 0 -93 40 -93 114h27c0 -57 28 -89 66 -89s66 32 66 89h27c0 -74 -40 -114 -93 -114z" />
    <glyph glyph-name="Ecaron" unicode="&#x11a;" horiz-adv-x="516" 
d="M83 614h373v-30h-342v-252h310v-30h-310v-272h342v-30h-373v614zM262 656l-91 117h31l73 -92l73 92h31l-91 -117h-26z" />
    <glyph glyph-name="Edotaccent" unicode="&#x116;" horiz-adv-x="516" 
d="M83 614h373v-30h-342v-252h310v-30h-310v-272h342v-30h-373v614zM298 709c0 -13 -9 -24 -23 -24s-23 11 -23 24s9 24 23 24s23 -11 23 -24z" />
    <glyph glyph-name="Emacron" unicode="&#x112;" horiz-adv-x="516" 
d="M83 614h373v-30h-342v-252h310v-30h-310v-272h342v-30h-373v614zM179 670v27h193v-27h-193z" />
    <glyph glyph-name="Eogonek" unicode="&#x118;" horiz-adv-x="516" 
d="M83 614h373v-30h-342v-252h310v-30h-310v-272h342v-30h-33c-43 -74 -50 -98 -50 -124c0 -21 11 -31 26 -31s25 5 37 14v-25c-12 -9 -24 -13 -39 -13c-27 0 -51 16 -51 55c0 29 12 58 49 124h-312v614z" />
    <glyph glyph-name="Gbreve" unicode="&#x11e;" horiz-adv-x="590" 
d="M315 663c-53 0 -93 40 -93 114h27c0 -57 28 -89 66 -89s66 32 66 89h27c0 -74 -40 -114 -93 -114zM520 249h-170v28h200v-31c0 -153 -91 -254 -240 -254c-150 0 -270 118 -270 315s121 315 271 315c113 0 196 -66 223 -165h-32c-27 83 -95 135 -191 135
c-136 0 -239 -106 -239 -285s102 -285 238 -285c133 0 209 81 210 227z" />
    <glyph glyph-name="Gcircumflex" unicode="&#x11c;" horiz-adv-x="590" 
d="M328 783l91 -117h-31l-73 92l-73 -92h-31l91 117h26zM520 249h-170v28h200v-31c0 -153 -91 -254 -240 -254c-150 0 -270 118 -270 315s121 315 271 315c113 0 196 -66 223 -165h-32c-27 83 -95 135 -191 135c-136 0 -239 -106 -239 -285s102 -285 238 -285
c133 0 209 81 210 227z" />
    <glyph glyph-name="Gcommaaccent" unicode="&#x122;" horiz-adv-x="590" 
d="M283 -170l34 70c-11 2 -21 10 -21 25s11 27 26 27s26 -12 26 -27c0 -12 -4 -20 -9 -30l-32 -65h-24zM520 249h-170v28h200v-31c0 -153 -91 -254 -240 -254c-150 0 -270 118 -270 315s121 315 271 315c113 0 196 -66 223 -165h-32c-27 83 -95 135 -191 135
c-136 0 -239 -106 -239 -285s102 -285 238 -285c133 0 209 81 210 227z" />
    <glyph glyph-name="Gdotaccent" unicode="&#x120;" horiz-adv-x="590" 
d="M338 709c0 -13 -9 -24 -23 -24s-23 11 -23 24s9 24 23 24s23 -11 23 -24zM520 249h-170v28h200v-31c0 -153 -91 -254 -240 -254c-150 0 -270 118 -270 315s121 315 271 315c113 0 196 -66 223 -165h-32c-27 83 -95 135 -191 135c-136 0 -239 -106 -239 -285
s102 -285 238 -285c133 0 209 81 210 227z" />
    <glyph glyph-name="Hbar" unicode="&#x126;" horiz-adv-x="672" 
d="M35 444v28h60v142h31v-142h420v142h31v-142h60v-28h-60v-444h-31v272h-420v-272h-31v444h-60zM126 300h420v144h-420v-144z" />
    <glyph glyph-name="Hcircumflex" unicode="&#x124;" horiz-adv-x="648" 
d="M534 614h31v-614h-31v302h-420v-302h-31v614h31v-282h420v282zM337 783l91 -117h-31l-73 92l-73 -92h-31l91 117h26z" />
    <glyph glyph-name="Ibreve" unicode="&#x12c;" horiz-adv-x="197" 
d="M114 614v-614h-31v614h31zM98 663c-53 0 -93 40 -93 114h27c0 -57 28 -89 66 -89s66 32 66 89h27c0 -74 -40 -114 -93 -114z" />
    <glyph glyph-name="Idotaccent" unicode="&#x130;" horiz-adv-x="197" 
d="M114 614v-614h-31v614h31zM121 709c0 -13 -9 -24 -23 -24s-23 11 -23 24s9 24 23 24s23 -11 23 -24z" />
    <glyph glyph-name="Imacron" unicode="&#x12a;" horiz-adv-x="197" 
d="M114 614v-614h-31v614h31zM2 670v27h193v-27h-193z" />
    <glyph glyph-name="Iogonek" unicode="&#x12e;" horiz-adv-x="197" 
d="M114 614v-614c-42 -74 -50 -98 -50 -124c0 -21 11 -31 26 -31s25 5 37 14v-25c-12 -9 -24 -13 -39 -13c-27 0 -51 16 -51 55c0 29 12 58 49 124h-3v614h31z" />
    <glyph glyph-name="Itilde" unicode="&#x128;" horiz-adv-x="197" 
d="M114 614v-614h-31v614h31zM191 759h26c0 -58 -22 -95 -63 -95c-53 0 -73 70 -110 70c-25 0 -38 -27 -38 -67h-26c0 57 22 95 63 95c53 0 72 -70 110 -70c25 0 38 27 38 67z" />
    <glyph glyph-name="IJ" unicode="&#x132;" horiz-adv-x="637" 
d="M190 166h32c10 -88 70 -144 157 -144c84 0 156 46 156 167v425h31v-425c0 -136 -86 -197 -187 -197s-181 66 -189 174zM114 614v-614h-31v614h31z" />
    <glyph glyph-name="Jcircumflex" unicode="&#x134;" horiz-adv-x="467" 
d="M20 166h32c10 -88 70 -144 157 -144c84 0 156 46 156 167v425h31v-425c0 -136 -86 -197 -187 -197s-181 66 -189 174zM395 783l91 -117h-31l-73 92l-73 -92h-31l91 117h26z" />
    <glyph glyph-name="Kcommaaccent" unicode="&#x136;" horiz-adv-x="530" 
d="M114 614v-332l345 332h41l-292 -281l302 -333h-38l-286 312l-72 -69v-243h-31v614h31zM211 -170l34 70c-11 2 -21 10 -21 25s11 27 26 27s26 -12 26 -27c0 -12 -4 -20 -9 -30l-32 -65h-24z" />
    <glyph glyph-name="Lacute" unicode="&#x139;" horiz-adv-x="502" 
d="M83 0v614h31v-584h348v-30h-379zM122 663h-33l85 117h33z" />
    <glyph glyph-name="Lcaron" unicode="&#x13d;" horiz-adv-x="502" 
d="M83 0v614h31v-584h348v-30h-379zM288 457h-26l32 157h26z" />
    <glyph glyph-name="Lcommaaccent" unicode="&#x13b;" horiz-adv-x="502" 
d="M83 0v614h31v-584h348v-30h-379zM240 -170l34 70c-11 2 -21 10 -21 25s11 27 26 27s26 -12 26 -27c0 -12 -4 -20 -9 -30l-32 -65h-24z" />
    <glyph glyph-name="Ldot" unicode="&#x13f;" horiz-adv-x="502" 
d="M83 0v614h31v-584h348v-30h-379zM380 307c0 -13 -9 -24 -23 -24s-23 11 -23 24s9 24 23 24s23 -11 23 -24z" />
    <glyph glyph-name="Nacute" unicode="&#x143;" horiz-adv-x="611" 
d="M528 614v-614h-17l-398 565v-565h-30v614h30l385 -544v544h30zM317 663h-33l85 117h33z" />
    <glyph glyph-name="Ncaron" unicode="&#x147;" horiz-adv-x="611" 
d="M528 614v-614h-17l-398 565v-565h-30v614h30l385 -544v544h30zM292 656l-91 117h31l73 -92l73 92h31l-91 -117h-26z" />
    <glyph glyph-name="Ncommaaccent" unicode="&#x145;" horiz-adv-x="611" 
d="M528 614v-614h-17l-398 565v-565h-30v614h30l385 -544v544h30zM273 -170l34 70c-11 2 -21 10 -21 25s11 27 26 27s26 -12 26 -27c0 -12 -4 -20 -9 -30l-32 -65h-24z" />
    <glyph glyph-name="Eng" unicode="&#x14a;" horiz-adv-x="611" 
d="M258 -141v34c39 -32 72 -43 113 -43c84 0 127 48 127 168l-385 547v-565h-30v614h30l385 -544v544h30v-597c0 -136 -58 -197 -157 -197c-50 0 -89 19 -113 39z" />
    <glyph glyph-name="Obreve" unicode="&#x14e;" horiz-adv-x="614" 
d="M574 307c0 -190 -114 -315 -267 -315c-152 0 -267 125 -267 315s115 315 267 315c153 0 267 -125 267 -315zM542 307c0 169 -96 285 -235 285c-138 0 -235 -116 -235 -285s97 -285 235 -285c139 0 235 116 235 285zM307 663c-53 0 -93 40 -93 114h27c0 -57 28 -89 66 -89
s66 32 66 89h27c0 -74 -40 -114 -93 -114z" />
    <glyph glyph-name="Ohungarumlaut" unicode="&#x150;" horiz-adv-x="614" 
d="M574 307c0 -190 -114 -315 -267 -315c-152 0 -267 125 -267 315s115 315 267 315c153 0 267 -125 267 -315zM542 307c0 169 -96 285 -235 285c-138 0 -235 -116 -235 -285s97 -285 235 -285c139 0 235 116 235 285zM272 663h-31l79 117h31zM375 663h-31l79 117h31z" />
    <glyph glyph-name="Omacron" unicode="&#x14c;" horiz-adv-x="614" 
d="M574 307c0 -190 -114 -315 -267 -315c-152 0 -267 125 -267 315s115 315 267 315c153 0 267 -125 267 -315zM542 307c0 169 -96 285 -235 285c-138 0 -235 -116 -235 -285s97 -285 235 -285c139 0 235 116 235 285zM211 670v27h193v-27h-193z" />
    <glyph glyph-name="Oslashacute" unicode="&#x1fe;" horiz-adv-x="624" 
d="M45 0l70 85c-44 55 -70 131 -70 222c0 190 115 315 267 315c72 0 135 -28 182 -77l56 69l22 -18l-60 -72c42 -54 67 -129 67 -217c0 -190 -114 -315 -267 -315c-70 0 -131 26 -178 72l-67 -82zM77 307c0 -80 21 -148 58 -197l339 412c-40 44 -96 70 -162 70
c-138 0 -235 -116 -235 -285zM547 307c0 77 -20 143 -55 192l-338 -411c40 -42 94 -66 158 -66c139 0 235 116 235 285zM324 663h-33l85 117h33z" />
    <glyph glyph-name="Racute" unicode="&#x154;" horiz-adv-x="547" 
d="M287 280h-173v-280h-31v614h210c117 0 187 -58 187 -167c0 -100 -58 -156 -157 -166l188 -281h-36zM114 584v-275h177c103 0 158 50 158 138c0 89 -55 137 -158 137h-177zM271 663h-33l85 117h33z" />
    <glyph glyph-name="Rcaron" unicode="&#x158;" horiz-adv-x="547" 
d="M287 280h-173v-280h-31v614h210c117 0 187 -58 187 -167c0 -100 -58 -156 -157 -166l188 -281h-36zM114 584v-275h177c103 0 158 50 158 138c0 89 -55 137 -158 137h-177zM246 656l-91 117h31l73 -92l73 92h31l-91 -117h-26z" />
    <glyph glyph-name="Rcommaaccent" unicode="&#x156;" horiz-adv-x="547" 
d="M287 280h-173v-280h-31v614h210c117 0 187 -58 187 -167c0 -100 -58 -156 -157 -166l188 -281h-36zM114 584v-275h177c103 0 158 50 158 138c0 89 -55 137 -158 137h-177zM227 -170l34 70c-11 2 -21 10 -21 25s11 27 26 27s26 -12 26 -27c0 -12 -4 -20 -9 -30l-32 -65
h-24z" />
    <glyph glyph-name="Sacute" unicode="&#x15a;" horiz-adv-x="489" 
d="M248 663h-33l85 117h33zM28 142h33c27 -78 97 -121 187 -121c95 0 167 49 167 136c0 58 -30 101 -113 125l-122 36c-86 26 -136 62 -136 145c0 104 88 159 188 159c115 0 185 -60 210 -148h-32c-25 73 -83 119 -178 119c-86 0 -158 -46 -158 -130c0 -74 48 -95 130 -120
l102 -31c102 -31 140 -79 140 -155c0 -105 -87 -165 -198 -165c-106 0 -195 53 -220 150z" />
    <glyph glyph-name="Scedilla" unicode="&#x15e;" horiz-adv-x="489" 
d="M196 -170h-29l55 124h29zM28 142h33c27 -78 97 -121 187 -121c95 0 167 49 167 136c0 58 -30 101 -113 125l-122 36c-86 26 -136 62 -136 145c0 104 88 159 188 159c115 0 185 -60 210 -148h-32c-25 73 -83 119 -178 119c-86 0 -158 -46 -158 -130c0 -74 48 -95 130 -120
l102 -31c102 -31 140 -79 140 -155c0 -105 -87 -165 -198 -165c-106 0 -195 53 -220 150z" />
    <glyph glyph-name="Scircumflex" unicode="&#x15c;" horiz-adv-x="489" 
d="M249 783l91 -117h-31l-73 92l-73 -92h-31l91 117h26zM28 142h33c27 -78 97 -121 187 -121c95 0 167 49 167 136c0 58 -30 101 -113 125l-122 36c-86 26 -136 62 -136 145c0 104 88 159 188 159c115 0 185 -60 210 -148h-32c-25 73 -83 119 -178 119
c-86 0 -158 -46 -158 -130c0 -74 48 -95 130 -120l102 -31c102 -31 140 -79 140 -155c0 -105 -87 -165 -198 -165c-106 0 -195 53 -220 150z" />
    <glyph glyph-name="Scommaaccent" unicode="&#x218;" horiz-adv-x="489" 
d="M204 -170l34 70c-11 2 -21 10 -21 25s11 27 26 27s26 -12 26 -27c0 -12 -4 -20 -9 -30l-32 -65h-24zM28 142h33c27 -78 97 -121 187 -121c95 0 167 49 167 136c0 58 -30 101 -113 125l-122 36c-86 26 -136 62 -136 145c0 104 88 159 188 159c115 0 185 -60 210 -148h-32
c-25 73 -83 119 -178 119c-86 0 -158 -46 -158 -130c0 -74 48 -95 130 -120l102 -31c102 -31 140 -79 140 -155c0 -105 -87 -165 -198 -165c-106 0 -195 53 -220 150z" />
    <glyph glyph-name="Tbar" unicode="&#x166;" horiz-adv-x="558" 
d="M31 584v30h496v-30h-233v-252h120v-28h-120v-304h-31v304h-120v28h120v252h-232z" />
    <glyph glyph-name="Tcaron" unicode="&#x164;" horiz-adv-x="558" 
d="M31 584v30h496v-30h-233v-584h-31v584h-232zM266 656l-91 117h31l73 -92l73 92h31l-91 -117h-26z" />
    <glyph glyph-name="Ubreve" unicode="&#x16c;" horiz-adv-x="604" 
d="M301 -8c-126 0 -230 80 -230 249v373h31v-368c0 -153 88 -225 199 -225s201 72 201 225v368h31v-373c0 -169 -106 -249 -232 -249zM302 663c-53 0 -93 40 -93 114h27c0 -57 28 -89 66 -89s66 32 66 89h27c0 -74 -40 -114 -93 -114z" />
    <glyph glyph-name="Uhungarumlaut" unicode="&#x170;" horiz-adv-x="604" 
d="M301 -8c-126 0 -230 80 -230 249v373h31v-368c0 -153 88 -225 199 -225s201 72 201 225v368h31v-373c0 -169 -106 -249 -232 -249zM267 663h-31l79 117h31zM370 663h-31l79 117h31z" />
    <glyph glyph-name="Umacron" unicode="&#x16a;" horiz-adv-x="604" 
d="M301 -8c-126 0 -230 80 -230 249v373h31v-368c0 -153 88 -225 199 -225s201 72 201 225v368h31v-373c0 -169 -106 -249 -232 -249zM206 670v27h193v-27h-193z" />
    <glyph glyph-name="Uogonek" unicode="&#x172;" horiz-adv-x="604" 
d="M301 -8c-126 0 -230 80 -230 249v373h31v-368c0 -153 88 -225 199 -225s201 72 201 225v368h31v-373c0 -113 -47 -174 -110 -220c-67 -49 -89 -102 -89 -143c0 -21 11 -33 26 -33s25 5 37 14v-25c-12 -9 -24 -13 -39 -13c-27 0 -51 18 -51 57c0 37 18 82 63 123
c-22 -5 -45 -9 -69 -9z" />
    <glyph glyph-name="Uring" unicode="&#x16e;" horiz-adv-x="604" 
d="M301 -8c-126 0 -230 80 -230 249v373h31v-368c0 -153 88 -225 199 -225s201 72 201 225v368h31v-373c0 -169 -106 -249 -232 -249zM379 724c0 -43 -34 -77 -77 -77s-77 34 -77 77s34 77 77 77s77 -34 77 -77zM354 724c0 29 -23 52 -52 52s-52 -23 -52 -52s23 -52 52 -52
s52 23 52 52z" />
    <glyph glyph-name="Utilde" unicode="&#x168;" horiz-adv-x="604" 
d="M301 -8c-126 0 -230 80 -230 249v373h31v-368c0 -153 88 -225 199 -225s201 72 201 225v368h31v-373c0 -169 -106 -249 -232 -249zM395 759h26c0 -58 -22 -95 -63 -95c-53 0 -73 70 -110 70c-25 0 -38 -27 -38 -67h-26c0 57 22 95 63 95c53 0 72 -70 110 -70
c25 0 38 27 38 67z" />
    <glyph glyph-name="Wacute" unicode="&#x1e82;" horiz-adv-x="753" 
d="M363 614h26l155 -557l154 557h31l-171 -614h-27l-155 555l-154 -555h-27l-171 614h31l154 -557zM388 663h-33l85 117h33z" />
    <glyph glyph-name="Wcircumflex" unicode="&#x174;" horiz-adv-x="753" 
d="M363 614h26l155 -557l154 557h31l-171 -614h-27l-155 555l-154 -555h-27l-171 614h31l154 -557zM389 783l91 -117h-31l-73 92l-73 -92h-31l91 117h26z" />
    <glyph glyph-name="Wgrave" unicode="&#x1e80;" horiz-adv-x="753" 
d="M363 614h26l155 -557l154 557h31l-171 -614h-27l-155 555l-154 -555h-27l-171 614h31l154 -557zM393 663h-33l-85 117h33z" />
    <glyph glyph-name="Wdieresis" unicode="&#x1e84;" horiz-adv-x="753" 
d="M363 614h26l155 -557l154 557h31l-171 -614h-27l-155 555l-154 -555h-27l-171 614h31l154 -557zM296 710c0 13 10 23 23 23s23 -10 23 -23s-10 -23 -23 -23s-23 10 -23 23zM410 710c0 13 10 23 23 23s23 -10 23 -23s-10 -23 -23 -23s-23 10 -23 23z" />
    <glyph glyph-name="Ycircumflex" unicode="&#x176;" horiz-adv-x="519" 
d="M260 297l205 317h34l-224 -346v-268h-31v268l-224 346h35zM272 783l91 -117h-31l-73 92l-73 -92h-31l91 117h26z" />
    <glyph glyph-name="Ygrave" unicode="&#x1ef2;" horiz-adv-x="519" 
d="M260 297l205 317h34l-224 -346v-268h-31v268l-224 346h35zM276 663h-33l-85 117h33z" />
    <glyph glyph-name="Zacute" unicode="&#x179;" horiz-adv-x="507" 
d="M470 30v-30h-436v26l394 558h-389v30h427v-26l-394 -558h398zM284 663h-33l85 117h33z" />
    <glyph glyph-name="Zdotaccent" unicode="&#x17b;" horiz-adv-x="507" 
d="M470 30v-30h-436v26l394 558h-389v30h427v-26l-394 -558h398zM295 709c0 -13 -9 -24 -23 -24s-23 11 -23 24s9 24 23 24s23 -11 23 -24z" />
    <glyph glyph-name="abreve" unicode="&#x103;" horiz-adv-x="431" 
d="M217 510c-53 0 -93 40 -93 114h27c0 -57 28 -89 66 -89s66 32 66 89h27c0 -74 -40 -114 -93 -114zM361 0h-30v48c-21 -25 -71 -55 -128 -55c-90 0 -163 52 -163 134s73 134 163 134c57 0 107 -30 128 -55v95c0 74 -44 123 -121 123c-60 0 -101 -26 -120 -87h-31
c18 75 77 115 151 115c93 0 151 -58 151 -148v-304zM331 95v64c-15 42 -69 74 -128 74c-70 0 -133 -36 -133 -106s63 -106 133 -106c59 0 113 32 128 74z" />
    <glyph glyph-name="amacron" unicode="&#x101;" horiz-adv-x="431" 
d="M122 542v27h193v-27h-193zM361 0h-30v48c-21 -25 -71 -55 -128 -55c-90 0 -163 52 -163 134s73 134 163 134c57 0 107 -30 128 -55v95c0 74 -44 123 -121 123c-60 0 -101 -26 -120 -87h-31c18 75 77 115 151 115c93 0 151 -58 151 -148v-304zM331 95v64
c-15 42 -69 74 -128 74c-70 0 -133 -36 -133 -106s63 -106 133 -106c59 0 113 32 128 74z" />
    <glyph glyph-name="aogonek" unicode="&#x105;" horiz-adv-x="431" 
d="M331 95v64c-15 42 -69 74 -128 74c-70 0 -133 -36 -133 -106s63 -106 133 -106c59 0 113 32 128 74zM333 0h-2v48c-21 -25 -71 -55 -128 -55c-90 0 -163 52 -163 134s73 134 163 134c57 0 107 -30 128 -55v95c0 74 -44 123 -121 123c-60 0 -101 -26 -120 -87h-31
c18 75 77 115 151 115c93 0 151 -58 151 -148v-304c-42 -74 -50 -98 -50 -124c0 -21 11 -31 26 -31s25 5 37 14v-25c-12 -9 -24 -13 -39 -13c-27 0 -51 16 -51 55c0 29 12 58 49 124z" />
    <glyph glyph-name="aringacute" unicode="&#x1fb;" horiz-adv-x="431" 
d="M295 550c0 -38 -36 -68 -81 -68c-44 0 -80 30 -80 68c0 39 36 69 80 69c45 0 81 -30 81 -69zM269 550c0 26 -24 45 -55 45c-30 0 -54 -19 -54 -45c0 -25 24 -44 54 -44c31 0 55 19 55 44zM228 649h-29l60 82h29zM361 0h-30v48c-21 -25 -71 -55 -128 -55
c-90 0 -163 52 -163 134s73 134 163 134c57 0 107 -30 128 -55v95c0 74 -44 123 -121 123c-60 0 -101 -26 -120 -87h-31c18 75 77 115 151 115c93 0 151 -58 151 -148v-304zM331 95v64c-15 42 -69 74 -128 74c-70 0 -133 -36 -133 -106s63 -106 133 -106c59 0 113 32 128 74
z" />
    <glyph glyph-name="aeacute" unicode="&#x1fd;" horiz-adv-x="731" 
d="M181 20c78 0 127 57 146 119v86h-129c-70 0 -133 -35 -133 -103c0 -67 51 -102 116 -102zM651 125h31c-18 -79 -78 -133 -166 -133c-78 0 -139 46 -170 118c-24 -56 -76 -117 -165 -117c-85 0 -146 50 -146 129c0 80 73 130 163 130h129v49c0 74 -44 123 -121 123
c-60 0 -101 -26 -120 -87h-31c18 75 77 115 151 115c78 0 131 -44 145 -111c31 65 86 111 164 111c116 0 176 -91 176 -216v-11h-336c0 -129 67 -205 161 -205c69 0 120 41 135 105zM515 424c-90 0 -151 -69 -159 -172h303c-3 87 -45 172 -144 172zM389 523h-33l85 127h33z
" />
    <glyph glyph-name="cacute" unicode="&#x107;" horiz-adv-x="438" 
d="M248 523h-33l85 127h33zM42 222c0 138 76 230 192 230c89 0 146 -54 164 -133h-33c-15 64 -61 105 -131 105c-95 0 -161 -80 -161 -202s66 -202 161 -202c70 0 116 41 131 105h33c-18 -79 -75 -133 -164 -133c-116 0 -192 92 -192 230z" />
    <glyph glyph-name="ccaron" unicode="&#x10d;" horiz-adv-x="438" 
d="M340 645l-91 -127h-26l-91 127h31l73 -102l73 102h31zM42 222c0 138 76 230 192 230c89 0 146 -54 164 -133h-33c-15 64 -61 105 -131 105c-95 0 -161 -80 -161 -202s66 -202 161 -202c70 0 116 41 131 105h33c-18 -79 -75 -133 -164 -133c-116 0 -192 92 -192 230z" />
    <glyph glyph-name="ccircumflex" unicode="&#x109;" horiz-adv-x="438" 
d="M249 643l91 -127h-31l-73 103l-73 -103h-31l91 127h26zM42 222c0 138 76 230 192 230c89 0 146 -54 164 -133h-33c-15 64 -61 105 -131 105c-95 0 -161 -80 -161 -202s66 -202 161 -202c70 0 116 41 131 105h33c-18 -79 -75 -133 -164 -133c-116 0 -192 92 -192 230z" />
    <glyph glyph-name="cdotaccent" unicode="&#x10b;" horiz-adv-x="438" 
d="M259 579c0 -13 -9 -24 -23 -24s-23 11 -23 24s9 24 23 24s23 -11 23 -24zM42 222c0 138 76 230 192 230c89 0 146 -54 164 -133h-33c-15 64 -61 105 -131 105c-95 0 -161 -80 -161 -202s66 -202 161 -202c70 0 116 41 131 105h33c-18 -79 -75 -133 -164 -133
c-116 0 -192 92 -192 230z" />
    <glyph glyph-name="dcaron" unicode="&#x10f;" horiz-adv-x="484" 
d="M379 0v77c-27 -44 -82 -85 -148 -85c-131 0 -189 109 -189 230s58 230 189 230c66 0 121 -41 148 -85v283h30v-650h-30zM379 120v204c-35 65 -89 99 -148 99c-100 0 -158 -84 -158 -201s58 -201 158 -201c59 0 113 34 148 99zM495 493h-26l32 157h26z" />
    <glyph glyph-name="dcroat" unicode="&#x111;" horiz-adv-x="484" 
d="M258 527v25h121v98h30v-98h50v-25h-50v-527h-30v77c-27 -44 -82 -85 -148 -85c-131 0 -189 109 -189 230s58 230 189 230c66 0 121 -41 148 -85v160h-121zM379 120v204c-35 65 -89 99 -148 99c-100 0 -158 -84 -158 -201s58 -201 158 -201c59 0 113 34 148 99z" />
    <glyph glyph-name="ebreve" unicode="&#x115;" horiz-adv-x="449" 
d="M235 510c-53 0 -93 40 -93 114h27c0 -57 28 -89 66 -89s66 32 66 89h27c0 -74 -40 -114 -93 -114zM369 125h31c-18 -79 -78 -133 -166 -133c-114 0 -192 92 -192 230c0 132 71 230 191 230c116 0 176 -91 176 -216v-11h-336c0 -126 67 -205 161 -205c69 0 120 41 135 105
zM233 424c-89 0 -150 -69 -159 -172h303c-3 87 -45 172 -144 172z" />
    <glyph glyph-name="ecaron" unicode="&#x11b;" horiz-adv-x="449" 
d="M339 645l-91 -127h-26l-91 127h31l73 -102l73 102h31zM369 125h31c-18 -79 -78 -133 -166 -133c-114 0 -192 92 -192 230c0 132 71 230 191 230c116 0 176 -91 176 -216v-11h-336c0 -126 67 -205 161 -205c69 0 120 41 135 105zM233 424c-89 0 -150 -69 -159 -172h303
c-3 87 -45 172 -144 172z" />
    <glyph glyph-name="edotaccent" unicode="&#x117;" horiz-adv-x="449" 
d="M258 579c0 -13 -9 -24 -23 -24s-23 11 -23 24s9 24 23 24s23 -11 23 -24zM369 125h31c-18 -79 -78 -133 -166 -133c-114 0 -192 92 -192 230c0 132 71 230 191 230c116 0 176 -91 176 -216v-11h-336c0 -126 67 -205 161 -205c69 0 120 41 135 105zM233 424
c-89 0 -150 -69 -159 -172h303c-3 87 -45 172 -144 172z" />
    <glyph glyph-name="emacron" unicode="&#x113;" horiz-adv-x="449" 
d="M139 542v27h193v-27h-193zM369 125h31c-18 -79 -78 -133 -166 -133c-114 0 -192 92 -192 230c0 132 71 230 191 230c116 0 176 -91 176 -216v-11h-336c0 -126 67 -205 161 -205c69 0 120 41 135 105zM233 424c-89 0 -150 -69 -159 -172h303c-3 87 -45 172 -144 172z" />
    <glyph glyph-name="eogonek" unicode="&#x119;" horiz-adv-x="449" 
d="M233 424c-89 0 -150 -69 -159 -172h303c-3 87 -45 172 -144 172zM301 7c-20 -10 -43 -15 -67 -15c-114 0 -192 92 -192 230c0 132 71 230 191 230c116 0 176 -91 176 -216v-11h-336c0 -126 67 -205 161 -205c69 0 120 41 135 105h31c-9 -40 -26 -66 -60 -103
c-47 -52 -80 -94 -80 -139c0 -28 12 -38 27 -38s25 5 37 14v-25c-12 -9 -24 -13 -39 -13c-27 0 -52 19 -52 57c0 42 25 81 68 129z" />
    <glyph glyph-name="gbreve" unicode="&#x11f;" horiz-adv-x="479" 
d="M243 510c-53 0 -93 40 -93 114h27c0 -57 28 -89 66 -89s66 32 66 89h27c0 -74 -40 -114 -93 -114zM374 29v57c-27 -43 -81 -84 -146 -84c-129 0 -186 106 -186 225s57 225 186 225c65 0 119 -41 146 -84v76h30v-414c0 -136 -70 -209 -178 -209c-98 0 -158 49 -176 128h32
c17 -68 71 -100 144 -100c93 0 148 62 148 180zM374 130v194c-34 64 -88 99 -146 99c-98 0 -155 -81 -155 -196s57 -196 155 -196c58 0 112 35 146 99z" />
    <glyph glyph-name="gcircumflex" unicode="&#x11d;" horiz-adv-x="479" 
d="M256 643l91 -127h-31l-73 103l-73 -103h-31l91 127h26zM374 29v57c-27 -43 -81 -84 -146 -84c-129 0 -186 106 -186 225s57 225 186 225c65 0 119 -41 146 -84v76h30v-414c0 -136 -70 -209 -178 -209c-98 0 -158 49 -176 128h32c17 -68 71 -100 144 -100
c93 0 148 62 148 180zM374 130v194c-34 64 -88 99 -146 99c-98 0 -155 -81 -155 -196s57 -196 155 -196c58 0 112 35 146 99z" />
    <glyph glyph-name="gcommaaccent" unicode="&#x123;" horiz-adv-x="479" 
d="M276 650l-34 -70c11 -2 21 -10 21 -25s-11 -27 -26 -27s-26 12 -26 27c0 12 4 20 9 30l32 65h24zM374 29v57c-27 -43 -81 -84 -146 -84c-129 0 -186 106 -186 225s57 225 186 225c65 0 119 -41 146 -84v76h30v-414c0 -136 -70 -209 -178 -209c-98 0 -158 49 -176 128h32
c17 -68 71 -100 144 -100c93 0 148 62 148 180zM374 130v194c-34 64 -88 99 -146 99c-98 0 -155 -81 -155 -196s57 -196 155 -196c58 0 112 35 146 99z" />
    <glyph glyph-name="gdotaccent" unicode="&#x121;" horiz-adv-x="479" 
d="M266 579c0 -13 -9 -24 -23 -24s-23 11 -23 24s9 24 23 24s23 -11 23 -24zM374 29v57c-27 -43 -81 -84 -146 -84c-129 0 -186 106 -186 225s57 225 186 225c65 0 119 -41 146 -84v76h30v-414c0 -136 -70 -209 -178 -209c-98 0 -158 49 -176 128h32
c17 -68 71 -100 144 -100c93 0 148 62 148 180zM374 130v194c-34 64 -88 99 -146 99c-98 0 -155 -81 -155 -196s57 -196 155 -196c58 0 112 35 146 99z" />
    <glyph glyph-name="hbar" unicode="&#x127;" horiz-adv-x="479" 
d="M25 527v25h50v98h30v-98h121v-25h-121v-165c28 48 84 90 151 90c101 0 153 -63 153 -156v-296h-30v292c0 75 -38 131 -125 131c-68 0 -123 -49 -149 -105v-318h-30v527h-50z" />
    <glyph glyph-name="hcircumflex" unicode="&#x125;" horiz-adv-x="479" 
d="M75 0v650h30v-288c28 48 84 90 151 90c101 0 153 -63 153 -156v-296h-30v292c0 75 -38 131 -125 131c-68 0 -123 -49 -149 -105v-318h-30zM255 783l91 -117h-31l-73 92l-73 -92h-31l91 117h26z" />
    <glyph glyph-name="ibreve" unicode="&#x12d;" horiz-adv-x="180" 
d="M91 510c-47 0 -82 40 -82 114h26c0 -57 23 -89 56 -89s56 32 56 89h26c0 -74 -35 -114 -82 -114zM105 444v-444h-30v444h30z" />
    <glyph glyph-name="imacron" unicode="&#x12b;" horiz-adv-x="180" 
d="M105 444v-444h-30v444h30zM20 542v27h143v-27h-143z" />
    <glyph glyph-name="iogonek" unicode="&#x12f;" horiz-adv-x="180" 
d="M105 444v-444c-42 -74 -50 -98 -50 -124c0 -21 11 -31 26 -31s25 5 37 14v-25c-12 -9 -24 -13 -39 -13c-27 0 -51 16 -51 55c0 29 12 58 49 124h-2v444h30zM113 579c0 -13 -9 -24 -23 -24s-23 11 -23 24s9 24 23 24s23 -11 23 -24z" />
    <glyph glyph-name="itilde" unicode="&#x129;" horiz-adv-x="180" 
d="M157 619h23c0 -58 -17 -95 -47 -95c-41 0 -59 70 -85 70c-18 0 -25 -27 -25 -67h-23c0 57 17 95 47 95c41 0 59 -70 85 -70c18 0 25 27 25 67zM105 444v-444h-30v444h30z" />
    <glyph glyph-name="ij" unicode="&#x133;" horiz-adv-x="360" 
d="M105 444v-444h-30v444h30zM113 579c0 -13 -9 -24 -23 -24s-23 11 -23 24s9 24 23 24s23 -11 23 -24zM285 444v-517c0 -72 -40 -105 -99 -105c-7 0 -13 1 -17 2v28c4 -1 10 -2 17 -2c42 0 69 15 69 81v513h30zM293 579c0 -13 -9 -24 -23 -24s-23 11 -23 24s9 24 23 24
s23 -11 23 -24z" />
    <glyph glyph-name="jcircumflex" unicode="&#x135;" horiz-adv-x="180" 
d="M103 643l71 -127h-30l-54 100l-54 -100h-30l71 127h26zM105 444v-517c0 -72 -40 -105 -99 -105c-7 0 -13 1 -17 2v28c4 -1 10 -2 17 -2c42 0 69 15 69 81v513h30z" />
    <glyph glyph-name="kcommaaccent" unicode="&#x137;" horiz-adv-x="433" 
d="M375 0l-210 234l-60 -52v-182h-30v650h30v-432l258 226h43l-219 -191l226 -253h-38zM169 -170l34 70c-11 2 -21 10 -21 25s11 27 26 27s26 -12 26 -27c0 -12 -4 -20 -9 -30l-32 -65h-24z" />
    <glyph glyph-name="kgreenlandic" unicode="&#x138;" horiz-adv-x="433" 
d="M375 0l-210 234l-60 -52v-182h-30v444h30v-226l258 226h43l-219 -191l226 -253h-38z" />
    <glyph glyph-name="lacute" unicode="&#x13a;" horiz-adv-x="180" 
d="M105 650v-650h-30v650h30zM108 683h-33l85 117h33z" />
    <glyph glyph-name="lcaron" unicode="&#x13e;" horiz-adv-x="180" 
d="M105 650v-650h-30v650h30zM192 493h-26l32 157h26z" />
    <glyph glyph-name="lcommaaccent" unicode="&#x13c;" horiz-adv-x="180" 
d="M105 650v-650h-30v650h30zM51 -170l34 70c-11 2 -21 10 -21 25s11 27 26 27s26 -12 26 -27c0 -12 -4 -20 -9 -30l-32 -65h-24z" />
    <glyph glyph-name="ldot" unicode="&#x140;" horiz-adv-x="272" 
d="M105 650v-650h-30v650h30zM249 325c0 -13 -9 -24 -23 -24s-23 11 -23 24s9 24 23 24s23 -11 23 -24z" />
    <glyph glyph-name="nacute" unicode="&#x144;" horiz-adv-x="479" 
d="M75 0v444h30v-82c28 48 84 90 151 90c101 0 153 -63 153 -156v-296h-30v292c0 75 -38 131 -125 131c-68 0 -123 -49 -149 -105v-318h-30zM254 523h-33l85 127h33z" />
    <glyph glyph-name="ncaron" unicode="&#x148;" horiz-adv-x="479" 
d="M75 0v444h30v-82c28 48 84 90 151 90c101 0 153 -63 153 -156v-296h-30v292c0 75 -38 131 -125 131c-68 0 -123 -49 -149 -105v-318h-30zM346 645l-91 -127h-26l-91 127h31l73 -102l73 102h31z" />
    <glyph glyph-name="ncommaaccent" unicode="&#x146;" horiz-adv-x="479" 
d="M75 0v444h30v-82c28 48 84 90 151 90c101 0 153 -63 153 -156v-296h-30v292c0 75 -38 131 -125 131c-68 0 -123 -49 -149 -105v-318h-30zM210 -170l34 70c-11 2 -21 10 -21 25s11 27 26 27s26 -12 26 -27c0 -12 -4 -20 -9 -30l-32 -65h-24z" />
    <glyph glyph-name="eng" unicode="&#x14b;" horiz-adv-x="479" 
d="M379 -69v361c0 75 -38 131 -125 131c-68 0 -123 -49 -149 -105v-318h-30v444h30v-82c28 48 84 90 151 90c101 0 153 -63 153 -156v-369c0 -72 -40 -105 -99 -105c-7 0 -13 1 -17 2v28c4 -1 10 -2 17 -2c42 0 69 15 69 81z" />
    <glyph glyph-name="obreve" unicode="&#x14f;" horiz-adv-x="466" 
d="M424 222c0 -137 -76 -230 -191 -230s-191 93 -191 230s76 230 191 230s191 -93 191 -230zM393 222c0 122 -65 202 -160 202s-160 -80 -160 -202s65 -202 160 -202s160 80 160 202zM233 510c-53 0 -93 40 -93 114h27c0 -57 28 -89 66 -89s66 32 66 89h27
c0 -74 -40 -114 -93 -114z" />
    <glyph glyph-name="ohungarumlaut" unicode="&#x151;" horiz-adv-x="466" 
d="M424 222c0 -137 -76 -230 -191 -230s-191 93 -191 230s76 230 191 230s191 -93 191 -230zM393 222c0 122 -65 202 -160 202s-160 -80 -160 -202s65 -202 160 -202s160 80 160 202zM196 523h-31l79 127h31zM299 523h-31l79 127h31z" />
    <glyph glyph-name="omacron" unicode="&#x14d;" horiz-adv-x="466" 
d="M424 222c0 -137 -76 -230 -191 -230s-191 93 -191 230s76 230 191 230s191 -93 191 -230zM393 222c0 122 -65 202 -160 202s-160 -80 -160 -202s65 -202 160 -202s160 80 160 202zM137 542v27h193v-27h-193z" />
    <glyph glyph-name="oslashacute" unicode="&#x1ff;" horiz-adv-x="476" 
d="M46 -2l49 63c-31 40 -48 95 -48 161c0 137 76 230 191 230c50 0 93 -18 125 -50l43 55l21 -15l-47 -59c31 -40 49 -96 49 -161c0 -137 -76 -230 -191 -230c-51 0 -93 18 -126 49l-45 -58zM78 222c0 -56 13 -103 36 -137l231 294c-27 29 -64 45 -107 45
c-95 0 -160 -80 -160 -202zM398 222c0 55 -13 102 -37 136l-230 -294c27 -28 63 -44 107 -44c95 0 160 80 160 202zM249 523h-33l85 127h33z" />
    <glyph glyph-name="racute" unicode="&#x155;" horiz-adv-x="286" 
d="M268 447v-28c-10 3 -20 5 -34 5c-59 0 -104 -45 -129 -105v-319h-30v444h30v-81c22 49 69 89 129 89c15 0 24 -2 34 -5zM183 523h-33l85 127h33z" />
    <glyph glyph-name="rcaron" unicode="&#x159;" horiz-adv-x="286" 
d="M268 447v-28c-10 3 -20 5 -34 5c-59 0 -104 -45 -129 -105v-319h-30v444h30v-81c22 49 69 89 129 89c15 0 24 -2 34 -5zM275 645l-91 -127h-26l-91 127h31l73 -102l73 102h31z" />
    <glyph glyph-name="rcommaaccent" unicode="&#x157;" horiz-adv-x="286" 
d="M268 447v-28c-10 3 -20 5 -34 5c-59 0 -104 -45 -129 -105v-319h-30v444h30v-81c22 49 69 89 129 89c15 0 24 -2 34 -5zM49 -170l34 70c-11 2 -21 10 -21 25s11 27 26 27s26 -12 26 -27c0 -12 -4 -20 -9 -30l-32 -65h-24z" />
    <glyph glyph-name="sacute" unicode="&#x15b;" horiz-adv-x="387" 
d="M202 523h-33l85 127h33zM29 110h31c20 -61 70 -90 137 -90c66 0 120 28 120 92c0 44 -29 74 -93 92l-79 23c-63 18 -103 48 -103 109c0 76 67 116 143 116c87 0 143 -45 160 -117h-31c-20 61 -60 89 -129 89c-62 0 -113 -30 -113 -88c0 -50 32 -66 93 -84l72 -21
c76 -22 110 -64 110 -119c0 -77 -64 -120 -150 -120c-84 0 -153 43 -168 118z" />
    <glyph glyph-name="scedilla" unicode="&#x15f;" horiz-adv-x="387" 
d="M150 -170h-29l55 124h29zM29 110h31c20 -61 70 -90 137 -90c66 0 120 28 120 92c0 44 -29 74 -93 92l-79 23c-63 18 -103 48 -103 109c0 76 67 116 143 116c87 0 143 -45 160 -117h-31c-20 61 -60 89 -129 89c-62 0 -113 -30 -113 -88c0 -50 32 -66 93 -84l72 -21
c76 -22 110 -64 110 -119c0 -77 -64 -120 -150 -120c-84 0 -153 43 -168 118z" />
    <glyph glyph-name="scircumflex" unicode="&#x15d;" horiz-adv-x="387" 
d="M203 643l91 -127h-31l-73 103l-73 -103h-31l91 127h26zM29 110h31c20 -61 70 -90 137 -90c66 0 120 28 120 92c0 44 -29 74 -93 92l-79 23c-63 18 -103 48 -103 109c0 76 67 116 143 116c87 0 143 -45 160 -117h-31c-20 61 -60 89 -129 89c-62 0 -113 -30 -113 -88
c0 -50 32 -66 93 -84l72 -21c76 -22 110 -64 110 -119c0 -77 -64 -120 -150 -120c-84 0 -153 43 -168 118z" />
    <glyph glyph-name="scommaaccent" unicode="&#x219;" horiz-adv-x="387" 
d="M158 -170l34 70c-11 2 -21 10 -21 25s11 27 26 27s26 -12 26 -27c0 -12 -4 -20 -9 -30l-32 -65h-24zM29 110h31c20 -61 70 -90 137 -90c66 0 120 28 120 92c0 44 -29 74 -93 92l-79 23c-63 18 -103 48 -103 109c0 76 67 116 143 116c87 0 143 -45 160 -117h-31
c-20 61 -60 89 -129 89c-62 0 -113 -30 -113 -88c0 -50 32 -66 93 -84l72 -21c76 -22 110 -64 110 -119c0 -77 -64 -120 -150 -120c-84 0 -153 43 -168 118z" />
    <glyph glyph-name="tbar" unicode="&#x167;" horiz-adv-x="283" 
d="M27 257v27h66v132h-76v28h76v112h30v-112h120v-28h-120v-132h97v-27h-97v-158c0 -55 23 -79 68 -79c23 0 44 7 62 16v-30c-17 -8 -41 -14 -62 -14c-60 0 -98 33 -98 104v161h-66z" />
    <glyph glyph-name="tcaron" unicode="&#x165;" horiz-adv-x="283" 
d="M93 96v320h-76v28h76v112h30v-112h120v-28h-120v-317c0 -55 23 -79 68 -79c23 0 44 7 62 16v-30c-17 -8 -41 -14 -62 -14c-60 0 -98 33 -98 104zM209 503h-26l32 157h26z" />
    <glyph glyph-name="ubreve" unicode="&#x16d;" horiz-adv-x="477" 
d="M402 444v-444h-30v82c-28 -48 -82 -90 -149 -90c-101 0 -153 63 -153 156v296h30v-292c0 -75 38 -131 125 -131c68 0 121 49 147 105v318h30zM236 510c-53 0 -93 40 -93 114h27c0 -57 28 -89 66 -89s66 32 66 89h27c0 -74 -40 -114 -93 -114z" />
    <glyph glyph-name="uhungarumlaut" unicode="&#x171;" horiz-adv-x="477" 
d="M402 444v-444h-30v82c-28 -48 -82 -90 -149 -90c-101 0 -153 63 -153 156v296h30v-292c0 -75 38 -131 125 -131c68 0 121 49 147 105v318h30zM199 523h-31l79 127h31zM302 523h-31l79 127h31z" />
    <glyph glyph-name="umacron" unicode="&#x16b;" horiz-adv-x="477" 
d="M402 444v-444h-30v82c-28 -48 -82 -90 -149 -90c-101 0 -153 63 -153 156v296h30v-292c0 -75 38 -131 125 -131c68 0 121 49 147 105v318h30zM140 542v27h193v-27h-193z" />
    <glyph glyph-name="uogonek" unicode="&#x173;" horiz-adv-x="477" 
d="M402 444v-444c-42 -74 -50 -98 -50 -124c0 -21 11 -31 26 -31s25 5 37 14v-25c-12 -9 -24 -13 -39 -13c-27 0 -51 16 -51 55c0 29 12 58 49 124h-2v82c-28 -48 -82 -90 -149 -90c-101 0 -153 63 -153 156v296h30v-292c0 -75 38 -131 125 -131c68 0 121 49 147 105v318h30
z" />
    <glyph glyph-name="uring" unicode="&#x16f;" horiz-adv-x="477" 
d="M402 444v-444h-30v82c-28 -48 -82 -90 -149 -90c-101 0 -153 63 -153 156v296h30v-292c0 -75 38 -131 125 -131c68 0 121 49 147 105v318h30zM313 580c0 -43 -34 -77 -77 -77s-77 34 -77 77s34 77 77 77s77 -34 77 -77zM288 580c0 29 -23 52 -52 52s-52 -23 -52 -52
s23 -52 52 -52s52 23 52 52z" />
    <glyph glyph-name="utilde" unicode="&#x169;" horiz-adv-x="477" 
d="M402 444v-444h-30v82c-28 -48 -82 -90 -149 -90c-101 0 -153 63 -153 156v296h30v-292c0 -75 38 -131 125 -131c68 0 121 49 147 105v318h30zM329 619h26c0 -58 -22 -95 -63 -95c-53 0 -73 70 -110 70c-25 0 -38 -27 -38 -67h-26c0 57 22 95 63 95c53 0 72 -70 110 -70
c25 0 38 27 38 67z" />
    <glyph glyph-name="wacute" unicode="&#x1e83;" horiz-adv-x="586" 
d="M304 444l116 -385l119 385h29l-136 -444h-21l-118 389l-118 -389h-21l-136 444h29l119 -385l116 385h22zM305 523h-33l85 127h33z" />
    <glyph glyph-name="wcircumflex" unicode="&#x175;" horiz-adv-x="586" 
d="M304 444l116 -385l119 385h29l-136 -444h-21l-118 389l-118 -389h-21l-136 444h29l119 -385l116 385h22zM306 643l91 -127h-31l-73 103l-73 -103h-31l91 127h26z" />
    <glyph glyph-name="wgrave" unicode="&#x1e81;" horiz-adv-x="586" 
d="M304 444l116 -385l119 385h29l-136 -444h-21l-118 389l-118 -389h-21l-136 444h29l119 -385l116 385h22zM310 523h-33l-85 127h33z" />
    <glyph glyph-name="wdieresis" unicode="&#x1e85;" horiz-adv-x="586" 
d="M304 444l116 -385l119 385h29l-136 -444h-21l-118 389l-118 -389h-21l-136 444h29l119 -385l116 385h22zM213 570c0 13 10 23 23 23s23 -10 23 -23s-10 -23 -23 -23s-23 10 -23 23zM327 570c0 13 10 23 23 23s23 -10 23 -23s-10 -23 -23 -23s-23 10 -23 23z" />
    <glyph glyph-name="ycircumflex" unicode="&#x177;" horiz-adv-x="416" 
d="M149 -170h-31l75 183l-175 431h33l157 -394l158 394h32zM221 643l91 -127h-31l-73 103l-73 -103h-31l91 127h26z" />
    <glyph glyph-name="ygrave" unicode="&#x1ef3;" horiz-adv-x="416" 
d="M149 -170h-31l75 183l-175 431h33l157 -394l158 394h32zM225 523h-33l-85 127h33z" />
    <glyph glyph-name="zacute" unicode="&#x17a;" horiz-adv-x="403" 
d="M365 28v-28h-327v24l287 392h-284v28h321v-24l-286 -392h289zM217 523h-33l85 127h33z" />
    <glyph glyph-name="zdotaccent" unicode="&#x17c;" horiz-adv-x="403" 
d="M365 28v-28h-327v24l287 392h-284v28h321v-24l-286 -392h289zM228 579c0 -13 -9 -24 -23 -24s-23 11 -23 24s9 24 23 24s23 -11 23 -24z" />
    <glyph glyph-name="caron.Slovak" 
d="M247 493h-26l32 157h26z" />
    <glyph glyph-name="cedilla.alt" 
d="M235 -170h-29l55 124h29z" />
    <glyph glyph-name="grave.cap" 
d="M309 663h-33l-85 117h33z" />
    <glyph glyph-name="acute.cap" 
d="M224 663h-33l85 117h33z" />
    <glyph glyph-name="circumflex.cap" 
d="M263 783l91 -117h-31l-73 92l-73 -92h-31l91 117h26z" />
    <glyph glyph-name="caron.cap" 
d="M237 656l-91 117h31l73 -92l73 92h31l-91 -117h-26z" />
    <glyph glyph-name="tilde.cap" 
d="M342 759h26c0 -58 -22 -95 -63 -95c-53 0 -73 70 -110 70c-25 0 -38 -27 -38 -67h-26c0 57 22 95 63 95c53 0 72 -70 110 -70c25 0 38 27 38 67z" />
    <glyph glyph-name="macron.cap" 
d="M153 670v27h193v-27h-193z" />
    <glyph glyph-name="breve.cap" 
d="M250 663c-53 0 -93 40 -93 114h27c0 -57 28 -89 66 -89s66 32 66 89h27c0 -74 -40 -114 -93 -114z" />
    <glyph glyph-name="dotaccent.cap" 
d="M273 709c0 -13 -9 -24 -23 -24s-23 11 -23 24s9 24 23 24s23 -11 23 -24z" />
    <glyph glyph-name="dieresis.cap" 
d="M170 710c0 13 10 23 23 23s23 -10 23 -23s-10 -23 -23 -23s-23 10 -23 23zM284 710c0 13 10 23 23 23s23 -10 23 -23s-10 -23 -23 -23s-23 10 -23 23z" />
    <glyph glyph-name="ring.cap" 
d="M327 724c0 -43 -34 -77 -77 -77s-77 34 -77 77s34 77 77 77s77 -34 77 -77zM302 724c0 29 -23 52 -52 52s-52 -23 -52 -52s23 -52 52 -52s52 23 52 52z" />
    <glyph glyph-name="hungarumlaut.cap" 
d="M174 663h-31l79 117h31zM277 663h-31l79 117h31z" />
    <glyph glyph-name="exclamdown.cap" horiz-adv-x="208" 
d="M78 589c0 15 12 27 26 27s26 -12 26 -27s-12 -27 -26 -27s-26 12 -26 27zM88 0l4 422h24l4 -422h-32z" />
    <glyph glyph-name="questiondown.cap" horiz-adv-x="415" 
d="M219 589c0 -15 -12 -27 -26 -27s-26 12 -26 27s12 27 26 27s26 -12 26 -27zM30 154c0 73 56 126 104 180c31 35 42 56 44 87h28c-3 -42 -19 -68 -50 -104c-38 -44 -96 -93 -96 -163c0 -85 58 -133 142 -133c96 0 152 65 162 162h31c-11 -114 -82 -191 -193 -191
c-105 0 -172 65 -172 162z" />
    <glyph glyph-name="guilsinglleft.cap" horiz-adv-x="175" 
d="M150 184h-33l-92 128l92 128h33l-92 -128z" />
    <glyph glyph-name="guilsinglright.cap" horiz-adv-x="175" 
d="M58 184h-33l92 128l-92 128h33l92 -128z" />
    <glyph glyph-name="guillemotleft.cap" horiz-adv-x="282" 
d="M150 184h-33l-92 128l92 128h33l-92 -128zM257 184h-33l-92 128l92 128h33l-92 -128z" />
    <glyph glyph-name="guillemotright.cap" horiz-adv-x="282" 
d="M165 184h-33l92 128l-92 128h33l92 -128zM58 184h-33l92 128l-92 128h33l92 -128z" />
    <glyph glyph-name="slash.cap" horiz-adv-x="287" 
d="M5 -64l248 734h29l-248 -734h-29z" />
    <glyph glyph-name="backslash.cap" horiz-adv-x="287" 
d="M34 670l248 -734h-29l-248 734h29z" />
    <glyph glyph-name="bar.cap" horiz-adv-x="195" 
d="M83 -64v734h29v-734h-29z" />
    <glyph glyph-name="periodcentered.cap" horiz-adv-x="132" 
d="M40 300c0 15 12 27 26 27s26 -12 26 -27s-12 -27 -26 -27s-26 12 -26 27z" />
    <glyph glyph-name="bullet.cap" horiz-adv-x="325" 
d="M285 299c0 -71 -54 -122 -123 -122c-68 0 -122 51 -122 122s54 122 122 122c69 0 123 -51 123 -122z" />
    <glyph glyph-name="hyphen.cap" horiz-adv-x="321" 
d="M40 284v29h241v-29h-241z" />
    <glyph glyph-name="endash.cap" horiz-adv-x="475" 
d="M40 285v27h395v-27h-395z" />
    <glyph glyph-name="emdash.cap" horiz-adv-x="846" 
d="M40 285v27h766v-27h-766z" />
    <glyph glyph-name="parenleft.cap" horiz-adv-x="328" 
d="M30 298c0 183 104 324 268 367v-28c-126 -31 -238 -156 -238 -339s112 -308 238 -339v-28c-164 43 -268 184 -268 367z" />
    <glyph glyph-name="parenright.cap" horiz-adv-x="328" 
d="M298 298c0 -183 -104 -324 -268 -367v28c126 31 238 156 238 339s-112 308 -238 339v28c164 -43 268 -184 268 -367z" />
    <glyph glyph-name="bracketleft.cap" horiz-adv-x="310" 
d="M112 637v-678h168v-28h-197v734h197v-28h-168z" />
    <glyph glyph-name="bracketright.cap" horiz-adv-x="310" 
d="M198 -41v678h-168v28h197v-734h-197v28h168z" />
    <glyph glyph-name="braceleft.cap" horiz-adv-x="330" 
d="M135 233v-223c0 -35 17 -51 47 -51h118v-28h-118c-44 0 -76 32 -76 79v223c0 33 -15 51 -47 51h-39v28h39c32 0 47 17 47 51v223c0 47 32 79 76 79h118v-28h-118c-30 0 -47 -16 -47 -51v-223c0 -29 -15 -52 -37 -65c22 -14 37 -37 37 -65z" />
    <glyph glyph-name="braceright.cap" horiz-adv-x="330" 
d="M195 10v223c0 28 15 51 37 65c-22 13 -37 36 -37 65v223c0 35 -17 51 -47 51h-118v28h118c44 0 76 -32 76 -79v-223c0 -34 15 -51 47 -51h39v-28h-39c-32 0 -47 -18 -47 -51v-223c0 -47 -32 -79 -76 -79h-118v28h118c30 0 47 16 47 51z" />
    <glyph glyph-name="at.cap" horiz-adv-x="774" 
d="M540 471l-47 -264c-9 -52 18 -64 53 -64c87 0 159 74 159 215c0 151 -120 264 -295 264c-205 0 -341 -157 -341 -346c0 -216 167 -311 342 -311c83 0 159 21 204 44v-29c-49 -22 -122 -42 -204 -42c-189 0 -371 101 -371 338c0 206 149 374 370 374
c193 0 324 -126 324 -292c0 -161 -91 -242 -188 -242c-46 0 -81 23 -84 65c-25 -31 -67 -62 -114 -62c-86 0 -127 64 -127 145c0 107 70 214 179 214c52 0 88 -33 102 -64l10 57h28zM468 225l26 149c-16 44 -49 77 -93 77c-94 0 -152 -99 -152 -187c0 -74 40 -118 99 -118
c51 0 89 34 120 79z" />
    <glyph glyph-name="Euro.lt" horiz-adv-x="520" 
d="M19 346v27h78c18 157 104 249 215 249c91 0 159 -66 179 -165h-30c-23 83 -73 136 -149 136c-96 0 -166 -83 -183 -220h217l-7 -27h-213c-1 -13 -1 -26 -1 -39c0 -15 1 -30 2 -44h199l-7 -27h-190c18 -135 88 -215 183 -215c76 0 126 53 149 136h30
c-20 -99 -88 -165 -179 -165c-109 0 -195 90 -215 244h-78v27h75c-1 14 -1 29 -1 44c0 13 0 26 1 39h-75z" />
    <glyph glyph-name="dollar.lt" horiz-adv-x="520" 
d="M249 -82v98c-88 5 -160 50 -185 128h33c27 -66 87 -100 166 -100c88 0 158 44 158 124c0 54 -27 92 -104 115l-110 32c-79 23 -129 59 -129 136c0 94 80 145 171 147v89h28v-90c91 -8 148 -60 169 -133h-31c-24 65 -75 106 -162 106c-79 0 -146 -41 -146 -119
c0 -68 47 -90 122 -112l92 -27c94 -28 130 -73 130 -144c0 -93 -78 -147 -174 -152v-98h-28z" />
    <glyph glyph-name="cent.lt" horiz-adv-x="520" 
d="M78 232c0 134 72 225 183 230v87h28v-88c78 -7 128 -59 145 -132h-33c-15 64 -61 105 -131 105c-95 0 -161 -80 -161 -202s66 -202 161 -202c70 0 116 41 131 105h33c-17 -73 -67 -125 -145 -132v-85h-28v84c-111 4 -183 95 -183 230z" />
    <glyph glyph-name="sterling.lt" horiz-adv-x="520" 
d="M175 422v-106h180v-26h-180v-169c0 -35 -10 -71 -25 -91h315v-30h-414v30h68c15 24 26 47 26 91v169h-94v26h94v106c0 128 69 200 168 200c88 0 140 -50 156 -124h-32c-14 60 -54 95 -124 95c-80 0 -138 -57 -138 -171z" />
    <glyph glyph-name="yen.lt" horiz-adv-x="520" 
d="M87 261v27h157l-204 326h35l185 -298l185 298h34l-204 -326h157v-27h-157v-83h157v-27h-157v-151h-31v151h-157v27h157v83h-157z" />
    <glyph glyph-name="florin.lt" horiz-adv-x="520" 
d="M180 306v26h76l29 160c13 74 54 130 122 130c20 0 40 -4 57 -12v-30c-18 9 -35 14 -57 14c-50 0 -80 -40 -92 -106l-28 -156h108v-26h-112l-63 -355c-12 -67 -42 -121 -110 -121c-20 0 -38 4 -55 12v30c18 -9 33 -14 55 -14c50 0 70 40 80 97l62 351h-72z" />
    <glyph glyph-name="zero.lt" horiz-adv-x="520" 
d="M260 -8c-134 0 -221 128 -221 315s87 315 221 315s221 -128 221 -315s-87 -315 -221 -315zM260 593c-116 0 -190 -117 -190 -286s74 -286 190 -286s190 117 190 286s-74 286 -190 286z" />
    <glyph glyph-name="one.lt" horiz-adv-x="520" 
d="M70 0v30h197v548l-189 -98v33l200 103h20v-586h169v-30h-397z" />
    <glyph glyph-name="two.lt" horiz-adv-x="520" 
d="M404 457c0 85 -60 136 -147 136c-102 0 -158 -67 -169 -164h-31c12 114 84 193 200 193c108 0 177 -68 177 -165c0 -82 -64 -142 -126 -211l-210 -216h353v-30h-398v22l237 249c67 70 114 118 114 186z" />
    <glyph glyph-name="three.lt" horiz-adv-x="520" 
d="M207 302v29h51c81 0 147 49 147 130c0 79 -64 132 -154 132c-80 0 -143 -49 -162 -131h-32c18 97 95 160 194 160c115 0 186 -67 186 -161c0 -77 -59 -135 -129 -144c73 -7 143 -59 143 -152c0 -94 -72 -173 -196 -173c-113 0 -189 63 -206 166h32
c19 -88 83 -137 174 -137c100 0 164 57 164 144s-76 137 -161 137h-51z" />
    <glyph glyph-name="four.lt" horiz-adv-x="520" 
d="M317 614l-242 -425h256v155h30v-155h121v-30h-121v-159h-30v159h-293v27l245 428h34z" />
    <glyph glyph-name="five.lt" horiz-adv-x="520" 
d="M258 355c-58 0 -103 -28 -131 -62h-30v321h329v-30h-299v-253c26 26 73 53 131 53c113 0 198 -89 198 -197c0 -106 -85 -195 -198 -195s-187 59 -210 167h32c22 -91 84 -138 178 -138s166 74 166 166s-72 168 -166 168z" />
    <glyph glyph-name="six.lt" horiz-adv-x="520" 
d="M103 196c0 -98 75 -175 173 -175c96 0 174 75 174 175c0 99 -78 174 -174 174c-97 0 -173 -75 -173 -174zM464 478h-31c-22 66 -66 115 -154 115c-106 0 -195 -104 -195 -292c0 -16 1 -36 3 -56c18 93 98 154 189 154c113 0 204 -88 204 -203s-91 -204 -204 -204
c-93 0 -152 49 -185 116c-28 57 -36 128 -36 193c0 212 103 321 224 321c104 0 163 -60 185 -144z" />
    <glyph glyph-name="seven.lt" horiz-adv-x="520" 
d="M463 587l-232 -587h-32l232 584h-385v30h417v-27z" />
    <glyph glyph-name="eight.lt" horiz-adv-x="520" 
d="M259 20c106 0 180 67 180 148s-74 148 -180 148c-105 0 -178 -67 -178 -148s73 -148 178 -148zM259 344c92 0 151 58 151 125s-59 125 -151 125c-90 0 -150 -58 -150 -125s60 -125 150 -125zM259 -8c-122 0 -208 78 -208 176c0 75 52 140 135 163
c-67 22 -107 77 -107 138c0 83 72 153 180 153c110 0 181 -70 181 -153c0 -61 -40 -116 -107 -138c83 -23 136 -88 136 -163c0 -98 -87 -176 -210 -176z" />
    <glyph glyph-name="nine.lt" horiz-adv-x="520" 
d="M417 418c0 98 -75 175 -173 175c-96 0 -174 -75 -174 -175c0 -99 78 -174 174 -174c97 0 173 75 173 174zM56 136h31c22 -66 66 -115 154 -115c106 0 195 104 195 292c0 16 -1 36 -3 56c-18 -93 -98 -154 -189 -154c-113 0 -204 88 -204 203s91 204 204 204
c93 0 152 -49 185 -116c28 -57 36 -128 36 -193c0 -212 -103 -321 -224 -321c-104 0 -163 60 -185 144z" />
    <glyph glyph-name="period.tab" horiz-adv-x="260" 
d="M104 25c0 15 12 27 26 27s26 -12 26 -27s-12 -27 -26 -27s-26 12 -26 27z" />
    <glyph glyph-name="comma.tab" horiz-adv-x="260" 
d="M78 -97l47 97c-11 2 -21 10 -21 25s11 27 26 27s26 -12 26 -27c0 -12 -4 -20 -9 -30l-45 -92h-24z" />
    <glyph glyph-name="colon.tab" horiz-adv-x="260" 
d="M104 25c0 15 12 27 26 27s26 -12 26 -27s-12 -27 -26 -27s-26 12 -26 27zM104 365c0 15 12 27 26 27s26 -12 26 -27s-12 -27 -26 -27s-26 12 -26 27z" />
    <glyph glyph-name="semicolon.tab" horiz-adv-x="260" 
d="M78 -97l47 97c-11 2 -21 10 -21 25s11 27 26 27s26 -12 26 -27c0 -12 -4 -20 -9 -30l-45 -92h-24zM104 365c0 15 12 27 26 27s26 -12 26 -27s-12 -27 -26 -27s-26 12 -26 27z" />
    <glyph glyph-name="space.tab" horiz-adv-x="260" 
 />
    <glyph glyph-name="uni2153" unicode="&#x2153;" horiz-adv-x="645" 
d="M518 614l-409 -614h-30l409 614h30zM461 156v25h25c37 0 67 23 67 63c0 36 -28 62 -69 62c-38 0 -66 -25 -73 -64h-29c8 54 48 91 102 91c61 0 98 -37 98 -88c0 -39 -26 -69 -59 -76c37 -7 66 -36 66 -79c0 -52 -38 -95 -103 -95c-62 0 -102 36 -110 94h31
c7 -42 35 -67 79 -67s73 27 73 68s-33 66 -73 66h-25zM166 616v-329h-29v293l-85 -44v31l96 49h18z" />
    <glyph glyph-name="uni2154" unicode="&#x2154;" horiz-adv-x="694" 
d="M567 614l-409 -614h-30l409 614h30zM220 527c0 39 -26 64 -66 64c-46 0 -71 -32 -75 -77h-30c6 61 45 104 105 104c58 0 95 -37 95 -91c0 -42 -33 -75 -66 -112l-95 -103h165v-27h-205v20l113 125c34 37 59 63 59 97zM510 156v25h25c37 0 67 23 67 63c0 36 -28 62 -69 62
c-38 0 -66 -25 -73 -64h-29c8 54 48 91 102 91c61 0 98 -37 98 -88c0 -39 -26 -69 -59 -76c37 -7 66 -36 66 -79c0 -52 -38 -95 -103 -95c-62 0 -102 36 -110 94h31c7 -42 35 -67 79 -67s73 27 73 68s-33 66 -73 66h-25z" />
    <glyph glyph-name="uni215B" unicode="&#x215b;" horiz-adv-x="638" 
d="M518 614l-409 -614h-30l409 614h30zM476 20c48 0 82 31 82 71s-34 71 -82 71c-49 0 -82 -31 -82 -71s33 -71 82 -71zM476 187c40 0 69 26 69 60s-29 61 -69 61c-41 0 -70 -27 -70 -61s29 -60 70 -60zM476 -5c-64 0 -111 40 -111 95c0 41 28 74 67 84
c-32 12 -54 40 -54 74c0 49 41 85 98 85c56 0 97 -36 97 -85c0 -34 -22 -62 -54 -74c39 -10 67 -43 67 -84c0 -55 -47 -95 -110 -95zM166 616v-329h-29v293l-85 -44v31l96 49h18z" />
    <glyph glyph-name="uni215C" unicode="&#x215c;" horiz-adv-x="680" 
d="M518 20c48 0 82 31 82 71s-34 71 -82 71c-49 0 -82 -31 -82 -71s33 -71 82 -71zM518 187c40 0 69 26 69 60s-29 61 -69 61c-41 0 -70 -27 -70 -61s29 -60 70 -60zM518 -5c-64 0 -111 40 -111 95c0 41 28 74 67 84c-32 12 -54 40 -54 74c0 49 41 85 98 85
c56 0 97 -36 97 -85c0 -34 -22 -62 -54 -74c39 -10 67 -43 67 -84c0 -55 -47 -95 -110 -95zM560 614l-409 -614h-30l409 614h30zM133 443v25h25c37 0 67 23 67 63c0 36 -28 62 -69 62c-38 0 -66 -25 -73 -64h-29c8 54 48 91 102 91c61 0 98 -37 98 -88
c0 -39 -26 -69 -59 -76c37 -7 66 -36 66 -79c0 -52 -38 -95 -103 -95c-62 0 -102 36 -110 94h31c7 -42 35 -67 79 -67s73 27 73 68s-33 66 -73 66h-25z" />
    <glyph glyph-name="uni215D" unicode="&#x215d;" horiz-adv-x="680" 
d="M518 20c48 0 82 31 82 71s-34 71 -82 71c-49 0 -82 -31 -82 -71s33 -71 82 -71zM518 187c40 0 69 26 69 60s-29 61 -69 61c-41 0 -70 -27 -70 -61s29 -60 70 -60zM518 -5c-64 0 -111 40 -111 95c0 41 28 74 67 84c-32 12 -54 40 -54 74c0 49 41 85 98 85
c56 0 97 -36 97 -85c0 -34 -22 -62 -54 -74c39 -10 67 -43 67 -84c0 -55 -47 -95 -110 -95zM560 614l-409 -614h-30l409 614h30zM160 470c-28 0 -49 -14 -62 -31h-26v176h175v-27h-149v-116c12 12 35 24 63 24c60 0 103 -47 103 -107s-43 -107 -104 -107s-101 35 -111 94h30
c9 -43 37 -67 81 -67s76 35 76 80s-32 81 -76 81z" />
    <glyph glyph-name="uni215E" unicode="&#x215e;" horiz-adv-x="618" 
d="M456 20c48 0 82 31 82 71s-34 71 -82 71c-49 0 -82 -31 -82 -71s33 -71 82 -71zM456 187c40 0 69 26 69 60s-29 61 -69 61c-41 0 -70 -27 -70 -61s29 -60 70 -60zM456 -5c-64 0 -111 40 -111 95c0 41 28 74 67 84c-32 12 -54 40 -54 74c0 49 41 85 98 85
c56 0 97 -36 97 -85c0 -34 -22 -62 -54 -74c39 -10 67 -43 67 -84c0 -55 -47 -95 -110 -95zM498 614l-409 -614h-30l409 614h30zM254 590l-120 -304h-30l120 301h-178v27h208v-24z" />
    <glyph glyph-name="percent.lt" horiz-adv-x="520" 
d="M18 499c0 68 54 123 122 123s123 -55 123 -123s-55 -122 -123 -122s-122 54 -122 122zM46 499c0 -52 42 -94 94 -94c53 0 95 42 95 94c0 53 -42 95 -95 95c-52 0 -94 -42 -94 -95zM503 115c0 -68 -54 -123 -122 -123s-123 55 -123 123s55 122 123 122s122 -54 122 -122z
M475 115c0 52 -42 94 -94 94c-53 0 -95 -42 -95 -94c0 -53 42 -95 95 -95c52 0 94 42 94 95zM41 0l409 614h30l-409 -614h-30z" />
    <glyph glyph-name="perthousand.lt" horiz-adv-x="800" 
d="M41 0l409 614h30l-409 -614h-30zM46 499c0 -52 42 -94 94 -94c53 0 95 42 95 94c0 53 -42 95 -95 95c-52 0 -94 -42 -94 -95zM503 115c0 -68 -54 -123 -122 -123s-123 55 -123 123s55 122 123 122s122 -54 122 -122zM475 115c0 52 -42 94 -94 94c-53 0 -95 -42 -95 -94
c0 -53 42 -95 95 -95c52 0 94 42 94 95zM18 499c0 68 54 123 122 123s123 -55 123 -123s-55 -122 -123 -122s-122 54 -122 122zM783 115c0 -68 -54 -123 -122 -123s-123 55 -123 123s55 122 123 122s122 -54 122 -122zM755 115c0 52 -42 94 -94 94c-53 0 -95 -42 -95 -94
c0 -53 42 -95 95 -95c52 0 94 42 94 95z" />
    <glyph glyph-name="plus.lt" horiz-adv-x="520" 
d="M245 470h29v-163h163v-29h-163v-163h-29v163h-163v29h163v163z" />
    <glyph glyph-name="minus.lt" horiz-adv-x="520" 
d="M82 278v29h355v-29h-355z" />
    <glyph glyph-name="multiply.lt" horiz-adv-x="520" 
d="M241 290l-121 122l20 19l120 -122l120 122l20 -19l-120 -122l120 -122l-20 -19l-120 121l-120 -121l-20 19z" />
    <glyph glyph-name="divide.lt" horiz-adv-x="520" 
d="M82 278v29h355v-29h-355zM233 440c0 15 12 27 26 27s26 -12 26 -27s-12 -27 -26 -27s-26 12 -26 27zM233 146c0 15 12 27 26 27s26 -12 26 -27s-12 -27 -26 -27s-26 12 -26 27z" />
    <glyph glyph-name="equal.lt" horiz-adv-x="520" 
d="M82 219v29h356v-29h-356zM82 339v29h356v-29h-356z" />
    <glyph glyph-name="less.lt" horiz-adv-x="520" 
d="M130 279v24l259 149v-32l-228 -129l228 -129v-32z" />
    <glyph glyph-name="greater.lt" horiz-adv-x="520" 
d="M389 303v-24l-259 -149v32l228 129l-228 129v32z" />
    <glyph glyph-name="plusminus.lt" horiz-adv-x="520" 
d="M245 478h29v-123h163v-29h-163v-123h-29v123h-163v29h163v123zM82 116v29h355v-29h-355z" />
    <glyph glyph-name="lessequal.lt" horiz-adv-x="520" 
d="M130 309v24l259 112v-31l-220 -93l220 -94v-30zM130 126v29h259v-29h-259z" />
    <glyph glyph-name="greaterequal.lt" horiz-adv-x="520" 
d="M389 333v-24l-259 -112v30l220 94l-220 93v31zM389 155v-29h-259v29h259z" />
    <glyph glyph-name="notequal.lt" horiz-adv-x="520" 
d="M82 339v28h220l71 87h35l-71 -87h101v-28h-123l-74 -91h197v-28h-220l-71 -88h-35l71 88h-101v28h124l74 91h-198z" />
    <glyph glyph-name="approxequal.lt" horiz-adv-x="520" 
d="M82 301v34c34 35 66 48 95 48c62 0 105 -51 163 -51c29 0 63 15 98 52v-34c-35 -36 -69 -48 -98 -48c-61 0 -104 51 -163 51c-29 0 -61 -17 -95 -52zM82 203v34c34 35 66 48 95 48c62 0 105 -51 163 -51c29 0 63 15 98 52v-34c-35 -36 -69 -48 -98 -48
c-61 0 -104 51 -163 51c-29 0 -61 -17 -95 -52z" />
    </font>
</defs>
</svg>
