<?xml version="1.0" standalone="no"?>
<!DOCTYPE svg PUBLIC "-//W3C//DTD SVG 1.1//EN" "http://www.w3.org/Graphics/SVG/1.1/DTD/svg11.dtd" >
<svg xmlns="http://www.w3.org/2000/svg">
<metadata>
Created by FontPrep 20130207 at Tue Oct  7 18:26:16 2014
 By Casey Gollan
(c) 2010 Klim Type Foundry. All rights reserved.
</metadata>
<defs>
<font id="b63e14a9f3aa888a65df106f785ca79d" horiz-adv-x='1024' >
  <font-face 
    font-family="TiemposText-RegularItalic"
    font-weight="400"
    font-style="italic"
    font-stretch="normal"
    units-per-em="2048"
    panose-1="2 2 5 3 6 3 3 13 4 3"
    ascent="1559"
    descent="-489"
    x-height="1106"
    cap-height="1438"
    bbox="-430 -471 2497 2105"
    underline-thickness="61"
    underline-position="-164"
    slope="-12"
    unicode-range="U+0020-FB04"
  />
<missing-glyph horiz-adv-x="1966" 
 />
    <glyph glyph-name="ff" unicode="ff" horiz-adv-x="1304" 
d="M753 1475q-91 1 -166 -89t-91 -305h446q20 111 64 215q-34 70 -98 124t-155 55zM-123 -424q-82 0 -133 34t-51 91q0 96 108 123h29q33 -160 123 -160q37 0 61 28t62 146q37 118 76 346l137 803h-166l12 70l174 41q43 221 169 336q126 114 300 114t303 -125
q115 145 293 146q100 0 158 -42t59 -110q0 -98 -98 -127h-39q-4 86 -40 142t-102 57q-141 0 -182 -408h252l-12 -94h-250l-133 -653q-84 -408 -189 -571t-278 -162q-76 -1 -120 33t-44 92q0 94 105 118h28q16 -82 40 -118t64 -37q41 -1 65 27t61 147t76 346l131 778h-441
l-141 -678q-86 -409 -190 -571t-277 -162z" />
    <glyph glyph-name="fi" unicode="fi" horiz-adv-x="1290" 
d="M807 1569q117 0 187 -42t71 -110q0 -45 -31 -79t-78 -48h-24q-43 199 -166 199q-96 0 -174 -95t-98 -313h512l94 33h53l-215 -876q-18 -70 -18 -91q0 -31 28 -30q66 0 191 153l41 -43q-92 -137 -165 -192t-141 -55t-104 38q-35 38 -35 96q0 60 29 181l172 692h-449
l-143 -678q-86 -409 -190 -571t-277 -162q-82 0 -133 34t-51 91q0 96 108 123h29q33 -160 123 -160q37 0 61 28t62 146q37 118 76 346l137 803h-166l12 70l174 41q43 219 178 345t320 126z" />
    <glyph glyph-name="fl" unicode="fl" horiz-adv-x="1261" 
d="M767 1569q161 0 269 -101l154 91h47l-303 -1321q-14 -58 -14 -90t28 -31q66 0 191 153l41 -43q-92 -137 -165 -192t-141 -55t-104 38q-35 38 -35 100q0 64 27 177l231 1028q-29 68 -90 120t-150 52t-166 -98t-93 -316h251l-12 -94h-246l-143 -678q-86 -409 -190 -571
t-277 -162q-82 0 -133 34t-51 91q0 96 108 123h29q33 -160 123 -160q37 0 61 28t62 146q37 118 76 346l137 803h-166l12 70l174 41q43 225 170 348t288 123z" />
    <glyph glyph-name="ffi" unicode="ffi" horiz-adv-x="1927" 
d="M754 1475q-92 1 -167 -89t-91 -305h446q23 115 68 207q-32 72 -98 130t-158 57zM-123 -424q-82 0 -133 34t-51 91q0 96 108 123h29q33 -160 123 -160q37 0 61 28t62 146q37 118 76 346l137 803h-166l12 70l174 41q43 221 169 336t298 114q92 0 178 -41t140 -96
q139 158 350 158q118 0 188 -42t70 -110q0 -45 -31 -79t-78 -48h-24q-43 199 -166 199q-96 0 -174 -95t-99 -313h512l95 33h53l-215 -876q-19 -70 -19 -96t29 -25q66 0 191 153l41 -43q-92 -137 -165 -192q-74 -55 -142 -55t-103 38t-35 96q0 60 29 181l172 692h-453
l-133 -653q-84 -408 -189 -571t-278 -162q-76 -1 -120 33t-44 92q0 94 105 118h28q16 -82 40 -118t64 -37q41 -1 65 27t61 148t76 345l131 778h-441l-141 -678q-86 -409 -190 -571t-277 -162z" />
    <glyph glyph-name="ffl" unicode="ffl" horiz-adv-x="1898" 
d="M942 1081q20 117 66 209q-31 70 -97 127q-65 57 -157 57t-167 -88q-75 -90 -91 -305h446zM356 -274q0 94 105 118h28q16 -82 40 -118t64 -37q41 -1 65 27t61 147t76 346l131 778h-441l-141 -678q-86 -409 -190 -571t-277 -162q-82 0 -133 34t-51 91q0 96 108 123h29
q33 -160 123 -160q37 0 61 28t62 146q37 118 76 346l137 803h-166l12 70l174 41q43 221 169 336t298 114q90 0 175 -39t139 -94q131 154 323 154q152 0 260 -101l154 91h47l-303 -1321q-15 -58 -15 -90t29 -31q66 0 191 153l41 -43q-92 -137 -165 -192q-74 -55 -142 -55
t-103 38t-35 100q0 64 27 177l231 1028q-29 68 -90 120t-150 52t-166 -98t-94 -316h252l-12 -94h-250l-133 -653q-84 -408 -189 -571t-278 -162q-76 -1 -120 33t-44 92z" />
    <glyph glyph-name="f_b" unicode="fb" horiz-adv-x="1837" 
d="M1458 969q-111 -1 -291 -225t-245 -519q0 -71 41 -115t106 -44q127 0 247 114t191 286q72 171 72 337t-121 166zM767 1569q161 0 269 -101l154 91h47l-160 -687l-106 -305h14q301 539 557 539q109 0 167 -80t58 -226q1 -146 -65 -302q-127 -304 -395 -449
q-127 -69 -248 -69t-206 62t-110 175l250 1106q-29 68 -90 120t-150 52t-166 -98t-93 -316h251l-12 -94h-246l-143 -678q-86 -409 -190 -571t-277 -162q-82 0 -133 34t-51 91q0 96 108 123h29q33 -160 123 -160q37 0 61 28t62 146q37 118 76 346l137 803h-166l12 70l174 41
q43 225 170 348t288 123z" />
    <glyph glyph-name="f_f_b" unicode="ffb" horiz-adv-x="2473" 
d="M942 1081q20 117 66 209q-31 70 -97 127q-65 57 -157 57t-167 -88q-75 -90 -91 -305h446zM2095 969q-111 -1 -291 -225t-245 -519q1 -71 41 -115t106 -44q127 0 247 114t191 286q72 171 72 337t-121 166zM356 -274q0 94 105 118h28q16 -82 40 -118t64 -37q41 -1 65 27
t61 147t76 346l131 778h-441l-141 -678q-86 -409 -190 -571t-277 -162q-82 0 -133 34t-51 91q0 96 108 123h29q33 -160 123 -160q37 0 61 28t62 146q37 118 76 346l137 803h-166l12 70l174 41q43 221 169 336t298 114q90 0 175 -39t139 -94q131 154 323 154q152 0 260 -101
l154 91h47l-160 -687l-106 -305h14q301 539 557 539q109 0 167 -80t58 -226t-66 -302q-127 -304 -394 -449q-127 -69 -248 -69t-206 62t-110 175l250 1106q-29 68 -90 120t-150 52t-166 -98t-94 -316h252l-12 -94h-250l-133 -653q-84 -408 -189 -571t-278 -162
q-76 -1 -120 33t-44 92z" />
    <glyph glyph-name="f_h" unicode="fh" horiz-adv-x="1880" 
d="M767 1569q161 0 269 -101l154 91h47l-170 -734l-70 -229h15q106 186 268 348t299 162t137 -145q0 -37 -12 -91l-168 -632q-18 -70 -18 -91q0 -31 28 -30q66 0 191 153l41 -43q-92 -137 -165 -192t-141 -55t-104 38q-35 38 -35 103q0 66 29 174l154 569q10 45 10 68
q0 43 -37 43q-109 0 -291 -212t-250 -478l-71 -285h-187l303 1323q-29 68 -90 120t-150 52t-166 -98t-93 -316h251l-12 -94h-246l-143 -678q-86 -409 -190 -571t-277 -162q-82 0 -133 34t-51 91q0 96 108 123h29q33 -160 123 -160q37 0 61 28t62 146q37 118 76 346l137 803
h-166l12 70l174 41q43 225 170 348t288 123z" />
    <glyph glyph-name="f_f_h" unicode="ffh" horiz-adv-x="2516" 
d="M942 1081q20 117 66 209q-31 70 -97 127q-65 57 -157 57t-167 -88q-75 -90 -91 -305h446zM356 -274q0 94 105 118h28q16 -82 40 -118t64 -37q41 -1 65 27t61 147t76 346l131 778h-441l-141 -678q-86 -409 -190 -571t-277 -162q-82 0 -133 34t-51 91q0 96 108 123h29
q33 -160 123 -160q37 0 61 28t62 146q37 118 76 346l137 803h-166l12 70l174 41q43 221 169 336t298 114q90 0 175 -39t139 -94q131 154 323 154q152 0 260 -101l154 91h47l-170 -734l-70 -229h15q106 186 268 348t299 162t137 -145q0 -37 -12 -91l-168 -632
q-19 -70 -19 -96t29 -25q66 0 191 153l41 -43q-92 -137 -165 -192q-74 -55 -142 -55t-103 38t-35 103q0 66 29 174l153 569q10 45 11 68q0 43 -37 43q-109 0 -291 -212t-250 -478l-72 -285h-186l303 1323q-29 68 -90 120t-150 52t-166 -98t-94 -316h252l-12 -94h-250
l-133 -653q-84 -408 -189 -571t-278 -162q-76 -1 -120 33t-44 92z" />
    <glyph glyph-name="f_idieresis" unicode="f&#xef;" horiz-adv-x="1290" 
d="M1299 1260q-52 0 -86 34q-33 34 -33 85q0 52 38 91t90 39q52 1 86 -33t34 -86t-38 -92q-39 -38 -91 -38zM807 1569q117 0 185 -42t67 -114q0 -47 -31 -83t-78 -50h-37q-16 100 -48 154t-99 55q-96 0 -174 -95t-98 -313h512l94 33h53l-215 -876q-18 -70 -18 -91
q0 -31 28 -30q66 0 191 153l41 -43q-92 -137 -165 -192t-141 -55t-104 38q-35 38 -35 96q0 60 29 181l172 692h-449l-143 -678q-86 -409 -190 -571t-277 -162q-82 0 -133 34t-51 91q0 96 108 123h29q33 -160 123 -160q37 0 61 28t62 146q37 118 76 346l137 803h-166l12 70
l174 41q43 219 178 345t320 126z" />
    <glyph glyph-name="f_f_idieresis" unicode="ff&#xef;" horiz-adv-x="1927" 
d="M1944 1509q52 1 87 -33q33 -34 33 -86t-38 -91t-90 -39t-86 34t-34 85q0 52 38 91t90 39zM942 1081q23 115 68 207q-31 72 -98 129q-66 57 -158 57t-167 -88q-75 -90 -91 -305h446zM1444 1569q116 0 184 -42t68 -114q0 -47 -31 -83t-78 -50h-37q-16 100 -48 154t-99 55
q-96 0 -174 -95t-99 -313h512l95 33h53l-215 -876q-19 -70 -19 -96t29 -25q66 0 191 153l41 -43q-92 -137 -165 -192q-74 -55 -142 -55t-103 38t-35 96q0 60 29 181l172 692h-453l-133 -653q-84 -408 -189 -571t-278 -162q-76 -1 -120 33t-44 92q0 94 105 118h28
q16 -82 40 -118t64 -37q41 -1 65 27t61 148t76 345l131 778h-441l-141 -678q-86 -409 -190 -571t-277 -162q-82 0 -133 34t-51 91q0 96 108 123h29q33 -160 123 -160q37 0 61 28t62 146q37 118 76 346l137 803h-166l12 70l174 41q43 221 169 336t298 114q92 0 178 -41
t140 -96q139 158 350 158z" />
    <glyph glyph-name="f_j" unicode="fj" horiz-adv-x="1214" 
d="M807 1569q117 0 187 -42t71 -110q0 -45 -31 -79t-78 -48h-24q-43 199 -166 199q-96 0 -174 -95t-98 -313h512l94 33h53l-201 -891q-68 -299 -176 -460t-276 -160q-82 -1 -133 33t-52 92q0 96 109 122h29q33 -160 120 -159q47 1 80 73t66 218l217 1005h-449l-143 -678
q-86 -409 -190 -571t-277 -162q-82 0 -133 34t-51 91q0 96 108 123h29q33 -160 123 -160q37 0 61 28t62 146q37 118 76 346l137 803h-166l12 70l174 41q43 219 178 345t320 126z" />
    <glyph glyph-name="f_f_j" unicode="ffj" horiz-adv-x="1851" 
d="M754 1475q-92 1 -167 -89t-91 -305h446q23 115 68 207q-32 72 -98 130t-158 57zM-123 -424q-82 0 -133 34t-51 91q0 96 108 123h29q33 -160 123 -160q37 0 61 28t62 146q37 118 76 346l137 803h-166l12 70l174 41q43 221 169 336t298 114q92 0 178 -41t140 -96
q139 158 350 158q118 0 188 -42t70 -110q0 -45 -31 -79t-78 -48h-24q-43 199 -166 199q-96 0 -174 -95t-99 -313h512l95 33h53l-201 -891q-67 -299 -175 -460t-277 -160q-82 -1 -133 33t-52 92q0 96 109 122h29q33 -160 120 -159q47 1 80 73t66 218l217 1005h-453l-133 -653
q-84 -408 -189 -571t-278 -162q-76 -1 -120 33t-44 92q0 94 105 118h28q16 -82 40 -118t64 -37q41 -1 65 27t61 148t76 345l131 778h-441l-141 -678q-86 -409 -190 -571t-277 -162z" />
    <glyph glyph-name="f_k" unicode="fk" horiz-adv-x="1787" 
d="M1499 106q61 0 187 158l36 -45q-147 -240 -292 -239q-76 0 -123 55t-93 162l-161 391l387 418q90 100 186 100q63 0 96 -35t33 -84q0 -92 -115 -139h-28q0 86 -74 86q-68 0 -149 -92l-177 -197l179 -403q31 -68 55 -102t53 -34zM767 1569q161 0 269 -101l154 91h47
l-360 -1559h-187l303 1323q-29 68 -90 120t-150 52t-166 -98t-93 -316h251l-12 -94h-246l-143 -678q-86 -409 -190 -571t-277 -162q-82 0 -133 34t-51 91q0 96 108 123h29q33 -160 123 -160q37 0 61 28t62 146q37 118 76 346l137 803h-166l12 70l174 41q43 225 170 348
t288 123z" />
    <glyph glyph-name="f_f_k" unicode="ffk" horiz-adv-x="2424" 
d="M942 1081q20 117 66 209q-31 70 -97 127q-65 57 -157 57t-167 -88q-75 -90 -91 -305h446zM2136 106q61 0 186 158l37 -45q-147 -240 -293 -239q-76 0 -122 55t-93 162l-161 391l387 418q90 100 186 100q63 0 96 -35t33 -84q0 -92 -115 -139h-28q0 86 -74 86
q-68 0 -150 -92l-176 -197l179 -403q32 -68 56 -102t52 -34zM356 -274q0 94 105 118h28q16 -82 40 -118t64 -37q41 -1 65 27t61 147t76 346l131 778h-441l-141 -678q-86 -409 -190 -571t-277 -162q-82 0 -133 34t-51 91q0 96 108 123h29q33 -160 123 -160q37 0 61 28t62 146
q37 118 76 346l137 803h-166l12 70l174 41q43 221 169 336t298 114q90 0 175 -39t139 -94q131 154 323 154q152 0 260 -101l154 91h47l-361 -1559h-186l303 1323q-29 68 -90 120t-150 52t-166 -98t-94 -316h252l-12 -94h-250l-133 -653q-84 -408 -189 -571t-278 -162
q-76 -1 -120 33t-44 92z" />
    <glyph glyph-name=".notdef" horiz-adv-x="1966" 
 />
    <glyph glyph-name=".null" horiz-adv-x="0" 
 />
    <glyph glyph-name="nonmarkingreturn" horiz-adv-x="681" 
 />
    <glyph glyph-name="space" unicode=" " horiz-adv-x="409" 
 />
    <glyph glyph-name="exclam" unicode="!" horiz-adv-x="598" 
d="M657 1438l-331 -1022h-97l152 1022h276zM76 129q0 63 43 107t106 43q63 0 107 -43q44 -42 43 -106q0 -64 -43 -107q-42 -43 -106 -43t-107 43t-43 106z" />
    <glyph glyph-name="quotedbl" unicode="&#x22;" horiz-adv-x="794" 
d="M657 987h-45l31 297q5 43 9 95q4 53 10 70t11 33t13 29q35 49 85 49t77 -27q55 -57 2 -170q-8 -17 -28 -53t-25 -48zM309 987h-45l31 297q5 43 8 75q2 33 7 76t34 84t79 41t77 -27q55 -57 2 -170q-8 -17 -28 -53t-25 -48z" />
    <glyph glyph-name="numbersign" unicode="#" horiz-adv-x="1253" 
d="M573 901l-133 -362h279l131 362h-277zM1059 430h-262l-162 -450l-105 36l150 414h-279l-161 -450l-105 36l150 414h-215v109h254l131 362h-222v109h261l163 450l105 -37l-150 -413h277l164 450l104 -37l-149 -413h215v-109h-254l-133 -362h223v-109z" />
    <glyph glyph-name="dollar" unicode="$" horiz-adv-x="1132" 
d="M694 1360q-130 0 -196 -66t-66 -166t40 -157t132 -113l98 502h-8zM827 344q0 84 -42 143t-136 121l-104 -530q123 4 203 72t79 194zM260 1063q0 180 123 288t313 107h25l41 209h92l-43 -219q184 -29 313 -137l-57 -299h-68q-33 281 -208 334l-103 -533q162 -90 243 -183
t81 -227q0 -199 -146 -311t-340 -112l-41 -211h-92l41 217q-229 25 -381 172l53 340h70q25 -360 279 -414l110 573l-22 15q-145 80 -214 172t-69 219z" />
    <glyph glyph-name="percent" unicode="%" horiz-adv-x="1771" 
d="M1348 729q144 0 231 -90q88 -90 88 -233q0 -188 -120 -306t-263 -118t-231 90t-88 233q0 188 119 306q120 118 264 118zM1278 66q100 0 165 116t64 258q0 205 -153 205q-100 0 -165 -116t-65 -259q0 -204 154 -204zM848 1135q0 -188 -120 -306t-262 -118q-144 0 -233 90
q-88 90 -88 233q0 188 120 306q119 118 263 118t232 -90t88 -233zM217 -39l1256 1518h122l-1255 -1518h-123zM535 1374q-100 0 -165 -116t-65 -259q0 -205 154 -204q100 -1 165 115t64 259q1 205 -153 205z" />
    <glyph glyph-name="ampersand" unicode="&#x26;" horiz-adv-x="1382" 
d="M748 1372q-88 0 -156 -68t-68 -181q0 -114 99 -263l2 -4q159 53 231 127t72 199q0 190 -180 190zM498 82q176 0 329 133l-335 522q-115 -53 -192 -149t-77 -224t76 -206q76 -76 199 -76zM31 338q0 168 117 285q118 117 301 180q-82 137 -82 285t114 260q115 110 280 110
t247 -72t82 -198q0 -248 -424 -393l282 -439q96 150 96 299q0 43 -19 61t-64 17l16 80h416l-17 -80q-118 -1 -158 -27t-87 -161t-134 -262l60 -93q74 -113 219 -112l-16 -78h-242q-72 39 -144 143q-182 -164 -442 -163q-170 0 -286 95q-115 95 -115 263z" />
    <glyph glyph-name="quotesingle" unicode="'" horiz-adv-x="446" 
d="M309 987h-45l31 297q5 43 8 75q2 33 7 76t34 84t79 41t77 -27q55 -57 2 -170q-8 -17 -28 -53t-25 -48z" />
    <glyph glyph-name="parenleft" unicode="(" horiz-adv-x="692" 
d="M121 383q0 334 171 653t458 541h102q-293 -256 -432 -594t-139 -677t184 -595h-103q-119 127 -180 303t-61 369z" />
    <glyph glyph-name="parenright" unicode=")" horiz-adv-x="692" 
d="M627 905q0 -334 -171 -653t-458 -541h-102q293 256 432 594t139 677t-184 595h102q119 -127 181 -303t61 -369z" />
    <glyph glyph-name="asterisk" unicode="*" horiz-adv-x="892" 
d="M811 860l-199 270l-84 -321l-108 39l135 305l-324 -88l-20 115l332 34l-236 236l86 76l199 -273l86 324l106 -39l-135 -305l324 88l20 -115l-331 -32l237 -238z" />
    <glyph glyph-name="plus" unicode="+" horiz-adv-x="1153" 
d="M633 1208h127l-82 -385h387l-29 -127h-385l-80 -385h-125l80 385h-387l31 127h383z" />
    <glyph glyph-name="comma" unicode="," horiz-adv-x="663" 
d="M121 131q0 53 38 91q39 38 101 38t102 -44t39 -122q1 -130 -107 -240t-263 -124v77q208 45 237 209h-61q-86 25 -86 115z" />
    <glyph glyph-name="hyphen" unicode="-" horiz-adv-x="737" 
d="M584 547h-492l41 155h492z" />
    <glyph glyph-name="period" unicode="." horiz-adv-x="663" 
d="M115 129q0 63 43 107t106 43q62 0 106 -43q44 -42 44 -106t-43 -107t-107 -43t-106 43q-43 43 -43 106z" />
    <glyph glyph-name="slash" unicode="/" horiz-adv-x="813" 
d="M971 1577l-965 -1866h-123l963 1866h125z" />
    <glyph glyph-name="zero" unicode="0" horiz-adv-x="1280" 
d="M803 1456q207 0 317 -154t111 -385q0 -231 -83 -445q-84 -214 -246 -353t-369 -139t-318 154t-111 385t83 445t246 353t370 139zM551 78q137 0 248 140t165 332t54 376q0 432 -234 432q-138 0 -248 -140t-164 -332t-55 -376q1 -432 234 -432z" />
    <glyph glyph-name="one" unicode="1" horiz-adv-x="847" 
d="M705 1456h45l-252 -1184q-12 -59 -13 -88q0 -59 44 -75t194 -27l-14 -82h-729l14 82q170 12 222 35t71 112l202 951h-282l12 63l74 12q156 25 236 63t176 138z" />
    <glyph glyph-name="two" unicode="2" horiz-adv-x="1132" 
d="M569 168q137 0 201 37q63 37 166 180h61l-123 -385h-915l10 45q389 324 567 494q176 169 244 283t68 232t-62 180q-62 64 -180 64q-117 0 -204 -52t-175 -148l-39 47q193 313 502 313q170 0 270 -95t101 -250q0 -155 -81 -273q-46 -68 -88 -120t-152 -152t-261 -221
q-151 -122 -219 -179h309z" />
    <glyph glyph-name="three" unicode="3" horiz-adv-x="1110" 
d="M844 1130q0 82 -53 128t-148 47q-190 0 -360 -187l-41 49q201 291 483 291q147 0 233 -77t86 -193q0 -264 -360 -379q143 -23 227 -111t84 -213t-50 -224t-130 -159q-167 -125 -372 -123q-205 1 -315 90t-110 213t121 183h115q-33 -86 -33 -177q1 -91 61 -157t175 -65
q147 0 244 101t98 271q0 121 -70 196t-190 75q-70 0 -133 -17l-13 70q195 47 323 144t128 224z" />
    <glyph glyph-name="four" unicode="4" horiz-adv-x="1239" 
d="M856 184q0 -60 44 -80t142 -24l-14 -80h-620l14 80q114 4 170 32t74 117l30 140h-696l14 77l1006 992h98l-203 -963h248l-24 -106h-248l-25 -113q-10 -51 -10 -72zM172 475h549l141 678z" />
    <glyph glyph-name="five" unicode="5" horiz-adv-x="1130" 
d="M1008 469q0 -215 -148 -352t-368 -137t-330 91t-109 213q0 122 113 177h110q-28 -70 -28 -164t59 -161q59 -66 195 -66t223 93q88 93 88 247q0 208 -172 282q-150 66 -403 68l229 678h643l-61 -195h-549l-107 -317q170 -2 303 -45q132 -43 222 -149t90 -263z" />
    <glyph glyph-name="six" unicode="6" horiz-adv-x="1214" 
d="M624 805q-138 0 -280 -131q-25 -104 -25 -250t67 -250q66 -102 208 -102t226 120t85 278q0 160 -71 248q-72 87 -210 87zM1110 524q0 -231 -158 -388q-158 -156 -376 -156t-338 135q-121 135 -121 352q0 358 275 637t728 352l17 -72q-625 -176 -772 -636q162 166 351 166
t292 -110q102 -110 102 -280z" />
    <glyph glyph-name="seven" unicode="7" horiz-adv-x="1030" 
d="M440 1243q-76 -1 -120 -27t-101 -106h-74l150 328h870l-10 -58l-852 -1380h-223l897 1243h-537z" />
    <glyph glyph-name="eight" unicode="8" horiz-adv-x="1177" 
d="M950 1118q0 112 -61 180t-170 68t-181 -66t-73 -176q0 -153 131 -239l133 -86q221 119 221 319zM555 72q127 0 216 72t89 192q0 160 -164 264l-174 111q-244 -109 -243 -353q1 -126 75 -206t201 -80zM1130 1118q0 -131 -105 -221t-253 -129l57 -39q211 -141 211 -331
t-133 -305q-133 -113 -351 -113t-345 105t-127 261t107 253q108 97 282 142l-35 29q-156 129 -156 294q0 166 122 280t308 114t302 -88t116 -252z" />
    <glyph glyph-name="nine" unicode="9" horiz-adv-x="1214" 
d="M682 1366q-142 0 -226 -120t-85 -280t71 -246q72 -87 212 -87t278 131q24 104 24 250t-66 250q-66 102 -208 102zM559 524q-188 0 -291 110q-102 110 -102 279q0 231 158 389t376 156q218 0 338 -135q121 -135 121 -352q0 -358 -275 -637t-728 -352l-17 71
q621 172 772 635q-164 -164 -352 -164z" />
    <glyph glyph-name="colon" unicode=":" horiz-adv-x="663" 
d="M240 768q0 63 43 106q43 44 106 44t107 -44t43 -106q0 -63 -43 -106q-42 -44 -106 -44t-107 44t-43 106zM115 129q0 63 43 107t106 43q62 0 106 -43q44 -42 44 -106t-43 -107t-107 -43t-106 43q-43 43 -43 106z" />
    <glyph glyph-name="semicolon" unicode=";" horiz-adv-x="663" 
d="M240 768q0 63 43 106q43 44 106 44t107 -44t43 -106q0 -63 -43 -106q-42 -44 -106 -44t-107 44t-43 106zM121 131q0 53 38 91q39 38 101 38t102 -44t39 -122q1 -130 -107 -240t-263 -124v77q208 45 237 209h-61q-86 25 -86 115z" />
    <glyph glyph-name="less" unicode="&#x3c;" horiz-adv-x="845" 
d="M117 745l6 21l715 387l-31 -164l-461 -241l356 -240l-30 -150z" />
    <glyph glyph-name="equal" unicode="=" horiz-adv-x="1175" 
d="M182 838l27 127h895l-25 -127h-897zM125 555l25 125h897l-27 -125h-895z" />
    <glyph glyph-name="greater" unicode="&#x3e;" horiz-adv-x="845" 
d="M793 766l-5 -21l-716 -387l34 164l457 242l-358 242l35 147z" />
    <glyph glyph-name="question" unicode="?" horiz-adv-x="901" 
d="M782 1174q0 90 -51 140t-140 50t-141 -55t-53 -154q0 -29 11 -74h-152q-49 37 -49 117q1 114 111 186t279 72t270 -84t101 -221t-72 -216q-73 -79 -212 -156t-200 -142q-60 -66 -60 -160q0 -31 6 -59h-53q-57 80 -58 168q0 174 250 319q115 66 164 122q49 57 49 147z
M193 129q0 63 43 107t106 43q62 0 106 -43q44 -42 44 -106t-43 -107t-107 -43t-106 43q-43 43 -43 106z" />
    <glyph glyph-name="at" unicode="@" horiz-adv-x="1853" 
d="M788 274q88 0 198 169t179 434q-39 76 -123 75q-141 0 -241 -179t-101 -359q0 -140 88 -140zM1280 154q-110 0 -161 58q-50 58 -48 144t29 183h-13q-72 -171 -171 -277t-192 -106t-144 68t-52 186q0 236 156 427t342 191q115 0 184 -65l97 77h75l-55 -182l-102 -426
q-47 -197 67 -196q86 0 156 59q113 96 165 333q19 91 19 171q0 246 -147 391t-422 145q-217 0 -405 -128t-297 -334q-108 -206 -107 -433q0 -280 182 -452t473 -172t555 149l25 -61q-106 -86 -267 -135t-333 -50q-350 0 -562 196t-212 525q1 182 73 358t197 314
q125 137 304 221t380 84q319 0 505 -170t185 -448q0 -104 -30 -214q-73 -259 -243 -369q-96 -62 -206 -62z" />
    <glyph glyph-name="A" unicode="A" horiz-adv-x="1468" 
d="M834 1198l-392 -633h521zM209 151q0 -39 42 -53t136 -18l-14 -80h-461l16 80q53 8 85 22t57 54l725 1165l-35 135h217l278 -1300q8 -38 35 -54t76 -22l-14 -80h-547l14 80q72 2 110 8q39 6 71 32t32 75q0 14 -4 55l-45 215h-602l-131 -213q-41 -63 -41 -101z" />
    <glyph glyph-name="B" unicode="B" horiz-adv-x="1396" 
d="M842 1343h-174l-119 -563h139q199 0 319 81t119 255q1 227 -284 227zM717 688h-189l-94 -444q-8 -41 -8 -64q0 -49 44 -68t142 -20h37q190 0 297 87q106 87 107 251q0 126 -78 192t-258 66zM893 1438q441 0 441 -323q0 -165 -135 -268q-134 -103 -306 -110
q170 -14 268 -93t99 -218q0 -198 -166 -312t-432 -114h-687l19 80q113 4 167 33t72 116l203 949q10 51 10 75q0 59 -39 80q-40 20 -145 25l17 80h614z" />
    <glyph glyph-name="C" unicode="C" horiz-adv-x="1363" 
d="M682 -20q-252 0 -406 150t-153 417q0 371 243 641t592 270q270 0 433 -125l-62 -305h-69q-27 330 -314 330q-182 0 -325 -120t-214 -300t-71 -393t99 -338t267 -125t269 86q102 86 207 293h86l-97 -348q-233 -133 -485 -133z" />
    <glyph glyph-name="D" unicode="D" horiz-adv-x="1529" 
d="M446 1253q0 59 -39 80q-40 20 -145 25l17 80h563q332 0 488 -162t157 -428q0 -364 -259 -606t-640 -242h-613l19 80q113 4 167 33t72 116l203 949q10 51 10 75zM809 1343h-141l-228 -1071q-10 -46 -10 -92t35 -66t133 -20h12q279 0 470 203t192 551q0 221 -108 358
t-355 137z" />
    <glyph glyph-name="E" unicode="E" horiz-adv-x="1370" 
d="M446 1253q0 59 -39 80q-40 20 -145 25l17 80h1140l-73 -342h-56q-32 150 -70 198t-155 49h-397l-119 -561h328q69 0 111 44t79 141h70l-99 -463h-69q0 98 -24 141t-89 43h-328l-88 -420q-10 -45 -10 -90t41 -64t141 -20h156q135 0 218 54t220 221h60l-140 -369h-1151
l19 80q113 4 167 33t72 116l203 949q10 51 10 75z" />
    <glyph glyph-name="F" unicode="F" horiz-adv-x="1253" 
d="M446 1253q0 59 -39 80q-40 20 -145 25l17 80h1091l-76 -355h-55q-38 189 -88 225q-50 35 -135 35h-346l-127 -591h278q68 0 110 44t79 140h69l-96 -463h-70q0 98 -23 141q-24 43 -89 43h-279l-82 -387q-12 -57 -12 -82q0 -62 54 -82t184 -26l-15 -80h-676l19 80
q113 4 167 33t72 116l203 949q10 51 10 75z" />
    <glyph glyph-name="G" unicode="G" horiz-adv-x="1495" 
d="M123 551q0 233 113 442t310 337q198 128 448 128t413 -125l-61 -305h-70q-27 330 -313 330q-185 0 -331 -120t-221 -302t-75 -396t108 -336t275 -122q166 0 297 76l67 272q12 53 13 76q0 60 -41 80t-146 24l17 80h583l-16 -80q-106 -4 -151 -31q-44 -28 -66 -118
l-82 -340q-246 -141 -473 -141q-276 0 -437 146t-161 425z" />
    <glyph glyph-name="H" unicode="H" horiz-adv-x="1730" 
d="M1376 184q0 -60 40 -80t145 -24l-17 -80h-620l18 80q113 4 167 33t73 116l98 459h-752l-90 -428q-10 -51 -10 -76q0 -60 40 -80t144 -24l-16 -80h-621l19 80q113 4 167 33t72 116l203 949q10 51 10 75q0 59 -39 80q-40 20 -145 25l17 80h620l-18 -80q-113 -4 -167 -33
t-73 -117l-92 -426h751l84 396q10 51 11 75q0 59 -40 79t-145 26l17 80h620l-18 -80q-113 -4 -167 -33t-73 -117l-203 -948q-10 -51 -10 -76z" />
    <glyph glyph-name="I" unicode="I" horiz-adv-x="782" 
d="M428 184q0 -60 40 -80t144 -24l-16 -80h-621l19 80q113 4 167 33t72 116l203 949q10 51 10 75q0 59 -39 80q-40 20 -145 25l17 80h620l-18 -80q-113 -4 -167 -33t-73 -117l-203 -948q-10 -51 -10 -76z" />
    <glyph glyph-name="J" unicode="J" horiz-adv-x="1026" 
d="M-47 214q0 103 82 153h149q-29 -63 -28 -134q0 -166 145 -165q102 0 167 62q64 62 97 224l172 824q10 51 11 75q0 59 -40 79t-145 26l17 80h620l-18 -80q-113 -4 -167 -33t-73 -117l-174 -821q-86 -408 -485 -407q-170 0 -250 66t-80 168z" />
    <glyph glyph-name="K" unicode="K" horiz-adv-x="1464" 
d="M428 184q0 -60 40 -80t144 -24l-16 -80h-621l19 80q113 4 167 33t72 116l203 949q10 51 10 75q0 59 -39 80q-40 20 -145 25l17 80h620l-18 -80q-113 -4 -167 -33t-73 -117l-203 -948q-10 -51 -10 -76zM762 782l354 -540q60 -94 114 -128t146 -34l-14 -80h-299
q-72 66 -189 244l-313 487l598 494q59 51 64 80q0 41 -158 53l18 80h523l-19 -80q-129 -6 -248 -105z" />
    <glyph glyph-name="L" unicode="L" horiz-adv-x="1263" 
d="M428 190q0 -55 42 -75t142 -21h101q131 0 215 65t217 240h67l-149 -399h-1088l19 80q113 4 167 33t72 116l203 949q10 51 10 75q0 59 -39 80q-40 20 -145 25l17 80h620l-18 -80q-113 -4 -167 -33t-73 -117l-203 -948q-10 -51 -10 -70z" />
    <glyph glyph-name="M" unicode="M" horiz-adv-x="1941" 
d="M754 1438q0 -74 8 -115l176 -1036l610 1036q45 78 58 115h366l-18 -80q-102 -2 -146 -35t-59 -115l-80 -1005q-6 -71 26 -95t122 -28l-15 -80h-569l14 80q111 4 167 40t67 140l67 866l-674 -1126h-61l-209 1141l-317 -881q-45 -120 22 -156q39 -20 133 -24l-14 -80h-494
l17 80q90 4 133 29t68 94l378 1034q0 71 -30 95t-125 26l18 80h361z" />
    <glyph glyph-name="N" unicode="N" horiz-adv-x="1624" 
d="M1399 1253q0 59 -40 79t-145 26l17 80h543l-19 -80q-113 -4 -167 -33t-72 -117l-254 -1208h-86l-629 1137l-185 -877q-10 -51 -10 -76q0 -60 40 -80t145 -24l-17 -80h-545l19 80q113 4 167 33t72 116l218 1012q-49 74 -82 94t-109 23l19 80h325l602 -1116l183 856
q10 51 10 75z" />
    <glyph glyph-name="O" unicode="O" horiz-adv-x="1474" 
d="M659 -20q-256 0 -396 162t-140 421q0 369 225 632t547 263q256 0 396 -162t141 -419q0 -369 -226 -633t-547 -264zM662 86q162 0 292 114t197 290q68 176 68 386q0 208 -82 342t-245 134t-292 -114t-197 -290q-67 -176 -67 -385t82 -343t244 -134z" />
    <glyph glyph-name="P" unicode="P" horiz-adv-x="1275" 
d="M686 682q211 0 329 94t118 283q0 133 -80 209t-238 75h-147l-142 -661h160zM428 188q0 -62 54 -82t184 -26l-15 -80h-676l19 80q113 4 167 33t72 116l203 949q10 51 10 75q0 59 -39 80q-40 20 -145 25l17 80h595q234 0 350 -104t115 -275q0 -221 -181 -346t-476 -125
h-174l-68 -318q-12 -57 -12 -82z" />
    <glyph glyph-name="Q" unicode="Q" horiz-adv-x="1474" 
d="M668 86q162 0 292 114t197 290q68 176 68 386q0 208 -82 342t-245 134t-292 -114q-128 -114 -196 -290t-68 -385t82 -343t244 -134zM129 563q0 369 225 632t547 263q256 0 396 -162t141 -419q0 -334 -190 -588t-476 -299l66 -101q62 -96 122 -141t144 -55l-8 -39
q-70 -29 -165 -29t-155 41q-59 42 -108 148l-82 170q-221 26 -339 184t-118 395z" />
    <glyph glyph-name="R" unicode="R" horiz-adv-x="1396" 
d="M428 184q0 -60 40 -80t144 -24l-16 -80h-621l19 80q113 4 167 33t72 116l203 949q10 51 10 75q0 59 -39 80q-40 20 -145 25l17 80h577q221 0 334 -92t113 -268q-1 -176 -137 -286t-353 -133l236 -389q69 -112 115 -150t145 -40l-17 -80h-276q-70 63 -172 242l-228 399
h-98l-80 -381q-10 -51 -10 -76zM772 1343h-104l-129 -612h96q209 0 333 86t124 266q-1 260 -320 260z" />
    <glyph glyph-name="S" unicode="S" horiz-adv-x="1144" 
d="M1008 403q0 -199 -146 -311t-322 -112t-298 54t-193 124l53 340h70q16 -201 106 -311q90 -109 234 -109q143 0 227 68t84 184t-62 185q-63 69 -215 153t-221 176t-69 219q0 180 123 288t313 107q252 0 428 -147l-57 -299h-68q-39 348 -305 348q-130 0 -196 -67t-66 -171
t52 -166t202 -142q150 -79 238 -176t88 -235z" />
    <glyph glyph-name="T" unicode="T" horiz-adv-x="1378" 
d="M725 184q0 -60 48 -80t157 -24l-17 -80h-661l16 80q117 4 181 34q63 30 81 115l238 1117h-141q-135 0 -199 -56t-211 -280h-65l124 428h1223l-59 -428h-66q-16 70 -31 134t-41 114q-27 49 -42 56t-42 18t-110 14h-143l-230 -1086q-10 -41 -10 -76z" />
    <glyph glyph-name="U" unicode="U" horiz-adv-x="1560" 
d="M389 1253q0 59 -40 79t-144 26l16 80h621l-19 -80q-113 -4 -167 -33t-72 -117l-142 -665q-14 -76 -14 -121q0 -144 82 -232t250 -88t283 94q114 94 159 306l141 676q10 51 11 75q0 59 -40 79t-145 26l17 80h543l-19 -80q-113 -4 -167 -33t-73 -117l-157 -745
q-51 -244 -208 -364q-157 -119 -387 -119t-357 112q-126 112 -125 324q0 61 16 147l127 615q10 51 10 75z" />
    <glyph glyph-name="V" unicode="V" horiz-adv-x="1441" 
d="M1313 1283q0 38 -44 54t-134 21l18 80h473l-18 -80q-104 -14 -144 -76l-796 -1300h-64l-295 1300q-8 39 -34 54t-76 22l18 80h541l-19 -80q-65 -2 -103 -8t-74 -34t-36 -64t6 -64l191 -928l555 926q35 59 35 97z" />
    <glyph glyph-name="W" unicode="W" horiz-adv-x="2000" 
d="M1886 1284q0 30 -28 51q-28 20 -148 23l19 80h456l-18 -80q-37 -6 -57 -10q-58 -12 -87 -66l-743 -1300h-61l-123 882l-504 -882h-62l-221 1300q-8 61 -110 76l18 80h543l-19 -80q-143 -6 -177 -33q-48 -39 -32 -151l136 -887l407 719l-41 276q-7 52 -56 66q-17 4 -54 10
l18 80h522l-18 -80q-145 -6 -179 -36t-34 -89q0 -12 4 -45l111 -899l501 897q37 68 37 98z" />
    <glyph glyph-name="X" unicode="X" horiz-adv-x="1447" 
d="M961 152q0 34 -33 98l-209 393l-373 -387q-82 -84 -82 -118t38 -45t134 -13l-14 -80h-504l16 80q62 0 104 20t103 82l537 545l-279 528q-53 102 -168 103l19 80h579l-18 -80q-100 0 -146 -13q-86 -24 -14 -157l180 -346l336 340q133 133 37 161q-41 12 -131 15l19 80h501
l-18 -80q-61 0 -105 -21t-102 -82l-491 -499l299 -574q53 -102 165 -102l-14 -80h-575l14 80q63 0 96 2t66 19t33 51z" />
    <glyph glyph-name="Y" unicode="Y" horiz-adv-x="1363" 
d="M1235 1290q0 34 -37 46q-37 13 -137 22l18 80h469l-18 -80q-86 -12 -144 -76l-598 -702l-67 -320q-12 -49 -12 -76q0 -60 49 -80t157 -24l-16 -80h-651l16 80q117 4 180 34t82 115l74 349l-291 704q-16 39 -40 54t-70 22l18 80h539l-19 -80q-69 0 -107 -4t-70 -24
t-32 -54q0 -33 21 -88l199 -514l432 514q55 68 55 102z" />
    <glyph glyph-name="Z" unicode="Z" horiz-adv-x="1245" 
d="M688 96q89 0 176 45q67 35 236 265h69l-153 -406h-1061l10 51l1108 1288h-409q-120 0 -180 -51t-177 -229h-61l80 379h1028l-13 -54l-1110 -1288h457z" />
    <glyph glyph-name="bracketleft" unicode="[" horiz-adv-x="638" 
d="M176 -135q0 -51 45 -67t166 -21l-14 -66h-373l395 1866h373l-14 -66q-140 -8 -190 -28t-66 -94l-318 -1489q-4 -25 -4 -35z" />
    <glyph glyph-name="backslash" unicode="\" horiz-adv-x="813" 
d="M498 -289l-174 1866h116l174 -1866h-116z" />
    <glyph glyph-name="bracketright" unicode="]" horiz-adv-x="638" 
d="M510 1423q0 57 -72 74q-35 6 -139 14l14 66h373l-397 -1866h-373l14 66q139 8 190 28q50 21 66 95l320 1489q4 25 4 34z" />
    <glyph glyph-name="asciicircum" unicode="^" horiz-adv-x="946" 
d="M618 1577h148l192 -594h-127l-153 481l-354 -481h-148z" />
    <glyph glyph-name="underscore" unicode="_" horiz-adv-x="901" 
d="M721 -246h-817l20 111h819z" />
    <glyph glyph-name="grave" unicode="`" horiz-adv-x="1024" 
d="M319 1559h254l129 -347h-84z" />
    <glyph glyph-name="a" unicode="a" horiz-adv-x="1222" 
d="M809 -20q-115 0 -115 139q0 45 26 153t54 191h-14q-98 -211 -221 -347t-235 -136t-174 80q-60 81 -60 227q0 323 198 571t434 248q140 0 222 -82l120 98h72l-72 -229l-159 -655q-19 -70 -19 -96t29 -25q68 0 188 153l43 -43q-90 -135 -164 -191t-153 -56zM367 117
q119 0 265 223t238 588q-54 94 -170 94t-222 -111t-164 -275q-56 -164 -58 -333q0 -86 29 -136t82 -50z" />
    <glyph glyph-name="b" unicode="b" horiz-adv-x="1187" 
d="M809 969q-111 -1 -291 -225t-246 -519q0 -71 41 -115t107 -44q127 0 247 114t191 286q72 171 72 337t-121 166zM893 1106q109 0 167 -80t58 -226t-66 -302q-128 -305 -395 -449q-127 -69 -247 -69t-206 62q-85 62 -110 175l260 1151l-151 64l10 41l328 86h47l-160 -687
l-106 -305h14q301 539 557 539z" />
    <glyph glyph-name="c" unicode="c" horiz-adv-x="948" 
d="M608 1014q-82 0 -165 -95t-131 -239t-48 -289q0 -293 193 -293q92 0 163 45t156 144l47 -39q-169 -268 -439 -268q-150 0 -230 102q-78 102 -78 278t80 348t223 286q143 112 311 112q115 0 175 -48q61 -48 61 -138t-115 -138h-33q-6 100 -47 166t-123 66z" />
    <glyph glyph-name="d" unicode="d" horiz-adv-x="1236" 
d="M1149 227q-165 -247 -299 -247q-135 0 -133 129q0 113 74 356h-15q-98 -211 -224 -348t-243 -137t-178 80t-61 227q0 215 96 406t247 302t308 111q115 0 190 -70l72 332l-152 64l11 41l323 86h47l-307 -1321q-16 -78 -16 -91q0 -31 29 -30q68 0 188 153zM379 113
q123 1 277 239t229 582q-49 88 -168 88t-229 -111t-169 -275t-61 -333q0 -86 31 -138t90 -52z" />
    <glyph glyph-name="e" unicode="e" horiz-adv-x="966" 
d="M629 1004q-123 0 -229 -142t-134 -350q254 76 370 156t116 196q0 60 -33 100t-90 40zM258 393q0 -135 59 -214t162 -79q164 0 324 191l51 -41q-111 -146 -214 -208t-228 -62q-168 0 -252 118t-84 292q0 173 82 339t224 271q142 106 282 106t200 -62t60 -174
q0 -111 -111 -197t-253 -136q-143 -50 -302 -91v-53z" />
    <glyph glyph-name="f" unicode="f" horiz-adv-x="667" 
d="M737 1569q101 0 159 -42t58 -110q0 -98 -98 -127h-39q-4 86 -40 142q-35 56 -101 57q-142 0 -182 -404h251l-12 -98h-250l-139 -678q-84 -409 -189 -571t-278 -162q-82 0 -133 34t-51 91q0 96 108 123h29q33 -160 123 -160q37 0 61 28t62 146q37 118 76 346l137 803h-166
l12 70l174 41q43 227 151 349t277 122z" />
    <glyph glyph-name="g" unicode="g" horiz-adv-x="1058" 
d="M479 428q106 0 190 119q83 119 83 278q0 93 -38 151t-116 58q-106 0 -189 -119t-83 -278q0 -93 38 -151t115 -58zM57 -148q-1 -88 97 -146t248 -58t246 53q97 53 97 143q0 53 -39 82q-40 29 -126 56l-316 92q-109 -39 -158 -87t-49 -135zM625 1106q90 0 155 -35l361 25
l-31 -133h-80l-168 45q70 -82 70 -197q0 -205 -137 -330t-342 -125q-47 0 -95 11q-72 -47 -72 -76t19 -41q18 -12 66 -25l295 -84q244 -70 243 -247q0 -126 -134 -224t-413 -98q-207 0 -346 77t-139 187t88 165q88 56 254 99q-57 39 -57 105q0 100 141 182q-76 37 -117 108
t-41 156q-1 205 137 330t343 125z" />
    <glyph glyph-name="h" unicode="h" horiz-adv-x="1267" 
d="M967 1106q137 0 137 -145q0 -37 -12 -91l-168 -632q-18 -70 -18 -96t28 -25q66 0 190 153l41 -43q-92 -137 -165 -192t-141 -55t-103 38t-35 103q0 66 29 174l153 569q10 45 10 68q0 43 -36 43q-109 0 -291 -212t-250 -478l-72 -285h-186l313 1368l-151 64l10 41l328 86
h47l-170 -734l-70 -229h14q107 186 269 348t299 162z" />
    <glyph glyph-name="i" unicode="i" horiz-adv-x="684" 
d="M489 1251q-57 0 -94 38t-37 94q0 55 42 99t100 44t94 -38q37 -38 37 -94t-42 -100q-43 -43 -100 -43zM268 -20q-68 0 -104 38q-35 38 -35 96q0 60 29 181l157 635l-155 63l12 43l322 70h51l-213 -868q-18 -70 -18 -96t28 -25q66 0 190 153l41 -43q-93 -137 -165 -192
t-140 -55z" />
    <glyph glyph-name="j" unicode="j" horiz-adv-x="612" 
d="M-109 -424q-82 0 -133 34t-51 91q0 96 109 123h28q34 -160 120 -160t147 291l206 975l-153 63l12 43l322 70h51l-205 -909q-68 -299 -176 -460t-277 -161zM635 1394q0 -56 -42 -100t-99 -43q-57 0 -95 38q-37 38 -37 94q0 55 42 99t100 44t94 -38q37 -38 37 -94z" />
    <glyph glyph-name="k" unicode="k" horiz-adv-x="1175" 
d="M625 1559l-361 -1559h-186l313 1368l-151 64l10 41l328 86h47zM887 106q61 0 186 158l37 -45q-147 -240 -293 -239q-76 0 -123 55t-92 162l-162 391l387 418q90 100 187 100q63 0 96 -35t33 -84q0 -92 -115 -139h-29q-1 86 -71 86t-152 -92l-176 -197l178 -403
q31 -68 56 -102t53 -34z" />
    <glyph glyph-name="l" unicode="l" horiz-adv-x="638" 
d="M297 148q0 -32 29 -31q66 0 190 153l41 -43q-92 -137 -165 -192t-141 -55t-104 37q-35 37 -35 101t27 177l242 1073l-152 64l11 41l327 86h47l-303 -1321q-14 -58 -14 -90z" />
    <glyph glyph-name="m" unicode="m" horiz-adv-x="1843" 
d="M1540 1106q139 0 139 -145q0 -37 -12 -91l-168 -632q-18 -70 -18 -91q0 -31 28 -30q66 0 191 153l41 -43q-92 -137 -165 -192q-74 -55 -142 -55t-103 38t-35 103q0 66 29 174l152 565q10 45 10 68q0 43 -37 43q-104 0 -280 -217t-236 -465l-72 -289h-186l217 860
q10 45 10 68q0 43 -37 43q-104 0 -279 -217t-237 -465l-71 -289h-187l232 930l-156 63l12 43l309 70h52l-64 -264l-80 -252h15q76 125 152 228q77 104 189 196t203 92q123 0 123 -127q0 -100 -100 -389h14q105 174 244 332q74 84 154 134t149 50z" />
    <glyph glyph-name="n" unicode="n" horiz-adv-x="1282" 
d="M981 1106q137 0 137 -145q0 -37 -12 -91l-168 -632q-18 -70 -18 -91q0 -31 28 -30q66 0 191 153l41 -43q-92 -137 -165 -192t-141 -55t-104 38q-35 38 -35 103q0 66 29 174l154 569q10 45 10 68q0 43 -37 43q-109 0 -291 -212t-250 -478l-71 -285h-187l232 930l-156 63
l12 43l309 70h52l-70 -283l-72 -227h15q106 186 268 348t299 162z" />
    <glyph glyph-name="o" unicode="o" horiz-adv-x="1069" 
d="M427 -20q-161 0 -256 108t-95 292q0 183 69 346q70 164 203 272t294 108t256 -109t95 -292q1 -183 -69 -346t-203 -271t-294 -108zM434 61q106 0 193 112q86 113 130 267t44 295t-44 215t-122 74q-107 0 -193 -112t-130 -266t-44 -296q0 -141 44 -215t122 -74z" />
    <glyph glyph-name="p" unicode="p" horiz-adv-x="1239" 
d="M860 965q-104 -1 -276 -221t-258 -511q0 -73 42 -119t109 -46q125 0 242 112t186 283q70 170 70 336t-115 166zM944 1106q100 0 162 -81t63 -210q0 -213 -106 -409t-265 -312q-159 -115 -317 -114q-59 0 -110 26t-78 64l-60 -256q-8 -33 -8 -63q1 -30 21 -47t45 -23
t74 -13l-19 -71h-514l18 71q62 8 92 16t60 32t41 69l281 1151l-158 57l12 43l309 70h52l-70 -289l-98 -282h14q137 271 281 421t278 150z" />
    <glyph glyph-name="q" unicode="q" horiz-adv-x="1161" 
d="M375 115q125 1 279 239t231 582q-49 88 -168 88t-229 -112t-169 -276t-61 -333q0 -86 31 -137t86 -51zM710 1106q146 0 228 -82l121 98h71l-71 -229l-271 -1083q-10 -41 -10 -65t20 -41t46 -23q25 -6 74 -13l-19 -71h-514l18 71q137 18 168 61q16 22 25 56l102 377
l90 299h-14q-96 -211 -222 -346t-243 -135t-178 80t-61 227q0 215 96 406t246 302q152 111 298 111z" />
    <glyph glyph-name="r" unicode="r" horiz-adv-x="944" 
d="M885 1106q59 0 87 -37t27 -88q0 -109 -125 -168h-30q0 76 -56 76t-147 -113q-92 -114 -192 -326t-160 -450h-187l232 930l-156 63l12 43l310 70h51l-86 -340l-109 -354h15q170 348 292 521t222 173z" />
    <glyph glyph-name="s" unicode="s" horiz-adv-x="849" 
d="M391 74q166 0 166 151q0 53 -58 125t-127 133t-127 149t-59 165q0 129 102 219t234 90q134 0 204 -50t69 -132q0 -63 -88 -107h-21q-92 187 -230 187t-139 -134q0 -70 135 -196q56 -54 112 -112q134 -140 134 -253q0 -147 -108 -238t-252 -91q-143 0 -229 62t-86 154
t90 134h16q96 -256 262 -256z" />
    <glyph glyph-name="t" unicode="t" horiz-adv-x="784" 
d="M354 111q98 0 283 196l47 -49q-102 -131 -215 -205t-201 -73q-143 0 -143 157q0 59 22 156l158 694h-149l16 60q104 35 177 96t155 176h63l-55 -234h256l-25 -98h-256l-159 -708q-18 -86 -19 -121q0 -47 45 -47z" />
    <glyph glyph-name="u" unicode="u" horiz-adv-x="1273" 
d="M858 -20q-117 0 -117 139q1 80 95 391h-15q-127 -252 -266 -391t-270 -139q-66 0 -107 47t-41 117t19 141l161 645l-155 63l12 43l322 70h51l-205 -827q-18 -78 -18 -126t45 -49q79 0 187 113t202 290t141 355l55 209l191 14l-211 -847q-18 -70 -18 -96t28 -25
q66 0 191 153l41 -43q-92 -137 -165 -192t-153 -55z" />
    <glyph glyph-name="v" unicode="v" horiz-adv-x="1064" 
d="M855 1106q179 0 179 -188t-252 -478l-401 -460h-80l-92 960l-150 51l13 43l274 72h27l76 -920l264 306q160 182 159 346q0 145 -186 145v31q74 92 169 92z" />
    <glyph glyph-name="w" unicode="w" horiz-adv-x="1546" 
d="M1350 836q0 147 -183 147v31q74 92 169 92q96 0 138 -53t42 -138q0 -176 -205 -438l-383 -497h-80l-57 583l-410 -583h-80l-92 960l-150 51l13 43l274 72h27l73 -903l334 467l-24 270l-150 51l12 43l269 72h26l74 -907l252 325q111 145 111 312z" />
    <glyph glyph-name="x" unicode="x" horiz-adv-x="1132" 
d="M980 1106q64 0 102 -34t38 -95q0 -84 -86 -133h-28q0 117 -80 117q-35 0 -59 -24t-70 -95l-172 -264l90 -326q29 -110 50 -122q9 -5 23 -5q76 0 218 149l38 -49q-112 -135 -188 -190t-140 -55t-98 51q-33 51 -59 143l-67 234l-162 -244q-43 -66 -70 -98t-71 -60
q-44 -26 -98 -26t-91 34t-37 92q0 102 86 148h29q0 -131 80 -131q32 1 56 23t77 98l174 256l-123 438l-190 53l14 43l287 72h26l119 -434l158 250q59 94 110 139q50 45 114 45z" />
    <glyph glyph-name="y" unicode="y" horiz-adv-x="1054" 
d="M845 1106q179 0 179 -195q0 -174 -294 -638q-294 -463 -463 -587q-83 -62 -144 -85t-132 -23t-129 39t-59 119q0 45 27 81t68 48h34q0 -168 131 -168q68 0 139 43t177 174l-176 1026l-150 51l13 43l270 72h26l158 -1004q340 480 340 734q0 147 -184 147v31q74 92 169 92z
" />
    <glyph glyph-name="z" unicode="z" horiz-adv-x="1003" 
d="M389 915q-49 0 -75 -14t-48 -55l-59 -103l-51 19l143 391h41q8 -80 59 -80h631l-2 -47l-790 -756l254 -82q96 -30 164 -30t117 42q50 42 97 148l50 -14q-70 -201 -132 -278t-184 -76q-88 0 -223 63l-246 111l-98 -156q-78 2 -78 63q0 47 45 93l793 761h-408z" />
    <glyph glyph-name="braceleft" unicode="{" horiz-adv-x="698" 
d="M293 -88q0 -127 149 -145l-12 -56q-129 -1 -207 55t-78 152q-1 48 55 282t56 281q0 119 -133 148l6 33q178 37 215 204l94 449q27 123 129 193t260 69l-12 -55q-190 -23 -227 -201l-96 -447q-23 -102 -73 -150t-161 -79q78 -25 112 -59t34 -86q0 -53 -56 -295
q-55 -242 -55 -293z" />
    <glyph glyph-name="bar" unicode="|" horiz-adv-x="526" 
d="M561 1577l-401 -1866h-117l401 1866h117z" />
    <glyph glyph-name="braceright" unicode="}" horiz-adv-x="698" 
d="M342 788q0 52 55 296t56 292q0 127 -150 146l12 55q129 0 207 -55t78 -152q0 -47 -55 -280t-56 -283q1 -119 134 -148l-7 -32q-178 -37 -215 -205l-94 -449q-27 -123 -129 -193t-260 -69l12 56q190 23 228 200l96 447q23 102 73 150t160 79q-77 25 -111 59t-34 86z" />
    <glyph glyph-name="asciitilde" unicode="~" horiz-adv-x="1046" 
d="M341 684q-52 0 -81 -22t-63 -87l-80 13q83 250 253 252q82 0 198 -60t167 -61q51 0 80 21t64 87l79 -12q-83 -249 -252 -251q-80 0 -196 60t-169 60z" />
    <glyph glyph-name="uni00A0" unicode="&#xa0;" horiz-adv-x="409" 
 />
    <glyph glyph-name="exclamdown" unicode="&#xa1;" horiz-adv-x="598" 
d="M-16 -352l331 1022h97l-152 -1022h-276zM565 956q0 -63 -43 -106t-106 -43t-107 43q-43 43 -43 106q0 62 43 106t107 44t106 -44q43 -44 43 -106z" />
    <glyph glyph-name="cent" unicode="&#xa2;" horiz-adv-x="1091" 
d="M301 418q0 -238 143 -293l218 958q-98 -19 -182 -123t-132 -250q-47 -146 -47 -292zM102 395q0 267 166 499t414 275l47 207h92l-45 -198h2q131 0 202 -54t71 -147q0 -94 -127 -143h-37q-10 104 -39 168t-94 81l-219 -972q98 2 174 53t176 158l67 -58q-74 -116 -188 -196
t-260 -86l-47 -213h-92l49 215q-158 18 -235 129t-77 282z" />
    <glyph glyph-name="sterling" unicode="&#xa3;" horiz-adv-x="1415" 
d="M186 80q104 0 152 188q-62 27 -120 27t-90 -34t-32 -81q0 -48 24 -74t66 -26zM1065 1456q143 0 230 -63t87 -163t-84 -130h-141q17 43 17 105q0 63 -30 113t-100 50t-124 -68q-47 -55 -76 -138t-58 -163l-75 -213h364l-22 -88h-373l-137 -395q37 -12 111 -42
q233 -95 347 -95q168 0 168 135q0 59 -61 109l53 55q129 -78 129 -214t-76 -204t-210 -67q-74 0 -156 26t-125 50q-43 22 -130 76t-97 61q-35 -97 -113 -155q-79 -58 -185 -58t-158 54t-52 144t63 152t172 61q68 0 144 -29l112 336h-233l20 88h242l76 226q72 220 184 332
t297 112z" />
    <glyph glyph-name="currency" unicode="&#xa4;" horiz-adv-x="1181" 
d="M585 303q-144 0 -245 84l-162 -143l-67 78l159 145q-57 90 -57 207q0 168 106 291l-124 141l84 74l124 -142q105 72 245 72t243 -86l166 147l69 -77l-165 -148q59 -90 59 -207q0 -166 -105 -286l129 -140l-86 -73l-122 139q-107 -76 -251 -76zM324 690q0 -134 76 -213
q76 -80 200 -80q125 1 217 97t92 229t-75 213q-76 80 -201 80t-217 -96t-92 -230z" />
    <glyph glyph-name="yen" unicode="&#xa5;" horiz-adv-x="1363" 
d="M518 1276q0 -33 21 -88l188 -514l422 514q55 68 55 100q0 59 -174 70l19 80h469l-19 -80q-92 -12 -143 -76l-459 -549h305l-18 -88h-361l-55 -65l-16 -76h401l-18 -90h-402l-33 -154q-10 -51 -10 -76q0 -60 48 -80t157 -24l-16 -80h-662l16 80q117 4 181 34q63 30 82 115
l39 185h-392l19 90h391l16 74l-26 67h-350l18 88h295l-217 549q-16 41 -39 55t-72 21l19 80h548l-18 -80q-69 0 -107 -4t-70 -24t-32 -54z" />
    <glyph glyph-name="brokenbar" unicode="&#xa6;" horiz-adv-x="526" 
d="M324 481l-164 -770h-117l164 770h117zM561 1577l-166 -770h-116l165 770h117z" />
    <glyph glyph-name="section" unicode="&#xa7;" horiz-adv-x="1060" 
d="M604 -88q0 -70 -20 -109q80 84 129 213q49 128 49 258q0 226 -144 474t-143 405q1 49 21 88q-80 -84 -129 -213t-49 -258t44 -255t98 -218t99 -204q45 -111 45 -181zM242 -414q-141 0 -209 54t-68 142q0 87 111 128h106q-16 -33 -16 -86t34 -99q34 -47 120 -47t136 54
t50 140q0 148 -144 388q-53 90 -98 224t-45 289t69 313t214 265q145 108 336 107q141 0 209 -54q67 -54 67 -141t-110 -128h-107q16 33 16 85t-33 100q-34 46 -120 46t-136 -53q-136 -144 93 -529q53 -90 98 -224t45 -288t-68 -313q-68 -157 -214 -265t-336 -108z" />
    <glyph glyph-name="dieresis" unicode="&#xa8;" horiz-adv-x="1024" 
d="M706 1509q52 1 86 -33t34 -86t-39 -91q-38 -39 -90 -39t-86 34q-33 34 -33 85q0 52 37 91q39 39 91 39zM316 1260q-52 0 -86 34t-34 85q0 52 38 91t90 39q52 1 87 -33q33 -34 33 -86t-37 -92q-39 -38 -91 -38z" />
    <glyph glyph-name="copyright" unicode="&#xa9;" horiz-adv-x="1630" 
d="M800 291q-148 0 -246 93q-99 93 -99 249q-1 213 149 369t359 155q156 0 249 -84l-41 -190h-55q-10 102 -48 146t-120 44q-147 0 -239 -132t-93 -310q0 -258 203 -258q92 0 147 48q54 48 115 169h64l-62 -221q-135 -78 -283 -78zM824 -20q-316 0 -510 196t-193 490
q0 332 225 562q224 230 540 230t510 -196t193 -490q0 -332 -225 -562q-224 -230 -540 -230zM211 666q0 -260 167 -432q168 -172 446 -173q278 0 476 206t199 505q0 260 -167 432q-168 172 -446 172t-476 -206t-199 -504z" />
    <glyph glyph-name="ordfeminine" unicode="&#xaa;" horiz-adv-x="942" 
d="M717 645q-91 -1 -91 123q0 68 60 238h-10q-72 -158 -164 -260t-177 -101q-85 -1 -131 61t-46 168q0 240 149 424q150 184 326 185q103 -1 164 -62l116 74h54l-54 -170l-116 -481q-14 -49 -15 -68q0 -23 23 -22q49 0 139 114l35 -37q-123 -186 -262 -186zM397 758
q84 0 188 163q103 163 171 425q-43 70 -117 69q-123 0 -217 -165t-94 -355q-1 -137 69 -137z" />
    <glyph glyph-name="guillemotleft" unicode="&#xab;" horiz-adv-x="997" 
d="M102 551l4 20l422 390h111l-344 -400l170 -399h-88zM469 551l4 20l422 390h109l-342 -400l169 -399h-88z" />
    <glyph glyph-name="registered" unicode="&#xae;" horiz-adv-x="1136" 
d="M643 526q-201 0 -324 124t-123 322t144 342q143 144 344 144t324 -124q122 -124 122 -322t-143 -342t-344 -144zM264 973q0 -173 104 -279t276 -106q173 0 296 126t123 298q1 172 -103 278t-277 106t-296 -125q-123 -126 -123 -298zM729 1245q82 0 117 -37t35 -82
q0 -125 -154 -149l61 -115q31 -59 93 -59l-9 -39h-112q-39 33 -66 88l-55 113h-39l-20 -103q-9 -47 3 -53q13 -6 42 -6l-9 -39h-213l11 39q63 0 73 49l62 293q6 31 6 43t-55 18l8 39h221zM662 1008q55 0 90 28q34 28 34 72q-1 92 -96 92h-39l-41 -192h52z" />
    <glyph glyph-name="macron" unicode="&#xaf;" horiz-adv-x="1024" 
d="M229 1276l27 119h537l-27 -119h-537z" />
    <glyph glyph-name="degree" unicode="&#xb0;" horiz-adv-x="698" 
d="M413 842q-131 0 -203 72t-73 184q0 150 97 255q96 105 228 105t205 -73t72 -183q1 -150 -97 -255t-229 -105zM246 1122q0 -186 173 -186q87 0 149 75t62 167t-42 139q-43 47 -130 47q-88 0 -150 -75t-62 -167z" />
    <glyph glyph-name="plusminus" unicode="&#xb1;" horiz-adv-x="1153" 
d="M57 295l27 125h897l-29 -125h-895zM639 1233h127l-61 -293h385l-27 -125h-385l-62 -291h-122l59 291h-387l29 125h383z" />
    <glyph glyph-name="twosuperior" unicode="&#xb2;" horiz-adv-x="864" 
d="M524 741q88 0 129 25t109 117h55l-108 -295h-607l13 55q243 201 357 313t146 178q33 65 33 135t-37 108t-104 38q-115 0 -238 -135l-32 45q51 86 143 146q92 61 202 61q111 0 175 -62t63 -165q0 -63 -18 -115q-17 -52 -71 -110t-94 -93t-144 -116t-160 -130h188z" />
    <glyph glyph-name="threesuperior" unicode="&#xb3;" horiz-adv-x="858" 
d="M780 883q0 -152 -112 -233t-258 -81q-146 -1 -222 55t-76 140t83 119h96q-39 -136 20 -205q35 -41 113 -41t133 60q55 61 55 153t-46 137t-120 45q-33 0 -77 -6l-11 47q131 43 207 96t76 134q0 47 -30 75t-85 27q-115 0 -227 -113l-33 39q121 193 332 193q104 0 162 -47
t57 -135q0 -88 -76 -148t-180 -88q103 -14 161 -72t58 -151z" />
    <glyph glyph-name="acute" unicode="&#xb4;" horiz-adv-x="1024" 
d="M477 1559h279l-396 -347h-92z" />
    <glyph glyph-name="mu" unicode="&#xb5;" horiz-adv-x="1273" 
d="M846 -20q-117 0 -117 139q0 80 94 391h-14q-121 -242 -275 -386t-274 -144l-90 -363l-193 -20l328 1333l-155 63l12 43l321 70h52l-205 -827q-18 -78 -18 -126t44 -49q80 0 188 113t201 290q94 177 142 355l55 209l191 14l-211 -847q-18 -70 -18 -96t28 -25q66 0 190 153
l41 -43q-92 -137 -165 -192t-152 -55z" />
    <glyph glyph-name="paragraph" unicode="&#xb6;" horiz-adv-x="1269" 
d="M647 537l176 823q-135 0 -234 -83q-185 -155 -183 -421q0 -139 57 -229t184 -90zM184 856q0 258 177 420t479 162h559l-19 -80q-111 -4 -166 -33t-73 -117l-342 -1611h-107l375 1763h-137l-375 -1763h-106l182 862q-219 -1 -333 111t-114 286z" />
    <glyph glyph-name="periodcentered" unicode="&#xb7;" horiz-adv-x="524" 
d="M131 616q0 62 43 106q42 44 106 44t107 -43t43 -107t-43 -106q-43 -43 -106 -43t-107 43q-43 43 -43 106z" />
    <glyph glyph-name="cedilla" unicode="&#xb8;" horiz-adv-x="1024" 
d="M565 -285q0 80 -182 86l119 215h65l-61 -114q207 -4 207 -131q0 -111 -112 -167t-284 -57l-6 68q254 0 254 100z" />
    <glyph glyph-name="onesuperior" unicode="&#xb9;" horiz-adv-x="751" 
d="M516 714q0 -30 35 -41t139 -18l-12 -67h-555l14 67q113 7 155 23t54 74l115 548h-203l14 70l68 8q102 12 162 44t121 110h61l-160 -754q-8 -34 -8 -64z" />
    <glyph glyph-name="ordmasculine" unicode="&#xba;" horiz-adv-x="811" 
d="M418 645q-125 0 -201 81t-76 224q0 199 129 364t314 165q124 0 200 -81t76 -224q0 -199 -129 -364t-313 -165zM422 719q124 1 196 155t72 342t-110 189q-123 0 -196 -155t-73 -343t111 -188z" />
    <glyph glyph-name="guillemotright" unicode="&#xbb;" horiz-adv-x="997" 
d="M901 571l-4 -20l-422 -389h-110l344 399l-170 400h88zM535 571l-5 -20l-421 -389h-109l342 399l-170 400h88z" />
    <glyph glyph-name="onequarter" unicode="&#xbc;" horiz-adv-x="1931" 
d="M516 714q0 -30 35 -41t139 -18l-12 -67h-555l14 67q113 7 155 23t54 74l115 548h-203l14 70l68 8q102 12 162 44t121 110h61l-160 -754q-8 -34 -8 -64zM389 0l1256 1518h122l-1255 -1518h-123zM1503 -145h-170l53 243h-454l16 70l639 629h115l-127 -609h156l-19 -90h-156
zM1069 188h336l88 408z" />
    <glyph glyph-name="onehalf" unicode="&#xbd;" horiz-adv-x="1959" 
d="M1497 6q88 0 129 25t109 116h55l-109 -294h-606l12 55q440 363 504 490q33 64 33 136t-38 109t-103 37q-115 0 -238 -135l-33 45q52 86 144 146t202 60t174 -60q65 -62 64 -167q0 -63 -18 -114t-72 -109t-93 -94q-39 -35 -143 -116t-161 -130h188zM516 714q0 -30 35 -41
t139 -18l-12 -67h-555l14 67q113 7 155 23t54 74l115 548h-203l14 70l68 8q102 12 162 44t121 110h61l-160 -754q-8 -34 -8 -64zM389 0l1256 1518h122l-1255 -1518h-123z" />
    <glyph glyph-name="threequarters" unicode="&#xbe;" horiz-adv-x="1931" 
d="M389 0l1256 1518h122l-1255 -1518h-123zM1503 -145h-170l53 243h-454l16 70l639 629h115l-127 -609h156l-19 -90h-156zM1069 188h336l88 408zM780 883q0 -152 -112 -233t-258 -81q-146 -1 -222 55t-76 140t83 119h96q-39 -136 20 -205q35 -41 113 -41t133 60
q55 61 55 153t-46 137t-120 45q-33 0 -77 -6l-11 47q131 43 207 96t76 134q0 47 -30 75t-85 27q-115 0 -227 -113l-33 39q121 193 332 193q104 0 162 -47t57 -135q0 -88 -76 -148t-180 -88q103 -14 161 -72t58 -151z" />
    <glyph glyph-name="questiondown" unicode="&#xbf;" horiz-adv-x="901" 
d="M184 -90q0 -90 52 -140t140 -50q89 0 141 54q52 56 52 154q0 27 -10 74h152q49 -37 49 -117q0 -115 -111 -187t-279 -71q-168 0 -271 84q-101 83 -101 221t73 216t212 156q139 76 199 142t61 160q0 33 -6 60h53q57 -80 57 -168q0 -175 -250 -320q-115 -66 -164 -122
t-49 -146zM774 954q0 -63 -43 -106t-106 -43t-107 43q-43 43 -43 106q0 62 43 106q42 44 106 44t107 -44t43 -106z" />
    <glyph glyph-name="Agrave" unicode="&#xc0;" horiz-adv-x="1468" 
d="M602 1864h250l115 -305h-82zM834 1198l-392 -633h521zM209 151q0 -39 42 -53t136 -18l-14 -80h-461l16 80q53 8 85 22t57 54l725 1165l-35 135h217l278 -1300q8 -38 35 -54t76 -22l-14 -80h-547l14 80q72 2 110 8q39 6 71 32t32 75q0 14 -4 55l-45 215h-602l-131 -213
q-41 -63 -41 -101z" />
    <glyph glyph-name="Aacute" unicode="&#xc1;" horiz-adv-x="1468" 
d="M1042 1864h271l-373 -305h-84zM834 1198l-392 -633h521zM209 151q0 -39 42 -53t136 -18l-14 -80h-461l16 80q53 8 85 22t57 54l725 1165l-35 135h217l278 -1300q8 -38 35 -54t76 -22l-14 -80h-547l14 80q72 2 110 8q39 6 71 32t32 75q0 14 -4 55l-45 215h-602l-131 -213
q-41 -63 -41 -101z" />
    <glyph glyph-name="Acircumflex" unicode="&#xc2;" horiz-adv-x="1468" 
d="M1049 1884l217 -325h-92l-220 182l-346 -182h-96l385 325h152zM834 1198l-392 -633h521zM209 151q0 -39 42 -53t136 -18l-14 -80h-461l16 80q53 8 85 22t57 54l725 1165l-35 135h217l278 -1300q8 -38 35 -54t76 -22l-14 -80h-547l14 80q72 2 110 8q39 6 71 32t32 75
q0 14 -4 55l-45 215h-602l-131 -213q-41 -63 -41 -101z" />
    <glyph glyph-name="Atilde" unicode="&#xc3;" horiz-adv-x="1468" 
d="M780 1704q-42 0 -68 -27t-69 -100l-76 20q76 147 129 197t123 49q70 0 154 -74q84 -73 125 -73q42 0 68 26t71 101l74 -21q-76 -147 -129 -196q-53 -50 -123 -50t-154 74t-125 74zM834 1198l-392 -633h521zM209 151q0 -39 42 -53t136 -18l-14 -80h-461l16 80q53 8 85 22
t57 54l725 1165l-35 135h217l278 -1300q8 -38 35 -54t76 -22l-14 -80h-547l14 80q72 2 110 8q39 6 71 32t32 75q0 14 -4 55l-45 215h-602l-131 -213q-41 -63 -41 -101z" />
    <glyph glyph-name="Adieresis" unicode="&#xc4;" horiz-adv-x="1468" 
d="M1125 1577q-52 0 -86 34q-33 34 -33 86t37 91q39 39 91 39t86 -34t34 -86t-39 -91q-38 -39 -90 -39zM744 1577q-52 0 -86 34t-34 86t39 91q38 39 90 39t86 -34q33 -34 33 -86t-38 -91t-90 -39zM834 1198l-392 -633h521zM209 151q0 -39 42 -53t136 -18l-14 -80h-461l16 80
q53 8 85 22t57 54l725 1165l-35 135h217l278 -1300q8 -38 35 -54t76 -22l-14 -80h-547l14 80q72 2 110 8q39 6 71 32t32 75q0 14 -4 55l-45 215h-602l-131 -213q-41 -63 -41 -101z" />
    <glyph glyph-name="Aring" unicode="&#xc5;" horiz-adv-x="1468" 
d="M933 1620q48 0 79 38q30 38 30 86q-1 99 -90 97q-53 0 -84 -38q-30 -38 -30 -86q0 -49 24 -73t71 -24zM752 1717q0 81 60 141t144 59q84 0 128 -46t44 -127q0 -80 -60 -140t-143 -60t-128 46t-45 127zM834 1198l-392 -633h521zM209 151q0 -39 42 -53t136 -18l-14 -80
h-461l16 80q53 8 85 22t57 54l725 1165l-35 135h217l278 -1300q8 -38 35 -54t76 -22l-14 -80h-547l14 80q72 2 110 8q39 6 71 32t32 75q0 14 -4 55l-45 215h-602l-131 -213q-41 -63 -41 -101z" />
    <glyph glyph-name="AE" unicode="&#xc6;" horiz-adv-x="2131" 
d="M1217 1268l-601 -662h459zM1827 1343h-397l-119 -561h327q68 0 111 44t80 141h69l-98 -463h-69q0 98 -24 141t-89 43h-328l-88 -420q-10 -47 -10 -91t41 -63t141 -20h156q135 0 218 54t220 221h60l-140 -369h-1151l19 80q113 4 167 33t72 116l62 287h-522l-240 -264
q-43 -45 -43 -92q0 -48 42 -62t138 -18l-14 -80h-506l16 80q83 10 142 76l1044 1144q-27 57 -176 58l16 80h1227l-74 -342h-55q-33 150 -71 198t-154 49z" />
    <glyph glyph-name="Ccedilla" unicode="&#xc7;" horiz-adv-x="1363" 
d="M633 -285q0 80 -182 86l104 191q-205 37 -319 181t-113 374q0 371 243 641t592 270q270 0 433 -125l-62 -305h-69q-27 330 -314 330q-182 0 -325 -120t-214 -300t-71 -393t99 -338t267 -125t269 86q102 86 207 293h86l-97 -348q-233 -133 -467 -133q-31 0 -84 4l-43 -82
q207 -4 207 -131q0 -111 -112 -167t-283 -57l-6 68q254 0 254 100z" />
    <glyph glyph-name="Egrave" unicode="&#xc8;" horiz-adv-x="1370" 
d="M645 1864h250l115 -305h-82zM446 1253q0 59 -39 80q-40 20 -145 25l17 80h1140l-73 -342h-56q-32 150 -70 198t-155 49h-397l-119 -561h328q69 0 111 44t79 141h70l-99 -463h-69q0 98 -24 141t-89 43h-328l-88 -420q-10 -45 -10 -90t41 -64t141 -20h156q135 0 218 54
t220 221h60l-140 -369h-1151l19 80q113 4 167 33t72 116l203 949q10 51 10 75z" />
    <glyph glyph-name="Eacute" unicode="&#xc9;" horiz-adv-x="1370" 
d="M1083 1864h271l-373 -305h-84zM446 1253q0 59 -39 80q-40 20 -145 25l17 80h1140l-73 -342h-56q-32 150 -70 198t-155 49h-397l-119 -561h328q69 0 111 44t79 141h70l-99 -463h-69q0 98 -24 141t-89 43h-328l-88 -420q-10 -45 -10 -90t41 -64t141 -20h156q135 0 218 54
t220 221h60l-140 -369h-1151l19 80q113 4 167 33t72 116l203 949q10 51 10 75z" />
    <glyph glyph-name="Ecircumflex" unicode="&#xca;" horiz-adv-x="1370" 
d="M1090 1884l217 -325h-93l-219 182l-346 -182h-96l385 325h152zM446 1253q0 59 -39 80q-40 20 -145 25l17 80h1140l-73 -342h-56q-32 150 -70 198t-155 49h-397l-119 -561h328q69 0 111 44t79 141h70l-99 -463h-69q0 98 -24 141t-89 43h-328l-88 -420q-10 -45 -10 -90
t41 -64t141 -20h156q135 0 218 54t220 221h60l-140 -369h-1151l19 80q113 4 167 33t72 116l203 949q10 51 10 75z" />
    <glyph glyph-name="Edieresis" unicode="&#xcb;" horiz-adv-x="1370" 
d="M1166 1577q-52 0 -86 34t-34 86t38 91t90 39t87 -34q33 -34 33 -86t-38 -91t-90 -39zM785 1577q-52 0 -86 34q-33 34 -33 86t37 91q39 39 91 39t86 -34t34 -86t-39 -91q-38 -39 -90 -39zM446 1253q0 59 -39 80q-40 20 -145 25l17 80h1140l-73 -342h-56q-32 150 -70 198
t-155 49h-397l-119 -561h328q69 0 111 44t79 141h70l-99 -463h-69q0 98 -24 141t-89 43h-328l-88 -420q-10 -45 -10 -90t41 -64t141 -20h156q135 0 218 54t220 221h60l-140 -369h-1151l19 80q113 4 167 33t72 116l203 949q10 51 10 75z" />
    <glyph glyph-name="Igrave" unicode="&#xcc;" horiz-adv-x="782" 
d="M311 1864h250l115 -305h-82zM428 184q0 -60 40 -80t144 -24l-16 -80h-621l19 80q113 4 167 33t72 116l203 949q10 51 10 75q0 59 -39 80q-40 20 -145 25l17 80h620l-18 -80q-113 -4 -167 -33t-73 -117l-203 -948q-10 -51 -10 -76z" />
    <glyph glyph-name="Iacute" unicode="&#xcd;" horiz-adv-x="782" 
d="M750 1864h270l-373 -305h-84zM428 184q0 -60 40 -80t144 -24l-16 -80h-621l19 80q113 4 167 33t72 116l203 949q10 51 10 75q0 59 -39 80q-40 20 -145 25l17 80h620l-18 -80q-113 -4 -167 -33t-73 -117l-203 -948q-10 -51 -10 -76z" />
    <glyph glyph-name="Icircumflex" unicode="&#xce;" horiz-adv-x="782" 
d="M756 1884l217 -325h-92l-219 182l-347 -182h-96l385 325h152zM428 184q0 -60 40 -80t144 -24l-16 -80h-621l19 80q113 4 167 33t72 116l203 949q10 51 10 75q0 59 -39 80q-40 20 -145 25l17 80h620l-18 -80q-113 -4 -167 -33t-73 -117l-203 -948q-10 -51 -10 -76z" />
    <glyph glyph-name="Idieresis" unicode="&#xcf;" horiz-adv-x="782" 
d="M961 1707q-1 -52 -39 -91t-90 -39t-86 34t-34 86t39 91q38 39 90 39t86 -34t34 -86zM452 1577q-52 0 -86 34t-34 86t38 91t90 39t86 -34t34 -86t-38 -91t-90 -39zM428 184q0 -60 40 -80t144 -24l-16 -80h-621l19 80q113 4 167 33t72 116l203 949q10 51 10 75q0 59 -39 80
q-40 20 -145 25l17 80h620l-18 -80q-113 -4 -167 -33t-73 -117l-203 -948q-10 -51 -10 -76z" />
    <glyph glyph-name="Eth" unicode="&#xd0;" horiz-adv-x="1550" 
d="M829 1343h-141l-121 -563h361l-19 -88h-360l-88 -420q-10 -46 -10 -92t34 -66q35 -19 133 -20h13q279 0 470 203t191 551q0 221 -107 358q-108 137 -356 137zM467 1253q0 59 -40 79t-144 26l16 80h563q332 0 489 -162t156 -428q0 -364 -259 -606t-640 -242h-612l18 80
q113 4 167 33t73 116l98 463h-205l19 88h205l86 398q10 51 10 75z" />
    <glyph glyph-name="Ntilde" unicode="&#xd1;" horiz-adv-x="1624" 
d="M874 1704q-40 0 -67 -27t-70 -100l-75 20q76 147 129 197t123 49q70 0 154 -74q84 -73 124 -73q41 0 68 26q26 27 71 101l74 -21q-76 -147 -129 -196q-53 -50 -123 -50t-154 74q-85 74 -125 74zM1399 1253q0 59 -40 79t-145 26l17 80h543l-19 -80q-113 -4 -167 -33
t-72 -117l-254 -1208h-86l-629 1137l-185 -877q-10 -51 -10 -76q0 -60 40 -80t145 -24l-17 -80h-545l19 80q113 4 167 33t72 116l218 1012q-49 74 -82 94t-109 23l19 80h325l602 -1116l183 856q10 51 10 75z" />
    <glyph glyph-name="Ograve" unicode="&#xd2;" horiz-adv-x="1474" 
d="M651 1864h250l115 -305h-82zM659 -20q-256 0 -396 162t-140 421q0 369 225 632t547 263q256 0 396 -162t141 -419q0 -369 -226 -633t-547 -264zM662 86q162 0 292 114t197 290q68 176 68 386q0 208 -82 342t-245 134t-292 -114t-197 -290q-67 -176 -67 -385t82 -343
t244 -134z" />
    <glyph glyph-name="Oacute" unicode="&#xd3;" horiz-adv-x="1474" 
d="M1090 1864h270l-373 -305h-84zM659 -20q-256 0 -396 162t-140 421q0 369 225 632t547 263q256 0 396 -162t141 -419q0 -369 -226 -633t-547 -264zM662 86q162 0 292 114t197 290q68 176 68 386q0 208 -82 342t-245 134t-292 -114t-197 -290q-67 -176 -67 -385t82 -343
t244 -134z" />
    <glyph glyph-name="Ocircumflex" unicode="&#xd4;" horiz-adv-x="1474" 
d="M1096 1884l217 -325h-92l-220 182l-346 -182h-96l385 325h152zM659 -20q-256 0 -396 162t-140 421q0 369 225 632t547 263q256 0 396 -162t141 -419q0 -369 -226 -633t-547 -264zM662 86q162 0 292 114t197 290q68 176 68 386q0 208 -82 342t-245 134t-292 -114
t-197 -290q-67 -176 -67 -385t82 -343t244 -134z" />
    <glyph glyph-name="Otilde" unicode="&#xd5;" horiz-adv-x="1474" 
d="M827 1704q-41 0 -67 -27t-70 -100l-76 20q76 147 129 197t123 49q70 0 154 -74q84 -73 125 -73t67 26t72 101l74 -21q-76 -147 -129 -196q-53 -50 -123 -50t-154 74t-125 74zM659 -20q-256 0 -396 162t-140 421q0 369 225 632t547 263q256 0 396 -162t141 -419
q0 -369 -226 -633t-547 -264zM662 86q162 0 292 114t197 290q68 176 68 386q0 208 -82 342t-245 134t-292 -114t-197 -290q-67 -176 -67 -385t82 -343t244 -134z" />
    <glyph glyph-name="Odieresis" unicode="&#xd6;" horiz-adv-x="1474" 
d="M1172 1577q-52 0 -86 34t-34 86t39 91q38 39 90 39t86 -34q33 -34 33 -86t-38 -91t-90 -39zM792 1577q-52 0 -86 34t-34 86t38 91t90 39t86 -34t34 -86t-38 -91t-90 -39zM659 -20q-256 0 -396 162t-140 421q0 369 225 632t547 263q256 0 396 -162t141 -419
q0 -369 -226 -633t-547 -264zM662 86q162 0 292 114t197 290q68 176 68 386q0 208 -82 342t-245 134t-292 -114t-197 -290q-67 -176 -67 -385t82 -343t244 -134z" />
    <glyph glyph-name="multiply" unicode="&#xd7;" horiz-adv-x="999" 
d="M442 758l-221 278l101 86l219 -284l342 284l67 -90l-340 -282l224 -281l-101 -82l-221 281l-340 -281l-70 88z" />
    <glyph glyph-name="Oslash" unicode="&#xd8;" horiz-adv-x="1474" 
d="M336 561q0 -211 80 -336l659 1063q-76 63 -182 64q-164 0 -293 -114q-128 -114 -196 -290t-68 -387zM662 86q162 0 292 114t197 290q68 176 68 386q0 209 -80 338l-662 -1064q76 -64 185 -64zM1432 877q0 -369 -226 -633t-547 -264q-137 0 -253 53l-105 -168l-80 47
l105 170q-203 156 -203 481q0 369 225 632t547 263q135 0 252 -53l94 151l80 -47l-94 -153q205 -156 205 -479z" />
    <glyph glyph-name="Ugrave" unicode="&#xd9;" horiz-adv-x="1560" 
d="M739 1864h250l115 -305h-82zM389 1253q0 59 -40 79t-144 26l16 80h621l-19 -80q-113 -4 -167 -33t-72 -117l-142 -665q-14 -76 -14 -121q0 -144 82 -232t250 -88t283 94q114 94 159 306l141 676q10 51 11 75q0 59 -40 79t-145 26l17 80h543l-19 -80q-113 -4 -167 -33
t-73 -117l-157 -745q-51 -244 -208 -364q-157 -119 -387 -119t-357 112q-126 112 -125 324q0 61 16 147l127 615q10 51 10 75z" />
    <glyph glyph-name="Uacute" unicode="&#xda;" horiz-adv-x="1560" 
d="M1178 1864h270l-373 -305h-84zM389 1253q0 59 -40 79t-144 26l16 80h621l-19 -80q-113 -4 -167 -33t-72 -117l-142 -665q-14 -76 -14 -121q0 -144 82 -232t250 -88t283 94q114 94 159 306l141 676q10 51 11 75q0 59 -40 79t-145 26l17 80h543l-19 -80q-113 -4 -167 -33
t-73 -117l-157 -745q-51 -244 -208 -364q-157 -119 -387 -119t-357 112q-126 112 -125 324q0 61 16 147l127 615q10 51 10 75z" />
    <glyph glyph-name="Ucircumflex" unicode="&#xdb;" horiz-adv-x="1560" 
d="M1184 1884l217 -325h-92l-219 182l-347 -182h-96l385 325h152zM389 1253q0 59 -40 79t-144 26l16 80h621l-19 -80q-113 -4 -167 -33t-72 -117l-142 -665q-14 -76 -14 -121q0 -144 82 -232t250 -88t283 94q114 94 159 306l141 676q10 51 11 75q0 59 -40 79t-145 26l17 80
h543l-19 -80q-113 -4 -167 -33t-73 -117l-157 -745q-51 -244 -208 -364q-157 -119 -387 -119t-357 112q-126 112 -125 324q0 61 16 147l127 615q10 51 10 75z" />
    <glyph glyph-name="Udieresis" unicode="&#xdc;" horiz-adv-x="1560" 
d="M1261 1577q-52 0 -86 34t-34 86t38 91t90 39t86 -34t34 -86t-38 -91t-90 -39zM880 1577q-52 0 -86 34t-34 86t38 91t90 39t86 -34t34 -86t-38 -91t-90 -39zM389 1253q0 59 -40 79t-144 26l16 80h621l-19 -80q-113 -4 -167 -33t-72 -117l-142 -665q-14 -76 -14 -121
q0 -144 82 -232t250 -88t283 94q114 94 159 306l141 676q10 51 11 75q0 59 -40 79t-145 26l17 80h543l-19 -80q-113 -4 -167 -33t-73 -117l-157 -745q-51 -244 -208 -364q-157 -119 -387 -119t-357 112q-126 112 -125 324q0 61 16 147l127 615q10 51 10 75z" />
    <glyph glyph-name="Yacute" unicode="&#xdd;" horiz-adv-x="1363" 
d="M1079 1864h271l-373 -305h-84zM1235 1290q0 34 -37 46q-37 13 -137 22l18 80h469l-18 -80q-86 -12 -144 -76l-598 -702l-67 -320q-12 -49 -12 -76q0 -60 49 -80t157 -24l-16 -80h-651l16 80q117 4 180 34t82 115l74 349l-291 704q-16 39 -40 54t-70 22l18 80h539l-19 -80
q-69 0 -107 -4t-70 -24t-32 -54q0 -33 21 -88l199 -514l432 514q55 68 55 102z" />
    <glyph glyph-name="Thorn" unicode="&#xde;" horiz-adv-x="1275" 
d="M811 1130q237 0 355 -98t118 -264q0 -219 -179 -333t-478 -113h-174l-13 -52q-12 -57 -12 -82q0 -62 54 -82t184 -26l-15 -80h-676l19 80q113 4 167 33t72 116l203 949q10 51 10 75q0 59 -39 80q-40 20 -145 25l17 80h620l-18 -80q-111 -4 -165 -33t-75 -117l-16 -78h186
zM631 416q446 0 446 352q0 129 -83 199t-242 69h-148l-133 -620h160z" />
    <glyph glyph-name="germandbls" unicode="&#xdf;" horiz-adv-x="1222" 
d="M825 1569q143 1 229 -63t87 -175q0 -77 -39 -145t-76 -103q-36 -35 -98 -83t-82 -78t-20 -70q0 -41 47 -109t105 -128t106 -143t49 -155q-1 -153 -107 -245t-252 -92t-228 62q-83 62 -83 154t90 134h16q74 -260 252 -260q154 0 154 163q0 70 -49 154t-110 149
q-158 171 -158 272q0 56 35 99q36 43 157 139t121 261q0 84 -46 132t-124 48q-121 0 -186 -89t-99 -255l-172 -834q-84 -409 -189 -571t-278 -162q-82 0 -133 34t-51 91q0 96 108 123h29q33 -160 123 -160q37 0 61 28t62 146q37 118 76 346l141 803h-170l18 98h170
q51 221 183 353t331 131z" />
    <glyph glyph-name="agrave" unicode="&#xe0;" horiz-adv-x="1222" 
d="M440 1559h254l129 -347h-84zM809 -20q-115 0 -115 139q0 45 26 153t54 191h-14q-98 -211 -221 -347t-235 -136t-174 80q-60 81 -60 227q0 323 198 571t434 248q140 0 222 -82l120 98h72l-72 -229l-159 -655q-19 -70 -19 -96t29 -25q68 0 188 153l43 -43
q-90 -135 -164 -191t-153 -56zM367 117q119 0 265 223t238 588q-54 94 -170 94t-222 -111t-164 -275q-56 -164 -58 -333q0 -86 29 -136t82 -50z" />
    <glyph glyph-name="aacute" unicode="&#xe1;" horiz-adv-x="1222" 
d="M911 1559h279l-395 -347h-93zM809 -20q-115 0 -115 139q0 45 26 153t54 191h-14q-98 -211 -221 -347t-235 -136t-174 80q-60 81 -60 227q0 323 198 571t434 248q140 0 222 -82l120 98h72l-72 -229l-159 -655q-19 -70 -19 -96t29 -25q68 0 188 153l43 -43
q-90 -135 -164 -191t-153 -56zM367 117q119 0 265 223t238 588q-54 94 -170 94t-222 -111t-164 -275q-56 -164 -58 -333q0 -86 29 -136t82 -50z" />
    <glyph glyph-name="acircumflex" unicode="&#xe2;" horiz-adv-x="1222" 
d="M893 1559l197 -347h-93l-198 205l-326 -205h-96l364 347h152zM809 -20q-115 0 -115 139q0 45 26 153t54 191h-14q-98 -211 -221 -347t-235 -136t-174 80q-60 81 -60 227q0 323 198 571t434 248q140 0 222 -82l120 98h72l-72 -229l-159 -655q-19 -70 -19 -96t29 -25
q68 0 188 153l43 -43q-90 -135 -164 -191t-153 -56zM367 117q119 0 265 223t238 588q-54 94 -170 94t-222 -111t-164 -275q-56 -164 -58 -333q0 -86 29 -136t82 -50z" />
    <glyph glyph-name="atilde" unicode="&#xe3;" horiz-adv-x="1222" 
d="M915 1251q-69 0 -153 74t-125 74t-68 -27t-69 -100l-76 20q76 146 129 196t123 50t154 -74t124 -74q41 0 68 28q27 26 72 100l73 -21q-76 -147 -129 -197t-123 -49zM809 -20q-115 0 -115 139q0 45 26 153t54 191h-14q-98 -211 -221 -347t-235 -136t-174 80
q-60 81 -60 227q0 323 198 571t434 248q140 0 222 -82l120 98h72l-72 -229l-159 -655q-19 -70 -19 -96t29 -25q68 0 188 153l43 -43q-90 -135 -164 -191t-153 -56zM367 117q119 0 265 223t238 588q-54 94 -170 94t-222 -111t-164 -275q-56 -164 -58 -333q0 -86 29 -136
t82 -50z" />
    <glyph glyph-name="adieresis" unicode="&#xe4;" horiz-adv-x="1222" 
d="M988 1509q52 1 86 -33t34 -86t-38 -91t-90 -39t-86 34t-34 85q0 52 38 91t90 39zM607 1509q52 1 86 -33t34 -86t-38 -91t-90 -39t-86 34t-34 85q0 52 38 91t90 39zM809 -20q-115 0 -115 139q0 45 26 153t54 191h-14q-98 -211 -221 -347t-235 -136t-174 80q-60 81 -60 227
q0 323 198 571t434 248q140 0 222 -82l120 98h72l-72 -229l-159 -655q-19 -70 -19 -96t29 -25q68 0 188 153l43 -43q-90 -135 -164 -191t-153 -56zM367 117q119 0 265 223t238 588q-54 94 -170 94t-222 -111t-164 -275q-56 -164 -58 -333q0 -86 29 -136t82 -50z" />
    <glyph glyph-name="aring" unicode="&#xe5;" horiz-adv-x="1222" 
d="M981 1404q-1 -80 -61 -140t-143 -60t-128 46t-45 127t60 141t144 59q83 0 128 -46t45 -127zM895 1404q1 100 -95 98q-48 0 -79 -39q-31 -38 -31 -86q0 -97 95 -97q48 0 79 38t31 86zM809 -20q-115 0 -115 139q0 45 26 153t54 191h-14q-98 -211 -221 -347t-235 -136
t-174 80q-60 81 -60 227q0 323 198 571t434 248q140 0 222 -82l120 98h72l-72 -229l-159 -655q-19 -70 -19 -96t29 -25q68 0 188 153l43 -43q-90 -135 -164 -191t-153 -56zM367 117q119 0 265 223t238 588q-54 94 -170 94t-222 -111t-164 -275q-56 -164 -58 -333
q0 -86 29 -136t82 -50z" />
    <glyph glyph-name="ae" unicode="&#xe6;" horiz-adv-x="1579" 
d="M1241 1004q-123 0 -229 -142t-133 -350q253 76 369 156t116 196q0 60 -33 100t-90 40zM700 1022q-116 0 -222 -111t-164 -275q-56 -164 -57 -341q-1 -178 119 -178q62 0 148 85t166 236q18 266 199 465q-73 119 -189 119zM702 1106q156 0 259 -133q156 133 335 133
q120 0 180 -62t60 -174q0 -111 -110 -197t-251 -135t-305 -92v-53q0 -135 60 -214t162 -79q164 0 323 191l51 -41q-111 -146 -214 -208q-102 -62 -242 -62t-223 97t-97 251q-90 -158 -192 -253t-204 -95t-164 80q-60 81 -60 227q0 323 198 571t434 248z" />
    <glyph glyph-name="ccedilla" unicode="&#xe7;" horiz-adv-x="948" 
d="M354 -285q0 80 -182 86l107 197q-203 63 -203 358q0 180 80 352t223 286q143 112 311 112q115 0 175 -48q61 -48 61 -138t-115 -138h-33q-6 100 -47 166t-123 66t-165 -95t-131 -239t-48 -289q0 -293 193 -293q92 0 163 45t156 144l47 -39q-73 -117 -181 -193t-243 -75
q-25 0 -61 4l-43 -82q207 -4 207 -131q0 -111 -112 -167t-284 -57l-6 68q254 0 254 100z" />
    <glyph glyph-name="egrave" unicode="&#xe8;" horiz-adv-x="966" 
d="M356 1559h254l129 -347h-84zM629 1004q-123 0 -229 -142t-134 -350q254 76 370 156t116 196q0 60 -33 100t-90 40zM258 393q0 -135 59 -214t162 -79q164 0 324 191l51 -41q-111 -146 -214 -208t-228 -62q-168 0 -252 118t-84 292q0 173 82 339t224 271q142 106 282 106
t200 -62t60 -174q0 -111 -111 -197t-253 -136q-143 -50 -302 -91v-53z" />
    <glyph glyph-name="eacute" unicode="&#xe9;" horiz-adv-x="966" 
d="M827 1559h279l-395 -347h-93zM629 1004q-123 0 -229 -142t-134 -350q254 76 370 156t116 196q0 60 -33 100t-90 40zM258 393q0 -135 59 -214t162 -79q164 0 324 191l51 -41q-111 -146 -214 -208t-228 -62q-168 0 -252 118t-84 292q0 173 82 339t224 271q142 106 282 106
t200 -62t60 -174q0 -111 -111 -197t-253 -136q-143 -50 -302 -91v-53z" />
    <glyph glyph-name="ecircumflex" unicode="&#xea;" horiz-adv-x="966" 
d="M809 1559l197 -347h-93l-198 205l-326 -205h-96l364 347h152zM629 1004q-123 0 -229 -142t-134 -350q254 76 370 156t116 196q0 60 -33 100t-90 40zM258 393q0 -135 59 -214t162 -79q164 0 324 191l51 -41q-111 -146 -214 -208t-228 -62q-168 0 -252 118t-84 292
q0 173 82 339t224 271q142 106 282 106t200 -62t60 -174q0 -111 -111 -197t-253 -136q-143 -50 -302 -91v-53z" />
    <glyph glyph-name="edieresis" unicode="&#xeb;" horiz-adv-x="966" 
d="M902 1509q52 1 86 -33t34 -86t-38 -91t-90 -39t-86 34t-34 85q0 52 38 91t90 39zM521 1509q52 1 86 -33t34 -86t-38 -91t-90 -39t-86 34t-34 85q0 52 38 91t90 39zM629 1004q-123 0 -229 -142t-134 -350q254 76 370 156t116 196q0 60 -33 100t-90 40zM258 393
q0 -135 59 -214t162 -79q164 0 324 191l51 -41q-111 -146 -214 -208t-228 -62q-168 0 -252 118t-84 292q0 173 82 339t224 271q142 106 282 106t200 -62t60 -174q0 -111 -111 -197t-253 -136q-143 -50 -302 -91v-53z" />
    <glyph glyph-name="igrave" unicode="&#xec;" horiz-adv-x="684" 
d="M156 1559h254l129 -347h-84zM268 -20q-68 0 -104 38q-35 38 -35 96q0 60 29 181l157 635l-155 63l12 43l322 70h51l-213 -868q-18 -70 -18 -96t28 -25q66 0 190 153l41 -43q-93 -137 -165 -192t-140 -55z" />
    <glyph glyph-name="iacute" unicode="&#xed;" horiz-adv-x="684" 
d="M625 1559h278l-395 -347h-92zM268 -20q-68 0 -104 38q-35 38 -35 96q0 60 29 181l157 635l-155 63l12 43l322 70h51l-213 -868q-18 -70 -18 -96t28 -25q66 0 190 153l41 -43q-93 -137 -165 -192t-140 -55z" />
    <glyph glyph-name="icircumflex" unicode="&#xee;" horiz-adv-x="684" 
d="M608 1559l197 -347h-92l-199 205l-326 -205h-96l365 347h151zM268 -20q-68 0 -104 38q-35 38 -35 96q0 60 29 181l157 635l-155 63l12 43l322 70h51l-213 -868q-18 -70 -18 -96t28 -25q66 0 190 153l41 -43q-93 -137 -165 -192t-140 -55z" />
    <glyph glyph-name="idieresis" unicode="&#xef;" horiz-adv-x="684" 
d="M701 1509q52 1 86 -33t34 -86t-38 -91t-90 -39t-86 34t-34 85q0 52 38 91t90 39zM320 1509q52 1 87 -33q33 -34 33 -86t-38 -91t-90 -39t-86 34t-34 85q0 52 38 91t90 39zM268 -20q-68 0 -104 38q-35 38 -35 96q0 60 29 181l157 635l-155 63l12 43l322 70h51l-213 -868
q-18 -70 -18 -96t28 -25q66 0 190 153l41 -43q-93 -137 -165 -192t-140 -55z" />
    <glyph glyph-name="eth" unicode="&#xf0;" horiz-adv-x="1069" 
d="M801 732q0 138 -21 249q-50 43 -148 43t-187 -112t-133 -266t-44 -295q0 -142 44 -216t122 -74q106 0 193 112q86 112 130 266q44 155 44 293zM993 723q-1 -186 -71 -355t-202 -279q-132 -109 -293 -109t-256 108t-95 292q0 183 69 346q70 164 200 272t284 108
q72 0 127 -31q-45 133 -127 230l-314 -121l-28 73l284 109q-102 92 -237 162l45 61q172 -72 301 -182l217 84l29 -74l-183 -69q250 -260 250 -625z" />
    <glyph glyph-name="ntilde" unicode="&#xf1;" horiz-adv-x="1282" 
d="M936 1251q-70 0 -154 74t-125 74t-67 -27t-70 -100l-76 20q76 146 129 196t123 50t154 -74t125 -74t67 28q26 26 72 100l74 -21q-76 -147 -129 -197t-123 -49zM981 1106q137 0 137 -145q0 -37 -12 -91l-168 -632q-18 -70 -18 -91q0 -31 28 -30q66 0 191 153l41 -43
q-92 -137 -165 -192t-141 -55t-104 38q-35 38 -35 103q0 66 29 174l154 569q10 45 10 68q0 43 -37 43q-109 0 -291 -212t-250 -478l-71 -285h-187l232 930l-156 63l12 43l309 70h52l-70 -283l-72 -227h15q106 186 268 348t299 162z" />
    <glyph glyph-name="ograve" unicode="&#xf2;" horiz-adv-x="1069" 
d="M375 1559h254l129 -347h-84zM427 -20q-161 0 -256 108t-95 292q0 183 69 346q70 164 203 272t294 108t256 -109t95 -292q1 -183 -69 -346t-203 -271t-294 -108zM434 61q106 0 193 112q86 113 130 267t44 295t-44 215t-122 74q-107 0 -193 -112t-130 -266t-44 -296
q0 -141 44 -215t122 -74z" />
    <glyph glyph-name="oacute" unicode="&#xf3;" horiz-adv-x="1069" 
d="M825 1559h279l-395 -347h-93zM427 -20q-161 0 -256 108t-95 292q0 183 69 346q70 164 203 272t294 108t256 -109t95 -292q1 -183 -69 -346t-203 -271t-294 -108zM434 61q106 0 193 112q86 113 130 267t44 295t-44 215t-122 74q-107 0 -193 -112t-130 -266t-44 -296
q0 -141 44 -215t122 -74z" />
    <glyph glyph-name="ocircumflex" unicode="&#xf4;" horiz-adv-x="1069" 
d="M811 1559l197 -347h-93l-198 205l-326 -205h-96l364 347h152zM427 -20q-161 0 -256 108t-95 292q0 183 69 346q70 164 203 272t294 108t256 -109t95 -292q1 -183 -69 -346t-203 -271t-294 -108zM434 61q106 0 193 112q86 113 130 267t44 295t-44 215t-122 74
q-107 0 -193 -112t-130 -266t-44 -296q0 -141 44 -215t122 -74z" />
    <glyph glyph-name="otilde" unicode="&#xf5;" horiz-adv-x="1069" 
d="M844 1251q-70 0 -154 74t-125 74t-67 -27t-70 -100l-76 20q76 146 129 196t123 50t154 -74t125 -74t67 28q26 26 72 100l74 -21q-76 -147 -129 -197t-123 -49zM427 -20q-161 0 -256 108t-95 292q0 183 69 346q70 164 203 272t294 108t256 -109t95 -292q1 -183 -69 -346
t-203 -271t-294 -108zM434 61q106 0 193 112q86 113 130 267t44 295t-44 215t-122 74q-107 0 -193 -112t-130 -266t-44 -296q0 -141 44 -215t122 -74z" />
    <glyph glyph-name="odieresis" unicode="&#xf6;" horiz-adv-x="1069" 
d="M906 1509q52 1 86 -33t34 -86t-38 -91t-90 -39t-86 34t-34 85q0 52 38 91t90 39zM525 1509q52 1 86 -33t34 -86t-38 -91t-90 -39t-86 34t-34 85q0 52 38 91t90 39zM427 -20q-161 0 -256 108t-95 292q0 183 69 346q70 164 203 272t294 108t256 -109t95 -292
q1 -183 -69 -346t-203 -271t-294 -108zM434 61q106 0 193 112q86 113 130 267t44 295t-44 215t-122 74q-107 0 -193 -112t-130 -266t-44 -296q0 -141 44 -215t122 -74z" />
    <glyph glyph-name="divide" unicode="&#xf7;" horiz-adv-x="1153" 
d="M555 1106q0 47 34 81t82 34t83 -34q34 -34 34 -81t-34 -83t-83 -36q-48 0 -82 36t-34 83zM420 415q0 48 34 83q34 34 82 34t82 -34t35 -83q0 -48 -35 -83q-34 -35 -82 -35t-82 35t-34 83zM139 696l31 127h895l-29 -127h-897z" />
    <glyph glyph-name="oslash" unicode="&#xf8;" horiz-adv-x="1099" 
d="M260 370q0 -127 27 -194l465 815q-41 33 -103 33q-106 0 -198 -111q-91 -111 -141 -263t-50 -280zM449 61q106 0 198 111q93 112 143 264t50 282t-33 202l-469 -822q43 -37 111 -37zM1024 694q0 -172 -74 -335t-211 -271t-297 -108q-84 0 -155 30l-94 -168l-74 41l96 170
q-139 109 -139 338q0 172 74 335q74 164 210 272t295 108q76 0 146 -27l82 142l73 -41l-82 -144q150 -111 150 -342z" />
    <glyph glyph-name="ugrave" unicode="&#xf9;" horiz-adv-x="1273" 
d="M459 1559h254l129 -347h-84zM858 -20q-117 0 -117 139q1 80 95 391h-15q-127 -252 -266 -391t-270 -139q-66 0 -107 47t-41 117t19 141l161 645l-155 63l12 43l322 70h51l-205 -827q-18 -78 -18 -126t45 -49q79 0 187 113t202 290t141 355l55 209l191 14l-211 -847
q-18 -70 -18 -96t28 -25q66 0 191 153l41 -43q-92 -137 -165 -192t-153 -55z" />
    <glyph glyph-name="uacute" unicode="&#xfa;" horiz-adv-x="1273" 
d="M930 1559h278l-395 -347h-92zM858 -20q-117 0 -117 139q1 80 95 391h-15q-127 -252 -266 -391t-270 -139q-66 0 -107 47t-41 117t19 141l161 645l-155 63l12 43l322 70h51l-205 -827q-18 -78 -18 -126t45 -49q79 0 187 113t202 290t141 355l55 209l191 14l-211 -847
q-18 -70 -18 -96t28 -25q66 0 191 153l41 -43q-92 -137 -165 -192t-153 -55z" />
    <glyph glyph-name="ucircumflex" unicode="&#xfb;" horiz-adv-x="1273" 
d="M911 1559l197 -347h-92l-199 205l-325 -205h-97l365 347h151zM858 -20q-117 0 -117 139q1 80 95 391h-15q-127 -252 -266 -391t-270 -139q-66 0 -107 47t-41 117t19 141l161 645l-155 63l12 43l322 70h51l-205 -827q-18 -78 -18 -126t45 -49q79 0 187 113t202 290
t141 355l55 209l191 14l-211 -847q-18 -70 -18 -96t28 -25q66 0 191 153l41 -43q-92 -137 -165 -192t-153 -55z" />
    <glyph glyph-name="udieresis" unicode="&#xfc;" horiz-adv-x="1273" 
d="M1004 1509q52 1 87 -33q33 -34 33 -86t-38 -91t-90 -39t-86 34t-34 85q0 52 38 91t90 39zM615 1260q-52 0 -86 34q-33 34 -33 85q0 52 38 91t90 39q52 1 86 -33t34 -86t-38 -92q-39 -38 -91 -38zM858 -20q-117 0 -117 139q1 80 95 391h-15q-127 -252 -266 -391t-270 -139
q-66 0 -107 47t-41 117t19 141l161 645l-155 63l12 43l322 70h51l-205 -827q-18 -78 -18 -126t45 -49q79 0 187 113t202 290t141 355l55 209l191 14l-211 -847q-18 -70 -18 -96t28 -25q66 0 191 153l41 -43q-92 -137 -165 -192t-153 -55z" />
    <glyph glyph-name="yacute" unicode="&#xfd;" horiz-adv-x="1054" 
d="M799 1559h278l-395 -347h-92zM845 1106q179 0 179 -195q0 -174 -294 -638q-294 -463 -463 -587q-83 -62 -144 -85t-132 -23t-129 39t-59 119q0 45 27 81t68 48h34q0 -168 131 -168q68 0 139 43t177 174l-176 1026l-150 51l13 43l270 72h26l158 -1004q340 480 340 734
q0 147 -184 147v31q74 92 169 92z" />
    <glyph glyph-name="thorn" unicode="&#xfe;" horiz-adv-x="1187" 
d="M893 1106q109 0 167 -80t58 -211q0 -213 -106 -409t-266 -312q-160 -115 -316 -114q-60 0 -116 26t-81 66l-55 -262q-10 -41 -10 -65t20 -41t45 -23t74 -13l-18 -71h-514l18 71q61 8 91 16t61 32t41 69l368 1583l-151 64l10 41l328 86h47l-160 -687l-106 -305h14
q301 539 557 539zM426 68q125 0 242 112t186 283q70 170 70 338t-115 168q-49 -1 -125 -57q-181 -135 -304 -385q-71 -142 -106 -294q0 -73 42 -119t110 -46z" />
    <glyph glyph-name="ydieresis" unicode="&#xff;" horiz-adv-x="1054" 
d="M486 1260q-52 0 -86 34t-34 85q0 52 38 91t90 39q52 1 87 -33q33 -34 33 -86t-37 -92q-39 -38 -91 -38zM876 1509q52 1 86 -33t34 -86t-39 -91q-38 -39 -90 -39t-86 34q-33 34 -33 85q0 52 37 91q39 39 91 39zM845 1106q179 0 179 -195q0 -174 -294 -638
q-294 -463 -463 -587q-83 -62 -144 -85t-132 -23t-129 39t-59 119q0 45 27 81t68 48h34q0 -168 131 -168q68 0 139 43t177 174l-176 1026l-150 51l13 43l270 72h26l158 -1004q340 480 340 734q0 147 -184 147v31q74 92 169 92z" />
    <glyph glyph-name="Amacron" unicode="&#x100;" horiz-adv-x="1468" 
d="M627 1604l28 127h578l-29 -127h-577zM834 1198l-392 -633h521zM209 151q0 -39 42 -53t136 -18l-14 -80h-461l16 80q53 8 85 22t57 54l725 1165l-35 135h217l278 -1300q8 -38 35 -54t76 -22l-14 -80h-547l14 80q72 2 110 8q39 6 71 32t32 75q0 14 -4 55l-45 215h-602
l-131 -213q-41 -63 -41 -101z" />
    <glyph glyph-name="amacron" unicode="&#x101;" horiz-adv-x="1222" 
d="M500 1276l26 119h537l-27 -119h-536zM809 -20q-115 0 -115 139q0 45 26 153t54 191h-14q-98 -211 -221 -347t-235 -136t-174 80q-60 81 -60 227q0 323 198 571t434 248q140 0 222 -82l120 98h72l-72 -229l-159 -655q-19 -70 -19 -96t29 -25q68 0 188 153l43 -43
q-90 -135 -164 -191t-153 -56zM367 117q119 0 265 223t238 588q-54 94 -170 94t-222 -111t-164 -275q-56 -164 -58 -333q0 -86 29 -136t82 -50z" />
    <glyph glyph-name="Abreve" unicode="&#x102;" horiz-adv-x="1468" 
d="M922 1552q-130 0 -196 65t-67 183q0 43 13 96h73q-2 -12 -2 -34q-1 -86 55 -130t143 -44t161 52t106 156h80q-32 -162 -134 -253t-232 -91zM834 1198l-392 -633h521zM209 151q0 -39 42 -53t136 -18l-14 -80h-461l16 80q53 8 85 22t57 54l725 1165l-35 135h217l278 -1300
q8 -38 35 -54t76 -22l-14 -80h-547l14 80q72 2 110 8q39 6 71 32t32 75q0 14 -4 55l-45 215h-602l-131 -213q-41 -63 -41 -101z" />
    <glyph glyph-name="abreve" unicode="&#x103;" horiz-adv-x="1222" 
d="M762 1214q-231 0 -232 248q0 45 13 97h73q-2 -12 -2 -35q0 -174 178 -174t246 209h80q-33 -165 -126 -255t-230 -90zM809 -20q-115 0 -115 139q0 45 26 153t54 191h-14q-98 -211 -221 -347t-235 -136t-174 80q-60 81 -60 227q0 323 198 571t434 248q140 0 222 -82l120 98
h72l-72 -229l-159 -655q-19 -70 -19 -96t29 -25q68 0 188 153l43 -43q-90 -135 -164 -191t-153 -56zM367 117q119 0 265 223t238 588q-54 94 -170 94t-222 -111t-164 -275q-56 -164 -58 -333q0 -86 29 -136t82 -50z" />
    <glyph glyph-name="Aogonek" unicode="&#x104;" horiz-adv-x="1468" 
d="M834 1198l-392 -633h521zM209 151q0 -39 42 -53t136 -18l-14 -80h-461l16 80q53 8 85 22t57 54l725 1165l-35 135h217l278 -1300q8 -38 35 -54t76 -22l-14 -80h-428q-254 -90 -254 -244q0 -74 90 -73q66 0 201 96l26 -39q-156 -170 -295 -170q-72 0 -117 40t-45 107
q0 109 78 187t273 151q121 45 141 89q10 22 10 44t-4 62l-45 215h-602l-131 -213q-41 -63 -41 -101z" />
    <glyph glyph-name="aogonek" unicode="&#x105;" horiz-adv-x="1222" 
d="M367 117q119 0 265 223t238 588q-54 94 -170 94t-222 -111t-164 -275q-56 -164 -58 -333q0 -86 29 -136t82 -50zM639 -430q-72 0 -117 37t-45 113q0 142 291 276q-74 23 -74 123q0 45 26 153t54 191h-14q-98 -211 -221 -347t-235 -136t-174 80q-60 81 -60 227
q0 323 198 571t434 248q140 0 222 -82l120 98h72l-72 -229l-159 -655q-19 -70 -19 -96t29 -25q68 0 188 153l43 -43q-59 -88 -153 -165q-94 -78 -169 -118t-131 -90t-57 -98q0 -74 91 -73q66 0 200 96l27 -39q-156 -170 -295 -170z" />
    <glyph glyph-name="Cacute" unicode="&#x106;" horiz-adv-x="1363" 
d="M1161 1864h271l-373 -305h-84zM682 -20q-252 0 -406 150t-153 417q0 371 243 641t592 270q270 0 433 -125l-62 -305h-69q-27 330 -314 330q-182 0 -325 -120t-214 -300t-71 -393t99 -338t267 -125t269 86q102 86 207 293h86l-97 -348q-233 -133 -485 -133z" />
    <glyph glyph-name="cacute" unicode="&#x107;" horiz-adv-x="948" 
d="M840 1559h278l-395 -347h-92zM608 1014q-82 0 -165 -95t-131 -239t-48 -289q0 -293 193 -293q92 0 163 45t156 144l47 -39q-169 -268 -439 -268q-150 0 -230 102q-78 102 -78 278t80 348t223 286q143 112 311 112q115 0 175 -48q61 -48 61 -138t-115 -138h-33
q-6 100 -47 166t-123 66z" />
    <glyph glyph-name="Ccircumflex" unicode="&#x108;" horiz-adv-x="1363" 
d="M1167 1884l217 -325h-92l-219 182l-346 -182h-96l385 325h151zM682 -20q-252 0 -406 150t-153 417q0 371 243 641t592 270q270 0 433 -125l-62 -305h-69q-27 330 -314 330q-182 0 -325 -120t-214 -300t-71 -393t99 -338t267 -125t269 86q102 86 207 293h86l-97 -348
q-233 -133 -485 -133z" />
    <glyph glyph-name="ccircumflex" unicode="&#x109;" horiz-adv-x="948" 
d="M842 1559l196 -347h-92l-198 205l-326 -205h-96l364 347h152zM608 1014q-82 0 -165 -95t-131 -239t-48 -289q0 -293 193 -293q92 0 163 45t156 144l47 -39q-169 -268 -439 -268q-150 0 -230 102q-78 102 -78 278t80 348t223 286q143 112 311 112q115 0 175 -48
q61 -48 61 -138t-115 -138h-33q-6 100 -47 166t-123 66z" />
    <glyph glyph-name="Cdotaccent" unicode="&#x10a;" horiz-adv-x="1363" 
d="M1055 1571q-57 0 -94 38t-37 94t42 99t99 43t94 -38t37 -94t-42 -99t-99 -43zM682 -20q-252 0 -406 150t-153 417q0 371 243 641t592 270q270 0 433 -125l-62 -305h-69q-27 330 -314 330q-182 0 -325 -120t-214 -300t-71 -393t99 -338t267 -125t269 86q102 86 207 293h86
l-97 -348q-233 -133 -485 -133z" />
    <glyph glyph-name="cdotaccent" unicode="&#x10b;" horiz-adv-x="948" 
d="M858 1394q0 -56 -42 -100t-99 -43q-57 0 -94 38t-37 94q0 55 42 99t99 44t94 -38t37 -94zM608 1014q-82 0 -165 -95t-131 -239t-48 -289q0 -293 193 -293q92 0 163 45t156 144l47 -39q-169 -268 -439 -268q-150 0 -230 102q-78 102 -78 278t80 348t223 286
q143 112 311 112q115 0 175 -48q61 -48 61 -138t-115 -138h-33q-6 100 -47 166t-123 66z" />
    <glyph glyph-name="Ccaron" unicode="&#x10c;" horiz-adv-x="1363" 
d="M956 1559l-217 325h92l220 -182l346 182h96l-385 -325h-152zM682 -20q-252 0 -406 150t-153 417q0 371 243 641t592 270q270 0 433 -125l-62 -305h-69q-27 330 -314 330q-182 0 -325 -120t-214 -300t-71 -393t99 -338t267 -125t269 86q102 86 207 293h86l-97 -348
q-233 -133 -485 -133z" />
    <glyph glyph-name="ccaron" unicode="&#x10d;" horiz-adv-x="948" 
d="M614 1217l-196 346h92l199 -205l325 205h96l-364 -346h-152zM608 1014q-82 0 -165 -95t-131 -239t-48 -289q0 -293 193 -293q92 0 163 45t156 144l47 -39q-169 -268 -439 -268q-150 0 -230 102q-78 102 -78 278t80 348t223 286q143 112 311 112q115 0 175 -48
q61 -48 61 -138t-115 -138h-33q-6 100 -47 166t-123 66z" />
    <glyph glyph-name="Dcaron" unicode="&#x10e;" horiz-adv-x="1529" 
d="M840 1559l-217 325h92l219 -182l346 182h96l-385 -325h-151zM446 1253q0 59 -39 80q-40 20 -145 25l17 80h563q332 0 488 -162t157 -428q0 -364 -259 -606t-640 -242h-613l19 80q113 4 167 33t72 116l203 949q10 51 10 75zM809 1343h-141l-228 -1071q-10 -46 -10 -92
t35 -66t133 -20h12q279 0 470 203t192 551q0 221 -108 358t-355 137z" />
    <glyph glyph-name="dcaron" unicode="&#x10f;" horiz-adv-x="1236" 
d="M1614 1559l-260 -420h-72l123 420h209zM1149 227q-165 -247 -299 -247q-135 0 -133 129q0 113 74 356h-15q-98 -211 -224 -348t-243 -137t-178 80t-61 227q0 215 96 406t247 302t308 111q115 0 190 -70l72 332l-152 64l11 41l323 86h47l-307 -1321q-16 -78 -16 -91
q0 -31 29 -30q68 0 188 153zM379 113q123 1 277 239t229 582q-49 88 -168 88t-229 -111t-169 -275t-61 -333q0 -86 31 -138t90 -52z" />
    <glyph glyph-name="Dcroat" unicode="&#x110;" horiz-adv-x="1550" 
d="M829 1343h-141l-121 -563h361l-19 -88h-360l-88 -420q-10 -46 -10 -92t34 -66q35 -19 133 -20h13q279 0 470 203t191 551q0 221 -107 358q-108 137 -356 137zM467 1253q0 59 -40 79t-144 26l16 80h563q332 0 489 -162t156 -428q0 -364 -259 -606t-640 -242h-612l18 80
q113 4 167 33t73 116l98 463h-205l19 88h205l86 398q10 51 10 75z" />
    <glyph glyph-name="dcroat" unicode="&#x111;" horiz-adv-x="1253" 
d="M379 113q123 0 273 230t227 572q-49 89 -168 89t-228 -106t-166 -266q-57 -159 -59 -329q0 -86 31 -138t90 -52zM1149 227q-165 -247 -299 -247q-135 0 -133 129q0 113 74 356h-15q-98 -211 -224 -348t-243 -137t-178 80t-61 227q0 325 200 563t445 237q115 0 190 -69
l39 178h-315l20 82h312l30 135h-162l13 60l323 86h47l-65 -281h158l-21 -82h-156l-223 -958q-16 -78 -16 -91q0 -31 29 -30q68 0 188 153z" />
    <glyph glyph-name="Emacron" unicode="&#x112;" horiz-adv-x="1370" 
d="M668 1604l28 127h578l-29 -127h-577zM446 1253q0 59 -39 80q-40 20 -145 25l17 80h1140l-73 -342h-56q-32 150 -70 198t-155 49h-397l-119 -561h328q69 0 111 44t79 141h70l-99 -463h-69q0 98 -24 141t-89 43h-328l-88 -420q-10 -45 -10 -90t41 -64t141 -20h156
q135 0 218 54t220 221h60l-140 -369h-1151l19 80q113 4 167 33t72 116l203 949q10 51 10 75z" />
    <glyph glyph-name="emacron" unicode="&#x113;" horiz-adv-x="966" 
d="M416 1276l26 119h537l-27 -119h-536zM629 1004q-123 0 -229 -142t-134 -350q254 76 370 156t116 196q0 60 -33 100t-90 40zM258 393q0 -135 59 -214t162 -79q164 0 324 191l51 -41q-111 -146 -214 -208t-228 -62q-168 0 -252 118t-84 292q0 173 82 339t224 271
q142 106 282 106t200 -62t60 -174q0 -111 -111 -197t-253 -136q-143 -50 -302 -91v-53z" />
    <glyph glyph-name="Ebreve" unicode="&#x114;" horiz-adv-x="1370" 
d="M963 1552q-131 0 -197 65t-66 183q0 43 13 96h73q-2 -12 -2 -34q0 -86 56 -130t142 -44q87 0 161 52t106 156h80q-33 -162 -135 -253t-231 -91zM446 1253q0 59 -39 80q-40 20 -145 25l17 80h1140l-73 -342h-56q-32 150 -70 198t-155 49h-397l-119 -561h328q69 0 111 44
t79 141h70l-99 -463h-69q0 98 -24 141t-89 43h-328l-88 -420q-10 -45 -10 -90t41 -64t141 -20h156q135 0 218 54t220 221h60l-140 -369h-1151l19 80q113 4 167 33t72 116l203 949q10 51 10 75z" />
    <glyph glyph-name="ebreve" unicode="&#x115;" horiz-adv-x="966" 
d="M676 1214q-231 0 -232 248q0 45 13 97h73q-2 -12 -2 -35q0 -174 178 -174t246 209h80q-33 -165 -126 -255t-230 -90zM629 1004q-123 0 -229 -142t-134 -350q254 76 370 156t116 196q0 60 -33 100t-90 40zM258 393q0 -135 59 -214t162 -79q164 0 324 191l51 -41
q-111 -146 -214 -208t-228 -62q-168 0 -252 118t-84 292q0 173 82 339t224 271q142 106 282 106t200 -62t60 -174q0 -111 -111 -197t-253 -136q-143 -50 -302 -91v-53z" />
    <glyph glyph-name="Edotaccent" unicode="&#x116;" horiz-adv-x="1370" 
d="M977 1571q-57 0 -94 38t-37 94t42 99t99 43t94 -38t37 -94t-42 -99t-99 -43zM446 1253q0 59 -39 80q-40 20 -145 25l17 80h1140l-73 -342h-56q-32 150 -70 198t-155 49h-397l-119 -561h328q69 0 111 44t79 141h70l-99 -463h-69q0 98 -24 141t-89 43h-328l-88 -420
q-10 -45 -10 -90t41 -64t141 -20h156q135 0 218 54t220 221h60l-140 -369h-1151l19 80q113 4 167 33t72 116l203 949q10 51 10 75z" />
    <glyph glyph-name="edotaccent" unicode="&#x117;" horiz-adv-x="966" 
d="M704 1251q-57 0 -94 38t-37 94q0 55 42 99q41 44 99 44t95 -38t37 -94t-42 -100q-43 -43 -100 -43zM629 1004q-123 0 -229 -142t-134 -350q254 76 370 156t116 196q0 60 -33 100t-90 40zM258 393q0 -135 59 -214t162 -79q164 0 324 191l51 -41q-111 -146 -214 -208
t-228 -62q-168 0 -252 118t-84 292q0 173 82 339t224 271q142 106 282 106t200 -62t60 -174q0 -111 -111 -197t-253 -136q-143 -50 -302 -91v-53z" />
    <glyph glyph-name="Eogonek" unicode="&#x118;" horiz-adv-x="1370" 
d="M446 1253q0 59 -39 80q-40 20 -145 25l17 80h1140l-73 -342h-56q-32 150 -70 198t-155 49h-397l-119 -561h328q69 0 111 44t79 141h70l-99 -463h-69q0 98 -24 141t-89 43h-328l-88 -420q-10 -45 -10 -90t41 -64t141 -20h156q135 0 218 54t220 221h60l-140 -369h-178
q-116 -60 -184 -118t-68 -126q0 -74 90 -73q66 0 201 96l27 -39q-156 -170 -295 -170q-72 0 -117 37t-45 115q0 144 264 278h-846l19 80q113 4 167 33t72 116l203 949q10 51 10 75z" />
    <glyph glyph-name="eogonek" unicode="&#x119;" horiz-adv-x="966" 
d="M629 1004q-123 0 -229 -142t-134 -350q254 76 370 156t116 196q0 60 -33 100t-90 40zM258 393q0 -135 59 -214t162 -79q164 0 324 191l51 -41q-139 -184 -270 -238q-88 -46 -133 -74t-93 -79t-49 -103q0 -74 90 -73q66 0 201 96l27 -39q-156 -170 -295 -170
q-72 0 -117 37t-45 102q0 147 225 271q-159 6 -239 124t-80 288q0 171 82 337t224 271q142 106 282 106t200 -62t60 -174q0 -111 -111 -197t-253 -136q-143 -50 -302 -91v-53z" />
    <glyph glyph-name="Ecaron" unicode="&#x11a;" horiz-adv-x="1370" 
d="M879 1559l-217 325h92l219 -182l346 182h96l-385 -325h-151zM446 1253q0 59 -39 80q-40 20 -145 25l17 80h1140l-73 -342h-56q-32 150 -70 198t-155 49h-397l-119 -561h328q69 0 111 44t79 141h70l-99 -463h-69q0 98 -24 141t-89 43h-328l-88 -420q-10 -45 -10 -90
t41 -64t141 -20h156q135 0 218 54t220 221h60l-140 -369h-1151l19 80q113 4 167 33t72 116l203 949q10 51 10 75z" />
    <glyph glyph-name="ecaron" unicode="&#x11b;" horiz-adv-x="966" 
d="M600 1217l-197 346h93l198 -205l326 205h96l-364 -346h-152zM629 1004q-123 0 -229 -142t-134 -350q254 76 370 156t116 196q0 60 -33 100t-90 40zM258 393q0 -135 59 -214t162 -79q164 0 324 191l51 -41q-111 -146 -214 -208t-228 -62q-168 0 -252 118t-84 292
q0 173 82 339t224 271q142 106 282 106t200 -62t60 -174q0 -111 -111 -197t-253 -136q-143 -50 -302 -91v-53z" />
    <glyph glyph-name="Gcircumflex" unicode="&#x11c;" horiz-adv-x="1495" 
d="M1157 1884l217 -325h-92l-219 182l-346 -182h-96l385 325h151zM123 551q0 233 113 442t310 337q198 128 448 128t413 -125l-61 -305h-70q-27 330 -313 330q-185 0 -331 -120t-221 -302t-75 -396t108 -336t275 -122q166 0 297 76l67 272q12 53 13 76q0 60 -41 80t-146 24
l17 80h583l-16 -80q-106 -4 -151 -31q-44 -28 -66 -118l-82 -340q-246 -141 -473 -141q-276 0 -437 146t-161 425z" />
    <glyph glyph-name="gcircumflex" unicode="&#x11d;" horiz-adv-x="1058" 
d="M831 1559l197 -347h-92l-199 205l-325 -205h-97l365 347h151zM479 428q106 0 190 119q83 119 83 278q0 93 -38 151t-116 58q-106 0 -189 -119t-83 -278q0 -93 38 -151t115 -58zM57 -148q-1 -88 97 -146t248 -58t246 53q97 53 97 143q0 53 -39 82q-40 29 -126 56l-316 92
q-109 -39 -158 -87t-49 -135zM625 1106q90 0 155 -35l361 25l-31 -133h-80l-168 45q70 -82 70 -197q0 -205 -137 -330t-342 -125q-47 0 -95 11q-72 -47 -72 -76t19 -41q18 -12 66 -25l295 -84q244 -70 243 -247q0 -126 -134 -224t-413 -98q-207 0 -346 77t-139 187t88 165
q88 56 254 99q-57 39 -57 105q0 100 141 182q-76 37 -117 108t-41 156q-1 205 137 330t343 125z" />
    <glyph glyph-name="Gbreve" unicode="&#x11e;" horiz-adv-x="1495" 
d="M1031 1552q-131 0 -197 65t-66 183q0 43 12 96h74q-2 -12 -2 -34q0 -86 55 -130t143 -44t160 52q74 52 107 156h80q-33 -162 -135 -253t-231 -91zM123 551q0 233 113 442t310 337q198 128 448 128t413 -125l-61 -305h-70q-27 330 -313 330q-185 0 -331 -120t-221 -302
t-75 -396t108 -336t275 -122q166 0 297 76l67 272q12 53 13 76q0 60 -41 80t-146 24l17 80h583l-16 -80q-106 -4 -151 -31q-44 -28 -66 -118l-82 -340q-246 -141 -473 -141q-276 0 -437 146t-161 425z" />
    <glyph glyph-name="gbreve" unicode="&#x11f;" horiz-adv-x="1058" 
d="M700 1214q-231 0 -231 248q0 45 12 97h74q-2 -12 -2 -35q0 -174 178 -174t246 209h80q-33 -165 -127 -255t-230 -90zM479 428q106 0 190 119q83 119 83 278q0 93 -38 151t-116 58q-106 0 -189 -119t-83 -278q0 -93 38 -151t115 -58zM57 -148q-1 -88 97 -146t248 -58
t246 53q97 53 97 143q0 53 -39 82q-40 29 -126 56l-316 92q-109 -39 -158 -87t-49 -135zM625 1106q90 0 155 -35l361 25l-31 -133h-80l-168 45q70 -82 70 -197q0 -205 -137 -330t-342 -125q-47 0 -95 11q-72 -47 -72 -76t19 -41q18 -12 66 -25l295 -84q244 -70 243 -247
q0 -126 -134 -224t-413 -98q-207 0 -346 77t-139 187t88 165q88 56 254 99q-57 39 -57 105q0 100 141 182q-76 37 -117 108t-41 156q-1 205 137 330t343 125z" />
    <glyph glyph-name="Gdotaccent" unicode="&#x120;" horiz-adv-x="1495" 
d="M1186 1713q0 -56 -42 -99t-100 -43q-57 0 -94 38t-37 94t42 99q41 43 99 43t95 -38t37 -94zM123 551q0 233 113 442t310 337q198 128 448 128t413 -125l-61 -305h-70q-27 330 -313 330q-185 0 -331 -120t-221 -302t-75 -396t108 -336t275 -122q166 0 297 76l67 272
q12 53 13 76q0 60 -41 80t-146 24l17 80h583l-16 -80q-106 -4 -151 -31q-44 -28 -66 -118l-82 -340q-246 -141 -473 -141q-276 0 -437 146t-161 425z" />
    <glyph glyph-name="gdotaccent" unicode="&#x121;" horiz-adv-x="1058" 
d="M868 1394q0 -56 -42 -100t-99 -43q-57 0 -94 38t-37 94q0 55 42 99t99 44t94 -38t37 -94zM479 428q106 0 190 119q83 119 83 278q0 93 -38 151t-116 58q-106 0 -189 -119t-83 -278q0 -93 38 -151t115 -58zM57 -148q-1 -88 97 -146t248 -58t246 53q97 53 97 143
q0 53 -39 82q-40 29 -126 56l-316 92q-109 -39 -158 -87t-49 -135zM625 1106q90 0 155 -35l361 25l-31 -133h-80l-168 45q70 -82 70 -197q0 -205 -137 -330t-342 -125q-47 0 -95 11q-72 -47 -72 -76t19 -41q18 -12 66 -25l295 -84q244 -70 243 -247q0 -126 -134 -224
t-413 -98q-207 0 -346 77t-139 187t88 165q88 56 254 99q-57 39 -57 105q0 100 141 182q-76 37 -117 108t-41 156q-1 205 137 330t343 125z" />
    <glyph glyph-name="Gcommaaccent" unicode="&#x122;" horiz-adv-x="1495" 
d="M645 -106q63 0 97 -35t34 -97q0 -100 -80 -166t-223 -67l14 68q154 0 172 90h-94q-67 15 -67 77t42 96t105 34zM123 551q0 233 113 442t310 337q198 128 448 128t413 -125l-61 -305h-70q-27 330 -313 330q-185 0 -331 -120t-221 -302t-75 -396t108 -336t275 -122
q166 0 297 76l67 272q12 53 13 76q0 60 -41 80t-146 24l17 80h583l-16 -80q-106 -4 -151 -31q-44 -28 -66 -118l-82 -340q-246 -141 -473 -141q-276 0 -437 146t-161 425z" />
    <glyph glyph-name="gcommaaccent" unicode="&#x123;" horiz-adv-x="1058" 
d="M719 1243q-63 0 -97 35t-34 96q0 100 80 167t223 67l-14 -68q-154 0 -172 -90h94q67 -14 67 -76t-42 -97q-42 -34 -105 -34zM479 428q106 0 190 119q83 119 83 278q0 93 -38 151t-116 58q-106 0 -189 -119t-83 -278q0 -93 38 -151t115 -58zM57 -148q-1 -88 97 -146
t248 -58t246 53q97 53 97 143q0 53 -39 82q-40 29 -126 56l-316 92q-109 -39 -158 -87t-49 -135zM625 1106q90 0 155 -35l361 25l-31 -133h-80l-168 45q70 -82 70 -197q0 -205 -137 -330t-342 -125q-47 0 -95 11q-72 -47 -72 -76t19 -41q18 -12 66 -25l295 -84
q244 -70 243 -247q0 -126 -134 -224t-413 -98q-207 0 -346 77t-139 187t88 165q88 56 254 99q-57 39 -57 105q0 100 141 182q-76 37 -117 108t-41 156q-1 205 137 330t343 125z" />
    <glyph glyph-name="Hcircumflex" unicode="&#x124;" horiz-adv-x="1730" 
d="M1231 1884l217 -325h-92l-219 182l-346 -182h-97l385 325h152zM1376 184q0 -60 40 -80t145 -24l-17 -80h-620l18 80q113 4 167 33t73 116l98 459h-752l-90 -428q-10 -51 -10 -76q0 -60 40 -80t144 -24l-16 -80h-621l19 80q113 4 167 33t72 116l203 949q10 51 10 75
q0 59 -39 80q-40 20 -145 25l17 80h620l-18 -80q-113 -4 -167 -33t-73 -117l-92 -426h751l84 396q10 51 11 75q0 59 -40 79t-145 26l17 80h620l-18 -80q-113 -4 -167 -33t-73 -117l-203 -948q-10 -51 -10 -76z" />
    <glyph glyph-name="hcircumflex" unicode="&#x125;" horiz-adv-x="1267" 
d="M1004 1946l217 -326h-93l-219 182l-346 -182h-96l385 326h152zM967 1106q137 0 137 -145q0 -37 -12 -91l-168 -632q-18 -70 -18 -96t28 -25q66 0 190 153l41 -43q-92 -137 -165 -192t-141 -55t-103 38t-35 103q0 66 29 174l153 569q10 45 10 68q0 43 -36 43
q-109 0 -291 -212t-250 -478l-72 -285h-186l313 1368l-151 64l10 41l328 86h47l-170 -734l-70 -229h14q107 186 269 348t299 162z" />
    <glyph glyph-name="Hbar" unicode="&#x126;" horiz-adv-x="1771" 
d="M616 999l-51 -237h752l49 237h-750zM467 1253q0 59 -40 79t-144 26l16 80h621l-19 -80q-113 -4 -167 -33t-72 -117l-27 -121h749l21 91q10 51 10 75q0 59 -40 79t-144 26l16 80h621l-19 -80q-113 -4 -167 -33t-72 -117l-27 -121h215l-20 -88h-213l-158 -739
q-10 -51 -10 -76q0 -60 40 -80t144 -24l-16 -80h-621l19 80q113 4 167 33t72 116l94 439h-751l-86 -408q-10 -51 -10 -76q0 -59 39 -80q40 -20 145 -24l-17 -80h-620l18 80q113 4 167 33t73 116l164 770h-211l20 88h209l21 91q10 51 10 75z" />
    <glyph glyph-name="hbar" unicode="&#x127;" horiz-adv-x="1282" 
d="M981 1106q137 0 137 -145q0 -37 -12 -91l-168 -632q-18 -70 -18 -91q0 -31 28 -30q66 0 191 153l41 -43q-92 -137 -165 -192t-141 -55t-104 38q-35 38 -35 103q0 66 29 174l154 569q10 45 10 68q0 43 -37 43q-109 0 -291 -212t-250 -478l-71 -285h-187l273 1196h-160
l20 82h158l31 135h-164l14 60l328 86h47l-66 -281h308l-21 -82h-305l-86 -371l-70 -229h15q106 186 268 348t299 162z" />
    <glyph glyph-name="Itilde" unicode="&#x128;" horiz-adv-x="782" 
d="M487 1704q-41 0 -67 -27t-70 -100l-76 20q76 147 129 197t123 49q70 0 154 -74q84 -73 125 -73t67 26t72 101l74 -21q-76 -147 -129 -196q-53 -50 -123 -50t-154 74t-125 74zM428 184q0 -60 40 -80t144 -24l-16 -80h-621l19 80q113 4 167 33t72 116l203 949q10 51 10 75
q0 59 -39 80q-40 20 -145 25l17 80h620l-18 -80q-113 -4 -167 -33t-73 -117l-203 -948q-10 -51 -10 -76z" />
    <glyph glyph-name="itilde" unicode="&#x129;" horiz-adv-x="684" 
d="M268 -20q-68 0 -104 38q-35 38 -35 96q0 60 29 181l157 635l-155 63l12 43l322 70h51l-213 -868q-18 -70 -18 -96t28 -25q66 0 190 153l41 -43q-93 -137 -165 -192t-140 -55zM602 1251q-58 0 -99 37q-42 37 -76 74q-35 37 -69 37t-61 -27t-70 -100l-75 20q76 146 127 196
t112 50t130 -74t107 -74t64 28q26 26 72 100l74 -21q-76 -147 -127 -197t-109 -49z" />
    <glyph glyph-name="Imacron" unicode="&#x12a;" horiz-adv-x="782" 
d="M334 1604l28 127h578l-29 -127h-577zM428 184q0 -60 40 -80t144 -24l-16 -80h-621l19 80q113 4 167 33t72 116l203 949q10 51 10 75q0 59 -39 80q-40 20 -145 25l17 80h620l-18 -80q-113 -4 -167 -33t-73 -117l-203 -948q-10 -51 -10 -76z" />
    <glyph glyph-name="imacron" unicode="&#x12b;" horiz-adv-x="684" 
d="M268 -20q-68 0 -104 38q-35 38 -35 96q0 60 29 181l157 635l-155 63l12 43l322 70h51l-213 -868q-18 -70 -18 -96t28 -25q66 0 190 153l41 -43q-93 -137 -165 -192t-140 -55zM240 1276l26 119h455l-27 -119h-454z" />
    <glyph glyph-name="Ibreve" unicode="&#x12c;" horiz-adv-x="782" 
d="M629 1552q-131 0 -197 65t-65 183q0 43 12 96h74q-2 -12 -2 -34q0 -86 55 -130t142 -44t161 52t106 156h80q-33 -162 -135 -253t-231 -91zM428 184q0 -60 40 -80t144 -24l-16 -80h-621l19 80q113 4 167 33t72 116l203 949q10 51 10 75q0 59 -39 80q-40 20 -145 25l17 80
h620l-18 -80q-113 -4 -167 -33t-73 -117l-203 -948q-10 -51 -10 -76z" />
    <glyph glyph-name="ibreve" unicode="&#x12d;" horiz-adv-x="684" 
d="M475 1214q-231 0 -231 248q0 45 12 97h74q-2 -12 -2 -35q0 -174 178 -174t246 209h79q-33 -165 -126 -255t-230 -90zM268 -20q-68 0 -104 38q-35 38 -35 96q0 60 29 181l157 635l-155 63l12 43l322 70h51l-213 -868q-18 -70 -18 -96t28 -25q66 0 190 153l41 -43
q-93 -137 -165 -192t-140 -55z" />
    <glyph glyph-name="Iogonek" unicode="&#x12e;" horiz-adv-x="782" 
d="M428 184q0 -60 40 -80t144 -24l-16 -80h-186q-117 -60 -185 -118t-67 -126q0 -74 90 -73q66 0 201 96l26 -39q-156 -170 -295 -170q-72 0 -117 37t-45 115q0 145 265 278h-308l19 80q113 4 167 33t72 116l203 949q10 51 10 75q0 59 -39 80q-40 20 -145 25l17 80h620
l-18 -80q-113 -4 -167 -33t-73 -117l-203 -948q-10 -51 -10 -76z" />
    <glyph glyph-name="iogonek" unicode="&#x12f;" horiz-adv-x="684" 
d="M129 124q0 50 29 171l157 635l-155 63l12 43l322 70h51l-213 -868q-18 -70 -18 -96t28 -25q68 0 188 153l43 -43q-59 -88 -153 -165q-94 -78 -169 -118t-131 -90t-57 -98q0 -74 91 -73q66 0 200 96l27 -39q-156 -170 -295 -170q-72 0 -117 37t-45 113q0 142 291 276
q-37 10 -61 44t-25 84zM489 1251q-57 0 -94 38t-37 94q0 55 42 99t100 44t94 -38q37 -38 37 -94t-42 -100q-43 -43 -100 -43z" />
    <glyph glyph-name="Idotaccent" unicode="&#x130;" horiz-adv-x="782" 
d="M643 1571q-57 0 -94 38t-37 94t42 99t99 43t95 -38t36 -94q0 -56 -42 -99t-99 -43zM428 184q0 -60 40 -80t144 -24l-16 -80h-621l19 80q113 4 167 33t72 116l203 949q10 51 10 75q0 59 -39 80q-40 20 -145 25l17 80h620l-18 -80q-113 -4 -167 -33t-73 -117l-203 -948
q-10 -51 -10 -76z" />
    <glyph glyph-name="dotlessi" unicode="&#x131;" horiz-adv-x="684" 
d="M268 -20q-68 0 -104 38q-35 38 -35 96q0 60 29 181l157 635l-155 63l12 43l322 70h51l-213 -868q-18 -70 -18 -96t28 -25q66 0 190 153l41 -43q-93 -137 -165 -192t-140 -55z" />
    <glyph glyph-name="IJ" unicode="&#x132;" horiz-adv-x="1808" 
d="M1530 1253q0 59 -40 79t-144 26l16 80h620l-18 -80q-113 -4 -167 -33t-73 -117l-174 -821q-86 -408 -485 -407q-170 0 -250 66t-80 168q0 103 82 153h150q-29 -63 -29 -134q0 -166 145 -165q102 0 167 62t98 224l172 824q10 51 10 75zM428 184q0 -60 40 -80t144 -24
l-16 -80h-621l19 80q113 4 167 33t72 116l203 949q10 51 10 75q0 59 -39 80q-40 20 -145 25l17 80h620l-18 -80q-113 -4 -167 -33t-73 -117l-203 -948q-10 -51 -10 -76z" />
    <glyph glyph-name="ij" unicode="&#x133;" horiz-adv-x="1296" 
d="M575 -424q-82 0 -133 34t-51 91q0 96 109 123h28q34 -160 120 -160t147 291l206 975l-153 63l12 43l322 70h51l-205 -909q-68 -299 -176 -460t-277 -161zM1319 1394q0 -56 -42 -100t-99 -43q-57 0 -95 38q-37 38 -37 94q0 55 43 99q42 44 99 44t94 -38t37 -94zM489 1251
q-57 0 -94 38t-37 94q0 55 42 99t100 44t94 -38q37 -38 37 -94t-42 -100q-43 -43 -100 -43zM268 -20q-68 0 -104 38q-35 38 -35 96q0 60 29 181l157 635l-155 63l12 43l322 70h51l-213 -868q-18 -70 -18 -96t28 -25q66 0 190 153l41 -43q-93 -137 -165 -192t-140 -55z" />
    <glyph glyph-name="Jcircumflex" unicode="&#x134;" horiz-adv-x="1026" 
d="M1051 1884l217 -325h-92l-220 182l-346 -182h-96l385 325h152zM-47 214q0 103 82 153h149q-29 -63 -28 -134q0 -166 145 -165q102 0 167 62q64 62 97 224l172 824q10 51 11 75q0 59 -40 79t-145 26l17 80h620l-18 -80q-113 -4 -167 -33t-73 -117l-174 -821
q-86 -408 -485 -407q-170 0 -250 66t-80 168z" />
    <glyph glyph-name="jcircumflex" unicode="&#x135;" horiz-adv-x="612" 
d="M602 1559l197 -347h-92l-199 205l-326 -205h-96l365 347h151zM-109 -424q-82 0 -133 34t-51 91q0 96 109 123h28q34 -160 120 -160t147 291l206 975l-153 63l12 43l322 70h51l-205 -909q-68 -299 -176 -460t-277 -161z" />
    <glyph glyph-name="Kcommaaccent" unicode="&#x136;" horiz-adv-x="1464" 
d="M684 -106q63 0 97 -35t34 -97q0 -100 -80 -166t-223 -67l14 68q154 0 172 90h-94q-68 15 -68 77t43 96q42 34 105 34zM428 184q0 -60 40 -80t144 -24l-16 -80h-621l19 80q113 4 167 33t72 116l203 949q10 51 10 75q0 59 -39 80q-40 20 -145 25l17 80h620l-18 -80
q-113 -4 -167 -33t-73 -117l-203 -948q-10 -51 -10 -76zM762 782l354 -540q60 -94 114 -128t146 -34l-14 -80h-299q-72 66 -189 244l-313 487l598 494q59 51 64 80q0 41 -158 53l18 80h523l-19 -80q-129 -6 -248 -105z" />
    <glyph glyph-name="kcommaaccent" unicode="&#x137;" horiz-adv-x="1175" 
d="M258 -236q0 62 42 96t106 34t97 -35q34 -35 34 -97q0 -100 -80 -166t-224 -67l15 68q154 0 172 90h-94q-68 15 -68 77zM625 1559l-361 -1559h-186l313 1368l-151 64l10 41l328 86h47zM887 106q61 0 186 158l37 -45q-147 -240 -293 -239q-76 0 -123 55t-92 162l-162 391
l387 418q90 100 187 100q63 0 96 -35t33 -84q0 -92 -115 -139h-29q-1 86 -71 86t-152 -92l-176 -197l178 -403q31 -68 56 -102t53 -34z" />
    <glyph glyph-name="kgreenlandic" unicode="&#x138;" horiz-adv-x="1189" 
d="M541 1106l-262 -1106h-187l232 930l-156 63l12 43l314 70h47zM901 106q61 0 186 158l37 -45q-147 -240 -293 -239q-77 0 -123 55t-92 162l-161 391l387 418q90 100 186 100q63 0 96 -35t33 -84q0 -92 -115 -139h-28q0 86 -74 86q-68 0 -149 -92l-177 -197l179 -403
q31 -68 55 -102t53 -34z" />
    <glyph glyph-name="Lacute" unicode="&#x139;" horiz-adv-x="1263" 
d="M776 1864h271l-373 -305h-84zM428 190q0 -55 42 -75t142 -21h101q131 0 215 65t217 240h67l-149 -399h-1088l19 80q113 4 167 33t72 116l203 949q10 51 10 75q0 59 -39 80q-40 20 -145 25l17 80h620l-18 -80q-113 -4 -167 -33t-73 -117l-203 -948q-10 -51 -10 -70z" />
    <glyph glyph-name="lacute" unicode="&#x13a;" horiz-adv-x="638" 
d="M690 1929h271l-373 -305h-84zM297 148q0 -32 29 -31q66 0 190 153l41 -43q-92 -137 -165 -192t-141 -55t-104 37q-35 37 -35 101t27 177l242 1073l-152 64l11 41l327 86h47l-303 -1321q-14 -58 -14 -90z" />
    <glyph glyph-name="Lcommaaccent" unicode="&#x13b;" horiz-adv-x="1263" 
d="M383 -236q0 62 42 96t105 34q64 0 98 -35t34 -97q0 -100 -80 -166t-224 -67l15 68q154 0 172 90h-94q-68 15 -68 77zM428 190q0 -55 42 -75t142 -21h101q131 0 215 65t217 240h67l-149 -399h-1088l19 80q113 4 167 33t72 116l203 949q10 51 10 75q0 59 -39 80
q-40 20 -145 25l17 80h620l-18 -80q-113 -4 -167 -33t-73 -117l-203 -948q-10 -51 -10 -70z" />
    <glyph glyph-name="lcommaaccent" unicode="&#x13c;" horiz-adv-x="638" 
d="M174 -106q63 0 97 -35t34 -97q0 -100 -80 -166t-223 -67l14 68q154 0 172 90h-94q-68 15 -68 77t43 96q42 34 105 34zM297 148q0 -32 29 -31q66 0 190 153l41 -43q-92 -137 -165 -192t-141 -55t-104 37q-35 37 -35 101t27 177l242 1073l-152 64l11 41l327 86h47
l-303 -1321q-14 -58 -14 -90z" />
    <glyph glyph-name="Lcaron" unicode="&#x13d;" horiz-adv-x="1263" 
d="M1319 1438l-260 -420h-72l123 420h209zM428 190q0 -55 42 -75t142 -21h101q131 0 215 65t217 240h67l-149 -399h-1088l19 80q113 4 167 33t72 116l203 949q10 51 10 75q0 59 -39 80q-40 20 -145 25l17 80h620l-18 -80q-113 -4 -167 -33t-73 -117l-203 -948
q-10 -51 -10 -70z" />
    <glyph glyph-name="lcaron" unicode="&#x13e;" horiz-adv-x="638" 
d="M1016 1559l-260 -420h-72l123 420h209zM297 148q0 -32 29 -31q66 0 190 153l41 -43q-92 -137 -165 -192t-141 -55t-104 37q-35 37 -35 101t27 177l242 1073l-152 64l11 41l327 86h47l-303 -1321q-14 -58 -14 -90z" />
    <glyph glyph-name="Ldot" unicode="&#x13f;" horiz-adv-x="1263" 
d="M1102 641q-57 0 -94 38t-37 94t42 99t99 43q57 1 94 -37t37 -94t-42 -100q-42 -43 -99 -43zM428 190q0 -55 42 -75t142 -21h101q131 0 215 65t217 240h67l-149 -399h-1088l19 80q113 4 167 33t72 116l203 949q10 51 10 75q0 59 -39 80q-40 20 -145 25l17 80h620l-18 -80
q-113 -4 -167 -33t-73 -117l-203 -948q-10 -51 -10 -70z" />
    <glyph glyph-name="ldot" unicode="&#x140;" horiz-adv-x="782" 
d="M725 631q-57 0 -94 38t-37 94t42 99t99 43t94 -38t37 -94t-42 -99t-99 -43zM297 148q0 -32 29 -31q66 0 190 153l41 -43q-92 -137 -165 -192t-141 -55t-104 37q-35 37 -35 101t27 177l242 1073l-152 64l11 41l327 86h47l-303 -1321q-14 -58 -14 -90z" />
    <glyph glyph-name="Lslash" unicode="&#x141;" horiz-adv-x="1288" 
d="M453 190q0 -55 42 -75t142 -21h100q131 0 215 65t217 240h68l-150 -399h-1087l18 80q113 4 167 33t73 116l88 410l-227 -102l24 100l224 100l94 441q10 51 10 75q0 59 -40 79t-144 26l16 80h621l-19 -80q-113 -4 -167 -33t-72 -117l-82 -379l307 140l-25 -101l-303 -137
l-100 -471q-10 -51 -10 -70z" />
    <glyph glyph-name="lslash" unicode="&#x142;" horiz-adv-x="692" 
d="M266 -20q-68 0 -104 38q-35 38 -35 100q0 64 27 177l108 481l-180 -104l24 108l181 105l108 483l-151 64l10 41l328 86h47l-131 -572l235 137l-24 -108l-236 -137l-147 -641q-14 -58 -14 -90t28 -31q66 0 190 153l41 -43q-93 -137 -165 -192t-140 -55z" />
    <glyph glyph-name="Nacute" unicode="&#x143;" horiz-adv-x="1624" 
d="M1184 1864h270l-373 -305h-84zM1399 1253q0 59 -40 79t-145 26l17 80h543l-19 -80q-113 -4 -167 -33t-72 -117l-254 -1208h-86l-629 1137l-185 -877q-10 -51 -10 -76q0 -60 40 -80t145 -24l-17 -80h-545l19 80q113 4 167 33t72 116l218 1012q-49 74 -82 94t-109 23l19 80
h325l602 -1116l183 856q10 51 10 75z" />
    <glyph glyph-name="nacute" unicode="&#x144;" horiz-adv-x="1282" 
d="M934 1559h278l-395 -347h-92zM981 1106q137 0 137 -145q0 -37 -12 -91l-168 -632q-18 -70 -18 -91q0 -31 28 -30q66 0 191 153l41 -43q-92 -137 -165 -192t-141 -55t-104 38q-35 38 -35 103q0 66 29 174l154 569q10 45 10 68q0 43 -37 43q-109 0 -291 -212t-250 -478
l-71 -285h-187l232 930l-156 63l12 43l309 70h52l-70 -283l-72 -227h15q106 186 268 348t299 162z" />
    <glyph glyph-name="Ncommaaccent" unicode="&#x145;" horiz-adv-x="1624" 
d="M569 -236q0 62 42 96q41 34 105 34t98 -35t34 -97q0 -100 -80 -166t-223 -67l14 68q154 0 172 90h-94q-68 15 -68 77zM1399 1253q0 59 -40 79t-145 26l17 80h543l-19 -80q-113 -4 -167 -33t-72 -117l-254 -1208h-86l-629 1137l-185 -877q-10 -51 -10 -76q0 -60 40 -80
t145 -24l-17 -80h-545l19 80q113 4 167 33t72 116l218 1012q-49 74 -82 94t-109 23l19 80h325l602 -1116l183 856q10 51 10 75z" />
    <glyph glyph-name="ncommaaccent" unicode="&#x146;" horiz-adv-x="1282" 
d="M479 -106q63 0 97 -35t34 -97q0 -100 -80 -166t-223 -67l15 68q154 0 172 90h-95q-67 15 -67 77t42 96t105 34zM981 1106q137 0 137 -145q0 -37 -12 -91l-168 -632q-18 -70 -18 -91q0 -31 28 -30q66 0 191 153l41 -43q-92 -137 -165 -192t-141 -55t-104 38
q-35 38 -35 103q0 66 29 174l154 569q10 45 10 68q0 43 -37 43q-109 0 -291 -212t-250 -478l-71 -285h-187l232 930l-156 63l12 43l309 70h52l-70 -283l-72 -227h15q106 186 268 348t299 162z" />
    <glyph glyph-name="Ncaron" unicode="&#x147;" horiz-adv-x="1624" 
d="M979 1559l-217 325h92l219 -182l346 182h97l-386 -325h-151zM1399 1253q0 59 -40 79t-145 26l17 80h543l-19 -80q-113 -4 -167 -33t-72 -117l-254 -1208h-86l-629 1137l-185 -877q-10 -51 -10 -76q0 -60 40 -80t145 -24l-17 -80h-545l19 80q113 4 167 33t72 116l218 1012
q-49 74 -82 94t-109 23l19 80h325l602 -1116l183 856q10 51 10 75z" />
    <glyph glyph-name="ncaron" unicode="&#x148;" horiz-adv-x="1282" 
d="M707 1217l-197 346h92l199 -205l325 205h97l-365 -346h-151zM981 1106q137 0 137 -145q0 -37 -12 -91l-168 -632q-18 -70 -18 -91q0 -31 28 -30q66 0 191 153l41 -43q-92 -137 -165 -192t-141 -55t-104 38q-35 38 -35 103q0 66 29 174l154 569q10 45 10 68q0 43 -37 43
q-109 0 -291 -212t-250 -478l-71 -285h-187l232 930l-156 63l12 43l309 70h52l-70 -283l-72 -227h15q106 186 268 348t299 162z" />
    <glyph glyph-name="Eng" unicode="&#x14a;" horiz-adv-x="1624" 
d="M850 -424q-82 0 -133 34t-51 91q0 96 108 123h29q33 -160 122 -160t152 277l39 168l-569 1028l-185 -877q-10 -51 -10 -76q0 -60 40 -80t145 -24l-17 -80h-545l19 80q113 4 167 33t72 116l218 1012q-49 74 -82 94t-109 23l19 80h325l602 -1116l183 856q10 51 10 75
q0 59 -40 79t-145 26l17 80h543l-19 -80q-113 -4 -167 -33t-72 -117l-213 -1011q-131 -621 -453 -621z" />
    <glyph glyph-name="eng" unicode="&#x14b;" horiz-adv-x="1212" 
d="M928 932q0 43 -37 43q-109 0 -291 -212t-250 -478l-71 -285h-187l232 930l-156 63l12 43l309 70h52l-70 -283l-72 -227h15q106 186 268 348t299 162t137 -145q0 -37 -12 -91l-178 -673q-76 -287 -177 -454t-276 -167q-84 0 -139 34t-55 91q0 96 108 123h29
q33 -160 121 -160q47 0 75 68t70 223l234 909q10 45 10 68z" />
    <glyph glyph-name="Omacron" unicode="&#x14c;" horiz-adv-x="1474" 
d="M674 1604l28 127h578l-29 -127h-577zM659 -20q-256 0 -396 162t-140 421q0 369 225 632t547 263q256 0 396 -162t141 -419q0 -369 -226 -633t-547 -264zM662 86q162 0 292 114t197 290q68 176 68 386q0 208 -82 342t-245 134t-292 -114t-197 -290q-67 -176 -67 -385
t82 -343t244 -134z" />
    <glyph glyph-name="omacron" unicode="&#x14d;" horiz-adv-x="1069" 
d="M424 1276l27 119h536l-26 -119h-537zM427 -20q-161 0 -256 108t-95 292q0 183 69 346q70 164 203 272t294 108t256 -109t95 -292q1 -183 -69 -346t-203 -271t-294 -108zM434 61q106 0 193 112q86 113 130 267t44 295t-44 215t-122 74q-107 0 -193 -112t-130 -266
t-44 -296q0 -141 44 -215t122 -74z" />
    <glyph glyph-name="Obreve" unicode="&#x14e;" horiz-adv-x="1474" 
d="M969 1552q-131 0 -197 65t-65 183q0 43 12 96h74q-2 -12 -2 -34q0 -86 55 -130t142 -44t161 52t106 156h80q-33 -162 -135 -253t-231 -91zM659 -20q-256 0 -396 162t-140 421q0 369 225 632t547 263q256 0 396 -162t141 -419q0 -369 -226 -633t-547 -264zM662 86
q162 0 292 114t197 290q68 176 68 386q0 208 -82 342t-245 134t-292 -114t-197 -290q-67 -176 -67 -385t82 -343t244 -134z" />
    <glyph glyph-name="obreve" unicode="&#x14f;" horiz-adv-x="1069" 
d="M682 1214q-231 0 -231 248q0 45 12 97h74q-2 -12 -2 -35q0 -174 178 -174t245 209h80q-33 -165 -126 -255t-230 -90zM427 -20q-161 0 -256 108t-95 292q0 183 69 346q70 164 203 272t294 108t256 -109t95 -292q1 -183 -69 -346t-203 -271t-294 -108zM434 61
q106 0 193 112q86 113 130 267t44 295t-44 215t-122 74q-107 0 -193 -112t-130 -266t-44 -296q0 -141 44 -215t122 -74z" />
    <glyph glyph-name="Ohungarumlaut" unicode="&#x150;" horiz-adv-x="1474" 
d="M1249 1864h215l-325 -305h-109zM934 1864h215l-326 -305h-108zM659 -20q-256 0 -396 162t-140 421q0 369 225 632t547 263q256 0 396 -162t141 -419q0 -369 -226 -633t-547 -264zM662 86q162 0 292 114t197 290q68 176 68 386q0 208 -82 342t-245 134t-292 -114
t-197 -290q-67 -176 -67 -385t82 -343t244 -134z" />
    <glyph glyph-name="ohungarumlaut" unicode="&#x151;" horiz-adv-x="1069" 
d="M993 1559h215l-340 -347h-108zM678 1559h215l-340 -347h-109zM427 -20q-161 0 -256 108t-95 292q0 183 69 346q70 164 203 272t294 108t256 -109t95 -292q1 -183 -69 -346t-203 -271t-294 -108zM434 61q106 0 193 112q86 113 130 267t44 295t-44 215t-122 74
q-107 0 -193 -112t-130 -266t-44 -296q0 -141 44 -215t122 -74z" />
    <glyph glyph-name="OE" unicode="&#x152;" horiz-adv-x="2035" 
d="M999 1343q-279 -1 -470 -203t-191 -550q0 -221 107 -359q108 -137 356 -137h69l267 1249h-138zM1022 1438h1063l-74 -342h-55q-33 150 -71 198t-154 49h-398l-119 -561h328q68 0 111 44t80 141h69l-98 -463h-70q0 98 -23 141q-24 43 -89 43h-328l-88 -420
q-10 -47 -10 -91t41 -63t141 -20h156q135 0 218 54t220 221h59l-139 -369h-1024q-332 0 -488 162t-157 428q0 364 259 606t640 242z" />
    <glyph glyph-name="oe" unicode="&#x153;" horiz-adv-x="1644" 
d="M1307 1004q-123 0 -229 -142t-134 -350q254 76 370 156t116 196q0 60 -33 100t-90 40zM434 61q106 0 193 112q86 113 130 267t44 295t-44 215t-122 74q-107 0 -193 -112t-130 -266t-44 -296q0 -141 44 -215t122 -74zM641 1106q225 0 307 -223q178 223 414 223
q119 0 179 -62q61 -62 61 -174q0 -111 -110 -196t-253 -136q-143 -50 -303 -92v-53q0 -135 59 -214t162 -79q164 0 324 191l51 -41q-111 -146 -214 -208t-228 -62q-207 0 -289 200q-156 -201 -373 -200q-162 0 -257 108t-95 292q0 183 69 346q70 164 203 272t293 108z" />
    <glyph glyph-name="Racute" unicode="&#x154;" horiz-adv-x="1396" 
d="M995 1864h271l-373 -305h-84zM428 184q0 -60 40 -80t144 -24l-16 -80h-621l19 80q113 4 167 33t72 116l203 949q10 51 10 75q0 59 -39 80q-40 20 -145 25l17 80h577q221 0 334 -92t113 -268q-1 -176 -137 -286t-353 -133l236 -389q69 -112 115 -150t145 -40l-17 -80h-276
q-70 63 -172 242l-228 399h-98l-80 -381q-10 -51 -10 -76zM772 1343h-104l-129 -612h96q209 0 333 86t124 266q-1 260 -320 260z" />
    <glyph glyph-name="racute" unicode="&#x155;" horiz-adv-x="944" 
d="M846 1559h278l-395 -347h-92zM885 1106q59 0 87 -37t27 -88q0 -109 -125 -168h-30q0 76 -56 76t-147 -113q-92 -114 -192 -326t-160 -450h-187l232 930l-156 63l12 43l310 70h51l-86 -340l-109 -354h15q170 348 292 521t222 173z" />
    <glyph glyph-name="Rcommaaccent" unicode="&#x156;" horiz-adv-x="1396" 
d="M426 -236q0 62 42 96t105 34t97 -35t35 -97q0 -100 -80 -166t-224 -67l15 68q154 0 172 90h-94q-68 15 -68 77zM428 184q0 -60 40 -80t144 -24l-16 -80h-621l19 80q113 4 167 33t72 116l203 949q10 51 10 75q0 59 -39 80q-40 20 -145 25l17 80h577q221 0 334 -92
t113 -268q-1 -176 -137 -286t-353 -133l236 -389q69 -112 115 -150t145 -40l-17 -80h-276q-70 63 -172 242l-228 399h-98l-80 -381q-10 -51 -10 -76zM772 1343h-104l-129 -612h96q209 0 333 86t124 266q-1 260 -320 260z" />
    <glyph glyph-name="rcommaaccent" unicode="&#x157;" horiz-adv-x="944" 
d="M20 -236q0 62 42 96t106 34t97 -35q34 -35 34 -97q0 -100 -80 -166t-223 -67l14 68q154 0 172 90h-94q-68 15 -68 77zM885 1106q59 0 87 -37t27 -88q0 -109 -125 -168h-30q0 76 -56 76t-147 -113q-92 -114 -192 -326t-160 -450h-187l232 930l-156 63l12 43l310 70h51
l-86 -340l-109 -354h15q170 348 292 521t222 173z" />
    <glyph glyph-name="Rcaron" unicode="&#x158;" horiz-adv-x="1396" 
d="M791 1559l-218 325h93l219 -182l346 182h96l-385 -325h-151zM428 184q0 -60 40 -80t144 -24l-16 -80h-621l19 80q113 4 167 33t72 116l203 949q10 51 10 75q0 59 -39 80q-40 20 -145 25l17 80h577q221 0 334 -92t113 -268q-1 -176 -137 -286t-353 -133l236 -389
q69 -112 115 -150t145 -40l-17 -80h-276q-70 63 -172 242l-228 399h-98l-80 -381q-10 -51 -10 -76zM772 1343h-104l-129 -612h96q209 0 333 86t124 266q-1 260 -320 260z" />
    <glyph glyph-name="rcaron" unicode="&#x159;" horiz-adv-x="944" 
d="M621 1217l-197 346h92l199 -205l325 205h97l-365 -346h-151zM885 1106q59 0 87 -37t27 -88q0 -109 -125 -168h-30q0 76 -56 76t-147 -113q-92 -114 -192 -326t-160 -450h-187l232 930l-156 63l12 43l310 70h51l-86 -340l-109 -354h15q170 348 292 521t222 173z" />
    <glyph glyph-name="Sacute" unicode="&#x15a;" horiz-adv-x="1144" 
d="M905 1864h271l-373 -305h-84zM1008 403q0 -199 -146 -311t-322 -112t-298 54t-193 124l53 340h70q16 -201 106 -311q90 -109 234 -109q143 0 227 68t84 184t-62 185q-63 69 -215 153t-221 176t-69 219q0 180 123 288t313 107q252 0 428 -147l-57 -299h-68
q-39 348 -305 348q-130 0 -196 -67t-66 -171t52 -166t202 -142q150 -79 238 -176t88 -235z" />
    <glyph glyph-name="sacute" unicode="&#x15b;" horiz-adv-x="849" 
d="M752 1559h278l-395 -347h-92zM391 74q166 0 166 151q0 53 -58 125t-127 133t-127 149t-59 165q0 129 102 219t234 90q134 0 204 -50t69 -132q0 -63 -88 -107h-21q-92 187 -230 187t-139 -134q0 -70 135 -196q56 -54 112 -112q134 -140 134 -253q0 -147 -108 -238
t-252 -91q-143 0 -229 62t-86 154t90 134h16q96 -256 262 -256z" />
    <glyph glyph-name="Scircumflex" unicode="&#x15c;" horiz-adv-x="1144" 
d="M911 1884l217 -325h-92l-219 182l-346 -182h-96l385 325h151zM1008 403q0 -199 -146 -311t-322 -112t-298 54t-193 124l53 340h70q16 -201 106 -311q90 -109 234 -109q143 0 227 68t84 184t-62 185q-63 69 -215 153t-221 176t-69 219q0 180 123 288t313 107
q252 0 428 -147l-57 -299h-68q-39 348 -305 348q-130 0 -196 -67t-66 -171t52 -166t202 -142q150 -79 238 -176t88 -235z" />
    <glyph glyph-name="scircumflex" unicode="&#x15d;" horiz-adv-x="849" 
d="M733 1559l197 -347h-92l-199 205l-326 -205h-96l365 347h151zM391 74q166 0 166 151q0 53 -58 125t-127 133t-127 149t-59 165q0 129 102 219t234 90q134 0 204 -50t69 -132q0 -63 -88 -107h-21q-92 187 -230 187t-139 -134q0 -70 135 -196q56 -54 112 -112
q134 -140 134 -253q0 -147 -108 -238t-252 -91q-143 0 -229 62t-86 154t90 134h16q96 -256 262 -256z" />
    <glyph glyph-name="Scedilla" unicode="&#x15e;" horiz-adv-x="1144" 
d="M823 330q0 116 -62 185q-63 69 -215 153t-221 176t-69 219q0 180 123 288t313 107q252 0 428 -147l-57 -299h-68q-39 348 -305 348q-130 0 -196 -67t-66 -171t52 -166t202 -142q150 -79 238 -176t88 -235q0 -199 -146 -311t-340 -112q-49 0 -92 6l-43 -84
q207 -4 207 -131q0 -111 -112 -167t-283 -57l-6 68q254 0 253 100q0 80 -182 86l107 195q-201 41 -322 162l53 340h70q16 -201 106 -311q90 -109 234 -109q143 0 227 68t84 184z" />
    <glyph glyph-name="scedilla" unicode="&#x15f;" horiz-adv-x="849" 
d="M451 -229q0 -111 -112 -167t-284 -57l-6 68q254 0 254 100q0 80 -182 86l104 191q-94 20 -148 76t-54 138q0 83 90 124h16q96 -256 262 -256t166 151q0 53 -58 125t-127 133t-127 149t-59 165q0 129 102 219t234 90q134 0 204 -50t69 -132q0 -63 -88 -107h-21
q-92 187 -230 187t-139 -134q0 -70 135 -196q56 -54 112 -112q134 -140 134 -253q0 -147 -108 -238t-256 -91l-47 2l-43 -80q207 -4 207 -131z" />
    <glyph glyph-name="Scaron" unicode="&#x160;" horiz-adv-x="1144" 
d="M700 1559l-217 325h92l220 -182l346 182h96l-385 -325h-152zM1008 403q0 -199 -146 -311t-322 -112t-298 54t-193 124l53 340h70q16 -201 106 -311q90 -109 234 -109q143 0 227 68t84 184t-62 185q-63 69 -215 153t-221 176t-69 219q0 180 123 288t313 107
q252 0 428 -147l-57 -299h-68q-39 348 -305 348q-130 0 -196 -67t-66 -171t52 -166t202 -142q150 -79 238 -176t88 -235z" />
    <glyph glyph-name="scaron" unicode="&#x161;" horiz-adv-x="849" 
d="M524 1217l-196 346h92l198 -205l326 205h96l-364 -346h-152zM391 74q166 0 166 151q0 53 -58 125t-127 133t-127 149t-59 165q0 129 102 219t234 90q134 0 204 -50t69 -132q0 -63 -88 -107h-21q-92 187 -230 187t-139 -134q0 -70 135 -196q56 -54 112 -112
q134 -140 134 -253q0 -147 -108 -238t-252 -91q-143 0 -229 62t-86 154t90 134h16q96 -256 262 -256z" />
    <glyph glyph-name="Tcedilla" unicode="&#x162;" horiz-adv-x="1378" 
d="M397 -236q0 62 42 96q41 34 105 34t98 -35t34 -97q0 -100 -80 -166t-223 -67l14 68q154 0 172 90h-94q-68 15 -68 77zM725 184q0 -60 48 -80t157 -24l-17 -80h-661l16 80q117 4 181 34q63 30 81 115l238 1117h-141q-135 0 -199 -56t-211 -280h-65l124 428h1223l-59 -428
h-66q-16 70 -31 134t-41 114q-27 49 -42 56t-42 18t-110 14h-143l-230 -1086q-10 -41 -10 -76z" />
    <glyph glyph-name="tcedilla" unicode="&#x163;" horiz-adv-x="784" 
d="M227 -106q63 0 97 -35t34 -97q0 -100 -80 -166t-223 -67l15 68q154 0 172 90h-95q-67 15 -67 77t42 96t105 34zM354 111q98 0 283 196l47 -49q-102 -131 -215 -205t-201 -73q-143 0 -143 157q0 59 22 156l158 694h-149l16 60q104 35 177 96t155 176h63l-55 -234h256
l-25 -98h-256l-159 -708q-18 -86 -19 -121q0 -47 45 -47z" />
    <glyph glyph-name="Tcaron" unicode="&#x164;" horiz-adv-x="1378" 
d="M846 1559l-217 325h92l219 -182l346 182h96l-385 -325h-151zM725 184q0 -60 48 -80t157 -24l-17 -80h-661l16 80q117 4 181 34q63 30 81 115l238 1117h-141q-135 0 -199 -56t-211 -280h-65l124 428h1223l-59 -428h-66q-16 70 -31 134t-41 114q-27 49 -42 56t-42 18
t-110 14h-143l-230 -1086q-10 -41 -10 -76z" />
    <glyph glyph-name="tcaron" unicode="&#x165;" horiz-adv-x="784" 
d="M981 1645l-260 -420h-72l123 420h209zM354 111q98 0 283 196l47 -49q-102 -131 -215 -205t-201 -73q-143 0 -143 157q0 59 22 156l158 694h-149l16 60q104 35 177 96t155 176h63l-55 -234h256l-25 -98h-256l-159 -708q-18 -86 -19 -121q0 -47 45 -47z" />
    <glyph glyph-name="Tbar" unicode="&#x166;" horiz-adv-x="1378" 
d="M725 184q0 -60 48 -80t157 -24l-17 -80h-661l16 80q117 4 181 34q63 30 81 115l103 484h-264l18 88h264l117 545h-141q-135 0 -199 -56t-211 -280h-65l124 428h1223l-59 -428h-66q-16 70 -31 134t-41 114q-27 49 -42 56t-42 18t-110 14h-143l-117 -545h274l-18 -88h-275
l-94 -453q-10 -41 -10 -76z" />
    <glyph glyph-name="tbar" unicode="&#x167;" horiz-adv-x="829" 
d="M330 158q0 -47 45 -47q98 0 282 196l48 -49q-101 -131 -215 -205t-201 -73q-143 0 -144 157q0 59 23 156l76 332h-142l23 92h139l62 270h-150l17 60q104 35 177 96t154 176h64l-56 -234h256l-24 -98h-256l-62 -270h267l-23 -92h-264l-78 -346q-18 -86 -18 -121z" />
    <glyph glyph-name="Utilde" unicode="&#x168;" horiz-adv-x="1560" 
d="M916 1704q-40 0 -68 -27q-27 -27 -70 -100l-76 20q76 147 129 197t123 49q70 0 154 -74q84 -73 125 -73t67 26t72 101l74 -21q-76 -147 -129 -196q-53 -50 -123 -50t-154 74t-124 74zM389 1253q0 59 -40 79t-144 26l16 80h621l-19 -80q-113 -4 -167 -33t-72 -117
l-142 -665q-14 -76 -14 -121q0 -144 82 -232t250 -88t283 94q114 94 159 306l141 676q10 51 11 75q0 59 -40 79t-145 26l17 80h543l-19 -80q-113 -4 -167 -33t-73 -117l-157 -745q-51 -244 -208 -364q-157 -119 -387 -119t-357 112q-126 112 -125 324q0 61 16 147l127 615
q10 51 10 75z" />
    <glyph glyph-name="utilde" unicode="&#x169;" horiz-adv-x="1273" 
d="M932 1251q-70 0 -154 74t-125 74t-67 -27t-70 -100l-76 20q76 146 129 196t123 50t154 -74t125 -74t67 28q26 26 72 100l74 -21q-76 -147 -129 -197t-123 -49zM858 -20q-117 0 -117 139q1 80 95 391h-15q-127 -252 -266 -391t-270 -139q-66 0 -107 47t-41 117t19 141
l161 645l-155 63l12 43l322 70h51l-205 -827q-18 -78 -18 -126t45 -49q79 0 187 113t202 290t141 355l55 209l191 14l-211 -847q-18 -70 -18 -96t28 -25q66 0 191 153l41 -43q-92 -137 -165 -192t-153 -55z" />
    <glyph glyph-name="Umacron" unicode="&#x16a;" horiz-adv-x="1560" 
d="M762 1604l29 127h577l-29 -127h-577zM389 1253q0 59 -40 79t-144 26l16 80h621l-19 -80q-113 -4 -167 -33t-72 -117l-142 -665q-14 -76 -14 -121q0 -144 82 -232t250 -88t283 94q114 94 159 306l141 676q10 51 11 75q0 59 -40 79t-145 26l17 80h543l-19 -80
q-113 -4 -167 -33t-73 -117l-157 -745q-51 -244 -208 -364q-157 -119 -387 -119t-357 112q-126 112 -125 324q0 61 16 147l127 615q10 51 10 75z" />
    <glyph glyph-name="umacron" unicode="&#x16b;" horiz-adv-x="1273" 
d="M518 1276l27 119h536l-26 -119h-537zM858 -20q-117 0 -117 139q1 80 95 391h-15q-127 -252 -266 -391t-270 -139q-66 0 -107 47t-41 117t19 141l161 645l-155 63l12 43l322 70h51l-205 -827q-18 -78 -18 -126t45 -49q79 0 187 113t202 290t141 355l55 209l191 14
l-211 -847q-18 -70 -18 -96t28 -25q66 0 191 153l41 -43q-92 -137 -165 -192t-153 -55z" />
    <glyph glyph-name="Ubreve" unicode="&#x16c;" horiz-adv-x="1560" 
d="M1058 1552q-130 0 -197 65t-66 183q0 43 12 96h74q-2 -12 -2 -34q0 -86 55 -130t142 -44t161 52t106 156h80q-33 -162 -134 -253t-231 -91zM389 1253q0 59 -40 79t-144 26l16 80h621l-19 -80q-113 -4 -167 -33t-72 -117l-142 -665q-14 -76 -14 -121q0 -144 82 -232
t250 -88t283 94q114 94 159 306l141 676q10 51 11 75q0 59 -40 79t-145 26l17 80h543l-19 -80q-113 -4 -167 -33t-73 -117l-157 -745q-51 -244 -208 -364q-157 -119 -387 -119t-357 112q-126 112 -125 324q0 61 16 147l127 615q10 51 10 75z" />
    <glyph glyph-name="ubreve" unicode="&#x16d;" horiz-adv-x="1273" 
d="M778 1214q-231 0 -231 248q0 45 12 97h74q-2 -12 -2 -35q0 -174 178 -174t246 209h80q-33 -165 -127 -255t-230 -90zM858 -20q-117 0 -117 139q1 80 95 391h-15q-127 -252 -266 -391t-270 -139q-66 0 -107 47t-41 117t19 141l161 645l-155 63l12 43l322 70h51l-205 -827
q-18 -78 -18 -126t45 -49q79 0 187 113t202 290t141 355l55 209l191 14l-211 -847q-18 -70 -18 -96t28 -25q66 0 191 153l41 -43q-92 -137 -165 -192t-153 -55z" />
    <glyph glyph-name="Uring" unicode="&#x16e;" horiz-adv-x="1560" 
d="M1264 1724q0 -80 -60 -140t-144 -60q-83 0 -128 46t-45 127t60 140q59 59 143 59t129 -46t45 -126zM973 1697q0 -98 95 -98q48 0 79 38q31 39 31 87q0 98 -96 97q-48 0 -78 -38t-31 -86zM389 1253q0 59 -40 79t-144 26l16 80h621l-19 -80q-113 -4 -167 -33t-72 -117
l-142 -665q-14 -76 -14 -121q0 -144 82 -232t250 -88t283 94q114 94 159 306l141 676q10 51 11 75q0 59 -40 79t-145 26l17 80h543l-19 -80q-113 -4 -167 -33t-73 -117l-157 -745q-51 -244 -208 -364q-157 -119 -387 -119t-357 112q-126 112 -125 324q0 61 16 147l127 615
q10 51 10 75z" />
    <glyph glyph-name="uring" unicode="&#x16f;" horiz-adv-x="1273" 
d="M997 1404q-1 -80 -61 -140t-143 -60t-127 46t-45 127q0 81 60 141t143 59q83 0 128 -46t45 -127zM802 1280q48 0 79 38t31 86q-1 99 -91 97q-53 0 -84 -38t-31 -86q0 -49 24 -73t72 -24zM858 -20q-117 0 -117 139q1 80 95 391h-15q-127 -252 -266 -391t-270 -139
q-66 0 -107 47t-41 117t19 141l161 645l-155 63l12 43l322 70h51l-205 -827q-18 -78 -18 -126t45 -49q79 0 187 113t202 290t141 355l55 209l191 14l-211 -847q-18 -70 -18 -96t28 -25q66 0 191 153l41 -43q-92 -137 -165 -192t-153 -55z" />
    <glyph glyph-name="Uhungarumlaut" unicode="&#x170;" horiz-adv-x="1560" 
d="M1337 1864h215l-325 -305h-109zM1022 1864h215l-326 -305h-108zM389 1253q0 59 -40 79t-144 26l16 80h621l-19 -80q-113 -4 -167 -33t-72 -117l-142 -665q-14 -76 -14 -121q0 -144 82 -232t250 -88t283 94q114 94 159 306l141 676q10 51 11 75q0 59 -40 79t-145 26l17 80
h543l-19 -80q-113 -4 -167 -33t-73 -117l-157 -745q-51 -244 -208 -364q-157 -119 -387 -119t-357 112q-126 112 -125 324q0 61 16 147l127 615q10 51 10 75z" />
    <glyph glyph-name="uhungarumlaut" unicode="&#x171;" horiz-adv-x="1273" 
d="M1077 1559h215l-340 -347h-108zM762 1559h215l-340 -347h-109zM858 -20q-117 0 -117 139q1 80 95 391h-15q-127 -252 -266 -391t-270 -139q-66 0 -107 47t-41 117t19 141l161 645l-155 63l12 43l322 70h51l-205 -827q-18 -78 -18 -126t45 -49q79 0 187 113t202 290
t141 355l55 209l191 14l-211 -847q-18 -70 -18 -96t28 -25q66 0 191 153l41 -43q-92 -137 -165 -192t-153 -55z" />
    <glyph glyph-name="Uogonek" unicode="&#x172;" horiz-adv-x="1560" 
d="M649 -246q0 -72 90 -71q66 0 201 96l27 -39q-156 -170 -295 -170q-72 0 -117 37t-45 102q0 147 225 271h-6q-242 0 -368 112t-125 324q0 61 16 147l127 615q10 51 10 75q0 59 -40 79t-144 26l16 80h621l-19 -80q-113 -4 -167 -33t-72 -117l-142 -665q-14 -76 -14 -121
q0 -144 82 -232t250 -88t283 94q114 94 159 306l141 676q10 51 11 75q0 59 -40 79t-145 26l17 80h543l-19 -80q-113 -4 -167 -33t-73 -117l-157 -745q-82 -377 -410 -463q-119 -62 -187 -118t-67 -128z" />
    <glyph glyph-name="uogonek" unicode="&#x173;" horiz-adv-x="1273" 
d="M666 -244q0 -74 90 -73q66 0 200 96l27 -39q-156 -170 -295 -170q-72 0 -117 37t-45 113q0 142 291 276q-76 23 -76 113t95 401h-15q-127 -252 -266 -391t-270 -139q-66 0 -107 47t-41 117t19 141l161 645l-155 63l12 43l322 70h51l-205 -827q-18 -78 -18 -126t45 -49
q79 0 187 113t202 290t141 355l55 209l191 14l-211 -847q-18 -70 -18 -96t28 -25q68 0 189 153l43 -43q-60 -88 -154 -165q-94 -78 -169 -118t-131 -90t-56 -98z" />
    <glyph glyph-name="Wcircumflex" unicode="&#x174;" horiz-adv-x="2000" 
d="M1382 1884l217 -325h-92l-219 182l-346 -182h-96l385 325h151zM1886 1284q0 30 -28 51q-28 20 -148 23l19 80h456l-18 -80q-37 -6 -57 -10q-58 -12 -87 -66l-743 -1300h-61l-123 882l-504 -882h-62l-221 1300q-8 61 -110 76l18 80h543l-19 -80q-143 -6 -177 -33
q-48 -39 -32 -151l136 -887l407 719l-41 276q-7 52 -56 66q-17 4 -54 10l18 80h522l-18 -80q-145 -6 -179 -36t-34 -89q0 -12 4 -45l111 -899l501 897q37 68 37 98z" />
    <glyph glyph-name="wcircumflex" unicode="&#x175;" horiz-adv-x="1546" 
d="M1055 1559l196 -347h-92l-198 205l-326 -205h-96l364 347h152zM1350 836q0 147 -183 147v31q74 92 169 92q96 0 138 -53t42 -138q0 -176 -205 -438l-383 -497h-80l-57 583l-410 -583h-80l-92 960l-150 51l13 43l274 72h27l73 -903l334 467l-24 270l-150 51l12 43l269 72
h26l74 -907l252 325q111 145 111 312z" />
    <glyph glyph-name="Ycircumflex" unicode="&#x176;" horiz-adv-x="1363" 
d="M1085 1884l218 -325h-93l-219 182l-346 -182h-96l385 325h151zM1235 1290q0 34 -37 46q-37 13 -137 22l18 80h469l-18 -80q-86 -12 -144 -76l-598 -702l-67 -320q-12 -49 -12 -76q0 -60 49 -80t157 -24l-16 -80h-651l16 80q117 4 180 34t82 115l74 349l-291 704
q-16 39 -40 54t-70 22l18 80h539l-19 -80q-69 0 -107 -4t-70 -24t-32 -54q0 -33 21 -88l199 -514l432 514q55 68 55 102z" />
    <glyph glyph-name="ycircumflex" unicode="&#x177;" horiz-adv-x="1054" 
d="M782 1559l197 -347h-92l-199 205l-326 -205h-96l365 347h151zM845 1106q179 0 179 -195q0 -174 -294 -638q-294 -463 -463 -587q-83 -62 -144 -85t-132 -23t-129 39t-59 119q0 45 27 81t68 48h34q0 -168 131 -168q68 0 139 43t177 174l-176 1026l-150 51l13 43l270 72h26
l158 -1004q340 480 340 734q0 147 -184 147v31q74 92 169 92z" />
    <glyph glyph-name="Ydieresis" unicode="&#x178;" horiz-adv-x="1363" 
d="M1138 1577q-52 0 -86 34t-34 86t38 91t90 39t86 -34t34 -86t-38 -91t-90 -39zM757 1577q-52 0 -86 34t-34 86t38 91t90 39t86 -34t34 -86t-38 -91t-90 -39zM1235 1290q0 34 -37 46q-37 13 -137 22l18 80h469l-18 -80q-86 -12 -144 -76l-598 -702l-67 -320
q-12 -49 -12 -76q0 -60 49 -80t157 -24l-16 -80h-651l16 80q117 4 180 34t82 115l74 349l-291 704q-16 39 -40 54t-70 22l18 80h539l-19 -80q-69 0 -107 -4t-70 -24t-32 -54q0 -33 21 -88l199 -514l432 514q55 68 55 102z" />
    <glyph glyph-name="Zacute" unicode="&#x179;" horiz-adv-x="1245" 
d="M967 1864h270l-373 -305h-84zM688 96q89 0 176 45q67 35 236 265h69l-153 -406h-1061l10 51l1108 1288h-409q-120 0 -180 -51t-177 -229h-61l80 379h1028l-13 -54l-1110 -1288h457z" />
    <glyph glyph-name="zacute" unicode="&#x17a;" horiz-adv-x="1003" 
d="M803 1559h278l-395 -347h-92zM389 915q-49 0 -75 -14t-48 -55l-59 -103l-51 19l143 391h41q8 -80 59 -80h631l-2 -47l-790 -756l254 -82q96 -30 164 -30t117 42q50 42 97 148l50 -14q-70 -201 -132 -278t-184 -76q-88 0 -223 63l-246 111l-98 -156q-78 2 -78 63
q0 47 45 93l793 761h-408z" />
    <glyph glyph-name="Zdotaccent" unicode="&#x17b;" horiz-adv-x="1245" 
d="M860 1571q-57 0 -94 38t-37 94t42 99t99 43q56 0 94 -38t38 -94t-43 -99q-42 -43 -99 -43zM688 96q89 0 176 45q67 35 236 265h69l-153 -406h-1061l10 51l1108 1288h-409q-120 0 -180 -51t-177 -229h-61l80 379h1028l-13 -54l-1110 -1288h457z" />
    <glyph glyph-name="zdotaccent" unicode="&#x17c;" horiz-adv-x="1003" 
d="M821 1394q0 -56 -42 -100t-99 -43q-57 0 -94 38t-37 94q0 55 42 99t99 44t94 -38t37 -94zM389 915q-49 0 -75 -14t-48 -55l-59 -103l-51 19l143 391h41q8 -80 59 -80h631l-2 -47l-790 -756l254 -82q96 -30 164 -30t117 42q50 42 97 148l50 -14q-70 -201 -132 -278
t-184 -76q-88 0 -223 63l-246 111l-98 -156q-78 2 -78 63q0 47 45 93l793 761h-408z" />
    <glyph glyph-name="Zcaron" unicode="&#x17d;" horiz-adv-x="1245" 
d="M762 1559l-217 325h92l219 -182l346 182h96l-385 -325h-151zM688 96q89 0 176 45q67 35 236 265h69l-153 -406h-1061l10 51l1108 1288h-409q-120 0 -180 -51t-177 -229h-61l80 379h1028l-13 -54l-1110 -1288h457z" />
    <glyph glyph-name="zcaron" unicode="&#x17e;" horiz-adv-x="1003" 
d="M578 1217l-197 346h92l199 -205l325 205h97l-365 -346h-151zM389 915q-49 0 -75 -14t-48 -55l-59 -103l-51 19l143 391h41q8 -80 59 -80h631l-2 -47l-790 -756l254 -82q96 -30 164 -30t117 42q50 42 97 148l50 -14q-70 -201 -132 -278t-184 -76q-88 0 -223 63l-246 111
l-98 -156q-78 2 -78 63q0 47 45 93l793 761h-408z" />
    <glyph glyph-name="florin" unicode="&#x192;" horiz-adv-x="962" 
d="M877 1458q190 0 190 -137q0 -96 -113 -131h-39q-4 98 -14 131q-9 33 -27 45t-47 12q-96 0 -139 -190l-106 -467h231l-14 -88h-236l-94 -418q-129 -563 -453 -563q-190 0 -190 137q0 96 113 131h38q6 -151 42 -176q17 -12 47 -12q96 0 139 190l160 711h-177l21 88h176
l41 178q127 559 451 559z" />
    <glyph glyph-name="Aringacute" unicode="&#x1fa;" horiz-adv-x="1468" 
d="M831 1671q0 -90 97 -90q47 0 78 31q30 31 30 74q0 42 -24 66t-72 24q-47 0 -78 -31t-31 -74zM1096 2105h270l-315 -209h-84zM1122 1686q0 -72 -60 -122t-142 -51q-82 0 -128 43t-46 115t58 122q60 50 143 50t129 -43q46 -42 46 -114zM834 1198l-392 -633h521zM209 151
q0 -39 42 -53t136 -18l-14 -80h-461l16 80q53 8 85 22t57 54l725 1165l-35 135h217l278 -1300q8 -38 35 -54t76 -22l-14 -80h-547l14 80q72 2 110 8q39 6 71 32t32 75q0 14 -4 55l-45 215h-602l-131 -213q-41 -63 -41 -101z" />
    <glyph glyph-name="aringacute" unicode="&#x1fb;" horiz-adv-x="1222" 
d="M809 -20q-115 0 -115 139q0 45 26 153t54 191h-14q-98 -211 -221 -347t-235 -136t-174 80q-60 81 -60 227q0 323 198 571t434 248q140 0 222 -82l120 98h72l-72 -229l-159 -655q-19 -70 -19 -96t29 -25q68 0 188 153l43 -43q-90 -135 -164 -191t-153 -56zM367 117
q119 0 265 223t238 588q-54 94 -170 94t-222 -111t-164 -275q-56 -164 -58 -333q0 -86 29 -136t82 -50zM954 1761h271l-316 -209h-84zM981 1337q1 -72 -59 -122t-143 -50t-129 43t-46 115t60 122t142 50q83 0 129 -43t46 -115zM690 1323q0 -90 96 -90q47 0 78 31
q31 32 31 74t-25 66q-26 24 -72 24t-77 -32q-31 -30 -31 -73z" />
    <glyph glyph-name="AEacute" unicode="&#x1fc;" horiz-adv-x="2131" 
d="M1686 1864h270l-373 -305h-84zM1217 1268l-601 -662h459zM1827 1343h-397l-119 -561h327q68 0 111 44t80 141h69l-98 -463h-69q0 98 -24 141t-89 43h-328l-88 -420q-10 -47 -10 -91t41 -63t141 -20h156q135 0 218 54t220 221h60l-140 -369h-1151l19 80q113 4 167 33
t72 116l62 287h-522l-240 -264q-43 -45 -43 -92q0 -48 42 -62t138 -18l-14 -80h-506l16 80q83 10 142 76l1044 1144q-27 57 -176 58l16 80h1227l-74 -342h-55q-33 150 -71 198t-154 49z" />
    <glyph glyph-name="aeacute" unicode="&#x1fd;" horiz-adv-x="1579" 
d="M1102 1559h278l-395 -347h-92zM1241 1004q-123 0 -229 -142t-133 -350q253 76 369 156t116 196q0 60 -33 100t-90 40zM700 1022q-116 0 -222 -111t-164 -275q-56 -164 -57 -341q-1 -178 119 -178q62 0 148 85t166 236q18 266 199 465q-73 119 -189 119zM702 1106
q156 0 259 -133q156 133 335 133q120 0 180 -62t60 -174q0 -111 -110 -197t-251 -135t-305 -92v-53q0 -135 60 -214t162 -79q164 0 323 191l51 -41q-111 -146 -214 -208q-102 -62 -242 -62t-223 97t-97 251q-90 -158 -192 -253t-204 -95t-164 80q-60 81 -60 227
q0 323 198 571t434 248z" />
    <glyph glyph-name="Oslashacute" unicode="&#x1fe;" horiz-adv-x="1474" 
d="M1092 1864h270l-373 -305h-84zM336 561q0 -211 80 -336l659 1063q-76 63 -182 64q-164 0 -293 -114q-128 -114 -196 -290t-68 -387zM662 86q162 0 292 114t197 290q68 176 68 386q0 209 -80 338l-662 -1064q76 -64 185 -64zM1432 877q0 -369 -226 -633t-547 -264
q-137 0 -253 53l-105 -168l-80 47l105 170q-203 156 -203 481q0 369 225 632t547 263q135 0 252 -53l94 151l80 -47l-94 -153q205 -156 205 -479z" />
    <glyph glyph-name="oslashacute" unicode="&#x1ff;" horiz-adv-x="1099" 
d="M809 1559h278l-395 -347h-92zM260 370q0 -127 27 -194l465 815q-41 33 -103 33q-106 0 -198 -111q-91 -111 -141 -263t-50 -280zM449 61q106 0 198 111q93 112 143 264t50 282t-33 202l-469 -822q43 -37 111 -37zM1024 694q0 -172 -74 -335t-211 -271t-297 -108
q-84 0 -155 30l-94 -168l-74 41l96 170q-139 109 -139 338q0 172 74 335q74 164 210 272t295 108q76 0 146 -27l82 142l73 -41l-82 -144q150 -111 150 -342z" />
    <glyph glyph-name="Scommaaccent" unicode="&#x218;" horiz-adv-x="1144" 
d="M397 -106q63 0 97 -35t34 -97q0 -100 -80 -166t-223 -67l15 68q154 0 172 90h-95q-67 15 -67 77t42 96t105 34zM1008 403q0 -199 -146 -311t-322 -112t-298 54t-193 124l53 340h70q16 -201 106 -311q90 -109 234 -109q143 0 227 68t84 184t-62 185q-63 69 -215 153
t-221 176t-69 219q0 180 123 288t313 107q252 0 428 -147l-57 -299h-68q-39 348 -305 348q-130 0 -196 -67t-66 -171t52 -166t202 -142q150 -79 238 -176t88 -235z" />
    <glyph glyph-name="scommaaccent" unicode="&#x219;" horiz-adv-x="849" 
d="M92 -236q0 62 42 96t106 34t97 -35q34 -35 34 -97q0 -100 -80 -166t-223 -67l14 68q154 0 172 90h-94q-68 15 -68 77zM391 74q166 0 166 151q0 53 -58 125t-127 133t-127 149t-59 165q0 129 102 219t234 90q134 0 204 -50t69 -132q0 -63 -88 -107h-21q-92 187 -230 187
t-139 -134q0 -70 135 -196q56 -54 112 -112q134 -140 134 -253q0 -147 -108 -238t-252 -91q-143 0 -229 62t-86 154t90 134h16q96 -256 262 -256z" />
    <glyph glyph-name="uni0237" unicode="&#x237;" horiz-adv-x="612" 
d="M-109 -424q-82 0 -133 34t-51 91q0 96 109 123h28q34 -160 120 -160t147 291l206 975l-153 63l12 43l322 70h51l-205 -909q-68 -299 -176 -460t-277 -161z" />
    <glyph glyph-name="circumflex" unicode="&#x2c6;" horiz-adv-x="1024" 
d="M672 1559l196 -347h-92l-198 205l-326 -205h-96l364 347h152z" />
    <glyph glyph-name="caron" unicode="&#x2c7;" horiz-adv-x="1024" 
d="M352 1217l-196 346h92l198 -205l326 205h96l-364 -346h-152z" />
    <glyph glyph-name="breve" unicode="&#x2d8;" horiz-adv-x="1024" 
d="M449 1214q-231 0 -232 248q0 45 12 97h74q-2 -12 -2 -35q0 -174 178 -174t246 209h80q-33 -165 -126 -255t-230 -90z" />
    <glyph glyph-name="dotaccent" unicode="&#x2d9;" horiz-adv-x="1024" 
d="M647 1394q0 -56 -42 -100t-99 -43q-57 0 -94 38t-37 94q0 55 42 99t99 44t94 -38t37 -94z" />
    <glyph glyph-name="ring" unicode="&#x2da;" horiz-adv-x="1024" 
d="M496 1204q-84 0 -128 46t-44 127t60 141t144 59q84 0 128 -46t44 -127q0 -80 -60 -140t-144 -60zM505 1280q48 0 79 38q30 38 30 86q-1 99 -90 97q-53 0 -84 -38q-30 -38 -30 -86q0 -49 24 -73t71 -24z" />
    <glyph glyph-name="ogonek" unicode="&#x2db;" horiz-adv-x="1024" 
d="M444 -430q-72 0 -116 37t-45 95q0 145 183 253q70 41 230 115l21 -47q-224 -118 -272 -190q-24 -36 -23 -77q0 -74 90 -73q66 0 201 96l26 -39q-156 -170 -295 -170z" />
    <glyph glyph-name="tilde" unicode="&#x2dc;" horiz-adv-x="1024" 
d="M631 1251q-70 0 -154 74t-125 74q-42 0 -68 -27t-69 -100l-76 20q76 146 129 196t123 50t154 -74t125 -74q42 0 68 28q26 26 71 100l74 -21q-76 -147 -129 -197t-123 -49z" />
    <glyph glyph-name="hungarumlaut" unicode="&#x2dd;" horiz-adv-x="1024" 
d="M678 1559h215l-340 -347h-109zM362 1559h216l-340 -347h-109z" />
    <glyph glyph-name="pi" unicode="&#x3c0;" horiz-adv-x="1290" 
d="M885 212q0 -97 96 -97q51 0 100 12v-49q-121 -98 -227 -98q-72 0 -114 44t-42 132t40 258t145 520h-346q-121 -569 -279 -934h-207l6 35q92 168 141 262q48 94 118 275t108 362h-199l33 151h1008l-68 -151h-164q-84 -315 -116 -470t-33 -252z" />
    <glyph glyph-name="Wgrave" unicode="&#x1e80;" horiz-adv-x="2000" 
d="M938 1864h250l115 -305h-82zM1886 1284q0 30 -28 51q-28 20 -148 23l19 80h456l-18 -80q-37 -6 -57 -10q-58 -12 -87 -66l-743 -1300h-61l-123 882l-504 -882h-62l-221 1300q-8 61 -110 76l18 80h543l-19 -80q-143 -6 -177 -33q-48 -39 -32 -151l136 -887l407 719
l-41 276q-7 52 -56 66q-17 4 -54 10l18 80h522l-18 -80q-145 -6 -179 -36t-34 -89q0 -12 4 -45l111 -899l501 897q37 68 37 98z" />
    <glyph glyph-name="wgrave" unicode="&#x1e81;" horiz-adv-x="1546" 
d="M602 1559h254l129 -347h-84zM1350 836q0 147 -183 147v31q74 92 169 92q96 0 138 -53t42 -138q0 -176 -205 -438l-383 -497h-80l-57 583l-410 -583h-80l-92 960l-150 51l13 43l274 72h27l73 -903l334 467l-24 270l-150 51l12 43l269 72h26l74 -907l252 325
q111 145 111 312z" />
    <glyph glyph-name="Wacute" unicode="&#x1e82;" horiz-adv-x="2000" 
d="M1376 1864h271l-373 -305h-84zM1886 1284q0 30 -28 51q-28 20 -148 23l19 80h456l-18 -80q-37 -6 -57 -10q-58 -12 -87 -66l-743 -1300h-61l-123 882l-504 -882h-62l-221 1300q-8 61 -110 76l18 80h543l-19 -80q-143 -6 -177 -33q-48 -39 -32 -151l136 -887l407 719
l-41 276q-7 52 -56 66q-17 4 -54 10l18 80h522l-18 -80q-145 -6 -179 -36t-34 -89q0 -12 4 -45l111 -899l501 897q37 68 37 98z" />
    <glyph glyph-name="wacute" unicode="&#x1e83;" horiz-adv-x="1546" 
d="M1073 1559h279l-396 -347h-92zM1350 836q0 147 -183 147v31q74 92 169 92q96 0 138 -53t42 -138q0 -176 -205 -438l-383 -497h-80l-57 583l-410 -583h-80l-92 960l-150 51l13 43l274 72h27l73 -903l334 467l-24 270l-150 51l12 43l269 72h26l74 -907l252 325
q111 145 111 312z" />
    <glyph glyph-name="Wdieresis" unicode="&#x1e84;" horiz-adv-x="2000" 
d="M1461 1577q-52 0 -86 34t-34 86t38 91t90 39t86 -34t34 -86t-38 -91t-90 -39zM1080 1577q-52 0 -86 34t-34 86t38 91t90 39t87 -34q33 -34 33 -86t-38 -91t-90 -39zM1886 1284q0 30 -28 51q-28 20 -148 23l19 80h456l-18 -80q-37 -6 -57 -10q-58 -12 -87 -66l-743 -1300
h-61l-123 882l-504 -882h-62l-221 1300q-8 61 -110 76l18 80h543l-19 -80q-143 -6 -177 -33q-48 -39 -32 -151l136 -887l407 719l-41 276q-7 52 -56 66q-17 4 -54 10l18 80h522l-18 -80q-145 -6 -179 -36t-34 -89q0 -12 4 -45l111 -899l501 897q37 68 37 98z" />
    <glyph glyph-name="wdieresis" unicode="&#x1e85;" horiz-adv-x="1546" 
d="M767 1509q52 1 86 -33t34 -86t-38 -91t-90 -39t-86 34t-34 85q0 52 38 91t90 39zM1148 1509q52 1 86 -33t34 -86t-38 -91t-90 -39t-86 34t-34 85q0 52 38 91t90 39zM1350 836q0 147 -183 147v31q74 92 169 92q96 0 138 -53t42 -138q0 -176 -205 -438l-383 -497h-80
l-57 583l-410 -583h-80l-92 960l-150 51l13 43l274 72h27l73 -903l334 467l-24 270l-150 51l12 43l269 72h26l74 -907l252 325q111 145 111 312z" />
    <glyph glyph-name="Ygrave" unicode="&#x1ef2;" horiz-adv-x="1363" 
d="M641 1864h250l115 -305h-82zM1235 1290q0 34 -37 46q-37 13 -137 22l18 80h469l-18 -80q-86 -12 -144 -76l-598 -702l-67 -320q-12 -49 -12 -76q0 -60 49 -80t157 -24l-16 -80h-651l16 80q117 4 180 34t82 115l74 349l-291 704q-16 39 -40 54t-70 22l18 80h539l-19 -80
q-69 0 -107 -4t-70 -24t-32 -54q0 -33 21 -88l199 -514l432 514q55 68 55 102z" />
    <glyph glyph-name="ygrave" unicode="&#x1ef3;" horiz-adv-x="1054" 
d="M330 1559h254l129 -347h-84zM845 1106q179 0 179 -195q0 -174 -294 -638q-294 -463 -463 -587q-83 -62 -144 -85t-132 -23t-129 39t-59 119q0 45 27 81t68 48h34q0 -168 131 -168q68 0 139 43t177 174l-176 1026l-150 51l13 43l270 72h26l158 -1004q340 480 340 734
q0 147 -184 147v31q74 92 169 92z" />
    <glyph glyph-name="endash" unicode="&#x2013;" horiz-adv-x="1187" 
d="M1040 557h-946l35 135h946z" />
    <glyph glyph-name="emdash" unicode="&#x2014;" horiz-adv-x="2048" 
d="M1901 557h-1807l35 135h1806z" />
    <glyph glyph-name="quoteleft" unicode="&#x2018;" horiz-adv-x="618" 
d="M578 1178q0 -54 -38 -92t-101 -38t-103 45q-40 44 -39 121q0 126 106 228t265 117v-78q-102 -19 -168 -73t-78 -124h70q86 -25 86 -106z" />
    <glyph glyph-name="quoteright" unicode="&#x2019;" horiz-adv-x="618" 
d="M313 1430q0 53 38 91q39 38 101 38q62 -1 102 -45t40 -121q0 -127 -106 -229t-265 -115v77q102 20 168 74t78 123h-70q-86 25 -86 107z" />
    <glyph glyph-name="quotesinglbase" unicode="&#x201a;" horiz-adv-x="618" 
d="M125 152q0 53 38 91q39 38 101 38t102 -44t40 -122q0 -127 -106 -229t-265 -115v77q102 20 168 74t78 123h-70q-86 25 -86 107z" />
    <glyph glyph-name="quotedblleft" unicode="&#x201c;" horiz-adv-x="1019" 
d="M979 1178q0 -54 -38 -92q-39 -38 -101 -38t-102 45q-40 44 -40 121q0 126 106 228t265 117v-78q-102 -19 -168 -73t-78 -124h70q86 -25 86 -106zM578 1178q0 -54 -38 -92t-101 -38t-103 45q-40 44 -39 121q0 126 106 228t265 117v-78q-102 -19 -168 -73t-78 -124h70
q86 -25 86 -106z" />
    <glyph glyph-name="quotedblright" unicode="&#x201d;" horiz-adv-x="1019" 
d="M313 1430q0 53 38 91q39 38 101 38q62 -1 102 -45t40 -121q0 -127 -106 -229t-265 -115v77q102 20 168 74t78 123h-70q-86 25 -86 107zM715 1430q0 53 38 91q39 38 101 38q62 -1 102 -45t39 -121q0 -127 -106 -229t-264 -115v77q101 20 167 74t78 123h-69q-86 25 -86 107
z" />
    <glyph glyph-name="quotedblbase" unicode="&#x201e;" horiz-adv-x="1019" 
d="M125 152q0 53 38 91q39 38 101 38t102 -44t40 -122q0 -127 -106 -229t-265 -115v77q102 20 168 74t78 123h-70q-86 25 -86 107zM526 152q0 53 38 91t100 38t103 -44q40 -44 40 -122q-1 -127 -107 -229t-264 -115v77q102 20 168 74t78 123h-70q-86 25 -86 107z" />
    <glyph glyph-name="dagger" unicode="&#x2020;" horiz-adv-x="946" 
d="M223 1239l334 -25l47 338h133l-98 -338l346 25l-27 -125l-337 23l-105 -621h-133l158 621l-344 -23z" />
    <glyph glyph-name="daggerdbl" unicode="&#x2021;" horiz-adv-x="946" 
d="M565 1157l-348 -22l27 125l334 -25l43 317h133l-95 -317l347 25l-27 -125l-338 22l-53 -248l348 25l-27 -125l-336 22l-41 -315h-133l93 315l-345 -22l27 125l338 -25z" />
    <glyph glyph-name="bullet" unicode="&#x2022;" horiz-adv-x="847" 
d="M178 614q0 102 74 176t176 74t176 -74t74 -176t-74 -176t-176 -74t-176 74t-74 176z" />
    <glyph glyph-name="ellipsis" unicode="&#x2026;" horiz-adv-x="1990" 
d="M1442 129q0 63 43 107t106 43q63 0 107 -43q44 -42 43 -106q0 -64 -43 -107q-42 -43 -106 -43t-107 43t-43 106zM778 129q0 63 43 107t107 43q64 0 106 -43q43 -42 43 -106t-43 -107t-106 -43t-107 43q-43 43 -43 106zM115 129q0 63 43 107t106 43q62 0 106 -43
q44 -42 44 -106t-43 -107t-107 -43t-106 43q-43 43 -43 106z" />
    <glyph glyph-name="perthousand" unicode="&#x2030;" horiz-adv-x="2562" 
d="M1755 305q-1 188 119 306t264 118t232 -90t88 -233q0 -188 -120 -306t-264 -118t-231 90q-88 90 -88 233zM2068 66q100 0 165 116t65 258q0 205 -154 205q-100 0 -165 -116t-64 -259q-1 -204 153 -204zM1348 729q144 0 231 -90q88 -90 88 -233q0 -188 -120 -306
t-263 -118t-231 90t-88 233q0 188 119 306q120 118 264 118zM1278 66q100 0 165 116t64 258q0 205 -153 205q-100 0 -165 -116t-65 -259q0 -204 154 -204zM848 1135q0 -188 -120 -306t-262 -118q-144 0 -233 90q-88 90 -88 233q0 188 120 306q119 118 263 118t232 -90
t88 -233zM217 -39l1256 1518h122l-1255 -1518h-123zM535 1374q-100 0 -165 -116t-65 -259q0 -205 154 -204q100 -1 165 115t64 259q1 205 -153 205z" />
    <glyph glyph-name="guilsinglleft" unicode="&#x2039;" horiz-adv-x="632" 
d="M102 551l4 20l422 390h111l-344 -400l170 -399h-88z" />
    <glyph glyph-name="guilsinglright" unicode="&#x203a;" horiz-adv-x="632" 
d="M537 571l-5 -20l-421 -389h-111l344 399l-170 400h88z" />
    <glyph glyph-name="fraction" unicode="&#x2044;" horiz-adv-x="579" 
d="M-430 0l1255 1518h123l-1255 -1518h-123z" />
    <glyph glyph-name="Euro" unicode="&#x20ac;" horiz-adv-x="1396" 
d="M461 555v-18q0 -233 73 -344t221 -111t238 80t178 282h86l-79 -348q-182 -116 -426 -116t-379 141t-135 414v20h-185l19 88h170q10 76 24 143h-168l19 88h174q82 256 265 419t420 163t382 -125l-49 -305h-72q-27 330 -276 330q-172 0 -289 -133t-172 -349h594l-47 -88
h-566q-14 -78 -16 -143h516l-47 -88h-473z" />
    <glyph glyph-name="uni2117" unicode="&#x2117;" horiz-adv-x="1630" 
d="M866 719q229 0 230 192q0 152 -164 152h-62l-77 -344h73zM883 655h-103l-43 -184q-8 -33 -8 -57q0 -46 127 -45l-10 -54h-391l10 54q63 2 90 17t39 65l123 540q4 25 4 45q-1 20 -21 28q-20 9 -73 11l12 53h350q123 0 189 -58t66 -164t-97 -178q-96 -72 -264 -73zM824 -20
q-316 0 -510 196t-193 490q0 332 225 562q224 230 540 230t510 -196t193 -490q0 -332 -225 -562q-224 -230 -540 -230zM211 666q0 -260 167 -432q168 -172 446 -173q278 0 476 206t199 505q0 260 -167 432q-168 172 -446 172t-476 -206t-199 -504z" />
    <glyph glyph-name="trademark" unicode="&#x2122;" horiz-adv-x="1787" 
d="M1006 856q0 -23 16 -31t65 -12l-12 -55h-250l13 55q74 2 90 49l164 461q0 31 -14 44t-56 15l12 56h191q0 -43 2 -58l63 -432l252 432q14 25 27 58h192l-12 -56q-78 -6 -92 -59l-21 -461q-2 -27 14 -36t58 -13l-12 -55h-295l12 55q55 4 77 13q22 10 27 34t5 70l12 317
l-281 -489h-43l-73 485l-111 -311q-20 -53 -20 -76zM717 1372h-53l-103 -477q-6 -27 -6 -45q0 -30 92 -37l-12 -55h-338l12 55q53 4 81 15t34 46l106 498h-53q-73 0 -116 -52q-17 -22 -60 -83h-51l57 201h606l-26 -201h-49q-19 75 -35 99q-17 24 -35 30t-51 6z" />
    <glyph glyph-name="Omega" unicode="&#x2126;" horiz-adv-x="1568" 
d="M940 1366q-160 0 -280 -128t-173 -297t-53 -337q0 -297 160 -461l-29 -143h-524l22 356h54q47 -147 88 -180t178 -33h121q-100 59 -186 205t-85 340t91 370t258 288t374 112t336 -129q131 -129 131 -367q-1 -238 -161 -467q-160 -228 -406 -352h121q137 0 192 33t164 180
h64l-125 -356h-535l29 143q198 145 322 393t124 492q0 170 -71 254q-72 84 -201 84z" />
    <glyph glyph-name="uni2153" unicode="&#x2153;" horiz-adv-x="1949" 
d="M1759 156q1 -152 -111 -233t-260 -81t-222 56t-74 139q0 84 82 119h96q-39 -136 20 -205q35 -41 113 -41t133 60t55 152t-46 138q-46 45 -120 45q-33 0 -77 -6l-11 47q131 43 207 96t76 133q0 47 -30 75t-85 28q-115 0 -227 -113l-33 39q121 193 332 193q103 0 161 -47
t58 -135q0 -89 -76 -149t-180 -87q102 -13 160 -71t59 -152zM516 714q0 -30 35 -41t139 -18l-12 -67h-555l14 67q113 7 155 23t54 74l115 548h-203l14 70l68 8q102 12 162 44t121 110h61l-160 -754q-8 -34 -8 -64zM389 0l1256 1518h122l-1255 -1518h-123z" />
    <glyph glyph-name="uni2154" unicode="&#x2154;" horiz-adv-x="2011" 
d="M1450 -158q-147 0 -222 56t-75 139q0 84 82 119h96q-14 -48 -14 -106t35 -99q34 -41 112 -41t133 60t55 152t-45 138q-46 45 -120 45q-33 0 -78 -6l-10 47q131 43 207 96t75 133q0 47 -29 75q-30 28 -85 28q-115 0 -228 -113l-32 39q121 193 331 193q104 0 162 -47
t58 -135q0 -89 -76 -149t-180 -87q102 -13 160 -71t59 -152q0 -152 -112 -233t-259 -81zM444 0l1256 1518h123l-1256 -1518h-123zM524 741q88 0 129 25t109 117h55l-108 -295h-607l13 55q243 201 357 313t146 178q33 65 33 135t-37 108t-104 38q-115 0 -238 -135l-32 45
q51 86 143 146q92 61 202 61q111 0 175 -62t63 -165q0 -63 -18 -115q-17 -52 -71 -110t-94 -93t-144 -116t-160 -130h188z" />
    <glyph glyph-name="uni215B" unicode="&#x215b;" horiz-adv-x="2013" 
d="M389 0l1256 1518h122l-1255 -1518h-123zM1718 573q0 63 -39 107t-111 43q-72 0 -112 -39q-41 -39 -41 -114t84 -124l90 -53q129 74 129 180zM1286 88q0 -76 48 -123t129 -47t132 44t51 132t-87 142l-117 67q-156 -70 -156 -215zM1802 130q0 -134 -94 -211t-244 -77
t-238 69q-89 69 -89 168t75 161q76 61 187 88q-59 31 -95 88t-36 125q0 111 86 185t221 73q135 0 210 -64t75 -162q-8 -158 -234 -204q176 -105 176 -239zM516 714q0 -30 35 -41t139 -18l-12 -67h-555l14 67q113 7 155 23t54 74l115 548h-203l14 70l68 8q102 12 162 44
t121 110h61l-160 -754q-8 -34 -8 -64z" />
    <glyph glyph-name="uni215C" unicode="&#x215c;" horiz-adv-x="2017" 
d="M1722 573q0 63 -39 107t-111 43q-72 0 -112 -39q-41 -39 -41 -114t84 -124l90 -53q129 74 129 180zM1290 88q0 -76 48 -123t129 -47t132 44t51 132t-87 142l-117 67q-156 -70 -156 -215zM1806 130q0 -134 -94 -211t-244 -77t-238 69q-89 69 -89 168t76 161t186 88
q-59 31 -95 88t-36 125q0 111 86 185t221 73q135 0 210 -64t75 -162q-8 -158 -234 -204q176 -105 176 -239zM389 0l1256 1518h122l-1255 -1518h-123zM780 883q0 -152 -112 -233t-258 -81q-146 -1 -222 55t-76 140t83 119h96q-39 -136 20 -205q35 -41 113 -41t133 60
q55 61 55 153t-46 137t-120 45q-33 0 -77 -6l-11 47q131 43 207 96t76 134q0 47 -30 75t-85 27q-115 0 -227 -113l-33 39q121 193 332 193q104 0 162 -47t57 -135q0 -88 -76 -148t-180 -88q103 -14 161 -72t58 -151z" />
    <glyph glyph-name="uni215D" unicode="&#x215d;" horiz-adv-x="2002" 
d="M375 0l1255 1518h123l-1255 -1518h-123zM1708 573q0 63 -39 107t-111 43q-72 0 -112 -39t-41 -114q0 -75 84 -124l90 -53q129 74 129 180zM1276 88q0 -76 48 -123t129 -47t132 44t51 132t-88 142l-116 67q-156 -70 -156 -215zM1792 130q0 -134 -94 -211t-244 -77t-239 69
t-89 168t76 161t187 88q-59 31 -96 88q-36 57 -36 125q0 111 86 185q85 74 221 73q136 0 210 -64t75 -162q-8 -158 -233 -204q176 -105 176 -239zM768 896q0 -146 -103 -237q-103 -92 -251 -92q-148 -1 -220 53t-71 138q0 84 84 125h88q-47 -144 17 -208q38 -38 117 -38
t129 55t50 150q0 213 -356 213l154 452h440l-60 -159h-362l-53 -158q173 -2 285 -75t112 -219z" />
    <glyph glyph-name="uni215E" unicode="&#x215e;" horiz-adv-x="1812" 
d="M184 0l1256 1518h123l-1256 -1518h-123zM1518 573q0 63 -39 107t-111 43q-72 0 -113 -39t-41 -114t84 -124l91 -53q129 74 129 180zM1085 88q1 -76 49 -123t129 -47t132 44t51 132t-88 142l-117 67q-156 -70 -156 -215zM1264 -158q-150 0 -239 69t-89 168t76 161t186 88
q-59 31 -95 88t-36 125q0 111 86 185t221 73q135 0 210 -64t75 -162q-8 -158 -234 -204q177 -105 177 -239t-94 -211t-244 -77zM418 1331q-43 1 -76 -29t-74 -102h-61l115 307h610l-10 -51l-582 -868h-139l544 743h-327z" />
    <glyph glyph-name="partialdiff" unicode="&#x2202;" horiz-adv-x="1069" 
d="M801 732q0 138 -21 249q-50 43 -148 43t-187 -112t-133 -266t-44 -295q0 -142 44 -216t122 -74q106 0 193 112q86 112 130 266q44 155 44 293zM629 1106q72 0 127 -31q-92 285 -422 453l45 61q289 -119 451 -344t163 -522q-1 -186 -71 -355t-202 -279
q-132 -109 -293 -109t-256 108t-95 292q0 183 69 346q70 164 200 272t284 108z" />
    <glyph glyph-name="Delta" unicode="&#x2206;" horiz-adv-x="1437" 
d="M831 1204l-692 -1100h924zM1251 0h-1274l15 70l874 1368h97l303 -1368z" />
    <glyph glyph-name="product" unicode="&#x220f;" horiz-adv-x="1552" 
d="M291 -221q0 -59 44 -79t140 -24l-16 -79h-613l17 79q111 4 165 33t72 117l295 1382q6 29 6 47q0 59 -43 79t-141 24l19 80h1454l-19 -80q-113 -4 -167 -33t-72 -117l-295 -1382q-6 -29 -7 -47q0 -59 44 -79t141 -24l-17 -79h-614l16 79q111 4 166 33t74 117l326 1532
h-643l-326 -1532q-6 -27 -6 -47z" />
    <glyph glyph-name="summation" unicode="&#x2211;" horiz-adv-x="1214" 
d="M473 -233q157 1 223 35t191 190h65l-143 -395h-999l14 73l807 871l-447 811l19 86h1003l-73 -342h-56q-27 141 -76 194t-167 53h-437l410 -743l-10 -43l-742 -790h418z" />
    <glyph glyph-name="minus" unicode="&#x2212;" horiz-adv-x="1153" 
d="M139 696l31 127h895l-29 -127h-897z" />
    <glyph glyph-name="radical" unicode="&#x221a;" horiz-adv-x="1185" 
d="M522 289l676 1169h119l-823 -1458h-121l-78 889q-7 63 -23 87t-57 23h-84l19 86h329z" />
    <glyph glyph-name="infinity" unicode="&#x221e;" horiz-adv-x="1624" 
d="M424 379q-127 0 -207 76q-80 77 -80 227t108 258q107 108 275 107q168 0 271 -144l73 -102l105 102q147 143 315 144q127 0 207 -76q80 -77 80 -227t-108 -258q-107 -108 -275 -108t-270 144l-74 103l-105 -103q-147 -143 -315 -143zM1196 498q108 0 175 70t67 192
q0 76 -47 122t-113 46q-117 0 -225 -103l-123 -114l65 -88q93 -125 201 -125zM512 928q-108 0 -175 -71t-67 -191q0 -76 47 -122t113 -46q117 0 225 102l123 115l-65 88q-93 125 -201 125z" />
    <glyph glyph-name="integral" unicode="&#x222b;" horiz-adv-x="851" 
d="M-260 -250q0 76 98 105h39q5 -91 25 -135t67 -44q68 0 102 81t89 341l184 867q104 494 432 493q80 0 128 -39t48 -115t-98 -104h-39q-4 90 -24 134t-68 44q-68 0 -102 -81t-89 -341l-184 -866q-104 -494 -432 -493q-80 1 -128 39t-48 114z" />
    <glyph glyph-name="approxequal" unicode="&#x2248;" horiz-adv-x="1175" 
d="M406 739q78 0 196 -39t197 -38q125 0 262 79l-29 -135q-141 -80 -262 -80q-78 0 -197 39t-196 39q-121 0 -258 -80l28 133q135 82 259 82zM461 1006q75 0 195 -40t198 -40q121 0 264 82l-33 -136q-139 -82 -260 -81q-77 -1 -197 39t-216 40t-238 -82l27 136
q143 82 260 82z" />
    <glyph glyph-name="notequal" unicode="&#x2260;" horiz-adv-x="1175" 
d="M182 838l27 127h530l201 211h141l-200 -211h223l-25 -127h-317l-150 -158h435l-27 -125h-526l-201 -213h-141l200 213h-227l25 125h321l150 158h-439z" />
    <glyph glyph-name="lessequal" unicode="&#x2264;" horiz-adv-x="886" 
d="M39 295l27 125h636l-28 -125h-635zM150 817l4 19l710 340l-35 -150l-432 -203l348 -205l-30 -141z" />
    <glyph glyph-name="greaterequal" unicode="&#x2265;" horiz-adv-x="886" 
d="M827 836l-4 -19l-708 -340l32 152l433 202l-347 203l31 142zM741 420l-28 -125h-635l26 125h637z" />
    <glyph glyph-name="lozenge" unicode="&#x25ca;" horiz-adv-x="1243" 
d="M985 719l-213 612l-473 -612l213 -613zM143 719l566 719h174l258 -719l-563 -719h-175z" />
    <glyph glyph-name="Tcedilla.sc" horiz-adv-x="1241" 
d="M479 -106q63 0 97 -35t34 -97q0 -100 -80 -166t-223 -67l15 68q154 0 172 90h-95q-67 15 -67 77t42 96t105 34zM651 164q0 -48 40 -66t132 -20l-16 -78h-582l15 78q100 2 152 26t69 99l203 932h-111q-115 1 -170 -49t-182 -238h-66l109 373h1071l-53 -373h-66
q-43 188 -78 237t-149 50h-113l-197 -906q-8 -41 -8 -65z" />
    <glyph glyph-name="i.dot" horiz-adv-x="684" 
d="M645 1394q0 -56 -42 -100t-99 -43q-57 0 -94 38t-37 94q0 55 42 99t99 44t94 -38t37 -94zM268 -20q-68 0 -104 38q-35 38 -35 96q0 60 29 181l157 635l-155 63l12 43l322 70h51l-213 -868q-18 -70 -18 -96t28 -25q66 0 190 153l41 -43q-93 -137 -165 -192t-140 -55z" />
    <glyph glyph-name="space_uni0326" horiz-adv-x="1024" 
d="M385 -236q0 62 42 96q41 34 105 34t98 -35t34 -97q0 -100 -80 -166t-224 -67l15 68q154 0 172 90h-94q-68 15 -68 77z" />
    <glyph glyph-name="space_uni0326.alt" horiz-adv-x="1024" 
d="M639 1374q0 -62 -42 -97q-41 -34 -105 -34t-98 35t-34 96q0 100 80 167t224 67l-15 -68q-154 0 -172 -90h94q68 -14 68 -76z" />
    <glyph glyph-name="space_dotbelowcomb" horiz-adv-x="1024" 
d="M375 -249q0 56 42 99q42 44 99 44t94 -38t37 -94t-42 -100q-42 -43 -99 -43t-94 38t-37 94z" />
    <glyph glyph-name="A.sc" horiz-adv-x="1308" 
d="M721 995l-326 -512h432zM887 170q0 36 -8 70l-35 161h-500l-113 -178q-66 -108 1 -131q36 -12 114 -14l-14 -78h-406l17 78q88 10 120 63l623 975l-29 119h199l240 -1094q6 -33 28 -45t66 -18l-12 -78h-484l15 78q57 2 91 7t60 27t27 58z" />
    <glyph glyph-name="B.sc" horiz-adv-x="1249" 
d="M788 1221q383 -1 383 -275q-1 -140 -115 -226t-265 -91q147 -12 232 -79t85 -183q0 -171 -144 -269t-378 -98h-606l18 78q94 2 140 26t63 99l172 792q8 39 8 76t-34 53t-120 19l17 78h544zM731 1133h-137l-100 -465h112q168 0 267 68t100 212q0 185 -242 185zM629 582
h-154l-80 -367q-8 -41 -8 -55q0 -42 37 -58t119 -16h30q158 0 247 72t89 211q1 213 -280 213z" />
    <glyph glyph-name="C.sc" horiz-adv-x="1216" 
d="M594 -20q-224 0 -358 131t-134 356q0 317 211 545t518 229q240 0 379 -113l-55 -262h-74q-20 283 -258 283q-229 0 -371 -209t-143 -473q0 -187 82 -289t221 -102t227 74q87 74 175 247h88l-84 -303q-200 -114 -424 -114z" />
    <glyph glyph-name="D.sc" horiz-adv-x="1361" 
d="M737 1221q287 -1 426 -135t140 -359q-1 -319 -217 -523t-564 -204h-542l18 78q94 2 140 26t63 99l172 792q8 39 8 76t-34 53t-120 19l17 78h493zM711 1133h-117l-195 -895q-8 -41 -8 -79q0 -39 27 -55t90 -16h35q245 0 399 178t154 461q0 406 -385 406z" />
    <glyph glyph-name="E.sc" horiz-adv-x="1220" 
d="M381 1071q0 37 -34 53t-120 19l17 78h991l-64 -297h-59q-25 125 -58 167q-34 42 -136 42h-324l-100 -463h264q57 0 94 36t70 117h67l-86 -395h-65q0 84 -20 119t-79 35h-264l-76 -349q-8 -39 -8 -75t34 -54q34 -16 120 -16h123q114 0 184 46t188 188h64l-121 -322h-1003
l18 78q94 2 140 26t63 99l172 792q8 39 8 76z" />
    <glyph glyph-name="F.sc" horiz-adv-x="1122" 
d="M713 647q59 0 96 36t68 116h67l-84 -393h-67q-1 82 -21 118t-78 35h-225l-70 -323q-10 -61 -10 -70q0 -54 47 -70t158 -20l-14 -76h-600l18 78q94 2 140 26t63 99l172 792q8 39 8 76t-34 53t-120 19l17 78h954l-68 -308h-59q-14 68 -23 100q-10 33 -30 65t-53 43t-86 12
h-283l-107 -486h224z" />
    <glyph glyph-name="G.sc" horiz-adv-x="1329" 
d="M102 469q0 313 218 543t528 229q238 0 377 -113l-56 -262h-73q-20 283 -260 283q-156 0 -279 -103q-123 -104 -185 -258t-62 -330t87 -280q87 -102 225 -102t244 57l60 229q10 47 10 62q0 49 -35 65t-123 21l17 78h516l-19 -78q-92 -4 -127 -27t-55 -98l-70 -281
q-211 -124 -434 -124q-224 0 -364 129t-140 360z" />
    <glyph glyph-name="H.sc" horiz-adv-x="1536" 
d="M389 150q0 -36 34 -54q34 -16 120 -18l-17 -78h-546l18 78q94 2 140 26t63 99l172 792q8 39 8 76t-34 53t-120 19l17 78h547l-19 -78q-94 -2 -140 -27t-63 -98l-75 -348h626l72 325q8 39 8 76t-34 53t-119 19l16 78h547l-19 -78q-94 -2 -140 -27t-62 -98l-172 -793
q-9 -39 -9 -75t34 -54q34 -16 120 -18l-16 -78h-547l18 78q95 2 141 26t62 99l82 379h-627l-78 -357q-8 -39 -8 -75z" />
    <glyph glyph-name="I.sc" horiz-adv-x="716" 
d="M381 1071q0 37 -34 53t-120 19l17 78h547l-19 -78q-94 -2 -140 -27t-63 -98l-172 -793q-8 -39 -8 -75t34 -54q34 -16 120 -18l-17 -78h-546l18 78q94 2 140 26t63 99l172 792q8 39 8 76z" />
    <glyph glyph-name="J.sc" horiz-adv-x="946" 
d="M657 1071q0 37 -33 53q-34 16 -120 19l16 78h547l-18 -78q-95 -2 -141 -27t-62 -98l-148 -678q-78 -360 -434 -360q-143 0 -220 60t-77 154t76 138h143q-26 -66 -26 -130q1 -139 134 -139q153 0 206 244l149 688q8 39 8 76z" />
    <glyph glyph-name="K.sc" horiz-adv-x="1316" 
d="M381 1071q0 37 -34 53t-120 19l17 78h547l-19 -78q-94 -2 -140 -27t-63 -98l-172 -793q-8 -39 -8 -75t34 -54q34 -16 120 -18l-17 -78h-546l18 78q94 2 140 26t63 99l172 792q8 39 8 76zM1069 1099q0 26 -25 34t-102 10l16 78h449l-16 -78q-59 -2 -103 -24t-108 -72
l-482 -385l283 -447q51 -82 99 -109t130 -28l-14 -78h-274q-68 57 -160 207l-258 416l504 403q61 47 61 73z" />
    <glyph glyph-name="L.sc" horiz-adv-x="1138" 
d="M381 1071q0 37 -34 53t-120 19l17 78h547l-19 -78q-94 -2 -140 -27t-63 -98l-170 -785q-10 -45 -10 -65q0 -44 36 -62t118 -18h82q111 0 181 55t189 211h72l-133 -354h-954l18 78q94 2 140 26t63 99l172 792q8 39 8 76z" />
    <glyph glyph-name="M.sc" horiz-adv-x="1726" 
d="M248 154q0 -40 34 -56t115 -20l-14 -78h-438l16 78q78 2 114 24t58 80l328 854q0 61 -26 83t-107 24l16 78h338q0 -66 6 -101l141 -831l502 831q41 78 49 101h340l-18 -78q-88 -2 -125 -30t-51 -97l-64 -834q-4 -59 24 -81t105 -23l-14 -78h-514l14 78q95 4 145 34
t56 119l51 705l-567 -936h-64l-168 942l-268 -706q-14 -43 -14 -82z" />
    <glyph glyph-name="N.sc" horiz-adv-x="1437" 
d="M1208 1068q0 40 -33 56q-34 16 -120 19l14 78h469l-18 -78q-94 -2 -140 -27t-63 -98l-219 -1018h-82l-543 948l-156 -723q-8 -33 -8 -73t34 -56t120 -18l-14 -78h-469l18 78q94 2 140 26t63 99l184 844q-41 61 -69 77t-91 19l19 78h295l510 -916l151 690q8 33 8 73z" />
    <glyph glyph-name="O.sc" horiz-adv-x="1308" 
d="M1249 743q-1 -309 -197 -536t-479 -227q-223 0 -347 138t-124 359q0 309 197 537t479 227q223 -1 347 -139t124 -359zM309 473q0 -178 68 -286t201 -107q204 0 334 205t130 463q0 178 -68 286t-200 107q-203 0 -334 -205t-131 -463z" />
    <glyph glyph-name="P.sc" horiz-adv-x="1150" 
d="M600 578q176 0 277 80q100 81 100 241q0 233 -264 234h-119l-121 -555h127zM381 1071q0 37 -34 53t-120 19l17 78h526q205 0 306 -87t102 -231q0 -195 -159 -303t-415 -108h-149l-56 -256q-10 -61 -10 -70q0 -54 47 -70t158 -20l-14 -76h-600l18 78q94 2 140 26t63 99
l172 792q8 39 8 76z" />
    <glyph glyph-name="Q.sc" horiz-adv-x="1308" 
d="M309 473q0 -178 68 -286t201 -107q204 0 334 205t130 463q0 178 -68 286t-200 107q-203 0 -334 -205t-131 -463zM1249 743q-1 -279 -161 -493t-404 -260l61 -82q57 -78 107 -114t121 -42l-6 -39q-66 -31 -152 -31t-142 40t-100 126l-67 136q-193 20 -298 154t-106 339
q0 309 197 537t479 227q223 -1 347 -139t124 -359z" />
    <glyph glyph-name="R.sc" horiz-adv-x="1261" 
d="M760 1221q393 0 393 -303q0 -152 -119 -250t-297 -117l195 -318q55 -91 97 -123t124 -32l-16 -78h-254q-63 57 -148 203l-182 325h-90l-66 -303q-8 -39 -8 -75t34 -54q34 -16 120 -18l-17 -78h-546l18 78q94 2 140 26t63 99l172 792q8 39 8 76t-34 53t-120 19l17 78h516z
M682 1133h-88l-113 -521h80q178 0 284 77q105 77 105 229q0 215 -268 215z" />
    <glyph glyph-name="S.sc" horiz-adv-x="1032" 
d="M478 -20q-156 0 -266 47t-169 108l47 285h74q8 -168 86 -258t200 -90t192 54t69 148q1 94 -53 152q-54 57 -187 127t-196 150q-62 81 -62 190q0 160 112 254t279 94q227 0 379 -127l-51 -254h-68q-4 135 -70 212q-67 77 -183 77t-172 -53q-56 -54 -56 -138t45 -135
q46 -51 178 -119t210 -150q78 -83 77 -204q0 -174 -130 -272q-129 -98 -285 -98z" />
    <glyph glyph-name="T.sc" horiz-adv-x="1241" 
d="M651 164q0 -48 40 -66t132 -20l-16 -78h-582l15 78q100 2 152 26t69 99l203 932h-111q-115 1 -170 -49t-182 -238h-66l109 373h1071l-53 -373h-66q-43 188 -78 237t-149 50h-113l-197 -906q-8 -41 -8 -65z" />
    <glyph glyph-name="U.sc" horiz-adv-x="1386" 
d="M629 -20q-199 0 -313 100t-113 274q0 51 16 129l109 512q8 39 8 76t-34 53t-120 19l17 78h546l-18 -78q-94 -2 -140 -27t-63 -98l-118 -547q-12 -55 -13 -106q0 -121 69 -194t211 -73t237 79t134 259l121 559q26 105 -25 129q-34 16 -120 19l14 78h469l-18 -78
q-94 -2 -140 -27t-63 -98l-133 -619q-45 -209 -183 -314t-337 -105z" />
    <glyph glyph-name="V.sc" horiz-adv-x="1288" 
d="M1141 1077q0 61 -150 66l17 78h411l-18 -78q-88 -10 -123 -64l-709 -1093h-61l-240 1093q-6 33 -28 45q-23 12 -66 19l16 78h486l-17 -78q-57 -2 -90 -8t-61 -29q-28 -24 -29 -50q0 -26 4 -59l148 -741l479 741q31 49 31 80z" />
    <glyph glyph-name="W.sc" horiz-adv-x="1773" 
d="M1630 1085q0 55 -145 58l16 78h404l-19 -78q-92 -12 -123 -64l-659 -1093h-64l-86 737l-450 -737h-62l-174 1093q-8 53 -94 64l16 78h474l-17 -78q-61 -2 -93 -7t-58 -29t-27 -61q0 -37 4 -61l105 -717l356 588l-33 223q-4 43 -47 56q-16 4 -45 8l16 78h459l-16 -78
q-88 -4 -122 -16q-34 -13 -49 -39t-5 -97l77 -721l428 721q33 57 33 94z" />
    <glyph glyph-name="X.sc" horiz-adv-x="1286" 
d="M1186 1061l-420 -414l262 -487q43 -82 137 -82l-14 -78h-500l15 78q50 0 78 2t55 16t27 42t-29 81l-170 318l-310 -314q-67 -69 -67 -97t31 -38t110 -10l-14 -78h-447l17 78q53 0 90 17t86 65l461 461l-240 440q-47 82 -139 82l18 78h504l-16 -78q-82 0 -121 -11
q-39 -10 -40 -42t28 -89l145 -272l270 268q63 59 66 99q0 47 -141 47l18 78h442l-16 -78q-53 1 -90 -17t-86 -65z" />
    <glyph glyph-name="Y.sc" horiz-adv-x="1218" 
d="M631 164q0 -48 42 -66t132 -20l-17 -78h-571l16 78q98 2 151 26q52 25 69 99l61 280l-246 596q-23 55 -94 64l16 78h482l-17 -78q-86 -1 -130 -15q-76 -25 -27 -135l161 -411l359 411q49 55 49 88t-31 46t-112 16l16 78h410l-17 -78q-76 -8 -123 -64l-512 -594l-57 -262
q-10 -41 -10 -59z" />
    <glyph glyph-name="Z.sc" horiz-adv-x="1120" 
d="M600 90q111 0 173 51t185 215h70l-135 -356h-930l10 51l940 1077h-331q-102 0 -154 -44t-152 -193h-63l72 330h901l-10 -54l-943 -1077h367z" />
    <glyph glyph-name="Aacute.sc" horiz-adv-x="1308" 
d="M948 1671h279l-396 -346h-92zM721 995l-326 -512h432zM887 170q0 36 -8 70l-35 161h-500l-113 -178q-66 -108 1 -131q36 -12 114 -14l-14 -78h-406l17 78q88 10 120 63l623 975l-29 119h199l240 -1094q6 -33 28 -45t66 -18l-12 -78h-484l15 78q57 2 91 7t60 27t27 58z
" />
    <glyph glyph-name="Abreve.sc" horiz-adv-x="1308" 
d="M799 1327q-231 0 -232 248q0 43 13 96h73q-2 -12 -2 -35q0 -174 178 -174t246 209h80q-33 -164 -126 -254t-230 -90zM721 995l-326 -512h432zM887 170q0 36 -8 70l-35 161h-500l-113 -178q-66 -108 1 -131q36 -12 114 -14l-14 -78h-406l17 78q88 10 120 63l623 975
l-29 119h199l240 -1094q6 -33 28 -45t66 -18l-12 -78h-484l15 78q57 2 91 7t60 27t27 58z" />
    <glyph glyph-name="Acircumflex.sc" horiz-adv-x="1308" 
d="M930 1671l196 -346h-92l-198 205l-326 -205h-96l364 346h152zM721 995l-326 -512h432zM887 170q0 36 -8 70l-35 161h-500l-113 -178q-66 -108 1 -131q36 -12 114 -14l-14 -78h-406l17 78q88 10 120 63l623 975l-29 119h199l240 -1094q6 -33 28 -45t66 -18l-12 -78h-484
l15 78q57 2 91 7t60 27t27 58z" />
    <glyph glyph-name="Adieresis.sc" horiz-adv-x="1308" 
d="M1017 1372q-52 0 -86 34t-34 86t38 91t90 39t86 -34t34 -86t-38 -91t-90 -39zM636 1372q-52 0 -86 34t-34 86t38 91t90 39t86 -34t34 -86t-38 -91t-90 -39zM721 995l-326 -512h432zM887 170q0 36 -8 70l-35 161h-500l-113 -178q-66 -108 1 -131q36 -12 114 -14l-14 -78
h-406l17 78q88 10 120 63l623 975l-29 119h199l240 -1094q6 -33 28 -45t66 -18l-12 -78h-484l15 78q57 2 91 7t60 27t27 58z" />
    <glyph glyph-name="Agrave.sc" horiz-adv-x="1308" 
d="M479 1671h254l129 -346h-84zM721 995l-326 -512h432zM887 170q0 36 -8 70l-35 161h-500l-113 -178q-66 -108 1 -131q36 -12 114 -14l-14 -78h-406l17 78q88 10 120 63l623 975l-29 119h199l240 -1094q6 -33 28 -45t66 -18l-12 -78h-484l15 78q57 2 91 7t60 27t27 58z" />
    <glyph glyph-name="Amacron.sc" horiz-adv-x="1308" 
d="M539 1389l26 118h537l-27 -118h-536zM721 995l-326 -512h432zM887 170q0 36 -8 70l-35 161h-500l-113 -178q-66 -108 1 -131q36 -12 114 -14l-14 -78h-406l17 78q88 10 120 63l623 975l-29 119h199l240 -1094q6 -33 28 -45t66 -18l-12 -78h-484l15 78q57 2 91 7t60 27
t27 58z" />
    <glyph glyph-name="Aogonek.sc" horiz-adv-x="1308" 
d="M721 995l-326 -512h432zM520 -244q0 -74 90 -73q66 0 201 96l27 -39q-156 -170 -295 -170q-74 0 -118 38t-44 111q0 186 274 301q35 14 84 32t90 37q41 18 50 38q8 20 8 49t-8 64l-35 161h-500l-113 -178q-66 -108 1 -131q36 -12 114 -14l-14 -78h-406l17 78
q88 10 120 63l623 975l-29 119h199l240 -1094q6 -33 28 -45t66 -18l-12 -78h-408q-250 -111 -250 -244z" />
    <glyph glyph-name="Aring.sc" horiz-adv-x="1308" 
d="M934 1517q0 97 -96 97q-48 0 -78 -38q-31 -38 -31 -86q0 -97 95 -97q48 0 79 38t31 86zM721 995l-326 -512h432zM1020 1517q0 -81 -60 -141t-144 -59q-83 0 -128 46t-45 127t60 140q59 60 143 60t129 -46t45 -127zM887 170q0 36 -8 70l-35 161h-500l-113 -178
q-66 -108 1 -131q36 -12 114 -14l-14 -78h-406l17 78q88 10 120 63l623 975l-29 119h199l240 -1094q6 -33 28 -45t66 -18l-12 -78h-484l15 78q57 2 91 7t60 27t27 58z" />
    <glyph glyph-name="Aringacute.sc" horiz-adv-x="1308" 
d="M727 1454q0 -90 96 -90q47 0 78 31t31 74t-25 67t-71 23q-46 0 -78 -31q-31 -31 -31 -74zM991 1888h271l-316 -209h-84zM1018 1468q0 -72 -60 -122t-142 -50q-83 0 -129 43t-46 115t59 122q58 50 142 50t130 -43t46 -115zM721 995l-326 -512h432zM887 170q0 36 -8 70
l-35 161h-500l-113 -178q-66 -108 1 -131q36 -12 114 -14l-14 -78h-406l17 78q88 10 120 63l623 975l-29 119h199l240 -1094q6 -33 28 -45t66 -18l-12 -78h-484l15 78q57 2 91 7t60 27t27 58z" />
    <glyph glyph-name="Atilde.sc" horiz-adv-x="1308" 
d="M952 1364q-70 0 -154 74t-124 74q-41 0 -68 -28q-27 -26 -69 -100l-76 21q76 147 129 197t123 49q69 0 153 -74t125 -74q41 1 67 27t72 100l74 -20q-76 -146 -129 -196t-123 -50zM721 995l-326 -512h432zM887 170q0 36 -8 70l-35 161h-500l-113 -178q-66 -108 1 -131
q36 -12 114 -14l-14 -78h-406l17 78q88 10 120 63l623 975l-29 119h199l240 -1094q6 -33 28 -45t66 -18l-12 -78h-484l15 78q57 2 91 7t60 27t27 58z" />
    <glyph glyph-name="AE.sc" horiz-adv-x="1880" 
d="M1049 1073l-512 -553h391zM1417 670q57 0 94 36t70 117h68l-86 -395h-68q0 84 -20 119t-76 35h-264l-76 -349q-8 -39 -8 -75t33 -54q34 -16 120 -16h121q113 0 185 46t190 188h63l-123 -322h-1001l16 78q96 2 142 26q45 25 61 99l51 233h-450l-193 -209q-39 -41 -39 -82
t36 -53t114 -14l-15 -78h-436l17 78q67 8 120 63l885 955q-23 49 -147 49l14 78h1079l-65 -299h-57q-23 111 -49 150q-27 40 -60 50t-86 11h-324l-100 -465h264z" />
    <glyph glyph-name="AEacute.sc" horiz-adv-x="1880" 
d="M1430 1671h278l-395 -346h-92zM1049 1073l-512 -553h391zM1417 670q57 0 94 36t70 117h68l-86 -395h-68q0 84 -20 119t-76 35h-264l-76 -349q-8 -39 -8 -75t33 -54q34 -16 120 -16h121q113 0 185 46t190 188h63l-123 -322h-1001l16 78q96 2 142 26q45 25 61 99l51 233
h-450l-193 -209q-39 -41 -39 -82t36 -53t114 -14l-15 -78h-436l17 78q67 8 120 63l885 955q-23 49 -147 49l14 78h1079l-65 -299h-57q-23 111 -49 150q-27 40 -60 50t-86 11h-324l-100 -465h264z" />
    <glyph glyph-name="Cacute.sc" horiz-adv-x="1216" 
d="M1042 1671h279l-395 -346h-92zM594 -20q-224 0 -358 131t-134 356q0 317 211 545t518 229q240 0 379 -113l-55 -262h-74q-20 283 -258 283q-229 0 -371 -209t-143 -473q0 -187 82 -289t221 -102t227 74q87 74 175 247h88l-84 -303q-200 -114 -424 -114z" />
    <glyph glyph-name="Ccaron.sc" horiz-adv-x="1216" 
d="M815 1329l-197 346h93l198 -205l326 205h96l-364 -346h-152zM594 -20q-224 0 -358 131t-134 356q0 317 211 545t518 229q240 0 379 -113l-55 -262h-74q-20 283 -258 283q-229 0 -371 -209t-143 -473q0 -187 82 -289t221 -102t227 74q87 74 175 247h88l-84 -303
q-200 -114 -424 -114z" />
    <glyph glyph-name="Ccedilla.sc" horiz-adv-x="1216" 
d="M610 -285q0 80 -182 86l100 183q-202 20 -314 148t-112 335q0 317 211 545t518 229q240 0 379 -113l-55 -262h-74q-20 283 -258 283q-229 0 -371 -209t-143 -473q0 -187 82 -289t221 -102t227 74q87 74 175 247h88l-84 -303q-201 -115 -410 -114h-16l-41 -78
q207 -4 207 -131q0 -111 -112 -167t-284 -57l-6 68q254 0 254 100z" />
    <glyph glyph-name="Ccircumflex.sc" horiz-adv-x="1216" 
d="M1024 1671l197 -346h-93l-198 205l-326 -205h-96l364 346h152zM594 -20q-224 0 -358 131t-134 356q0 317 211 545t518 229q240 0 379 -113l-55 -262h-74q-20 283 -258 283q-229 0 -371 -209t-143 -473q0 -187 82 -289t221 -102t227 74q87 74 175 247h88l-84 -303
q-200 -114 -424 -114z" />
    <glyph glyph-name="Cdotaccent.sc" horiz-adv-x="1216" 
d="M920 1364q-57 0 -95 38q-37 38 -37 94t42 99t100 43t94 -38q37 -38 37 -94t-42 -99t-99 -43zM594 -20q-224 0 -358 131t-134 356q0 317 211 545t518 229q240 0 379 -113l-55 -262h-74q-20 283 -258 283q-229 0 -371 -209t-143 -473q0 -187 82 -289t221 -102t227 74
q87 74 175 247h88l-84 -303q-200 -114 -424 -114z" />
    <glyph glyph-name="Dcaron.sc" horiz-adv-x="1361" 
d="M723 1329l-197 346h92l199 -205l326 205h96l-365 -346h-151zM737 1221q287 -1 426 -135t140 -359q-1 -319 -217 -523t-564 -204h-542l18 78q94 2 140 26t63 99l172 792q8 39 8 76t-34 53t-120 19l17 78h493zM711 1133h-117l-195 -895q-8 -41 -8 -79q0 -39 27 -55t90 -16
h35q245 0 399 178t154 461q0 406 -385 406z" />
    <glyph glyph-name="Dcroat.sc" horiz-adv-x="1361" 
d="M711 1133h-117l-102 -463h299l-19 -86h-299l-74 -346q-8 -41 -8 -79q0 -39 27 -55t90 -16h35q245 0 399 178t154 461q0 406 -385 406zM737 1221q287 -1 426 -135t140 -359q-1 -319 -217 -523t-564 -204h-542l18 78q94 2 140 26t63 99l82 381h-166l18 86h166l72 325
q8 39 8 76t-34 53t-120 19l17 78h493z" />
    <glyph glyph-name="Eacute.sc" horiz-adv-x="1220" 
d="M963 1671h278l-395 -346h-92zM381 1071q0 37 -34 53t-120 19l17 78h991l-64 -297h-59q-25 125 -58 167q-34 42 -136 42h-324l-100 -463h264q57 0 94 36t70 117h67l-86 -395h-65q0 84 -20 119t-79 35h-264l-76 -349q-8 -39 -8 -75t34 -54q34 -16 120 -16h123q114 0 184 46
t188 188h64l-121 -322h-1003l18 78q94 2 140 26t63 99l172 792q8 39 8 76z" />
    <glyph glyph-name="Ebreve.sc" horiz-adv-x="1220" 
d="M813 1327q-231 0 -231 248q0 43 12 96h74q-2 -12 -2 -35q0 -174 178 -174t246 209h79q-33 -164 -126 -254t-230 -90zM381 1071q0 37 -34 53t-120 19l17 78h991l-64 -297h-59q-25 125 -58 167q-34 42 -136 42h-324l-100 -463h264q57 0 94 36t70 117h67l-86 -395h-65
q0 84 -20 119t-79 35h-264l-76 -349q-8 -39 -8 -75t34 -54q34 -16 120 -16h123q114 0 184 46t188 188h64l-121 -322h-1003l18 78q94 2 140 26t63 99l172 792q8 39 8 76z" />
    <glyph glyph-name="Ecaron.sc" horiz-adv-x="1220" 
d="M735 1329l-196 346h92l198 -205l326 205h96l-364 -346h-152zM381 1071q0 37 -34 53t-120 19l17 78h991l-64 -297h-59q-25 125 -58 167q-34 42 -136 42h-324l-100 -463h264q57 0 94 36t70 117h67l-86 -395h-65q0 84 -20 119t-79 35h-264l-76 -349q-8 -39 -8 -75t34 -54
q34 -16 120 -16h123q114 0 184 46t188 188h64l-121 -322h-1003l18 78q94 2 140 26t63 99l172 792q8 39 8 76z" />
    <glyph glyph-name="Ecircumflex.sc" horiz-adv-x="1220" 
d="M944 1671l197 -346h-92l-199 205l-326 -205h-96l365 346h151zM381 1071q0 37 -34 53t-120 19l17 78h991l-64 -297h-59q-25 125 -58 167q-34 42 -136 42h-324l-100 -463h264q57 0 94 36t70 117h67l-86 -395h-65q0 84 -20 119t-79 35h-264l-76 -349q-8 -39 -8 -75t34 -54
q34 -16 120 -16h123q114 0 184 46t188 188h64l-121 -322h-1003l18 78q94 2 140 26t63 99l172 792q8 39 8 76z" />
    <glyph glyph-name="Edieresis.sc" horiz-adv-x="1220" 
d="M1031 1372q-52 0 -86 34t-34 86t38 91t90 39t86 -34t34 -86t-38 -91t-90 -39zM650 1372q-52 0 -86 34t-34 86t38 91t90 39t86 -34t34 -86t-38 -91t-90 -39zM381 1071q0 37 -34 53t-120 19l17 78h991l-64 -297h-59q-25 125 -58 167q-34 42 -136 42h-324l-100 -463h264
q57 0 94 36t70 117h67l-86 -395h-65q0 84 -20 119t-79 35h-264l-76 -349q-8 -39 -8 -75t34 -54q34 -16 120 -16h123q114 0 184 46t188 188h64l-121 -322h-1003l18 78q94 2 140 26t63 99l172 792q8 39 8 76z" />
    <glyph glyph-name="Edotaccent.sc" horiz-adv-x="1220" 
d="M840 1364q-57 0 -95 38q-37 38 -37 94t43 99q42 43 99 43t94 -38t37 -94t-42 -99t-99 -43zM381 1071q0 37 -34 53t-120 19l17 78h991l-64 -297h-59q-25 125 -58 167q-34 42 -136 42h-324l-100 -463h264q57 0 94 36t70 117h67l-86 -395h-65q0 84 -20 119t-79 35h-264
l-76 -349q-8 -39 -8 -75t34 -54q34 -16 120 -16h123q114 0 184 46t188 188h64l-121 -322h-1003l18 78q94 2 140 26t63 99l172 792q8 39 8 76z" />
    <glyph glyph-name="Egrave.sc" horiz-adv-x="1220" 
d="M494 1671h254l129 -346h-84zM381 1071q0 37 -34 53t-120 19l17 78h991l-64 -297h-59q-25 125 -58 167q-34 42 -136 42h-324l-100 -463h264q57 0 94 36t70 117h67l-86 -395h-65q0 84 -20 119t-79 35h-264l-76 -349q-8 -39 -8 -75t34 -54q34 -16 120 -16h123q114 0 184 46
t188 188h64l-121 -322h-1003l18 78q94 2 140 26t63 99l172 792q8 39 8 76z" />
    <glyph glyph-name="Emacron.sc" horiz-adv-x="1220" 
d="M553 1389l27 118h536l-26 -118h-537zM381 1071q0 37 -34 53t-120 19l17 78h991l-64 -297h-59q-25 125 -58 167q-34 42 -136 42h-324l-100 -463h264q57 0 94 36t70 117h67l-86 -395h-65q0 84 -20 119t-79 35h-264l-76 -349q-8 -39 -8 -75t34 -54q34 -16 120 -16h123
q114 0 184 46t188 188h64l-121 -322h-1003l18 78q94 2 140 26t63 99l172 792q8 39 8 76z" />
    <glyph glyph-name="Eogonek.sc" horiz-adv-x="1220" 
d="M381 1071q0 37 -34 53t-120 19l17 78h991l-64 -297h-59q-25 125 -58 167q-34 42 -136 42h-324l-100 -463h264q57 0 94 36t70 117h67l-86 -395h-65q0 84 -20 119t-79 35h-264l-76 -349q-8 -39 -8 -75t34 -54q34 -16 120 -16h123q114 0 184 46t188 188h64l-121 -322h-131
q-116 -60 -184 -118t-68 -126q0 -74 90 -73q66 0 201 96l27 -39q-156 -170 -295 -170q-72 0 -117 37t-45 115q0 145 264 278h-745l18 78q94 2 140 26t63 99l172 792q8 39 8 76z" />
    <glyph glyph-name="Eth.sc" horiz-adv-x="1361" 
d="M711 1133h-117l-102 -463h299l-19 -86h-299l-74 -346q-8 -41 -8 -79q0 -39 27 -55t90 -16h35q245 0 399 178t154 461q0 406 -385 406zM737 1221q287 -1 426 -135t140 -359q-1 -319 -217 -523t-564 -204h-542l18 78q94 2 140 26t63 99l82 381h-166l18 86h166l72 325
q8 39 8 76t-34 53t-120 19l17 78h493z" />
    <glyph glyph-name="Gbreve.sc" horiz-adv-x="1329" 
d="M883 1327q-231 0 -232 248q0 43 13 96h73q-2 -12 -2 -35q0 -174 178 -174t246 209h80q-33 -164 -126 -254t-230 -90zM102 469q0 313 218 543t528 229q238 0 377 -113l-56 -262h-73q-20 283 -260 283q-156 0 -279 -103q-123 -104 -185 -258t-62 -330t87 -280
q87 -102 225 -102t244 57l60 229q10 47 10 62q0 49 -35 65t-123 21l17 78h516l-19 -78q-92 -4 -127 -27t-55 -98l-70 -281q-211 -124 -434 -124q-224 0 -364 129t-140 360z" />
    <glyph glyph-name="Gcircumflex.sc" horiz-adv-x="1329" 
d="M1016 1671l196 -346h-92l-198 205l-326 -205h-96l364 346h152zM102 469q0 313 218 543t528 229q238 0 377 -113l-56 -262h-73q-20 283 -260 283q-156 0 -279 -103q-123 -104 -185 -258t-62 -330t87 -280q87 -102 225 -102t244 57l60 229q10 47 10 62q0 49 -35 65t-123 21
l17 78h516l-19 -78q-92 -4 -127 -27t-55 -98l-70 -281q-211 -124 -434 -124q-224 0 -364 129t-140 360z" />
    <glyph glyph-name="Gcommaaccent.sc" horiz-adv-x="1329" 
d="M555 -106q63 0 97 -35t34 -97q0 -100 -80 -166t-223 -67l14 68q154 0 172 90h-94q-67 15 -67 77t42 96t105 34zM102 469q0 313 218 543t528 229q238 0 377 -113l-56 -262h-73q-20 283 -260 283q-156 0 -279 -103q-123 -104 -185 -258t-62 -330t87 -280q87 -102 225 -102
t244 57l60 229q10 47 10 62q0 49 -35 65t-123 21l17 78h516l-19 -78q-92 -4 -127 -27t-55 -98l-70 -281q-211 -124 -434 -124q-224 0 -364 129t-140 360z" />
    <glyph glyph-name="Gdotaccent.sc" horiz-adv-x="1329" 
d="M922 1638q58 0 94 -38q37 -38 37 -94q-1 -56 -43 -99t-99 -43t-94 38t-37 94t42 99t100 43zM102 469q0 313 218 543t528 229q238 0 377 -113l-56 -262h-73q-20 283 -260 283q-156 0 -279 -103q-123 -104 -185 -258t-62 -330t87 -280q87 -102 225 -102t244 57l60 229
q10 47 10 62q0 49 -35 65t-123 21l17 78h516l-19 -78q-92 -4 -127 -27t-55 -98l-70 -281q-211 -124 -434 -124q-224 0 -364 129t-140 360z" />
    <glyph glyph-name="Hbar.sc" horiz-adv-x="1536" 
d="M526 825l-41 -196h627l43 196h-629zM389 150q0 -36 34 -54q34 -16 120 -18l-17 -78h-546l18 78q94 2 140 26t63 99l135 622h-174l18 86h174l19 84q8 39 8 76t-34 53t-120 19l17 78h547l-19 -78q-94 -2 -140 -27t-63 -98l-24 -107h629l18 84q8 39 8 76t-34 53t-119 19
l16 78h547l-19 -78q-94 -2 -140 -27t-62 -98l-25 -107h182l-18 -86h-182l-129 -600q-9 -39 -9 -75t34 -54q34 -16 120 -18l-16 -78h-547l18 78q95 2 141 26t62 99l74 338h-629l-68 -316q-8 -39 -8 -75z" />
    <glyph glyph-name="Hcircumflex.sc" horiz-adv-x="1536" 
d="M1083 1671l197 -346h-92l-199 205l-325 -205h-97l365 346h151zM389 150q0 -36 34 -54q34 -16 120 -18l-17 -78h-546l18 78q94 2 140 26t63 99l172 792q8 39 8 76t-34 53t-120 19l17 78h547l-19 -78q-94 -2 -140 -27t-63 -98l-75 -348h626l72 325q8 39 8 76t-34 53
t-119 19l16 78h547l-19 -78q-94 -2 -140 -27t-62 -98l-172 -793q-9 -39 -9 -75t34 -54q34 -16 120 -18l-16 -78h-547l18 78q95 2 141 26t62 99l82 379h-627l-78 -357q-8 -39 -8 -75z" />
    <glyph glyph-name="Iacute.sc" horiz-adv-x="716" 
d="M692 1671h279l-396 -346h-92zM381 1071q0 37 -34 53t-120 19l17 78h547l-19 -78q-94 -2 -140 -27t-63 -98l-172 -793q-8 -39 -8 -75t34 -54q34 -16 120 -18l-17 -78h-546l18 78q94 2 140 26t63 99l172 792q8 39 8 76z" />
    <glyph glyph-name="Ibreve.sc" horiz-adv-x="716" 
d="M543 1327q-231 0 -232 248q0 43 13 96h73q-2 -12 -2 -35q0 -174 178 -174t246 209h80q-33 -164 -126 -254t-230 -90zM381 1071q0 37 -34 53t-120 19l17 78h547l-19 -78q-94 -2 -140 -27t-63 -98l-172 -793q-8 -39 -8 -75t34 -54q34 -16 120 -18l-17 -78h-546l18 78
q94 2 140 26t63 99l172 792q8 39 8 76z" />
    <glyph glyph-name="Icircumflex.sc" horiz-adv-x="716" 
d="M674 1671l196 -346h-92l-198 205l-326 -205h-96l364 346h152zM381 1071q0 37 -34 53t-120 19l17 78h547l-19 -78q-94 -2 -140 -27t-63 -98l-172 -793q-8 -39 -8 -75t34 -54q34 -16 120 -18l-17 -78h-546l18 78q94 2 140 26t63 99l172 792q8 39 8 76z" />
    <glyph glyph-name="Idieresis.sc" horiz-adv-x="716" 
d="M761 1372q-52 0 -86 34t-34 86t38 91t90 39t86 -34t34 -86t-38 -91t-90 -39zM380 1372q-52 0 -86 34t-34 86t38 91t90 39t86 -34t34 -86t-38 -91t-90 -39zM381 1071q0 37 -34 53t-120 19l17 78h547l-19 -78q-94 -2 -140 -27t-63 -98l-172 -793q-8 -39 -8 -75t34 -54
q34 -16 120 -18l-17 -78h-546l18 78q94 2 140 26t63 99l172 792q8 39 8 76z" />
    <glyph glyph-name="Idotaccent.sc" horiz-adv-x="716" 
d="M580 1638q58 0 94 -38q37 -38 37 -94q-1 -56 -43 -99t-99 -43t-94 38t-37 94t42 99t100 43zM381 1071q0 37 -34 53t-120 19l17 78h547l-19 -78q-94 -2 -140 -27t-63 -98l-172 -793q-8 -39 -8 -75t34 -54q34 -16 120 -18l-17 -78h-546l18 78q94 2 140 26t63 99l172 792
q8 39 8 76z" />
    <glyph glyph-name="Igrave.sc" horiz-adv-x="716" 
d="M223 1671h254l129 -346h-84zM381 1071q0 37 -34 53t-120 19l17 78h547l-19 -78q-94 -2 -140 -27t-63 -98l-172 -793q-8 -39 -8 -75t34 -54q34 -16 120 -18l-17 -78h-546l18 78q94 2 140 26t63 99l172 792q8 39 8 76z" />
    <glyph glyph-name="Imacron.sc" horiz-adv-x="716" 
d="M283 1389l26 118h537l-27 -118h-536zM381 1071q0 37 -34 53t-120 19l17 78h547l-19 -78q-94 -2 -140 -27t-63 -98l-172 -793q-8 -39 -8 -75t34 -54q34 -16 120 -18l-17 -78h-546l18 78q94 2 140 26t63 99l172 792q8 39 8 76z" />
    <glyph glyph-name="Iogonek.sc" horiz-adv-x="716" 
d="M381 1071q0 37 -34 53t-120 19l17 78h547l-19 -78q-94 -2 -140 -27t-63 -98l-172 -793q-8 -39 -8 -75t34 -54q34 -16 120 -18l-17 -78h-145q-117 -60 -185 -118t-67 -126q0 -74 90 -73q66 0 201 96l26 -39q-156 -170 -294 -170q-72 0 -117 37t-45 115q0 145 264 278h-274
l18 78q94 2 140 26t63 99l172 792q8 39 8 76z" />
    <glyph glyph-name="Itilde.sc" horiz-adv-x="716" 
d="M696 1364q-70 0 -154 74t-124 74q-41 0 -68 -28q-27 -26 -69 -100l-76 21q76 147 129 197t123 49q69 0 153 -74t125 -74q41 1 67 27t72 100l74 -20q-76 -146 -129 -196t-123 -50zM381 1071q0 37 -34 53t-120 19l17 78h547l-19 -78q-94 -2 -140 -27t-63 -98l-172 -793
q-8 -39 -8 -75t34 -54q34 -16 120 -18l-17 -78h-546l18 78q94 2 140 26t63 99l172 792q8 39 8 76z" />
    <glyph glyph-name="IJ.sc" horiz-adv-x="1601" 
d="M815 202q1 -138 135 -139q152 0 205 244l150 688q8 39 8 76t-34 53t-120 19l17 78h546l-18 -78q-94 -2 -140 -27t-63 -98l-147 -678q-78 -360 -434 -360q-143 0 -221 60q-77 60 -77 154t76 138h144q-27 -66 -27 -130zM381 1071q0 37 -34 53t-120 19l17 78h547l-19 -78
q-94 -2 -140 -27t-63 -98l-172 -793q-8 -39 -8 -75t34 -54q34 -16 120 -18l-17 -78h-546l18 78q94 2 140 26t63 99l172 792q8 39 8 76z" />
    <glyph glyph-name="Jcircumflex.sc" horiz-adv-x="946" 
d="M946 1671l197 -346h-92l-199 205l-326 -205h-96l365 346h151zM657 1071q0 37 -33 53q-34 16 -120 19l16 78h547l-18 -78q-95 -2 -141 -27t-62 -98l-148 -678q-78 -360 -434 -360q-143 0 -220 60t-77 154t76 138h143q-26 -66 -26 -130q1 -139 134 -139q153 0 206 244
l149 688q8 39 8 76z" />
    <glyph glyph-name="Kcommaaccent.sc" horiz-adv-x="1316" 
d="M561 -106q63 0 97 -35t34 -97q0 -100 -80 -166t-223 -67l14 68q154 0 172 90h-94q-67 15 -67 77t42 96t105 34zM381 1071q0 37 -34 53t-120 19l17 78h547l-19 -78q-94 -2 -140 -27t-63 -98l-172 -793q-8 -39 -8 -75t34 -54q34 -16 120 -18l-17 -78h-546l18 78
q94 2 140 26t63 99l172 792q8 39 8 76zM1069 1099q0 26 -25 34t-102 10l16 78h449l-16 -78q-59 -2 -103 -24t-108 -72l-482 -385l283 -447q51 -82 99 -109t130 -28l-14 -78h-274q-68 57 -160 207l-258 416l504 403q61 47 61 73z" />
    <glyph glyph-name="Lacute.sc" horiz-adv-x="1138" 
d="M694 1671h279l-395 -346h-93zM381 1071q0 37 -34 53t-120 19l17 78h547l-19 -78q-94 -2 -140 -27t-63 -98l-170 -785q-10 -45 -10 -65q0 -44 36 -62t118 -18h82q111 0 181 55t189 211h72l-133 -354h-954l18 78q94 2 140 26t63 99l172 792q8 39 8 76z" />
    <glyph glyph-name="Lcaron.sc" horiz-adv-x="1138" 
d="M1192 1221l-260 -420h-72l123 420h209zM381 1071q0 37 -34 53t-120 19l17 78h547l-19 -78q-94 -2 -140 -27t-63 -98l-170 -785q-10 -45 -10 -65q0 -44 36 -62t118 -18h82q111 0 181 55t189 211h72l-133 -354h-954l18 78q94 2 140 26t63 99l172 792q8 39 8 76z" />
    <glyph glyph-name="Lcommaaccent.sc" horiz-adv-x="1138" 
d="M299 -236q0 62 42 96q41 34 105 34t98 -35t34 -97q0 -100 -80 -166t-224 -67l15 68q154 0 172 90h-94q-68 15 -68 77zM381 1071q0 37 -34 53t-120 19l17 78h547l-19 -78q-94 -2 -140 -27t-63 -98l-170 -785q-10 -45 -10 -65q0 -44 36 -62t118 -18h82q111 0 181 55
t189 211h72l-133 -354h-954l18 78q94 2 140 26t63 99l172 792q8 39 8 76z" />
    <glyph glyph-name="Ldot.sc" horiz-adv-x="1138" 
d="M928 535q-57 -1 -94 37t-37 94t42 100q42 43 99 43t94 -38t37 -94t-42 -99t-99 -43zM381 1071q0 37 -34 53t-120 19l17 78h547l-19 -78q-94 -2 -140 -27t-63 -98l-170 -785q-10 -45 -10 -65q0 -44 36 -62t118 -18h82q111 0 181 55t189 211h72l-133 -354h-954l18 78
q94 2 140 26t63 99l172 792q8 39 8 76z" />
    <glyph glyph-name="Lslash.sc" horiz-adv-x="1138" 
d="M381 1071q0 37 -34 53t-120 19l17 78h547l-19 -78q-94 -2 -140 -27t-63 -98l-71 -332l303 143l-25 -98l-301 -141l-76 -357q-10 -45 -10 -65q0 -44 36 -62t118 -18h82q111 0 181 55t189 211h72l-133 -354h-954l18 78q94 2 140 26t63 99l63 299l-205 -96l25 98l203 94
l86 397q8 39 8 76z" />
    <glyph glyph-name="Nacute.sc" horiz-adv-x="1437" 
d="M1065 1671h278l-395 -346h-92zM1208 1068q0 40 -33 56q-34 16 -120 19l14 78h469l-18 -78q-94 -2 -140 -27t-63 -98l-219 -1018h-82l-543 948l-156 -723q-8 -33 -8 -73t34 -56t120 -18l-14 -78h-469l18 78q94 2 140 26t63 99l184 844q-41 61 -69 77t-91 19l19 78h295
l510 -916l151 690q8 33 8 73z" />
    <glyph glyph-name="Ncaron.sc" horiz-adv-x="1437" 
d="M840 1329l-197 346h92l199 -205l326 205h96l-365 -346h-151zM1208 1068q0 40 -33 56q-34 16 -120 19l14 78h469l-18 -78q-94 -2 -140 -27t-63 -98l-219 -1018h-82l-543 948l-156 -723q-8 -33 -8 -73t34 -56t120 -18l-14 -78h-469l18 78q94 2 140 26t63 99l184 844
q-41 61 -69 77t-91 19l19 78h295l510 -916l151 690q8 33 8 73z" />
    <glyph glyph-name="Ncommaaccent.sc" horiz-adv-x="1437" 
d="M440 -236q0 62 42 96t106 34t97 -35q34 -35 34 -97q0 -100 -80 -166t-223 -67l14 68q154 0 172 90h-94q-68 15 -68 77zM1208 1068q0 40 -33 56q-34 16 -120 19l14 78h469l-18 -78q-94 -2 -140 -27t-63 -98l-219 -1018h-82l-543 948l-156 -723q-8 -33 -8 -73t34 -56
t120 -18l-14 -78h-469l18 78q94 2 140 26t63 99l184 844q-41 61 -69 77t-91 19l19 78h295l510 -916l151 690q8 33 8 73z" />
    <glyph glyph-name="Ntilde.sc" horiz-adv-x="1437" 
d="M1069 1364q-70 0 -154 74q-85 74 -125 74t-67 -28q-27 -26 -70 -100l-75 21q76 147 129 197t123 49q70 0 154 -74t124 -74q42 1 68 27t71 100l74 -20q-76 -146 -129 -196t-123 -50zM1208 1068q0 40 -33 56q-34 16 -120 19l14 78h469l-18 -78q-94 -2 -140 -27t-63 -98
l-219 -1018h-82l-543 948l-156 -723q-8 -33 -8 -73t34 -56t120 -18l-14 -78h-469l18 78q94 2 140 26t63 99l184 844q-41 61 -69 77t-91 19l19 78h295l510 -916l151 690q8 33 8 73z" />
    <glyph glyph-name="Eng.sc" horiz-adv-x="1435" 
d="M731 -360q-76 0 -123 30t-47 82q0 88 101 111h28q27 -147 101 -148q78 0 135 244l32 141l-485 850l-156 -725q-8 -33 -8 -73t34 -56t120 -18l-14 -78h-469l18 78q94 2 140 26t63 99l184 846q-41 61 -69 77t-91 19l19 78h303l504 -906l149 680q10 41 10 77t-33 52
q-34 16 -122 19l16 78h465l-16 -78q-94 -3 -140 -27t-63 -98l-182 -850q-115 -530 -404 -530z" />
    <glyph glyph-name="Oacute.sc" horiz-adv-x="1308" 
d="M983 1671h279l-396 -346h-92zM1249 743q-1 -309 -197 -536t-479 -227q-223 0 -347 138t-124 359q0 309 197 537t479 227q223 -1 347 -139t124 -359zM309 473q0 -178 68 -286t201 -107q204 0 334 205t130 463q0 178 -68 286t-200 107q-203 0 -334 -205t-131 -463z" />
    <glyph glyph-name="Obreve.sc" horiz-adv-x="1308" 
d="M834 1327q-231 0 -232 248q0 43 12 96h74q-2 -12 -2 -35q0 -174 178 -174t246 209h80q-33 -164 -126 -254t-230 -90zM1249 743q-1 -309 -197 -536t-479 -227q-223 0 -347 138t-124 359q0 309 197 537t479 227q223 -1 347 -139t124 -359zM309 473q0 -178 68 -286t201 -107
q204 0 334 205t130 463q0 178 -68 286t-200 107q-203 0 -334 -205t-131 -463z" />
    <glyph glyph-name="Ocircumflex.sc" horiz-adv-x="1308" 
d="M965 1671l196 -346h-92l-199 205l-325 -205h-96l364 346h152zM1249 743q-1 -309 -197 -536t-479 -227q-223 0 -347 138t-124 359q0 309 197 537t479 227q223 -1 347 -139t124 -359zM309 473q0 -178 68 -286t201 -107q204 0 334 205t130 463q0 178 -68 286t-200 107
q-203 0 -334 -205t-131 -463z" />
    <glyph glyph-name="Odieresis.sc" horiz-adv-x="1308" 
d="M1052 1372q-52 0 -86 34t-34 86t38 91t90 39t86 -34t34 -86t-38 -91t-90 -39zM671 1372q-52 0 -86 34t-34 86t38 91t90 39t86 -34t34 -86t-38 -91t-90 -39zM1249 743q-1 -309 -197 -536t-479 -227q-223 0 -347 138t-124 359q0 309 197 537t479 227q223 -1 347 -139
t124 -359zM309 473q0 -178 68 -286t201 -107q204 0 334 205t130 463q0 178 -68 286t-200 107q-203 0 -334 -205t-131 -463z" />
    <glyph glyph-name="Ograve.sc" horiz-adv-x="1308" 
d="M514 1671h254l129 -346h-84zM1249 743q-1 -309 -197 -536t-479 -227q-223 0 -347 138t-124 359q0 309 197 537t479 227q223 -1 347 -139t124 -359zM309 473q0 -178 68 -286t201 -107q204 0 334 205t130 463q0 178 -68 286t-200 107q-203 0 -334 -205t-131 -463z" />
    <glyph glyph-name="Ohungarumlaut.sc" horiz-adv-x="1308" 
d="M1130 1671h216l-340 -346h-109zM815 1671h215l-340 -346h-108zM1249 743q-1 -309 -197 -536t-479 -227q-223 0 -347 138t-124 359q0 309 197 537t479 227q223 -1 347 -139t124 -359zM309 473q0 -178 68 -286t201 -107q204 0 334 205t130 463q0 178 -68 286t-200 107
q-203 0 -334 -205t-131 -463z" />
    <glyph glyph-name="Omacron.sc" horiz-adv-x="1308" 
d="M573 1389l27 118h537l-27 -118h-537zM1249 743q-1 -309 -197 -536t-479 -227q-223 0 -347 138t-124 359q0 309 197 537t479 227q223 -1 347 -139t124 -359zM309 473q0 -178 68 -286t201 -107q204 0 334 205t130 463q0 178 -68 286t-200 107q-203 0 -334 -205t-131 -463z
" />
    <glyph glyph-name="Oslash.sc" horiz-adv-x="1308" 
d="M774 1141q-203 0 -334 -205t-131 -463q0 -182 66 -283l543 906q-62 45 -144 45zM1042 748q0 182 -65 282l-543 -905q57 -45 144 -45q204 0 334 205t130 463zM778 1241q113 0 203 -39l102 170l74 -41l-100 -168q193 -131 193 -430t-198 -526q-196 -227 -479 -227
q-109 0 -204 36l-105 -174l-74 41l105 174q-193 131 -193 430t196 527t480 227z" />
    <glyph glyph-name="Oslashacute.sc" horiz-adv-x="1308" 
d="M985 1671h279l-396 -346h-92zM774 1141q-203 0 -334 -205t-131 -463q0 -182 66 -283l543 906q-62 45 -144 45zM1042 748q0 182 -65 282l-543 -905q57 -45 144 -45q204 0 334 205t130 463zM778 1241q113 0 203 -39l102 170l74 -41l-100 -168q193 -131 193 -430t-198 -526
q-196 -227 -479 -227q-109 0 -204 36l-105 -174l-74 41l105 174q-193 131 -193 430t196 527t480 227z" />
    <glyph glyph-name="Otilde.sc" horiz-adv-x="1308" 
d="M987 1364q-69 0 -153 74t-125 74t-68 -28q-27 -26 -70 -100l-75 21q76 147 129 197t123 49q70 0 154 -74t124 -74q42 1 68 27t71 100l74 -20q-76 -146 -129 -196t-123 -50zM1249 743q-1 -309 -197 -536t-479 -227q-223 0 -347 138t-124 359q0 309 197 537t479 227
q223 -1 347 -139t124 -359zM309 473q0 -178 68 -286t201 -107q204 0 334 205t130 463q0 178 -68 286t-200 107q-203 0 -334 -205t-131 -463z" />
    <glyph glyph-name="OE.sc" horiz-adv-x="1802" 
d="M866 1135q-238 1 -398 -179t-159 -460q0 -408 385 -408h62l229 1047h-119zM885 1223h932l-64 -299h-59q-23 111 -49 150q-27 40 -60 50t-86 11h-323l-101 -465h264q57 0 95 36q37 36 69 117h68l-86 -395h-68q0 84 -19 119t-77 35h-264l-76 -349q-8 -39 -8 -75t34 -54
q34 -16 119 -16h123q113 0 184 47t189 187h64l-123 -322h-897q-287 0 -425 136t-139 366q0 311 224 516t559 205z" />
    <glyph glyph-name="Racute.sc" horiz-adv-x="1261" 
d="M901 1671h279l-396 -346h-92zM760 1221q393 0 393 -303q0 -152 -119 -250t-297 -117l195 -318q55 -91 97 -123t124 -32l-16 -78h-254q-63 57 -148 203l-182 325h-90l-66 -303q-8 -39 -8 -75t34 -54q34 -16 120 -18l-17 -78h-546l18 78q94 2 140 26t63 99l172 792
q8 39 8 76t-34 53t-120 19l17 78h516zM682 1133h-88l-113 -521h80q178 0 284 77q105 77 105 229q0 215 -268 215z" />
    <glyph glyph-name="Rcaron.sc" horiz-adv-x="1261" 
d="M676 1329l-197 346h92l199 -205l326 205h96l-365 -346h-151zM760 1221q393 0 393 -303q0 -152 -119 -250t-297 -117l195 -318q55 -91 97 -123t124 -32l-16 -78h-254q-63 57 -148 203l-182 325h-90l-66 -303q-8 -39 -8 -75t34 -54q34 -16 120 -18l-17 -78h-546l18 78
q94 2 140 26t63 99l172 792q8 39 8 76t-34 53t-120 19l17 78h516zM682 1133h-88l-113 -521h80q178 0 284 77q105 77 105 229q0 215 -268 215z" />
    <glyph glyph-name="Rcommaaccent.sc" horiz-adv-x="1261" 
d="M526 -106q64 0 98 -35t33 -97q1 -100 -79 -166t-224 -67l15 68q154 0 172 90h-95q-68 15 -68 77t43 96q42 34 105 34zM760 1221q393 0 393 -303q0 -152 -119 -250t-297 -117l195 -318q55 -91 97 -123t124 -32l-16 -78h-254q-63 57 -148 203l-182 325h-90l-66 -303
q-8 -39 -8 -75t34 -54q34 -16 120 -18l-17 -78h-546l18 78q94 2 140 26t63 99l172 792q8 39 8 76t-34 53t-120 19l17 78h516zM682 1133h-88l-113 -521h80q178 0 284 77q105 77 105 229q0 215 -268 215z" />
    <glyph glyph-name="Sacute.sc" horiz-adv-x="1032" 
d="M838 1671h278l-395 -346h-92zM478 -20q-156 0 -266 47t-169 108l47 285h74q8 -168 86 -258t200 -90t192 54t69 148q1 94 -53 152q-54 57 -187 127t-196 150q-62 81 -62 190q0 160 112 254t279 94q227 0 379 -127l-51 -254h-68q-4 135 -70 212q-67 77 -183 77t-172 -53
q-56 -54 -56 -138t45 -135q46 -51 178 -119t210 -150q78 -83 77 -204q0 -174 -130 -272q-129 -98 -285 -98z" />
    <glyph glyph-name="Scaron.sc" horiz-adv-x="1032" 
d="M610 1329l-196 346h92l199 -205l325 205h96l-364 -346h-152zM478 -20q-156 0 -266 47t-169 108l47 285h74q8 -168 86 -258t200 -90t192 54t69 148q1 94 -53 152q-54 57 -187 127t-196 150q-62 81 -62 190q0 160 112 254t279 94q227 0 379 -127l-51 -254h-68
q-4 135 -70 212q-67 77 -183 77t-172 -53q-56 -54 -56 -138t45 -135q46 -51 178 -119t210 -150q78 -83 77 -204q0 -174 -130 -272q-129 -98 -285 -98z" />
    <glyph glyph-name="Scedilla.sc" horiz-adv-x="1032" 
d="M408 -285q0 80 -183 86l105 191q-188 37 -287 143l47 285h74q8 -168 86 -258t200 -90t192 54t69 148q1 94 -53 152q-54 57 -187 127t-196 150q-62 81 -62 190q0 160 112 254t279 94q227 0 379 -127l-51 -254h-68q-4 135 -70 212q-67 77 -183 77t-172 -53
q-56 -54 -56 -138t45 -135q46 -51 178 -119t210 -150q78 -83 77 -204q0 -174 -130 -272t-300 -98q-27 0 -72 4l-43 -82q207 -4 207 -131q1 -111 -111 -167t-284 -57l-6 68q254 0 254 100z" />
    <glyph glyph-name="Scircumflex.sc" horiz-adv-x="1032" 
d="M819 1671l197 -346h-92l-199 205l-326 -205h-96l365 346h151zM478 -20q-156 0 -266 47t-169 108l47 285h74q8 -168 86 -258t200 -90t192 54t69 148q1 94 -53 152q-54 57 -187 127t-196 150q-62 81 -62 190q0 160 112 254t279 94q227 0 379 -127l-51 -254h-68
q-4 135 -70 212q-67 77 -183 77t-172 -53q-56 -54 -56 -138t45 -135q46 -51 178 -119t210 -150q78 -83 77 -204q0 -174 -130 -272q-129 -98 -285 -98z" />
    <glyph glyph-name="Scommaaccent.sc" horiz-adv-x="1032" 
d="M211 -236q0 62 42 96t105 34q64 0 98 -35t33 -97q1 -100 -79 -166t-224 -67l15 68q154 0 172 90h-94q-68 15 -68 77zM478 -20q-156 0 -266 47t-169 108l47 285h74q8 -168 86 -258t200 -90t192 54t69 148q1 94 -53 152q-54 57 -187 127t-196 150q-62 81 -62 190
q0 160 112 254t279 94q227 0 379 -127l-51 -254h-68q-4 135 -70 212q-67 77 -183 77t-172 -53q-56 -54 -56 -138t45 -135q46 -51 178 -119t210 -150q78 -83 77 -204q0 -174 -130 -272q-129 -98 -285 -98z" />
    <glyph glyph-name="Tbar.sc" horiz-adv-x="1241" 
d="M651 164q0 -48 40 -66t132 -20l-16 -78h-582l15 78q100 2 152 26t69 99l82 381h-238l19 86h237l103 465h-111q-115 1 -170 -49t-182 -238h-66l109 373h1071l-53 -373h-66q-43 188 -78 237t-149 50h-113l-102 -465h245l-18 -86h-246l-76 -355q-8 -41 -8 -65z" />
    <glyph glyph-name="Tcaron.sc" horiz-adv-x="1241" 
d="M729 1329l-197 346h93l198 -205l326 205h96l-364 -346h-152zM651 164q0 -48 40 -66t132 -20l-16 -78h-582l15 78q100 2 152 26t69 99l203 932h-111q-115 1 -170 -49t-182 -238h-66l109 373h1071l-53 -373h-66q-43 188 -78 237t-149 50h-113l-197 -906q-8 -41 -8 -65z" />
    <glyph glyph-name="Thorn.sc" horiz-adv-x="1134" 
d="M715 963q207 0 310 -84t103 -226q0 -190 -154 -285t-415 -96h-149l-11 -36q-10 -61 -10 -70q0 -54 47 -70t158 -20l-14 -76h-600l18 78q94 2 140 26t63 99l172 794q10 41 10 77t-34 52t-122 19l17 78h547l-17 -78q-94 -3 -140 -27t-63 -98l-12 -57h156zM553 358
q377 0 377 293q0 223 -275 223h-114l-115 -516h127z" />
    <glyph glyph-name="Uacute.sc" horiz-adv-x="1386" 
d="M1065 1671h278l-395 -346h-92zM629 -20q-199 0 -313 100t-113 274q0 51 16 129l109 512q8 39 8 76t-34 53t-120 19l17 78h546l-18 -78q-94 -2 -140 -27t-63 -98l-118 -547q-12 -55 -13 -106q0 -121 69 -194t211 -73t237 79t134 259l121 559q26 105 -25 129
q-34 16 -120 19l14 78h469l-18 -78q-94 -2 -140 -27t-63 -98l-133 -619q-45 -209 -183 -314t-337 -105z" />
    <glyph glyph-name="Ubreve.sc" horiz-adv-x="1386" 
d="M915 1327q-231 0 -231 248q0 43 12 96h74q-2 -12 -2 -35q0 -174 178 -174t246 209h80q-32 -164 -126 -254t-231 -90zM629 -20q-199 0 -313 100t-113 274q0 51 16 129l109 512q8 39 8 76t-34 53t-120 19l17 78h546l-18 -78q-94 -2 -140 -27t-63 -98l-118 -547
q-12 -55 -13 -106q0 -121 69 -194t211 -73t237 79t134 259l121 559q26 105 -25 129q-34 16 -120 19l14 78h469l-18 -78q-94 -2 -140 -27t-63 -98l-133 -619q-45 -209 -183 -314t-337 -105z" />
    <glyph glyph-name="Ucircumflex.sc" horiz-adv-x="1386" 
d="M1049 1671l196 -346h-92l-199 205l-325 -205h-97l365 346h152zM629 -20q-199 0 -313 100t-113 274q0 51 16 129l109 512q8 39 8 76t-34 53t-120 19l17 78h546l-18 -78q-94 -2 -140 -27t-63 -98l-118 -547q-12 -55 -13 -106q0 -121 69 -194t211 -73t237 79t134 259
l121 559q26 105 -25 129q-34 16 -120 19l14 78h469l-18 -78q-94 -2 -140 -27t-63 -98l-133 -619q-45 -209 -183 -314t-337 -105z" />
    <glyph glyph-name="Udieresis.sc" horiz-adv-x="1386" 
d="M1134 1372q-52 0 -86 34t-34 86t38 91t90 39t86 -34t34 -86t-38 -91t-90 -39zM753 1372q-52 0 -86 34t-34 86t38 91t90 39t86 -34t34 -86t-38 -91t-90 -39zM629 -20q-199 0 -313 100t-113 274q0 51 16 129l109 512q8 39 8 76t-34 53t-120 19l17 78h546l-18 -78
q-94 -2 -140 -27t-63 -98l-118 -547q-12 -55 -13 -106q0 -121 69 -194t211 -73t237 79t134 259l121 559q26 105 -25 129q-34 16 -120 19l14 78h469l-18 -78q-94 -2 -140 -27t-63 -98l-133 -619q-45 -209 -183 -314t-337 -105z" />
    <glyph glyph-name="Ugrave.sc" horiz-adv-x="1386" 
d="M596 1671h254l129 -346h-84zM629 -20q-199 0 -313 100t-113 274q0 51 16 129l109 512q8 39 8 76t-34 53t-120 19l17 78h546l-18 -78q-94 -2 -140 -27t-63 -98l-118 -547q-12 -55 -13 -106q0 -121 69 -194t211 -73t237 79t134 259l121 559q26 105 -25 129q-34 16 -120 19
l14 78h469l-18 -78q-94 -2 -140 -27t-63 -98l-133 -619q-45 -209 -183 -314t-337 -105z" />
    <glyph glyph-name="Uhungarumlaut.sc" horiz-adv-x="1386" 
d="M1214 1671h216l-340 -346h-109zM899 1671h215l-340 -346h-108zM629 -20q-199 0 -313 100t-113 274q0 51 16 129l109 512q8 39 8 76t-34 53t-120 19l17 78h546l-18 -78q-94 -2 -140 -27t-63 -98l-118 -547q-12 -55 -13 -106q0 -121 69 -194t211 -73t237 79t134 259
l121 559q26 105 -25 129q-34 16 -120 19l14 78h469l-18 -78q-94 -2 -140 -27t-63 -98l-133 -619q-45 -209 -183 -314t-337 -105z" />
    <glyph glyph-name="Umacron.sc" horiz-adv-x="1386" 
d="M655 1389l27 118h537l-27 -118h-537zM629 -20q-199 0 -313 100t-113 274q0 51 16 129l109 512q8 39 8 76t-34 53t-120 19l17 78h546l-18 -78q-94 -2 -140 -27t-63 -98l-118 -547q-12 -55 -13 -106q0 -121 69 -194t211 -73t237 79t134 259l121 559q26 105 -25 129
q-34 16 -120 19l14 78h469l-18 -78q-94 -2 -140 -27t-63 -98l-133 -619q-45 -209 -183 -314t-337 -105z" />
    <glyph glyph-name="Uogonek.sc" horiz-adv-x="1386" 
d="M559 -244q0 -74 90 -73q66 0 201 96l27 -39q-156 -170 -295 -170q-72 0 -117 37t-45 102q0 147 225 271h-8q-207 0 -321 100t-113 274q0 51 16 129l109 512q8 39 8 76t-34 53t-120 19l17 78h546l-18 -78q-94 -2 -140 -27t-63 -98l-118 -547q-12 -55 -13 -106
q0 -121 69 -194t211 -73t237 79t134 259l121 559q26 105 -25 129q-34 16 -120 19l14 78h469l-18 -78q-94 -2 -140 -27t-63 -98l-133 -619q-63 -299 -315 -387q-213 -113 -253 -181q-22 -36 -22 -75z" />
    <glyph glyph-name="Uring.sc" horiz-adv-x="1386" 
d="M1137 1517q-1 -81 -61 -141t-143 -59q-83 0 -128 46t-45 127t60 140q60 60 144 60t128 -46q45 -46 45 -127zM1051 1517q1 97 -95 97q-48 0 -79 -38t-31 -93q0 -90 95 -90q48 0 79 38t31 86zM629 -20q-199 0 -313 100t-113 274q0 51 16 129l109 512q8 39 8 76t-34 53
t-120 19l17 78h546l-18 -78q-94 -2 -140 -27t-63 -98l-118 -547q-12 -55 -13 -106q0 -121 69 -194t211 -73t237 79t134 259l121 559q26 105 -25 129q-34 16 -120 19l14 78h469l-18 -78q-94 -2 -140 -27t-63 -98l-133 -619q-45 -209 -183 -314t-337 -105z" />
    <glyph glyph-name="Utilde.sc" horiz-adv-x="1386" 
d="M1069 1364q-70 0 -154 74q-85 74 -125 74t-67 -28q-27 -26 -70 -100l-75 21q76 147 129 197t123 49q70 0 154 -74t124 -74q42 1 68 27t71 100l74 -20q-76 -146 -129 -196t-123 -50zM629 -20q-199 0 -313 100t-113 274q0 51 16 129l109 512q8 39 8 76t-34 53t-120 19
l17 78h546l-18 -78q-94 -2 -140 -27t-63 -98l-118 -547q-12 -55 -13 -106q0 -121 69 -194t211 -73t237 79t134 259l121 559q26 105 -25 129q-34 16 -120 19l14 78h469l-18 -78q-94 -2 -140 -27t-63 -98l-133 -619q-45 -209 -183 -314t-337 -105z" />
    <glyph glyph-name="Wacute.sc" horiz-adv-x="1773" 
d="M1241 1671h279l-396 -346h-92zM1630 1085q0 55 -145 58l16 78h404l-19 -78q-92 -12 -123 -64l-659 -1093h-64l-86 737l-450 -737h-62l-174 1093q-8 53 -94 64l16 78h474l-17 -78q-61 -2 -93 -7t-58 -29t-27 -61q0 -37 4 -61l105 -717l356 588l-33 223q-4 43 -47 56
q-16 4 -45 8l16 78h459l-16 -78q-88 -4 -122 -16q-34 -13 -49 -39t-5 -97l77 -721l428 721q33 57 33 94z" />
    <glyph glyph-name="Wcircumflex.sc" horiz-adv-x="1773" 
d="M1223 1671l196 -346h-92l-199 205l-325 -205h-96l364 346h152zM1630 1085q0 55 -145 58l16 78h404l-19 -78q-92 -12 -123 -64l-659 -1093h-64l-86 737l-450 -737h-62l-174 1093q-8 53 -94 64l16 78h474l-17 -78q-61 -2 -93 -7t-58 -29t-27 -61q0 -37 4 -61l105 -717
l356 588l-33 223q-4 43 -47 56q-16 4 -45 8l16 78h459l-16 -78q-88 -4 -122 -16q-34 -13 -49 -39t-5 -97l77 -721l428 721q33 57 33 94z" />
    <glyph glyph-name="Wgrave.sc" horiz-adv-x="1773" 
d="M770 1671h254l129 -346h-84zM1630 1085q0 55 -145 58l16 78h404l-19 -78q-92 -12 -123 -64l-659 -1093h-64l-86 737l-450 -737h-62l-174 1093q-8 53 -94 64l16 78h474l-17 -78q-61 -2 -93 -7t-58 -29t-27 -61q0 -37 4 -61l105 -717l356 588l-33 223q-4 43 -47 56
q-16 4 -45 8l16 78h459l-16 -78q-88 -4 -122 -16q-34 -13 -49 -39t-5 -97l77 -721l428 721q33 57 33 94z" />
    <glyph glyph-name="Wdieresis.sc" horiz-adv-x="1773" 
d="M1310 1372q-52 0 -86 34t-34 86t38 91t90 39t86 -34t34 -86t-38 -91t-90 -39zM929 1372q-52 0 -86 34t-34 86t38 91t90 39t86 -34t34 -86t-38 -91t-90 -39zM1630 1085q0 55 -145 58l16 78h404l-19 -78q-92 -12 -123 -64l-659 -1093h-64l-86 737l-450 -737h-62l-174 1093
q-8 53 -94 64l16 78h474l-17 -78q-61 -2 -93 -7t-58 -29t-27 -61q0 -37 4 -61l105 -717l356 588l-33 223q-4 43 -47 56q-16 4 -45 8l16 78h459l-16 -78q-88 -4 -122 -16q-34 -13 -49 -39t-5 -97l77 -721l428 721q33 57 33 94z" />
    <glyph glyph-name="Yacute.sc" horiz-adv-x="1218" 
d="M983 1671h279l-396 -346h-92zM631 164q0 -48 42 -66t132 -20l-17 -78h-571l16 78q98 2 151 26q52 25 69 99l61 280l-246 596q-23 55 -94 64l16 78h482l-17 -78q-86 -1 -130 -15q-76 -25 -27 -135l161 -411l359 411q49 55 49 88t-31 46t-112 16l16 78h410l-17 -78
q-76 -8 -123 -64l-512 -594l-57 -262q-10 -41 -10 -59z" />
    </font>
</defs>
</svg>
