<?xml version="1.0" encoding="utf-8"?>
<!-- Generator: Adobe Illustrator 18.0.0, SVG Export Plug-In . SVG Version: 6.00 Build 0)  -->
<!DOCTYPE svg PUBLIC "-//W3C//DTD SVG 1.1//EN" "http://www.w3.org/Graphics/SVG/1.1/DTD/svg11.dtd">
<svg version="1.1" id="Layer_1" xmlns="http://www.w3.org/2000/svg" xmlns:xlink="http://www.w3.org/1999/xlink" x="0px" y="0px"
	 viewBox="0 88.7 960.3 382.6" enable-background="new 0 88.7 960.3 382.6" xml:space="preserve">
<g>
	<path d="M126.9,202.7H59.1l10-27.8H82l0.3-8.4H58.4l-5.5,8.4h8.7l-10,27.8H0l10.3-27.8H20l50.1-69.1l18.1-12.3h24.2l11.9,12.3v69.1
		h12.6L126.9,202.7z M68.8,150.7h14.5l1.6-24.5L68.8,150.7z"/>
	<path d="M248.6,142h-35.8l8.1-21.6l-16.1-9l-23.6,63.6l11.3,5.5l15.8-6.5l4.8-12.9h28.4l-10.7,29.4l-46.8,17.4l-36.5-17.4l-10.3-42
		l25.8-42l46.8-17.8l19.7,14.2l2.9-7.7h32.9L248.6,142z"/>
	<path d="M360.7,202.7h-67.8l10-27.8h12.9l0.3-8.4h-23.9l-5.5,8.4h8.7l-10,27.8h-51.7l10.3-27.8h9.7l50.4-69.1l18.1-12.3h24.2
		l11.9,12.3v69.1H371L360.7,202.7z M302.9,150.7h14.5l1.6-24.5L302.9,150.7z"/>
	<path d="M485.7,186.5l-41,16.1h-77.8l10-27.8h11.9l19.4-53h-13.2l10-28.1h64.9l31.3,16.1l7.1,38.4L485.7,186.5z M451.7,121.6
		l-19.4,53h15.5l19.4-53C467.2,121.6,451.7,121.6,451.7,121.6z"/>
	<path d="M628.7,144.5h-33.9l8.4-22.9h-27.4l-5.8,16.5h19.7l-7.1,20h-20l-5.8,16.5h27.1l8.4-22.9h33.9l-14.2,38.7l-18.1,11.9h-103
		l10.3-27.8h11.6l19.4-53h-13.6l10.3-28.1h101.4l11.9,12.3L628.7,144.5z"/>
	<path d="M818.9,121.6h-11l-19.4,53h13.6l-10.3,27.8h-68.5l10-27.8h11.9l17.4-47.5l-47.1,65.5l-13.9,10h-7.4l-8.1-10v-65.5
		l-17.8,47.8h11.9L670,202.7h-53.6l10-27.8h11.6l19.4-53h-13.6l10.3-28.1h65.2l8.1,12.3l0.6,27.8l20.7-27.8l16.8-12.3h63.6
		L818.9,121.6z"/>
	<path d="M950,121.6h-9.7l-44.6,37.8l-5.5,15.2h14.2l-10,27.8H825l10-27.8H847l5.5-15.8l-16.8-37.5h-11l10-28.1h63.9l-10,28.1h-8.7
		l5.8,18.4l19.4-18.4h-8.7l10-28.1h53.9L950,121.6z"/>
</g>
<g>
	<path d="M306.1,279.5h-33.9l8.4-22.9h-27.4l-6.5,17.8h19.7l-7.4,20.3h-19.7l-5.5,15.2H247l-10,27.8h-68.8l10.3-27.8h11.9l19.4-53.3
		h-13.6l10.3-28.1h101.4l11.9,12.3L306.1,279.5z"/>
	<path d="M389.1,256.6h-11l-19.4,53H372l-10,27.8h-68.5l10-27.8h11.9l19.4-53h-13.2l10-28.1h67.8L389.1,256.6z"/>
	<path d="M495,276.9h-36.2l8.7-23.6l-16.5-7.4l-23.6,63.6l11.3,5.5l15.8-6.5l3.2-8.4h-11.6l5.5-15.8h57.2l-5.8,15.8h-10.3
		l-14.2,39.1h-20l-1-10.3l-27.1,13.9l-36.5-17.4l-10.3-42l25.8-42l47.1-17.4l20.3,12.6l2.6-6.1h32.9L495,276.9z"/>
	<path d="M659.1,256.6h-11l-19.4,53h13.6l-10.3,27.8h-65.5l10.3-27.8h8.7l6.8-18.7h-25.8l-6.8,18.7h8.7l-10,27.8H494l10-27.8h11.6
		l19.4-53h-13.2l10-28.1h65.5l-9.7,28.1h-9l-6.8,18.7h25.8l6.8-18.7h-8.7l10-28.1h63.3L659.1,256.6z"/>
	<path d="M780.5,269.8l-23.9-3.6l-15.8,43.3h13.6L744,337.6h-68.5l10-28.1h11.9l18.1-49.4l-24.5-3.6l10,15.2l-25.5,13.9l-16.1-24.2
		l38.7-39.1l81,13.2l-8.4-11.3l21.6-14.5l17.4,26.2L780.5,269.8z"/>
</g>
<g>
	<path d="M323.6,395.4h-28.1l3.6-11l-15.5-9.7l-14.2,5.5v7.1l38.4,19.7l13.2,24.2l-9.7,25.2l-41,14.9l-28.1-16.5l-4.2,11.3h-32.6
		l14.2-39.4h31l-3.6,11l16.5,9.7l13.6-5.5v-7.1l-38.7-21L228,391.6l9.7-24.9l37.8-14.9l28.1,16.5l3.9-10.7h29.7L323.6,395.4z"/>
	<path d="M422.7,453.9l-46.8,17.4l-40.4-17.4l-10.3-42l25.8-42l47.1-17.4l40.4,17.4l10.3,42L422.7,453.9z M392.7,374.8l-25.8,69.1
		l13.9,4.8l25.5-69.4L392.7,374.8z"/>
	<path d="M587.4,385.1h-11l-25.5,70.7l-15.8,10.3h-16.5l-12.3-11.9l-15.2-47.5l-11.3,31.6h11.6l-10,27.8h-53.9l10-27.8h11.9l19.4-53
		h-13.2l10-28.1h41.7l11.9,12.3l15.2,47.5l11.3-31.6h-11.9l10.3-28.1h53L587.4,385.1z"/>
	<path d="M692.6,405.4h-36.2l8.7-23.6l-16.5-7.4l-23.6,63.6l11.3,5.5l15.8-6.5l3.2-8.4h-11.6l5.5-15.8h57.2l-5.8,15.8h-10.3
		l-14.2,39.1h-20l-1-10.3l-27.1,13.9l-36.5-17.4l-10.3-42l25.8-42l47.1-17.4l20.3,12.6l2.6-6.1h32.9L692.6,405.4z"/>
</g>
</svg>
