<?xml version="1.0" encoding="utf-8"?>
<!-- Generator: Adobe Illustrator 18.1.0, SVG Export Plug-In . SVG Version: 6.00 Build 0)  -->
<svg version="1.1" id="Layer_1" xmlns="http://www.w3.org/2000/svg" xmlns:xlink="http://www.w3.org/1999/xlink" x="0px" y="0px"
	 viewBox="0 0 352.8 216.3" enable-background="new 0 0 352.8 216.3" xml:space="preserve">
<g>
	<path d="M166.6,30.9h-19.2l2.9-7.9h3.6l0.1-2.3h-6.8l-1.6,2.3h2.5l-2.9,7.9h-14.6l2.9-7.9h2.7l14.3-19.6l5.1-3.4h6.8l3.4,3.4V23
		h3.6L166.6,30.9z M150.2,16.2h4.1l0.5-6.9L150.2,16.2z"/>
	<path d="M213.6,8h-3.1l-7.3,20l-4.5,3h-4.7l-3.4-3.4L186.4,14l-3.2,9h3.3l-2.9,7.9h-15.3l2.9-7.9h3.4l5.5-15h-3.8l2.9-8H191
		l3.4,3.4l4.3,13.5l3.2-9h-3.4l2.9-8h15L213.6,8z"/>
</g>
<g>
	<path d="M61.1,84.9h-30l4.5-12.4h5.7l0.1-3.6H30.8l-2.4,3.6h3.9l-4.5,12.4H5l4.5-12.4h4.2L36,42l8-5.4h10.7L60,42v30.5h5.6
		L61.1,84.9z M35.4,61.9h6.4l0.8-10.8L35.4,61.9z"/>
	<path d="M119.6,62.5l-11.4,4.4H94.9l-2,5.6h5.9l-4.5,12.4H63.9l4.5-12.4h5.2l8.5-23.5h-5.9l4.5-12.4h32l10.6,4.7l2.8,11.3
		L119.6,62.5z M101.4,49.1l-3.1,8.3h6.8l3.1-8.3H101.4z"/>
	<path d="M170.8,62.5l-11.4,4.4h-13.3l-2,5.6h5.9l-4.5,12.4h-30.3l4.5-12.4h5.2l8.5-23.5h-5.9l4.5-12.4h32l10.6,4.7l2.8,11.3
		L170.8,62.5z M152.6,49.1l-3.1,8.3h6.8l3.1-8.3H152.6z"/>
	<path d="M227.2,59.2h-15l3.7-10.1h-12.1l-2.6,7.3h8.8l-3.2,8.9h-8.8l-2.6,7.3h12l3.7-10.1h15l-6.3,17.2l-7.9,5.3h-45.5l4.5-12.4
		h5.2l8.6-23.5h-6l4.5-12.4h44.9l5.3,5.4L227.2,59.2z"/>
	<path d="M276.6,84.9h-30l4.5-12.4h5.7l0.1-3.6h-10.6l-2.4,3.6h3.9l-4.5,12.4h-22.8l4.5-12.4h4.2L251.5,42l8-5.4h10.7l5.3,5.4v30.5
		h5.6L276.6,84.9z M251,61.9h6.4l0.8-10.8L251,61.9z"/>
	<path d="M330.1,79.6l-8,5.3h-42.8l4.5-12.4h5.2l8.5-23.5h-5.9l4.5-12.4h30.3l-4.5,12.4h-5.2l-8.5,23.5h8.8l3.6-10.1h15.7
		L330.1,79.6z"/>
</g>
<g>
	<path d="M108.6,103.7l-6.8-1L97.4,115h3.8l-2.9,8H78.8l2.9-8h3.4l5.1-14l-6.9-1l2.8,4.3l-7.3,4l-4.6-6.8l10.9-11.1l23,3.8l-2.4-3.2
		l6.1-4.1l5,7.4L108.6,103.7z"/>
	<path d="M138.6,119.4l-13.3,5l-11.5-5l-3-11.9l7.3-11.9l13.3-4.9l11.5,4.9l3,11.9L138.6,119.4z M130.1,97l-7.3,19.6l3.9,1.4
		l7.3-19.6L130.1,97z"/>
	<path d="M192.8,103.7l-6.8-1l-4.5,12.3h3.8l-2.9,8H163l2.9-8h3.4l5.1-14l-6.9-1l2.8,4.3l-7.3,4l-4.6-6.8l10.9-11.1l23,3.8l-2.4-3.2
		l6.1-4.1l5,7.4L192.8,103.7z"/>
	<path d="M239,100h-3.1l-5.5,15h3.8l-2.9,7.9h-18.6l2.9-7.9h2.5l1.9-5.3h-7.3l-1.9,5.3h2.5l-2.9,7.9h-18.2l2.9-7.9h3.3l5.5-15h-3.8
		l2.9-8h18.6l-2.9,8h-2.5l-1.9,5.3h7.3l1.9-5.3H221l2.9-8h18L239,100z"/>
	<path d="M272.8,106.4h-9.6l2.4-6.5h-7.7l-1.7,4.7h5.6l-2,5.7H254l-1.7,4.7h7.7l2.4-6.5h9.6l-4,11l-5.1,3.4h-29.2l2.9-7.9h3.3
		l5.5-15h-3.8l2.9-8h28.7l3.4,3.4L272.8,106.4z"/>
</g>
<g>
	<path d="M63.8,150.1H47.8l3.6-9.6l-7-4l-10.4,28.1l5,2.4l7-2.9l2.1-5.7h12.5l-4.7,13l-20.7,7.7l-16.2-7.7l-4.6-18.6l11.5-18.6
		l20.8-7.7l8.7,6.3l1.4-3.5h14.6L63.8,150.1z"/>
	<path d="M108.7,171.4L88,179.2L70,171.4l-4.6-18.6l11.4-18.6l20.8-7.7l17.9,7.7l4.6,18.6L108.7,171.4z M95.4,136.5l-11.4,30.6
		l6.1,2.1l11.3-30.7L95.4,136.5z"/>
	<path d="M165,171.4l-20.7,7.7l-17.9-7.7l-4.6-18.6l11.4-18.6l20.8-7.7l17.9,7.7l4.6,18.6L165,171.4z M151.7,136.5l-11.4,30.6
		l6.1,2.1l11.3-30.7L151.7,136.5z"/>
	<path d="M222.9,154.5l-11.4,4.4h-13.3l-2,5.6h5.9l-4.5,12.4h-30.3l4.5-12.4h5.2l8.5-23.5h-5.9l4.5-12.4h32l10.6,4.7l2.8,11.3
		L222.9,154.5z M204.8,141.1l-3.1,8.3h6.8l3.1-8.3H204.8z"/>
	<path d="M279.4,151.2h-15l3.7-10.1H256l-2.6,7.3h8.8l-3.2,8.9h-8.8l-2.6,7.3h12l3.7-10.1h15l-6.3,17.2l-7.9,5.3h-45.5l4.5-12.4h5.2
		l8.6-23.5h-6l4.5-12.4h44.9l5.3,5.4L279.4,151.2z"/>
	<path d="M325.7,152.4l5.3,6.6l-2.4,7.3h5.4l-3.9,10.6h-18l-3.7-7.7l4.6-12.7h-7.2l-2.8,8h4.3l-4.2,12.4h-29.1l4.5-12.4h5.2
		l8.5-23.5h-5.9l4.5-12.4h32l10.6,4.7l2.8,11.3L325.7,152.4z M311.4,141.1l-3.1,8.3h6.8l3.1-8.3H311.4z"/>
</g>
<g>
	<path d="M31.7,197.7H21.5l2.3-6.2l-4.5-2.6l-6.7,18l3.2,1.6l4.5-1.8l1.4-3.6h8l-3,8.3l-13.3,5l-10.4-5l-3-11.9l7.3-11.9l13.3-4.9
		l5.6,4.1l0.9-2.2h9.3L31.7,197.7z"/>
	<path d="M60.5,211.4l-13.3,5l-11.5-5l-3-11.9l7.3-11.9l13.3-4.9l11.5,4.9l3,11.9L60.5,211.4z M52,189l-7.3,19.6l3.9,1.4l7.3-19.6
		L52,189z"/>
	<path d="M120.2,192h-3.1l-5.5,15h3.8l-2.9,7.9H93l2.9-7.9h3.4l4.9-13.5l-13.4,18.6l-4,2.8h-2.1l-2.3-2.8v-18.6L77.5,207h3.4
		l-2.9,7.9H62.8l2.9-7.9H69l5.5-15h-3.8l2.9-8H92l2.3,3.4l0.2,7.8l5.8-7.8l4.7-3.4h18L120.2,192z"/>
	<path d="M172.6,192h-3.1l-5.5,15h3.8l-2.9,7.9h-19.4l2.9-7.9h3.4l4.9-13.5l-13.4,18.6l-4,2.8h-2.1l-2.3-2.8v-18.6l-4.9,13.5h3.4
		l-2.9,7.9h-15.2l2.9-7.9h3.3l5.5-15H123l2.9-8h18.5l2.3,3.4l0.2,7.8l5.8-7.8l4.7-3.4h18L172.6,192z"/>
	<path d="M210.5,192h-3l-5.4,14.8l-5.7,6.1l-11.2,3.5l-9.6-3.5l-2.1-7.3l4.9-13.5h-3.4l2.9-8h18.6l-2.9,8h-2.9l-5.5,15l3.2,1.6
		l4.5-1.8l5.3-14.8h-2.5l2.9-8h14.8L210.5,192z"/>
	<path d="M249.6,192h-3.1l-7.3,20l-4.5,3h-4.7l-3.4-3.4l-4.3-13.5l-3.2,9h3.3l-2.9,7.9h-15.3l2.9-7.9h3.4l5.5-15h-3.8l2.9-8H227
		l3.4,3.4l4.3,13.5l3.2-9h-3.4l2.9-8h15L249.6,192z"/>
	<path d="M271.4,192h-3.1l-5.5,15h3.8l-2.9,7.9h-19.4l2.9-7.9h3.4l5.5-15h-3.8l2.9-8h19.2L271.4,192z"/>
	<path d="M306.7,195.7l-6.8-1l-4.5,12.3h3.8l-2.9,8H277l2.9-8h3.4l5.1-14l-6.9-1l2.8,4.3l-7.3,4l-4.6-6.8l10.9-11.1l23,3.8l-2.4-3.2
		l6.1-4.1l5,7.4L306.7,195.7z"/>
	<path d="M350,192h-2.7l-12.6,10.7L333,207h4l-2.9,7.9h-19.7l2.9-7.9h3.4l1.6-4.5l-4.8-10.6h-3.1l2.9-8h18.1l-2.9,8h-2.5l1.6,5.2
		l5.5-5.2h-2.5l2.9-8h15.3L350,192z"/>
</g>
</svg>
