<?xml version="1.0" encoding="utf-8"?>
<!-- Generator: Adobe Illustrator 18.1.1, SVG Export Plug-In . SVG Version: 6.00 Build 0)  -->
<svg version="1.1" id="Layer_1" xmlns="http://www.w3.org/2000/svg" xmlns:xlink="http://www.w3.org/1999/xlink" x="0px" y="0px"
	 viewBox="0 0 331.5 106.3" enable-background="new 0 0 331.5 106.3" xml:space="preserve">
<g>
	<path d="M39.3,39.6h-21l3.1-8.6h4l0.1-2.6h-7.4L16.4,31h2.7L16,39.6H0L3.2,31h3L21.7,9.6l5.6-3.8h7.5l3.7,3.8V31h3.9L39.3,39.6z
		 M21.3,23.5h4.5l0.5-7.6L21.3,23.5z"/>
	<path d="M78.4,18.6L71,17.5L66.1,31h4.2l-3.2,8.7H45.8L49,31h3.7l5.6-15.3l-7.6-1.1l3.1,4.7l-7.9,4.3l-5-7.5l12-12.1L78,8.1
		l-2.6-3.5L82,0l5.4,8.1L78.4,18.6z"/>
	<path d="M121.1,18.6l-7.4-1.1L108.8,31h4.2l-3.2,8.7H88.6l3.1-8.7h3.7l5.6-15.3l-7.6-1.1l3.1,4.7l-7.9,4.3l-5-7.5l12-12.1l25.1,4.1
		L118,4.5l6.7-4.5l5.4,8.1L121.1,18.6z"/>
	<path d="M155.6,35.8l-14.5,5.4l-12.5-5.4l-3.2-13l8-13l14.6-5.4l12.5,5.4l3.2,13L155.6,35.8z M146.3,11.3l-8,21.4l4.3,1.5l7.9-21.5
		L146.3,11.3z"/>
	<path d="M195.2,22.5l3.7,4.6l-1.7,5.1h3.8l-2.7,7.4h-12.6l-2.6-5.4l3.2-8.9h-5.1l-2,5.6h3l-2.9,8.6H159l3.1-8.6h3.7l6-16.4h-4.1
		l3.1-8.7h22.4l7.4,3.3l1.9,7.9L195.2,22.5z M185.2,14.6l-2.2,5.8h4.8l2.2-5.8H185.2z"/>
	<path d="M249.3,14.6h-3.4l-7.9,21.9l-4.9,3.2h-5.1l-3.8-3.7l-4.7-14.7L216,31h3.6l-3.1,8.6h-16.7l3.1-8.6h3.7l6-16.4h-4.1l3.1-8.7
		h12.9l3.7,3.8l4.7,14.7l3.5-9.8h-3.7l3.2-8.7h16.4L249.3,14.6z"/>
	<path d="M285.2,21.6h-10.5l2.6-7.1h-8.5l-1.8,5.1h6.1l-2.2,6.2h-6.2l-1.8,5.1h8.4l2.6-7.1h10.5l-4.4,12l-5.6,3.7h-31.9l3.2-8.6h3.6
		l6-16.4h-4.2l3.2-8.7h31.4l3.7,3.8L285.2,21.6z"/>
	<path d="M328.4,14.6h-3l-13.8,11.7l-1.7,4.7h4.4l-3.1,8.6h-21.5l3.1-8.6h3.7l1.7-4.9L293,14.6h-3.4l3.1-8.7h19.8l-3.1,8.7h-2.7
		l1.8,5.7l6-5.7h-2.7l3.1-8.7h16.7L328.4,14.6z"/>
</g>
<g>
	<path d="M62,58.7H50.8l2.7-7.3l-5.1-2.3l-7.3,19.7l3.5,1.7l4.9-2l1-2.6h-3.6l1.7-4.9h17.7l-1.8,4.9h-3.2L56.8,78h-6.2l-0.3-3.2
		L41.9,79l-11.3-5.4l-3.2-13l8-13l14.6-5.4l6.3,3.9l0.8-1.9h10.2L62,58.7z"/>
	<path d="M103.4,59.4H92.9l2.6-7.1H87l-1.8,5.1h6.1l-2.2,6.2h-6.2l-1.8,5.1h8.4l2.6-7.1h10.5l-4.4,12l-5.6,3.7H60.8l3.2-8.6h3.6
		l6-16.4h-4.2l3.2-8.7H104l3.7,3.8L103.4,59.4z"/>
	<path d="M149.1,52.4h-3.4l-7.9,21.9l-4.9,3.2h-5.1l-3.8-3.7L119.3,59l-3.5,9.8h3.6l-3.1,8.6H99.6l3.1-8.6h3.7l6-16.4h-4.1l3.1-8.7
		h12.9l3.7,3.8l4.7,14.7l3.5-9.8h-3.7l3.2-8.7h16.4L149.1,52.4z"/>
	<path d="M185,59.4h-10.5l2.6-7.1h-8.5l-1.8,5.1h6.1l-2.2,6.2h-6.2l-1.8,5.1h8.4l2.6-7.1h10.5l-4.4,12l-5.6,3.7h-31.9l3.2-8.6h3.6
		l6-16.4H151l3.2-8.7h31.4l3.7,3.8L185,59.4z"/>
	<path d="M217.4,60.3l3.7,4.6l-1.7,5.1h3.8l-2.7,7.4h-12.6l-2.6-5.4l3.2-8.9h-5.1l-2,5.6h3l-2.9,8.6h-20.3l3.1-8.6h3.7l6-16.4h-4.1
		l3.1-8.7h22.4l7.4,3.3l1.9,7.9L217.4,60.3z M207.5,52.4l-2.2,5.8h4.8l2.2-5.8H207.5z"/>
	<path d="M261.3,77.5h-21l3.1-8.6h4l0.1-2.6h-7.4l-1.7,2.6h2.7l-3.1,8.6h-16l3.2-8.6h3l15.6-21.4l5.6-3.8h7.5l3.7,3.8v21.4h3.9
		L261.3,77.5z M243.3,61.3h4.5l0.5-7.6L243.3,61.3z"/>
	<path d="M298.8,73.7l-5.6,3.7h-29.9l3.1-8.6h3.7l6-16.4h-4.1l3.1-8.7h21.2l-3.1,8.7h-3.7l-6,16.4h6.1l2.6-7.1h11L298.8,73.7z"/>
</g>
<g>
	<path d="M39.7,89.2h-2.2l-3.8,10.5h2.6l-2,5.5H20.7l2-5.5H25l3.8-10.5h-2.6l2-5.6h13.5L39.7,89.2z"/>
	<path d="M68.3,89.2h-2.2l-5.1,14l-3.1,2.1h-3.3l-2.4-2.4l-3-9.4L47,99.7h2.3l-2,5.5H36.6l2-5.5H41l3.8-10.5h-2.6l2-5.6h8.3l2.4,2.4
		l3,9.4l2.3-6.3h-2.4l2-5.6h10.5L68.3,89.2z"/>
	<path d="M94.6,89.2h-1.9l-10.4,13.7l-3.6,2.4h-3.8l-2.4-2.4l-0.5-13.7h-2.2l2-5.6h12.7l-2,5.6h-1.8L80.3,97l5.4-7.9h-1.8l2-5.6
		h10.7L94.6,89.2z"/>
	<path d="M118.4,93.7h-6.7l1.7-4.5h-5.4l-1.2,3.3h3.9l-1.4,4h-4l-1.2,3.3h5.4l1.7-4.5h6.7l-2.8,7.7l-3.6,2.4H91.1l2-5.5h2.3
		l3.8-10.5h-2.7l2-5.6h20.1l2.4,2.4L118.4,93.7z"/>
	<path d="M140.4,91.2h-5.6l0.7-2.2l-3.1-1.9l-2.8,1.1v1.4l7.6,3.9l2.6,4.8l-2,5l-8.1,2.9l-5.6-3.3l-0.9,2.3h-6.5l2.8-7.8h6.1
		l-0.7,2.2l3.3,1.9l2.7-1.1V99l-7.7-4.2l-2-4.4l1.9-4.9l7.5-2.9l5.6,3.3l0.8-2.1h5.9L140.4,91.2z"/>
	<path d="M165.9,91.8l-4.7-0.7l-3.1,8.6h2.7l-2,5.6H145l2-5.6h2.4l3.6-9.8l-4.9-0.7l2,3l-5.1,2.8l-3.2-4.8l7.7-7.8l16.1,2.6
		l-1.7-2.3l4.3-2.9l3.5,5.2L165.9,91.8z"/>
	<path d="M185.6,89.2h-2.2l-3.8,10.5h2.6l-2,5.5h-13.6l2-5.5h2.4l3.8-10.5h-2.6l2-5.6h13.5L185.6,89.2z"/>
	<path d="M206.6,93.2h-7.1l1.7-4.6l-3.3-1.5l-4.7,12.6l2.2,1.1l3.1-1.3l0.6-1.7h-2.3l1.1-3.1h11.3l-1.1,3.1h-2.1l-2.8,7.7h-4
		l-0.2-2.1l-5.4,2.8l-7.3-3.5l-2.1-8.4l5.1-8.4l9.3-3.4l4,2.5l0.5-1.2h6.5L206.6,93.2z"/>
	<path d="M231,105.2h-13.5l2-5.5h2.6l0.1-1.6h-4.7l-1.1,1.6h1.8l-2,5.5h-10.2l2-5.5h1.9l10-13.7l3.6-2.4h4.8l2.4,2.4v13.7h2.5
		L231,105.2z M219.5,94.9h2.9l0.3-4.9L219.5,94.9z"/>
	<path d="M255.5,91.8l-4.7-0.7l-3.1,8.6h2.7l-2,5.6h-13.6l2-5.6h2.4l3.6-9.8l-4.8-0.7l2,3l-5.1,2.8l-3.2-4.8l7.7-7.8l16.1,2.6
		l-1.7-2.3l4.3-2.9l3.5,5.2L255.5,91.8z"/>
	<path d="M282.4,93.7h-6.7l1.7-4.5h-5.4l-1.2,3.3h3.9l-1.4,4h-4l-1.2,3.3h5.4l1.7-4.5h6.7l-2.8,7.7l-3.6,2.4h-20.4l2-5.5h2.3
		l3.8-10.5h-2.7l2-5.6h20.1l2.4,2.4L282.4,93.7z"/>
	<path d="M304.4,91.2h-5.6l0.7-2.2l-3.1-1.9l-2.8,1.1v1.4l7.6,3.9l2.6,4.8l-2,5l-8.1,2.9l-5.6-3.3l-0.9,2.3h-6.5l2.8-7.8h6.1
		l-0.7,2.2l3.3,1.9l2.7-1.1V99l-7.7-4.2l-2-4.4l1.9-4.9l7.5-2.9l5.6,3.3l0.8-2.1h5.9L304.4,91.2z"/>
</g>
</svg>
