<?xml version="1.0" encoding="utf-8"?>
<!-- Generator: Adobe Illustrator 18.0.0, SVG Export Plug-In . SVG Version: 6.00 Build 0)  -->
<!DOCTYPE svg PUBLIC "-//W3C//DTD SVG 1.1//EN" "http://www.w3.org/Graphics/SVG/1.1/DTD/svg11.dtd">
<svg version="1.1" id="Layer_1" xmlns="http://www.w3.org/2000/svg" xmlns:xlink="http://www.w3.org/1999/xlink" x="0px" y="0px"
	 viewBox="0 0 253.7 162.1" enable-background="new 0 0 253.7 162.1" xml:space="preserve">
<g>
	<path d="M57.5,16.5H46.4l2.5-6.7L43.9,7l-7.3,19.7l3.5,1.7l4.9-2l1.5-4h8.8L52,31.5l-14.5,5.4l-11.3-5.4l-3.2-13l8-13L45.5,0
		l6.1,4.4l1-2.4h10.2L57.5,16.5z"/>
	<path d="M89,31.5l-14.5,5.4l-12.5-5.4l-3.2-13l8-13L81.2,0l12.5,5.4l3.2,13L89,31.5z M79.7,7l-8,21.4l4.3,1.5l7.9-21.5L79.7,7z"/>
	<path d="M128.3,30.3l-12.7,5H91.5l3.1-8.6h3.7l6-16.4h-4.1l3.1-8.7h20.1l9.7,5l2.2,11.9L128.3,30.3z M117.7,10.2l-6,16.4h4.8
		l6-16.4H117.7z"/>
	<path d="M172.5,17.3H162l2.6-7.1h-8.5l-1.8,5.1h6.1l-2.2,6.2H152l-1.8,5.1h8.4l2.6-7.1h10.5l-4.4,12l-5.6,3.7h-31.9l3.2-8.6h3.6
		l6-16.4h-4.2l3.2-8.7h31.4l3.7,3.8L172.5,17.3z"/>
</g>
<g>
	<path d="M196.3,27.9l-9.3,3.5l-8-3.5l-2.1-8.4l5.1-8.4l9.3-3.4l8,3.4l2.1,8.4L196.3,27.9z M190.3,12.3L185.2,26l2.7,0.9l5.1-13.7
		L190.3,12.3z"/>
	<path d="M226.3,18.9h-6.7l1.7-4.5h-5.4l-1.3,3.5h3.9l-1.5,4h-3.9l-1.1,3h2.6l-2,5.5H199l2-5.5h2.3l3.8-10.5h-2.7l2-5.6h20.1
		l2.4,2.4L226.3,18.9z"/>
</g>
<g>
	<path d="M32.4,54.7H22.3l2.3-6.1L20.1,46l-6.6,17.8l3.2,1.5l4.4-1.8l1.3-3.6h8l-3,8.2l-13.2,4.9L3.9,68.2L1,56.4l7.3-11.8l13.2-4.9
		l5.5,4l0.9-2.2h9.3L32.4,54.7z"/>
	<path d="M60.9,68.2l-13.2,4.9l-11.4-4.9l-2.9-11.8l7.2-11.8l13.2-4.9l11.4,4.9l2.9,11.8L60.9,68.2z M52.5,46l-7.2,19.4l3.9,1.3
		l7.2-19.4L52.5,46z"/>
	<path d="M109.6,49h-3.1l-7.2,19.8l-4.4,2.9h-4.6l-3.4-3.4L82.6,55l-3.2,8.9h3.3l-2.8,7.8H64.7l2.8-7.8h3.3L76.3,49h-3.7l2.8-7.9
		h11.7l3.4,3.4l4.3,13.4L98,49h-3.3l2.9-7.9h14.9L109.6,49z"/>
	<path d="M136.8,67.2l-11.5,4.5h-21.8l2.8-7.8h3.3L115,49h-3.7l2.8-7.9h18.2l8.8,4.5l2,10.8L136.8,67.2z M127.2,49l-5.4,14.9h4.3
		l5.4-14.9H127.2z"/>
	<path d="M179.9,49H177l-5.3,14.6l-5.7,6.1l-11.1,3.5l-9.5-3.5l-2.1-7.3l4.8-13.4h-3.3l2.9-7.9H166l-2.9,7.9h-2.9l-5.4,14.9l3.2,1.5
		l4.4-1.8l5.3-14.6h-2.5l2.9-7.9h14.7L179.9,49z"/>
	<path d="M208.8,54.7h-10.1l2.3-6.1l-4.5-2.6l-6.6,17.8l3.2,1.5l4.4-1.8l1.3-3.6h8l-3,8.2l-13.2,4.9l-10.3-4.9l-2.9-11.8l7.3-11.8
		l13.2-4.9l5.5,4l0.9-2.2h9.3L208.8,54.7z"/>
	<path d="M245.5,52.7l-6.7-1l-4.4,12.2h3.8l-2.9,7.9h-19.2l2.8-7.9h3.3l5.1-13.9l-6.9-1l2.8,4.3l-7.2,3.9l-4.5-6.8l10.8-11l22.8,3.7
		l-2.4-3.2l6.1-4.1l4.9,7.3L245.5,52.7z"/>
</g>
<g>
	<path d="M106.2,98.3H92.7l2-5.5h2.6l0.1-1.6h-4.7l-1.1,1.6h1.8l-2,5.5H81l2-5.5h1.9l10-13.7l3.6-2.4h4.8l2.4,2.4v13.7h2.5
		L106.2,98.3z M94.6,88h2.9l0.3-4.9L94.6,88z"/>
	<path d="M139.1,82.2h-2.2l-5.1,14l-3.1,2.1h-3.3l-2.4-2.4l-3-9.4l-2.3,6.3h2.3l-2,5.5h-10.7l2-5.5h2.4l3.8-10.5H113l2-5.6h8.3
		l2.4,2.4l3,9.4l2.3-6.3h-2.4l2-5.6h10.5L139.1,82.2z"/>
	<path d="M158.9,95.1l-8.1,3.2h-15.4l2-5.5h2.4l3.8-10.5h-2.6l2-5.6h12.9l6.2,3.2l1.4,7.6L158.9,95.1z M152.1,82.2l-3.8,10.5h3.1
		l3.8-10.5H152.1z"/>
</g>
<g>
	<path d="M39,117.3H27.8l2.5-6.7l-4.9-2.8l-7.3,19.7l3.5,1.7l4.9-2l1.5-4h8.8l-3.3,9.1l-14.5,5.4l-11.3-5.4l-3.2-13l8-13l14.6-5.4
		l6.1,4.4l1-2.4h10.2L39,117.3z"/>
	<path d="M73.7,136.1h-21l3.1-8.6h4l0.1-2.6h-7.4l-1.7,2.6h2.7l-3.1,8.6h-16l3.2-8.6h3l15.6-21.4l5.6-3.8h7.5l3.7,3.8v21.4h3.9
		L73.7,136.1z M55.7,120h4.5l0.5-7.6L55.7,120z"/>
	<path d="M138.4,111H135l-6,16.4h4.2l-3.2,8.6h-21.2l3.1-8.6h3.7l5.4-14.7L106.3,133l-4.3,3.1h-2.3l-2.5-3.1v-20.3l-5.4,14.7h3.7
		l-3.2,8.6H75.7l3.1-8.6h3.6l6-16.4h-4.2l3.2-8.7h20.2l2.5,3.8l0.2,8.6l6.4-8.6l5.2-3.8h19.7L138.4,111z"/>
	<path d="M171,120.4l-8,3.1h-9.3l-1.4,3.9h4.1l-3.1,8.6H132l3.1-8.6h3.7l6-16.4h-4.1l3.1-8.7h22.4l7.4,3.3l1.9,7.9L171,120.4z
		 M158.3,111l-2.2,5.8h4.8l2.2-5.8H158.3z"/>
	<path d="M214.7,111h-3.2l-5.9,16.1l-6.3,6.7l-12.2,3.9l-10.5-3.9l-2.3-8l5.3-14.8h-3.7l3.2-8.7h20.3l-3.2,8.7H193l-6,16.4l3.5,1.7
		l4.9-2l5.8-16.1h-2.7l3.2-8.7h16.2L214.7,111z"/>
	<path d="M244.4,114.2h-8.7l1.1-3.4l-4.8-3l-4.4,1.7v2.2l11.9,6.1l4.1,7.5l-3,7.8l-12.7,4.6l-8.7-5.1l-1.3,3.5h-10.1l4.4-12.2h9.6
		l-1.1,3.4l5.1,3l4.2-1.7v-2.2l-12-6.5l-3.2-6.9l3-7.7l11.7-4.6l8.7,5.1l1.2-3.3h9.2L244.4,114.2z"/>
</g>
<g>
	<path d="M30.4,149.2h-1.6l-2.9,8h2l-1.5,4.2H16l1.5-4.2h1.8l2.6-7.1l-7.1,9.8l-2.1,1.5h-1.1l-1.2-1.5V150l-2.6,7.1h1.8L8,161.3H0
		l1.5-4.2h1.8l2.9-8h-2l1.5-4.2h9.8l1.2,1.8l0.1,4.1l3.1-4.1l2.5-1.8h9.5L30.4,149.2z"/>
	<path d="M42.1,149.2h-1.6l-2.9,8h2l-1.5,4.2H27.7l1.5-4.2H31l2.9-8h-2l1.5-4.2h10.2L42.1,149.2z"/>
	<path d="M56.5,159.5l-2.7,1.8H39.3l1.5-4.2h1.8l2.9-8h-2l1.5-4.2h10.3l-1.5,4.2H52l-2.9,8h3l1.2-3.4h5.3L56.5,159.5z"/>
	<path d="M71.2,149.2h-1.6l-2.9,8h2l-1.5,4.2H56.8l1.5-4.2h1.8l2.9-8h-2l1.5-4.2h10.2L71.2,149.2z"/>
	<path d="M89.4,151.1l-3.6-0.5l-2.4,6.5h2l-1.5,4.2H73.7l1.5-4.2H77l2.7-7.4l-3.7-0.5l1.5,2.3l-3.8,2.1l-2.4-3.6l5.8-5.9l12.2,2
		l-1.3-1.7l3.2-2.2l2.6,3.9L89.4,151.1z"/>
	<path d="M104.3,161.3H94.1l1.5-4.2h1.9l0-1.2H94l-0.8,1.2h1.3l-1.5,4.2h-7.7l1.5-4.2h1.4l7.6-10.4l2.7-1.8h3.6l1.8,1.8v10.4h1.9
		L104.3,161.3z M95.6,153.5h2.2l0.3-3.7L95.6,153.5z"/>
	<path d="M123.2,153l1.8,2.2l-0.8,2.5h1.8l-1.3,3.6h-6.1l-1.3-2.6l1.6-4.3h-2.5l-1,2.7h1.5l-1.4,4.2h-9.9l1.5-4.2h1.8l2.9-8h-2
		l1.5-4.2h10.8l3.6,1.6l0.9,3.8L123.2,153z M118.4,149.2l-1.1,2.8h2.3l1-2.8H118.4z"/>
	<path d="M140.2,149.2h-1.6l-2.9,8h2l-1.5,4.2h-10.3l1.5-4.2h1.8l2.9-8h-2l1.5-4.2h10.2L140.2,149.2z"/>
	<path d="M147.6,155.2l5.3,1l1.4-3.1l2.8,0.8l-3.4,8.1l-11.4-2.6L139,162l-1.7-1.8l11.8-9l-4.5-0.9l-1.2,2.7l-2.7-0.8l3.4-8.1
		l10.7,2.6l3.2-2.6l1.7,1.8L147.6,155.2z"/>
	<path d="M174.5,161.3h-10.2l1.5-4.2h1.9l0-1.2h-3.6l-0.8,1.2h1.3l-1.5,4.2h-7.7l1.5-4.2h1.4l7.6-10.4l2.7-1.8h3.6l1.8,1.8v10.4h1.9
		L174.5,161.3z M165.8,153.5h2.2l0.3-3.7L165.8,153.5z"/>
	<path d="M193,151.1l-3.6-0.5l-2.4,6.5h2l-1.5,4.2h-10.3l1.5-4.2h1.8l2.7-7.4l-3.7-0.5l1.5,2.3l-3.8,2.1l-2.4-3.6l5.8-5.9l12.2,2
		l-1.3-1.7l3.2-2.2l2.6,3.9L193,151.1z"/>
	<path d="M207.5,149.2h-1.6l-2.9,8h2l-1.5,4.2h-10.3l1.5-4.2h1.8l2.9-8h-2l1.5-4.2H209L207.5,149.2z"/>
	<path d="M221.3,159.4l-7,2.6l-6.1-2.6l-1.6-6.3l3.9-6.3l7.1-2.6l6.1,2.6l1.6,6.3L221.3,159.4z M216.8,147.6L213,158l2.1,0.7
		l3.8-10.4L216.8,147.6z"/>
	<path d="M246.5,149.2h-1.6l-3.8,10.6l-2.4,1.6h-2.5l-1.8-1.8l-2.3-7.1l-1.7,4.8h1.8l-1.5,4.2h-8.1l1.5-4.2h1.8l2.9-8h-2l1.5-4.2
		h6.3l1.8,1.8l2.3,7.1l1.7-4.8h-1.8l1.5-4.2h7.9L246.5,149.2z"/>
</g>
</svg>
