<?xml version="1.0" encoding="utf-8"?>
<!-- Generator: Adobe Illustrator 18.0.0, SVG Export Plug-In . SVG Version: 6.00 Build 0)  -->
<!DOCTYPE svg PUBLIC "-//W3C//DTD SVG 1.1//EN" "http://www.w3.org/Graphics/SVG/1.1/DTD/svg11.dtd">
<svg version="1.1" id="Layer_1" xmlns="http://www.w3.org/2000/svg" xmlns:xlink="http://www.w3.org/1999/xlink" x="0px" y="0px"
	 viewBox="0 0 235 241.4" enable-background="new 0 0 235 241.4" xml:space="preserve">
<g>
	<path d="M37.2,34.7l-12.7,5H0.4L3.6,31h3.7l6-16.4H9.1l3.1-8.7h20.1l9.7,5l2.2,11.9L37.2,34.7z M26.7,14.6l-6,16.4h4.8l6-16.4H26.7
		z"/>
	<path d="M68.5,14.6h-3.4l-6,16.4h4.1l-3.1,8.6H38.8L42,31h3.7l6-16.4h-4.1l3.1-8.7h21L68.5,14.6z"/>
	<path d="M99,22.5l3.7,4.6l-1.7,5.1h3.8l-2.7,7.4H89.5l-2.6-5.4l3.2-8.9H85l-2,5.6h3l-2.9,8.6H62.8l3.1-8.6h3.7l6-16.4h-4.1l3.1-8.7
		H97l7.4,3.3l1.9,7.9L99,22.5z M89.1,14.6l-2.2,5.8h4.8l2.2-5.8H89.1z"/>
	<path d="M147.2,21.6h-10.5l2.6-7.1h-8.5l-1.8,5.1h6.1l-2.2,6.2h-6.2l-1.8,5.1h8.4l2.6-7.1h10.5l-4.4,12l-5.6,3.7h-31.9l3.2-8.6h3.6
		l6-16.4h-4.2l3.2-8.7h31.4l3.7,3.8L147.2,21.6z"/>
	<path d="M184.5,20.9h-11.2l2.5-6.7l-4.9-2.8L163.6,31l3.5,1.7l4.9-2l1.5-4h8.8l-3.3,9.1l-14.5,5.4l-11.3-5.4l-3.2-13l8-13l14.6-5.4
		l6.1,4.4l1-2.4h10.2L184.5,20.9z"/>
	<path d="M225.9,18.6l-7.4-1.1L213.6,31h4.2l-3.2,8.7h-21.2l3.1-8.7h3.7l5.6-15.3l-7.6-1.1l3.1,4.7l-7.9,4.3l-5-7.5l12-12.1
		l25.1,4.1l-2.6-3.5l6.7-4.5l5.4,8.1L225.9,18.6z"/>
</g>
<g>
	<path d="M39.3,81.6h-21l3.1-8.6h4l0.1-2.6h-7.4L16.4,73h2.7L16,81.6H0L3.2,73h3l15.6-21.4l5.6-3.8h7.5l3.7,3.8V73h3.9L39.3,81.6z
		 M21.3,65.5h4.5l0.5-7.6L21.3,65.5z"/>
	<path d="M77.9,62.9H66.8l2.5-6.7l-4.9-2.8L57,73l3.5,1.7l4.9-2l1.5-4h8.8l-3.3,9.1l-14.5,5.4l-11.3-5.4l-3.2-13l8-13l14.6-5.4
		l6.1,4.4l1-2.4h10.2L77.9,62.9z"/>
	<path d="M119.4,60.6l-7.4-1.1l-4.9,13.4h4.2l-3.2,8.7H86.9l3.1-8.7h3.7l5.6-15.3l-7.6-1.1l3.1,4.7l-7.9,4.3l-5-7.5l12-12.1L119,50
		l-2.6-3.5L123,42l5.4,8.1L119.4,60.6z"/>
	<path d="M149.3,56.5h-3.4l-6,16.4h4.1l-3.1,8.6h-21.2l3.1-8.6h3.7l6-16.4h-4.1l3.1-8.7h21L149.3,56.5z"/>
	<path d="M178.8,77.8l-14.5,5.4l-12.5-5.4l-3.2-13l8-13l14.6-5.4l12.5,5.4l3.2,13L178.8,77.8z M169.5,53.3l-8,21.4l4.3,1.5l7.9-21.5
		L169.5,53.3z"/>
	<path d="M231.6,56.5h-3.4l-7.9,21.9l-4.9,3.2h-5.1l-3.8-3.7l-4.7-14.7l-3.5,9.8h3.6l-3.1,8.6h-16.7l3.1-8.6h3.7l6-16.4h-4.1
		l3.1-8.7h12.9l3.7,3.8l4.7,14.7l3.5-9.8h-3.7l3.2-8.7h16.4L231.6,56.5z"/>
</g>
<g>
	<path d="M124.4,121l-10.1-4.4l-9.4,4.4l-8.9-3.9l-2.7-7.6l3.8-7.3l9.9-4.4l1.9-8.9l11.2-4.8l8,5l-0.4,6.5l-8.2,6.1l1.7,4.3l8.6-6.8
		l2.1,3.9l-8.4,7.1l2.4,3.6l8.2-6.6l2.1,3.9L124.4,121z M107.9,104.3l-3.3,2.5v3.8l2.2,2.6l4-0.9L107.9,104.3z M118.7,90.8l-2.1,5.9
		l5.4-4.1L118.7,90.8z"/>
</g>
<g>
	<path d="M76.5,140.6H65.9l2.6-7.1h-8.5l-2,5.5h6.1l-2.3,6.3h-6.1l-1.7,4.7h4.1l-3.1,8.6H33.8L37,150h3.6l6-16.4h-4.2l3.2-8.7h31.4
		l3.7,3.8L76.5,140.6z"/>
	<path d="M108.7,141.5l3.7,4.6l-1.7,5.1h3.8l-2.7,7.4H99.2l-2.6-5.4l3.2-8.9h-5.1l-2,5.6h3l-2.9,8.6H72.5l3.1-8.6h3.7l6-16.4h-4.1
		l3.1-8.7h22.4l7.4,3.3l1.9,7.9L108.7,141.5z M98.8,133.6l-2.2,5.8h4.8l2.2-5.8H98.8z"/>
	<path d="M156.9,140.6h-10.5l2.6-7.1h-8.5l-1.8,5.1h6.1l-2.2,6.2h-6.2l-1.8,5.1h8.4l2.6-7.1H156l-4.4,12l-5.6,3.7h-31.9l3.2-8.6h3.6
		l6-16.4h-4.2l3.2-8.7h31.4l3.7,3.8L156.9,140.6z"/>
	<path d="M195.7,140.6h-10.5l2.6-7.1h-8.5l-1.8,5.1h6.1l-2.2,6.2h-6.2l-1.8,5.1h8.4l2.6-7.1h10.5l-4.4,12l-5.6,3.7h-31.9l3.2-8.6
		h3.6l6-16.4h-4.2l3.2-8.7h31.4l3.7,3.8L195.7,140.6z"/>
</g>
<g>
	<path d="M39.1,180.5H27.9l2.5-6.7l-4.9-2.8l-7.3,19.7l3.5,1.7l4.9-2l1.5-4h8.8l-3.3,9.1L19,200.8l-11.3-5.4l-3.2-13l8-13l14.6-5.4
		l6.1,4.4l1-2.4h10.2L39.1,180.5z"/>
	<path d="M70.5,195.4L56,200.8l-12.5-5.4l-3.2-13l8-13l14.6-5.4l12.5,5.4l3.2,13L70.5,195.4z M61.2,170.9l-8,21.4l4.3,1.5l7.9-21.5
		L61.2,170.9z"/>
	<path d="M109.9,195.4l-14.5,5.4l-12.5-5.4l-3.2-13l8-13l14.6-5.4l12.5,5.4l3.2,13L109.9,195.4z M100.6,170.9l-8,21.4l4.3,1.5
		l7.9-21.5L100.6,170.9z"/>
	<path d="M151.3,183.6l-8,3.1H134l-1.4,3.9h4.1l-3.1,8.6h-21.2l3.1-8.6h3.7l6-16.4H121l3.1-8.7h22.4l7.4,3.3l1.9,7.9L151.3,183.6z
		 M138.6,174.1l-2.2,5.8h4.8l2.2-5.8H138.6z"/>
	<path d="M190.8,181.2h-10.5l2.6-7.1h-8.5l-1.8,5.1h6.1l-2.2,6.2h-6.2l-1.8,5.1h8.4l2.6-7.1H190l-4.4,12l-5.6,3.7h-31.9l3.2-8.6h3.6
		l6-16.4h-4.2l3.2-8.7h31.4l3.7,3.8L190.8,181.2z"/>
	<path d="M223.2,182.1l3.7,4.6l-1.7,5.1h3.8l-2.7,7.4h-12.6l-2.6-5.4l3.2-8.9h-5.1l-2,5.6h3l-2.9,8.6H187l3.1-8.6h3.7l6-16.4h-4.1
		l3.1-8.7h22.4l7.4,3.3l1.9,7.9L223.2,182.1z M213.3,174.1l-2.2,5.8h4.8l2.2-5.8H213.3z"/>
</g>
<g>
	<path d="M64.8,214.8h-3.2l-5.9,16.1l-6.3,6.7l-12.2,3.9l-10.5-3.9l-2.3-8l5.3-14.8H26l3.2-8.7h20.3l-3.2,8.7h-3.2l-6,16.4l3.5,1.7
		l4.9-2l5.8-16.1h-2.7l3.2-8.7h16.2L64.8,214.8z"/>
	<path d="M108.5,214.8h-3.4l-7.9,21.9l-4.9,3.2h-5.1l-3.8-3.7l-4.7-14.7l-3.5,9.8h3.6l-3.1,8.6H59l3.1-8.6h3.7l6-16.4h-4.1l3.1-8.7
		h12.9l3.7,3.8l4.7,14.7l3.5-9.8H92l3.2-8.7h16.4L108.5,214.8z"/>
	<path d="M132.3,214.8h-3.4l-6,16.4h4.1l-3.1,8.6h-21.2l3.1-8.6h3.7l6-16.4h-4.1l3.1-8.7h21L132.3,214.8z"/>
	<path d="M160.9,236l-14.5,5.4l-12.5-5.4l-3.2-13l8-13l14.6-5.4l12.5,5.4l3.2,13L160.9,236z M151.6,211.5l-8,21.4l4.3,1.5l7.9-21.5
		L151.6,211.5z"/>
	<path d="M213.7,214.8h-3.4l-7.9,21.9l-4.9,3.2h-5.1l-3.8-3.7l-4.7-14.7l-3.5,9.8h3.6l-3.1,8.6h-16.7l3.1-8.6h3.7l6-16.4h-4.1
		l3.1-8.7H189l3.7,3.8l4.7,14.7l3.5-9.8h-3.7l3.2-8.7h16.4L213.7,214.8z"/>
</g>
</svg>
