<?xml version="1.0" encoding="utf-8"?>
<!-- Generator: Adobe Illustrator 18.0.0, SVG Export Plug-In . SVG Version: 6.00 Build 0)  -->
<!DOCTYPE svg PUBLIC "-//W3C//DTD SVG 1.1//EN" "http://www.w3.org/Graphics/SVG/1.1/DTD/svg11.dtd">
<svg version="1.1" id="Layer_1" xmlns="http://www.w3.org/2000/svg" xmlns:xlink="http://www.w3.org/1999/xlink" x="0px" y="0px"
	 viewBox="0 236.6 959.7 86.8" enable-background="new 0 236.6 959.7 86.8" xml:space="preserve">
<g>
	<path d="M31.8,312l5.7-3.3l3.3,4.6l-15,8.4l-7.3-6.5l-9,6.5L0,315.2v-10.9l7.6-12.5l12.2-5.2l5.4,4.6l3-8.7h-6.8l2.7-7.9h21.2
		L31.8,312z M19.6,294l-6.5,17.4l4.1,1.4l6.5-17.4L19.6,294z"/>
	<path d="M53.9,322.1l-9.3-7.9l7.3-17.7l-5.7,3.3l-3.3-4.6l15-8.4l9.3,7.9L59.9,312l5.7-3.3l3.3,4.6L53.9,322.1z M64.5,286.9
		l-7.3-7.6l7.3-7.3l7.3,7.3L64.5,286.9z"/>
	<path d="M95.8,300.8l-2.7-6.3l-3.3-1.4l-2.2,2.4l13.9,12.8l-2.7,8.2l-14.4,5.4l-11.7-4.4l-2.7-7.3l9.5-2.7l2.7,6.3l3.5,1.1l2.2-2.4
		L74,299.7l2.7-8.2l13.9-5.2l12,5.2l2.4,6.5L95.8,300.8z"/>
</g>
<g>
	<path d="M173.1,312l-30.5,11.4L116.2,312l-6.8-27.2l16.6-27.2l30.5-11.2l26.4,11.2l6.8,27.2L173.1,312z M153.5,260.5l-16.6,44.9
		l9,3l16.6-44.9L153.5,260.5z"/>
	<path d="M254.2,283.9l7.9,9.8l-3.5,10.6h7.9l-5.7,15.5h-26.7l-5.4-11.2l6.8-18.5h-10.6l-4.1,11.7h6.3l-6,18.2h-42.7l6.5-18.2h7.6
		l12.5-34.6h-8.7l6.5-18.2h46.8l15.8,6.8l4.1,16.6L254.2,283.9z M233.3,267.3l-4.6,12.2h10.1l4.6-12.2H233.3z"/>
	<path d="M327.7,267.3h-7.1l-12.5,34.6h8.7l-6.5,18.2h-44.6l6.5-18.2h7.6l12.5-34.6h-8.7l6.5-18.2h44.1L327.7,267.3z"/>
	<path d="M405.3,282.3h-22l5.4-15H371l-3.8,10.6H380l-4.6,13.1h-13.1l-3.8,10.6h17.7l5.4-15h22l-9.3,25l-11.7,7.9H316l6.5-18.2h7.6
		l12.5-34.6H334l6.5-18.2h65.9l7.9,7.9L405.3,282.3z"/>
	<path d="M500.8,267.3h-7.1l-16.6,45.7l-10.3,6.8h-10.6l-7.9-7.9l-9.8-31l-7.3,20.7h7.6l-6.5,18.2h-34.8l6.5-18.2h7.6l12.5-34.6
		h-8.7l6.5-18.2h27.2l7.9,7.9l9.8,31l7.3-20.7h-7.6l6.5-18.2h34.3L500.8,267.3z"/>
	<path d="M579.5,276.1l-15.5-2.4l-10.3,28h8.7l-6.5,18.2h-44.6l6.5-18.2h7.6l11.7-32.1l-15.8-2.4l6.5,9.8l-16.6,9l-10.3-15.8
		l25-25.3l52.8,8.7l-5.4-7.3l13.9-9.5l11.4,16.9L579.5,276.1z"/>
	<path d="M643.7,319.9h-44.1l6.5-18.2h8.4l0.3-5.4h-15.5l-3.5,5.4h5.7l-6.5,18.2h-33.5l6.5-18.2h6.3l32.7-44.9l11.7-7.9h15.8
		l7.9,7.9v44.9h8.2L643.7,319.9z M605.9,286.1h9.5l1.1-15.8L605.9,286.1z"/>
	<path d="M723.7,276.1l-15.5-2.4l-10.3,28h8.7l-6.5,18.2h-44.6l6.5-18.2h7.6l11.7-32.1l-15.8-2.4l6.5,9.8l-16.6,9l-10.3-15.8
		l25-25.3l52.8,8.7l-5.4-7.3l13.9-9.5l11.4,16.9L723.7,276.1z"/>
	<path d="M784.7,267.3h-7.1l-12.8,34.6h8.7l-6.5,18.2h-44.6l6.5-18.2h7.6l12.5-34.6h-8.7l6.5-18.2H791L784.7,267.3z"/>
	<path d="M844.6,312l-30.5,11.4L787.7,312l-6.8-27.2l16.6-27.2l30.5-11.2l26.4,11.2l6.8,27.2L844.6,312z M825,260.5l-16.6,44.9l9,3
		l16.6-44.9L825,260.5z"/>
	<path d="M953.5,267.3h-7.1l-16.9,45.7l-10.3,6.8h-10.6l-7.9-7.9l-9.8-31l-7.3,20.7h7.6l-6.5,18.2h-34.8l6.5-18.2h7.6l12.5-34.6
		h-8.7l6.5-18.2h27.2l7.9,7.9l9.8,31l7.3-20.7h-7.6l6.5-18.2h34.3L953.5,267.3z"/>
</g>
</svg>
