<?xml version="1.0" encoding="utf-8"?>
<!-- Generator: Adobe Illustrator 17.1.0, SVG Export Plug-In . SVG Version: 6.00 Build 0)  -->
<!DOCTYPE svg PUBLIC "-//W3C//DTD SVG 1.1//EN" "http://www.w3.org/Graphics/SVG/1.1/DTD/svg11.dtd">
<svg version="1.1" id="Layer_1" xmlns="http://www.w3.org/2000/svg" xmlns:xlink="http://www.w3.org/1999/xlink" x="0px" y="0px"
	 viewBox="0 500.6 800 72.2" enable-background="new 0 500.6 800 72.2" xml:space="preserve">
<g>
	<path fill="#FFFFFF" d="M26.5,563.3l4.8-2.8l2.8,3.8l-12.5,7l-6.1-5.4l-7.5,5.4L0,565.9v-9.1l6.3-10.4l10.2-4.3l4.5,3.8l2.5-7.3
		h-5.7l2.3-6.6h17.7L26.5,563.3z M16.3,548.3l-5.4,14.5l3.4,1.2l5.4-14.5L16.3,548.3z"/>
	<path fill="#FFFFFF" d="M44.9,571.7l-7.8-6.6l6.1-14.8l-4.8,2.8l-2.8-3.8l12.5-7l7.8,6.6l-6.1,14.4l4.8-2.8l2.8,3.8L44.9,571.7z
		 M53.8,542.4l-6.1-6.3l6.1-6.1l6.1,6.1L53.8,542.4z"/>
	<path fill="#FFFFFF" d="M79.9,553.9l-2.3-5.3l-2.8-1.2l-1.8,2l11.6,10.7l-2.3,6.8l-12,4.5l-9.8-3.7l-2.3-6.1l7.9-2.3l2.3,5.3
		l2.9,0.9l1.8-2L61.7,553l2.3-6.8l11.6-4.3l10,4.3l2,5.4L79.9,553.9z"/>
</g>
<g>
	<path fill="#FFFFFF" d="M144.3,563.3l-25.4,9.5l-22-9.5l-5.7-22.7l13.8-22.7l25.4-9.3l22,9.3l5.7,22.7L144.3,563.3z M128,520.3
		l-13.8,37.4l7.5,2.5l13.8-37.4L128,520.3z"/>
	<path fill="#FFFFFF" d="M211.9,539.9l6.6,8.2l-2.9,8.8h6.6l-4.8,12.9h-22.3l-4.5-9.3l5.7-15.4h-8.8l-3.4,9.8h5.3l-5,15.2h-35.6
		l5.4-15.2h6.3l10.4-28.8h-7.3l5.4-15.2h39l13.2,5.7l3.4,13.8L211.9,539.9z M194.5,526l-3.8,10.2h8.4l3.8-10.2H194.5z"/>
	<path fill="#FFFFFF" d="M273.2,526h-5.9l-10.4,28.8h7.3l-5.4,15.2h-37.2l5.4-15.2h6.3l10.4-28.8h-7.3l5.4-15.2h36.8L273.2,526z"/>
	<path fill="#FFFFFF" d="M337.9,538.5h-18.3L324,526h-14.8l-3.2,8.8h10.7l-3.8,10.9H302l-3.2,8.8h14.8l4.5-12.5h18.3l-7.8,20.8
		l-9.8,6.6h-55.5l5.4-15.2h6.3l10.4-28.8h-7.2l5.4-15.2h54.9l6.6,6.6L337.9,538.5z"/>
	<path fill="#FFFFFF" d="M417.5,526h-5.9l-13.8,38.1l-8.6,5.7h-8.8l-6.6-6.6l-8.2-25.8l-6.1,17.3h6.3l-5.4,15.2h-29l5.4-15.2h6.3
		l10.4-28.8h-7.3l5.4-15.2h22.7l6.6,6.6l8.2,25.8l6.1-17.3h-6.3l5.4-15.2h28.6L417.5,526z"/>
	<path fill="#FFFFFF" d="M483.1,533.3l-12.9-2l-8.6,23.3h7.3l-5.4,15.2h-37.2l5.4-15.2h6.3l9.8-26.8l-13.2-2l5.4,8.2l-13.8,7.5
		l-8.6-13.2l20.8-21.1l44,7.3l-4.5-6.1l11.6-7.9l9.5,14.1L483.1,533.3z"/>
	<path fill="#FFFFFF" d="M536.6,569.9h-36.8l5.4-15.2h7l0.3-4.5h-12.9l-2.9,4.5h4.8l-5.4,15.2h-27.9l5.4-15.2h5.3l27.3-37.4l9.8-6.6
		h13.2l6.6,6.6v37.4h6.8L536.6,569.9z M505.1,541.7h7.9l0.9-13.2L505.1,541.7z"/>
	<path fill="#FFFFFF" d="M603.3,533.3l-12.9-2l-8.6,23.3h7.3l-5.4,15.2h-37.2l5.4-15.2h6.3l9.8-26.8l-13.2-2l5.4,8.2l-13.8,7.5
		l-8.6-13.2l20.8-21.1l44,7.3l-4.5-6.1l11.6-7.9l9.5,14.1L603.3,533.3z"/>
	<path fill="#FFFFFF" d="M654.1,526h-5.9l-10.7,28.8h7.3l-5.4,15.2h-37.2l5.4-15.2h6.3l10.4-28.8h-7.3l5.4-15.2h36.8L654.1,526z"/>
	<path fill="#FFFFFF" d="M704.1,563.3l-25.4,9.5l-22-9.5l-5.7-22.7l13.8-22.7l25.4-9.3l22,9.3l5.7,22.7L704.1,563.3z M687.7,520.3
		l-13.8,37.4l7.5,2.5l13.8-37.4L687.7,520.3z"/>
	<path fill="#FFFFFF" d="M794.8,526h-5.9l-14.1,38.1l-8.6,5.7h-8.8l-6.6-6.6l-8.2-25.8l-6.1,17.3h6.3l-5.4,15.2h-29l5.4-15.2h6.3
		l10.4-28.8h-7.3l5.4-15.2h22.7l6.6,6.6l8.2,25.8l6.1-17.3H766l5.4-15.2H800L794.8,526z"/>
</g>
</svg>
