<?xml version="1.0" encoding="utf-8"?>
<!-- Generator: Adobe Illustrator 18.1.1, SVG Export Plug-In . SVG Version: 6.00 Build 0)  -->
<svg version="1.1" id="Layer_1" xmlns="http://www.w3.org/2000/svg" xmlns:xlink="http://www.w3.org/1999/xlink" x="0px" y="0px"
	 viewBox="0 0 233 172.4" enable-background="new 0 0 233 172.4" xml:space="preserve">
<g>
	<path d="M80.9,8.7h-3.4l-6,16.4h4.2l-3.2,8.6H52.1l3.2-8.6H58l2.1-5.8h-8L50,25.1h2.7l-3.1,8.6H29.8l3.1-8.6h3.6l6-16.4h-4.1
		L41.5,0h20.3l-3.1,8.7H56l-2.1,5.8h8L64,8.7h-2.7L64.4,0H84L80.9,8.7z"/>
	<path d="M113.5,33.8h-21l3.1-8.6h4l0.1-2.6h-7.4l-1.7,2.6h2.7l-3.1,8.6h-16l3.2-8.6h3L96,3.8l5.6-3.8h7.5l3.7,3.8v21.4h3.9
		L113.5,33.8z M95.6,17.7h4.5l0.5-7.6L95.6,17.7z"/>
	<path d="M150.1,30.1l-5.6,3.7h-29.9l3.1-8.6h3.7l6-16.4h-4.1l3.1-8.7h21.2l-3.1,8.7h-3.7l-6,16.4h6.1l2.6-7.1h11L150.1,30.1z"/>
	<path d="M193.4,15.8h-10.5l2.6-7.1H177l-2,5.5h6.1l-2.3,6.3h-6.1l-1.7,4.7h4.1l-3.1,8.6h-21.3l3.2-8.6h3.6l6-16.4h-4.2l3.2-8.7H194
		l3.7,3.8L193.4,15.8z"/>
</g>
<g>
	<path d="M34,51.1l-6.7-1l-4.4,12.2h3.8l-2.9,7.9H4.5l2.8-7.9h3.3l5.1-13.9l-6.9-1l2.8,4.3l-7.2,3.9L0,48.8l10.8-11l22.8,3.7
		l-2.4-3.2l6-4.1l4.9,7.3L34,51.1z"/>
	<path d="M75.1,47.4h-2.9l-5.3,14.6l-5.7,6.1l-11.1,3.5l-9.5-3.5l-2.1-7.3l4.8-13.4h-3.3l2.9-7.9h18.4l-2.9,7.9h-2.9L50,62.3
		l3.2,1.5l4.4-1.8l5.3-14.6h-2.5l2.9-7.9h14.7L75.1,47.4z"/>
	<path d="M95.1,47.4H92l-5.4,14.9h3.7l-2.8,7.8H68.2l2.8-7.8h3.3l5.4-14.9h-3.7l2.8-7.9h19L95.1,47.4z"/>
	<path d="M128.5,51.1l-6.7-1l-4.4,12.2h3.8l-2.9,7.9H99l2.8-7.9h3.3l5.1-13.9l-6.9-1l2.8,4.3L99,55.6l-4.5-6.8l10.8-11l22.8,3.7
		l-2.4-3.2l6-4.1l4.9,7.3L128.5,51.1z"/>
	<path d="M154.8,47.4h-3.1l-5.4,14.9h3.7l-2.8,7.8h-19.2l2.8-7.8h3.3l5.4-14.9h-3.7l2.8-7.9h19L154.8,47.4z"/>
	<path d="M181.4,66.7l-13.2,4.9l-11.4-4.9L154,54.9l7.2-11.8l13.2-4.9l11.4,4.9l2.9,11.8L181.4,66.7z M173,44.5l-7.2,19.4l3.9,1.3
		l7.2-19.4L173,44.5z"/>
	<path d="M230.1,47.4H227l-7.2,19.8l-4.4,2.9h-4.6l-3.4-3.4l-4.2-13.4l-3.2,8.9h3.3l-2.8,7.8h-15.1l2.8-7.8h3.3l5.4-14.9h-3.7
		l2.8-7.9h11.7l3.4,3.4l4.3,13.4l3.2-8.9h-3.3l2.9-7.9H233L230.1,47.4z"/>
</g>
<g>
	<path d="M117.6,97.8l-6.5-2.8l-6,2.8l-5.7-2.5l-1.8-4.9l2.4-4.6l6.3-2.8l1.2-5.7l7.1-3.1l5.1,3.2l-0.3,4.1l-5.2,3.9l1.1,2.8
		l5.5-4.4l1.3,2.5l-5.4,4.5l1.5,2.3l5.3-4.2l1.3,2.5L117.6,97.8z M107.1,87.1l-2.1,1.6v2.4l1.4,1.6l2.6-0.5L107.1,87.1z M114,78.4
		l-1.3,3.8l3.4-2.6L114,78.4z"/>
</g>
<g>
	<path d="M90.6,109.5h-3.4l-7.9,21.9l-4.9,3.2h-5.1l-3.8-3.7l-4.7-14.7l-3.5,9.8H61l-3.1,8.6H41.2l3.1-8.6H48l6-16.4h-4.1l3.1-8.7
		h12.9l3.7,3.8l4.7,14.7l3.5-9.8h-3.7l3.2-8.7h16.4L90.6,109.5z"/>
	<path d="M126.5,116.6H116l2.6-7.1h-8.5l-1.8,5.1h6.1l-2.2,6.2H106l-1.8,5.1h8.4l2.6-7.1h10.5l-4.4,12l-5.6,3.7H83.9l3.2-8.6h3.6
		l6-16.4h-4.2l3.2-8.7h31.4l3.7,3.8L126.5,116.6z"/>
	<path d="M185.3,109.5h-3l-17.1,21.4l-5,3.7h-3.8l-3.1-3.7l0-8.5l-6.9,8.5l-5,3.7h-4.4l-3.1-3.7l-0.5-21.4h-3.5l3.2-8.7h19.4
		l-3.2,8.7h-2.7l0.2,10.9l6.5-8.3v-2.6h-1.7l3.1-8.7h16.6l-3.1,8.7h-2.7l0.2,10.3l7.9-10.3h-3l3.1-8.7h14.9L185.3,109.5z"/>
</g>
<g>
	<path d="M34,151.9l-6.7-1l-4.4,12.2h3.8l-2.9,7.9H4.5l2.8-7.9h3.3l5.1-13.9l-6.9-1l2.8,4.3l-7.2,3.9L0,149.6l10.8-11l22.8,3.7
		l-2.4-3.2l6-4.1l4.9,7.3L34,151.9z"/>
	<path d="M75.1,148.2h-2.9l-5.3,14.6l-5.7,6.1l-11.1,3.5l-9.5-3.5l-2.1-7.3l4.8-13.4h-3.3l2.9-7.9h18.4l-2.9,7.9h-2.9L50,163.1
		l3.2,1.5l4.4-1.8l5.3-14.6h-2.5l2.9-7.9h14.7L75.1,148.2z"/>
	<path d="M95.1,148.2H92l-5.4,14.9h3.7l-2.8,7.8H68.2l2.8-7.8h3.3l5.4-14.9h-3.7l2.8-7.9h19L95.1,148.2z"/>
	<path d="M128.5,151.9l-6.7-1l-4.4,12.2h3.8l-2.9,7.9H99l2.8-7.9h3.3l5.1-13.9l-6.9-1l2.8,4.3l-7.2,3.9l-4.5-6.8l10.8-11l22.8,3.7
		l-2.4-3.2l6-4.1l4.9,7.3L128.5,151.9z"/>
	<path d="M154.8,148.2h-3.1l-5.4,14.9h3.7l-2.8,7.8h-19.2l2.8-7.8h3.3l5.4-14.9h-3.7l2.8-7.9h19L154.8,148.2z"/>
	<path d="M181.4,167.5l-13.2,4.9l-11.4-4.9l-2.9-11.8l7.2-11.8l13.2-4.9l11.4,4.9l2.9,11.8L181.4,167.5z M173,145.3l-7.2,19.4
		l3.9,1.3l7.2-19.4L173,145.3z"/>
	<path d="M230.1,148.2H227l-7.2,19.8l-4.4,2.9h-4.6l-3.4-3.4l-4.2-13.4l-3.2,8.9h3.3l-2.8,7.8h-15.1l2.8-7.8h3.3l5.4-14.9h-3.7
		l2.8-7.9h11.7l3.4,3.4l4.3,13.4l3.2-8.9h-3.3l2.9-7.9H233L230.1,148.2z"/>
</g>
</svg>
