<?xml version="1.0" encoding="utf-8"?>
<!-- Generator: Adobe Illustrator 18.0.0, SVG Export Plug-In . SVG Version: 6.00 Build 0)  -->
<!DOCTYPE svg PUBLIC "-//W3C//DTD SVG 1.1//EN" "http://www.w3.org/Graphics/SVG/1.1/DTD/svg11.dtd">
<svg version="1.1" id="Layer_1" xmlns="http://www.w3.org/2000/svg" xmlns:xlink="http://www.w3.org/1999/xlink" x="0px" y="0px"
	 viewBox="0 0 207.8 74.9" enable-background="new 0 0 207.8 74.9" xml:space="preserve">
<g>
	<path d="M44.6,10.2h-3.4l-6,16.4h4.1l-3.1,8.6H14.9l3.1-8.6h3.7l6-16.4h-4.1l3.1-8.7h21L44.6,10.2z"/>
	<path d="M85,10.2h-3L65.7,31.6l-5.6,3.7h-6l-3.7-3.7l-0.8-21.4h-3.4l3.1-8.7h19.8L66,10.2h-2.7l-0.6,12.3L71,10.2h-2.7l3.1-8.7
		h16.7L85,10.2z"/>
	<path d="M112,31.4l-14.5,5.4l-12.5-5.4l-3.2-13l8-13L104.2,0l12.5,5.4l3.2,13L112,31.4z M102.7,7l-8,21.4l4.3,1.5l7.9-21.5L102.7,7
		z"/>
	<path d="M149.8,18.1l3.7,4.6l-1.7,5.1h3.8l-2.7,7.4h-12.6l-2.6-5.4l3.2-8.9h-5.1l-2,5.6h3l-2.9,8.6h-20.3l3.1-8.6h3.7l6-16.4h-4.1
		l3.1-8.7h22.4l7.4,3.3l1.9,7.9L149.8,18.1z M139.8,10.2l-2.2,5.8h4.8l2.2-5.8H139.8z"/>
	<path d="M196,10.2h-3l-13.8,11.7l-1.7,4.7h4.4l-3.1,8.6h-21.5l3.1-8.6h3.7l1.7-4.9l-5.2-11.6h-3.4l3.1-8.7h19.8l-3.1,8.7h-2.7
		l1.8,5.7l6-5.7h-2.7l3.1-8.7h16.7L196,10.2z"/>
</g>
<g>
	<path d="M37.5,52.3l-7.4-1.1l-4.9,13.4h4.2l-3.2,8.7H5l3.1-8.7h3.7l5.6-15.3l-7.6-1.1l3.1,4.7L5,57.2l-5-7.5l12-12.1l25.1,4.1
		l-2.6-3.5l6.7-4.5l5.4,8.1L37.5,52.3z"/>
	<path d="M69.3,69.4l-14.5,5.4l-12.5-5.4l-3.2-13l8-13L61.6,38l12.5,5.4l3.2,13L69.3,69.4z M60.1,45l-8,21.4l4.3,1.5l7.9-21.5
		L60.1,45z"/>
	<path d="M132.6,48.2h-3l-17.1,21.4l-5,3.7h-3.8l-3.1-3.7l0-8.5l-6.9,8.5l-5,3.7h-4.4l-3.1-3.7l-0.5-21.4h-3.4l3.2-8.7h19.4
		l-3.2,8.7h-2.7L94,59.1l6.5-8.3v-2.6h-1.7l3.1-8.7h16.6l-3.1,8.7h-2.7l0.2,10.3l7.9-10.3h-3l3.1-8.7h14.9L132.6,48.2z"/>
	<path d="M168.9,55.3h-10.5l2.6-7.1h-8.5l-1.8,5.1h6.1l-2.2,6.2h-6.2l-1.8,5.1h8.4l2.6-7.1H168l-4.4,12l-5.6,3.7h-31.9l3.2-8.6h3.6
		l6-16.4h-4.2l3.2-8.7h31.4l3.7,3.8L168.9,55.3z"/>
	<path d="M200.4,56.1l3.7,4.6l-1.7,5.1h3.8l-2.7,7.4h-12.6l-2.6-5.4l3.2-8.9h-5.1l-2,5.6h3l-2.9,8.6h-20.3l3.1-8.6h3.7l6-16.4h-4.1
		l3.1-8.7h22.4l7.4,3.3l1.9,7.9L200.4,56.1z M190.5,48.2l-2.2,5.8h4.8l2.2-5.8H190.5z"/>
</g>
</svg>
