<?xml version="1.0" encoding="utf-8"?>
<!-- Generator: Adobe Illustrator 18.1.1, SVG Export Plug-In . SVG Version: 6.00 Build 0)  -->
<svg version="1.1" id="Layer_1" xmlns="http://www.w3.org/2000/svg" xmlns:xlink="http://www.w3.org/1999/xlink" x="0px" y="0px"
	 viewBox="0 0 292.7 75.2" enable-background="new 0 0 292.7 75.2" xml:space="preserve">
<g>
	<path d="M39.6,10.2H36l-5.9,16.1L23.9,33l-12.2,3.9L3,33l-3-8.6l11.4-4.7l3,8.6l1.9-0.8l6.3-17.4h-4.6l3.1-8.7h21.8L39.6,10.2z"/>
	<path d="M67.5,35.3h-21l3.1-8.6h4l0.1-2.6h-7.4l-1.7,2.6h2.7l-3.1,8.6h-16l3.2-8.6h3L49.9,5.3l5.6-3.8H63l3.7,3.8v21.4h3.9
		L67.5,35.3z M49.5,19.2H54l0.5-7.6L49.5,19.2z"/>
	<path d="M132.2,10.2h-3.4l-6,16.4h4.2l-3.2,8.6h-21.2l3.1-8.6h3.7l5.4-14.7L100,32.2l-4.3,3.1h-2.3l-2.5-3.1V11.9l-5.4,14.7h3.7
		l-3.2,8.6H69.4l3.1-8.6h3.6l6-16.4H78l3.2-8.7h20.2l2.5,3.8l0.2,8.6l6.4-8.6l5.2-3.8h19.7L132.2,10.2z"/>
	<path d="M164.8,13.3h-8.7l1.1-3.4l-4.8-3L148,8.6v2.2l11.9,6.1l4.1,7.5l-3,7.8l-12.7,4.6l-8.7-5.1l-1.3,3.5h-10.1l4.4-12.2h9.6
		l-1.1,3.4l5.1,3l4.2-1.7v-2.2l-12-6.5l-3.2-6.9l3-7.7L149.9,0l8.7,5.1l1.2-3.3h9.2L164.8,13.3z"/>
	<path d="M214.1,10.2h-3.4l-6,16.4h4.2l-3.2,8.6h-20.3l3.2-8.6h2.7l2.1-5.8h-8l-2.1,5.8h2.7l-3.1,8.6h-19.8l3.1-8.6h3.6l6-16.4h-4.1
		l3.1-8.7h20.3l-3.1,8.7h-2.8l-2.1,5.8h8l2.1-5.8h-2.7l3.1-8.7h19.6L214.1,10.2z"/>
	<path d="M251.9,17.3h-10.5l2.6-7.1h-8.5l-1.8,5.1h6.1l-2.2,6.2h-6.2l-1.8,5.1h8.4l2.6-7.1H251l-4.4,12l-5.6,3.7h-31.9l3.2-8.6h3.6
		l6-16.4h-4.2l3.2-8.7h31.4l3.7,3.8L251.9,17.3z"/>
	<path d="M285.7,30.3l-12.7,5H249l3.1-8.6h3.7l6-16.4h-4.1l3.1-8.7h20.1l9.7,5l2.2,11.9L285.7,30.3z M275.2,10.2l-6,16.4h4.8l6-16.4
		H275.2z"/>
</g>
<g>
	<path d="M45,48.5h-3.4l-6,16.4h4.1l-3.1,8.6H15.3l3.1-8.6h3.7l6-16.4h-4.1l3.1-8.7h21L45,48.5z"/>
	<path d="M77.4,51.7h-8.7l1.1-3.4l-4.8-3L60.6,47v2.2l11.9,6.1l4.1,7.5l-3,7.8l-12.7,4.6l-8.7-5.1l-1.3,3.5H40.7l4.4-12.2h9.6
		l-1.1,3.4l5.1,3l4.2-1.7V64l-12-6.5l-3.2-6.9l3-7.7l11.7-4.6l8.7,5.1l1.2-3.3h9.2L77.4,51.7z"/>
	<path d="M129.9,55.6h-10.5l2.6-7.1h-8.5l-2,5.5h6.1l-2.3,6.3h-6.1l-1.7,4.7h4.1l-3.1,8.6H87.2l3.2-8.6H94l6-16.4h-4.2l3.2-8.7h31.4
		l3.7,3.8L129.9,55.6z"/>
	<path d="M156.5,48.5h-3.4l-6,16.4h4.1l-3.1,8.6h-21.2l3.1-8.6h3.7l6-16.4h-4.1l3.1-8.7h21L156.5,48.5z"/>
	<path d="M187.9,56.5l3.7,4.6l-1.7,5.1h3.8l-2.7,7.4h-12.6l-2.6-5.4l3.2-8.9h-5.1l-2,5.6h3l-2.9,8.6h-20.3l3.1-8.6h3.7l6-16.4h-4.1
		l3.1-8.7h22.4l7.4,3.3l1.9,7.9L187.9,56.5z M177.9,48.5l-2.2,5.8h4.8l2.2-5.8H177.9z"/>
	<path d="M234.2,55.6h-10.5l2.6-7.1h-8.5l-1.8,5.1h6.1l-2.2,6.2h-6.2l-1.8,5.1h8.4l2.6-7.1h10.5l-4.4,12l-5.6,3.7h-31.9l3.2-8.6h3.6
		l6-16.4h-4.2l3.2-8.7h31.4l3.7,3.8L234.2,55.6z"/>
	<path d="M268.1,68.7l-12.7,5h-24.1l3.1-8.6h3.7l6-16.4H240l3.1-8.7h20.1l9.7,5l2.2,11.9L268.1,68.7z M257.5,48.5l-6,16.4h4.8
		l6-16.4H257.5z"/>
</g>
</svg>
