<?xml version="1.0" encoding="utf-8"?>
<!-- Generator: Adobe Illustrator 18.0.0, SVG Export Plug-In . SVG Version: 6.00 Build 0)  -->
<!DOCTYPE svg PUBLIC "-//W3C//DTD SVG 1.1//EN" "http://www.w3.org/Graphics/SVG/1.1/DTD/svg11.dtd">
<svg version="1.1" id="Layer_1" xmlns="http://www.w3.org/2000/svg" xmlns:xlink="http://www.w3.org/1999/xlink" x="0px" y="0px"
	 viewBox="0 0 244.1 255.2" enable-background="new 0 0 244.1 255.2" xml:space="preserve">
<g>
	<path d="M58.5,31.6l-5.6,3.7H23l3.1-8.6h3.7l6-16.4h-4.1l3.1-8.7H56l-3.1,8.7h-3.7l-6,16.4h6.1l2.6-7.1h11L58.5,31.6z"/>
	<path d="M101.7,17.3H91.2l2.6-7.1h-8.5l-1.8,5.1h6.1l-2.2,6.2h-6.2l-1.8,5.1h8.4l2.6-7.1h10.5l-4.4,12l-5.6,3.7H59.1l3.2-8.6h3.6
		l6-16.4h-4.2l3.2-8.7h31.4l3.7,3.8L101.7,17.3z"/>
	<path d="M137.2,16.5h-11.2l2.7-7.3L123.7,7l-7.3,19.7l3.5,1.7l4.9-2l1-2.6h-3.6l1.7-4.9h17.7l-1.8,4.9h-3.2L132,35.8h-6.2l-0.3-3.2
		l-8.4,4.3l-11.3-5.4l-3.2-13l8-13L125.2,0l6.3,3.9l0.8-1.9h10.2L137.2,16.5z"/>
	<path d="M173.6,35.3h-21l3.1-8.6h4l0.1-2.6h-7.4l-1.7,2.6h2.7l-3.1,8.6h-16l3.2-8.6h3L156,5.3l5.6-3.8h7.5l3.7,3.8v21.4h3.9
		L173.6,35.3z M155.6,19.2h4.5l0.5-7.6L155.6,19.2z"/>
	<path d="M211,31.6l-5.6,3.7h-29.9l3.1-8.6h3.7l6-16.4h-4.1l3.1-8.7h21.2l-3.1,8.7h-3.7l-6,16.4h6.1l2.6-7.1h11L211,31.6z"/>
</g>
<g>
	<path d="M47.3,75.9h-21l3.1-8.6h4l0.1-2.6h-7.4l-1.7,2.6h2.7L24,75.9H8l3.2-8.6h3l15.6-21.4l5.6-3.8h7.5l3.7,3.8v21.4h3.9
		L47.3,75.9z M29.3,59.8h4.5l0.5-7.6L29.3,59.8z"/>
	<path d="M84.2,57.1H73l2.5-6.7l-4.9-2.8l-7.3,19.7l3.5,1.7l4.9-2l1.5-4h8.8L78.6,72l-14.5,5.4L52.7,72l-3.2-13l8-13l14.6-5.4
		l6.1,4.4l1-2.4h10.2L84.2,57.1z"/>
	<path d="M124.7,54.9l-7.4-1.1l-4.9,13.4h4.2l-3.2,8.7H92.2l3.1-8.7H99l5.6-15.3l-7.6-1.1l3.1,4.7l-7.9,4.3l-5-7.5l12-12.1l25.1,4.1
		l-2.6-3.5l6.7-4.5l5.4,8.1L124.7,54.9z"/>
	<path d="M153.8,50.8h-3.4l-6,16.4h4.1l-3.1,8.6h-21.2l3.1-8.6h3.7l6-16.4h-4.1l3.1-8.7h21L153.8,50.8z"/>
	<path d="M181.5,72l-14.5,5.4L154.4,72l-3.2-13l8-13l14.6-5.4l12.5,5.4l3.2,13L181.5,72z M172.2,47.6l-8,21.4l4.3,1.5l7.9-21.5
		L172.2,47.6z"/>
	<path d="M232.5,50.8h-3.4l-7.9,21.9l-4.9,3.2h-5.1l-3.8-3.7l-4.7-14.7l-3.5,9.8h3.6l-3.1,8.6h-16.7l3.1-8.6h3.7l6-16.4h-4.1
		l3.1-8.7h12.9l3.7,3.8l4.7,14.7l3.5-9.8h-3.7l3.2-8.7h16.4L232.5,50.8z"/>
</g>
<g>
	<path d="M59,103.9H45.5l2-5.5h2.6l0.1-1.6h-4.7l-1.1,1.6H46l-2,5.5H33.8l2-5.5h1.9l10-13.7l3.6-2.4h4.8l2.4,2.4v13.7H61L59,103.9z
		 M47.4,93.6h2.9l0.3-4.9L47.4,93.6z"/>
	<path d="M91.9,87.8h-2.2l-5.1,14l-3.1,2.1h-3.3l-2.4-2.4l-3-9.4l-2.3,6.3h2.3l-2,5.5H60.2l2-5.5h2.4l3.8-10.5h-2.6l2-5.6h8.3
		l2.4,2.4l3,9.4l2.3-6.3h-2.4l2-5.6h10.5L91.9,87.8z"/>
	<path d="M111.7,100.7l-8.1,3.2H88.1l2-5.5h2.4l3.8-10.5h-2.6l2-5.6h12.9l6.2,3.2l1.4,7.6L111.7,100.7z M104.9,87.8l-3.8,10.5h3.1
		l3.8-10.5H104.9z"/>
	<path d="M147.9,90.4l-4.7-0.7l-3.1,8.6h2.7l-2,5.6h-13.6l2-5.6h2.4l3.6-9.8l-4.9-0.7l2,3l-5.1,2.8l-3.2-4.8l7.7-7.8l16.1,2.6
		l-1.7-2.3l4.3-2.9l3.5,5.2L147.9,90.4z"/>
	<path d="M180.3,87.8h-2.2l-3.8,10.5h2.7l-2,5.5h-13l2-5.5h1.8l1.3-3.7h-5.1l-1.3,3.7h1.8l-2,5.5h-12.7l2-5.5h2.3l3.8-10.5h-2.6
		l2-5.6h13l-2,5.6h-1.8l-1.3,3.7h5.1l1.3-3.7h-1.8l2-5.6h12.6L180.3,87.8z"/>
	<path d="M203.9,92.4h-6.7l1.7-4.5h-5.4l-1.2,3.3h3.9l-1.4,4h-4l-1.2,3.3h5.4l1.7-4.5h6.7l-2.8,7.7l-3.6,2.4h-20.4l2-5.5h2.3
		l3.8-10.5h-2.7l2-5.6h20.1l2.4,2.4L203.9,92.4z"/>
</g>
<g>
	<path d="M22.2,121.3H15l1.6-4.3l-3.2-1.8l-4.7,12.6l2.2,1.1l3.1-1.3l0.9-2.6h5.6l-2.1,5.8l-9.3,3.5l-7.3-3.5L0,122.5l5.1-8.4
		l9.3-3.4l3.9,2.8L19,112h6.5L22.2,121.3z"/>
	<path d="M42.9,130.8l-9.3,3.5l-8-3.5l-2.1-8.4l5.1-8.4l9.3-3.4l8,3.4l2.1,8.4L42.9,130.8z M37,115.2l-5.1,13.7l2.7,0.9l5.1-13.7
		L37,115.2z"/>
	<path d="M84.7,117.2h-2.2l-3.8,10.5h2.7l-2,5.5H65.7l2-5.5h2.4l3.4-9.4l-9.4,13l-2.8,2h-1.5l-1.6-2v-13l-3.4,9.4h2.4l-2,5.5H44.5
		l2-5.5h2.3l3.8-10.5H50l2-5.6H65l1.6,2.4l0.1,5.5l4.1-5.5l3.3-2.4h12.6L84.7,117.2z"/>
	<path d="M121.4,117.2h-2.2l-3.8,10.5h2.7l-2,5.5h-13.6l2-5.5h2.4l3.4-9.4l-9.4,13l-2.8,2h-1.5l-1.6-2v-13l-3.4,9.4h2.4l-2,5.5H81.2
		l2-5.5h2.3l3.8-10.5h-2.7l2-5.6h12.9l1.6,2.4l0.1,5.5l4.1-5.5l3.3-2.4h12.6L121.4,117.2z"/>
	<path d="M137.4,117.2h-2.2l-3.8,10.5h2.6l-2,5.5h-13.6l2-5.5h2.4l3.8-10.5H124l2-5.6h13.5L137.4,117.2z"/>
	<path d="M161.6,119.8l-4.7-0.7l-3.1,8.6h2.7l-2,5.6h-13.6l2-5.6h2.4l3.6-9.8l-4.9-0.7l2,3l-5.1,2.8l-3.2-4.8l7.7-7.8l16.1,2.6
		l-1.7-2.3l4.3-2.9l3.5,5.2L161.6,119.8z"/>
	<path d="M188.4,119.8l-4.7-0.7l-3.1,8.6h2.7l-2,5.6h-13.6l2-5.6h2.4l3.6-9.8l-4.9-0.7l2,3l-5.1,2.8l-3.2-4.8l7.7-7.8l16.1,2.6
		l-1.7-2.3l4.3-2.9l3.5,5.2L188.4,119.8z"/>
	<path d="M215.9,121.8h-6.7l1.7-4.5h-5.4l-1.2,3.3h3.9l-1.4,4h-4l-1.2,3.3h5.4l1.7-4.5h6.7l-2.8,7.7l-3.6,2.4h-20.4l2-5.5h2.3
		l3.8-10.5h-2.7l2-5.6h20.1l2.4,2.4L215.9,121.8z"/>
	<path d="M241.3,121.8h-6.7l1.7-4.5h-5.4l-1.2,3.3h3.9l-1.4,4h-4l-1.2,3.3h5.4l1.7-4.5h6.7l-2.8,7.7l-3.6,2.4H214l2-5.5h2.3
		l3.8-10.5h-2.7l2-5.6h20.1l2.4,2.4L241.3,121.8z"/>
</g>
<g>
	<path d="M46.3,152l-4.7-0.7l-3.1,8.6h2.7l-2,5.6H25.4l2-5.6h2.4l3.6-9.8l-4.9-0.7l2,3l-5.1,2.8l-3.2-4.8l7.7-7.8l16.1,2.6l-1.7-2.3
		l4.3-2.9l3.5,5.2L46.3,152z"/>
	<path d="M67.2,163l-9.3,3.5l-8-3.5l-2.1-8.4l5.1-8.4l9.3-3.4l8,3.4l2.1,8.4L67.2,163z M61.3,147.4l-5.1,13.7l2.7,0.9l5.1-13.7
		L61.3,147.4z"/>
</g>
<g>
	<path d="M107.1,150.5h-8.7l1.1-3.4l-4.8-3l-4.4,1.7v2.2l11.9,6.1l4.1,7.5l-3,7.8l-12.7,4.6l-8.7-5.1l-1.3,3.5H70.5l4.4-12.2h9.6
		l-1.1,3.4l5.1,3l4.2-1.7v-2.2l-12-6.5l-3.2-6.9l3-7.7l11.7-4.6l8.7,5.1l1.2-3.3h9.2L107.1,150.5z"/>
	<path d="M143.7,172.5h-21l3.1-8.6h4l0.1-2.6h-7.4l-1.7,2.6h2.7l-3.1,8.6h-16l3.2-8.6h3l15.6-21.4l5.6-3.8h7.5l3.7,3.8v21.4h3.9
		L143.7,172.5z M125.7,156.4h4.5l0.5-7.6L125.7,156.4z"/>
	<path d="M183.7,147.4h-3l-16.3,21.4l-5.6,3.7h-6l-3.7-3.7l-0.8-21.4h-3.4l3.1-8.7h19.8l-3.1,8.7H162l-0.6,12.3l8.4-12.3H167
		l3.1-8.7h16.7L183.7,147.4z"/>
	<path d="M220,154.5h-10.5l2.6-7.1h-8.5l-1.8,5.1h6.1l-2.2,6.2h-6.2l-1.8,5.1h8.4l2.6-7.1h10.5l-4.4,12l-5.6,3.7h-31.9l3.2-8.6h3.6
		l6-16.4H186l3.2-8.7h31.4l3.7,3.8L220,154.5z"/>
</g>
<g>
	<path d="M43.5,194.3H32.3l2.5-6.7l-4.9-2.8l-7.3,19.7l3.5,1.7l4.9-2l1.5-4h8.8l-3.3,9.1l-14.5,5.4l-11.3-5.4l-3.2-13l8-13l14.6-5.4
		l6.1,4.4l1-2.4h10.2L43.5,194.3z"/>
	<path d="M74.9,209.2l-14.5,5.4l-12.5-5.4l-3.2-13l8-13l14.6-5.4l12.5,5.4l3.2,13L74.9,209.2z M65.7,184.8l-8,21.4l4.3,1.5l7.9-21.5
		L65.7,184.8z"/>
	<path d="M114.3,209.2l-14.5,5.4l-12.5-5.4l-3.2-13l8-13l14.6-5.4l12.5,5.4l3.2,13L114.3,209.2z M105,184.8l-8,21.4l4.3,1.5
		l7.9-21.5L105,184.8z"/>
	<path d="M155.8,197.4l-8,3.1h-9.3l-1.4,3.9h4.1l-3.1,8.6h-21.2l3.1-8.6h3.7l6-16.4h-4.1l3.1-8.7H151l7.4,3.3l1.9,7.9L155.8,197.4z
		 M143.1,188l-2.2,5.8h4.8l2.2-5.8H143.1z"/>
	<path d="M195.3,195.1h-10.5l2.6-7.1h-8.5l-1.8,5.1h6.1l-2.2,6.2h-6.2l-1.8,5.1h8.4l2.6-7.1h10.5l-4.4,12l-5.6,3.7h-31.9l3.2-8.6
		h3.6l6-16.4h-4.2l3.2-8.7h31.4l3.7,3.8L195.3,195.1z"/>
	<path d="M227.7,195.9l3.7,4.6l-1.7,5.1h3.8l-2.7,7.4h-12.6l-2.6-5.4l3.2-8.9h-5.1l-2,5.6h3l-2.9,8.6h-20.3l3.1-8.6h3.7l6-16.4h-4.1
		l3.1-8.7h22.4l7.4,3.3l1.9,7.9L227.7,195.9z M217.8,188l-2.2,5.8h4.8l2.2-5.8H217.8z"/>
</g>
<g>
	<path d="M69.2,228.6h-3.2l-5.9,16.1l-6.3,6.7l-12.2,3.9L31,251.4l-2.3-8l5.3-14.8h-3.7l3.2-8.7h20.3l-3.2,8.7h-3.2l-6,16.4l3.5,1.7
		l4.9-2l5.8-16.1h-2.7l3.2-8.7h16.2L69.2,228.6z"/>
	<path d="M112.9,228.6h-3.4l-7.9,21.9l-4.9,3.2h-5.1l-3.8-3.7l-4.7-14.7l-3.5,9.8h3.6l-3.1,8.6H63.4l3.1-8.6h3.7l6-16.4h-4.1
		l3.1-8.7h12.9l3.7,3.8l4.7,14.7l3.5-9.8h-3.7l3.2-8.7H116L112.9,228.6z"/>
	<path d="M136.7,228.6h-3.4l-6,16.4h4.1l-3.1,8.6H107l3.1-8.6h3.7l6-16.4h-4.1l3.1-8.7h21L136.7,228.6z"/>
	<path d="M165.3,249.8l-14.5,5.4l-12.5-5.4l-3.2-13l8-13l14.6-5.4l12.5,5.4l3.2,13L165.3,249.8z M156,225.4l-8,21.4l4.3,1.5
		l7.9-21.5L156,225.4z"/>
	<path d="M218.1,228.6h-3.4l-7.9,21.9l-4.9,3.2h-5.1L193,250l-4.7-14.7l-3.5,9.8h3.6l-3.1,8.6h-16.7l3.1-8.6h3.7l6-16.4h-4.1
		l3.1-8.7h12.9l3.7,3.8l4.7,14.7l3.5-9.8h-3.7l3.2-8.7h16.4L218.1,228.6z"/>
</g>
</svg>
