<?xml version="1.0" encoding="utf-8"?>
<!-- Generator: Adobe Illustrator 18.0.0, SVG Export Plug-In . SVG Version: 6.00 Build 0)  -->
<!DOCTYPE svg PUBLIC "-//W3C//DTD SVG 1.1//EN" "http://www.w3.org/Graphics/SVG/1.1/DTD/svg11.dtd">
<svg version="1.1" id="Layer_1" xmlns="http://www.w3.org/2000/svg" xmlns:xlink="http://www.w3.org/1999/xlink" x="0px" y="0px"
	 viewBox="0 0 346.2 167.7" enable-background="new 0 0 346.2 167.7" xml:space="preserve">
<text transform="matrix(1 0 0 1 92.9312 39.2891)"><tspan x="0" y="0" font-family="'AcropolisHTF-BlackItalic'" font-size="44.8" letter-spacing="-2">O</tspan><tspan x="36.7" y="0" font-family="'AcropolisHTF-BlackItalic'" font-size="44.8">P</tspan><tspan x="72.6" y="0" font-family="'AcropolisHTF-BlackItalic'" font-size="44.8">EN</tspan></text>
<g>
	<path d="M85,75.4l-5.6,3.7H49.4l3.1-8.6h3.7l6-16.4h-4.1l3.1-8.7h21.2L79.3,54h-3.7l-6,16.4h6.1l2.6-7.1h11L85,75.4z"/>
	<path d="M128.2,61.1h-10.5l2.6-7.1h-8.5l-1.8,5.1h6.1l-2.2,6.2h-6.2l-1.8,5.1h8.4l2.6-7.1h10.5l-4.4,12l-5.6,3.7H85.5l3.2-8.6h3.6
		l6-16.4h-4.2l3.2-8.7h31.4l3.7,3.8L128.2,61.1z"/>
	<path d="M168.6,58.1l-7.4-1.1l-4.9,13.4h4.2l-3.2,8.7h-21.2l3.1-8.7h3.7l5.6-15.3l-7.6-1.1l3.1,4.7l-7.9,4.3l-5-7.5l12-12.1
		l25.1,4.1l-2.6-3.5l6.7-4.5l5.4,8.1L168.6,58.1z"/>
	<path d="M210.5,58.1l-7.4-1.1l-4.9,13.4h4.2l-3.2,8.7H178l3.1-8.7h3.7l5.6-15.3l-7.6-1.1l3.1,4.7L178,63l-5-7.5l12-12.1l25.1,4.1
		l-2.6-3.5l6.7-4.5l5.4,8.1L210.5,58.1z"/>
	<path d="M251.7,61.1h-10.5l2.6-7.1h-8.5l-1.8,5.1h6.1l-2.2,6.2h-6.2l-1.8,5.1h8.4l2.6-7.1h10.5l-4.4,12l-5.6,3.7H209l3.2-8.6h3.6
		l6-16.4h-4.2l3.2-8.7h31.4l3.7,3.8L251.7,61.1z"/>
	<path d="M284,61.9l3.7,4.6l-1.7,5.1h3.8l-2.7,7.4h-12.6l-2.6-5.4l3.2-8.9h-5.1l-2,5.6h3l-2.9,8.6h-20.3l3.1-8.6h3.7l6-16.4h-4.1
		l3.1-8.7H282l7.4,3.3l1.9,7.9L284,61.9z M274.1,54l-2.2,5.8h4.8l2.2-5.8H274.1z"/>
</g>
<text transform="matrix(1 0 0 1 144.522 104.8887)"><tspan x="0" y="0" font-family="'AcropolisHTF-BlackItalic'" font-size="28.7" letter-spacing="-1">T</tspan><tspan x="25.7" y="0" font-family="'AcropolisHTF-BlackItalic'" font-size="28.7">O</tspan></text>
<text transform="matrix(1 0 0 1 1.8369 140.6885)"><tspan x="0" y="0" font-family="'AcropolisHTF-BlackItalic'" font-size="44.8">PRESI</tspan><tspan x="173" y="0" font-family="'AcropolisHTF-BlackItalic'" font-size="44.8">D</tspan><tspan x="213.1" y="0" font-family="'AcropolisHTF-BlackItalic'" font-size="44.8">ENT</tspan></text>
<g>
	<path d="M88.1,155.5l3.1,4.1l-3,5l-5.5,2.1H64.6l2-5.5h2.4l3.8-10.5h-2.6l2-5.6h14.4l4.8,2.1l1.2,5.1L88.1,155.5z M78.8,157.6
		l-1.3,3.6h3.1l1.3-3.6H78.8z M81.4,150.6l-1.3,3.6h3.1l1.3-3.6H81.4z"/>
	<path d="M122.3,150.6h-2.2l-3.8,10.5h2.7l-2,5.5h-13l2-5.5h1.8l1.3-3.7h-5.1l-1.3,3.7h1.8l-2,5.5H89.5l2-5.5h2.3l3.8-10.5h-2.6
		l2-5.6h13l-2,5.6h-1.8l-1.3,3.7h5.1l1.3-3.7h-1.8l2-5.6h12.6L122.3,150.6z"/>
	<path d="M143.2,166.7h-13.5l2-5.5h2.6l0.1-1.6h-4.7l-1.1,1.6h1.8l-2,5.5H118l2-5.5h1.9l10-13.7l3.6-2.4h4.8l2.4,2.4v13.7h2.5
		L143.2,166.7z M131.7,156.4h2.9l0.3-4.9L131.7,156.4z"/>
	<path d="M168.2,155.7l2.4,3l-1.1,3.3h2.4l-1.8,4.8h-8.1l-1.7-3.4l2.1-5.7h-3.2l-1.3,3.6h1.9l-1.9,5.5h-13l2-5.5h2.4l3.8-10.5h-2.6
		l2-5.6h14.4l4.8,2.1l1.2,5.1L168.2,155.7z M161.8,150.6l-1.4,3.7h3.1l1.4-3.7H161.8z"/>
	<path d="M199.4,150.6h-2.1l-3.8,10.3l-4,4.3l-7.8,2.5l-6.7-2.5l-1.5-5.1l3.4-9.5h-2.4l2-5.6h13l-2,5.6h-2l-3.8,10.5l2.2,1.1
		l3.1-1.3l3.7-10.3h-1.8l2-5.6h10.4L199.4,150.6z"/>
	<path d="M220.4,154.7h-7.1l1.6-4.3l-3.2-1.8l-4.7,12.6l2.2,1.1l3.1-1.3l0.9-2.6h5.6l-2.1,5.8l-9.3,3.5l-7.3-3.5l-2.1-8.4l5.1-8.4
		l9.3-3.4l3.9,2.8l0.6-1.5h6.5L220.4,154.7z"/>
	<path d="M251.3,150.6h-2.2l-3.8,10.5h2.7l-2,5.5h-13l2-5.5h1.8l1.3-3.7h-5.1l-1.3,3.7h1.8l-2,5.5h-12.7l2-5.5h2.3l3.8-10.5h-2.6
		l2-5.6h13l-2,5.6h-1.8l-1.3,3.7h5.1l1.3-3.7h-1.8l2-5.6h12.6L251.3,150.6z"/>
	<path d="M272.3,166.7h-13.5l2-5.5h2.6l0.1-1.6h-4.7l-1.1,1.6h1.8l-2,5.5h-10.2l2-5.5h1.9l10-13.7l3.6-2.4h4.8l2.4,2.4v13.7h2.5
		L272.3,166.7z M260.7,156.4h2.9l0.3-4.9L260.7,156.4z"/>
</g>
<g>
	<path d="M126.2,35.4l-14.5,5.4l-12.5-5.4l-3.2-13l8-13L118.5,4L131,9.4l3.2,13L126.2,35.4z M116.9,11l-8,21.4l4.3,1.5l7.9-21.5
		L116.9,11z"/>
	<path d="M166.8,23.6l-8,3.1h-9.3l-1.4,3.9h4.1l-3.1,8.6h-21.2l3.1-8.6h3.7l6-16.4h-4.1l3.1-8.7H162l7.4,3.3l1.9,7.9L166.8,23.6z
		 M154.1,14.2l-2.2,5.8h4.8l2.2-5.8H154.1z"/>
	<path d="M206.3,21.3h-10.5l2.6-7.1h-8.5l-1.8,5.1h6.1l-2.2,6.2h-6.2l-1.8,5.1h8.4l2.6-7.1h10.5l-4.4,12l-5.6,3.7h-31.9l3.2-8.6h3.6
		l6-16.4h-4.2l3.2-8.7h31.4l3.7,3.8L206.3,21.3z"/>
	<path d="M252,14.2h-3.4l-7.9,21.9l-4.9,3.2h-5.1l-3.8-3.7l-4.7-14.7l-3.5,9.8h3.6l-3.1,8.6h-16.7l3.1-8.6h3.7l6-16.4h-4.1l3.1-8.7
		h12.9l3.7,3.8l4.7,14.7l3.5-9.8h-3.7l3.2-8.7h16.4L252,14.2z"/>
</g>
<g>
	<path d="M85,75.4l-5.6,3.7H49.4l3.1-8.6h3.7l6-16.4h-4.1l3.1-8.7h21.2L79.3,54h-3.7l-6,16.4h6.1l2.6-7.1h11L85,75.4z"/>
	<path d="M128.2,61.1h-10.5l2.6-7.1h-8.5l-1.8,5.1h6.1l-2.2,6.2h-6.2l-1.8,5.1h8.4l2.6-7.1h10.5l-4.4,12l-5.6,3.7H85.5l3.2-8.6h3.6
		l6-16.4h-4.2l3.2-8.7h31.4l3.7,3.8L128.2,61.1z"/>
	<path d="M168.6,58.1l-7.4-1.1l-4.9,13.4h4.2l-3.2,8.7h-21.2l3.1-8.7h3.7l5.6-15.3l-7.6-1.1l3.1,4.7l-7.9,4.3l-5-7.5l12-12.1
		l25.1,4.1l-2.6-3.5l6.7-4.5l5.4,8.1L168.6,58.1z"/>
	<path d="M210.5,58.1l-7.4-1.1l-4.9,13.4h4.2l-3.2,8.7H178l3.1-8.7h3.7l5.6-15.3l-7.6-1.1l3.1,4.7L178,63l-5-7.5l12-12.1l25.1,4.1
		l-2.6-3.5l6.7-4.5l5.4,8.1L210.5,58.1z"/>
	<path d="M251.7,61.1h-10.5l2.6-7.1h-8.5l-1.8,5.1h6.1l-2.2,6.2h-6.2l-1.8,5.1h8.4l2.6-7.1h10.5l-4.4,12l-5.6,3.7H209l3.2-8.6h3.6
		l6-16.4h-4.2l3.2-8.7h31.4l3.7,3.8L251.7,61.1z"/>
	<path d="M284,61.9l3.7,4.6l-1.7,5.1h3.8l-2.7,7.4h-12.6l-2.6-5.4l3.2-8.9h-5.1l-2,5.6h3l-2.9,8.6h-20.3l3.1-8.6h3.7l6-16.4h-4.1
		l3.1-8.7H282l7.4,3.3l1.9,7.9L284,61.9z M274.1,54l-2.2,5.8h4.8l2.2-5.8H274.1z"/>
</g>
<g>
	<path d="M170.6,91.4l-4.7-0.7l-3.1,8.6h2.7l-2,5.6h-13.6l2-5.6h2.4l3.6-9.8l-4.9-0.7l2,3l-5.1,2.8l-3.2-4.8l7.7-7.8l16.1,2.6
		l-1.7-2.3l4.3-2.9l3.5,5.2L170.6,91.4z"/>
	<path d="M191.5,102.4l-9.3,3.5l-8-3.5l-2.1-8.4l5.1-8.4l9.3-3.4l8,3.4l2.1,8.4L191.5,102.4z M185.6,86.7l-5.1,13.7l2.7,0.9
		l5.1-13.7L185.6,86.7z"/>
</g>
<g>
	<path d="M39,125l-8,3.1h-9.3l-1.4,3.9h4.1l-3.1,8.6H0l3.1-8.6h3.7l6-16.4H8.6l3.1-8.7h22.4l7.4,3.3l1.9,7.9L39,125z M26.3,115.6
		l-2.2,5.8h4.8l2.2-5.8H26.3z"/>
	<path d="M72.9,123.5l3.7,4.6l-1.7,5.1h3.8l-2.7,7.4H63.3l-2.6-5.4l3.2-8.9h-5.1l-2,5.6h3l-2.9,8.6H36.7l3.1-8.6h3.7l6-16.4h-4.1
		l3.1-8.7h22.4l7.4,3.3l1.9,7.9L72.9,123.5z M62.9,115.6l-2.2,5.8h4.8l2.2-5.8H62.9z"/>
	<path d="M118.4,122.7h-10.5l2.6-7.1H102l-1.8,5.1h6.1l-2.2,6.2h-6.2L96,132h8.4l2.6-7.1h10.5l-4.4,12l-5.6,3.7H75.7l3.2-8.6h3.6
		l6-16.4h-4.2l3.2-8.7h31.4l3.7,3.8L118.4,122.7z"/>
	<path d="M151.8,118.7h-8.7l1.1-3.4l-4.8-3L135,114v2.2l11.9,6.1l4.1,7.5l-3,7.8l-12.7,4.6l-8.7-5.1l-1.3,3.5h-10.1l4.4-12.2h9.6
		l-1.1,3.4l5.1,3l4.2-1.7V131l-12-6.5l-3.2-6.9l3-7.7l11.7-4.6l8.7,5.1l1.2-3.3h9.2L151.8,118.7z"/>
	<path d="M178.7,115.6h-3.4l-6,16.4h4.1l-3.1,8.6H149l3.1-8.6h3.7l6-16.4h-4.1l3.1-8.7h21L178.7,115.6z"/>
	<path d="M209.8,135.7l-12.7,5H173l3.1-8.6h3.7l6-16.4h-4.1l3.1-8.7h20.1l9.7,5l2.2,11.9L209.8,135.7z M199.2,115.6l-6,16.4h4.8
		l6-16.4H199.2z"/>
	<path d="M255.8,122.7h-10.5l2.6-7.1h-8.5l-1.8,5.1h6.1l-2.2,6.2h-6.2l-1.8,5.1h8.4l2.6-7.1h10.5l-4.4,12l-5.6,3.7h-31.9l3.2-8.6
		h3.6l6-16.4h-4.2l3.2-8.7h31.4l3.7,3.8L255.8,122.7z"/>
	<path d="M301.4,115.6H298l-7.9,21.9l-4.9,3.2h-5.1l-3.8-3.7l-4.7-14.7l-3.5,9.8h3.6l-3.1,8.6H252l3.1-8.6h3.7l6-16.4h-4.1l3.1-8.7
		h12.9l3.7,3.8l4.7,14.7l3.5-9.8H285l3.2-8.7h16.4L301.4,115.6z"/>
	<path d="M337.2,119.7l-7.4-1.1l-4.9,13.4h4.2l-3.2,8.7h-21.2l3.1-8.7h3.7l5.6-15.3l-7.6-1.1l3.1,4.7l-7.9,4.3l-5-7.5l12-12.1
		l25.1,4.1l-2.6-3.5l6.7-4.5l5.4,8.1L337.2,119.7z"/>
</g>
<g>
	<path d="M88.1,155.5l3.1,4.1l-3,5l-5.5,2.1H64.6l2-5.5h2.4l3.8-10.5h-2.6l2-5.6h14.4l4.8,2.1l1.2,5.1L88.1,155.5z M78.8,157.6
		l-1.3,3.6h3.1l1.3-3.6H78.8z M81.4,150.6l-1.3,3.6h3.1l1.3-3.6H81.4z"/>
	<path d="M122.3,150.6h-2.2l-3.8,10.5h2.7l-2,5.5h-13l2-5.5h1.8l1.3-3.7h-5.1l-1.3,3.7h1.8l-2,5.5H89.5l2-5.5h2.3l3.8-10.5h-2.6
		l2-5.6h13l-2,5.6h-1.8l-1.3,3.7h5.1l1.3-3.7h-1.8l2-5.6h12.6L122.3,150.6z"/>
	<path d="M143.2,166.7h-13.5l2-5.5h2.6l0.1-1.6h-4.7l-1.1,1.6h1.8l-2,5.5H118l2-5.5h1.9l10-13.7l3.6-2.4h4.8l2.4,2.4v13.7h2.5
		L143.2,166.7z M131.7,156.4h2.9l0.3-4.9L131.7,156.4z"/>
	<path d="M168.2,155.7l2.4,3l-1.1,3.3h2.4l-1.8,4.8h-8.1l-1.7-3.4l2.1-5.7h-3.2l-1.3,3.6h1.9l-1.9,5.5h-13l2-5.5h2.4l3.8-10.5h-2.6
		l2-5.6h14.4l4.8,2.1l1.2,5.1L168.2,155.7z M161.8,150.6l-1.4,3.7h3.1l1.4-3.7H161.8z"/>
	<path d="M199.4,150.6h-2.1l-3.8,10.3l-4,4.3l-7.8,2.5l-6.7-2.5l-1.5-5.1l3.4-9.5h-2.4l2-5.6h13l-2,5.6h-2l-3.8,10.5l2.2,1.1
		l3.1-1.3l3.7-10.3h-1.8l2-5.6h10.4L199.4,150.6z"/>
	<path d="M220.4,154.7h-7.1l1.6-4.3l-3.2-1.8l-4.7,12.6l2.2,1.1l3.1-1.3l0.9-2.6h5.6l-2.1,5.8l-9.3,3.5l-7.3-3.5l-2.1-8.4l5.1-8.4
		l9.3-3.4l3.9,2.8l0.6-1.5h6.5L220.4,154.7z"/>
	<path d="M251.3,150.6h-2.2l-3.8,10.5h2.7l-2,5.5h-13l2-5.5h1.8l1.3-3.7h-5.1l-1.3,3.7h1.8l-2,5.5h-12.7l2-5.5h2.3l3.8-10.5h-2.6
		l2-5.6h13l-2,5.6h-1.8l-1.3,3.7h5.1l1.3-3.7h-1.8l2-5.6h12.6L251.3,150.6z"/>
	<path d="M272.3,166.7h-13.5l2-5.5h2.6l0.1-1.6h-4.7l-1.1,1.6h1.8l-2,5.5h-10.2l2-5.5h1.9l10-13.7l3.6-2.4h4.8l2.4,2.4v13.7h2.5
		L272.3,166.7z M260.7,156.4h2.9l0.3-4.9L260.7,156.4z"/>
</g>
</svg>
