<?xml version="1.0" encoding="utf-8"?>
<!-- Generator: Adobe Illustrator 18.0.0, SVG Export Plug-In . SVG Version: 6.00 Build 0)  -->
<!DOCTYPE svg PUBLIC "-//W3C//DTD SVG 1.1//EN" "http://www.w3.org/Graphics/SVG/1.1/DTD/svg11.dtd">
<svg version="1.1" id="Layer_1" xmlns="http://www.w3.org/2000/svg" xmlns:xlink="http://www.w3.org/1999/xlink" x="0px" y="0px"
	 viewBox="0 0 341 167.1" enable-background="new 0 0 341 167.1" xml:space="preserve">
<g>
	<path d="M69.9,20.3l-9.3,3.5l-8-3.5L50.5,12l5.1-8.4L65,0.2l8,3.4l2.1,8.4L69.9,20.3z M64,4.7l-5.1,13.7l2.7,0.9l5.1-13.7L64,4.7z"
		/>
	<path d="M96.4,11.8l2.4,3l-1.1,3.3h2.4l-1.8,4.8h-8.1l-1.7-3.4l2.1-5.7h-3.2l-1.3,3.6h1.9l-1.9,5.5h-13l2-5.5h2.4l3.8-10.5h-2.6
		l2-5.6h14.4l4.8,2.1l1.2,5.1L96.4,11.8z M90.1,6.7l-1.4,3.7h3.1l1.4-3.7H90.1z"/>
	<path d="M124,10.8h-7.1l1.7-4.6l-3.3-1.5l-4.7,12.6l2.2,1.1l3.1-1.3l0.6-1.7h-2.3l1.1-3.1h11.3l-1.1,3.1h-2.1l-2.8,7.7h-4l-0.2-2.1
		l-5.4,2.8l-7.3-3.5l-2.1-8.4l5.1-8.4l9.3-3.4l4,2.5l0.5-1.2h6.5L124,10.8z"/>
	<path d="M149,22.8h-13.5l2-5.5h2.6l0.1-1.6h-4.7l-1.1,1.6h1.8l-2,5.5h-10.2l2-5.5h1.9l10-13.7l3.6-2.4h4.8l2.4,2.4v13.7h2.5
		L149,22.8z M137.5,12.5h2.9l0.3-4.9L137.5,12.5z"/>
	<path d="M181.9,6.7h-2.2l-5.1,14l-3.1,2.1h-3.3l-2.4-2.4l-3-9.4l-2.3,6.3h2.3l-2,5.5h-10.7l2-5.5h2.4l3.8-10.5h-2.6l2-5.6h8.3
		l2.4,2.4l3,9.4l2.3-6.3h-2.4l2-5.6h10.5L181.9,6.7z"/>
	<path d="M197.2,6.7H195l-3.8,10.5h2.6l-2,5.5h-13.6l2-5.5h2.4l3.8-10.5h-2.6l2-5.6h13.5L197.2,6.7z"/>
	<path d="M207.6,14.8l7,1.3l1.8-4.1l3.6,1.1l-4.5,10.7l-15.1-3.4l-4.2,3.4l-2.2-2.4l15.6-12l-5.9-1.2l-1.6,3.6l-3.6-1.1L202.9,0
		l14.2,3.4l4.3-3.4l2.2,2.4L207.6,14.8z"/>
	<path d="M238.1,6.7h-2.2L232,17.3h2.6l-2,5.5h-13.6l2-5.5h2.4l3.8-10.5h-2.6l2-5.6h13.5L238.1,6.7z"/>
	<path d="M266.7,6.7h-2.2l-5.1,14l-3.1,2.1H253l-2.4-2.4l-3-9.4l-2.3,6.3h2.3l-2,5.5H235l2-5.5h2.4l3.8-10.5h-2.6l2-5.6h8.3l2.4,2.4
		l3,9.4l2.3-6.3h-2.4l2-5.6h10.5L266.7,6.7z"/>
	<path d="M288.1,10.8H281l1.7-4.6l-3.3-1.5l-4.7,12.6l2.2,1.1l3.1-1.3l0.6-1.7h-2.3l1.1-3.1h11.3l-1.1,3.1h-2.1l-2.8,7.7h-4
		l-0.2-2.1l-5.4,2.8l-7.3-3.5l-2.1-8.4l5.1-8.4l9.3-3.4l4,2.5l0.5-1.2h6.5L288.1,10.8z"/>
</g>
<g>
	<path d="M143.9,47.7h-13.5l2-5.5h2.6l0.1-1.6h-4.7l-1.1,1.6h1.8l-2,5.5h-10.2l2-5.5h1.9l10-13.7l3.6-2.4h4.8l2.4,2.4v13.7h2.5
		L143.9,47.7z M132.4,37.4h2.9l0.3-4.9L132.4,37.4z"/>
	<path d="M169,33.7h-5.6l0.7-2.2l-3.1-1.9l-2.8,1.1v1.4l7.6,3.9l2.6,4.8l-2,5l-8.1,2.9l-5.6-3.3l-0.9,2.3h-6.5l2.8-7.8h6.1l-0.7,2.2
		l3.3,1.9l2.7-1.1v-1.4l-7.7-4.2l-2-4.4L152,28l7.5-2.9l5.6,3.3l0.8-2.1h5.9L169,33.7z"/>
	<path d="M193.7,31.7h-2.2l-3.8,10.5h2.6l-2,5.5h-13.6l2-5.5h2.4l3.8-10.5h-2.6l2-5.6h13.5L193.7,31.7z"/>
	<path d="M218.6,36.2h-6.7l1.7-4.5h-5.4l-1.3,3.5h3.9l-1.5,4h-3.9l-1.1,3h2.6l-2,5.5h-13.6l2-5.5h2.3l3.8-10.5h-2.7l2-5.6H219
		l2.4,2.4L218.6,36.2z"/>
</g>
<g>
	<path d="M100.2,63.6h-8.7l1.1-3.4l-4.8-3l-4.4,1.7v2.2l11.9,6.1l4.1,7.5l-3,7.8l-12.7,4.6L75,82l-1.3,3.5H63.5L68,73.3h9.6
		l-1.1,3.4l5.1,3l4.2-1.7v-2.2l-12-6.5l-3.2-6.9l3-7.7l11.7-4.6l8.7,5.1l1.2-3.3h9.2L100.2,63.6z"/>
	<path d="M129.9,81.7l-14.5,5.4l-12.5-5.4l-3.2-13l8-13l14.6-5.4l12.5,5.4l3.2,13L129.9,81.7z M120.6,57.2l-8,21.4l4.3,1.5l7.9-21.5
		L120.6,57.2z"/>
	<path d="M173.5,66.7h-11.2l2.5-6.7l-4.9-2.8l-7.3,19.7l3.5,1.7l4.9-2l1.5-4h8.8l-3.3,9.1l-14.5,5.4l-11.3-5.4l-3.2-13l8-13
		l14.6-5.4l6.1,4.4l1-2.4h10.2L173.5,66.7z"/>
	<path d="M199.5,60.4h-3.4l-6,16.4h4.1l-3.1,8.6h-21.2l3.1-8.6h3.7l6-16.4h-4.1l3.1-8.7h21L199.5,60.4z"/>
	<path d="M233.1,85.5h-21l3.1-8.6h4l0.1-2.6h-7.4l-1.7,2.6h2.7l-3.1,8.6h-16l3.2-8.6h3l15.6-21.4l5.6-3.8h7.5l3.7,3.8v21.4h3.9
		L233.1,85.5z M215.1,69.4h4.5l0.5-7.6L215.1,69.4z"/>
	<path d="M270.6,81.8l-5.6,3.7h-29.9l3.1-8.6h3.7l6-16.4h-4.1l3.1-8.7h21.2l-3.1,8.7h-3.7l-6,16.4h6.1l2.6-7.1h11L270.6,81.8z"/>
</g>
<g>
	<path d="M36.2,110.2l3.7,4.6l-1.7,5.1H42l-2.7,7.4H26.7l-2.6-5.4l3.2-8.9h-5.1l-2,5.6h3l-2.9,8.6H0l3.1-8.6h3.7l6-16.4H8.6l3.1-8.7
		h22.4l7.4,3.3l1.9,7.9L36.2,110.2z M26.3,102.2l-2.2,5.8h4.8l2.2-5.8H26.3z"/>
	<path d="M84.4,109.3H73.8l2.6-7.1H68l-1.8,5.1h6.1l-2.2,6.2h-6.2l-1.8,5.1h8.4l2.6-7.1h10.5l-4.4,12l-5.6,3.7H41.7l3.2-8.6h3.6
		l6-16.4h-4.2l3.2-8.7h31.4l3.7,3.8L84.4,109.3z"/>
	<path d="M116.1,123.6l-5.6,3.7H80.5l3.1-8.6h3.7l6-16.4h-4.1l3.1-8.7h21.2l-3.1,8.7h-3.7l-6,16.4h6.1l2.6-7.1h11L116.1,123.6z"/>
	<path d="M155.9,127.3h-21l3.1-8.6h4l0.1-2.6h-7.4l-1.7,2.6h2.7l-3.1,8.6h-16l3.2-8.6h3l15.6-21.4l5.6-3.8h7.5l3.7,3.8v21.4h3.9
		L155.9,127.3z M138,111.2h4.5l0.5-7.6L138,111.2z"/>
	<path d="M195,106.3l-7.4-1.1l-4.9,13.4h4.2l-3.2,8.7h-21.2l3.1-8.7h3.7l5.6-15.3l-7.6-1.1l3.1,4.7l-7.9,4.3l-5-7.5l12-12.1
		l25.1,4.1l-2.6-3.5l6.7-4.5l5.4,8.1L195,106.3z"/>
	<path d="M224,102.2h-3.4l-6,16.4h4.1l-3.1,8.6h-21.2l3.1-8.6h3.7l6-16.4H203l3.1-8.7h21L224,102.2z"/>
	<path d="M252.6,123.5l-14.5,5.4l-12.5-5.4l-3.2-13l8-13l14.6-5.4l12.5,5.4l3.2,13L252.6,123.5z M243.4,99l-8,21.4l4.3,1.5l7.9-21.5
		L243.4,99z"/>
	<path d="M305.4,102.2H302l-7.9,21.9l-4.9,3.2h-5.1l-3.8-3.7l-4.7-14.7l-3.5,9.8h3.6l-3.1,8.6H256l3.1-8.6h3.7l6-16.4h-4.1l3.1-8.7
		h12.9l3.7,3.8l4.7,14.7l3.5-9.8H289l3.2-8.7h16.4L305.4,102.2z"/>
	<path d="M336.8,105.4h-8.7l1.1-3.4l-4.8-3l-4.4,1.7v2.2l11.9,6.1l4.1,7.5l-3,7.8l-12.7,4.6l-8.7-5.1l-1.3,3.5h-10.1l4.4-12.2h9.6
		l-1.1,3.4l5.1,3l4.2-1.7v-2.2l-12-6.5l-3.2-6.9l3-7.7l11.7-4.6l8.7,5.1l1.2-3.3h9.2L336.8,105.4z"/>
</g>
<g>
	<path d="M102.9,142h-3.4l-6,16.4h4.2l-3.2,8.6H73.2l3.1-8.6H80l5.4-14.7L70.7,164l-4.3,3.1h-2.3l-2.5-3.1v-20.3l-5.4,14.7h3.7
		l-3.2,8.6H40.1l3.1-8.6h3.6l6-16.4h-4.2l3.2-8.7h20.2l2.5,3.8l0.2,8.6l6.4-8.6l5.2-3.8H106L102.9,142z"/>
	<path d="M135.8,167.1h-21l3.1-8.6h4l0.1-2.6h-7.4l-1.7,2.6h2.7l-3.1,8.6h-16l3.2-8.6h3l15.6-21.4l5.6-3.8h7.5l3.7,3.8v21.4h3.9
		L135.8,167.1z M117.8,151h4.5l0.5-7.6L117.8,151z"/>
	<path d="M174,146.1l-7.4-1.1l-4.9,13.4h4.2l-3.2,8.7h-21.2l3.1-8.7h3.7l5.6-15.3l-7.6-1.1l3.1,4.7l-7.9,4.3l-5-7.5l12-12.1
		l25.1,4.1l-2.6-3.5l6.7-4.5l5.4,8.1L174,146.1z"/>
	<path d="M215.8,146.1l-7.4-1.1l-4.9,13.4h4.2l-3.2,8.7h-21.2l3.1-8.7h3.7l5.6-15.3l-7.6-1.1l3.1,4.7l-7.9,4.3l-5-7.5l12-12.1
		l25.1,4.1l-2.6-3.5l6.7-4.5l5.4,8.1L215.8,146.1z"/>
	<path d="M258.7,149.1h-10.5l2.6-7.1h-8.5l-1.8,5.1h6.1l-2.2,6.2h-6.2l-1.8,5.1h8.4l2.6-7.1h10.5l-4.4,12l-5.6,3.7h-31.9l3.2-8.6
		h3.6l6-16.4h-4.2l3.2-8.7h31.4l3.7,3.8L258.7,149.1z"/>
	<path d="M291.1,149.9l3.7,4.6l-1.7,5.1h3.8l-2.7,7.4h-12.6l-2.6-5.4l3.2-8.9h-5.1l-2,5.6h3l-2.9,8.6h-20.3l3.1-8.6h3.7l6-16.4h-4.1
		l3.1-8.7h22.4l7.4,3.3l1.9,7.9L291.1,149.9z M281.2,142l-2.2,5.8h4.8l2.2-5.8H281.2z"/>
</g>
</svg>
