<?xml version="1.0" encoding="utf-8"?>
<!-- Generator: Adobe Illustrator 18.0.0, SVG Export Plug-In . SVG Version: 6.00 Build 0)  -->
<!DOCTYPE svg PUBLIC "-//W3C//DTD SVG 1.1//EN" "http://www.w3.org/Graphics/SVG/1.1/DTD/svg11.dtd">
<svg version="1.1" id="Layer_1" xmlns="http://www.w3.org/2000/svg" xmlns:xlink="http://www.w3.org/1999/xlink" x="0px" y="0px"
	 viewBox="0 0 341.7 160.2" enable-background="new 0 0 341.7 160.2" xml:space="preserve">
<g>
	<path d="M47.1,18.1l3.7,4.6l-1.7,5.1h3.8l-2.7,7.4H37.5l-2.6-5.4l3.2-8.9h-5.1l-2,5.6h3l-2.9,8.6H10.9l3.1-8.6h3.7l6-16.4h-4.1
		l3.1-8.7h22.4l7.4,3.3l1.9,7.9L47.1,18.1z M37.1,10.2L34.9,16h4.8l2.2-5.8H37.1z"/>
	<path d="M94.3,17.3H83.8l2.6-7.1H78l-1.8,5.1h6.1L80,21.5h-6.2L72,26.7h8.4l2.6-7.1h10.5l-4.4,12l-5.6,3.7H51.7l3.2-8.6h3.6l6-16.4
		h-4.2l3.2-8.7h31.4l3.7,3.8L94.3,17.3z"/>
	<path d="M152.4,10.2H149l-6,16.4h4.2l-3.2,8.6h-21.2l3.1-8.6h3.7l5.4-14.7l-14.6,20.3l-4.3,3.1h-2.3l-2.5-3.1V11.9l-5.4,14.7h3.7
		l-3.2,8.6H89.7l3.1-8.6h3.6l6-16.4h-4.2l3.2-8.7h20.2l2.5,3.8l0.2,8.6l6.4-8.6l5.2-3.8h19.7L152.4,10.2z"/>
	<path d="M179.4,31.4l-14.5,5.4l-12.5-5.4l-3.2-13l8-13L171.7,0l12.5,5.4l3.2,13L179.4,31.4z M170.1,7l-8,21.4l4.3,1.5l7.9-21.5
		L170.1,7z"/>
	<path d="M226.2,10.2h-3L207,31.6l-5.6,3.7h-6l-3.7-3.7l-0.8-21.4h-3.4l3.1-8.7h19.8l-3.1,8.7h-2.7l-0.6,12.3l8.4-12.3h-2.7l3.1-8.7
		h16.7L226.2,10.2z"/>
	<path d="M249.5,10.2h-3.4l-6,16.4h4.1l-3.1,8.6h-21.2l3.1-8.6h3.7l6-16.4h-4.1l3.1-8.7h21L249.5,10.2z"/>
	<path d="M292.5,10.2H289l-7.9,21.9l-4.9,3.2h-5.1l-3.8-3.7l-4.7-14.7l-3.5,9.8h3.6l-3.1,8.6H243l3.1-8.6h3.7l6-16.4h-4.1l3.1-8.7
		h12.9l3.7,3.8l4.7,14.7l3.5-9.8H276l3.2-8.7h16.4L292.5,10.2z"/>
	<path d="M324.2,16.5H313l2.7-7.3L310.6,7l-7.3,19.7l3.5,1.7l4.9-2l1-2.6H309l1.7-4.9h17.7l-1.8,4.9h-3.2L319,35.8h-6.2l-0.3-3.2
		l-8.4,4.3l-11.3-5.4l-3.2-13l8-13L312.1,0l6.3,3.9l0.8-1.9h10.2L324.2,16.5z"/>
</g>
<g>
	<path d="M55.9,57.6l4.9,6.4L56,71.8l-8.6,3.3H19.1l3.1-8.6h3.7l6-16.4h-4.1l3.1-8.7h22.4l7.4,3.3l1.9,7.9L55.9,57.6z M41.4,60.8
		l-2,5.6h4.8l2-5.6H41.4z M45.4,50l-2.1,5.6h4.8l2-5.6H45.4z"/>
	<path d="M96.5,75.1h-21l3.1-8.6h4l0.1-2.6h-7.4l-1.7,2.6h2.7l-3.1,8.6h-16l3.2-8.6h3l15.6-21.4l5.6-3.8H92l3.7,3.8v21.4h3.9
		L96.5,75.1z M78.5,59H83l0.5-7.6L78.5,59z"/>
	<path d="M134.6,57.9l3.7,4.6l-1.7,5.1h3.8l-2.7,7.4h-12.6l-2.6-5.4l3.2-8.9h-5.1l-2,5.6h3l-2.9,8.6H98.4l3.1-8.6h3.7l6-16.4h-4.1
		l3.1-8.7h22.4l7.4,3.3l1.9,7.9L134.6,57.9z M124.7,50l-2.2,5.8h4.8l2.2-5.8H124.7z"/>
	<path d="M175.4,57.9l3.7,4.6l-1.7,5.1h3.8l-2.7,7.4h-12.6l-2.6-5.4l3.2-8.9h-5.1l-2,5.6h3l-2.9,8.6h-20.3l3.1-8.6h3.7l6-16.4h-4.1
		l3.1-8.7h22.4l7.4,3.3l1.9,7.9L175.4,57.9z M165.5,50l-2.2,5.8h4.8l2.2-5.8H165.5z"/>
	<path d="M209.7,50h-3.4l-6,16.4h4.1l-3.1,8.6H180l3.1-8.6h3.7l6-16.4h-4.1l3.1-8.7h21L209.7,50z"/>
	<path d="M245.8,57.1h-10.5l2.6-7.1h-8.5l-1.8,5.1h6.1l-2.2,6.2h-6.2l-1.8,5.1h8.4l2.6-7.1H245l-4.4,12l-5.6,3.7h-31.9l3.2-8.6h3.6
		l6-16.4h-4.2l3.2-8.7h31.4l3.7,3.8L245.8,57.1z"/>
	<path d="M277.4,57.9l3.7,4.6l-1.7,5.1h3.8l-2.7,7.4h-12.6l-2.6-5.4l3.2-8.9h-5.1l-2,5.6h3l-2.9,8.6h-20.3l3.1-8.6h3.7l6-16.4h-4.1
		l3.1-8.7h22.4l7.4,3.3l1.9,7.9L277.4,57.9z M267.4,50l-2.2,5.8h4.8l2.2-5.8H267.4z"/>
	<path d="M318.3,53.1h-8.7l1.1-3.4l-4.8-3l-4.4,1.7v2.2l11.9,6.1l4.1,7.5l-3,7.8l-12.7,4.6l-8.7-5.1l-1.3,3.5h-10.1l4.4-12.2h9.6
		l-1.1,3.4l5.1,3l4.2-1.7v-2.2l-12-6.5l-3.2-6.9l3-7.7l11.7-4.6l8.7,5.1l1.2-3.3h9.2L318.3,53.1z"/>
</g>
<g>
	<path d="M68.5,91.8h-3.4l-6,16.4h4.2l-3.2,8.6H38.9l3.1-8.6h3.7l5.4-14.7l-14.6,20.3l-4.3,3.1h-2.3l-2.5-3.1V93.5L22,108.2h3.7
		l-3.2,8.6H5.8l3.1-8.6h3.6l6-16.4h-4.2l3.2-8.7h20.2l2.5,3.8l0.2,8.6l6.4-8.6l5.2-3.8h19.7L68.5,91.8z"/>
	<path d="M96.5,113l-14.5,5.4L69.4,113l-3.2-13l8-13l14.6-5.4l12.5,5.4l3.2,13L96.5,113z M87.2,88.6l-8,21.4l4.3,1.5L91.4,90
		L87.2,88.6z"/>
	<path d="M134.8,99.4l4.9,6.4l-4.7,7.8l-8.6,3.3H98.1l3.1-8.6h3.7l6-16.4h-4.1l3.1-8.7h22.4l7.4,3.3l1.9,7.9L134.8,99.4z
		 M120.3,102.6l-2,5.6h4.8l2-5.6H120.3z M124.3,91.8l-2.1,5.6h4.8l2-5.6H124.3z"/>
	<path d="M166.7,91.8h-3.4l-6,16.4h4.1l-3.1,8.6H137l3.1-8.6h3.7l6-16.4h-4.1l3.1-8.7h21L166.7,91.8z"/>
	<path d="M195.6,113.2l-5.6,3.7h-29.9l3.1-8.6h3.7l6-16.4h-4.1l3.1-8.7h21.2l-3.1,8.7h-3.7l-6,16.4h6.1l2.6-7.1h11L195.6,113.2z"/>
	<path d="M225.9,91.8h-3.4l-6,16.4h4.1l-3.1,8.6h-21.2l3.1-8.6h3.7l6-16.4h-4.1l3.1-8.7h21L225.9,91.8z"/>
	<path d="M240.4,104.3l10.9,2.1l2.8-6.5l5.7,1.7l-7.1,16.7l-23.5-5.4l-6.6,5.4l-3.4-3.7L243.4,96l-9.2-1.9l-2.5,5.6l-5.6-1.7
		l7.1-16.7l22.2,5.3l6.7-5.3l3.4,3.7L240.4,104.3z"/>
	<path d="M298.3,98.9h-10.5l2.6-7.1h-8.5l-1.8,5.1h6.1l-2.2,6.2h-6.2l-1.8,5.1h8.4l2.6-7.1h10.5l-4.4,12l-5.6,3.7h-31.9l3.2-8.6h3.6
		l6-16.4h-4.2l3.2-8.7h31.4l3.7,3.8L298.3,98.9z"/>
	<path d="M331.7,94.9H323l1.1-3.4l-4.8-3l-4.4,1.7v2.2l11.9,6.1l4.1,7.5l-3,7.8l-12.7,4.6l-8.7-5.1l-1.3,3.5h-10.1l4.4-12.2h9.6
		L308,108l5.1,3l4.2-1.7v-2.2l-12-6.5l-3.2-6.9l3-7.7l11.7-4.6l8.7,5.1l1.2-3.3h9.2L331.7,94.9z"/>
</g>
<g>
	<path d="M36.2,141.5l3.7,4.6l-1.7,5.1H42l-2.7,7.4H26.7l-2.6-5.4l3.2-8.9h-5.1l-2,5.6h3l-2.9,8.6H0l3.1-8.6h3.7l6-16.4H8.6l3.1-8.7
		h22.4l7.4,3.3l1.9,7.9L36.2,141.5z M26.3,133.6l-2.2,5.8h4.8l2.2-5.8H26.3z"/>
	<path d="M83.5,140.7H72.9l2.6-7.1h-8.5l-1.8,5.1h6.1l-2.2,6.2h-6.2l-1.8,5.1h8.4l2.6-7.1h10.5l-4.4,12l-5.6,3.7H40.8L44,150h3.6
		l6-16.4h-4.2l3.2-8.7H84l3.7,3.8L83.5,140.7z"/>
	<path d="M116.9,136.7h-8.7l1.1-3.4l-4.8-3l-4.4,1.7v2.2l11.9,6.1l4.1,7.5l-3,7.8l-12.7,4.6l-8.7-5.1l-1.3,3.5H80.2l4.4-12.2h9.6
		l-1.1,3.4l5.1,3l4.2-1.7V149l-12-6.5l-3.2-6.9l3-7.7l11.7-4.6l8.7,5.1l1.2-3.3h9.2L116.9,136.7z"/>
	<path d="M147.5,154.8l-14.5,5.4l-12.5-5.4l-3.2-13l8-13l14.6-5.4l12.5,5.4l3.2,13L147.5,154.8z M138.3,130.4l-8,21.4l4.3,1.5
		l7.9-21.5L138.3,130.4z"/>
	<path d="M196,133.6h-3.2l-5.9,16.1l-6.3,6.7l-12.2,3.9l-10.5-3.9l-2.3-8l5.3-14.8h-3.7l3.2-8.7h20.3l-3.2,8.7h-3.2l-6,16.4l3.5,1.7
		l4.9-2l5.8-16.1h-2.7l3.2-8.7h16.2L196,133.6z"/>
	<path d="M225.5,141.5l3.7,4.6l-1.7,5.1h3.8l-2.7,7.4H216l-2.6-5.4l3.2-8.9h-5.1l-2,5.6h3l-2.9,8.6h-20.3l3.1-8.6h3.7l6-16.4H198
		l3.1-8.7h22.4l7.4,3.3l1.9,7.9L225.5,141.5z M215.6,133.6l-2.2,5.8h4.8l2.2-5.8H215.6z"/>
	<path d="M265.9,139.9h-11.2l2.5-6.7l-4.9-2.8l-7.3,19.7l3.5,1.7l4.9-2l1.5-4h8.8l-3.3,9.1l-14.5,5.4l-11.3-5.4l-3.2-13l8-13
		l14.6-5.4l6.1,4.4l1-2.4h10.2L265.9,139.9z"/>
	<path d="M304.1,140.7h-10.5l2.6-7.1h-8.5l-1.8,5.1h6.1l-2.2,6.2h-6.2l-1.8,5.1h8.4l2.6-7.1h10.5l-4.4,12l-5.6,3.7h-31.9l3.2-8.6
		h3.6l6-16.4h-4.2l3.2-8.7h31.4l3.7,3.8L304.1,140.7z"/>
	<path d="M337.5,136.7h-8.7l1.1-3.4l-4.8-3l-4.4,1.7v2.2l11.9,6.1l4.1,7.5l-3,7.8l-12.7,4.6l-8.7-5.1l-1.3,3.5h-10.1l4.4-12.2h9.6
		l-1.1,3.4l5.1,3l4.2-1.7V149l-12-6.5l-3.2-6.9l3-7.7l11.7-4.6l8.7,5.1l1.2-3.3h9.2L337.5,136.7z"/>
</g>
</svg>
