<?xml version="1.0" encoding="utf-8"?>
<!-- Generator: Adobe Illustrator 18.1.0, SVG Export Plug-In . SVG Version: 6.00 Build 0)  -->
<svg version="1.1" id="Layer_1" xmlns="http://www.w3.org/2000/svg" xmlns:xlink="http://www.w3.org/1999/xlink" x="0px" y="0px"
	 viewBox="0 0 326.8 164.7" enable-background="new 0 0 326.8 164.7" xml:space="preserve">
<g>
	<path d="M106.2,19.1H93.8l1.6-4.8L88.5,10l-6.3,2.4v3.1l17,8.8L105,35l-4.4,11.1l-18.1,6.5l-12.4-7.3l-1.9,5.1H53.8L60.2,33h13.7
		l-1.6,4.8l7.3,4.3l6-2.4v-3.1l-17.1-9.3l-4.5-9.9l4.3-10.9L84.9,0l12.4,7.3l1.7-4.7h13.1L106.2,19.1z"/>
	<path d="M157.1,50.4h-30l4.5-12.4h5.7l0.1-3.6h-10.6l-2.4,3.6h3.9l-4.5,12.4H101l4.5-12.4h4.2L132,7.6l8-5.4h10.7l5.3,5.4v30.5h5.6
		L157.1,50.4z M131.5,27.4h6.4l0.8-10.8L131.5,27.4z"/>
	<path d="M215.6,14.6h-4.3l-23.2,30.5l-8,5.3h-8.6l-5.3-5.3l-1.2-30.5h-4.9l4.5-12.4H193l-4.5,12.4h-3.9l-0.9,17.5l12-17.5h-3.9
		l4.5-12.4h23.9L215.6,14.6z"/>
	<path d="M266.2,24.7h-15l3.7-10.1h-12.1l-2.6,7.3h8.8l-3.2,8.9h-8.8l-2.6,7.3h12L250,28h15l-6.3,17.2l-7.9,5.3h-45.5l4.5-12.4h5.2
		l8.6-23.5h-6l4.5-12.4H267l5.3,5.4L266.2,24.7z"/>
</g>
<g>
	<path d="M49.5,79.6H33.5l3.6-9.6l-7-4L19.6,94.1l5,2.4l7-2.9l2.1-5.7h12.5l-4.7,13l-20.7,7.7l-16.2-7.7L0,82.3l11.5-18.6L32.3,56
		l8.7,6.3l1.4-3.5H57L49.5,79.6z"/>
	<path d="M94.4,100.9l-20.7,7.7l-17.9-7.7l-4.6-18.6l11.4-18.6L83.3,56l17.9,7.7l4.6,18.6L94.4,100.9z M81.1,66L69.8,96.6l6.1,2.1
		L87.2,68L81.1,66z"/>
	<path d="M150.7,100.9l-20.7,7.7l-17.9-7.7l-4.6-18.6l11.4-18.6l20.8-7.7l17.9,7.7l4.6,18.6L150.7,100.9z M137.4,66L126,96.6
		l6.1,2.1L143.4,68L137.4,66z"/>
	<path d="M212.4,84L201,88.4h-13.3l-2,5.6h5.9l-4.5,12.4h-30.3l4.5-12.4h5.2l8.5-23.5h-5.9l4.5-12.4h32l10.6,4.7l2.8,11.3L212.4,84z
		 M194.2,70.6l-3.1,8.3h6.8l3.1-8.3H194.2z"/>
	<path d="M270.1,80.7h-15l3.7-10.1h-12.1l-2.6,7.3h8.8l-3.2,8.9h-8.8l-2.6,7.3h12l3.7-10.1h15l-6.3,17.2l-7.9,5.3h-45.5l4.5-12.4
		h5.2l8.6-23.5h-6l4.5-12.4h44.9l5.3,5.4L270.1,80.7z"/>
	<path d="M316.3,81.9l5.3,6.6l-2.4,7.3h5.4l-3.9,10.6h-18l-3.7-7.7l4.6-12.7h-7.2l-2.8,8h4.3l-4.2,12.4h-29.1l4.5-12.4h5.2l8.5-23.5
		H277l4.5-12.4h32l10.6,4.7l2.8,11.3L316.3,81.9z M302.1,70.6l-3.1,8.3h6.8l3.1-8.3H302.1z"/>
</g>
<g>
	<path d="M89.3,126.6h-4.6l-8.4,23l-9,9.5l-17.5,5.5l-15-5.5l-3.3-11.5l7.6-21.1h-5.2l4.5-12.4h29l-4.5,12.4h-4.5l-8.6,23.5l5,2.4
		l7-2.9l8.3-23h-3.9l4.5-12.4h23.1L89.3,126.6z"/>
	<path d="M149.2,126.6h-4.9l-11.3,31.2l-7,4.6h-7.3l-5.4-5.3l-6.7-21.1l-5.1,14h5.2l-4.5,12.4H78.6l4.5-12.4h5.2l8.5-23.5h-5.9
		l4.5-12.4h18.5l5.3,5.4l6.7,21.1l5.1-14h-5.2l4.5-12.4h23.4L149.2,126.6z"/>
	<path d="M182,126.6h-4.9l-8.6,23.5h5.9l-4.5,12.4h-30.3l4.5-12.4h5.2l8.5-23.5H152l4.5-12.4h30L182,126.6z"/>
	<path d="M224.1,156.9l-20.7,7.7l-17.9-7.7l-4.6-18.6l11.4-18.6L213,112l17.9,7.7l4.6,18.6L224.1,156.9z M210.8,122l-11.4,30.6
		l6.1,2.1l11.3-30.7L210.8,122z"/>
	<path d="M299.6,126.6h-4.9l-11.3,31.2l-7,4.6h-7.3l-5.4-5.3l-6.7-21.1l-5.1,14h5.2l-4.5,12.4h-23.8l4.5-12.4h5.2l8.5-23.5h-5.9
		l4.5-12.4h18.5l5.3,5.4l6.7,21.1l5.1-14h-5.2l4.5-12.4h23.4L299.6,126.6z"/>
</g>
</svg>
