<?xml version="1.0" encoding="utf-8"?>
<!-- Generator: Adobe Illustrator 18.0.0, SVG Export Plug-In . SVG Version: 6.00 Build 0)  -->
<!DOCTYPE svg PUBLIC "-//W3C//DTD SVG 1.1//EN" "http://www.w3.org/Graphics/SVG/1.1/DTD/svg11.dtd">
<svg version="1.1" id="Layer_1" xmlns="http://www.w3.org/2000/svg" xmlns:xlink="http://www.w3.org/1999/xlink" x="0px" y="0px"
	 viewBox="0 0 227 167.9" enable-background="new 0 0 227 167.9" xml:space="preserve">
<g>
	<path d="M96.4,11.9l-4.7-0.7l-3.1,8.6h2.7l-2,5.6H75.5l2-5.6h2.4l3.6-9.8l-4.9-0.7l2,3l-5.1,2.8l-3.2-4.8L80,2.5l16.1,2.6l-1.7-2.3
		L98.7,0l3.5,5.2L96.4,11.9z"/>
	<path d="M128.7,9.3h-2.2l-3.8,10.5h2.7l-2,5.5h-13l2-5.5h1.8l1.3-3.7h-5.1l-1.3,3.7h1.8l-2,5.5H96l2-5.5h2.3l3.8-10.5h-2.6l2-5.6
		h13l-2,5.6h-1.8l-1.3,3.7h5.1l1.3-3.7h-1.8l2-5.6h12.6L128.7,9.3z"/>
	<path d="M152.4,13.9h-6.7l1.7-4.5h-5.4l-1.2,3.3h3.9l-1.4,4h-4l-1.2,3.3h5.4l1.7-4.5h6.7L149,23l-3.6,2.4H125l2-5.5h2.3l3.8-10.5
		h-2.7l2-5.6h20.1l2.4,2.4L152.4,13.9z"/>
</g>
<g>
	<path d="M74,60.4l-5.6,3.7H38.4l3.1-8.6h3.7l6-16.4h-4.1l3.1-8.7h21.2L68.3,39h-3.7l-6,16.4h6.1l2.6-7.1h11L74,60.4z"/>
	<path d="M108.8,60.2l-14.5,5.4l-12.5-5.4l-3.2-13l8-13l14.6-5.4l12.5,5.4l3.2,13L108.8,60.2z M99.5,35.8l-8,21.4l4.3,1.5l7.9-21.5
		L99.5,35.8z"/>
	<path d="M147.7,42.1H139l1.1-3.4l-4.8-3l-4.4,1.7v2.2l11.9,6.1l4.1,7.5l-3,7.8l-12.7,4.6l-8.7-5.1l-1.3,3.5H111l4.4-12.2h9.6
		l-1.1,3.4l5.1,3l4.2-1.7v-2.2l-12-6.5L118,41l3-7.7l11.7-4.6l8.7,5.1l1.2-3.3h9.2L147.7,42.1z"/>
	<path d="M182.2,42.1h-8.7l1.1-3.4l-4.8-3l-4.4,1.7v2.2l11.9,6.1l4.1,7.5l-3,7.8l-12.7,4.6l-8.7-5.1l-1.3,3.5h-10.1l4.4-12.2h9.6
		l-1.1,3.4l5.1,3l4.2-1.7v-2.2l-12-6.5l-3.2-6.9l3-7.7l11.7-4.6l8.7,5.1l1.2-3.3h9.2L182.2,42.1z"/>
</g>
<g>
	<path d="M107.6,88.2l-9.3,3.5l-8-3.5l-2.1-8.4l5.1-8.4l9.3-3.4l8,3.4l2.1,8.4L107.6,88.2z M101.7,72.6l-5.1,13.7l2.7,0.9l5.1-13.7
		L101.7,72.6z"/>
	<path d="M136.5,79.2h-6.7l1.7-4.5H126l-1.3,3.5h3.9l-1.5,4h-3.9l-1.1,3h2.6l-2,5.5h-13.6l2-5.5h2.3l3.8-10.5h-2.7l2-5.6h20.1
		l2.4,2.4L136.5,79.2z"/>
</g>
<g>
	<path d="M34.6,109.7H23.5L26,103l-4.9-2.8l-7.3,19.7l3.5,1.7l4.9-2l1.5-4h8.8l-3.3,9.1l-14.5,5.4l-11.3-5.4l-3.2-13l8-13l14.6-5.4
		l6.1,4.4l1-2.4h10.2L34.6,109.7z"/>
	<path d="M66.1,124.6l-14.5,5.4L39,124.6l-3.2-13l8-13l14.6-5.4l12.5,5.4l3.2,13L66.1,124.6z M56.8,100.2l-8,21.4l4.3,1.5l7.9-21.5
		L56.8,100.2z"/>
	<path d="M105.5,124.6l-14.5,5.4l-12.5-5.4l-3.2-13l8-13l14.6-5.4l12.5,5.4l3.2,13L105.5,124.6z M96.2,100.2l-8,21.4l4.3,1.5
		l7.9-21.5L96.2,100.2z"/>
	<path d="M146.9,112.8l-8,3.1h-9.3l-1.4,3.9h4.1l-3.1,8.6h-21.2l3.1-8.6h3.7l6-16.4h-4.1l3.1-8.7h22.4l7.4,3.3l1.9,7.9L146.9,112.8z
		 M134.2,103.4l-2.2,5.8h4.8l2.2-5.8H134.2z"/>
	<path d="M187.3,110.5h-10.5l2.6-7.1h-8.5l-1.8,5.1h6.1l-2.2,6.2h-6.2l-1.8,5.1h8.4l2.6-7.1h10.5l-4.4,12l-5.6,3.7h-31.9l3.2-8.6
		h3.6l6-16.4h-4.2l3.2-8.7h31.4l3.7,3.8L187.3,110.5z"/>
	<path d="M219.7,111.3l3.7,4.6l-1.7,5.1h3.8l-2.7,7.4h-12.6l-2.6-5.4l3.2-8.9h-5.1l-2,5.6h3l-2.9,8.6h-20.3l3.1-8.6h3.7l6-16.4h-4.1
		l3.1-8.7h22.4l7.4,3.3l1.9,7.9L219.7,111.3z M209.7,103.4l-2.2,5.8h4.8l2.2-5.8H209.7z"/>
</g>
<g>
	<path d="M62.1,141.2h-3.2L53,157.4l-6.3,6.7l-12.2,3.9L24,164l-2.3-8l5.3-14.8h-3.7l3.2-8.7h20.3l-3.2,8.7h-3.2l-6,16.4l3.5,1.7
		l4.9-2l5.8-16.1h-2.7l3.2-8.7h16.2L62.1,141.2z"/>
	<path d="M104.9,141.2h-3.4l-7.9,21.9l-4.9,3.2h-5.1l-3.8-3.7l-4.7-14.7l-3.5,9.8h3.6l-3.1,8.6H55.5l3.1-8.6h3.7l6-16.4h-4.1
		l3.1-8.7h12.9l3.7,3.8l4.7,14.7l3.5-9.8h-3.7l3.2-8.7h16.4L104.9,141.2z"/>
	<path d="M128.7,141.2h-3.4l-6,16.4h4.1l-3.1,8.6H99.1l3.1-8.6h3.7l6-16.4h-4.1l3.1-8.7h21L128.7,141.2z"/>
	<path d="M156.4,162.5l-14.5,5.4l-12.5-5.4l-3.2-13l8-13l14.6-5.4l12.5,5.4l3.2,13L156.4,162.5z M147.1,138l-8,21.4l4.3,1.5
		l7.9-21.5L147.1,138z"/>
	<path d="M208.3,141.2h-3.4l-7.9,21.9l-4.9,3.2H187l-3.8-3.7l-4.7-14.7l-3.5,9.8h3.6l-3.1,8.6h-16.7l3.1-8.6h3.7l6-16.4h-4.1
		l3.1-8.7h12.9l3.7,3.8L192,151l3.5-9.8h-3.7l3.2-8.7h16.4L208.3,141.2z"/>
</g>
</svg>
