<?xml version="1.0" encoding="utf-8"?>
<!-- Generator: Adobe Illustrator 18.0.0, SVG Export Plug-In . SVG Version: 6.00 Build 0)  -->
<!DOCTYPE svg PUBLIC "-//W3C//DTD SVG 1.1//EN" "http://www.w3.org/Graphics/SVG/1.1/DTD/svg11.dtd">
<svg version="1.1" id="Layer_1" xmlns="http://www.w3.org/2000/svg" xmlns:xlink="http://www.w3.org/1999/xlink" x="0px" y="0px"
	 viewBox="0 0 228.8 169.9" enable-background="new 0 0 228.8 169.9" xml:space="preserve">
<g>
	<path d="M97.3,11.9l-4.7-0.7l-3.1,8.6h2.7l-2,5.6H76.4l2-5.6h2.4l3.6-9.8l-4.9-0.7l2,3l-5.1,2.8l-3.2-4.8l7.7-7.8L97,5.2l-1.7-2.3
		L99.6,0l3.5,5.2L97.3,11.9z"/>
	<path d="M129.6,9.3h-2.2l-3.8,10.5h2.7l-2,5.5h-13l2-5.5h1.8l1.3-3.7h-5.1l-1.3,3.7h1.8l-2,5.5H96.9l2-5.5h2.3L105,9.3h-2.6l2-5.6
		h13l-2,5.6h-1.8l-1.3,3.7h5.1l1.3-3.7H117l2-5.6h12.6L129.6,9.3z"/>
	<path d="M153.3,13.9h-6.7l1.7-4.5h-5.4l-1.2,3.3h3.9l-1.4,4h-4l-1.2,3.3h5.4l1.7-4.5h6.7l-2.8,7.7l-3.6,2.4h-20.4l2-5.5h2.3
		l3.8-10.5h-2.7l2-5.6h20.1l2.4,2.4L153.3,13.9z"/>
</g>
<g>
	<path d="M54.6,44.1h-8.7l1.1-3.4l-4.8-3l-4.4,1.7v2.2l11.9,6.1l4.1,7.5l-3,7.8l-12.7,4.6l-8.7-5.1L28,66.1H17.9l4.4-12.2H32
		l-1.1,3.4l5.1,3l4.2-1.7v-2.2l-12-6.5L25,43l3-7.7l11.7-4.6l8.7,5.1l1.2-3.3h9.2L54.6,44.1z"/>
	<path d="M94.3,45.1L86.9,44l-4.9,13.4h4.2L83,66.1H61.8l3.1-8.7h3.7l5.6-15.3L66.6,41l3.1,4.7L61.8,50l-5-7.5l12-12.1l25.1,4.1
		L91.3,31l6.7-4.5l5.4,8.1L94.3,45.1z"/>
	<path d="M125.9,66.1h-21l3.1-8.6h4l0.1-2.6h-7.4l-1.7,2.6h2.7l-3.1,8.6h-16l3.2-8.6h3l15.6-21.4l5.6-3.8h7.5l3.7,3.8v21.4h3.9
		L125.9,66.1z M107.9,50h4.5l0.5-7.6L107.9,50z"/>
	<path d="M164,45.1l-7.4-1.1l-4.9,13.4h4.2l-3.2,8.7h-21.2l3.1-8.7h3.7l5.6-15.3l-7.6-1.1l3.1,4.7l-7.9,4.3l-5-7.5l12-12.1l25.1,4.1
		L161,31l6.7-4.5l5.4,8.1L164,45.1z"/>
	<path d="M206.1,48.1h-10.5l2.6-7.1h-8.5l-1.8,5.1h6.1l-2.2,6.2h-6.2l-1.8,5.1h8.4l2.6-7.1h10.5l-4.4,12l-5.6,3.7h-31.9l3.2-8.6h3.6
		l6-16.4h-4.2l3.2-8.7h31.4l3.7,3.8L206.1,48.1z"/>
</g>
<g>
	<path d="M64.1,90.2l-9.3,3.5l-8-3.5l-2.1-8.4l5.1-8.4l9.3-3.4l8,3.4l2.1,8.4L64.1,90.2z M58.2,74.6l-5.1,13.7l2.7,0.9l5.1-13.7
		L58.2,74.6z"/>
	<path d="M93,81.2h-6.7l1.7-4.5h-5.4l-1.3,3.5h3.9l-1.5,4h-3.9l-1.1,3h2.6l-2,5.5H65.7l2-5.5h2.3l3.8-10.5h-2.7l2-5.6h20.1l2.4,2.4
		L93,81.2z"/>
	<path d="M125.8,79.2l-4.7-0.7l-3.1,8.6h2.7l-2,5.6h-13.6l2-5.6h2.4l3.6-9.8l-4.9-0.7l2,3l-5.1,2.8l-3.2-4.8l7.7-7.8l16.1,2.6
		l-1.7-2.3l4.3-2.9l3.5,5.2L125.8,79.2z"/>
	<path d="M158.1,76.6h-2.2l-3.8,10.5h2.7l-2,5.5h-13l2-5.5h1.8l1.3-3.7h-5.1l-1.3,3.7h1.8l-2,5.5h-12.7l2-5.5h2.3l3.8-10.5h-2.6
		l2-5.6h13l-2,5.6h-1.8l-1.3,3.7h5.1l1.3-3.7h-1.8l2-5.6h12.6L158.1,76.6z"/>
	<path d="M181.7,81.2H175l1.7-4.5h-5.4l-1.2,3.3h3.9l-1.4,4h-4l-1.2,3.3h5.4l1.7-4.5h6.7l-2.8,7.7l-3.6,2.4h-20.4l2-5.5h2.3
		l3.8-10.5H160l2-5.6h20.1l2.4,2.4L181.7,81.2z"/>
</g>
<g>
	<path d="M34.6,111.7H23.5L26,105l-4.9-2.8l-7.3,19.7l3.5,1.7l4.9-2l1.5-4h8.8l-3.3,9.1l-14.5,5.4l-11.3-5.4l-3.2-13l8-13l14.6-5.4
		l6.1,4.4l1-2.4h10.2L34.6,111.7z"/>
	<path d="M66.1,126.7l-14.5,5.4L39,126.7l-3.2-13l8-13l14.6-5.4l12.5,5.4l3.2,13L66.1,126.7z M56.8,102.2l-8,21.4l4.3,1.5l7.9-21.5
		L56.8,102.2z"/>
	<path d="M105.5,126.7l-14.5,5.4l-12.5-5.4l-3.2-13l8-13l14.6-5.4l12.5,5.4l3.2,13L105.5,126.7z M96.2,102.2l-8,21.4l4.3,1.5
		l7.9-21.5L96.2,102.2z"/>
	<path d="M148.7,114.8l-8,3.1h-9.3l-1.4,3.9h4.1l-3.1,8.6h-21.2l3.1-8.6h3.7l6-16.4h-4.1l3.1-8.7h22.4l7.4,3.3l1.9,7.9L148.7,114.8z
		 M136,105.4l-2.2,5.8h4.8l2.2-5.8H136z"/>
	<path d="M189.1,112.5h-10.5l2.6-7.1h-8.5l-1.8,5.1h6.1l-2.2,6.2h-6.2l-1.8,5.1h8.4l2.6-7.1h10.5l-4.4,12l-5.6,3.7h-31.9l3.2-8.6
		h3.6l6-16.4h-4.2l3.2-8.7h31.4l3.7,3.8L189.1,112.5z"/>
	<path d="M221.4,113.4l3.7,4.6l-1.7,5.1h3.8l-2.7,7.4h-12.6l-2.6-5.4l3.2-8.9h-5.1l-2,5.6h3l-2.9,8.6h-20.3l3.1-8.6h3.7l6-16.4h-4.1
		l3.1-8.7h22.4l7.4,3.3l1.9,7.9L221.4,113.4z M211.5,105.4l-2.2,5.8h4.8l2.2-5.8H211.5z"/>
</g>
<g>
	<path d="M63.4,143.2h-3.2l-5.9,16.1l-6.3,6.7l-12.2,3.9L25.3,166l-2.3-8l5.3-14.8h-3.7l3.2-8.7h20.3l-3.2,8.7h-3.2l-6,16.4l3.5,1.7
		l4.9-2l5.8-16.1h-2.7l3.2-8.7h16.2L63.4,143.2z"/>
	<path d="M106.3,143.2h-3.4l-7.9,21.9l-4.9,3.2h-5.1l-3.8-3.7l-4.7-14.7l-3.5,9.8h3.6l-3.1,8.6H56.8l3.1-8.6h3.7l6-16.4h-4.1
		l3.1-8.7h12.9l3.7,3.8L90,153l3.5-9.8h-3.7l3.2-8.7h16.4L106.3,143.2z"/>
	<path d="M129.2,143.2h-3.4l-6,16.4h4.1l-3.1,8.6H99.5l3.1-8.6h3.7l6-16.4h-4.1l3.1-8.7h21L129.2,143.2z"/>
	<path d="M156.9,164.5l-14.5,5.4l-12.5-5.4l-3.2-13l8-13l14.6-5.4l12.5,5.4l3.2,13L156.9,164.5z M147.6,140l-8,21.4l4.3,1.5
		l7.9-21.5L147.6,140z"/>
	<path d="M208.8,143.2h-3.4l-7.9,21.9l-4.9,3.2h-5.1l-3.8-3.7l-4.7-14.7l-3.5,9.8h3.6l-3.1,8.6h-16.7l3.1-8.6h3.7l6-16.4H168
		l3.1-8.7h12.9l3.7,3.8l4.7,14.7l3.5-9.8h-3.7l3.2-8.7h16.4L208.8,143.2z"/>
</g>
</svg>
