<?xml version="1.0" encoding="utf-8"?>
<!-- Generator: Adobe Illustrator 18.0.0, SVG Export Plug-In . SVG Version: 6.00 Build 0)  -->
<!DOCTYPE svg PUBLIC "-//W3C//DTD SVG 1.1//EN" "http://www.w3.org/Graphics/SVG/1.1/DTD/svg11.dtd">
<svg version="1.1" id="Layer_1" xmlns="http://www.w3.org/2000/svg" xmlns:xlink="http://www.w3.org/1999/xlink" x="0px" y="0px"
	 viewBox="0 0 273.9 118.5" enable-background="new 0 0 273.9 118.5" xml:space="preserve">
<g>
	<path d="M80,10.2h-3L60.7,31.6l-5.6,3.7h-6l-3.7-3.7l-0.8-21.4h-3.4l3.1-8.7h19.8L61,10.2h-2.7l-0.6,12.3L66,10.2h-2.7l3.1-8.7
		h16.7L80,10.2z"/>
	<path d="M103.3,10.2h-3.4l-6,16.4H98l-3.1,8.6H73.6l3.1-8.6h3.7l6-16.4h-4.1l3.1-8.7h21L103.3,10.2z"/>
	<path d="M134.8,13.4h-8.7l1.1-3.4l-4.8-3L118,8.6v2.2l11.9,6.1l4.1,7.5l-3,7.8l-12.7,4.6l-8.7-5.1l-1.3,3.5H98.2l4.4-12.2h9.6
		l-1.1,3.4l5.1,3l4.2-1.7v-2.2l-12-6.5l-3.2-6.9l3-7.7L119.9,0l8.7,5.1l1.2-3.3h9.2L134.8,13.4z"/>
	<path d="M161.7,10.2h-3.4l-6,16.4h4.1l-3.1,8.6h-21.2l3.1-8.6h3.7l6-16.4h-4.1l3.1-8.7h21L161.7,10.2z"/>
	<path d="M190.3,31.5l-14.5,5.4l-12.5-5.4l-3.2-13l8-13L182.6,0l12.5,5.4l3.2,13L190.3,31.5z M181,7l-8,21.4l4.3,1.5l7.9-21.5L181,7
		z"/>
	<path d="M242.3,10.2h-3.4l-7.9,21.9l-4.9,3.2H221l-3.8-3.7l-4.7-14.7l-3.5,9.8h3.6l-3.1,8.6h-16.7l3.1-8.6h3.7l6-16.4h-4.1l3.1-8.7
		h12.9l3.7,3.8L226,20l3.5-9.8h-3.7l3.2-8.7h16.4L242.3,10.2z"/>
</g>
<g>
	<path d="M39,61.4l-8,3.1h-9.3l-1.4,3.9h4.1l-3.1,8.6H0l3.1-8.6h3.7l6-16.4H8.6l3.1-8.7h22.4l7.4,3.3l1.9,7.9L39,61.4z M26.3,52
		l-2.2,5.8h4.8L31,52H26.3z"/>
	<path d="M71.4,73.4l-5.6,3.7H35.8l3.1-8.6h3.7l6-16.4h-4.1l3.1-8.7h21.2L65.7,52H62l-6,16.4h6.1l2.6-7.1h11L71.4,73.4z"/>
	<path d="M112.1,77.1h-21l3.1-8.6h4l0.1-2.6h-7.4l-1.7,2.6h2.7l-3.1,8.6h-16l3.2-8.6h3l15.6-21.4l5.6-3.8h7.5l3.7,3.8v21.4h3.9
		L112.1,77.1z M94.1,61h4.5l0.5-7.6L94.1,61z"/>
	<path d="M150.3,56.1l-7.4-1.1L138,68.4h4.2l-3.2,8.7h-21.2l3.1-8.7h3.7l5.6-15.3l-7.6-1.1l3.1,4.7l-7.9,4.3l-5-7.5l12-12.1
		l25.1,4.1l-2.6-3.5l6.7-4.5l5.4,8.1L150.3,56.1z"/>
	<path d="M192.1,56.1l-7.4-1.1l-4.9,13.4h4.2l-3.2,8.7h-21.2l3.1-8.7h3.7l5.6-15.3l-7.6-1.1l3.1,4.7l-7.9,4.3l-5-7.5l12-12.1
		l25.1,4.1l-2.6-3.5l6.7-4.5l5.4,8.1L192.1,56.1z"/>
	<path d="M234.2,59.1h-10.5l2.6-7.1h-8.5l-1.8,5.1h6.1l-2.2,6.2h-6.2l-1.8,5.1h8.4l2.6-7.1h10.5l-4.4,12l-5.6,3.7h-31.9l3.2-8.6h3.6
		l6-16.4h-4.2l3.2-8.7h31.4l3.7,3.8L234.2,59.1z"/>
	<path d="M266.6,59.9l3.7,4.6l-1.7,5.1h3.8l-2.7,7.4H257l-2.6-5.4l3.2-8.9h-5.1l-2,5.6h3l-2.9,8.6h-20.3l3.1-8.6h3.7l6-16.4H239
		l3.1-8.7h22.4l7.4,3.3l1.9,7.9L266.6,59.9z M256.6,52l-2.2,5.8h4.8l2.2-5.8H256.6z"/>
</g>
<g>
	<path d="M55.7,111.9l-12.7,5H19l3.1-8.6h3.7l6-16.4h-4.1l3.1-8.7h20.1l9.7,5l2.2,11.9L55.7,111.9z M45.2,91.8l-6,16.4H44l6-16.4
		H45.2z"/>
	<path d="M100,98.9H89.5l2.6-7.1h-8.5l-1.8,5.1h6.1l-2.2,6.2h-6.2l-1.8,5.1h8.4l2.6-7.1h10.5l-4.4,12l-5.6,3.7H57.3l3.2-8.6h3.6
		l6-16.4H66l3.2-8.7h31.4l3.7,3.8L100,98.9z"/>
	<path d="M131.7,113.2l-5.6,3.7H96.2l3.1-8.6h3.7l6-16.4h-4.1l3.1-8.7h21.2l-3.1,8.7h-3.7l-6,16.4h6.1l2.6-7.1h11L131.7,113.2z"/>
	<path d="M176.5,91.8h-3.2l-5.9,16.1l-6.3,6.7l-12.2,3.9l-10.5-3.9l-2.3-8l5.3-14.8h-3.7l3.2-8.7h20.3l-3.2,8.7h-3.2l-6,16.4
		l3.5,1.7l4.9-2l5.8-16.1h-2.7l3.2-8.7h16.2L176.5,91.8z"/>
	<path d="M217.7,91.8h-3.5l-12.1,7.4l6.4,9h3.6l-3.2,8.6h-21.3l3.1-8.6h2.7l-2.4-3.5l-6,3.5h3.4l-3.1,8.6h-15.8l3.2-8.6h2.7
		l12.6-7.8l-6.2-8.7h-3.5l3.1-8.7h21.3l-3.1,8.7h-2.8l2.5,3.4l6-3.4H202l3.2-8.7h15.7L217.7,91.8z"/>
	<path d="M254.2,98.9h-10.5l2.6-7.1h-8.5l-1.8,5.1h6.1l-2.2,6.2h-6.2l-1.8,5.1h8.4l2.6-7.1h10.5l-4.4,12l-5.6,3.7h-31.9l3.2-8.6h3.6
		l6-16.4h-4.2l3.2-8.7h31.4l3.7,3.8L254.2,98.9z"/>
</g>
</svg>
