<?xml version="1.0" encoding="utf-8"?>
<!-- Generator: Adobe Illustrator 18.1.0, SVG Export Plug-In . SVG Version: 6.00 Build 0)  -->
<svg version="1.1" id="Layer_1" xmlns="http://www.w3.org/2000/svg" xmlns:xlink="http://www.w3.org/1999/xlink" x="0px" y="0px"
	 viewBox="0 60.6 612 670.7" enable-background="new 0 60.6 612 670.7" xml:space="preserve">
<g>
	<path d="M289.5,72.2h-3.9l-22.7,28.2l-6.6,4.9h-4.9l-4.1-4.9V89.1l-9.1,11.3l-6.6,4.9h-5.8l-4.1-4.9l-0.6-28.2h-4.7l4.1-11.5H246
		l-4.1,11.5h-3.7l0.2,14.4l8.7-10.9v-3.5h-2.3l4.1-11.5h21.8l-4.1,11.5h-3.7l0.2,13.6l10.5-13.6h-4.1l4.1-11.5h19.6L289.5,72.2z"/>
	<path d="M348.4,72.2h-4.5l-7.8,21.6h5.6l-4.1,11.3h-26.8l4.1-11.3h3.7l2.7-7.6h-10.5l-2.7,7.6h3.7l-4.1,11.3h-26.2l4.1-11.3h4.7
		l7.8-21.6h-5.4l4.1-11.5h26.8l-4.1,11.5h-3.7l-2.7,7.6h10.5l2.7-7.6h-3.7l4.1-11.5h26L348.4,72.2z"/>
	<path d="M402.8,72.2h-3.9l-18.1,15.5l-2.3,6.2h5.8l-4.1,11.3h-28.4l4.1-11.3h4.9l2.3-6.4l-6.8-15.2h-4.5l4.1-11.5H382l-4.1,11.5
		h-3.7l2.3,7.4l7.8-7.4h-3.7l4.1-11.5h22L402.8,72.2z"/>
</g>
<g>
	<path d="M145.7,142.2h-22.9l5.2-13.8l-10.1-6l-15,40.6l7.2,3.5l10.1-4.1l3.1-8.2h18.1l-6.8,18.8l-29.9,11.1l-23.3-11.1l-6.6-26.8
		l16.5-26.8L121,108l12.6,9.1l2.1-4.9h21L145.7,142.2z"/>
	<path d="M210.6,172.9l-29.9,11.1L155,172.9l-6.6-26.8l16.5-26.8l29.7-11.3l25.8,11.1l6.6,26.8L210.6,172.9z M191.4,122.5
		l-16.5,44.1l8.9,3.1l16.3-44.3L191.4,122.5z"/>
	<path d="M291.8,172.9l-29.9,11.1l-25.8-11.1l-6.6-26.8l16.5-26.8l30.1-11.1l25.8,11.1l6.6,26.8L291.8,172.9z M272.6,122.5
		l-16.5,44.1l8.9,3.1l16.3-44.3L272.6,122.5z"/>
	<path d="M377.1,148.6l-16.5,6.4h-19.2l-2.9,8h8.4l-6.4,17.7h-43.9l6.4-17.7h7.6l12.4-33.8h-8.4l6.4-17.9h46.2l15.2,6.8l3.9,16.3
		L377.1,148.6z M350.9,129.3l-4.5,12h9.9l4.5-12H350.9z"/>
	<path d="M460.3,143.7h-21.6l5.4-14.6h-17.5l-3.7,10.5h12.6l-4.5,12.8h-12.8l-3.7,10.5h17.3l5.4-14.6h21.6l-9.1,24.7l-11.5,7.6
		h-65.7l6.6-17.7h7.4l12.4-33.8h-8.7l6.6-17.9h64.9l7.6,7.8L460.3,143.7z"/>
	<path d="M527.1,145.5l7.6,9.5l-3.5,10.5h7.8l-5.6,15.2h-26l-5.4-11.1l6.6-18.3h-10.5l-4.1,11.5h6.2l-6,17.7h-41.8l6.4-17.7h7.6
		l12.4-33.8h-8.4l6.4-17.9H523l15.2,6.8l3.9,16.3L527.1,145.5z M506.5,129.3l-4.5,12h9.9l4.5-12H506.5z"/>
</g>
<g>
	<path d="M151,207.1h-6.6l-12.2,33.2l-13,13.8l-25.1,8l-21.6-8l-4.7-16.5l10.9-30.5h-7.6l6.6-17.9h41.8l-6.6,17.9h-6.6L94,240.9
		l7.2,3.5l10.1-4.1l12-33.2h-5.6l6.6-17.9h33.4L151,207.1z"/>
	<path d="M241.1,207.1h-7l-16.3,45.1l-10.1,6.6h-10.5l-7.8-7.6l-9.7-30.3l-7.2,20.2h7.4l-6.4,17.7h-34.2l6.4-17.7h7.6l12.4-33.8
		h-8.4l6.4-17.9h26.6l7.6,7.8l9.7,30.3l7.2-20.2h-7.6l6.6-17.9h33.8L241.1,207.1z"/>
	<path d="M290.1,207.1h-7l-12.4,33.8h8.4l-6.4,17.7h-43.7l6.4-17.7h7.6l12.4-33.8h-8.4l6.4-17.9h43.3L290.1,207.1z"/>
	<path d="M347.2,250.8L317.3,262l-25.8-11.1L285,224l16.5-26.8l30.1-11.1l25.8,11.1l6.6,26.8L347.2,250.8z M328,200.3l-16.5,44.1
		l8.9,3.1l16.3-44.3L328,200.3z"/>
	<path d="M454.4,207.1h-7l-16.3,45.1l-10.1,6.6h-10.5l-7.8-7.6L393,221l-7.2,20.2h7.4l-6.4,17.7h-34.4l6.4-17.7h7.6l12.4-33.8h-8.4
		l6.4-17.9h26.6l7.6,7.8l9.7,30.3l7.2-20.2h-7.4l6.6-17.9h33.8L454.4,207.1z"/>
	<path d="M463.4,221.8l-5.2-5.8l10.1-9.3l-6.4-13.8l16.1-7.6l7.4,16.1L463.4,221.8z"/>
	<path d="M547.1,213.5h-17.9l2.3-7l-9.9-6.2l-9.1,3.5v4.5L537,221l8.4,15.5l-6.2,16.1l-26.2,9.5l-17.9-10.5l-2.7,7.2h-20.8l9.1-25.1
		h19.8l-2.3,7l10.5,6.2l8.7-3.5v-4.5l-24.7-13.4l-6.6-14.2l6.2-15.9l24.1-9.5l17.9,10.5l2.5-6.8h19L547.1,213.5z"/>
</g>
<g>
	<path d="M123.8,297.4l-15.2-2.3l-10.1,27.6h8.7l-6.6,17.9H56.9l6.4-17.9h7.6l11.5-31.5L66.8,289l6.4,9.7l-16.3,8.9L46.6,292
		l24.7-24.9l51.7,8.4l-5.4-7.2l13.8-9.3l11.1,16.7L123.8,297.4z"/>
	<path d="M220.9,289h-6.6l-12.2,33.4l-13,13.8l-25.1,8l-21.6-8l-4.7-16.5l10.9-30.5h-7.6l6.6-17.9h41.8l-6.6,17.9h-6.6L163.8,323
		l7.2,3.5l10.1-4.1l12-33.2h-5.6l6.6-17.9h33.4L220.9,289z"/>
	<path d="M270.1,289h-7l-12.4,33.8h8.4l-6.4,17.7h-43.7l6.4-17.7h7.6l12.4-33.8h-8.4l6.4-17.9h43.3L270.1,289z"/>
	<path d="M347.8,297.4l-15.2-2.3l-10.1,27.6h8.7l-6.6,17.9h-43.7l6.4-17.9h7.6l11.5-31.5l-15.7-2.3l6.4,9.7l-16.3,8.9L270.6,292
		l24.7-24.9l51.7,8.4l-5.4-7.2l13.8-9.3l11.1,16.7L347.8,297.4z"/>
	<path d="M407.6,289h-7l-12.4,33.8h8.4l-6.4,17.7h-43.7l6.4-17.7h7.6L373,289h-8.4l6.4-17.9h43.3L407.6,289z"/>
	<path d="M468.4,332.8L438.5,344l-25.8-11.1l-6.6-26.8l16.5-26.8l30.1-11.1l25.8,11.1l6.6,26.8L468.4,332.8z M449.2,282.4
		l-16.5,44.1l8.9,3.1l16.3-44.3L449.2,282.4z"/>
	<path d="M575.3,289h-7L552,334.1l-10.1,6.6h-10.5l-7.8-7.6l-9.7-30.3l-7.2,20.2h7.4l-6.4,17.7h-34.4l6.4-17.7h7.6l12.4-33.8h-8.4
		l6.4-17.9h26.6l7.6,7.8l9.7,30.3l7.2-20.2h-7.6l6.6-17.9h33.8L575.3,289z"/>
</g>
<g>
	<path d="M193.9,385.6h-21.6l5.4-14.6h-17.5l-4.1,11.3h12.6l-4.7,13h-12.6l-3.5,9.7h8.4l-6.4,17.7h-43.7l6.6-17.7h7.4l12.4-33.8
		h-8.7l6.6-17.9h64.7l7.6,7.8L193.9,385.6z"/>
	<path d="M248.7,371h-7l-12.4,33.8h8.4l-6.4,17.7h-43.9l6.4-17.7h7.6l12.4-33.8h-8.4l6.4-17.9h43.3L248.7,371z"/>
	<path d="M314.4,383.9h-23.1l5.6-15l-10.5-4.7l-15,40.6l7.2,3.5l10.1-4.1l2.1-5.4h-7.4l3.5-10.1h36.5l-3.7,10.1H313l-9.1,24.9h-12.8
		l-0.6-6.6l-17.3,8.9L250,414.9l-6.6-26.8l16.5-26.8l30.1-11.1l13,8l1.6-3.9h21L314.4,383.9z"/>
	<path d="M415.4,371h-7L396,404.8h8.7l-6.6,17.7h-41.8l6.6-17.7h5.6l4.3-12h-16.5l-4.3,12h5.6l-6.4,17.7h-40.8l6.4-17.7h7.4
		l12.4-33.8H328l6.4-17.9h41.8l-6.4,17.9h-5.8l-4.3,12h16.5l4.3-12H375l6.4-17.9h40.4L415.4,371z"/>
	<path d="M492.9,379.4l-15.2-2.3l-9.9,27.6h8.7l-6.6,17.9h-43.7l6.4-17.9h7.6l11.5-31.5L436,371l6.4,9.7l-16.3,8.9l-10.3-15.5
		l24.7-24.9l51.7,8.4l-5.4-7.2l13.8-9.3l11.1,16.7L492.9,379.4z"/>
</g>
<g>
	<path d="M129.2,457.1h-7l-12.4,33.8h8.7l-6.6,17.7H68.2l6.4-17.7h7.6l11.1-30.3l-30.1,41.8l-8.9,6.4h-4.9l-5.2-6.4v-41.8
		l-11.1,30.3h7.6l-6.6,17.7H0l6.4-17.7h7.4l12.4-33.8h-8.4l6.6-17.9h41.6l5.2,7.8l0.4,17.7L84.7,447l10.7-7.8H136L129.2,457.1z"/>
</g>
<g>
	<path d="M198.8,508.8h-43.3l6.4-17.7h8.2l0.2-5.4h-15.2l-3.5,5.4h5.6l-6.4,17.7h-33l6.6-17.7h6.2l32.1-44.1l11.5-7.8h15.5l7.6,7.8
		v44.1h8L198.8,508.8z M162,475.6h9.3l1-15.7L162,475.6z"/>
	<path d="M277.6,465.5l-15.2-2.3l-10.1,27.6h8.7l-6.6,17.9h-43.7l6.4-17.9h7.6l11.5-31.5l-15.7-2.3l6.4,9.7l-16.3,8.9l-10.3-15.5
		l24.7-24.9l51.7,8.4l-5.4-7.2l13.8-9.3l11.1,16.7L277.6,465.5z"/>
	<path d="M363.9,465.5l-15.2-2.3l-10.1,27.6h8.7l-6.6,17.9h-43.9l6.4-17.9h7.6l11.5-31.5l-15.7-2.3l6.4,9.7l-16.3,8.9l-10.3-15.5
		l24.7-24.9l51.7,8.4l-5.4-7.2l13.8-9.3l11.1,16.7L363.9,465.5z"/>
	<path d="M450.4,471.7h-21.6l5.4-14.6h-17.5l-3.7,10.5h12.6l-4.5,12.8h-12.8l-3.7,10.5h17.3l5.4-14.6h21.6l-9.1,24.7l-11.5,7.6
		h-65.7l6.6-17.7h7.4l12.4-33.8h-8.7l6.6-17.9h64.7l7.6,7.8L450.4,471.7z"/>
	<path d="M517.2,473.6l7.6,9.5l-3.5,10.5h7.8l-5.6,15.2h-26l-5.4-11.1l6.6-18.3h-10.5l-4.1,11.5h6.2l-6,17.7h-41.8l6.4-17.7h7.6
		l12.4-33.8h-8.4l6.4-17.9h46.2l15.2,6.8l3.9,16.3L517.2,473.6z M496.6,457.1l-4.5,12h9.9l4.5-12H496.6z"/>
	<path d="M603.3,463.7h-17.9l2.3-7l-9.9-6.2l-9.1,3.5v4.5l24.5,12.6l8.4,15.5l-6.2,16.1l-26.2,9.5l-17.9-10.5l-2.7,7.2h-20.8
		l9.1-25.1h19.8l-2.3,7l10.5,6.2l8.7-3.5v-4.5l-24.7-13.4l-6.6-14.2l6.2-15.9l24.1-9.5l17.9,10.5l2.5-6.8h19L603.3,463.7z"/>
</g>
<g>
	<path d="M187.1,540.1h-14l3.5-9.3h-11.1l-2.7,7.2h8l-3.1,8.2h-8l-2.3,6.2h5.4l-4.1,11.3h-27.8l4.1-11.3h4.7l7.8-21.6h-5.4l4.1-11.5
		h41.4l4.9,4.9L187.1,540.1z"/>
	<path d="M229.3,558.9l-19.2,7.2l-16.5-7.2l-4.3-17.3l10.5-17.3l19.2-7l16.5,7l4.3,17.3L229.3,558.9z M217.2,526.5l-10.5,28.2
		l5.6,1.9l10.5-28.2L217.2,526.5z"/>
	<path d="M281.7,541.2l4.9,6.2l-2.3,6.8h4.9l-3.7,9.9h-16.7l-3.5-7l4.3-11.7h-6.6l-2.7,7.4h3.9l-3.9,11.3h-26.8l4.1-11.3h4.9
		l7.8-21.6h-5.4l4.1-11.5H279l9.9,4.3l2.5,10.5L281.7,541.2z M268.5,530.9l-2.9,7.6h6.4l2.9-7.6H268.5z"/>
	<path d="M357.9,536.2l-9.7-1.4l-6.4,17.7h5.6l-4.1,11.5h-28l4.1-11.5h4.9l7.4-20.2l-10.1-1.4l4.1,6.2l-10.5,5.8l-6.6-9.9l15.9-16.1
		l33.2,5.4l-3.5-4.7l8.9-6l7.2,10.7L357.9,536.2z"/>
	<path d="M424.7,530.9h-4.5l-7.8,21.6h5.6l-4.1,11.3H387l4.1-11.3h3.7l2.7-7.6H387l-2.7,7.6h3.7l-4.1,11.3h-26.2l4.1-11.3h4.7
		l7.8-21.6h-5.4l4.1-11.5H400l-4.1,11.5h-3.7l-2.7,7.6H400l2.7-7.6h-3.7l4.1-11.5h26L424.7,530.9z"/>
	<path d="M474.6,540.1h-13.8l3.5-9.3h-11.1l-2.5,6.8h8l-2.9,8.2h-8.2l-2.5,6.8h11.1l3.5-9.3h13.8l-5.8,15.9l-7.4,4.9h-42l4.1-11.3
		h4.7l7.8-21.6h-5.6l4.1-11.5H475l4.9,4.9L474.6,540.1z"/>
</g>
<g>
	<path d="M133.1,609.4h-21.6l5.4-14.6H99.3l-4.1,11.3h12.6l-4.7,13H90.7l-3.5,9.7h8.4l-6.4,17.7H45.3l6.6-17.7h7.4L71.7,595h-8.7
		l6.6-17.9h64.7l7.6,7.8L133.1,609.4z"/>
	<path d="M221.5,595h-6.6l-12.2,33.2l-13,13.8l-25.1,8l-21.6-8l-4.7-16.5l10.9-30.5h-7.6l6.6-17.9H190l-6.6,17.9h-6.6l-12.4,33.8
		l7.2,3.5l10.1-4.1l12-33.2h-5.6l6.6-17.9h33.4L221.5,595z"/>
	<path d="M299.2,603.2l-15.2-2.3l-10.1,27.6h8.7l-6.6,17.9h-43.7l6.4-17.9h7.6l11.5-31.5l-15.7-2.3l6.4,9.7l-16.3,8.9l-10.3-15.5
		l24.7-24.9l51.7,8.4l-5.4-7.2l13.8-9.3l11.1,16.7L299.2,603.2z"/>
	<path d="M396.3,595h-6.6l-12.2,33.2l-13,13.8l-25.1,8l-21.6-8l-4.7-16.5l10.9-30.5h-7.6l6.6-17.9h41.8l-6.6,17.9h-6.6l-12.4,33.8
		l7.2,3.5l10.1-4.1l12-33.2h-5.6l6.6-17.9h33.4L396.3,595z"/>
	<path d="M459.1,611.2l7.6,9.5l-3.5,10.5h7.8l-5.6,15.2h-26l-5.4-11.1l6.6-18.3h-10.5l-4.1,11.5h6.2l-6,17.7h-41.8l6.4-17.7h7.6
		l12.4-33.8h-8.4l6.4-17.9H455l15.2,6.8l3.9,16.3L459.1,611.2z M438.5,595l-4.5,12h9.9l4.5-12H438.5z"/>
	<path d="M560.1,609.4h-21.6l5.4-14.6h-17.5l-3.7,10.5h12.6l-4.5,12.8h-12.8l-3.7,10.5h17.3l5.4-14.6h21.6l-9.1,24.7l-11.5,7.6
		h-65.7l6.6-17.7h7.4l12.4-33.8h-8.7l6.6-17.9h64.7l7.6,7.8L560.1,609.4z"/>
</g>
<g>
	<path d="M167.5,712l-19.2,7.2l-16.5-7.2l-4.3-17.3l10.5-17.3l19.2-7l16.5,7l4.3,17.3L167.5,712z M155.4,679.6l-10.5,28.2l5.6,1.9
		l10.5-28.2L155.4,679.6z"/>
	<path d="M229.6,693.2h-13.8l3.5-9.3h-11.1l-2.7,7.2h8l-3.1,8.2h-8l-2.3,6.2h5.4l-4.1,11.3h-28l4.1-11.3h4.7L190,684h-5.6l4.1-11.5
		H230l4.9,4.9L229.6,693.2z"/>
</g>
<g>
	<path d="M303.3,731.4H260l6.4-17.7h8.2l0.2-5.4h-15.2l-3.5,5.4h5.6l-6.4,17.7h-33l6.6-17.7h6.2l32.1-44.1l11.5-7.8h15.5l7.6,7.8
		v44.1h8L303.3,731.4z M266.2,698.2h9.3l1-15.7L266.2,698.2z"/>
	<path d="M383.7,696.1l7.6,9.5l-3.5,10.5h7.8l-5.6,15.2h-26l-5.4-11.1l6.6-18.3h-10.5l-4.1,11.5h6.2l-6,17.7h-41.8l6.4-17.7h7.6
		l12.4-33.8H327l6.4-17.9h46.2l15.2,6.8l3.9,16.3L383.7,696.1z M363.3,679.8l-4.5,12h9.9l4.5-12H363.3z"/>
	<path d="M478.9,688.1l-15.2-2.3l-10.1,27.6h8.7l-6.6,17.9h-43.7l6.4-17.9h7.6l11.5-31.5l-15.7-2.3l6.4,9.7l-16.3,8.9l-10.3-15.5
		l24.7-24.9l51.7,8.7l-5.4-7.2l13.8-9.3l11.1,16.7L478.9,688.1z"/>
</g>
</svg>
