<?xml version="1.0" encoding="utf-8"?>
<!-- Generator: Adobe Illustrator 18.0.0, SVG Export Plug-In . SVG Version: 6.00 Build 0)  -->
<!DOCTYPE svg PUBLIC "-//W3C//DTD SVG 1.1//EN" "http://www.w3.org/Graphics/SVG/1.1/DTD/svg11.dtd">
<svg version="1.1" id="Layer_1" xmlns="http://www.w3.org/2000/svg" xmlns:xlink="http://www.w3.org/1999/xlink" x="0px" y="0px"
	 viewBox="0 0 296.1 162.2" enable-background="new 0 0 296.1 162.2" xml:space="preserve">
<g>
	<path d="M226.5,14.2h-3l-13.8,11.7l-1.7,4.7h4.4l-3.1,8.6h-21.5l3.1-8.6h3.7l1.7-4.9l-5.2-11.6h-3.4l3.1-8.7h19.8l-3.1,8.7h-2.7
		l1.8,5.7l6-5.7h-2.7l3.1-8.7h16.7L226.5,14.2z"/>
</g>
<g>
	<path d="M186.1,14.2h-3.4l-6,16.4h4.2l-3.2,8.6h-20.3l3.2-8.6h2.7l2.1-5.8h-8l-2.1,5.8h2.7l-3.1,8.6H135l3.1-8.6h3.6l6-16.4h-4.1
		l3.1-8.7h20.3l-3.1,8.7h-2.8l-2.1,5.8h8l2.1-5.8h-2.7l3.1-8.7h19.6L186.1,14.2z"/>
</g>
<g>
	<path d="M141.4,14.2h-3l-17.1,21.4l-5,3.7h-3.8l-3.1-3.7l0-8.5l-6.9,8.5l-5,3.7h-4.4L90,35.6l-0.5-21.4H86l3.2-8.7h19.4l-3.2,8.7
		h-2.7l0.2,10.9l6.5-8.3v-2.6h-1.7l3.1-8.7h16.6l-3.1,8.7h-2.7l0.2,10.3l7.9-10.3h-3l3.1-8.7h14.9L141.4,14.2z"/>
</g>
<text transform="matrix(1 0 0 1 93.2295 39.29)" font-family="'AcropolisHTF-BlackItalic'" font-size="44.8"> </text>
<text transform="matrix(1 0 0 1 82.4771 39.29)" font-family="'AcropolisHTF-BlackItalic'" font-size="44.8"> </text>
<text transform="matrix(1 0 0 1 71.7251 39.29)" font-family="'AcropolisHTF-BlackItalic'" font-size="44.8"> </text>
<g>
	<path d="M70.8,60.3H59.6l2.5-6.7l-4.9-2.8l-7.3,19.7l3.5,1.7l4.9-2l1.5-4h8.8l-3.3,9.1l-14.5,5.4l-11.3-5.4l-3.2-13l8-13l14.6-5.4
		l6.1,4.4l1-2.4H76L70.8,60.3z"/>
	<path d="M102.2,75.2l-14.5,5.4l-12.5-5.4l-3.2-13l8-13l14.6-5.4l12.5,5.4l3.2,13L102.2,75.2z M93,50.8l-8,21.4l4.3,1.5l7.9-21.5
		L93,50.8z"/>
	<path d="M141.6,75.2l-14.5,5.4l-12.5-5.4l-3.2-13l8-13l14.6-5.4l12.5,5.4l3.2,13L141.6,75.2z M132.3,50.8l-8,21.4l4.3,1.5l7.9-21.5
		L132.3,50.8z"/>
	<path d="M183.1,63.4l-8,3.1h-9.3l-1.4,3.9h4.1l-3.1,8.6h-21.2l3.1-8.6h3.7l6-16.4h-4.1l3.1-8.7h22.4l7.4,3.3l1.9,7.9L183.1,63.4z
		 M170.3,54l-2.2,5.8h4.8l2.2-5.8H170.3z"/>
	<path d="M222.6,61.1H212l2.6-7.1h-8.5l-1.8,5.1h6.1l-2.2,6.2H202l-1.8,5.1h8.4l2.6-7.1h10.5l-4.4,12l-5.6,3.7h-31.9l3.2-8.6h3.6
		l6-16.4h-4.2l3.2-8.7h31.4l3.7,3.8L222.6,61.1z"/>
	<path d="M255,61.9l3.7,4.6l-1.7,5.1h3.8l-2.7,7.4h-12.6l-2.6-5.4l3.2-8.9H241l-2,5.6h3l-2.9,8.6h-20.3l3.1-8.6h3.7l6-16.4h-4.1
		l3.1-8.7h22.4l7.4,3.3l1.9,7.9L255,61.9z M245,54l-2.2,5.8h4.8l2.2-5.8H245z"/>
</g>
<g>
	<path d="M98.7,93.8h-3.2l-5.9,16.1l-6.3,6.7l-12.2,3.9l-10.5-3.9l-2.3-8l5.3-14.8h-3.7l3.2-8.7h20.3l-3.2,8.7H77l-6,16.4l3.5,1.7
		l4.9-2l5.8-16.1h-2.7l3.2-8.7h16.2L98.7,93.8z"/>
	<path d="M141.5,93.8h-3.4l-7.9,21.9l-4.9,3.2h-5.1l-3.8-3.7l-4.7-14.7l-3.5,9.8h3.6l-3.1,8.6H92.1l3.1-8.6h3.7l6-16.4h-4.1l3.1-8.7
		h12.9l3.7,3.8l4.7,14.7l3.5-9.8h-3.7l3.2-8.7h16.4L141.5,93.8z"/>
	<path d="M164.5,93.8h-3.4l-6,16.4h4.1l-3.1,8.6h-21.2l3.1-8.6h3.7l6-16.4h-4.1l3.1-8.7h21L164.5,93.8z"/>
	<path d="M192.1,115l-14.5,5.4l-12.5-5.4l-3.2-13l8-13l14.6-5.4l12.5,5.4l3.2,13L192.1,115z M182.9,90.5l-8,21.4l4.3,1.5l7.9-21.5
		L182.9,90.5z"/>
	<path d="M243.2,93.8h-3.4l-7.9,21.9l-4.9,3.2h-5.1l-3.8-3.7l-4.7-14.7l-3.5,9.8h3.6l-3.1,8.6h-16.7l3.1-8.6h3.7l6-16.4h-4.1
		l3.1-8.7h12.9l3.7,3.8l4.7,14.7l3.5-9.8h-3.7l3.2-8.7h16.4L243.2,93.8z"/>
</g>
<g>
	<path d="M62.7,135.6h-3.4l-6,16.4h4.2l-3.2,8.6H33.1l3.1-8.6h3.7l5.4-14.7l-14.6,20.3l-4.3,3.1H24l-2.5-3.1v-20.3L16.1,152h3.7
		l-3.2,8.6H0l3.1-8.6h3.6l6-16.4H8.6l3.2-8.7H32l2.5,3.8l0.2,8.6l6.4-8.6l5.2-3.8h19.7L62.7,135.6z"/>
	<path d="M95.6,160.7h-21l3.1-8.6h4l0.1-2.6h-7.4l-1.7,2.6h2.7l-3.1,8.6h-16l3.2-8.6h3l15.6-21.4l5.6-3.8h7.5l3.7,3.8V152h3.9
		L95.6,160.7z M77.7,144.5h4.5l0.5-7.6L77.7,144.5z"/>
	<path d="M133.8,139.6l-7.4-1.1l-4.9,13.4h4.2l-3.2,8.7h-21.2l3.1-8.7h3.7l5.6-15.3l-7.6-1.1l3.1,4.7l-7.9,4.3l-5-7.5l12-12.1
		l25.1,4.1l-2.6-3.5l6.7-4.5l5.4,8.1L133.8,139.6z"/>
	<path d="M175.7,139.6l-7.4-1.1l-4.9,13.4h4.2l-3.2,8.7h-21.2l3.1-8.7h3.7l5.6-15.3l-7.6-1.1l3.1,4.7l-7.9,4.3l-5-7.5l12-12.1
		l25.1,4.1l-2.6-3.5l6.7-4.5l5.4,8.1L175.7,139.6z"/>
	<path d="M217.7,142.6h-10.5l2.6-7.1h-8.5l-1.8,5.1h6.1l-2.2,6.2h-6.2l-1.8,5.1h8.4l2.6-7.1h10.5l-4.4,12l-5.6,3.7H175l3.2-8.6h3.6
		l6-16.4h-4.2l3.2-8.7h31.4l3.7,3.8L217.7,142.6z"/>
	<path d="M250.1,143.5l3.7,4.6l-1.7,5.1h3.8l-2.7,7.4h-12.6l-2.6-5.4l3.2-8.9h-5.1l-2,5.6h3l-2.9,8.6h-20.3l3.1-8.6h3.7l6-16.4h-4.1
		l3.1-8.7h22.4l7.4,3.3l1.9,7.9L250.1,143.5z M240.1,135.6l-2.2,5.8h4.8l2.2-5.8H240.1z"/>
	<path d="M291.9,138.7h-8.7l1.1-3.4l-4.8-3l-4.4,1.7v2.2l11.9,6.1l4.1,7.5l-3,7.8l-12.7,4.6l-8.7-5.1l-1.3,3.5h-10.1l4.4-12.2h9.6
		l-1.1,3.4l5.1,3l4.2-1.7V151l-12-6.5l-3.2-6.9l3-7.7l11.7-4.6l8.7,5.1l1.2-3.3h9.2L291.9,138.7z"/>
</g>
</svg>
