<?xml version="1.0" encoding="utf-8"?>
<!-- Generator: Adobe Illustrator 18.0.0, SVG Export Plug-In . SVG Version: 6.00 Build 0)  -->
<!DOCTYPE svg PUBLIC "-//W3C//DTD SVG 1.1//EN" "http://www.w3.org/Graphics/SVG/1.1/DTD/svg11.dtd">
<svg version="1.1" id="Layer_1" xmlns="http://www.w3.org/2000/svg" xmlns:xlink="http://www.w3.org/1999/xlink" x="0px" y="0px"
	 viewBox="0 0 297 325.5" enable-background="new 0 0 297 325.5" xml:space="preserve">
<g>
	<path fill="#231F20" d="M140.5,5.6h-1.9l-11,13.7l-3.2,2.4h-2.4l-2-2.4l0-5.5l-4.4,5.5l-3.2,2.4h-2.8l-2-2.4l-0.3-13.7H105l2-5.6
		h12.4l-2,5.6h-1.8l0.1,7l4.2-5.3V5.6h-1.1l2-5.6h10.6l-2,5.6h-1.8l0.1,6.6l5.1-6.6h-2l2-5.6h9.5L140.5,5.6z"/>
	<path fill="#231F20" d="M169.1,5.6h-2.2l-3.8,10.5h2.7l-2,5.5h-13l2-5.5h1.8l1.3-3.7h-5.1l-1.3,3.7h1.8l-2,5.5h-12.7l2-5.5h2.3
		l3.8-10.5h-2.6l2-5.6h13l-2,5.6h-1.8l-1.3,3.7h5.1l1.3-3.7h-1.8l2-5.6h12.6L169.1,5.6z"/>
	<path fill="#231F20" d="M195.5,5.6h-1.9l-8.8,7.5l-1.1,3h2.8l-2,5.5h-13.8l2-5.5h2.4l1.1-3.1l-3.3-7.4h-2.2l2-5.6h12.7l-2,5.6h-1.8
		l1.1,3.6l3.8-3.6h-1.8l2-5.6h10.7L195.5,5.6z"/>
</g>
<g>
	<path fill="#231F20" d="M70.7,39.6H59.6l2.5-6.7L57.2,30l-7.3,19.7l3.5,1.7l4.9-2l1.5-4h8.8l-3.3,9.1l-14.5,5.4l-11.3-5.4l-3.2-13
		l8-13L58.7,23l6.1,4.4l1-2.4H76L70.7,39.6z"/>
	<path fill="#231F20" d="M102.2,54.5l-14.5,5.4l-12.5-5.4l-3.2-13l8-13L94.4,23l12.5,5.4l3.2,13L102.2,54.5z M92.9,30l-8,21.4
		l4.3,1.5l7.9-21.5L92.9,30z"/>
	<path fill="#231F20" d="M141.6,54.5l-14.5,5.4l-12.5-5.4l-3.2-13l8-13l14.6-5.4l12.5,5.4l3.2,13L141.6,54.5z M132.3,30l-8,21.4
		l4.3,1.5l7.9-21.5L132.3,30z"/>
	<path fill="#231F20" d="M183,42.7l-8,3.1h-9.3l-1.4,3.9h4.1l-3.1,8.6H144l3.1-8.6h3.7l6-16.4h-4.1l3.1-8.7h22.4l7.4,3.3l1.9,7.9
		L183,42.7z M170.3,33.3l-2.2,5.8h4.8l2.2-5.8H170.3z"/>
	<path fill="#231F20" d="M223.4,40.3h-10.5l2.6-7.1H207l-1.8,5.1h6.1l-2.2,6.2h-6.2l-1.8,5.1h8.4l2.6-7.1h10.5l-4.4,12l-5.6,3.7
		h-31.9l3.2-8.6h3.6l6-16.4h-4.2l3.2-8.7H224l3.7,3.8L223.4,40.3z"/>
	<path fill="#231F20" d="M255.8,41.2l3.7,4.6l-1.7,5.1h3.8l-2.7,7.4h-12.6l-2.6-5.4l3.2-8.9h-5.1l-2,5.6h3l-2.9,8.6h-20.3l3.1-8.6
		h3.7l6-16.4h-4.1l3.1-8.7h22.4l7.4,3.3l1.9,7.9L255.8,41.2z M245.8,33.3l-2.2,5.8h4.8l2.2-5.8H245.8z"/>
</g>
<g>
	<path fill="#231F20" d="M73.3,71.1h-3.2l-5.9,16.1l-6.3,6.7l-12.2,3.9l-10.5-3.9l-2.3-8l5.3-14.8h-3.7l3.2-8.7H58l-3.2,8.7h-3.2
		l-6,16.4l3.5,1.7l4.9-2l5.8-16.1h-2.7l3.2-8.7h16.2L73.3,71.1z"/>
	<path fill="#231F20" d="M117,71.1h-3.4l-7.9,21.9l-4.9,3.2h-5.1l-3.8-3.7l-4.7-14.7l-3.5,9.8h3.6l-3.1,8.6H67.6l3.1-8.6h3.7l6-16.4
		h-4.1l3.1-8.7h12.9l3.7,3.8l4.7,14.7l3.5-9.8h-3.7l3.2-8.7h16.4L117,71.1z"/>
	<path fill="#231F20" d="M140.8,71.1h-3.4l-6,16.4h4.1l-3.1,8.6h-21.2l3.1-8.6h3.7l6-16.4h-4.1l3.1-8.7h21L140.8,71.1z"/>
	<path fill="#231F20" d="M168.5,92.3L154,97.7l-12.5-5.4l-3.2-13l8-13l14.6-5.4l12.5,5.4l3.2,13L168.5,92.3z M159.2,67.8l-8,21.4
		l4.3,1.5l7.9-21.5L159.2,67.8z"/>
	<path fill="#231F20" d="M220.5,71.1h-3.4l-7.9,21.9l-4.9,3.2h-5.1l-3.8-3.7l-4.7-14.7l-3.5,9.8h3.6l-3.1,8.6H171l3.1-8.6h3.7
		l6-16.4h-4.1l3.1-8.7h12.9l3.7,3.8l4.7,14.7l3.5-9.8H204l3.2-8.7h16.4L220.5,71.1z"/>
	<path fill="#231F20" d="M224.9,78.2l-2.5-2.8l4.9-4.5l-3.1-6.7l7.8-3.7l3.6,7.8L224.9,78.2z"/>
	<path fill="#231F20" d="M265.5,74.2h-8.7l1.1-3.4l-4.8-3l-4.4,1.7v2.2l11.9,6.1l4.1,7.5l-3,7.8L249,97.7l-8.7-5.1l-1.3,3.5h-10.1
		l4.4-12.2h9.6l-1.1,3.4l5.1,3l4.2-1.7v-2.2l-12-6.5l-3.2-6.9l3-7.7l11.7-4.6l8.7,5.1l1.2-3.3h9.2L265.5,74.2z"/>
</g>
<g>
	<path fill="#231F20" d="M60.1,114.9l-7.4-1.1l-4.9,13.4H52l-3.2,8.7H27.6l3.1-8.7h3.7l5.6-15.3l-7.6-1.1l3.1,4.7l-7.9,4.3l-5-7.5
		l12-12.1l25.1,4.1l-2.6-3.5l6.7-4.5l5.4,8.1L60.1,114.9z"/>
	<path fill="#231F20" d="M107.2,110.8H104L98.1,127l-6.3,6.7l-12.2,3.9l-10.5-3.9l-2.3-8l5.3-14.8h-3.7l3.2-8.7h20.3l-3.2,8.7h-3.2
		l-6,16.4L83,129l4.9-2l5.8-16.1H91l3.2-8.7h16.2L107.2,110.8z"/>
	<path fill="#231F20" d="M131.1,110.8h-3.4l-6,16.4h4.1l-3.1,8.6h-21.2l3.1-8.6h3.7l6-16.4h-4.1l3.1-8.7h21L131.1,110.8z"/>
	<path fill="#231F20" d="M168.8,114.9l-7.4-1.1l-4.9,13.4h4.2l-3.2,8.7h-21.2l3.1-8.7h3.7l5.6-15.3l-7.6-1.1l3.1,4.7l-7.9,4.3
		l-5-7.5l12-12.1l25.1,4.1l-2.6-3.5l6.7-4.5l5.4,8.1L168.8,114.9z"/>
	<path fill="#231F20" d="M197.8,110.8h-3.4l-6,16.4h4.1l-3.1,8.6h-21.2l3.1-8.6h3.7l6-16.4h-4.1l3.1-8.7h21L197.8,110.8z"/>
	<path fill="#231F20" d="M227.3,132.1l-14.5,5.4l-12.5-5.4l-3.2-13l8-13l14.6-5.4l12.5,5.4l3.2,13L227.3,132.1z M218,107.6l-8,21.4
		l4.3,1.5l7.9-21.5L218,107.6z"/>
	<path fill="#231F20" d="M279.2,110.8h-3.4l-7.9,21.9l-4.9,3.2h-5.1l-3.8-3.7l-4.7-14.7l-3.5,9.8h3.6l-3.1,8.6h-16.7l3.1-8.6h3.7
		l6-16.4h-4.1l3.1-8.7h12.9l3.7,3.8l4.7,14.7l3.5-9.8h-3.7l3.2-8.7h16.4L279.2,110.8z"/>
</g>
<g>
	<path fill="#231F20" d="M94.1,157.7H83.6l2.6-7.1h-8.5l-2,5.5h6.1l-2.3,6.3h-6.1l-1.7,4.7h4.1l-3.1,8.6H51.5l3.2-8.6h3.6l6-16.4
		h-4.2l3.2-8.7h31.4l3.7,3.8L94.1,157.7z"/>
	<path fill="#231F20" d="M120.7,150.6h-3.4l-6,16.4h4.1l-3.1,8.6H91l3.1-8.6h3.7l6-16.4h-4.1l3.1-8.7h21L120.7,150.6z"/>
	<path fill="#231F20" d="M152.6,156.9h-11.2l2.7-7.3l-5.1-2.3l-7.3,19.7l3.5,1.7l4.9-2l1-2.6h-3.6l1.7-4.9h17.7l-1.8,4.9h-3.2
		l-4.4,12.1h-6.2l-0.3-3.2l-8.4,4.3l-11.3-5.4l-3.2-13l8-13l14.6-5.4l6.3,3.9l0.8-1.9h10.2L152.6,156.9z"/>
	<path fill="#231F20" d="M201.6,150.6h-3.4l-6,16.4h4.2l-3.2,8.6h-20.3l3.2-8.6h2.7l2.1-5.8h-8l-2.1,5.8h2.7l-3.1,8.6h-19.8l3.1-8.6
		h3.6l6-16.4h-4.1l3.1-8.7h20.3l-3.1,8.7h-2.8l-2.1,5.8h8l2.1-5.8H182l3.1-8.7h19.6L201.6,150.6z"/>
	<path fill="#231F20" d="M239.2,154.7l-7.4-1.1L227,167h4.2l-3.2,8.7h-21.2l3.1-8.7h3.7l5.6-15.3l-7.6-1.1l3.1,4.7l-7.9,4.3l-5-7.5
		l12-12.1l25.1,4.1l-2.6-3.5l6.7-4.5l5.4,8.1L239.2,154.7z"/>
</g>
<g>
	<path fill="#231F20" d="M62.7,192.4h-3.4l-6,16.4h4.2l-3.2,8.6H33.1l3.1-8.6h3.7l5.4-14.7l-14.6,20.3l-4.3,3.1H24l-2.5-3.1v-20.3
		l-5.4,14.7h3.7l-3.2,8.6H0l3.1-8.6h3.6l6-16.4H8.6l3.2-8.7H32l2.5,3.8l0.2,8.6l6.4-8.6l5.2-3.8h19.7L62.7,192.4z"/>
</g>
<g>
	<path fill="#231F20" d="M96.5,217.5h-21l3.1-8.6h4l0.1-2.6h-7.4l-1.7,2.6h2.7l-3.1,8.6h-16l3.2-8.6h3L79,187.5l5.6-3.8h7.5l3.7,3.8
		v21.4h3.9L96.5,217.5z M78.6,201.4h4.5l0.5-7.6L78.6,201.4z"/>
	<path fill="#231F20" d="M134.7,196.5l-7.4-1.1l-4.9,13.4h4.2l-3.2,8.7h-21.2l3.1-8.7h3.7l5.6-15.3l-7.6-1.1l3.1,4.7l-7.9,4.3
		l-5-7.5l12-12.1l25.1,4.1l-2.6-3.5l6.7-4.5l5.4,8.1L134.7,196.5z"/>
	<path fill="#231F20" d="M176.6,196.5l-7.4-1.1l-4.9,13.4h4.2l-3.2,8.7H144l3.1-8.7h3.7l5.6-15.3l-7.6-1.1l3.1,4.7l-7.9,4.3l-5-7.5
		l12-12.1l25.1,4.1l-2.6-3.5l6.7-4.5l5.4,8.1L176.6,196.5z"/>
	<path fill="#231F20" d="M218.6,199.5h-10.5l2.6-7.1h-8.5l-1.8,5.1h6.1l-2.2,6.2h-6.2l-1.8,5.1h8.4l2.6-7.1h10.5l-4.4,12l-5.6,3.7
		h-31.9l3.2-8.6h3.6l6-16.4h-4.2l3.2-8.7h31.4l3.7,3.8L218.6,199.5z"/>
	<path fill="#231F20" d="M251,200.4l3.7,4.6l-1.7,5.1h3.8l-2.7,7.4h-12.6l-2.6-5.4l3.2-8.9H237l-2,5.6h3l-2.9,8.6h-20.3l3.1-8.6h3.7
		l6-16.4h-4.1l3.1-8.7H249l7.4,3.3l1.9,7.9L251,200.4z M241,192.4l-2.2,5.8h4.8l2.2-5.8H241z"/>
	<path fill="#231F20" d="M292.8,195.6h-8.7l1.1-3.4l-4.8-3l-4.4,1.7v2.2l11.9,6.1l4.1,7.5l-3,7.8l-12.7,4.6l-8.7-5.1l-1.3,3.5h-10.1
		l4.4-12.2h9.6l-1.1,3.4l5.1,3l4.2-1.7v-2.2l-12-6.5l-3.2-6.9l3-7.7l11.7-4.6l8.7,5.1l1.2-3.3h9.2L292.8,195.6z"/>
</g>
<g>
	<path fill="#231F20" d="M90.8,232.7H84l1.7-4.5h-5.4l-1.3,3.5h3.9l-1.5,4h-3.9l-1.1,3h2.6l-2,5.5H63.5l2-5.5h2.3l3.8-10.5H69l2-5.6
		h20.1l2.4,2.4L90.8,232.7z"/>
	<path fill="#231F20" d="M111.3,241.8l-9.3,3.5l-8-3.5l-2.1-8.4l5.1-8.4l9.3-3.4l8,3.4l2.1,8.4L111.3,241.8z M105.4,226.1l-5.1,13.7
		l2.7,0.9l5.1-13.7L105.4,226.1z"/>
	<path fill="#231F20" d="M136.7,233.2l2.4,3l-1.1,3.3h2.4l-1.8,4.8h-8.1l-1.7-3.4l2.1-5.7h-3.2l-1.3,3.6h1.9l-1.9,5.5h-13l2-5.5h2.4
		l3.8-10.5H119l2-5.6h14.4l4.8,2.1l1.2,5.1L136.7,233.2z M130.3,228.2l-1.4,3.7h3.1l1.4-3.7H130.3z"/>
	<path fill="#231F20" d="M173.7,230.8l-4.7-0.7l-3.1,8.6h2.7l-2,5.6h-13.6l2-5.6h2.4l3.6-9.8l-4.9-0.7l2,3l-5.1,2.8l-3.2-4.8
		l7.7-7.8l16.1,2.6l-1.7-2.3l4.3-2.9l3.5,5.2L173.7,230.8z"/>
	<path fill="#231F20" d="M206.1,228.2h-2.2l-3.8,10.5h2.7l-2,5.5h-13l2-5.5h1.8l1.3-3.7h-5.1l-1.3,3.7h1.8l-2,5.5h-12.7l2-5.5h2.3
		l3.8-10.5h-2.6l2-5.6h13l-2,5.6h-1.8l-1.3,3.7h5.1l1.3-3.7h-1.8l2-5.6h12.6L206.1,228.2z"/>
	<path fill="#231F20" d="M230.3,232.7h-6.7l1.7-4.5h-5.4l-1.2,3.3h3.9l-1.4,4h-4l-1.2,3.3h5.4l1.7-4.5h6.7l-2.8,7.7l-3.6,2.4H203
		l2-5.5h2.3l3.8-10.5h-2.7l2-5.6h20.1l2.4,2.4L230.3,232.7z"/>
</g>
<g>
	<path fill="#231F20" d="M64.6,266.3H54.1l2.6-7.1h-8.5l-2,5.5h6.1l-2.3,6.3H44l-1.7,4.7h4.1l-3.1,8.6H22l3.2-8.6h3.6l6-16.4h-4.2
		l3.2-8.7h31.4l3.7,3.8L64.6,266.3z"/>
	<path fill="#231F20" d="M107.5,259.3h-3.2l-5.9,16.1l-6.3,6.7l-12.2,3.9l-10.5-3.9l-2.3-8l5.3-14.8h-3.7l3.2-8.7h20.3l-3.2,8.7
		h-3.2l-6,16.4l3.5,1.7l4.9-2l5.8-16.1h-2.7l3.2-8.7h16.2L107.5,259.3z"/>
	<path fill="#231F20" d="M145.2,263.3l-7.4-1.1l-4.9,13.4h4.2l-3.2,8.7h-21.2l3.1-8.7h3.7l5.6-15.3l-7.6-1.1l3.1,4.7l-7.9,4.3
		l-5-7.5l12-12.1l25.1,4.1l-2.6-3.5l6.7-4.5l5.4,8.1L145.2,263.3z"/>
	<path fill="#231F20" d="M192.3,259.3h-3.2l-5.9,16.1l-6.3,6.7l-12.2,3.9l-10.5-3.9l-2.3-8l5.3-14.8h-3.7l3.2-8.7H177l-3.2,8.7h-3.2
		l-6,16.4l3.5,1.7l4.9-2l5.8-16.1h-2.7l3.2-8.7h16.2L192.3,259.3z"/>
	<path fill="#231F20" d="M222.8,267.2l3.7,4.6l-1.7,5.1h3.8l-2.7,7.4h-12.6l-2.6-5.4l3.2-8.9h-5.1l-2,5.6h3l-2.9,8.6h-20.3l3.1-8.6
		h3.7l6-16.4h-4.1l3.1-8.7h22.4l7.4,3.3l1.9,7.9L222.8,267.2z M212.8,259.3l-2.2,5.8h4.8l2.2-5.8H212.8z"/>
	<path fill="#231F20" d="M271.8,266.3h-10.5l2.6-7.1h-8.5l-1.8,5.1h6.1l-2.2,6.2h-6.2l-1.8,5.1h8.4l2.6-7.1H271l-4.4,12l-5.6,3.7
		h-31.9l3.2-8.6h3.6l6-16.4h-4.2l3.2-8.7h31.4l3.7,3.8L271.8,266.3z"/>
</g>
<g>
	<path fill="#231F20" d="M81.3,316.1l-9.3,3.5l-8-3.5l-2.1-8.4l5.1-8.4l9.3-3.4l8,3.4l2.1,8.4L81.3,316.1z M75.4,300.4l-5.1,13.7
		l2.7,0.9l5.1-13.7L75.4,300.4z"/>
	<path fill="#231F20" d="M111.4,307h-6.7l1.7-4.5h-5.4l-1.3,3.5h3.9l-1.5,4h-3.9l-1.1,3h2.6l-2,5.5H84.1l2-5.5h2.3l3.8-10.5h-2.7
		l2-5.6h20.1l2.4,2.4L111.4,307z"/>
</g>
<g>
	<path fill="#231F20" d="M147.2,325.5h-21l3.1-8.6h4l0.1-2.6H126l-1.7,2.6h2.7l-3.1,8.6h-16l3.2-8.6h3l15.6-21.4l5.6-3.8h7.5
		l3.7,3.8v21.4h3.9L147.2,325.5z M129.2,309.4h4.5l0.5-7.6L129.2,309.4z"/>
	<path fill="#231F20" d="M186.2,308.4l3.7,4.6l-1.7,5.1h3.8l-2.7,7.4h-12.6l-2.6-5.4l3.2-8.9h-5.1l-2,5.6h3l-2.9,8.6H150l3.1-8.6
		h3.7l6-16.4h-4.1l3.1-8.7h22.4l7.4,3.3l1.9,7.9L186.2,308.4z M176.3,300.5l-2.2,5.8h4.8l2.2-5.8H176.3z"/>
	<path fill="#231F20" d="M232.4,304.5l-7.4-1.1l-4.9,13.4h4.2l-3.2,8.7h-21.2l3.1-8.7h3.7l5.6-15.3l-7.6-1.1l3.1,4.7l-7.9,4.3
		l-5-7.5l12-12.1L232,294l-2.6-3.5l6.7-4.5l5.4,8.1L232.4,304.5z"/>
</g>
</svg>
