<?xml version="1.0" encoding="utf-8"?>
<!-- Generator: Adobe Illustrator 18.1.0, SVG Export Plug-In . SVG Version: 6.00 Build 0)  -->
<svg version="1.1" id="Layer_1" xmlns="http://www.w3.org/2000/svg" xmlns:xlink="http://www.w3.org/1999/xlink" x="0px" y="0px"
	 viewBox="0 0 344.3 200.5" enable-background="new 0 0 344.3 200.5" xml:space="preserve">
<g>
	<path d="M152.6,10.3h-3L135.8,22l-1.8,4.8h4.4l-3.2,8.7h-21.6l3.1-8.7h3.7l1.8-4.9l-5.2-11.6h-3.4l3.1-8.7h19.9l-3.1,8.7h-2.7
		l1.8,5.7l6-5.7h-2.7l3.1-8.7h16.8L152.6,10.3z"/>
	<path d="M180.6,31.6L166,37l-12.6-5.4l-3.2-13.1l8-13.1L172.8,0l12.6,5.4l3.2,13.1L180.6,31.6z M171.3,7l-8,21.5l4.3,1.5l8-21.6
		L171.3,7z"/>
	<path d="M231.1,10.3h-3.2l-5.9,16.2l-6.3,6.7L203.4,37l-10.6-3.9l-2.3-8.1l5.4-14.8h-3.7l3.2-8.7h20.4l-3.2,8.7h-3.2l-6,16.5
		l3.5,1.7l4.9-2l5.8-16.2h-2.7l3.2-8.7h16.2L231.1,10.3z"/>
</g>
<g>
	<path d="M34.8,56.6H23.6l2.5-6.7l-5-2.8l-7.3,19.8l3.5,1.7l4.9-2l1.5-4h8.8l-3.3,9.1L14.6,77L3.2,71.6L0,58.5l8.1-13.1L22.7,40
		l6.1,4.5l1-2.4H40L34.8,56.6z"/>
	<path d="M69.7,75.5H48.6l3.1-8.7h4l0.1-2.6h-7.4l-1.7,2.6h2.7l-3.1,8.7H30.2l3.2-8.7h3L52,45.3l5.6-3.8h7.5l3.7,3.8v21.5h4
		L69.7,75.5z M51.6,59.3h4.5l0.5-7.6L51.6,59.3z"/>
	<path d="M120.4,50.3H117l-8,22l-4.9,3.2H99l-3.8-3.7l-4.7-14.8L87,66.8h3.6l-3.1,8.7H70.7l3.1-8.7h3.7l6-16.5h-4.1l3.1-8.7h13
		l3.7,3.8l4.7,14.8l3.6-9.9h-3.7l3.2-8.7h16.5L120.4,50.3z"/>
	<path d="M121.3,57.5l-2.5-2.8l5-4.5l-3.2-6.7l7.9-3.7l3.6,7.9L121.3,57.5z"/>
	<path d="M172.7,54.4l-7.4-1.1l-4.9,13.5h4.2l-3.2,8.7H140l3.2-8.7h3.7l5.6-15.4l-7.6-1.1l3.1,4.7l-8,4.4l-5-7.5l12-12.2l25.2,4.1
		l-2.7-3.6l6.7-4.5l5.4,8.1L172.7,54.4z"/>
	<path d="M225,50.3h-3.6l-5.9,16.2l-6.3,6.7L196.9,77l-8.7-3.9l-3-8.7l11.4-4.7l3,8.7l1.9-0.8l6.3-17.5h-4.6l3.1-8.7h21.9L225,50.3z
		"/>
	<path d="M265.5,50.3h-3.2l-5.9,16.2l-6.3,6.7L237.8,77l-10.6-3.9l-2.3-8.1l5.4-14.8h-3.7l3.2-8.7h20.4l-3.2,8.7h-3.2l-6,16.5
		l3.5,1.7l4.9-2l5.8-16.2h-2.7l3.2-8.7h16.2L265.5,50.3z"/>
	<path d="M295.3,53.4h-8.7l1.1-3.4l-4.8-3l-4.5,1.7v2.2l12,6.2l4.1,7.6l-3.1,7.8L278.7,77l-8.7-5.1l-1.3,3.6h-10.1l4.5-12.3h9.6
		l-1.1,3.4l5.1,3l4.2-1.7v-2.2l-12-6.5l-3.2-6.9l3-7.7l11.8-4.6l8.7,5.1l1.2-3.3h9.2L295.3,53.4z"/>
	<path d="M335.2,54.4l-7.4-1.1l-4.9,13.5h4.2l-3.2,8.7h-21.3l3.2-8.7h3.7l5.6-15.4l-7.6-1.1l3.1,4.7l-8,4.4l-5-7.5l12-12.2l25.2,4.1
		l-2.7-3.6l6.7-4.5l5.4,8.1L335.2,54.4z"/>
</g>
<g>
	<path d="M128.7,111.3h-20l4.9-13.4H97.6l-3.5,9.7h11.6l-4.3,11.8H89.8l-3.5,9.7h16l4.9-13.4h19.9l-8.3,22.8l-10.5,7.1H47.8l6-16.4
		h6.9l11.4-31.2h-7.9l6-16.5h59.6l7.1,7.1L128.7,111.3z"/>
	<path d="M215.4,97.9h-6.5l-15,41.5l-9.3,6.1h-9.7l-7.1-7.1l-8.8-28l-6.7,18.6h6.9l-6,16.4h-31.6l6-16.4h7l11.3-31.2h-7.8l6-16.5
		h24.6l7.1,7.1l8.9,28l6.7-18.6h-7l6-16.5h31.1L215.4,97.9z"/>
	<path d="M272.4,136l-24.1,9.4h-45.7l6-16.4h7l11.3-31.2H219l6-16.5H263l18.4,9.4l4.2,22.6L272.4,136z M252.3,97.9L241,129.1h9.1
		l11.3-31.2H252.3z"/>
</g>
<g>
	<path d="M67.3,200.5H36.8l4.6-12.5h5.8l0.1-3.7H36.5l-2.5,3.7h4l-4.6,12.5H10.3l4.6-12.5h4.3l22.6-31l8.1-5.5h10.9l5.4,5.5v31h5.7
		L67.3,200.5z M41.2,177.1h6.5l0.8-11L41.2,177.1z"/>
	<path d="M140.6,164.1h-4.9l-11.5,31.7l-7.1,4.7h-7.4l-5.5-5.4l-6.8-21.4l-5.1,14.2h5.3L93,200.5H68.8l4.6-12.5h5.3l8.6-23.9h-6
		l4.6-12.6h18.8l5.4,5.5l6.8,21.4l5.1-14.2h-5.3l4.6-12.6h23.8L140.6,164.1z"/>
	<path d="M208.3,174.3H193l3.8-10.3h-12.3l-2.7,7.4h8.9l-3.2,9h-9l-2.7,7.4h12.2l3.8-10.3h15.2l-6.4,17.4l-8.1,5.4h-46.2l4.6-12.5
		h5.3l8.7-23.9h-6l4.6-12.6h45.6l5.4,5.5L208.3,174.3z"/>
	<path d="M255.3,175.6l5.4,6.7l-2.5,7.4h5.5l-4,10.8h-18.3l-3.8-7.8l4.7-12.9H235l-2.9,8.1h4.4l-4.2,12.5h-29.5l4.6-12.5h5.3
		l8.6-23.9h-6l4.6-12.6h32.5l10.8,4.7l2.8,11.4L255.3,175.6z M240.9,164.1l-3.2,8.5h7l3.1-8.5H240.9z"/>
	<path d="M315.1,200.5h-30.5l4.5-12.5h5.8l0.1-3.7h-10.7l-2.5,3.7h4l-4.6,12.5h-23.2l4.6-12.5h4.3l22.6-31l8.1-5.5h10.9l5.4,5.5v31
		h5.7L315.1,200.5z M289,177.1h6.5l0.8-11L289,177.1z"/>
</g>
</svg>
